<svg xmlns="http://www.w3.org/2000/svg" xmlns:xlink="http://www.w3.org/1999/xlink" width="1080" zoomAndPan="magnify" viewBox="0 0 810 809.999993" height="1080" preserveAspectRatio="xMidYMid meet" version="1.0"><defs><clipPath id="9d9d13fb7f"><path d="M 428 234 L 492 234 L 492 304 L 428 304 Z M 428 234 " clip-rule="nonzero"/></clipPath><clipPath id="12a489010a"><path d="M 481.21875 308.613281 L 417.996094 298.464844 L 428.265625 234.5 L 491.488281 244.652344 Z M 481.21875 308.613281 " clip-rule="nonzero"/></clipPath><clipPath id="43ecca27c4"><path d="M 449.605469 303.539062 L 428.234375 234.671875 L 491.457031 244.824219 Z M 449.605469 303.539062 " clip-rule="nonzero"/></clipPath><clipPath id="813e1b10f0"><path d="M 428 233 L 500 233 L 500 303 L 428 303 Z M 428 233 " clip-rule="nonzero"/></clipPath><clipPath id="8d0bee7d6a"><path d="M 488.921875 308.296875 L 417.902344 296.894531 L 428.144531 233.101562 L 499.164062 244.503906 Z M 488.921875 308.296875 " clip-rule="nonzero"/></clipPath><clipPath id="fd505bc352"><path d="M 453.453125 302.601562 L 428.230469 233.113281 L 499.164062 244.503906 Z M 453.453125 302.601562 " clip-rule="nonzero"/></clipPath><clipPath id="15ef8c0de2"><path d="M 214 232 L 536 232 L 536 545 L 214 545 Z M 214 232 " clip-rule="nonzero"/></clipPath><clipPath id="21e4d71bc3"><path d="M 267.679688 202.5 L 589.039062 263.347656 L 535.875 544.125 L 214.515625 483.28125 Z M 267.679688 202.5 " clip-rule="nonzero"/></clipPath><clipPath id="d736abde12"><path d="M 428.125 232.878906 L 535.40625 544.039062 L 214.515625 483.28125 Z M 428.125 232.878906 " clip-rule="nonzero"/></clipPath><clipPath id="3e8e424e1b"><path d="M 213 454 L 535 454 L 535 585 L 213 585 Z M 213 454 " clip-rule="nonzero"/></clipPath><clipPath id="ce76fe75d5"><path d="M 224.375 431.199219 L 545.28125 491.960938 L 523.402344 607.503906 L 202.5 546.742188 Z M 224.375 431.199219 " clip-rule="nonzero"/></clipPath><clipPath id="c721cb36be"><path d="M 384.820312 461.578125 C 296.210938 444.800781 219.480469 457.0625 213.4375 488.96875 C 207.394531 520.878906 274.332031 560.34375 362.945312 577.121094 C 451.554688 593.898438 528.285156 581.636719 534.328125 549.726562 C 540.371094 517.820312 473.433594 478.355469 384.820312 461.578125 Z M 384.820312 461.578125 " clip-rule="nonzero"/></clipPath><clipPath id="0f500f3473"><path d="M 214 233 L 536 233 L 536 545 L 214 545 Z M 214 233 " clip-rule="nonzero"/></clipPath><clipPath id="2f4c00a3e9"><path d="M 267.679688 202.722656 L 589.039062 263.570312 L 535.875 544.351562 L 214.515625 483.503906 Z M 267.679688 202.722656 " clip-rule="nonzero"/></clipPath><clipPath id="adb92db2f8"><path d="M 428.125 233.101562 L 535.40625 544.261719 L 214.515625 483.503906 Z M 428.125 233.101562 " clip-rule="nonzero"/></clipPath><clipPath id="70e53c5f77"><path d="M 292 243 L 603 243 L 603 545 L 292 545 Z M 292 243 " clip-rule="nonzero"/></clipPath><clipPath id="3db3c569b3"><path d="M 344.238281 214.402344 L 654.609375 273.167969 L 603.261719 544.347656 L 292.890625 485.582031 Z M 344.238281 214.402344 " clip-rule="nonzero"/></clipPath><clipPath id="ede31ce8f6"><path d="M 499.195312 243.742188 L 602.808594 544.261719 L 292.890625 485.582031 Z M 499.195312 243.742188 " clip-rule="nonzero"/></clipPath><clipPath id="ff8aa93397"><path d="M 291 457 L 603 457 L 603 584 L 291 584 Z M 291 457 " clip-rule="nonzero"/></clipPath><clipPath id="d57e384e95"><path d="M 302.414062 435.28125 L 612.347656 493.964844 L 591.21875 605.554688 L 281.285156 546.871094 Z M 302.414062 435.28125 " clip-rule="nonzero"/></clipPath><clipPath id="c19d8acc10"><path d="M 457.375 464.621094 C 371.792969 448.417969 297.6875 460.261719 291.851562 491.078125 C 286.015625 521.890625 350.664062 560.007812 436.246094 576.210938 C 521.824219 592.417969 595.933594 580.570312 601.765625 549.757812 C 607.601562 518.941406 542.953125 480.824219 457.375 464.621094 Z M 457.375 464.621094 " clip-rule="nonzero"/></clipPath><clipPath id="af3bfd4932"><path d="M 415.597656 499.84375 L 456.738281 499.84375 L 456.738281 540.988281 L 415.597656 540.988281 Z M 415.597656 499.84375 " clip-rule="nonzero"/></clipPath><clipPath id="ae019a4c09"><path d="M 436.167969 499.84375 C 424.804688 499.84375 415.597656 509.054688 415.597656 520.417969 C 415.597656 531.777344 424.804688 540.988281 436.167969 540.988281 C 447.527344 540.988281 456.738281 531.777344 456.738281 520.417969 C 456.738281 509.054688 447.527344 499.84375 436.167969 499.84375 Z M 436.167969 499.84375 " clip-rule="nonzero"/></clipPath><clipPath id="2dab4c6db0"><path d="M 366 420 L 410 420 L 410 473 L 366 473 Z M 366 420 " clip-rule="nonzero"/></clipPath><clipPath id="d620520a6a"><path d="M 376.464844 415.230469 L 415.59375 427.941406 L 399.257812 478.226562 L 360.128906 465.515625 Z M 376.464844 415.230469 " clip-rule="nonzero"/></clipPath><clipPath id="850a7ecc39"><path d="M 396.03125 421.585938 C 385.226562 418.074219 372.816406 426.457031 368.320312 440.304688 C 363.820312 454.15625 368.933594 468.226562 379.738281 471.738281 C 390.542969 475.246094 402.949219 466.867188 407.449219 453.015625 C 411.949219 439.167969 406.835938 425.09375 396.03125 421.585938 Z M 396.03125 421.585938 " clip-rule="nonzero"/></clipPath><clipPath id="da9b8fbacc"><path d="M 473.523438 432.242188 L 502.363281 432.242188 L 502.363281 461.078125 L 473.523438 461.078125 Z M 473.523438 432.242188 " clip-rule="nonzero"/></clipPath><clipPath id="7f632c032b"><path d="M 487.941406 432.242188 C 479.980469 432.242188 473.523438 438.695312 473.523438 446.660156 C 473.523438 454.625 479.980469 461.078125 487.941406 461.078125 C 495.90625 461.078125 502.363281 454.625 502.363281 446.660156 C 502.363281 438.695312 495.90625 432.242188 487.941406 432.242188 Z M 487.941406 432.242188 " clip-rule="nonzero"/></clipPath><clipPath id="5e993923a8"><path d="M 462.628906 336.539062 L 491.464844 336.539062 L 491.464844 365.375 L 462.628906 365.375 Z M 462.628906 336.539062 " clip-rule="nonzero"/></clipPath><clipPath id="2f0422b0e1"><path d="M 477.046875 336.539062 C 469.082031 336.539062 462.628906 342.992188 462.628906 350.957031 C 462.628906 358.921875 469.082031 365.375 477.046875 365.375 C 485.011719 365.375 491.464844 358.921875 491.464844 350.957031 C 491.464844 342.992188 485.011719 336.539062 477.046875 336.539062 Z M 477.046875 336.539062 " clip-rule="nonzero"/></clipPath><clipPath id="0d8f1de74c"><path d="M 520.289062 481.867188 L 572.863281 481.867188 L 572.863281 534.4375 L 520.289062 534.4375 Z M 520.289062 481.867188 " clip-rule="nonzero"/></clipPath><clipPath id="761ed78a07"><path d="M 546.578125 481.867188 C 532.058594 481.867188 520.289062 493.636719 520.289062 508.152344 C 520.289062 522.667969 532.058594 534.4375 546.578125 534.4375 C 561.09375 534.4375 572.863281 522.667969 572.863281 508.152344 C 572.863281 493.636719 561.09375 481.867188 546.578125 481.867188 Z M 546.578125 481.867188 " clip-rule="nonzero"/></clipPath><clipPath id="8227bec4f0"><path d="M 478.472656 555.335938 L 533.964844 555.335938 L 533.964844 584.542969 L 478.472656 584.542969 Z M 478.472656 555.335938 " clip-rule="nonzero"/></clipPath><clipPath id="09c4d5f108"><path d="M 545 415 L 573 415 L 573 455 L 545 455 Z M 545 415 " clip-rule="nonzero"/></clipPath><clipPath id="40108bb78b"><path d="M 552.804688 460.28125 L 540.054688 421.429688 L 560.40625 414.75 L 573.15625 453.601562 Z M 552.804688 460.28125 " clip-rule="nonzero"/></clipPath><clipPath id="37f25c955d"><path d="M 552.804688 460.28125 L 540.054688 421.429688 L 560.40625 414.75 L 573.15625 453.601562 Z M 552.804688 460.28125 " clip-rule="nonzero"/></clipPath><clipPath id="7048dd818b"><path d="M 355 296 L 377 296 L 377 320 L 355 320 Z M 355 296 " clip-rule="nonzero"/></clipPath><clipPath id="4987c97aaa"><path d="M 382.101562 305.371094 L 365.707031 324.65625 L 355.320312 315.828125 L 371.714844 296.542969 Z M 382.101562 305.371094 " clip-rule="nonzero"/></clipPath><clipPath id="0e64fbdfd2"><path d="M 382.101562 305.371094 L 365.707031 324.65625 L 355.320312 315.828125 L 371.714844 296.542969 Z M 382.101562 305.371094 " clip-rule="nonzero"/></clipPath><clipPath id="6b7489ceb5"><path d="M 302.289062 400.808594 L 331.125 400.808594 L 331.125 429.648438 L 302.289062 429.648438 Z M 302.289062 400.808594 " clip-rule="nonzero"/></clipPath><clipPath id="1514792549"><path d="M 316.707031 400.808594 C 308.742188 400.808594 302.289062 407.265625 302.289062 415.226562 C 302.289062 423.191406 308.742188 429.648438 316.707031 429.648438 C 324.667969 429.648438 331.125 423.191406 331.125 415.226562 C 331.125 407.265625 324.667969 400.808594 316.707031 400.808594 Z M 316.707031 400.808594 " clip-rule="nonzero"/></clipPath><clipPath id="b33173d0eb"><path d="M 419 255 L 448 255 L 448 293 L 419 293 Z M 419 255 " clip-rule="nonzero"/></clipPath><clipPath id="30242ab95f"><path d="M 431.753906 250.714844 L 453.679688 262.226562 L 435.195312 297.425781 L 413.273438 285.914062 Z M 431.753906 250.714844 " clip-rule="nonzero"/></clipPath><clipPath id="09fbc13cd8"><path d="M 442.71875 256.46875 C 436.664062 253.289062 427.628906 258.574219 422.535156 268.273438 C 417.441406 277.96875 418.222656 288.410156 424.277344 291.589844 C 430.332031 294.769531 439.367188 289.484375 444.460938 279.785156 C 449.554688 270.089844 448.773438 259.648438 442.71875 256.46875 Z M 442.71875 256.46875 " clip-rule="nonzero"/></clipPath><clipPath id="7e12a6146e"><path d="M 379 347 L 411 347 L 411 383 L 379 383 Z M 379 347 " clip-rule="nonzero"/></clipPath><clipPath id="5833fdb033"><path d="M 397.324219 342.09375 L 417.042969 357.070312 L 392.992188 388.730469 L 373.273438 373.75 Z M 397.324219 342.09375 " clip-rule="nonzero"/></clipPath><clipPath id="e4002060e7"><path d="M 407.183594 349.582031 C 401.738281 345.445312 391.953125 349.164062 385.328125 357.886719 C 378.699219 366.605469 377.742188 377.03125 383.191406 381.167969 C 388.636719 385.304688 398.421875 381.585938 405.046875 372.863281 C 411.671875 364.144531 412.628906 353.71875 407.183594 349.582031 Z M 407.183594 349.582031 " clip-rule="nonzero"/></clipPath></defs><g clip-path="url(#9d9d13fb7f)"><g clip-path="url(#12a489010a)"><g clip-path="url(#43ecca27c4)"><path fill="#f2a231" d="M 481.21875 308.613281 L 417.996094 298.464844 L 428.222656 234.75 L 491.445312 244.898438 Z M 481.21875 308.613281 " fill-opacity="1" fill-rule="nonzero"/></g></g></g><g clip-path="url(#813e1b10f0)"><g clip-path="url(#8d0bee7d6a)"><g clip-path="url(#fd505bc352)"><path fill="#f2a231" d="M 488.921875 308.296875 L 417.902344 296.894531 L 428.144531 233.101562 L 499.164062 244.503906 Z M 488.921875 308.296875 " fill-opacity="1" fill-rule="nonzero"/></g></g></g><g clip-path="url(#15ef8c0de2)"><g clip-path="url(#21e4d71bc3)"><g clip-path="url(#d736abde12)"><path fill="#f2a231" d="M 267.679688 202.5 L 589.039062 263.347656 L 535.875 544.125 L 214.515625 483.28125 Z M 267.679688 202.5 " fill-opacity="1" fill-rule="nonzero"/></g></g></g><g clip-path="url(#3e8e424e1b)"><g clip-path="url(#ce76fe75d5)"><g clip-path="url(#c721cb36be)"><path fill="#d17929" d="M 224.375 431.199219 L 545.28125 491.960938 L 523.402344 607.503906 L 202.5 546.742188 Z M 224.375 431.199219 " fill-opacity="1" fill-rule="nonzero"/></g></g></g><g clip-path="url(#0f500f3473)"><g clip-path="url(#2f4c00a3e9)"><g clip-path="url(#adb92db2f8)"><path fill="#f2a231" d="M 267.679688 202.722656 L 589.039062 263.570312 L 535.875 544.351562 L 214.515625 483.503906 Z M 267.679688 202.722656 " fill-opacity="1" fill-rule="nonzero"/></g></g></g><g clip-path="url(#70e53c5f77)"><g clip-path="url(#3db3c569b3)"><g clip-path="url(#ede31ce8f6)"><path fill="#fcd433" d="M 344.238281 214.402344 L 654.609375 273.167969 L 603.261719 544.347656 L 292.890625 485.582031 Z M 344.238281 214.402344 " fill-opacity="1" fill-rule="nonzero"/></g></g></g><g clip-path="url(#ff8aa93397)"><g clip-path="url(#d57e384e95)"><g clip-path="url(#c19d8acc10)"><path fill="#fcd433" d="M 302.414062 435.28125 L 612.347656 493.964844 L 591.21875 605.554688 L 281.285156 546.871094 Z M 302.414062 435.28125 " fill-opacity="1" fill-rule="nonzero"/></g></g></g><g clip-path="url(#af3bfd4932)"><g clip-path="url(#ae019a4c09)"><path fill="#f5a531" d="M 415.597656 499.84375 L 456.738281 499.84375 L 456.738281 540.988281 L 415.597656 540.988281 Z M 415.597656 499.84375 " fill-opacity="1" fill-rule="nonzero"/></g></g><g clip-path="url(#2dab4c6db0)"><g clip-path="url(#d620520a6a)"><g clip-path="url(#850a7ecc39)"><path fill="#f5a531" d="M 376.464844 415.230469 L 415.59375 427.941406 L 399.308594 478.074219 L 360.179688 465.363281 Z M 376.464844 415.230469 " fill-opacity="1" fill-rule="nonzero"/></g></g></g><g clip-path="url(#da9b8fbacc)"><g clip-path="url(#7f632c032b)"><path fill="#f5a531" d="M 473.523438 432.242188 L 502.363281 432.242188 L 502.363281 461.078125 L 473.523438 461.078125 Z M 473.523438 432.242188 " fill-opacity="1" fill-rule="nonzero"/></g></g><g clip-path="url(#5e993923a8)"><g clip-path="url(#2f0422b0e1)"><path fill="#f5a531" d="M 462.628906 336.539062 L 491.464844 336.539062 L 491.464844 365.375 L 462.628906 365.375 Z M 462.628906 336.539062 " fill-opacity="1" fill-rule="nonzero"/></g></g><g clip-path="url(#0d8f1de74c)"><g clip-path="url(#761ed78a07)"><path fill="#f5a531" d="M 520.289062 481.867188 L 572.863281 481.867188 L 572.863281 534.4375 L 520.289062 534.4375 Z M 520.289062 481.867188 " fill-opacity="1" fill-rule="nonzero"/></g></g><g clip-path="url(#8227bec4f0)"><path fill="#ffffff" d="M 532.5 584.089844 L 479.609375 584.089844 C 479.453125 584.09375 479.304688 584.0625 479.160156 584.003906 C 479.019531 583.949219 478.894531 583.863281 478.785156 583.753906 C 478.675781 583.644531 478.589844 583.519531 478.53125 583.375 C 478.472656 583.234375 478.445312 583.085938 478.445312 582.929688 C 478.445312 582.027344 478.492188 581.125 478.578125 580.226562 C 478.667969 579.324219 478.800781 578.433594 478.976562 577.546875 C 479.152344 576.660156 479.375 575.785156 479.636719 574.917969 C 479.898438 574.054688 480.203125 573.203125 480.550781 572.367188 C 480.894531 571.535156 481.28125 570.71875 481.707031 569.921875 C 482.132812 569.125 482.597656 568.347656 483.101562 567.597656 C 483.605469 566.847656 484.140625 566.121094 484.714844 565.421875 C 485.289062 564.722656 485.894531 564.054688 486.535156 563.414062 C 487.175781 562.777344 487.84375 562.171875 488.542969 561.597656 C 489.242188 561.023438 489.964844 560.484375 490.71875 559.984375 C 491.46875 559.480469 492.242188 559.019531 493.042969 558.589844 C 493.839844 558.164062 494.65625 557.78125 495.488281 557.433594 C 496.324219 557.089844 497.175781 556.785156 498.039062 556.523438 C 498.90625 556.257812 499.78125 556.039062 500.667969 555.863281 C 501.554688 555.6875 502.445312 555.554688 503.347656 555.464844 C 504.246094 555.378906 505.148438 555.332031 506.050781 555.332031 C 506.957031 555.332031 507.859375 555.378906 508.757812 555.464844 C 509.65625 555.554688 510.550781 555.6875 511.4375 555.863281 C 512.324219 556.039062 513.199219 556.257812 514.0625 556.523438 C 514.929688 556.785156 515.78125 557.089844 516.613281 557.433594 C 517.449219 557.78125 518.265625 558.164062 519.0625 558.589844 C 519.859375 559.019531 520.636719 559.480469 521.386719 559.984375 C 522.136719 560.484375 522.863281 561.023438 523.5625 561.597656 C 524.261719 562.171875 524.929688 562.777344 525.570312 563.414062 C 526.210938 564.054688 526.816406 564.722656 527.390625 565.421875 C 527.960938 566.121094 528.5 566.847656 529.003906 567.597656 C 529.503906 568.347656 529.96875 569.125 530.394531 569.921875 C 530.824219 570.71875 531.207031 571.535156 531.554688 572.367188 C 531.902344 573.203125 532.207031 574.054688 532.46875 574.917969 C 532.730469 575.785156 532.949219 576.660156 533.125 577.546875 C 533.304688 578.433594 533.4375 579.324219 533.523438 580.226562 C 533.613281 581.125 533.660156 582.027344 533.660156 582.929688 C 533.660156 583.085938 533.632812 583.234375 533.574219 583.375 C 533.515625 583.515625 533.429688 583.644531 533.320312 583.753906 C 533.214844 583.859375 533.085938 583.945312 532.945312 584.003906 C 532.804688 584.0625 532.65625 584.089844 532.5 584.089844 Z M 532.5 584.089844 " fill-opacity="1" fill-rule="nonzero"/></g><g clip-path="url(#09c4d5f108)"><g clip-path="url(#40108bb78b)"><g clip-path="url(#37f25c955d)"><path fill="#ffffff" d="M 560.488281 416.011719 L 572.597656 452.90625 C 572.675781 453.128906 572.660156 453.347656 572.554688 453.558594 C 572.445312 453.769531 572.28125 453.910156 572.054688 453.984375 C 571.425781 454.191406 570.785156 454.367188 570.136719 454.507812 C 569.488281 454.652344 568.835938 454.765625 568.179688 454.84375 C 567.519531 454.925781 566.859375 454.972656 566.195312 454.988281 C 565.53125 455 564.867188 454.984375 564.207031 454.933594 C 563.546875 454.882812 562.886719 454.800781 562.234375 454.6875 C 561.578125 454.570312 560.933594 454.425781 560.292969 454.246094 C 559.65625 454.066406 559.027344 453.859375 558.40625 453.617188 C 557.789062 453.378906 557.183594 453.109375 556.589844 452.808594 C 556 452.507812 555.421875 452.179688 554.863281 451.824219 C 554.304688 451.46875 553.761719 451.085938 553.238281 450.675781 C 552.71875 450.265625 552.214844 449.832031 551.738281 449.375 C 551.257812 448.917969 550.800781 448.433594 550.367188 447.933594 C 549.9375 447.429688 549.53125 446.90625 549.148438 446.363281 C 548.765625 445.816406 548.414062 445.257812 548.089844 444.679688 C 547.761719 444.101562 547.464844 443.507812 547.199219 442.902344 C 546.929688 442.292969 546.691406 441.675781 546.484375 441.042969 C 546.277344 440.414062 546.101562 439.773438 545.957031 439.128906 C 545.816406 438.480469 545.703125 437.828125 545.621094 437.167969 C 545.542969 436.507812 545.496094 435.847656 545.480469 435.183594 C 545.464844 434.519531 545.480469 433.859375 545.53125 433.195312 C 545.582031 432.535156 545.664062 431.875 545.78125 431.222656 C 545.894531 430.570312 546.039062 429.921875 546.21875 429.285156 C 546.398438 428.644531 546.605469 428.015625 546.847656 427.398438 C 547.085938 426.777344 547.355469 426.171875 547.65625 425.582031 C 547.953125 424.988281 548.28125 424.410156 548.636719 423.851562 C 548.992188 423.292969 549.375 422.75 549.785156 422.226562 C 550.195312 421.707031 550.628906 421.203125 551.085938 420.726562 C 551.546875 420.246094 552.027344 419.789062 552.53125 419.355469 C 553.03125 418.921875 553.554688 418.515625 554.097656 418.136719 C 554.640625 417.753906 555.203125 417.398438 555.78125 417.074219 C 556.359375 416.746094 556.953125 416.449219 557.558594 416.183594 C 558.164062 415.914062 558.785156 415.675781 559.414062 415.46875 C 559.636719 415.394531 559.855469 415.410156 560.066406 415.515625 C 560.277344 415.625 560.417969 415.789062 560.488281 416.011719 Z M 560.488281 416.011719 " fill-opacity="1" fill-rule="nonzero"/></g></g></g><g clip-path="url(#7048dd818b)"><g clip-path="url(#4987c97aaa)"><g clip-path="url(#0e64fbdfd2)"><path fill="#ffffff" d="M 355.671875 315.835938 L 371.582031 297.121094 C 371.679688 297.007812 371.800781 296.941406 371.949219 296.929688 C 372.097656 296.917969 372.230469 296.960938 372.34375 297.058594 C 372.984375 297.605469 373.566406 298.207031 374.089844 298.867188 C 374.609375 299.527344 375.0625 300.230469 375.449219 300.980469 C 375.832031 301.730469 376.136719 302.507812 376.367188 303.320312 C 376.597656 304.128906 376.746094 304.953125 376.816406 305.792969 C 376.882812 306.628906 376.867188 307.46875 376.773438 308.304688 C 376.675781 309.140625 376.496094 309.957031 376.238281 310.761719 C 375.980469 311.5625 375.644531 312.328125 375.238281 313.0625 C 374.828125 313.800781 374.347656 314.488281 373.804688 315.128906 C 373.257812 315.769531 372.65625 316.351562 371.996094 316.875 C 371.335938 317.398438 370.632812 317.851562 369.882812 318.234375 C 369.136719 318.617188 368.355469 318.925781 367.546875 319.15625 C 366.738281 319.386719 365.914062 319.535156 365.074219 319.605469 C 364.234375 319.671875 363.398438 319.65625 362.5625 319.5625 C 361.726562 319.464844 360.90625 319.285156 360.105469 319.027344 C 359.304688 318.769531 358.535156 318.4375 357.800781 318.027344 C 357.066406 317.617188 356.375 317.140625 355.734375 316.597656 C 355.621094 316.5 355.558594 316.378906 355.546875 316.230469 C 355.535156 316.082031 355.574219 315.949219 355.671875 315.835938 Z M 355.671875 315.835938 " fill-opacity="1" fill-rule="nonzero"/></g></g></g><g clip-path="url(#6b7489ceb5)"><g clip-path="url(#1514792549)"><path fill="#bf8424" d="M 302.289062 400.808594 L 331.125 400.808594 L 331.125 429.648438 L 302.289062 429.648438 Z M 302.289062 400.808594 " fill-opacity="1" fill-rule="nonzero"/></g></g><g clip-path="url(#b33173d0eb)"><g clip-path="url(#30242ab95f)"><g clip-path="url(#09fbc13cd8)"><path fill="#bf8424" d="M 431.753906 250.714844 L 453.679688 262.226562 L 435.242188 297.339844 L 413.316406 285.828125 Z M 431.753906 250.714844 " fill-opacity="1" fill-rule="nonzero"/></g></g></g><g clip-path="url(#7e12a6146e)"><g clip-path="url(#5833fdb033)"><g clip-path="url(#e4002060e7)"><path fill="#bf8424" d="M 397.324219 342.09375 L 417.042969 357.070312 L 393.050781 388.65625 L 373.332031 373.675781 Z M 397.324219 342.09375 " fill-opacity="1" fill-rule="nonzero"/></g></g></g></svg>