<svg xmlns="http://www.w3.org/2000/svg" xmlns:xlink="http://www.w3.org/1999/xlink" width="200" zoomAndPan="magnify" viewBox="0 0 150 149.999998" height="200" preserveAspectRatio="xMidYMid meet" version="1.0"><defs><clipPath id="8bd81dac7d"><path d="M 81 11 L 105 11 L 105 38 L 81 38 Z M 81 11 " clip-rule="nonzero"/></clipPath><clipPath id="5b35e59b4d"><path d="M 100.984375 39.300781 L 77.570312 35.542969 L 81.375 11.851562 L 104.789062 15.613281 Z M 100.984375 39.300781 " clip-rule="nonzero"/></clipPath><clipPath id="32fc2b6933"><path d="M 89.277344 37.421875 L 81.363281 11.914062 L 104.777344 15.675781 Z M 89.277344 37.421875 " clip-rule="nonzero"/></clipPath><clipPath id="4d9c16f3cd"><path d="M 81 11 L 108 11 L 108 38 L 81 38 Z M 81 11 " clip-rule="nonzero"/></clipPath><clipPath id="b582441384"><path d="M 103.839844 39.183594 L 77.535156 34.960938 L 81.328125 11.332031 L 107.632812 15.558594 Z M 103.839844 39.183594 " clip-rule="nonzero"/></clipPath><clipPath id="2237a262cd"><path d="M 90.703125 37.074219 L 81.359375 11.339844 L 107.632812 15.558594 Z M 90.703125 37.074219 " clip-rule="nonzero"/></clipPath><clipPath id="4f627cd87b"><path d="M 2 11 L 122 11 L 122 127 L 2 127 Z M 2 11 " clip-rule="nonzero"/></clipPath><clipPath id="632b1d6205"><path d="M 21.898438 0 L 140.921875 22.535156 L 121.230469 126.527344 L 2.207031 103.992188 Z M 21.898438 0 " clip-rule="nonzero"/></clipPath><clipPath id="ff56f7e362"><path d="M 81.320312 11.25 L 121.054688 126.496094 L 2.207031 103.992188 Z M 81.320312 11.25 " clip-rule="nonzero"/></clipPath><clipPath id="c8ed1b9c40"><path d="M 1 93 L 121 93 L 121 142 L 1 142 Z M 1 93 " clip-rule="nonzero"/></clipPath><clipPath id="88682ad4eb"><path d="M 5.859375 84.703125 L 124.714844 107.207031 L 116.609375 150 L -2.242188 127.496094 Z M 5.859375 84.703125 " clip-rule="nonzero"/></clipPath><clipPath id="050b6c4618"><path d="M 65.285156 95.953125 C 32.464844 89.742188 4.046875 94.28125 1.808594 106.101562 C -0.429688 117.917969 24.363281 132.535156 57.179688 138.75 C 90 144.960938 118.417969 140.421875 120.65625 128.601562 C 122.894531 116.785156 98.101562 102.167969 65.285156 95.953125 Z M 65.285156 95.953125 " clip-rule="nonzero"/></clipPath><clipPath id="18e8b1c7e2"><path d="M 2 11 L 122 11 L 122 127 L 2 127 Z M 2 11 " clip-rule="nonzero"/></clipPath><clipPath id="02ec8a094d"><path d="M 21.898438 0.0820312 L 140.921875 22.617188 L 121.230469 126.609375 L 2.207031 104.074219 Z M 21.898438 0.0820312 " clip-rule="nonzero"/></clipPath><clipPath id="79d212a40e"><path d="M 81.320312 11.335938 L 121.054688 126.578125 L 2.207031 104.074219 Z M 81.320312 11.335938 " clip-rule="nonzero"/></clipPath><clipPath id="42332d7d93"><path d="M 31 15 L 147 15 L 147 127 L 31 127 Z M 31 15 " clip-rule="nonzero"/></clipPath><clipPath id="3107d1fc89"><path d="M 50.253906 4.410156 L 165.203125 26.175781 L 146.1875 126.609375 L 31.234375 104.84375 Z M 50.253906 4.410156 " clip-rule="nonzero"/></clipPath><clipPath id="9120651e9f"><path d="M 107.644531 15.277344 L 146.019531 126.578125 L 31.234375 104.84375 Z M 107.644531 15.277344 " clip-rule="nonzero"/></clipPath><clipPath id="178a82188d"><path d="M 30 94 L 146 94 L 146 142 L 30 142 Z M 30 94 " clip-rule="nonzero"/></clipPath><clipPath id="54154db8ba"><path d="M 34.761719 86.214844 L 149.550781 107.949219 L 141.726562 149.28125 L 26.9375 127.546875 Z M 34.761719 86.214844 " clip-rule="nonzero"/></clipPath><clipPath id="c5f420b178"><path d="M 92.15625 97.082031 C 60.457031 91.082031 33.011719 95.46875 30.851562 106.878906 C 28.6875 118.292969 52.632812 132.410156 84.328125 138.414062 C 116.027344 144.414062 143.472656 140.027344 145.632812 128.613281 C 147.796875 117.199219 123.851562 103.082031 92.15625 97.082031 Z M 92.15625 97.082031 " clip-rule="nonzero"/></clipPath><clipPath id="e3c03b0d01"><path d="M 76.683594 110.128906 L 91.917969 110.128906 L 91.917969 125.367188 L 76.683594 125.367188 Z M 76.683594 110.128906 " clip-rule="nonzero"/></clipPath><clipPath id="12892f23db"><path d="M 84.300781 110.128906 C 80.09375 110.128906 76.683594 113.539062 76.683594 117.746094 C 76.683594 121.953125 80.09375 125.367188 84.300781 125.367188 C 88.507812 125.367188 91.917969 121.953125 91.917969 117.746094 C 91.917969 113.539062 88.507812 110.128906 84.300781 110.128906 Z M 84.300781 110.128906 " clip-rule="nonzero"/></clipPath><clipPath id="260a8049e6"><path d="M 58 80 L 75 80 L 75 101 L 58 101 Z M 58 80 " clip-rule="nonzero"/></clipPath><clipPath id="9b200b675a"><path d="M 62.1875 78.789062 L 76.679688 83.496094 L 70.628906 102.121094 L 56.136719 97.414062 Z M 62.1875 78.789062 " clip-rule="nonzero"/></clipPath><clipPath id="9ebf12aaf6"><path d="M 69.433594 81.144531 C 65.433594 79.84375 60.839844 82.945312 59.171875 88.074219 C 57.503906 93.207031 59.398438 98.417969 63.402344 99.71875 C 67.402344 101.015625 71.996094 97.914062 73.664062 92.785156 C 75.332031 87.65625 73.4375 82.441406 69.433594 81.144531 Z M 69.433594 81.144531 " clip-rule="nonzero"/></clipPath><clipPath id="456686cc14"><path d="M 98.136719 85.089844 L 108.816406 85.089844 L 108.816406 95.769531 L 98.136719 95.769531 Z M 98.136719 85.089844 " clip-rule="nonzero"/></clipPath><clipPath id="a51ac8deed"><path d="M 103.476562 85.089844 C 100.527344 85.089844 98.136719 87.480469 98.136719 90.429688 C 98.136719 93.378906 100.527344 95.769531 103.476562 95.769531 C 106.425781 95.769531 108.816406 93.378906 108.816406 90.429688 C 108.816406 87.480469 106.425781 85.089844 103.476562 85.089844 Z M 103.476562 85.089844 " clip-rule="nonzero"/></clipPath><clipPath id="a43009c578"><path d="M 94.101562 49.644531 L 104.78125 49.644531 L 104.78125 60.324219 L 94.101562 60.324219 Z M 94.101562 49.644531 " clip-rule="nonzero"/></clipPath><clipPath id="0ec19a04f8"><path d="M 99.441406 49.644531 C 96.492188 49.644531 94.101562 52.035156 94.101562 54.984375 C 94.101562 57.933594 96.492188 60.324219 99.441406 60.324219 C 102.390625 60.324219 104.78125 57.933594 104.78125 54.984375 C 104.78125 52.035156 102.390625 49.644531 99.441406 49.644531 Z M 99.441406 49.644531 " clip-rule="nonzero"/></clipPath><clipPath id="089a453bbe"><path d="M 115.457031 103.46875 L 134.929688 103.46875 L 134.929688 122.941406 L 115.457031 122.941406 Z M 115.457031 103.46875 " clip-rule="nonzero"/></clipPath><clipPath id="a53f3e5b0b"><path d="M 125.191406 103.46875 C 119.816406 103.46875 115.457031 107.828125 115.457031 113.203125 C 115.457031 118.582031 119.816406 122.941406 125.191406 122.941406 C 130.570312 122.941406 134.929688 118.582031 134.929688 113.203125 C 134.929688 107.828125 130.570312 103.46875 125.191406 103.46875 Z M 125.191406 103.46875 " clip-rule="nonzero"/></clipPath><clipPath id="f6f8511804"><path d="M 99.96875 130.679688 L 120.523438 130.679688 L 120.523438 141.496094 L 99.96875 141.496094 Z M 99.96875 130.679688 " clip-rule="nonzero"/></clipPath><clipPath id="d136ce80d7"><path d="M 124 78 L 135 78 L 135 94 L 124 94 Z M 124 78 " clip-rule="nonzero"/></clipPath><clipPath id="248c845a20"><path d="M 127.5 95.472656 L 122.777344 81.085938 L 130.316406 78.613281 L 135.035156 93 Z M 127.5 95.472656 " clip-rule="nonzero"/></clipPath><clipPath id="977d36a48d"><path d="M 127.5 95.472656 L 122.777344 81.085938 L 130.316406 78.613281 L 135.035156 93 Z M 127.5 95.472656 " clip-rule="nonzero"/></clipPath><clipPath id="e187b77195"><path d="M 54 34 L 63 34 L 63 44 L 54 44 Z M 54 34 " clip-rule="nonzero"/></clipPath><clipPath id="ae7717f6cb"><path d="M 64.277344 38.101562 L 58.203125 45.242188 L 54.359375 41.972656 L 60.429688 34.832031 Z M 64.277344 38.101562 " clip-rule="nonzero"/></clipPath><clipPath id="264784e54c"><path d="M 64.277344 38.101562 L 58.203125 45.242188 L 54.359375 41.972656 L 60.429688 34.832031 Z M 64.277344 38.101562 " clip-rule="nonzero"/></clipPath><clipPath id="0962c4e7af"><path d="M 34.714844 73.449219 L 45.394531 73.449219 L 45.394531 84.128906 L 34.714844 84.128906 Z M 34.714844 73.449219 " clip-rule="nonzero"/></clipPath><clipPath id="d715feabce"><path d="M 40.054688 73.449219 C 37.105469 73.449219 34.714844 75.839844 34.714844 78.789062 C 34.714844 81.738281 37.105469 84.128906 40.054688 84.128906 C 43.003906 84.128906 45.394531 81.738281 45.394531 78.789062 C 45.394531 75.839844 43.003906 73.449219 40.054688 73.449219 Z M 40.054688 73.449219 " clip-rule="nonzero"/></clipPath><clipPath id="9eb44de5a0"><path d="M 78 19 L 89 19 L 89 34 L 78 34 Z M 78 19 " clip-rule="nonzero"/></clipPath><clipPath id="0c3d282cb1"><path d="M 82.667969 17.855469 L 90.789062 22.121094 L 83.941406 35.15625 L 75.820312 30.894531 Z M 82.667969 17.855469 " clip-rule="nonzero"/></clipPath><clipPath id="e6bd571e1d"><path d="M 86.726562 19.988281 C 84.484375 18.8125 81.136719 20.769531 79.25 24.359375 C 77.367188 27.953125 77.65625 31.816406 79.898438 32.996094 C 82.140625 34.171875 85.484375 32.214844 87.371094 28.625 C 89.257812 25.03125 88.96875 21.167969 86.726562 19.988281 Z M 86.726562 19.988281 " clip-rule="nonzero"/></clipPath><clipPath id="3f76abd6fd"><path d="M 63 53 L 75 53 L 75 67 L 63 67 Z M 63 53 " clip-rule="nonzero"/></clipPath><clipPath id="e08f348b91"><path d="M 69.914062 51.699219 L 77.21875 57.25 L 68.308594 68.976562 L 61.007812 63.425781 Z M 69.914062 51.699219 " clip-rule="nonzero"/></clipPath><clipPath id="12fe6b5903"><path d="M 73.566406 54.476562 C 71.550781 52.941406 67.925781 54.320312 65.472656 57.550781 C 63.015625 60.78125 62.664062 64.640625 64.679688 66.171875 C 66.695312 67.707031 70.320312 66.328125 72.773438 63.097656 C 75.230469 59.867188 75.582031 56.007812 73.566406 54.476562 Z M 73.566406 54.476562 " clip-rule="nonzero"/></clipPath></defs><g clip-path="url(#8bd81dac7d)"><g clip-path="url(#5b35e59b4d)"><g clip-path="url(#32fc2b6933)"><path fill="#f2a231" d="M 100.984375 39.300781 L 77.570312 35.542969 L 81.359375 11.945312 L 104.773438 15.703125 Z M 100.984375 39.300781 " fill-opacity="1" fill-rule="nonzero"/></g></g></g><g clip-path="url(#4d9c16f3cd)"><g clip-path="url(#b582441384)"><g clip-path="url(#2237a262cd)"><path fill="#f2a231" d="M 103.839844 39.183594 L 77.535156 34.960938 L 81.328125 11.332031 L 107.632812 15.558594 Z M 103.839844 39.183594 " fill-opacity="1" fill-rule="nonzero"/></g></g></g><g clip-path="url(#4f627cd87b)"><g clip-path="url(#632b1d6205)"><g clip-path="url(#ff56f7e362)"><path fill="#f2a231" d="M 21.898438 0 L 140.921875 22.535156 L 121.230469 126.527344 L 2.207031 103.992188 Z M 21.898438 0 " fill-opacity="1" fill-rule="nonzero"/></g></g></g><g clip-path="url(#c8ed1b9c40)"><g clip-path="url(#88682ad4eb)"><g clip-path="url(#050b6c4618)"><path fill="#d17929" d="M 5.859375 84.703125 L 124.714844 107.207031 L 116.609375 150 L -2.242188 127.496094 Z M 5.859375 84.703125 " fill-opacity="1" fill-rule="nonzero"/></g></g></g><g clip-path="url(#18e8b1c7e2)"><g clip-path="url(#02ec8a094d)"><g clip-path="url(#79d212a40e)"><path fill="#f2a231" d="M 21.898438 0.0820312 L 140.921875 22.617188 L 121.230469 126.609375 L 2.207031 104.074219 Z M 21.898438 0.0820312 " fill-opacity="1" fill-rule="nonzero"/></g></g></g><g clip-path="url(#42332d7d93)"><g clip-path="url(#3107d1fc89)"><g clip-path="url(#9120651e9f)"><path fill="#fcd433" d="M 50.253906 4.410156 L 165.203125 26.175781 L 146.1875 126.609375 L 31.234375 104.84375 Z M 50.253906 4.410156 " fill-opacity="1" fill-rule="nonzero"/></g></g></g><g clip-path="url(#178a82188d)"><g clip-path="url(#54154db8ba)"><g clip-path="url(#c5f420b178)"><path fill="#fcd433" d="M 34.761719 86.214844 L 149.550781 107.949219 L 141.726562 149.28125 L 26.9375 127.546875 Z M 34.761719 86.214844 " fill-opacity="1" fill-rule="nonzero"/></g></g></g><g clip-path="url(#e3c03b0d01)"><g clip-path="url(#12892f23db)"><path fill="#f5a531" d="M 76.683594 110.128906 L 91.917969 110.128906 L 91.917969 125.367188 L 76.683594 125.367188 Z M 76.683594 110.128906 " fill-opacity="1" fill-rule="nonzero"/></g></g><g clip-path="url(#260a8049e6)"><g clip-path="url(#9b200b675a)"><g clip-path="url(#9ebf12aaf6)"><path fill="#f5a531" d="M 62.1875 78.789062 L 76.679688 83.496094 L 70.648438 102.066406 L 56.15625 97.355469 Z M 62.1875 78.789062 " fill-opacity="1" fill-rule="nonzero"/></g></g></g><g clip-path="url(#456686cc14)"><g clip-path="url(#a51ac8deed)"><path fill="#f5a531" d="M 98.136719 85.089844 L 108.816406 85.089844 L 108.816406 95.769531 L 98.136719 95.769531 Z M 98.136719 85.089844 " fill-opacity="1" fill-rule="nonzero"/></g></g><g clip-path="url(#a43009c578)"><g clip-path="url(#0ec19a04f8)"><path fill="#f5a531" d="M 94.101562 49.644531 L 104.78125 49.644531 L 104.78125 60.324219 L 94.101562 60.324219 Z M 94.101562 49.644531 " fill-opacity="1" fill-rule="nonzero"/></g></g><g clip-path="url(#089a453bbe)"><g clip-path="url(#a53f3e5b0b)"><path fill="#f5a531" d="M 115.457031 103.46875 L 134.929688 103.46875 L 134.929688 122.941406 L 115.457031 122.941406 Z M 115.457031 103.46875 " fill-opacity="1" fill-rule="nonzero"/></g></g><g clip-path="url(#f6f8511804)"><path fill="#ffffff" d="M 119.980469 141.328125 L 100.390625 141.328125 C 100.269531 141.332031 100.167969 141.289062 100.085938 141.207031 C 100 141.121094 99.957031 141.019531 99.960938 140.898438 C 99.960938 140.230469 100.023438 139.5625 100.15625 138.90625 C 100.289062 138.246094 100.480469 137.609375 100.738281 136.988281 C 100.996094 136.367188 101.3125 135.78125 101.683594 135.222656 C 102.058594 134.664062 102.480469 134.148438 102.957031 133.671875 C 103.429688 133.199219 103.945312 132.773438 104.503906 132.402344 C 105.0625 132.027344 105.652344 131.714844 106.273438 131.457031 C 106.890625 131.199219 107.53125 131.007812 108.191406 130.875 C 108.847656 130.746094 109.511719 130.679688 110.183594 130.679688 C 110.855469 130.679688 111.519531 130.746094 112.179688 130.875 C 112.835938 131.007812 113.476562 131.199219 114.097656 131.457031 C 114.714844 131.714844 115.304688 132.027344 115.863281 132.402344 C 116.421875 132.773438 116.9375 133.199219 117.414062 133.671875 C 117.886719 134.148438 118.3125 134.664062 118.683594 135.222656 C 119.058594 135.78125 119.371094 136.367188 119.628906 136.988281 C 119.886719 137.609375 120.082031 138.246094 120.210938 138.90625 C 120.34375 139.5625 120.410156 140.230469 120.410156 140.898438 C 120.410156 141.019531 120.367188 141.121094 120.285156 141.203125 C 120.199219 141.289062 120.097656 141.332031 119.980469 141.328125 Z M 119.980469 141.328125 " fill-opacity="1" fill-rule="nonzero"/></g><g clip-path="url(#d136ce80d7)"><g clip-path="url(#248c845a20)"><g clip-path="url(#977d36a48d)"><path fill="#ffffff" d="M 130.347656 79.078125 L 134.832031 92.742188 C 134.859375 92.828125 134.851562 92.90625 134.8125 92.984375 C 134.773438 93.0625 134.714844 93.117188 134.628906 93.140625 C 134.160156 93.296875 133.683594 93.402344 133.195312 93.460938 C 132.703125 93.519531 132.214844 93.53125 131.722656 93.492188 C 131.230469 93.457031 130.75 93.371094 130.273438 93.238281 C 129.800781 93.105469 129.34375 92.929688 128.902344 92.707031 C 128.460938 92.484375 128.050781 92.222656 127.660156 91.917969 C 127.273438 91.613281 126.917969 91.273438 126.597656 90.902344 C 126.277344 90.527344 125.996094 90.125 125.753906 89.695312 C 125.511719 89.265625 125.3125 88.816406 125.160156 88.351562 C 125.003906 87.882812 124.898438 87.402344 124.839844 86.914062 C 124.78125 86.425781 124.769531 85.933594 124.804688 85.441406 C 124.84375 84.953125 124.929688 84.46875 125.058594 83.992188 C 125.191406 83.519531 125.371094 83.0625 125.59375 82.621094 C 125.816406 82.183594 126.078125 81.769531 126.382812 81.378906 C 126.683594 80.992188 127.023438 80.636719 127.398438 80.316406 C 127.773438 79.996094 128.171875 79.714844 128.601562 79.472656 C 129.03125 79.230469 129.480469 79.03125 129.949219 78.878906 C 130.03125 78.851562 130.109375 78.855469 130.1875 78.894531 C 130.265625 78.933594 130.320312 78.996094 130.347656 79.078125 Z M 130.347656 79.078125 " fill-opacity="1" fill-rule="nonzero"/></g></g></g><g clip-path="url(#e187b77195)"><g clip-path="url(#ae7717f6cb)"><g clip-path="url(#264784e54c)"><path fill="#ffffff" d="M 54.488281 41.976562 L 60.378906 35.046875 C 60.464844 34.941406 60.5625 34.933594 60.664062 35.023438 C 60.898438 35.222656 61.117188 35.445312 61.308594 35.691406 C 61.503906 35.9375 61.671875 36.195312 61.8125 36.472656 C 61.953125 36.75 62.066406 37.039062 62.152344 37.339844 C 62.238281 37.640625 62.292969 37.945312 62.320312 38.257812 C 62.34375 38.566406 62.339844 38.878906 62.300781 39.1875 C 62.265625 39.496094 62.199219 39.800781 62.105469 40.097656 C 62.007812 40.394531 61.886719 40.675781 61.734375 40.949219 C 61.582031 41.222656 61.40625 41.476562 61.203125 41.714844 C 61 41.953125 60.777344 42.167969 60.535156 42.359375 C 60.289062 42.554688 60.027344 42.722656 59.75 42.863281 C 59.472656 43.007812 59.183594 43.121094 58.886719 43.207031 C 58.585938 43.292969 58.28125 43.347656 57.96875 43.371094 C 57.660156 43.398438 57.347656 43.390625 57.039062 43.355469 C 56.730469 43.320312 56.425781 43.253906 56.128906 43.160156 C 55.832031 43.0625 55.546875 42.941406 55.277344 42.789062 C 55.003906 42.636719 54.75 42.460938 54.511719 42.257812 C 54.410156 42.171875 54.402344 42.078125 54.488281 41.976562 Z M 54.488281 41.976562 " fill-opacity="1" fill-rule="nonzero"/></g></g></g><g clip-path="url(#0962c4e7af)"><g clip-path="url(#d715feabce)"><path fill="#bf8424" d="M 34.714844 73.449219 L 45.394531 73.449219 L 45.394531 84.128906 L 34.714844 84.128906 Z M 34.714844 73.449219 " fill-opacity="1" fill-rule="nonzero"/></g></g><g clip-path="url(#9eb44de5a0)"><g clip-path="url(#0c3d282cb1)"><g clip-path="url(#e6bd571e1d)"><path fill="#bf8424" d="M 82.667969 17.855469 L 90.789062 22.121094 L 83.957031 35.125 L 75.835938 30.863281 Z M 82.667969 17.855469 " fill-opacity="1" fill-rule="nonzero"/></g></g></g><g clip-path="url(#3f76abd6fd)"><g clip-path="url(#e08f348b91)"><g clip-path="url(#12fe6b5903)"><path fill="#bf8424" d="M 69.914062 51.699219 L 77.21875 57.25 L 68.332031 68.945312 L 61.027344 63.398438 Z M 69.914062 51.699219 " fill-opacity="1" fill-rule="nonzero"/></g></g></g></svg>