<svg xmlns="http://www.w3.org/2000/svg" xmlns:xlink="http://www.w3.org/1999/xlink" width="200" zoomAndPan="magnify" viewBox="0 0 150 149.999998" height="200" preserveAspectRatio="xMidYMid meet" version="1.0"><defs><clipPath id="fce9897d76"><path d="M 12.46875 29 L 137.71875 29 L 137.71875 150 L 12.46875 150 Z M 12.46875 29 " clip-rule="nonzero"/></clipPath><clipPath id="e4269ebe91"><path d="M 79 12 L 137.71875 12 L 137.71875 34 L 79 34 Z M 79 12 " clip-rule="nonzero"/></clipPath></defs><g clip-path="url(#fce9897d76)"><path fill="#dd2e44" d="M 100.0625 29.5 C 87.578125 29.5 87.578125 33.65625 75.09375 33.65625 C 62.609375 33.65625 62.609375 29.5 50.125 29.5 C 33.480469 29.5 12.671875 37.8125 12.671875 66.898438 C 12.671875 112.605469 37.640625 150 54.285156 150 C 66.769531 150 66.769531 145.84375 75.09375 145.84375 C 83.417969 145.84375 83.417969 150 95.902344 150 C 112.546875 150 137.515625 112.605469 137.515625 66.898438 C 137.515625 37.808594 116.707031 29.5 100.0625 29.5 Z M 100.0625 29.5 " fill-opacity="1" fill-rule="nonzero"/></g><g clip-path="url(#e4269ebe91)"><path fill="#77b255" d="M 79.253906 29.5 C 79.253906 29.5 91.738281 12.882812 112.546875 12.882812 C 129.191406 12.882812 137.515625 21.191406 137.515625 21.191406 C 137.515625 21.191406 120.867188 33.65625 108.382812 33.65625 C 95.902344 33.65625 79.253906 29.5 79.253906 29.5 Z M 79.253906 29.5 " fill-opacity="1" fill-rule="nonzero"/></g><path fill="#662113" d="M 75.09375 41.964844 C 72.796875 41.964844 70.933594 40.105469 70.933594 37.8125 C 70.933594 23.515625 75.925781 10.324219 84.636719 1.632812 C 86.261719 0.0078125 88.894531 0.0078125 90.519531 1.632812 C 92.148438 3.257812 92.148438 5.886719 90.519531 7.507812 C 83.359375 14.65625 79.253906 25.699219 79.253906 37.8125 C 79.253906 40.105469 77.390625 41.964844 75.09375 41.964844 Z M 75.09375 41.964844 " fill-opacity="1" fill-rule="nonzero"/></svg>