<svg xmlns="http://www.w3.org/2000/svg" xmlns:xlink="http://www.w3.org/1999/xlink" width="1080" zoomAndPan="magnify" viewBox="0 0 810 809.999993" height="1080" preserveAspectRatio="xMidYMid meet" version="1.0"><defs><clipPath id="ce803446bc"><path d="M 236.164062 282 L 573.664062 282 L 573.664062 607.5 L 236.164062 607.5 Z M 236.164062 282 " clip-rule="nonzero"/></clipPath><clipPath id="15c69302ae"><path d="M 416 237 L 573.664062 237 L 573.664062 294 L 416 294 Z M 416 237 " clip-rule="nonzero"/></clipPath></defs><g clip-path="url(#ce803446bc)"><path fill="#dd2e44" d="M 472.195312 282.152344 C 438.554688 282.152344 438.554688 293.371094 404.914062 293.371094 C 371.277344 293.371094 371.277344 282.152344 337.636719 282.152344 C 292.78125 282.152344 236.714844 304.589844 236.714844 383.125 C 236.714844 506.53125 303.996094 607.5 348.847656 607.5 C 382.488281 607.5 382.488281 596.28125 404.914062 596.28125 C 427.34375 596.28125 427.34375 607.5 460.984375 607.5 C 505.835938 607.5 573.117188 506.53125 573.117188 383.125 C 573.117188 304.582031 517.050781 282.152344 472.195312 282.152344 Z M 472.195312 282.152344 " fill-opacity="1" fill-rule="nonzero"/></g><g clip-path="url(#15c69302ae)"><path fill="#77b255" d="M 416.128906 282.152344 C 416.128906 282.152344 449.769531 237.277344 505.835938 237.277344 C 550.691406 237.277344 573.117188 259.714844 573.117188 259.714844 C 573.117188 259.714844 528.261719 293.371094 494.621094 293.371094 C 460.984375 293.371094 416.128906 282.152344 416.128906 282.152344 Z M 416.128906 282.152344 " fill-opacity="1" fill-rule="nonzero"/></g><path fill="#662113" d="M 404.914062 315.808594 C 398.726562 315.808594 393.703125 310.785156 393.703125 304.589844 C 393.703125 265.988281 407.160156 230.378906 430.628906 206.910156 C 435.011719 202.523438 442.097656 202.523438 446.484375 206.910156 C 450.867188 211.296875 450.867188 218.398438 446.484375 222.773438 C 427.183594 242.070312 416.128906 271.886719 416.128906 304.589844 C 416.128906 310.785156 411.105469 315.808594 404.914062 315.808594 Z M 404.914062 315.808594 " fill-opacity="1" fill-rule="nonzero"/></svg>