<svg xmlns="http://www.w3.org/2000/svg" xmlns:xlink="http://www.w3.org/1999/xlink" width="1080" zoomAndPan="magnify" viewBox="0 0 810 809.999993" height="1080" preserveAspectRatio="xMidYMid meet" version="1.0"><defs><clipPath id="5f3a63cd7d"><path d="M 216.070312 202.5 L 594 202.5 L 594 461.0625 L 216.070312 461.0625 Z M 216.070312 202.5 " clip-rule="nonzero"/></clipPath><clipPath id="91d8583b25"><path d="M 405 202.5 C 300.65625 202.5 216.070312 260.382812 216.070312 331.78125 C 216.070312 403.179688 300.65625 461.0625 405 461.0625 C 509.34375 461.0625 593.929688 403.179688 593.929688 331.78125 C 593.929688 260.382812 509.34375 202.5 405 202.5 Z M 405 202.5 " clip-rule="nonzero"/></clipPath><clipPath id="7469d1d5b0"><path d="M 237.894531 502.769531 L 572.128906 502.769531 L 572.128906 607.5 L 237.894531 607.5 Z M 237.894531 502.769531 " clip-rule="nonzero"/></clipPath><clipPath id="c195a30cac"><path d="M 405 502.769531 C 312.710938 502.769531 237.894531 526.214844 237.894531 555.136719 C 237.894531 584.054688 312.710938 607.5 405 607.5 C 497.289062 607.5 572.105469 584.054688 572.105469 555.136719 C 572.105469 526.214844 497.289062 502.769531 405 502.769531 Z M 405 502.769531 " clip-rule="nonzero"/></clipPath><clipPath id="0436b6729f"><path d="M 236 344 L 430 344 L 430 591 L 236 591 Z M 236 344 " clip-rule="nonzero"/></clipPath><clipPath id="b627b03c3b"><path d="M 256.933594 341.652344 L 432.761719 358.890625 L 409.667969 594.476562 L 233.839844 577.238281 Z M 256.933594 341.652344 " clip-rule="nonzero"/></clipPath><clipPath id="edd589ef0d"><path d="M 288.28125 344.726562 L 401.414062 355.816406 C 418.726562 357.515625 431.386719 372.925781 429.691406 390.242188 L 412.800781 562.527344 C 411.101562 579.839844 395.691406 592.5 378.378906 590.800781 L 265.246094 579.710938 C 247.933594 578.015625 235.273438 562.601562 236.96875 545.289062 L 253.859375 373.003906 C 255.558594 355.6875 270.96875 343.03125 288.28125 344.726562 Z M 288.28125 344.726562 " clip-rule="nonzero"/></clipPath><clipPath id="47efc211ec"><path d="M 380 343 L 577 343 L 577 592 L 380 592 Z M 380 343 " clip-rule="nonzero"/></clipPath><clipPath id="10cc6f2c64"><path d="M 377.644531 359.707031 L 554.988281 340.839844 L 579.96875 575.683594 L 402.625 594.550781 Z M 377.644531 359.707031 " clip-rule="nonzero"/></clipPath><clipPath id="e48cf9b457"><path d="M 408.964844 356.375 L 523.664062 344.171875 C 540.964844 342.332031 556.480469 354.863281 558.320312 372.164062 L 576.632812 544.304688 C 578.472656 561.605469 565.941406 577.121094 548.640625 578.960938 L 433.941406 591.160156 C 416.644531 593 401.128906 580.46875 399.289062 563.171875 L 380.976562 391.03125 C 379.132812 373.730469 391.667969 358.214844 408.964844 356.375 Z M 408.964844 356.375 " clip-rule="nonzero"/></clipPath><clipPath id="7dcc556314"><path d="M 248.671875 224.710938 L 585 224.710938 L 585 454.914062 L 248.671875 454.914062 Z M 248.671875 224.710938 " clip-rule="nonzero"/></clipPath><clipPath id="1f19ceb10d"><path d="M 416.882812 224.710938 C 323.984375 224.710938 248.671875 276.242188 248.671875 339.8125 C 248.671875 403.378906 323.984375 454.914062 416.882812 454.914062 C 509.78125 454.914062 585.089844 403.378906 585.089844 339.8125 C 585.089844 276.242188 509.78125 224.710938 416.882812 224.710938 Z M 416.882812 224.710938 " clip-rule="nonzero"/></clipPath><clipPath id="a6fed97e98"><path d="M 268.105469 492.046875 L 565.679688 492.046875 L 565.679688 585.289062 L 268.105469 585.289062 Z M 268.105469 492.046875 " clip-rule="nonzero"/></clipPath><clipPath id="8d1967f487"><path d="M 416.882812 492.046875 C 334.714844 492.046875 268.105469 512.917969 268.105469 538.667969 C 268.105469 564.414062 334.714844 585.289062 416.882812 585.289062 C 499.046875 585.289062 565.65625 564.414062 565.65625 538.667969 C 565.65625 512.917969 499.046875 492.046875 416.882812 492.046875 Z M 416.882812 492.046875 " clip-rule="nonzero"/></clipPath><clipPath id="c5211f3642"><path d="M 267 351 L 439 351 L 439 571 L 267 571 Z M 267 351 " clip-rule="nonzero"/></clipPath><clipPath id="69d2439ac2"><path d="M 285.054688 348.601562 L 441.597656 363.949219 L 421.039062 573.691406 L 264.492188 558.347656 Z M 285.054688 348.601562 " clip-rule="nonzero"/></clipPath><clipPath id="eaded67f33"><path d="M 316.40625 351.675781 L 410.25 360.875 C 418.5625 361.691406 426.214844 365.773438 431.515625 372.230469 C 436.820312 378.6875 439.339844 386.984375 438.527344 395.296875 L 424.164062 541.808594 C 423.347656 550.125 419.261719 557.773438 412.808594 563.078125 C 406.351562 568.378906 398.054688 570.902344 389.738281 570.085938 L 295.894531 560.886719 C 287.582031 560.070312 279.929688 555.984375 274.628906 549.53125 C 269.324219 543.074219 266.804688 534.777344 267.617188 526.460938 L 281.980469 379.953125 C 282.796875 371.636719 286.882812 363.988281 293.335938 358.683594 C 299.792969 353.382812 308.089844 350.859375 316.40625 351.675781 Z M 316.40625 351.675781 " clip-rule="nonzero"/></clipPath><clipPath id="9c473835ba"><path d="M 395 351 L 570 351 L 570 571 L 395 571 Z M 395 351 " clip-rule="nonzero"/></clipPath><clipPath id="51a1d763cb"><path d="M 392.523438 364.675781 L 550.417969 347.878906 L 572.660156 556.960938 L 414.765625 573.757812 Z M 392.523438 364.675781 " clip-rule="nonzero"/></clipPath><clipPath id="d17fa53317"><path d="M 423.847656 361.34375 L 519.09375 351.210938 C 527.402344 350.328125 535.71875 352.78125 542.21875 358.027344 C 548.71875 363.277344 552.867188 370.894531 553.75 379.203125 L 569.320312 525.589844 C 570.207031 533.898438 567.753906 542.214844 562.503906 548.714844 C 557.253906 555.214844 549.636719 559.359375 541.332031 560.246094 L 446.085938 570.378906 C 437.777344 571.261719 429.460938 568.808594 422.960938 563.558594 C 416.460938 558.308594 412.3125 550.695312 411.429688 542.386719 L 395.855469 396 C 394.972656 387.691406 397.425781 379.371094 402.675781 372.875 C 407.925781 366.375 415.539062 362.226562 423.847656 361.34375 Z M 423.847656 361.34375 " clip-rule="nonzero"/></clipPath></defs><g clip-path="url(#5f3a63cd7d)"><g clip-path="url(#91d8583b25)"><path fill="#f4a950" d="M 216.070312 202.5 L 593.8125 202.5 L 593.8125 461.0625 L 216.070312 461.0625 Z M 216.070312 202.5 " fill-opacity="1" fill-rule="nonzero"/></g></g><g clip-path="url(#7469d1d5b0)"><g clip-path="url(#c195a30cac)"><path fill="#f4a950" d="M 237.894531 502.769531 L 572.128906 502.769531 L 572.128906 607.5 L 237.894531 607.5 Z M 237.894531 502.769531 " fill-opacity="1" fill-rule="nonzero"/></g></g><g clip-path="url(#0436b6729f)"><g clip-path="url(#b627b03c3b)"><g clip-path="url(#edd589ef0d)"><path fill="#f4a950" d="M 256.933594 341.652344 L 432.761719 358.890625 L 409.734375 593.789062 L 233.90625 576.550781 Z M 256.933594 341.652344 " fill-opacity="1" fill-rule="nonzero"/></g></g></g><g clip-path="url(#47efc211ec)"><g clip-path="url(#10cc6f2c64)"><g clip-path="url(#e48cf9b457)"><path fill="#f4a950" d="M 377.644531 359.707031 L 554.988281 340.839844 L 579.96875 575.683594 L 402.625 594.550781 Z M 377.644531 359.707031 " fill-opacity="1" fill-rule="nonzero"/></g></g></g><g clip-path="url(#7dcc556314)"><g clip-path="url(#1f19ceb10d)"><path fill="#fef3d6" d="M 248.671875 224.710938 L 584.984375 224.710938 L 584.984375 454.914062 L 248.671875 454.914062 Z M 248.671875 224.710938 " fill-opacity="1" fill-rule="nonzero"/></g></g><g clip-path="url(#a6fed97e98)"><g clip-path="url(#8d1967f487)"><path fill="#fef3d6" d="M 268.105469 492.046875 L 565.679688 492.046875 L 565.679688 585.289062 L 268.105469 585.289062 Z M 268.105469 492.046875 " fill-opacity="1" fill-rule="nonzero"/></g></g><g clip-path="url(#c5211f3642)"><g clip-path="url(#69d2439ac2)"><g clip-path="url(#eaded67f33)"><path fill="#fef3d6" d="M 285.054688 348.601562 L 441.597656 363.949219 L 421.097656 573.082031 L 264.554688 557.734375 Z M 285.054688 348.601562 " fill-opacity="1" fill-rule="nonzero"/></g></g></g><g clip-path="url(#9c473835ba)"><g clip-path="url(#51a1d763cb)"><g clip-path="url(#d17fa53317)"><path fill="#fef3d6" d="M 392.523438 364.675781 L 550.417969 347.878906 L 572.660156 556.960938 L 414.765625 573.757812 Z M 392.523438 364.675781 " fill-opacity="1" fill-rule="nonzero"/></g></g></g></svg>