<svg xmlns="http://www.w3.org/2000/svg" xmlns:xlink="http://www.w3.org/1999/xlink" width="200" zoomAndPan="magnify" viewBox="0 0 150 149.999998" height="200" preserveAspectRatio="xMidYMid meet" version="1.0"><defs><clipPath id="1c3816bbef"><path d="M 5.027344 0 L 145 0 L 145 95.765625 L 5.027344 95.765625 Z M 5.027344 0 " clip-rule="nonzero"/></clipPath><clipPath id="4d16818f44"><path d="M 75 0 C 36.355469 0 5.027344 21.4375 5.027344 47.882812 C 5.027344 74.328125 36.355469 95.765625 75 95.765625 C 113.644531 95.765625 144.972656 74.328125 144.972656 47.882812 C 144.972656 21.4375 113.644531 0 75 0 Z M 75 0 " clip-rule="nonzero"/></clipPath><clipPath id="2bd0660b46"><path d="M 15 89.226562 L 137 89.226562 L 137 150 L 15 150 Z M 15 89.226562 " clip-rule="nonzero"/></clipPath><clipPath id="b671df56ae"><path d="M 75.945312 89.226562 C 42.285156 89.226562 15 102.832031 15 119.613281 C 15 136.394531 42.285156 150 75.945312 150 C 109.605469 150 136.890625 136.394531 136.890625 119.613281 C 136.890625 102.832031 109.605469 89.226562 75.945312 89.226562 Z M 75.945312 89.226562 " clip-rule="nonzero"/></clipPath><clipPath id="1873914bfb"><path d="M 14 54 L 83 54 L 83 145 L 14 145 Z M 14 54 " clip-rule="nonzero"/></clipPath><clipPath id="ea2378f5b0"><path d="M 20.160156 51.539062 L 85.28125 57.921875 L 76.503906 147.464844 L 11.382812 141.082031 Z M 20.160156 51.539062 " clip-rule="nonzero"/></clipPath><clipPath id="7cbd1f9d08"><path d="M 51.507812 54.613281 L 53.933594 54.847656 C 62.246094 55.664062 69.898438 59.75 75.199219 66.203125 C 80.503906 72.660156 83.023438 80.957031 82.207031 89.273438 L 79.597656 115.910156 C 78.78125 124.222656 74.699219 131.875 68.242188 137.175781 C 61.785156 142.480469 53.488281 145 45.175781 144.1875 L 42.75 143.949219 C 25.4375 142.25 12.777344 126.839844 14.476562 109.527344 L 17.085938 82.886719 C 18.785156 65.574219 34.195312 52.914062 51.507812 54.613281 Z M 51.507812 54.613281 " clip-rule="nonzero"/></clipPath><clipPath id="9218389194"><path d="M 68 54 L 141 54 L 141 143 L 68 143 Z M 68 54 " clip-rule="nonzero"/></clipPath><clipPath id="26fea85d88"><path d="M 64.867188 58.226562 L 134.136719 50.855469 L 143.402344 137.980469 L 74.136719 145.351562 Z M 64.867188 58.226562 " clip-rule="nonzero"/></clipPath><clipPath id="7f50c1983b"><path d="M 96.191406 54.894531 L 102.8125 54.1875 C 111.121094 53.304688 119.4375 55.757812 125.9375 61.007812 C 132.4375 66.253906 136.585938 73.871094 137.46875 82.179688 L 140.054688 106.492188 C 140.9375 114.796875 138.484375 123.117188 133.234375 129.617188 C 127.988281 136.113281 120.371094 140.261719 112.0625 141.144531 L 105.441406 141.851562 C 88.140625 143.691406 72.625 131.160156 70.785156 113.859375 L 68.199219 89.546875 C 66.359375 72.25 78.890625 56.734375 96.191406 54.894531 Z M 96.191406 54.894531 " clip-rule="nonzero"/></clipPath><clipPath id="87926b1d01"><path d="M 17.101562 8.226562 L 141.992188 8.226562 L 141.992188 93.484375 L 17.101562 93.484375 Z M 17.101562 8.226562 " clip-rule="nonzero"/></clipPath><clipPath id="95c0268eb3"><path d="M 79.402344 8.226562 C 44.992188 8.226562 17.101562 27.3125 17.101562 50.855469 C 17.101562 74.398438 44.992188 93.484375 79.402344 93.484375 C 113.808594 93.484375 141.699219 74.398438 141.699219 50.855469 C 141.699219 27.3125 113.808594 8.226562 79.402344 8.226562 Z M 79.402344 8.226562 " clip-rule="nonzero"/></clipPath><clipPath id="d604f7f853"><path d="M 26.390625 86.652344 L 134.570312 86.652344 L 134.570312 144.953125 L 26.390625 144.953125 Z M 26.390625 86.652344 " clip-rule="nonzero"/></clipPath><clipPath id="2fa206b90b"><path d="M 80.449219 86.652344 C 50.59375 86.652344 26.390625 99.703125 26.390625 115.800781 C 26.390625 131.902344 50.59375 144.953125 80.449219 144.953125 C 110.300781 144.953125 134.503906 131.902344 134.503906 115.800781 C 134.503906 99.703125 110.300781 86.652344 80.449219 86.652344 Z M 80.449219 86.652344 " clip-rule="nonzero"/></clipPath><clipPath id="1aaf2a05fc"><path d="M 25 56 L 86 56 L 86 139 L 25 139 Z M 25 56 " clip-rule="nonzero"/></clipPath><clipPath id="e09b229efe"><path d="M 30.574219 54.113281 L 88.554688 59.796875 L 80.539062 141.554688 L 22.558594 135.871094 Z M 30.574219 54.113281 " clip-rule="nonzero"/></clipPath><clipPath id="a0c6c2230b"><path d="M 59.566406 56.953125 C 67.253906 57.707031 74.328125 61.484375 79.230469 67.453125 C 84.136719 73.425781 86.464844 81.097656 85.710938 88.785156 L 83.402344 112.363281 C 82.648438 120.050781 78.871094 127.125 72.902344 132.027344 C 66.929688 136.933594 59.257812 139.261719 51.570312 138.507812 C 43.882812 137.757812 36.808594 133.980469 31.902344 128.007812 C 27 122.039062 24.667969 114.367188 25.421875 106.679688 L 27.734375 83.101562 C 28.488281 75.414062 32.265625 68.339844 38.234375 63.433594 C 44.203125 58.53125 51.875 56.199219 59.566406 56.953125 Z M 59.566406 56.953125 " clip-rule="nonzero"/></clipPath><clipPath id="044abe81d3"><path d="M 73 56 L 137 56 L 137 139 L 73 139 Z M 73 56 " clip-rule="nonzero"/></clipPath><clipPath id="9eddebb73f"><path d="M 70.378906 60.066406 L 131.265625 53.585938 L 139.917969 134.925781 L 79.03125 141.402344 Z M 70.378906 60.066406 " clip-rule="nonzero"/></clipPath><clipPath id="c775fa3582"><path d="M 100.820312 56.824219 C 108.894531 55.96875 116.980469 58.351562 123.296875 63.453125 C 129.613281 68.554688 133.644531 75.957031 134.503906 84.03125 L 136.671875 104.429688 C 137.53125 112.503906 135.148438 120.589844 130.046875 126.90625 C 124.945312 133.222656 117.542969 137.253906 109.46875 138.113281 C 101.394531 138.972656 93.3125 136.585938 86.996094 131.484375 C 80.679688 126.382812 76.648438 118.980469 75.789062 110.910156 L 73.617188 90.507812 C 72.757812 82.433594 75.144531 74.347656 80.246094 68.03125 C 85.347656 61.714844 92.75 57.683594 100.820312 56.824219 Z M 100.820312 56.824219 " clip-rule="nonzero"/></clipPath></defs><g clip-path="url(#1c3816bbef)"><g clip-path="url(#4d16818f44)"><path fill="#f4a950" d="M 5.027344 0 L 144.929688 0 L 144.929688 95.765625 L 5.027344 95.765625 Z M 5.027344 0 " fill-opacity="1" fill-rule="nonzero"/></g></g><g clip-path="url(#2bd0660b46)"><g clip-path="url(#b671df56ae)"><path fill="#f4a950" d="M 15 89.226562 L 136.785156 89.226562 L 136.785156 150 L 15 150 Z M 15 89.226562 " fill-opacity="1" fill-rule="nonzero"/></g></g><g clip-path="url(#1873914bfb)"><g clip-path="url(#ea2378f5b0)"><g clip-path="url(#7cbd1f9d08)"><path fill="#f4a950" d="M 20.160156 51.539062 L 85.28125 57.921875 L 76.527344 147.210938 L 11.40625 140.828125 Z M 20.160156 51.539062 " fill-opacity="1" fill-rule="nonzero"/></g></g></g><g clip-path="url(#9218389194)"><g clip-path="url(#26fea85d88)"><g clip-path="url(#7f50c1983b)"><path fill="#f4a950" d="M 64.867188 58.226562 L 134.136719 50.855469 L 143.375 137.710938 L 74.109375 145.082031 Z M 64.867188 58.226562 " fill-opacity="1" fill-rule="nonzero"/></g></g></g><g clip-path="url(#87926b1d01)"><g clip-path="url(#95c0268eb3)"><path fill="#fef3d6" d="M 17.101562 8.226562 L 141.660156 8.226562 L 141.660156 93.484375 L 17.101562 93.484375 Z M 17.101562 8.226562 " fill-opacity="1" fill-rule="nonzero"/></g></g><g clip-path="url(#d604f7f853)"><g clip-path="url(#2fa206b90b)"><path fill="#fef3d6" d="M 26.390625 86.652344 L 134.570312 86.652344 L 134.570312 144.953125 L 26.390625 144.953125 Z M 26.390625 86.652344 " fill-opacity="1" fill-rule="nonzero"/></g></g><g clip-path="url(#1aaf2a05fc)"><g clip-path="url(#e09b229efe)"><g clip-path="url(#a0c6c2230b)"><path fill="#fef3d6" d="M 30.574219 54.113281 L 88.554688 59.796875 L 80.5625 141.328125 L 22.582031 135.644531 Z M 30.574219 54.113281 " fill-opacity="1" fill-rule="nonzero"/></g></g></g><g clip-path="url(#044abe81d3)"><g clip-path="url(#9eddebb73f)"><g clip-path="url(#c775fa3582)"><path fill="#fef3d6" d="M 70.378906 60.066406 L 131.265625 53.585938 L 139.917969 134.925781 L 79.03125 141.402344 Z M 70.378906 60.066406 " fill-opacity="1" fill-rule="nonzero"/></g></g></g></svg>