<svg xmlns="http://www.w3.org/2000/svg" xmlns:xlink="http://www.w3.org/1999/xlink" width="1080" zoomAndPan="magnify" viewBox="0 0 810 809.999993" height="1080" preserveAspectRatio="xMidYMid meet" version="1.0"><defs><clipPath id="3d2357c1d2"><path d="M 251 202.5 L 558.980469 202.5 L 558.980469 607.5 L 251 607.5 Z M 251 202.5 " clip-rule="nonzero"/></clipPath><clipPath id="859d4fac1a"><path d="M 251 304 L 558.980469 304 L 558.980469 607.5 L 251 607.5 Z M 251 304 " clip-rule="nonzero"/></clipPath></defs><g clip-path="url(#3d2357c1d2)"><path fill="#f4aa7e" d="M 558.480469 438.625 C 558.480469 535.125 489.703125 607.535156 404.859375 607.535156 C 320.015625 607.535156 251.234375 535.125 251.234375 438.625 C 251.234375 342.125 320.015625 202.5 404.859375 202.5 C 489.703125 202.5 558.480469 342.125 558.480469 438.625 " fill-opacity="1" fill-rule="nonzero"/></g><g clip-path="url(#859d4fac1a)"><path fill="#f29266" d="M 524.28125 304.289062 C 530.152344 328.996094 532.925781 354.394531 534.382812 379.707031 C 535.125 392.527344 535.394531 405.28125 534.261719 418.085938 C 533.109375 431.050781 530.835938 443.925781 527.371094 456.472656 C 520.503906 481.378906 508.957031 505.132812 492.460938 525.085938 C 475.667969 545.40625 453.765625 561.085938 428.9375 569.988281 C 406.375 578.085938 381.722656 581.644531 358.003906 577.132812 C 337.820312 573.296875 319.3125 563.472656 304.148438 549.695312 C 288.46875 535.460938 276.449219 517.472656 267.492188 498.375 C 260.621094 483.714844 255.453125 468.28125 251.765625 452.511719 C 258.015625 541.976562 324.144531 607.535156 404.859375 607.535156 C 489.703125 607.535156 558.480469 535.125 558.480469 438.625 C 558.480469 396.976562 545.664062 347.304688 524.28125 304.289062 " fill-opacity="1" fill-rule="nonzero"/></g><path fill="#f9cbac" d="M 330.261719 274.667969 C 320.335938 284.871094 313.542969 298.042969 307.148438 311.109375 C 301.617188 322.410156 296.15625 334.214844 295.332031 346.878906 C 294.507812 367.171875 304.417969 380.78125 322.554688 381.785156 C 327.609375 382.449219 333.179688 383.773438 337.703125 381.054688 C 359.390625 368.035156 371.488281 308.632812 372.777344 295.050781 C 376.203125 258.949219 354.074219 250.195312 330.261719 274.667969 " fill-opacity="1" fill-rule="nonzero"/></svg>