<svg xmlns="http://www.w3.org/2000/svg" xmlns:xlink="http://www.w3.org/1999/xlink" width="200" zoomAndPan="magnify" viewBox="0 0 150 149.999998" height="200" preserveAspectRatio="xMidYMid meet" version="1.0"><defs><clipPath id="795ddff979"><path d="M 18 0 L 131.863281 0 L 131.863281 150 L 18 150 Z M 18 0 " clip-rule="nonzero"/></clipPath><clipPath id="920ec46cdd"><path d="M 18 37 L 131.863281 37 L 131.863281 150 L 18 150 Z M 18 37 " clip-rule="nonzero"/></clipPath></defs><g clip-path="url(#795ddff979)"><path fill="#f4aa7e" d="M 131.679688 87.453125 C 131.679688 123.195312 106.242188 150.011719 74.863281 150.011719 C 43.484375 150.011719 18.050781 123.195312 18.050781 87.453125 C 18.050781 51.714844 43.484375 0 74.863281 0 C 106.242188 0 131.679688 51.714844 131.679688 87.453125 " fill-opacity="1" fill-rule="nonzero"/></g><g clip-path="url(#920ec46cdd)"><path fill="#f29266" d="M 119.03125 37.699219 C 121.203125 46.851562 122.226562 56.257812 122.765625 65.632812 C 123.039062 70.378906 123.140625 75.105469 122.722656 79.847656 C 122.296875 84.648438 121.453125 89.417969 120.171875 94.0625 C 117.632812 103.289062 113.363281 112.085938 107.261719 119.476562 C 101.050781 127.003906 92.953125 132.808594 83.769531 136.105469 C 75.425781 139.105469 66.308594 140.425781 57.535156 138.753906 C 50.070312 137.332031 43.226562 133.691406 37.617188 128.589844 C 31.820312 123.320312 27.375 116.65625 24.0625 109.582031 C 21.519531 104.152344 19.609375 98.4375 18.246094 92.597656 C 20.554688 125.734375 45.011719 150.011719 74.863281 150.011719 C 106.242188 150.011719 131.679688 123.195312 131.679688 87.453125 C 131.679688 72.027344 126.9375 53.632812 119.03125 37.699219 " fill-opacity="1" fill-rule="nonzero"/></g><path fill="#f9cbac" d="M 47.277344 26.730469 C 43.605469 30.507812 41.09375 35.386719 38.726562 40.226562 C 36.683594 44.410156 34.664062 48.78125 34.359375 53.472656 C 34.050781 60.988281 37.71875 66.03125 44.425781 66.402344 C 46.292969 66.648438 48.355469 67.140625 50.027344 66.132812 C 58.046875 61.308594 62.523438 39.308594 63 34.277344 C 64.265625 20.90625 56.082031 17.664062 47.277344 26.730469 " fill-opacity="1" fill-rule="nonzero"/></svg>