<svg xmlns="http://www.w3.org/2000/svg" xmlns:xlink="http://www.w3.org/1999/xlink" width="1080" zoomAndPan="magnify" viewBox="0 0 810 809.999993" height="1080" preserveAspectRatio="xMidYMid meet" version="1.0"><defs><clipPath id="e4978bb164"><path d="M 339 398 L 383 398 L 383 496 L 339 496 Z M 339 398 " clip-rule="nonzero"/></clipPath><clipPath id="603d52df18"><path d="M 363.546875 398.742188 L 382.722656 403.746094 L 358.800781 495.441406 L 339.621094 490.4375 Z M 363.546875 398.742188 " clip-rule="nonzero"/></clipPath><clipPath id="c4304a7d1a"><path d="M 363.546875 398.742188 L 382.722656 403.746094 L 358.816406 495.382812 L 339.636719 490.378906 Z M 363.546875 398.742188 " clip-rule="nonzero"/></clipPath><clipPath id="941b75f38a"><path d="M 363 431 L 429 431 L 429 521 L 363 521 Z M 363 431 " clip-rule="nonzero"/></clipPath><clipPath id="bdee9de593"><path d="M 414.515625 431.792969 L 428.320312 440.503906 L 377.75 520.621094 L 363.945312 511.910156 Z M 414.515625 431.792969 " clip-rule="nonzero"/></clipPath><clipPath id="47e0429cb3"><path d="M 414.515625 431.792969 L 428.320312 440.503906 L 377.765625 520.59375 L 363.964844 511.882812 Z M 414.515625 431.792969 " clip-rule="nonzero"/></clipPath><clipPath id="4e8a18e932"><path d="M 320 405 L 343 405 L 343 430 L 320 430 Z M 320 405 " clip-rule="nonzero"/></clipPath><clipPath id="a508cb381d"><path d="M 320.355469 409.007812 L 338.257812 405.308594 L 342.53125 426.011719 L 324.628906 429.707031 Z M 320.355469 409.007812 " clip-rule="nonzero"/></clipPath><clipPath id="ffb789ba82"><path d="M 320.355469 409.007812 L 338.257812 405.308594 L 342.519531 425.957031 L 324.617188 429.652344 Z M 320.355469 409.007812 " clip-rule="nonzero"/></clipPath><clipPath id="3fbec4af7f"><path d="M 324 423 L 350 423 L 350 483 L 324 483 Z M 324 423 " clip-rule="nonzero"/></clipPath><clipPath id="be35ac3125"><path d="M 324.078125 426.179688 L 342.183594 423.675781 L 350.003906 480.191406 L 331.894531 482.695312 Z M 324.078125 426.179688 " clip-rule="nonzero"/></clipPath><clipPath id="8f87df4ecb"><path d="M 324.078125 426.179688 L 342.183594 423.675781 L 350 480.175781 L 331.890625 482.679688 Z M 324.078125 426.179688 " clip-rule="nonzero"/></clipPath><clipPath id="53794ed570"><path d="M 316 441 L 346 441 L 346 502 L 316 502 Z M 316 441 " clip-rule="nonzero"/></clipPath><clipPath id="ff4afe8f3b"><path d="M 327.253906 441.898438 L 345.96875 445.414062 L 335.425781 501.488281 L 316.710938 497.96875 Z M 327.253906 441.898438 " clip-rule="nonzero"/></clipPath><clipPath id="6127eb8f1a"><path d="M 327.253906 441.898438 L 345.96875 445.414062 L 335.429688 501.472656 L 316.714844 497.953125 Z M 327.253906 441.898438 " clip-rule="nonzero"/></clipPath><clipPath id="6bde7675d5"><path d="M 362 432 L 403 432 L 403 493 L 362 493 Z M 362 432 " clip-rule="nonzero"/></clipPath><clipPath id="3ab1ee9a53"><path d="M 386.019531 432.828125 L 402.710938 440.289062 L 379.421875 492.371094 L 362.734375 484.910156 Z M 386.019531 432.828125 " clip-rule="nonzero"/></clipPath><clipPath id="1741a0ceed"><path d="M 386.019531 432.828125 L 402.710938 440.289062 L 379.425781 492.359375 L 362.738281 484.898438 Z M 386.019531 432.828125 " clip-rule="nonzero"/></clipPath><clipPath id="a75911a8cd"><path d="M 345 450 L 394 450 L 394 508 L 345 508 Z M 345 450 " clip-rule="nonzero"/></clipPath><clipPath id="eac2f090af"><path d="M 378.59375 450.636719 L 393.585938 461.09375 L 360.953125 507.890625 L 345.957031 497.433594 Z M 378.59375 450.636719 " clip-rule="nonzero"/></clipPath><clipPath id="9edc2c0df7"><path d="M 378.59375 450.636719 L 393.585938 461.09375 L 360.960938 507.878906 L 345.964844 497.421875 Z M 378.59375 450.636719 " clip-rule="nonzero"/></clipPath><clipPath id="4da4279a26"><path d="M 325 432 L 364 432 L 364 521 L 325 521 Z M 325 432 " clip-rule="nonzero"/></clipPath><clipPath id="dd77f0bc1c"><path d="M 325.578125 436.996094 L 343.320312 432.59375 L 363.96875 515.753906 L 346.230469 520.160156 Z M 325.578125 436.996094 " clip-rule="nonzero"/></clipPath><clipPath id="dbbd02cbd0"><path d="M 325.578125 436.996094 L 343.320312 432.59375 L 363.96875 515.746094 L 346.226562 520.152344 Z M 325.578125 436.996094 " clip-rule="nonzero"/></clipPath><clipPath id="5e538e48ab"><path d="M 362 463 L 445 463 L 445 511 L 362 511 Z M 362 463 " clip-rule="nonzero"/></clipPath><clipPath id="98b36fa213"><path d="M 437.359375 463.648438 L 444.117188 480.636719 L 369.472656 510.328125 L 362.71875 493.34375 Z M 437.359375 463.648438 " clip-rule="nonzero"/></clipPath><clipPath id="91d03250cb"><path d="M 437.359375 463.648438 L 444.117188 480.636719 L 369.492188 510.324219 L 362.734375 493.335938 Z M 437.359375 463.648438 " clip-rule="nonzero"/></clipPath><clipPath id="c83ef188f0"><path d="M 385 470 L 433 470 L 433 511 L 385 511 Z M 385 470 " clip-rule="nonzero"/></clipPath><clipPath id="b655e04402"><path d="M 422.449219 470.117188 L 432.867188 485.136719 L 395.785156 510.855469 L 385.367188 495.832031 Z M 422.449219 470.117188 " clip-rule="nonzero"/></clipPath><clipPath id="40cd84c173"><path d="M 422.449219 470.117188 L 432.867188 485.136719 L 395.8125 510.835938 L 385.394531 495.8125 Z M 422.449219 470.117188 " clip-rule="nonzero"/></clipPath><clipPath id="5c87e16d5e"><path d="M 297 473 L 391 473 L 391 560 L 297 560 Z M 297 473 " clip-rule="nonzero"/></clipPath><clipPath id="848bc96c9f"><path d="M 325.132812 473.953125 L 390.628906 511.820312 L 363.011719 559.589844 L 297.515625 521.722656 Z M 325.132812 473.953125 " clip-rule="nonzero"/></clipPath><clipPath id="2bd00570fa"><path d="M 325.132812 473.953125 L 390.449219 511.714844 L 362.828125 559.484375 L 297.515625 521.722656 Z M 325.132812 473.953125 " clip-rule="nonzero"/></clipPath><clipPath id="93d21b289d"><path d="M 335 479 L 400 479 L 400 544 L 335 544 Z M 335 479 " clip-rule="nonzero"/></clipPath><clipPath id="c1d1896dad"><path d="M 363.296875 479.234375 L 400.003906 507.785156 L 372.320312 543.378906 L 335.613281 514.832031 Z M 363.296875 479.234375 " clip-rule="nonzero"/></clipPath><clipPath id="1ab07d3f9b"><path d="M 363.296875 479.234375 L 400 507.78125 L 372.316406 543.375 L 335.613281 514.832031 Z M 363.296875 479.234375 " clip-rule="nonzero"/></clipPath><clipPath id="61a2b4b0a7"><path d="M 272 516 L 336 516 L 336 580 L 272 580 Z M 272 516 " clip-rule="nonzero"/></clipPath><clipPath id="c280966f50"><path d="M 303.269531 516.90625 L 335.214844 550.710938 L 304.742188 579.503906 L 272.796875 545.699219 Z M 303.269531 516.90625 " clip-rule="nonzero"/></clipPath><clipPath id="81e1247ccb"><path d="M 303.269531 516.90625 L 335.203125 550.699219 L 304.730469 579.496094 L 272.796875 545.699219 Z M 303.269531 516.90625 " clip-rule="nonzero"/></clipPath><clipPath id="f272129bca"><path d="M 289 528 L 352 528 L 352 591 L 289 591 Z M 289 528 " clip-rule="nonzero"/></clipPath><clipPath id="995979bb2e"><path d="M 319.621094 528.1875 L 351.5625 561.992188 L 321.089844 590.789062 L 289.148438 556.984375 Z M 319.621094 528.1875 " clip-rule="nonzero"/></clipPath><clipPath id="daa9b3d316"><path d="M 319.621094 528.1875 L 351.554688 561.984375 L 321.082031 590.777344 L 289.148438 556.984375 Z M 319.621094 528.1875 " clip-rule="nonzero"/></clipPath><clipPath id="8e256ae4d3"><path d="M 304 535 L 365 535 L 365 597 L 304 597 Z M 304 535 " clip-rule="nonzero"/></clipPath><clipPath id="e364d829fa"><path d="M 322.421875 535.871094 L 365.042969 554.863281 L 346.625 596.191406 L 304.003906 577.199219 Z M 322.421875 535.871094 " clip-rule="nonzero"/></clipPath><clipPath id="10b719f220"><path d="M 322.421875 535.871094 L 364.890625 554.792969 L 346.472656 596.125 L 304.003906 577.199219 Z M 322.421875 535.871094 " clip-rule="nonzero"/></clipPath><clipPath id="07feb65bb7"><path d="M 272 522 L 327 522 L 327 575 L 272 575 Z M 272 522 " clip-rule="nonzero"/></clipPath><clipPath id="659f7cab8c"><path d="M 307.539062 522.589844 L 326.628906 551.367188 L 291.777344 574.488281 L 272.6875 545.707031 Z M 307.539062 522.589844 " clip-rule="nonzero"/></clipPath><clipPath id="f4f64eee97"><path d="M 307.539062 522.589844 L 326.628906 551.367188 L 291.890625 574.414062 L 272.800781 545.632812 Z M 307.539062 522.589844 " clip-rule="nonzero"/></clipPath><clipPath id="33de155a4a"><path d="M 291 539 L 344 539 L 344 594 L 291 594 Z M 291 539 " clip-rule="nonzero"/></clipPath><clipPath id="8175c4c399"><path d="M 315.0625 539.824219 L 343.789062 558.996094 L 320.574219 593.78125 L 291.847656 574.609375 Z M 315.0625 539.824219 " clip-rule="nonzero"/></clipPath><clipPath id="f6d95cf27b"><path d="M 315.0625 539.824219 L 343.789062 558.996094 L 320.648438 593.667969 L 291.921875 574.496094 Z M 315.0625 539.824219 " clip-rule="nonzero"/></clipPath><clipPath id="8d406da8eb"><path d="M 235.449219 294.589844 L 305.546875 294.589844 L 305.546875 364.6875 L 235.449219 364.6875 Z M 235.449219 294.589844 " clip-rule="nonzero"/></clipPath><clipPath id="a41f4d02d9"><path d="M 270.5 294.589844 C 251.140625 294.589844 235.449219 310.28125 235.449219 329.636719 C 235.449219 348.996094 251.140625 364.6875 270.5 364.6875 C 289.855469 364.6875 305.546875 348.996094 305.546875 329.636719 C 305.546875 310.28125 289.855469 294.589844 270.5 294.589844 Z M 270.5 294.589844 " clip-rule="nonzero"/></clipPath><clipPath id="7eec3d20ff"><path d="M 265.519531 237.054688 L 335.617188 237.054688 L 335.617188 307.15625 L 265.519531 307.15625 Z M 265.519531 237.054688 " clip-rule="nonzero"/></clipPath><clipPath id="afef5ddfef"><path d="M 300.570312 237.054688 C 281.210938 237.054688 265.519531 252.75 265.519531 272.105469 C 265.519531 291.464844 281.210938 307.15625 300.570312 307.15625 C 319.925781 307.15625 335.617188 291.464844 335.617188 272.105469 C 335.617188 252.75 319.925781 237.054688 300.570312 237.054688 Z M 300.570312 237.054688 " clip-rule="nonzero"/></clipPath><clipPath id="c84df9bc6f"><path d="M 323.328125 202.5 L 414 202.5 L 414 284.171875 L 323.328125 284.171875 Z M 323.328125 202.5 " clip-rule="nonzero"/></clipPath><clipPath id="ace9e04f46"><path d="M 368.679688 202.5 C 343.632812 202.5 323.328125 220.78125 323.328125 243.335938 C 323.328125 265.890625 343.632812 284.171875 368.679688 284.171875 C 393.730469 284.171875 414.035156 265.890625 414.035156 243.335938 C 414.035156 220.78125 393.730469 202.5 368.679688 202.5 Z M 368.679688 202.5 " clip-rule="nonzero"/></clipPath><clipPath id="65d30b84dc"><path d="M 395 226 L 484 226 L 484 300 L 395 300 Z M 395 226 " clip-rule="nonzero"/></clipPath><clipPath id="bc5f12f2bd"><path d="M 384.367188 248.570312 L 468.023438 212.984375 L 495.460938 277.488281 L 411.808594 313.074219 Z M 384.367188 248.570312 " clip-rule="nonzero"/></clipPath><clipPath id="76ea36508c"><path d="M 426.101562 230.816406 C 403.054688 240.621094 390.511719 263.011719 398.085938 280.824219 C 405.664062 298.636719 430.492188 305.125 453.542969 295.320312 C 476.589844 285.515625 489.132812 263.128906 481.558594 245.316406 C 473.980469 227.503906 449.152344 221.011719 426.101562 230.816406 Z M 426.101562 230.816406 " clip-rule="nonzero"/></clipPath><clipPath id="3d31162b58"><path d="M 453 251 L 544 251 L 544 340 L 453 340 Z M 453 251 " clip-rule="nonzero"/></clipPath><clipPath id="b0bfc5afcf"><path d="M 439.824219 272.5625 L 523.527344 236.957031 L 558.050781 318.121094 L 474.347656 353.730469 Z M 439.824219 272.5625 " clip-rule="nonzero"/></clipPath><clipPath id="c892a87061"><path d="M 481.558594 254.808594 C 458.507812 264.613281 447.550781 290.730469 457.085938 313.144531 C 466.621094 335.558594 493.035156 345.78125 516.085938 335.976562 C 539.132812 326.171875 550.089844 300.050781 540.554688 277.636719 C 531.023438 255.226562 504.605469 245.003906 481.558594 254.808594 Z M 481.558594 254.808594 " clip-rule="nonzero"/></clipPath><clipPath id="0f94a3d461"><path d="M 466 309 L 596 309 L 596 436 L 466 436 Z M 466 309 " clip-rule="nonzero"/></clipPath><clipPath id="ce630e8d90"><path d="M 447.199219 339.855469 L 566.613281 289.058594 L 615.875 404.855469 L 496.457031 455.652344 Z M 447.199219 339.855469 " clip-rule="nonzero"/></clipPath><clipPath id="ddca37dbad"><path d="M 506.742188 314.527344 C 473.855469 328.515625 458.226562 365.777344 471.828125 397.753906 C 485.429688 429.730469 523.117188 444.3125 556 430.324219 C 588.882812 416.335938 604.515625 379.074219 590.910156 347.097656 C 577.308594 315.121094 539.625 300.539062 506.742188 314.527344 Z M 506.742188 314.527344 " clip-rule="nonzero"/></clipPath><clipPath id="a7adbfec30"><path d="M 503 418 L 596 418 L 596 510 L 503 510 Z M 503 418 " clip-rule="nonzero"/></clipPath><clipPath id="298c94a5df"><path d="M 497.542969 425.996094 L 588.679688 412.171875 L 602.339844 502.257812 L 511.203125 516.078125 Z M 497.542969 425.996094 " clip-rule="nonzero"/></clipPath><clipPath id="f9f22bf12c"><path d="M 543.078125 419.089844 C 517.929688 422.902344 500.601562 446.160156 504.371094 471.039062 C 508.144531 495.914062 531.59375 512.988281 556.742188 509.171875 C 581.890625 505.359375 599.222656 482.101562 595.449219 457.222656 C 591.675781 432.347656 568.230469 415.273438 543.078125 419.089844 Z M 543.078125 419.089844 " clip-rule="nonzero"/></clipPath><clipPath id="bcbf101552"><path d="M 480 478 L 557 478 L 557 538 L 480 538 Z M 480 478 " clip-rule="nonzero"/></clipPath><clipPath id="7df73fdd48"><path d="M 473.0625 523.390625 L 489.558594 469.507812 L 564.28125 492.386719 L 547.78125 546.269531 Z M 473.0625 523.390625 " clip-rule="nonzero"/></clipPath><clipPath id="42e6473521"><path d="M 481.308594 496.449219 C 476.753906 511.328125 489.761719 528.503906 510.363281 534.8125 C 530.964844 541.117188 551.359375 534.171875 555.914062 519.292969 C 560.46875 504.410156 547.460938 487.234375 526.863281 480.929688 C 506.261719 474.621094 485.867188 481.570312 481.308594 496.449219 Z M 481.308594 496.449219 " clip-rule="nonzero"/></clipPath><clipPath id="0b266c4246"><path d="M 431 437 L 508 437 L 508 496 L 431 496 Z M 431 437 " clip-rule="nonzero"/></clipPath><clipPath id="f78b75137a"><path d="M 423.757812 481.851562 L 440.253906 427.96875 L 514.976562 450.847656 L 498.476562 504.730469 Z M 423.757812 481.851562 " clip-rule="nonzero"/></clipPath><clipPath id="4e087089c2"><path d="M 432.003906 454.910156 C 427.449219 469.789062 440.457031 486.964844 461.058594 493.273438 C 481.660156 499.582031 502.054688 492.632812 506.609375 477.753906 C 511.164062 462.875 498.15625 445.699219 477.554688 439.390625 C 456.957031 433.082031 436.5625 440.03125 432.003906 454.910156 Z M 432.003906 454.910156 " clip-rule="nonzero"/></clipPath><clipPath id="bea5a61581"><path d="M 345 354 L 464 354 L 464 454 L 345 454 Z M 345 354 " clip-rule="nonzero"/></clipPath><clipPath id="b70c72802e"><path d="M 327.460938 413.394531 L 371.195312 334.058594 L 481.210938 394.703125 L 437.480469 474.042969 Z M 327.460938 413.394531 " clip-rule="nonzero"/></clipPath><clipPath id="e430c6b70a"><path d="M 349.328125 373.726562 C 337.25 395.636719 352.050781 426.949219 382.382812 443.671875 C 412.71875 460.390625 447.097656 456.1875 459.175781 434.277344 C 471.25 412.371094 456.449219 381.054688 426.117188 364.335938 C 395.785156 347.613281 361.402344 351.820312 349.328125 373.726562 Z M 349.328125 373.726562 " clip-rule="nonzero"/></clipPath><clipPath id="a0af7c6869"><path d="M 263 319 L 361 319 L 361 415 L 263 415 Z M 263 319 " clip-rule="nonzero"/></clipPath><clipPath id="b8a3e71d3b"><path d="M 246.59375 384.839844 L 291.921875 302.609375 L 377.363281 349.707031 L 332.035156 431.9375 Z M 246.59375 384.839844 " clip-rule="nonzero"/></clipPath><clipPath id="46c587ec17"><path d="M 269.257812 343.722656 C 256.742188 366.429688 265.660156 395.347656 289.179688 408.3125 C 312.703125 421.277344 341.914062 413.382812 354.433594 390.675781 C 366.949219 367.96875 358.027344 339.050781 334.507812 326.085938 C 310.988281 313.121094 281.777344 321.015625 269.257812 343.722656 Z M 269.257812 343.722656 " clip-rule="nonzero"/></clipPath><clipPath id="9658cbc8c4"><path d="M 290 246 L 568 246 L 568 462 L 290 462 Z M 290 246 " clip-rule="nonzero"/></clipPath><clipPath id="35d76c26f4"><path d="M 258.371094 315.5625 L 334.058594 207.074219 L 600.617188 393.046875 L 524.925781 501.53125 Z M 258.371094 315.5625 " clip-rule="nonzero"/></clipPath><clipPath id="25d60da4dc"><path d="M 296.214844 261.316406 C 275.3125 291.277344 318.019531 357.179688 391.605469 408.515625 C 465.1875 459.855469 541.785156 477.1875 562.683594 447.230469 C 583.585938 417.269531 540.878906 351.367188 467.292969 300.03125 C 393.710938 248.691406 317.117188 231.359375 296.214844 261.316406 Z M 296.214844 261.316406 " clip-rule="nonzero"/></clipPath><clipPath id="e311e0aa5a"><path d="M 320 556 L 350 556 L 350 597 L 320 597 Z M 320 556 " clip-rule="nonzero"/></clipPath><clipPath id="22bbfe998c"><path d="M 324.316406 556.410156 L 350 559.164062 L 346.03125 596.183594 L 320.347656 593.429688 Z M 324.316406 556.410156 " clip-rule="nonzero"/></clipPath><clipPath id="d08eae89fc"><path d="M 324.316406 556.410156 L 350 559.164062 L 346.035156 596.125 L 320.351562 593.371094 Z M 324.316406 556.410156 " clip-rule="nonzero"/></clipPath></defs><g clip-path="url(#e4978bb164)"><g clip-path="url(#603d52df18)"><g clip-path="url(#c4304a7d1a)"><path fill="#78894a" d="M 363.546875 398.742188 L 382.722656 403.746094 L 358.820312 495.367188 L 339.640625 490.363281 Z M 363.546875 398.742188 " fill-opacity="1" fill-rule="nonzero"/></g></g></g><g clip-path="url(#941b75f38a)"><g clip-path="url(#bdee9de593)"><g clip-path="url(#47e0429cb3)"><path fill="#78894a" d="M 414.515625 431.792969 L 428.320312 440.503906 L 377.78125 520.566406 L 363.980469 511.855469 Z M 414.515625 431.792969 " fill-opacity="1" fill-rule="nonzero"/></g></g></g><g clip-path="url(#4e8a18e932)"><g clip-path="url(#a508cb381d)"><g clip-path="url(#ffb789ba82)"><path fill="#8ea84b" d="M 320.355469 409.007812 L 338.257812 405.308594 L 342.519531 425.941406 L 324.617188 429.636719 Z M 320.355469 409.007812 " fill-opacity="1" fill-rule="nonzero"/></g></g></g><g clip-path="url(#3fbec4af7f)"><g clip-path="url(#be35ac3125)"><g clip-path="url(#8f87df4ecb)"><path fill="#8ea84b" d="M 324.078125 426.179688 L 342.183594 423.675781 L 350.003906 480.191406 L 331.894531 482.695312 Z M 324.078125 426.179688 " fill-opacity="1" fill-rule="nonzero"/></g></g></g><g clip-path="url(#53794ed570)"><g clip-path="url(#ff4afe8f3b)"><g clip-path="url(#6127eb8f1a)"><path fill="#8ea84b" d="M 327.253906 441.898438 L 345.96875 445.414062 L 335.425781 501.488281 L 316.710938 497.96875 Z M 327.253906 441.898438 " fill-opacity="1" fill-rule="nonzero"/></g></g></g><g clip-path="url(#6bde7675d5)"><g clip-path="url(#3ab1ee9a53)"><g clip-path="url(#1741a0ceed)"><path fill="#8ea84b" d="M 386.019531 432.828125 L 402.710938 440.289062 L 379.421875 492.371094 L 362.734375 484.910156 Z M 386.019531 432.828125 " fill-opacity="1" fill-rule="nonzero"/></g></g></g><g clip-path="url(#a75911a8cd)"><g clip-path="url(#eac2f090af)"><g clip-path="url(#9edc2c0df7)"><path fill="#8ea84b" d="M 378.59375 450.636719 L 393.585938 461.09375 L 360.953125 507.890625 L 345.957031 497.433594 Z M 378.59375 450.636719 " fill-opacity="1" fill-rule="nonzero"/></g></g></g><g clip-path="url(#4da4279a26)"><g clip-path="url(#dd77f0bc1c)"><g clip-path="url(#dbbd02cbd0)"><path fill="#8ea84b" d="M 325.578125 436.996094 L 343.320312 432.59375 L 363.96875 515.753906 L 346.230469 520.160156 Z M 325.578125 436.996094 " fill-opacity="1" fill-rule="nonzero"/></g></g></g><g clip-path="url(#5e538e48ab)"><g clip-path="url(#98b36fa213)"><g clip-path="url(#91d03250cb)"><path fill="#8ea84b" d="M 437.359375 463.648438 L 444.117188 480.636719 L 369.472656 510.328125 L 362.71875 493.34375 Z M 437.359375 463.648438 " fill-opacity="1" fill-rule="nonzero"/></g></g></g><g clip-path="url(#c83ef188f0)"><g clip-path="url(#b655e04402)"><g clip-path="url(#40cd84c173)"><path fill="#8ea84b" d="M 422.449219 470.117188 L 432.867188 485.136719 L 395.785156 510.855469 L 385.367188 495.835938 Z M 422.449219 470.117188 " fill-opacity="1" fill-rule="nonzero"/></g></g></g><g clip-path="url(#5c87e16d5e)"><g clip-path="url(#848bc96c9f)"><g clip-path="url(#2bd00570fa)"><path fill="#8ea84b" d="M 325.132812 473.953125 L 390.441406 511.710938 L 362.824219 559.480469 L 297.515625 521.722656 Z M 325.132812 473.953125 " fill-opacity="1" fill-rule="nonzero"/></g></g></g><g clip-path="url(#93d21b289d)"><g clip-path="url(#c1d1896dad)"><g clip-path="url(#1ab07d3f9b)"><path fill="#8ea84b" d="M 363.296875 479.234375 L 400.003906 507.785156 L 372.320312 543.378906 L 335.613281 514.832031 Z M 363.296875 479.234375 " fill-opacity="1" fill-rule="nonzero"/></g></g></g><g clip-path="url(#61a2b4b0a7)"><g clip-path="url(#c280966f50)"><g clip-path="url(#81e1247ccb)"><path fill="#8ea84b" d="M 303.269531 516.90625 L 335.214844 550.710938 L 304.742188 579.503906 L 272.796875 545.699219 Z M 303.269531 516.90625 " fill-opacity="1" fill-rule="nonzero"/></g></g></g><g clip-path="url(#f272129bca)"><g clip-path="url(#995979bb2e)"><g clip-path="url(#daa9b3d316)"><path fill="#8ea84b" d="M 319.621094 528.1875 L 351.5625 561.992188 L 321.089844 590.789062 L 289.148438 556.984375 Z M 319.621094 528.1875 " fill-opacity="1" fill-rule="nonzero"/></g></g></g><g clip-path="url(#8e256ae4d3)"><g clip-path="url(#e364d829fa)"><g clip-path="url(#10b719f220)"><path fill="#8ea84b" d="M 322.421875 535.871094 L 364.882812 554.789062 L 346.464844 596.121094 L 304.003906 577.199219 Z M 322.421875 535.871094 " fill-opacity="1" fill-rule="nonzero"/></g></g></g><g clip-path="url(#07feb65bb7)"><g clip-path="url(#659f7cab8c)"><g clip-path="url(#f4f64eee97)"><path fill="#8ea84b" d="M 307.539062 522.589844 L 326.628906 551.367188 L 291.890625 574.414062 L 272.800781 545.632812 Z M 307.539062 522.589844 " fill-opacity="1" fill-rule="nonzero"/></g></g></g><g clip-path="url(#33de155a4a)"><g clip-path="url(#8175c4c399)"><g clip-path="url(#f6d95cf27b)"><path fill="#8ea84b" d="M 315.0625 539.824219 L 343.789062 558.996094 L 320.648438 593.667969 L 291.921875 574.496094 Z M 315.0625 539.824219 " fill-opacity="1" fill-rule="nonzero"/></g></g></g><g clip-path="url(#8d406da8eb)"><g clip-path="url(#a41f4d02d9)"><path fill="#3c594a" d="M 235.449219 294.589844 L 305.546875 294.589844 L 305.546875 364.6875 L 235.449219 364.6875 Z M 235.449219 294.589844 " fill-opacity="1" fill-rule="nonzero"/></g></g><g clip-path="url(#7eec3d20ff)"><g clip-path="url(#afef5ddfef)"><path fill="#3c594a" d="M 265.519531 237.054688 L 335.617188 237.054688 L 335.617188 307.15625 L 265.519531 307.15625 Z M 265.519531 237.054688 " fill-opacity="1" fill-rule="nonzero"/></g></g><g clip-path="url(#c84df9bc6f)"><g clip-path="url(#ace9e04f46)"><path fill="#3c594a" d="M 323.328125 202.5 L 413.933594 202.5 L 413.933594 284.171875 L 323.328125 284.171875 Z M 323.328125 202.5 " fill-opacity="1" fill-rule="nonzero"/></g></g><g clip-path="url(#65d30b84dc)"><g clip-path="url(#bc5f12f2bd)"><g clip-path="url(#76ea36508c)"><path fill="#3c594a" d="M 384.367188 248.570312 L 467.769531 213.09375 L 495.210938 277.597656 L 411.808594 313.074219 Z M 384.367188 248.570312 " fill-opacity="1" fill-rule="nonzero"/></g></g></g><g clip-path="url(#3d31162b58)"><g clip-path="url(#b0bfc5afcf)"><g clip-path="url(#c892a87061)"><path fill="#3c594a" d="M 439.824219 272.5625 L 523.207031 237.089844 L 557.734375 318.257812 L 474.347656 353.730469 Z M 439.824219 272.5625 " fill-opacity="1" fill-rule="nonzero"/></g></g></g><g clip-path="url(#0f94a3d461)"><g clip-path="url(#ce630e8d90)"><g clip-path="url(#ddca37dbad)"><path fill="#3c594a" d="M 447.199219 339.855469 L 566.164062 289.25 L 615.421875 405.046875 L 496.457031 455.652344 Z M 447.199219 339.855469 " fill-opacity="1" fill-rule="nonzero"/></g></g></g><g clip-path="url(#a7adbfec30)"><g clip-path="url(#298c94a5df)"><g clip-path="url(#f9f22bf12c)"><path fill="#3c594a" d="M 497.542969 425.996094 L 588.679688 412.171875 L 602.339844 502.257812 L 511.203125 516.078125 Z M 497.542969 425.996094 " fill-opacity="1" fill-rule="nonzero"/></g></g></g><g clip-path="url(#bcbf101552)"><g clip-path="url(#7df73fdd48)"><g clip-path="url(#42e6473521)"><path fill="#3c594a" d="M 473.0625 523.390625 L 489.558594 469.507812 L 564.070312 492.320312 L 547.570312 546.203125 Z M 473.0625 523.390625 " fill-opacity="1" fill-rule="nonzero"/></g></g></g><g clip-path="url(#0b266c4246)"><g clip-path="url(#f78b75137a)"><g clip-path="url(#4e087089c2)"><path fill="#3c594a" d="M 423.757812 481.851562 L 440.253906 427.96875 L 514.765625 450.785156 L 498.265625 504.667969 Z M 423.757812 481.851562 " fill-opacity="1" fill-rule="nonzero"/></g></g></g><g clip-path="url(#bea5a61581)"><g clip-path="url(#b70c72802e)"><g clip-path="url(#e430c6b70a)"><path fill="#3c594a" d="M 327.460938 413.394531 L 371.195312 334.058594 L 480.902344 394.535156 L 437.167969 473.871094 Z M 327.460938 413.394531 " fill-opacity="1" fill-rule="nonzero"/></g></g></g><g clip-path="url(#a0af7c6869)"><g clip-path="url(#b8a3e71d3b)"><g clip-path="url(#46c587ec17)"><path fill="#3c594a" d="M 246.59375 384.839844 L 291.921875 302.609375 L 377.042969 349.53125 L 331.714844 431.761719 Z M 246.59375 384.839844 " fill-opacity="1" fill-rule="nonzero"/></g></g></g><g clip-path="url(#9658cbc8c4)"><g clip-path="url(#35d76c26f4)"><g clip-path="url(#25d60da4dc)"><path fill="#3c594a" d="M 258.371094 315.5625 L 334.058594 207.074219 L 600.617188 393.046875 L 524.925781 501.53125 Z M 258.371094 315.5625 " fill-opacity="1" fill-rule="nonzero"/></g></g></g><g clip-path="url(#e311e0aa5a)"><g clip-path="url(#22bbfe998c)"><g clip-path="url(#d08eae89fc)"><path fill="#8ea84b" d="M 324.316406 556.410156 L 350 559.164062 L 346.039062 596.082031 L 320.359375 593.328125 Z M 324.316406 556.410156 " fill-opacity="1" fill-rule="nonzero"/></g></g></g></svg>