<svg xmlns="http://www.w3.org/2000/svg" xmlns:xlink="http://www.w3.org/1999/xlink" width="200" zoomAndPan="magnify" viewBox="0 0 150 149.999998" height="200" preserveAspectRatio="xMidYMid meet" version="1.0"><defs><clipPath id="f2a00b3397"><path d="M 42 74 L 59 74 L 59 112 L 42 112 Z M 42 74 " clip-rule="nonzero"/></clipPath><clipPath id="122ac6f8d3"><path d="M 51.394531 74.78125 L 58.703125 76.6875 L 49.585938 111.632812 L 42.277344 109.726562 Z M 51.394531 74.78125 " clip-rule="nonzero"/></clipPath><clipPath id="db5b9704e4"><path d="M 51.394531 74.78125 L 58.703125 76.6875 L 49.589844 111.609375 L 42.28125 109.703125 Z M 51.394531 74.78125 " clip-rule="nonzero"/></clipPath><clipPath id="2a1882d089"><path d="M 51 87 L 77 87 L 77 122 L 51 122 Z M 51 87 " clip-rule="nonzero"/></clipPath><clipPath id="da97875e40"><path d="M 70.816406 87.378906 L 76.078125 90.699219 L 56.804688 121.226562 L 51.546875 117.910156 Z M 70.816406 87.378906 " clip-rule="nonzero"/></clipPath><clipPath id="b629480527"><path d="M 70.816406 87.378906 L 76.078125 90.699219 L 56.8125 121.21875 L 51.550781 117.898438 Z M 70.816406 87.378906 " clip-rule="nonzero"/></clipPath><clipPath id="a48b6de297"><path d="M 34 77 L 44 77 L 44 87 L 34 87 Z M 34 77 " clip-rule="nonzero"/></clipPath><clipPath id="3c4483e8d6"><path d="M 34.933594 78.695312 L 41.757812 77.285156 L 43.386719 85.175781 L 36.5625 86.582031 Z M 34.933594 78.695312 " clip-rule="nonzero"/></clipPath><clipPath id="27f3d5ec5f"><path d="M 34.933594 78.695312 L 41.757812 77.285156 L 43.382812 85.152344 L 36.558594 86.5625 Z M 34.933594 78.695312 " clip-rule="nonzero"/></clipPath><clipPath id="066c1f2058"><path d="M 36 84 L 47 84 L 47 107 L 36 107 Z M 36 84 " clip-rule="nonzero"/></clipPath><clipPath id="3f3edf398b"><path d="M 36.351562 85.238281 L 43.253906 84.285156 L 46.230469 105.820312 L 39.332031 106.773438 Z M 36.351562 85.238281 " clip-rule="nonzero"/></clipPath><clipPath id="30757914f6"><path d="M 36.351562 85.238281 L 43.253906 84.285156 L 46.230469 105.816406 L 39.332031 106.769531 Z M 36.351562 85.238281 " clip-rule="nonzero"/></clipPath><clipPath id="afb936f0d1"><path d="M 33 91 L 45 91 L 45 114 L 33 114 Z M 33 91 " clip-rule="nonzero"/></clipPath><clipPath id="dfc8700124"><path d="M 37.5625 91.226562 L 44.695312 92.570312 L 40.675781 113.9375 L 33.546875 112.597656 Z M 37.5625 91.226562 " clip-rule="nonzero"/></clipPath><clipPath id="007358db51"><path d="M 37.5625 91.226562 L 44.695312 92.570312 L 40.679688 113.929688 L 33.546875 112.589844 Z M 37.5625 91.226562 " clip-rule="nonzero"/></clipPath><clipPath id="966f6a693d"><path d="M 51 87 L 67 87 L 67 111 L 51 111 Z M 51 87 " clip-rule="nonzero"/></clipPath><clipPath id="0f5869613a"><path d="M 59.957031 87.773438 L 66.316406 90.613281 L 57.441406 110.464844 L 51.082031 107.621094 Z M 59.957031 87.773438 " clip-rule="nonzero"/></clipPath><clipPath id="f3beac0c3b"><path d="M 59.957031 87.773438 L 66.316406 90.613281 L 57.445312 110.457031 L 51.085938 107.613281 Z M 59.957031 87.773438 " clip-rule="nonzero"/></clipPath><clipPath id="922abf2a1e"><path d="M 44 94 L 63 94 L 63 117 L 44 117 Z M 44 94 " clip-rule="nonzero"/></clipPath><clipPath id="1103c9cbfa"><path d="M 57.125 94.558594 L 62.839844 98.542969 L 50.402344 116.378906 L 44.691406 112.390625 Z M 57.125 94.558594 " clip-rule="nonzero"/></clipPath><clipPath id="bc20fe6e3d"><path d="M 57.125 94.558594 L 62.839844 98.542969 L 50.40625 116.371094 L 44.695312 112.386719 Z M 57.125 94.558594 " clip-rule="nonzero"/></clipPath><clipPath id="5e0768379f"><path d="M 36 87 L 52 87 L 52 122 L 36 122 Z M 36 87 " clip-rule="nonzero"/></clipPath><clipPath id="2593afc94a"><path d="M 36.925781 89.359375 L 43.683594 87.683594 L 51.554688 119.375 L 44.792969 121.050781 Z M 36.925781 89.359375 " clip-rule="nonzero"/></clipPath><clipPath id="008e318081"><path d="M 36.925781 89.359375 L 43.683594 87.683594 L 51.554688 119.371094 L 44.792969 121.050781 Z M 36.925781 89.359375 " clip-rule="nonzero"/></clipPath><clipPath id="2dcf44ecf6"><path d="M 51 99 L 83 99 L 83 118 L 51 118 Z M 51 99 " clip-rule="nonzero"/></clipPath><clipPath id="8ab8188f85"><path d="M 79.523438 99.519531 L 82.097656 105.992188 L 53.652344 117.304688 L 51.078125 110.832031 Z M 79.523438 99.519531 " clip-rule="nonzero"/></clipPath><clipPath id="947b34fbe3"><path d="M 79.523438 99.519531 L 82.097656 105.992188 L 53.660156 117.304688 L 51.082031 110.832031 Z M 79.523438 99.519531 " clip-rule="nonzero"/></clipPath><clipPath id="10f58d2d6c"><path d="M 59 101 L 78 101 L 78 118 L 59 118 Z M 59 101 " clip-rule="nonzero"/></clipPath><clipPath id="2b0a69e48a"><path d="M 73.839844 101.980469 L 77.808594 107.707031 L 63.675781 117.507812 L 59.707031 111.78125 Z M 73.839844 101.980469 " clip-rule="nonzero"/></clipPath><clipPath id="5c6fd8084f"><path d="M 73.839844 101.980469 L 77.808594 107.707031 L 63.6875 117.5 L 59.71875 111.773438 Z M 73.839844 101.980469 " clip-rule="nonzero"/></clipPath><clipPath id="4b798e1305"><path d="M 26 103 L 62 103 L 62 137 L 26 137 Z M 26 103 " clip-rule="nonzero"/></clipPath><clipPath id="50efbcf567"><path d="M 36.753906 103.445312 L 61.714844 117.875 L 51.1875 136.078125 L 26.230469 121.648438 Z M 36.753906 103.445312 " clip-rule="nonzero"/></clipPath><clipPath id="7124ef09cd"><path d="M 36.753906 103.445312 L 61.644531 117.835938 L 51.121094 136.039062 L 26.230469 121.648438 Z M 36.753906 103.445312 " clip-rule="nonzero"/></clipPath><clipPath id="e5bb441ad6"><path d="M 40 105 L 66 105 L 66 130 L 40 130 Z M 40 105 " clip-rule="nonzero"/></clipPath><clipPath id="3461f2d771"><path d="M 51.296875 105.457031 L 65.285156 116.335938 L 54.738281 129.902344 L 40.75 119.023438 Z M 51.296875 105.457031 " clip-rule="nonzero"/></clipPath><clipPath id="792fae6928"><path d="M 51.296875 105.457031 L 65.285156 116.335938 L 54.734375 129.898438 L 40.75 119.023438 Z M 51.296875 105.457031 " clip-rule="nonzero"/></clipPath><clipPath id="954ea8696b"><path d="M 16 119 L 41 119 L 41 144 L 16 144 Z M 16 119 " clip-rule="nonzero"/></clipPath><clipPath id="0530b08983"><path d="M 28.421875 119.8125 L 40.597656 132.695312 L 28.984375 143.667969 L 16.8125 130.785156 Z M 28.421875 119.8125 " clip-rule="nonzero"/></clipPath><clipPath id="b0c4194a59"><path d="M 28.421875 119.8125 L 40.59375 132.691406 L 28.980469 143.664062 L 16.8125 130.785156 Z M 28.421875 119.8125 " clip-rule="nonzero"/></clipPath><clipPath id="78194afbed"><path d="M 23 124 L 47 124 L 47 148 L 23 148 Z M 23 124 " clip-rule="nonzero"/></clipPath><clipPath id="fb933f6bfa"><path d="M 34.652344 124.113281 L 46.828125 136.996094 L 35.214844 147.96875 L 23.042969 135.085938 Z M 34.652344 124.113281 " clip-rule="nonzero"/></clipPath><clipPath id="77ae0b01c3"><path d="M 34.652344 124.113281 L 46.824219 136.988281 L 35.210938 147.964844 L 23.042969 135.085938 Z M 34.652344 124.113281 " clip-rule="nonzero"/></clipPath><clipPath id="9c7801c09e"><path d="M 28 127 L 52 127 L 52 150 L 28 150 Z M 28 127 " clip-rule="nonzero"/></clipPath><clipPath id="3e2c11fdcf"><path d="M 35.722656 127.039062 L 51.964844 134.277344 L 44.945312 150.027344 L 28.703125 142.789062 Z M 35.722656 127.039062 " clip-rule="nonzero"/></clipPath><clipPath id="2fe700dde7"><path d="M 35.722656 127.039062 L 51.90625 134.25 L 44.886719 150 L 28.703125 142.789062 Z M 35.722656 127.039062 " clip-rule="nonzero"/></clipPath><clipPath id="d9f46ead9a"><path d="M 16 121 L 38 121 L 38 142 L 16 142 Z M 16 121 " clip-rule="nonzero"/></clipPath><clipPath id="bf81dbe15f"><path d="M 30.050781 121.976562 L 37.324219 132.945312 L 24.042969 141.753906 L 16.769531 130.789062 Z M 30.050781 121.976562 " clip-rule="nonzero"/></clipPath><clipPath id="639737cf93"><path d="M 30.050781 121.976562 L 37.324219 132.945312 L 24.085938 141.726562 L 16.8125 130.757812 Z M 30.050781 121.976562 " clip-rule="nonzero"/></clipPath><clipPath id="f629807dfa"><path d="M 24 128 L 44 128 L 44 150 L 24 150 Z M 24 128 " clip-rule="nonzero"/></clipPath><clipPath id="719da23c70"><path d="M 32.917969 128.546875 L 43.863281 135.851562 L 35.015625 149.109375 L 24.070312 141.800781 Z M 32.917969 128.546875 " clip-rule="nonzero"/></clipPath><clipPath id="ac38e95dbc"><path d="M 32.917969 128.546875 L 43.863281 135.851562 L 35.046875 149.066406 L 24.097656 141.757812 Z M 32.917969 128.546875 " clip-rule="nonzero"/></clipPath><clipPath id="a29611b830"><path d="M 2.578125 35.09375 L 29.292969 35.09375 L 29.292969 61.804688 L 2.578125 61.804688 Z M 2.578125 35.09375 " clip-rule="nonzero"/></clipPath><clipPath id="2195febad6"><path d="M 15.933594 35.09375 C 8.558594 35.09375 2.578125 41.074219 2.578125 48.449219 C 2.578125 55.824219 8.558594 61.804688 15.933594 61.804688 C 23.3125 61.804688 29.292969 55.824219 29.292969 48.449219 C 29.292969 41.074219 23.3125 35.09375 15.933594 35.09375 Z M 15.933594 35.09375 " clip-rule="nonzero"/></clipPath><clipPath id="81b8b80201"><path d="M 14.039062 13.167969 L 40.75 13.167969 L 40.75 39.882812 L 14.039062 39.882812 Z M 14.039062 13.167969 " clip-rule="nonzero"/></clipPath><clipPath id="f3e62aad66"><path d="M 27.394531 13.167969 C 20.015625 13.167969 14.039062 19.148438 14.039062 26.523438 C 14.039062 33.902344 20.015625 39.882812 27.394531 39.882812 C 34.769531 39.882812 40.75 33.902344 40.75 26.523438 C 40.75 19.148438 34.769531 13.167969 27.394531 13.167969 Z M 27.394531 13.167969 " clip-rule="nonzero"/></clipPath><clipPath id="9205d1b2c5"><path d="M 36.066406 0 L 70.714844 0 L 70.714844 31.125 L 36.066406 31.125 Z M 36.066406 0 " clip-rule="nonzero"/></clipPath><clipPath id="8780664721"><path d="M 53.351562 0 C 43.804688 0 36.066406 6.96875 36.066406 15.5625 C 36.066406 24.15625 43.804688 31.125 53.351562 31.125 C 62.894531 31.125 70.632812 24.15625 70.632812 15.5625 C 70.632812 6.96875 62.894531 0 53.351562 0 Z M 53.351562 0 " clip-rule="nonzero"/></clipPath><clipPath id="74dd4c768c"><path d="M 63 9 L 98 9 L 98 38 L 63 38 Z M 63 9 " clip-rule="nonzero"/></clipPath><clipPath id="100d5efc22"><path d="M 59.328125 17.554688 L 91.207031 3.996094 L 101.664062 28.578125 L 69.785156 42.136719 Z M 59.328125 17.554688 " clip-rule="nonzero"/></clipPath><clipPath id="9e93bfa309"><path d="M 75.230469 10.789062 C 66.449219 14.527344 61.667969 23.058594 64.554688 29.847656 C 67.441406 36.636719 76.90625 39.109375 85.6875 35.371094 C 94.472656 31.636719 99.25 23.105469 96.363281 16.316406 C 93.476562 9.527344 84.015625 7.054688 75.230469 10.789062 Z M 75.230469 10.789062 " clip-rule="nonzero"/></clipPath><clipPath id="18cc3c6b50"><path d="M 85 18 L 121 18 L 121 53 L 85 53 Z M 85 18 " clip-rule="nonzero"/></clipPath><clipPath id="7dcdea3afd"><path d="M 80.460938 26.699219 L 112.355469 13.128906 L 125.515625 44.0625 L 93.617188 57.628906 Z M 80.460938 26.699219 " clip-rule="nonzero"/></clipPath><clipPath id="6a33679649"><path d="M 96.363281 19.933594 C 87.582031 23.671875 83.40625 33.621094 87.039062 42.164062 C 90.671875 50.707031 100.738281 54.601562 109.519531 50.863281 C 118.304688 47.128906 122.480469 37.175781 118.847656 28.632812 C 115.214844 20.09375 105.148438 16.195312 96.363281 19.933594 Z M 96.363281 19.933594 " clip-rule="nonzero"/></clipPath><clipPath id="055787c264"><path d="M 90 40 L 140 40 L 140 89 L 90 89 Z M 90 40 " clip-rule="nonzero"/></clipPath><clipPath id="adcbf4a5c0"><path d="M 83.269531 52.34375 L 128.777344 32.984375 L 147.546875 77.113281 L 102.042969 96.46875 Z M 83.269531 52.34375 " clip-rule="nonzero"/></clipPath><clipPath id="2ba2e19dfb"><path d="M 105.960938 42.691406 C 93.429688 48.023438 87.472656 62.222656 92.65625 74.40625 C 97.839844 86.59375 112.199219 92.148438 124.730469 86.820312 C 137.261719 81.488281 143.21875 67.289062 138.035156 55.101562 C 132.851562 42.917969 118.492188 37.359375 105.960938 42.691406 Z M 105.960938 42.691406 " clip-rule="nonzero"/></clipPath><clipPath id="d4d5b650a7"><path d="M 104 82 L 140 82 L 140 118 L 104 118 Z M 104 82 " clip-rule="nonzero"/></clipPath><clipPath id="4546071f88"><path d="M 102.453125 85.167969 L 137.183594 79.902344 L 142.390625 114.230469 L 107.660156 119.496094 Z M 102.453125 85.167969 " clip-rule="nonzero"/></clipPath><clipPath id="0401eed7b3"><path d="M 119.808594 82.535156 C 110.222656 83.992188 103.621094 92.851562 105.058594 102.332031 C 106.496094 111.8125 115.429688 118.320312 125.015625 116.863281 C 134.597656 115.410156 141.203125 106.546875 139.765625 97.070312 C 138.328125 87.589844 129.394531 81.082031 119.808594 82.535156 Z M 119.808594 82.535156 " clip-rule="nonzero"/></clipPath><clipPath id="a41c7dd41a"><path d="M 95 105 L 126 105 L 126 128 L 95 128 Z M 95 105 " clip-rule="nonzero"/></clipPath><clipPath id="5358f6ff5d"><path d="M 93.125 122.28125 L 99.414062 101.75 L 127.886719 110.46875 L 121.601562 131 Z M 93.125 122.28125 " clip-rule="nonzero"/></clipPath><clipPath id="b772ea4ce0"><path d="M 96.269531 112.015625 C 94.535156 117.6875 99.492188 124.230469 107.339844 126.636719 C 115.191406 129.039062 122.964844 126.390625 124.699219 120.722656 C 126.4375 115.050781 121.480469 108.507812 113.628906 106.101562 C 105.777344 103.699219 98.007812 106.347656 96.269531 112.015625 Z M 96.269531 112.015625 " clip-rule="nonzero"/></clipPath><clipPath id="bd294190a5"><path d="M 77 89 L 107 89 L 107 112 L 77 112 Z M 77 89 " clip-rule="nonzero"/></clipPath><clipPath id="476cd2b75a"><path d="M 74.335938 106.453125 L 80.625 85.921875 L 109.097656 94.640625 L 102.8125 115.171875 Z M 74.335938 106.453125 " clip-rule="nonzero"/></clipPath><clipPath id="b96aec52a0"><path d="M 77.480469 96.1875 C 75.746094 101.859375 80.703125 108.402344 88.550781 110.808594 C 96.402344 113.210938 104.175781 110.5625 105.910156 104.894531 C 107.648438 99.222656 102.691406 92.675781 94.839844 90.273438 C 86.988281 87.871094 79.21875 90.519531 77.480469 96.1875 Z M 77.480469 96.1875 " clip-rule="nonzero"/></clipPath><clipPath id="b51eb692e9"><path d="M 44 57 L 90 57 L 90 96 L 44 96 Z M 44 57 " clip-rule="nonzero"/></clipPath><clipPath id="a194728fa0"><path d="M 37.640625 80.367188 L 54.308594 50.132812 L 96.234375 73.246094 L 79.566406 103.476562 Z M 37.640625 80.367188 " clip-rule="nonzero"/></clipPath><clipPath id="f9f5e51542"><path d="M 45.972656 65.25 C 41.371094 73.597656 47.011719 85.53125 58.570312 91.90625 C 70.128906 98.277344 83.230469 96.671875 87.835938 88.324219 C 92.4375 79.976562 86.796875 68.042969 75.238281 61.671875 C 63.679688 55.300781 50.578125 56.902344 45.972656 65.25 Z M 45.972656 65.25 " clip-rule="nonzero"/></clipPath><clipPath id="1141b255d6"><path d="M 13 44 L 51 44 L 51 81 L 13 81 Z M 13 44 " clip-rule="nonzero"/></clipPath><clipPath id="0e855f1657"><path d="M 6.824219 69.484375 L 24.097656 38.148438 L 56.660156 56.097656 L 39.386719 87.433594 Z M 6.824219 69.484375 " clip-rule="nonzero"/></clipPath><clipPath id="79335e84bc"><path d="M 15.460938 53.816406 C 10.691406 62.46875 14.089844 73.488281 23.054688 78.429688 C 32.015625 83.371094 43.148438 80.363281 47.917969 71.707031 C 52.691406 63.054688 49.289062 52.035156 40.328125 47.09375 C 31.363281 42.15625 20.230469 45.164062 15.460938 53.816406 Z M 15.460938 53.816406 " clip-rule="nonzero"/></clipPath><clipPath id="7e2b872f14"><path d="M 23 16 L 130 16 L 130 99 L 23 99 Z M 23 16 " clip-rule="nonzero"/></clipPath><clipPath id="1261180fc0"><path d="M 11.3125 43.085938 L 40.15625 1.742188 L 141.734375 72.613281 L 112.890625 113.953125 Z M 11.3125 43.085938 " clip-rule="nonzero"/></clipPath><clipPath id="5c74217769"><path d="M 25.734375 22.414062 C 17.769531 33.832031 34.042969 58.945312 62.085938 78.507812 C 90.125 98.070312 119.316406 104.675781 127.28125 93.261719 C 135.246094 81.84375 118.96875 56.730469 90.929688 37.167969 C 62.886719 17.601562 33.699219 10.996094 25.734375 22.414062 Z M 25.734375 22.414062 " clip-rule="nonzero"/></clipPath><clipPath id="cf923ef6e3"><path d="M 34 134 L 47 134 L 47 150 L 34 150 Z M 34 134 " clip-rule="nonzero"/></clipPath><clipPath id="29ce123656"><path d="M 36.445312 134.867188 L 46.230469 135.914062 L 44.71875 150.023438 L 34.929688 148.972656 Z M 36.445312 134.867188 " clip-rule="nonzero"/></clipPath><clipPath id="624e1d289b"><path d="M 36.445312 134.867188 L 46.230469 135.914062 L 44.71875 150 L 34.933594 148.949219 Z M 36.445312 134.867188 " clip-rule="nonzero"/></clipPath></defs><g clip-path="url(#f2a00b3397)"><g clip-path="url(#122ac6f8d3)"><g clip-path="url(#db5b9704e4)"><path fill="#78894a" d="M 51.394531 74.78125 L 58.703125 76.6875 L 49.589844 111.605469 L 42.285156 109.695312 Z M 51.394531 74.78125 " fill-opacity="1" fill-rule="nonzero"/></g></g></g><g clip-path="url(#2a1882d089)"><g clip-path="url(#da97875e40)"><g clip-path="url(#b629480527)"><path fill="#78894a" d="M 70.816406 87.378906 L 76.078125 90.699219 L 56.816406 121.207031 L 51.558594 117.886719 Z M 70.816406 87.378906 " fill-opacity="1" fill-rule="nonzero"/></g></g></g><g clip-path="url(#a48b6de297)"><g clip-path="url(#3c4483e8d6)"><g clip-path="url(#27f3d5ec5f)"><path fill="#8ea84b" d="M 34.933594 78.695312 L 41.757812 77.285156 L 43.378906 85.148438 L 36.558594 86.554688 Z M 34.933594 78.695312 " fill-opacity="1" fill-rule="nonzero"/></g></g></g><g clip-path="url(#066c1f2058)"><g clip-path="url(#3f3edf398b)"><g clip-path="url(#30757914f6)"><path fill="#8ea84b" d="M 36.351562 85.238281 L 43.253906 84.285156 L 46.230469 105.820312 L 39.332031 106.773438 Z M 36.351562 85.238281 " fill-opacity="1" fill-rule="nonzero"/></g></g></g><g clip-path="url(#afb936f0d1)"><g clip-path="url(#dfc8700124)"><g clip-path="url(#007358db51)"><path fill="#8ea84b" d="M 37.5625 91.226562 L 44.695312 92.570312 L 40.675781 113.9375 L 33.546875 112.597656 Z M 37.5625 91.226562 " fill-opacity="1" fill-rule="nonzero"/></g></g></g><g clip-path="url(#966f6a693d)"><g clip-path="url(#0f5869613a)"><g clip-path="url(#f3beac0c3b)"><path fill="#8ea84b" d="M 59.957031 87.773438 L 66.316406 90.613281 L 57.441406 110.464844 L 51.082031 107.621094 Z M 59.957031 87.773438 " fill-opacity="1" fill-rule="nonzero"/></g></g></g><g clip-path="url(#922abf2a1e)"><g clip-path="url(#1103c9cbfa)"><g clip-path="url(#bc20fe6e3d)"><path fill="#8ea84b" d="M 57.125 94.558594 L 62.839844 98.542969 L 50.402344 116.378906 L 44.691406 112.390625 Z M 57.125 94.558594 " fill-opacity="1" fill-rule="nonzero"/></g></g></g><g clip-path="url(#5e0768379f)"><g clip-path="url(#2593afc94a)"><g clip-path="url(#008e318081)"><path fill="#8ea84b" d="M 36.925781 89.359375 L 43.683594 87.683594 L 51.554688 119.375 L 44.792969 121.050781 Z M 36.925781 89.359375 " fill-opacity="1" fill-rule="nonzero"/></g></g></g><g clip-path="url(#2dcf44ecf6)"><g clip-path="url(#8ab8188f85)"><g clip-path="url(#947b34fbe3)"><path fill="#8ea84b" d="M 79.523438 99.519531 L 82.097656 105.992188 L 53.652344 117.304688 L 51.078125 110.832031 Z M 79.523438 99.519531 " fill-opacity="1" fill-rule="nonzero"/></g></g></g><g clip-path="url(#10f58d2d6c)"><g clip-path="url(#2b0a69e48a)"><g clip-path="url(#5c6fd8084f)"><path fill="#8ea84b" d="M 73.839844 101.980469 L 77.808594 107.707031 L 63.675781 117.507812 L 59.707031 111.78125 Z M 73.839844 101.980469 " fill-opacity="1" fill-rule="nonzero"/></g></g></g><g clip-path="url(#4b798e1305)"><g clip-path="url(#50efbcf567)"><g clip-path="url(#7124ef09cd)"><path fill="#8ea84b" d="M 36.753906 103.445312 L 61.640625 117.832031 L 51.117188 136.035156 L 26.230469 121.648438 Z M 36.753906 103.445312 " fill-opacity="1" fill-rule="nonzero"/></g></g></g><g clip-path="url(#e5bb441ad6)"><g clip-path="url(#3461f2d771)"><g clip-path="url(#792fae6928)"><path fill="#8ea84b" d="M 51.296875 105.457031 L 65.285156 116.335938 L 54.738281 129.902344 L 40.75 119.023438 Z M 51.296875 105.457031 " fill-opacity="1" fill-rule="nonzero"/></g></g></g><g clip-path="url(#954ea8696b)"><g clip-path="url(#0530b08983)"><g clip-path="url(#b0c4194a59)"><path fill="#8ea84b" d="M 28.421875 119.8125 L 40.597656 132.695312 L 28.984375 143.667969 L 16.8125 130.785156 Z M 28.421875 119.8125 " fill-opacity="1" fill-rule="nonzero"/></g></g></g><g clip-path="url(#78194afbed)"><g clip-path="url(#fb933f6bfa)"><g clip-path="url(#77ae0b01c3)"><path fill="#8ea84b" d="M 34.652344 124.113281 L 46.828125 136.996094 L 35.214844 147.96875 L 23.042969 135.085938 Z M 34.652344 124.113281 " fill-opacity="1" fill-rule="nonzero"/></g></g></g><g clip-path="url(#9c7801c09e)"><g clip-path="url(#3e2c11fdcf)"><g clip-path="url(#2fe700dde7)"><path fill="#8ea84b" d="M 35.722656 127.039062 L 51.902344 134.25 L 44.882812 150 L 28.703125 142.789062 Z M 35.722656 127.039062 " fill-opacity="1" fill-rule="nonzero"/></g></g></g><g clip-path="url(#d9f46ead9a)"><g clip-path="url(#bf81dbe15f)"><g clip-path="url(#639737cf93)"><path fill="#8ea84b" d="M 30.050781 121.976562 L 37.324219 132.945312 L 24.085938 141.726562 L 16.8125 130.757812 Z M 30.050781 121.976562 " fill-opacity="1" fill-rule="nonzero"/></g></g></g><g clip-path="url(#f629807dfa)"><g clip-path="url(#719da23c70)"><g clip-path="url(#ac38e95dbc)"><path fill="#8ea84b" d="M 32.917969 128.546875 L 43.863281 135.851562 L 35.046875 149.066406 L 24.097656 141.757812 Z M 32.917969 128.546875 " fill-opacity="1" fill-rule="nonzero"/></g></g></g><g clip-path="url(#a29611b830)"><g clip-path="url(#2195febad6)"><path fill="#3c594a" d="M 2.578125 35.09375 L 29.292969 35.09375 L 29.292969 61.804688 L 2.578125 61.804688 Z M 2.578125 35.09375 " fill-opacity="1" fill-rule="nonzero"/></g></g><g clip-path="url(#81b8b80201)"><g clip-path="url(#f3e62aad66)"><path fill="#3c594a" d="M 14.039062 13.167969 L 40.75 13.167969 L 40.75 39.882812 L 14.039062 39.882812 Z M 14.039062 13.167969 " fill-opacity="1" fill-rule="nonzero"/></g></g><g clip-path="url(#9205d1b2c5)"><g clip-path="url(#8780664721)"><path fill="#3c594a" d="M 36.066406 0 L 70.59375 0 L 70.59375 31.125 L 36.066406 31.125 Z M 36.066406 0 " fill-opacity="1" fill-rule="nonzero"/></g></g><g clip-path="url(#74dd4c768c)"><g clip-path="url(#100d5efc22)"><g clip-path="url(#9e93bfa309)"><path fill="#3c594a" d="M 59.328125 17.554688 L 91.109375 4.035156 L 101.566406 28.617188 L 69.785156 42.136719 Z M 59.328125 17.554688 " fill-opacity="1" fill-rule="nonzero"/></g></g></g><g clip-path="url(#18cc3c6b50)"><g clip-path="url(#7dcdea3afd)"><g clip-path="url(#6a33679649)"><path fill="#3c594a" d="M 80.460938 26.699219 L 112.234375 13.183594 L 125.394531 44.113281 L 93.617188 57.628906 Z M 80.460938 26.699219 " fill-opacity="1" fill-rule="nonzero"/></g></g></g><g clip-path="url(#055787c264)"><g clip-path="url(#adcbf4a5c0)"><g clip-path="url(#2ba2e19dfb)"><path fill="#3c594a" d="M 83.269531 52.34375 L 128.605469 33.058594 L 147.375 77.1875 L 102.042969 96.46875 Z M 83.269531 52.34375 " fill-opacity="1" fill-rule="nonzero"/></g></g></g><g clip-path="url(#d4d5b650a7)"><g clip-path="url(#4546071f88)"><g clip-path="url(#0401eed7b3)"><path fill="#3c594a" d="M 102.453125 85.167969 L 137.183594 79.902344 L 142.390625 114.230469 L 107.660156 119.496094 Z M 102.453125 85.167969 " fill-opacity="1" fill-rule="nonzero"/></g></g></g><g clip-path="url(#a41c7dd41a)"><g clip-path="url(#5358f6ff5d)"><g clip-path="url(#b772ea4ce0)"><path fill="#3c594a" d="M 93.125 122.28125 L 99.414062 101.75 L 127.808594 110.445312 L 121.519531 130.976562 Z M 93.125 122.28125 " fill-opacity="1" fill-rule="nonzero"/></g></g></g><g clip-path="url(#bd294190a5)"><g clip-path="url(#476cd2b75a)"><g clip-path="url(#b96aec52a0)"><path fill="#3c594a" d="M 74.335938 106.453125 L 80.625 85.921875 L 109.019531 94.613281 L 102.730469 115.148438 Z M 74.335938 106.453125 " fill-opacity="1" fill-rule="nonzero"/></g></g></g><g clip-path="url(#b51eb692e9)"><g clip-path="url(#a194728fa0)"><g clip-path="url(#f9f5e51542)"><path fill="#3c594a" d="M 37.640625 80.367188 L 54.308594 50.132812 L 96.113281 73.179688 L 79.449219 103.414062 Z M 37.640625 80.367188 " fill-opacity="1" fill-rule="nonzero"/></g></g></g><g clip-path="url(#1141b255d6)"><g clip-path="url(#0e855f1657)"><g clip-path="url(#79335e84bc)"><path fill="#3c594a" d="M 6.824219 69.484375 L 24.097656 38.148438 L 56.535156 56.03125 L 39.261719 87.367188 Z M 6.824219 69.484375 " fill-opacity="1" fill-rule="nonzero"/></g></g></g><g clip-path="url(#7e2b872f14)"><g clip-path="url(#1261180fc0)"><g clip-path="url(#5c74217769)"><path fill="#3c594a" d="M 11.3125 43.085938 L 40.15625 1.742188 L 141.734375 72.613281 L 112.890625 113.953125 Z M 11.3125 43.085938 " fill-opacity="1" fill-rule="nonzero"/></g></g></g><g clip-path="url(#cf923ef6e3)"><g clip-path="url(#29ce123656)"><g clip-path="url(#624e1d289b)"><path fill="#8ea84b" d="M 36.445312 134.867188 L 46.230469 135.914062 L 44.722656 149.984375 L 34.933594 148.933594 Z M 36.445312 134.867188 " fill-opacity="1" fill-rule="nonzero"/></g></g></g></svg>