<svg xmlns="http://www.w3.org/2000/svg" xmlns:xlink="http://www.w3.org/1999/xlink" width="1080" zoomAndPan="magnify" viewBox="0 0 810 809.999993" height="1080" preserveAspectRatio="xMidYMid meet" version="1.0"><defs><filter x="0%" y="0%" width="100%" height="100%" id="5dceb460b1"><feColorMatrix values="0 0 0 0 1 0 0 0 0 1 0 0 0 0 1 0 0 0 1 0" color-interpolation-filters="sRGB"/></filter><clipPath id="ab9a71932d"><path d="M 296.226562 563.589844 L 513.949219 563.589844 L 513.949219 608.25 L 296.226562 608.25 Z M 296.226562 563.589844 " clip-rule="nonzero"/></clipPath><clipPath id="4b04f618fe"><path d="M 405.03125 563.589844 C 344.941406 563.589844 296.226562 573.585938 296.226562 585.917969 C 296.226562 598.253906 344.941406 608.25 405.03125 608.25 C 465.125 608.25 513.839844 598.253906 513.839844 585.917969 C 513.839844 573.585938 465.125 563.589844 405.03125 563.589844 Z M 405.03125 563.589844 " clip-rule="nonzero"/></clipPath><clipPath id="ff2b57b6c2"><path d="M 296.226562 563.589844 L 513.726562 563.589844 L 513.726562 608.589844 L 296.226562 608.589844 Z M 296.226562 563.589844 " clip-rule="nonzero"/></clipPath><clipPath id="bd633e446f"><path d="M 405.03125 563.589844 C 344.941406 563.589844 296.226562 573.585938 296.226562 585.917969 C 296.226562 598.25 344.941406 608.25 405.03125 608.25 C 465.121094 608.25 513.832031 598.25 513.832031 585.917969 C 513.832031 573.585938 465.121094 563.589844 405.03125 563.589844 Z M 405.03125 563.589844 " clip-rule="nonzero"/></clipPath><clipPath id="bff5d2975a"><path d="M 253 220 L 366 220 L 366 592 L 253 592 Z M 253 220 " clip-rule="nonzero"/></clipPath><clipPath id="e8f9f78632"><path d="M 252.960938 227.910156 L 322.839844 219.570312 L 366.324219 583.980469 L 296.445312 592.320312 Z M 252.960938 227.910156 " clip-rule="nonzero"/></clipPath><clipPath id="452a5af1d6"><path d="M 260.410156 227.019531 L 315.394531 220.460938 C 317.371094 220.222656 319.355469 220.78125 320.921875 222.011719 C 322.484375 223.242188 323.496094 225.042969 323.730469 227.019531 L 365.414062 576.339844 C 365.648438 578.316406 365.089844 580.300781 363.859375 581.867188 C 362.628906 583.429688 360.828125 584.441406 358.855469 584.675781 L 303.867188 591.234375 C 301.894531 591.472656 299.90625 590.914062 298.34375 589.683594 C 296.777344 588.453125 295.769531 586.652344 295.53125 584.675781 L 253.851562 235.355469 C 253.613281 233.382812 254.171875 231.394531 255.402344 229.828125 C 256.632812 228.265625 258.433594 227.257812 260.410156 227.019531 Z M 260.410156 227.019531 " clip-rule="nonzero"/></clipPath><clipPath id="f8669e3d09"><path d="M 445 220 L 559 220 L 559 591 L 445 591 Z M 445 220 " clip-rule="nonzero"/></clipPath><clipPath id="0c7f4892a4"><path d="M 489.285156 219.570312 L 559.128906 228.191406 L 514.316406 591.332031 L 444.472656 582.710938 Z M 489.285156 219.570312 " clip-rule="nonzero"/></clipPath><clipPath id="7ba85ebf7c"><path d="M 496.726562 220.488281 L 551.6875 227.269531 C 553.660156 227.515625 555.457031 228.53125 556.679688 230.101562 C 557.902344 231.667969 558.453125 233.660156 558.210938 235.632812 L 515.238281 583.886719 C 514.992188 585.859375 513.976562 587.65625 512.40625 588.878906 C 510.839844 590.101562 508.847656 590.652344 506.875 590.410156 L 451.917969 583.628906 C 449.941406 583.386719 448.144531 582.367188 446.921875 580.800781 C 445.699219 579.230469 445.148438 577.242188 445.390625 575.265625 L 488.363281 227.015625 C 488.609375 225.039062 489.625 223.242188 491.195312 222.019531 C 492.761719 220.796875 494.753906 220.246094 496.726562 220.488281 Z M 496.726562 220.488281 " clip-rule="nonzero"/></clipPath><clipPath id="608c44e87a"><path d="M 321.703125 226.25 L 489.105469 226.25 L 489.105469 592.441406 L 321.703125 592.441406 Z M 321.703125 226.25 " clip-rule="nonzero"/></clipPath><clipPath id="73f769bd86"><path d="M 329.203125 226.25 L 481.605469 226.25 C 483.59375 226.25 485.5 227.039062 486.910156 228.445312 C 488.316406 229.851562 489.105469 231.757812 489.105469 233.75 L 489.105469 584.640625 C 489.105469 586.628906 488.316406 588.539062 486.910156 589.945312 C 485.5 591.351562 483.59375 592.140625 481.605469 592.140625 L 329.203125 592.140625 C 327.210938 592.140625 325.304688 591.351562 323.898438 589.945312 C 322.492188 588.539062 321.703125 586.628906 321.703125 584.640625 L 321.703125 233.75 C 321.703125 231.757812 322.492188 229.851562 323.898438 228.445312 C 325.304688 227.039062 327.210938 226.25 329.203125 226.25 Z M 329.203125 226.25 " clip-rule="nonzero"/></clipPath><clipPath id="23cec94186"><path d="M 254.136719 202.5 L 558.132812 202.5 L 558.132812 261.863281 L 254.136719 261.863281 Z M 254.136719 202.5 " clip-rule="nonzero"/></clipPath><clipPath id="22590054ea"><path d="M 406.125 202.5 C 322.183594 202.5 254.136719 215.789062 254.136719 232.179688 C 254.136719 248.574219 322.183594 261.863281 406.125 261.863281 C 490.066406 261.863281 558.113281 248.574219 558.113281 232.179688 C 558.113281 215.789062 490.066406 202.5 406.125 202.5 Z M 406.125 202.5 " clip-rule="nonzero"/></clipPath><clipPath id="f10e273e02"><path d="M 254.148438 202.5 L 557.886719 202.5 L 557.886719 261.75 L 254.148438 261.75 Z M 254.148438 202.5 " clip-rule="nonzero"/></clipPath><clipPath id="b80e0f6c12"><path d="M 406.121094 202.5 C 322.1875 202.5 254.148438 215.789062 254.148438 232.179688 C 254.148438 248.566406 322.1875 261.855469 406.121094 261.855469 C 490.054688 261.855469 558.09375 248.566406 558.09375 232.179688 C 558.09375 215.789062 490.054688 202.5 406.121094 202.5 Z M 406.121094 202.5 " clip-rule="nonzero"/></clipPath><clipPath id="60903a47e3"><path d="M 321.703125 362.289062 L 488.296875 362.289062 L 488.296875 570.433594 L 321.703125 570.433594 Z M 321.703125 362.289062 " clip-rule="nonzero"/></clipPath><clipPath id="b4627d6881"><path d="M 309.632812 368.578125 L 501.855469 368.578125 L 501.855469 496.5 L 309.632812 496.5 Z M 309.632812 368.578125 " clip-rule="nonzero"/></clipPath><clipPath id="97b5412b99"><path d="M 285 470 L 321 470 L 321 589 L 285 589 Z M 285 470 " clip-rule="nonzero"/></clipPath><clipPath id="c7f8224e86"><path d="M 285.449219 472.128906 L 307.246094 469.574219 L 320.960938 586.570312 L 299.164062 589.125 Z M 285.449219 472.128906 " clip-rule="nonzero"/></clipPath><clipPath id="3548295265"><path d="M 289.917969 471.605469 L 302.777344 470.097656 C 305.246094 469.808594 307.480469 471.578125 307.769531 474.042969 L 320.429688 582.015625 C 320.71875 584.484375 318.953125 586.71875 316.484375 587.007812 L 303.625 588.515625 C 301.15625 588.804688 298.917969 587.039062 298.628906 584.570312 L 285.972656 476.601562 C 285.683594 474.132812 287.449219 471.894531 289.917969 471.605469 Z M 289.917969 471.605469 " clip-rule="nonzero"/></clipPath><clipPath id="3835d18645"><path d="M 490 537 L 517 537 L 517 589 L 490 589 Z M 490 537 " clip-rule="nonzero"/></clipPath><clipPath id="b7423e2493"><path d="M 495.703125 537.0625 L 517.484375 539.753906 L 511.390625 589.101562 L 489.609375 586.410156 Z M 495.703125 537.0625 " clip-rule="nonzero"/></clipPath><clipPath id="0c1932980f"><path d="M 500.167969 537.613281 L 513.019531 539.199219 C 515.484375 539.503906 517.238281 541.75 516.933594 544.21875 L 511.949219 584.574219 C 511.644531 587.042969 509.398438 588.792969 506.929688 588.488281 L 494.082031 586.902344 C 491.613281 586.597656 489.863281 584.351562 490.167969 581.886719 L 495.152344 541.527344 C 495.457031 539.0625 497.703125 537.308594 500.167969 537.613281 Z M 500.167969 537.613281 " clip-rule="nonzero"/></clipPath><clipPath id="0e57fafb08"><path d="M 311.75 562.839844 L 498.324219 562.839844 L 498.324219 592.140625 L 311.75 592.140625 Z M 311.75 562.839844 " clip-rule="nonzero"/></clipPath><clipPath id="1f5a6d7289"><path d="M 405 562.839844 C 353.5 562.839844 311.75 569.398438 311.75 577.492188 C 311.75 585.582031 353.5 592.140625 405 592.140625 C 456.5 592.140625 498.25 585.582031 498.25 577.492188 C 498.25 569.398438 456.5 562.839844 405 562.839844 Z M 405 562.839844 " clip-rule="nonzero"/></clipPath><clipPath id="0573ced1ea"><path d="M 311.765625 562.839844 L 498.5 562.839844 L 498.5 592.089844 L 311.765625 592.089844 Z M 311.765625 562.839844 " clip-rule="nonzero"/></clipPath><clipPath id="0a2b0457fe"><path d="M 404.996094 562.839844 C 353.507812 562.839844 311.765625 569.398438 311.765625 577.488281 C 311.765625 585.578125 353.507812 592.136719 404.996094 592.136719 C 456.488281 592.136719 498.230469 585.578125 498.230469 577.488281 C 498.230469 569.398438 456.488281 562.839844 404.996094 562.839844 Z M 404.996094 562.839844 " clip-rule="nonzero"/></clipPath><clipPath id="2e057c6388"><path d="M 477 362 L 526 362 L 526 581 L 477 581 Z M 477 362 " clip-rule="nonzero"/></clipPath><clipPath id="512c7c7d16"><path d="M 504.640625 362.289062 L 526.414062 365.046875 L 499.066406 580.992188 L 477.292969 578.234375 Z M 504.640625 362.289062 " clip-rule="nonzero"/></clipPath><clipPath id="280eae4789"><path d="M 509.105469 362.851562 L 521.949219 364.480469 C 524.417969 364.792969 526.160156 367.042969 525.847656 369.507812 L 499.636719 576.496094 C 499.324219 578.960938 497.074219 580.707031 494.605469 580.394531 L 481.761719 578.769531 C 479.296875 578.457031 477.550781 576.203125 477.863281 573.738281 L 504.074219 366.753906 C 504.386719 364.285156 506.640625 362.539062 509.105469 362.851562 Z M 509.105469 362.851562 " clip-rule="nonzero"/></clipPath><mask id="27c82f6cab"><g filter="url(#5dceb460b1)"><rect x="-81" width="972" fill="#000000" y="-80.999999" height="971.999992" fill-opacity="0.75"/></g></mask><clipPath id="a48fd90447"><path d="M 0.757812 0.671875 L 19.339844 0.671875 L 19.339844 19.253906 L 0.757812 19.253906 Z M 0.757812 0.671875 " clip-rule="nonzero"/></clipPath><clipPath id="a25e6c87c1"><path d="M 10.046875 0.671875 C 4.917969 0.671875 0.757812 4.832031 0.757812 9.964844 C 0.757812 15.09375 4.917969 19.253906 10.046875 19.253906 C 15.179688 19.253906 19.339844 15.09375 19.339844 9.964844 C 19.339844 4.832031 15.179688 0.671875 10.046875 0.671875 Z M 10.046875 0.671875 " clip-rule="nonzero"/></clipPath><clipPath id="a61b4d989c"><rect x="0" width="20" y="0" height="20"/></clipPath><clipPath id="999e27c51c"><path d="M 286 362 L 333 362 L 333 581 L 286 581 Z M 286 362 " clip-rule="nonzero"/></clipPath><clipPath id="485dc2f8fc"><path d="M 286.0625 364.804688 L 307.859375 362.25 L 333.207031 578.441406 L 311.40625 580.996094 Z M 286.0625 364.804688 " clip-rule="nonzero"/></clipPath><clipPath id="e63b0f774d"><path d="M 290.53125 364.28125 L 303.390625 362.773438 C 305.859375 362.484375 308.09375 364.25 308.382812 366.71875 L 332.675781 573.9375 C 332.96875 576.40625 331.199219 578.640625 328.730469 578.933594 L 315.871094 580.4375 C 313.40625 580.730469 311.167969 578.960938 310.878906 576.492188 L 286.585938 369.273438 C 286.296875 366.804688 288.0625 364.570312 290.53125 364.28125 Z M 290.53125 364.28125 " clip-rule="nonzero"/></clipPath><clipPath id="e920ab6a89"><path d="M 286.585938 345.089844 L 525.683594 345.089844 L 525.683594 392.066406 L 286.585938 392.066406 Z M 286.585938 345.089844 " clip-rule="nonzero"/></clipPath><clipPath id="eeb18634f7"><path d="M 406.125 345.089844 C 340.105469 345.089844 286.585938 355.605469 286.585938 368.578125 C 286.585938 381.550781 340.105469 392.066406 406.125 392.066406 C 472.144531 392.066406 525.664062 381.550781 525.664062 368.578125 C 525.664062 355.605469 472.144531 345.089844 406.125 345.089844 Z M 406.125 345.089844 " clip-rule="nonzero"/></clipPath><clipPath id="0e66eb7ee4"><path d="M 286.597656 345.089844 L 525.765625 345.089844 L 525.765625 392.339844 L 286.597656 392.339844 Z M 286.597656 345.089844 " clip-rule="nonzero"/></clipPath><clipPath id="fbcbdd44be"><path d="M 406.121094 345.089844 C 340.109375 345.089844 286.597656 355.605469 286.597656 368.574219 C 286.597656 381.546875 340.109375 392.058594 406.121094 392.058594 C 472.132812 392.058594 525.644531 381.546875 525.644531 368.574219 C 525.644531 355.605469 472.132812 345.089844 406.121094 345.089844 Z M 406.121094 345.089844 " clip-rule="nonzero"/></clipPath><mask id="b62129f0f5"><g filter="url(#5dceb460b1)"><rect x="-81" width="972" fill="#000000" y="-80.999999" height="971.999992" fill-opacity="0.75"/></g></mask><clipPath id="9cc981e689"><path d="M 1 1 L 37 1 L 37 173 L 1 173 Z M 1 1 " clip-rule="nonzero"/></clipPath><clipPath id="0fc5c25dbc"><path d="M 20.183594 0.671875 L 37.679688 2.683594 L 18.023438 173.792969 L 0.527344 171.78125 Z M 20.183594 0.671875 " clip-rule="nonzero"/></clipPath><clipPath id="f9f735f642"><path d="M 28.933594 1.675781 C 33.761719 2.230469 37.230469 6.597656 36.671875 11.429688 L 19.03125 165.019531 C 18.476562 169.851562 14.109375 173.316406 9.277344 172.761719 C 4.445312 172.207031 0.980469 167.839844 1.535156 163.011719 L 19.179688 9.417969 C 19.734375 4.589844 24.101562 1.121094 28.933594 1.675781 Z M 28.933594 1.675781 " clip-rule="nonzero"/></clipPath><clipPath id="0111930041"><rect x="0" width="38" y="0" height="174"/></clipPath></defs><g clip-path="url(#ab9a71932d)"><g clip-path="url(#4b04f618fe)"><path fill="#d5eafe" d="M 296.226562 563.589844 L 513.773438 563.589844 L 513.773438 608.25 L 296.226562 608.25 Z M 296.226562 563.589844 " fill-opacity="1" fill-rule="nonzero"/></g></g><g clip-path="url(#ff2b57b6c2)"><g clip-path="url(#bd633e446f)"><path stroke-linecap="butt" transform="matrix(0.75, 0, 0, 0.75, 296.227546, 563.589304)" fill="none" stroke-linejoin="miter" d="M 145.071622 0.000720138 C 64.951821 0.000720138 -0.0013116 13.328847 -0.0013116 29.771557 C -0.0013116 46.214267 64.951821 59.547602 145.071622 59.547602 C 225.191422 59.547602 290.139347 46.214267 290.139347 29.771557 C 290.139347 13.328847 225.191422 0.000720138 145.071622 0.000720138 Z M 145.071622 0.000720138 " stroke="#d5eafe" stroke-width="10" stroke-opacity="1" stroke-miterlimit="4"/></g></g><g clip-path="url(#bff5d2975a)"><g clip-path="url(#e8f9f78632)"><g clip-path="url(#452a5af1d6)"><path fill="#d5eafe" d="M 252.960938 227.910156 L 322.839844 219.570312 L 366.292969 583.707031 L 296.414062 592.046875 Z M 252.960938 227.910156 " fill-opacity="1" fill-rule="nonzero"/></g></g></g><g clip-path="url(#f8669e3d09)"><g clip-path="url(#0c7f4892a4)"><g clip-path="url(#7ba85ebf7c)"><path fill="#d5eafe" d="M 489.285156 219.570312 L 559.128906 228.191406 L 514.316406 591.332031 L 444.472656 582.710938 Z M 489.285156 219.570312 " fill-opacity="1" fill-rule="nonzero"/></g></g></g><g clip-path="url(#608c44e87a)"><g clip-path="url(#73f769bd86)"><path fill="#d5eafe" d="M 321.703125 226.25 L 489.105469 226.25 L 489.105469 592.441406 L 321.703125 592.441406 Z M 321.703125 226.25 " fill-opacity="1" fill-rule="nonzero"/></g></g><g clip-path="url(#23cec94186)"><g clip-path="url(#22590054ea)"><path fill="#d5eafe" d="M 254.136719 202.5 L 558.132812 202.5 L 558.132812 261.863281 L 254.136719 261.863281 Z M 254.136719 202.5 " fill-opacity="1" fill-rule="nonzero"/></g></g><g clip-path="url(#f10e273e02)"><g clip-path="url(#b80e0f6c12)"><path stroke-linecap="butt" transform="matrix(0.75, 0, 0, 0.75, 254.148711, 202.50001)" fill="none" stroke-linejoin="miter" d="M 202.629854 -0.0000130833 C 90.71839 -0.0000130833 -0.000364286 17.718738 -0.000364286 39.572906 C -0.000364286 61.421865 90.71839 79.140616 202.629854 79.140616 C 314.541318 79.140616 405.260073 61.421865 405.260073 39.572906 C 405.260073 17.718738 314.541318 -0.0000130833 202.629854 -0.0000130833 Z M 202.629854 -0.0000130833 " stroke="#d5eafe" stroke-width="10" stroke-opacity="1" stroke-miterlimit="4"/></g></g><g clip-path="url(#60903a47e3)"><path fill="#84d8f6" d="M 321.703125 362.289062 L 488.296875 362.289062 L 488.296875 570.53125 L 321.703125 570.53125 Z M 321.703125 362.289062 " fill-opacity="1" fill-rule="nonzero"/></g><g clip-path="url(#b4627d6881)"><path fill="#84d8f6" d="M 309.632812 368.578125 L 502.011719 368.578125 L 502.011719 496.5 L 309.632812 496.5 Z M 309.632812 368.578125 " fill-opacity="1" fill-rule="nonzero"/></g><g clip-path="url(#97b5412b99)"><g clip-path="url(#c7f8224e86)"><g clip-path="url(#3548295265)"><path fill="#d5eafe" d="M 285.449219 472.128906 L 307.246094 469.574219 L 320.953125 586.484375 L 299.152344 589.039062 Z M 285.449219 472.128906 " fill-opacity="1" fill-rule="nonzero"/></g></g></g><g clip-path="url(#3835d18645)"><g clip-path="url(#b7423e2493)"><g clip-path="url(#0c1932980f)"><path fill="#d5eafe" d="M 495.703125 537.0625 L 517.484375 539.753906 L 511.398438 589.015625 L 489.617188 586.328125 Z M 495.703125 537.0625 " fill-opacity="1" fill-rule="nonzero"/></g></g></g><g clip-path="url(#0e57fafb08)"><g clip-path="url(#1f5a6d7289)"><path fill="#84d8f6" d="M 311.75 562.839844 L 498.210938 562.839844 L 498.210938 592.140625 L 311.75 592.140625 Z M 311.75 562.839844 " fill-opacity="1" fill-rule="nonzero"/></g></g><g clip-path="url(#0573ced1ea)"><g clip-path="url(#0a2b0457fe)"><path stroke-linecap="butt" transform="matrix(0.75, 0, 0, 0.75, 311.76491, 562.839136)" fill="none" stroke-linejoin="miter" d="M 124.308259 0.000944088 C 55.657209 0.000944088 0.000953046 8.745737 0.000953046 19.532196 C 0.000953046 30.318656 55.657209 39.063449 124.308259 39.063449 C 192.964517 39.063449 248.620773 30.318656 248.620773 19.532196 C 248.620773 8.745737 192.964517 0.000944088 124.308259 0.000944088 Z M 124.308259 0.000944088 " stroke="#84d8f6" stroke-width="10" stroke-opacity="1" stroke-miterlimit="4"/></g></g><g clip-path="url(#2e057c6388)"><g clip-path="url(#512c7c7d16)"><g clip-path="url(#280eae4789)"><path fill="#84d8f6" d="M 504.640625 362.289062 L 526.414062 365.046875 L 499.066406 580.992188 L 477.292969 578.234375 Z M 504.640625 362.289062 " fill-opacity="1" fill-rule="nonzero"/></g></g></g><g mask="url(#27c82f6cab)"><g transform="matrix(1, 0, 0, 1, 465, 550)"><g clip-path="url(#a61b4d989c)"><g clip-path="url(#a48fd90447)"><g clip-path="url(#a25e6c87c1)"><path fill="#ffffff" d="M 0.757812 0.671875 L 19.339844 0.671875 L 19.339844 19.253906 L 0.757812 19.253906 Z M 0.757812 0.671875 " fill-opacity="1" fill-rule="nonzero"/></g></g></g></g></g><g clip-path="url(#999e27c51c)"><g clip-path="url(#485dc2f8fc)"><g clip-path="url(#e63b0f774d)"><path fill="#84d8f6" d="M 286.0625 364.804688 L 307.859375 362.25 L 333.207031 578.441406 L 311.40625 580.996094 Z M 286.0625 364.804688 " fill-opacity="1" fill-rule="nonzero"/></g></g></g><g clip-path="url(#e920ab6a89)"><g clip-path="url(#eeb18634f7)"><path fill="#4f9fdd" d="M 286.585938 345.089844 L 525.683594 345.089844 L 525.683594 392.066406 L 286.585938 392.066406 Z M 286.585938 345.089844 " fill-opacity="1" fill-rule="nonzero"/></g></g><g clip-path="url(#0e66eb7ee4)"><g clip-path="url(#fbcbdd44be)"><path stroke-linecap="butt" transform="matrix(0.75, 0, 0, 0.75, 286.598427, 345.090502)" fill="none" stroke-linejoin="miter" d="M 159.363553 -0.000877452 C 71.347929 -0.000877452 -0.00102831 14.019956 -0.00102831 31.311622 C -0.00102831 48.608497 71.347929 62.624122 159.363553 62.624122 C 247.379177 62.624122 318.728134 48.608497 318.728134 31.311622 C 318.728134 14.019956 247.379177 -0.000877452 159.363553 -0.000877452 Z M 159.363553 -0.000877452 " stroke="#4f9fdd" stroke-width="10" stroke-opacity="1" stroke-miterlimit="4"/></g></g><g mask="url(#b62129f0f5)"><g transform="matrix(1, 0, 0, 1, 470, 368)"><g clip-path="url(#0111930041)"><g clip-path="url(#9cc981e689)"><g clip-path="url(#0fc5c25dbc)"><g clip-path="url(#f9f735f642)"><path fill="#ffffff" d="M 20.183594 0.671875 L 37.679688 2.683594 L 18.023438 173.792969 L 0.527344 171.78125 Z M 20.183594 0.671875 " fill-opacity="1" fill-rule="nonzero"/></g></g></g></g></g></g></svg>