<svg xmlns="http://www.w3.org/2000/svg" xmlns:xlink="http://www.w3.org/1999/xlink" width="200" zoomAndPan="magnify" viewBox="0 0 150 149.999998" height="200" preserveAspectRatio="xMidYMid meet" version="1.0"><defs><filter x="0%" y="0%" width="100%" height="100%" id="88b62f4259"><feColorMatrix values="0 0 0 0 1 0 0 0 0 1 0 0 0 0 1 0 0 0 1 0" color-interpolation-filters="sRGB"/></filter><clipPath id="5b6c1c8aa8"><path d="M 34.648438 128.714844 L 115.132812 128.714844 L 115.132812 150 L 34.648438 150 Z M 34.648438 128.714844 " clip-rule="nonzero"/></clipPath><clipPath id="4493771185"><path d="M 74.871094 128.714844 C 52.65625 128.714844 34.648438 133.480469 34.648438 139.355469 C 34.648438 145.234375 52.65625 150 74.871094 150 C 97.085938 150 115.09375 145.234375 115.09375 139.355469 C 115.09375 133.480469 97.085938 128.714844 74.871094 128.714844 Z M 74.871094 128.714844 " clip-rule="nonzero"/></clipPath><clipPath id="05b3bffbd2"><path d="M 34.648438 128.714844 L 114.898438 128.714844 L 114.898438 149.714844 L 34.648438 149.714844 Z M 34.648438 128.714844 " clip-rule="nonzero"/></clipPath><clipPath id="2597552c11"><path d="M 74.867188 128.714844 C 52.65625 128.714844 34.652344 133.476562 34.652344 139.355469 C 34.652344 145.230469 52.65625 149.996094 74.867188 149.996094 C 97.078125 149.996094 115.082031 145.230469 115.082031 139.355469 C 115.082031 133.476562 97.078125 128.714844 74.867188 128.714844 Z M 74.867188 128.714844 " clip-rule="nonzero"/></clipPath><clipPath id="d30f6e1097"><path d="M 19 7 L 60 7 L 60 144 L 19 144 Z M 19 7 " clip-rule="nonzero"/></clipPath><clipPath id="e37d2a8ff9"><path d="M 18.652344 9.394531 L 44.488281 6.3125 L 60.5625 141.027344 L 34.726562 144.109375 Z M 18.652344 9.394531 " clip-rule="nonzero"/></clipPath><clipPath id="70616f3baa"><path d="M 26.101562 8.503906 L 37.039062 7.199219 C 41.152344 6.707031 44.882812 9.644531 45.375 13.757812 L 59.664062 133.507812 C 60.15625 137.621094 57.21875 141.355469 53.105469 141.84375 L 42.167969 143.148438 C 38.054688 143.640625 34.320312 140.703125 33.832031 136.589844 L 19.542969 16.839844 C 19.050781 12.726562 21.988281 8.996094 26.101562 8.503906 Z M 26.101562 8.503906 " clip-rule="nonzero"/></clipPath><clipPath id="325c44c05c"><path d="M 90 7 L 131 7 L 131 143 L 90 143 Z M 90 7 " clip-rule="nonzero"/></clipPath><clipPath id="90e8d8cffa"><path d="M 106.019531 6.3125 L 131.839844 9.496094 L 115.273438 143.746094 L 89.453125 140.558594 Z M 106.019531 6.3125 " clip-rule="nonzero"/></clipPath><clipPath id="815eea5423"><path d="M 113.460938 7.230469 L 124.394531 8.578125 C 128.507812 9.085938 131.425781 12.828125 130.921875 16.941406 L 116.191406 136.300781 C 115.683594 140.410156 111.941406 143.332031 107.828125 142.824219 L 96.894531 141.476562 C 92.785156 140.96875 89.863281 137.226562 90.371094 133.113281 L 105.097656 13.753906 C 105.605469 9.644531 109.351562 6.722656 113.460938 7.230469 Z M 113.460938 7.230469 " clip-rule="nonzero"/></clipPath><clipPath id="039d74c9bb"><path d="M 44.066406 8.78125 L 105.953125 8.78125 L 105.953125 144.15625 L 44.066406 144.15625 Z M 44.066406 8.78125 " clip-rule="nonzero"/></clipPath><clipPath id="fa0692a415"><path d="M 51.566406 8.78125 L 98.453125 8.78125 C 102.59375 8.78125 105.953125 12.136719 105.953125 16.28125 L 105.953125 136.546875 C 105.953125 140.6875 102.59375 144.042969 98.453125 144.042969 L 51.566406 144.042969 C 47.421875 144.042969 44.066406 140.6875 44.066406 136.546875 L 44.066406 16.28125 C 44.066406 12.136719 47.421875 8.78125 51.566406 8.78125 Z M 51.566406 8.78125 " clip-rule="nonzero"/></clipPath><clipPath id="514e1f2ee9"><path d="M 19.914062 0 L 130.839844 0 L 130.839844 30.050781 L 19.914062 30.050781 Z M 19.914062 0 " clip-rule="nonzero"/></clipPath><clipPath id="d94b371737"><path d="M 75.359375 0 C 44.738281 0 19.914062 6.726562 19.914062 15.023438 C 19.914062 23.324219 44.738281 30.050781 75.359375 30.050781 C 105.980469 30.050781 130.800781 23.324219 130.800781 15.023438 C 130.800781 6.726562 105.980469 0 75.359375 0 Z M 75.359375 0 " clip-rule="nonzero"/></clipPath><clipPath id="abdf26d616"><path d="M 19.917969 0 L 130.914062 0 L 130.914062 30 L 19.917969 30 Z M 19.917969 0 " clip-rule="nonzero"/></clipPath><clipPath id="c4d1f15d97"><path d="M 75.355469 0 C 44.738281 0 19.917969 6.726562 19.917969 15.023438 C 19.917969 23.320312 44.738281 30.046875 75.355469 30.046875 C 105.972656 30.046875 130.792969 23.320312 130.792969 15.023438 C 130.792969 6.726562 105.972656 0 75.355469 0 Z M 75.355469 0 " clip-rule="nonzero"/></clipPath><clipPath id="7619dcca2e"><path d="M 44.066406 59.070312 L 105.652344 59.070312 L 105.652344 136.019531 L 44.066406 136.019531 Z M 44.066406 59.070312 " clip-rule="nonzero"/></clipPath><clipPath id="4720941a08"><path d="M 39.601562 61.398438 L 110.667969 61.398438 L 110.667969 108.6875 L 39.601562 108.6875 Z M 39.601562 61.398438 " clip-rule="nonzero"/></clipPath><clipPath id="eebc5f611c"><path d="M 31 99 L 44 99 L 44 143 L 31 143 Z M 31 99 " clip-rule="nonzero"/></clipPath><clipPath id="854aaf2149"><path d="M 30.664062 99.679688 L 38.722656 98.734375 L 43.792969 141.984375 L 35.734375 142.929688 Z M 30.664062 99.679688 " clip-rule="nonzero"/></clipPath><clipPath id="b245660d15"><path d="M 34.691406 99.207031 C 36.917969 98.945312 38.933594 100.539062 39.195312 102.761719 L 43.316406 137.925781 C 43.578125 140.148438 41.984375 142.164062 39.757812 142.425781 C 37.535156 142.6875 35.519531 141.09375 35.257812 138.867188 L 31.136719 103.707031 C 30.875 101.484375 32.46875 99.46875 34.691406 99.207031 Z M 34.691406 99.207031 " clip-rule="nonzero"/></clipPath><clipPath id="88c9b297f7"><path d="M 106 124 L 116 124 L 116 143 L 106 143 Z M 106 124 " clip-rule="nonzero"/></clipPath><clipPath id="e1a6c66105"><path d="M 108.390625 123.683594 L 116.441406 124.675781 L 114.191406 142.921875 L 106.136719 141.925781 Z M 108.390625 123.683594 " clip-rule="nonzero"/></clipPath><clipPath id="6269d89b3d"><path d="M 112.417969 124.179688 C 114.640625 124.453125 116.21875 126.480469 115.945312 128.703125 L 114.691406 138.871094 C 114.414062 141.097656 112.390625 142.675781 110.167969 142.402344 C 107.941406 142.128906 106.363281 140.101562 106.636719 137.878906 L 107.894531 127.710938 C 108.167969 125.484375 110.191406 123.90625 112.417969 124.179688 Z M 112.417969 124.179688 " clip-rule="nonzero"/></clipPath><clipPath id="66a6324b3c"><path d="M 40.386719 130.234375 L 109.382812 130.234375 L 109.382812 144.042969 L 40.386719 144.042969 Z M 40.386719 130.234375 " clip-rule="nonzero"/></clipPath><clipPath id="bec5dc393e"><path d="M 74.859375 130.234375 C 55.820312 130.234375 40.386719 133.328125 40.386719 137.140625 C 40.386719 140.953125 55.820312 144.042969 74.859375 144.042969 C 93.898438 144.042969 109.332031 140.953125 109.332031 137.140625 C 109.332031 133.328125 93.898438 130.234375 74.859375 130.234375 Z M 74.859375 130.234375 " clip-rule="nonzero"/></clipPath><clipPath id="6cec11544e"><path d="M 40.398438 130.234375 L 109.386719 130.234375 L 109.386719 143.734375 L 40.398438 143.734375 Z M 40.398438 130.234375 " clip-rule="nonzero"/></clipPath><clipPath id="8ed6297119"><path d="M 74.855469 130.234375 C 55.824219 130.234375 40.398438 133.324219 40.398438 137.136719 C 40.398438 140.949219 55.824219 144.039062 74.855469 144.039062 C 93.890625 144.039062 109.316406 140.949219 109.316406 137.136719 C 109.316406 133.324219 93.890625 130.234375 74.855469 130.234375 Z M 74.855469 130.234375 " clip-rule="nonzero"/></clipPath><clipPath id="0b751eb211"><path d="M 102 59 L 120 59 L 120 140 L 102 140 Z M 102 59 " clip-rule="nonzero"/></clipPath><clipPath id="3330eae86f"><path d="M 111.695312 59.070312 L 119.746094 60.089844 L 109.632812 139.921875 L 101.585938 138.90625 Z M 111.695312 59.070312 " clip-rule="nonzero"/></clipPath><clipPath id="a75293fad9"><path d="M 115.71875 59.582031 C 117.941406 59.863281 119.515625 61.890625 119.234375 64.117188 L 110.144531 135.886719 C 109.863281 138.109375 107.835938 139.683594 105.609375 139.402344 C 103.386719 139.121094 101.816406 137.089844 102.097656 134.867188 L 111.183594 63.097656 C 111.46875 60.875 113.496094 59.300781 115.71875 59.582031 Z M 115.71875 59.582031 " clip-rule="nonzero"/></clipPath><mask id="163ee1d3e4"><g filter="url(#88b62f4259)"><rect x="-15" width="180" fill="#000000" y="-15" height="179.999997" fill-opacity="0.75"/></g></mask><clipPath id="112b862d75"><path d="M 0.320312 0.714844 L 7.191406 0.714844 L 7.191406 7.585938 L 0.320312 7.585938 Z M 0.320312 0.714844 " clip-rule="nonzero"/></clipPath><clipPath id="01e409b7ad"><path d="M 3.753906 0.714844 C 1.859375 0.714844 0.320312 2.253906 0.320312 4.148438 C 0.320312 6.046875 1.859375 7.585938 3.753906 7.585938 C 5.652344 7.585938 7.191406 6.046875 7.191406 4.148438 C 7.191406 2.253906 5.652344 0.714844 3.753906 0.714844 Z M 3.753906 0.714844 " clip-rule="nonzero"/></clipPath><clipPath id="3540d7948e"><rect x="0" width="8" y="0" height="8"/></clipPath><clipPath id="5309d72d80"><path d="M 31 59 L 48 59 L 48 140 L 31 140 Z M 31 59 " clip-rule="nonzero"/></clipPath><clipPath id="b9451eafd3"><path d="M 30.890625 60 L 38.949219 59.054688 L 48.316406 138.980469 L 40.261719 139.925781 Z M 30.890625 60 " clip-rule="nonzero"/></clipPath><clipPath id="91ed3244a6"><path d="M 34.917969 59.527344 C 37.144531 59.269531 39.160156 60.859375 39.421875 63.085938 L 47.84375 134.9375 C 48.105469 137.164062 46.511719 139.179688 44.289062 139.441406 C 42.0625 139.699219 40.046875 138.109375 39.785156 135.882812 L 31.363281 64.03125 C 31.101562 61.804688 32.695312 59.789062 34.917969 59.527344 Z M 34.917969 59.527344 " clip-rule="nonzero"/></clipPath><clipPath id="10fcb2578e"><path d="M 31.082031 52.714844 L 119.472656 52.714844 L 119.472656 70.078125 L 31.082031 70.078125 Z M 31.082031 52.714844 " clip-rule="nonzero"/></clipPath><clipPath id="5a8fdea129"><path d="M 75.273438 52.714844 C 50.867188 52.714844 31.082031 56.601562 31.082031 61.398438 C 31.082031 66.191406 50.867188 70.078125 75.273438 70.078125 C 99.683594 70.078125 119.46875 66.191406 119.46875 61.398438 C 119.46875 56.601562 99.683594 52.714844 75.273438 52.714844 Z M 75.273438 52.714844 " clip-rule="nonzero"/></clipPath><clipPath id="5b5c745f3c"><path d="M 31.109375 52.714844 L 119.484375 52.714844 L 119.484375 69.964844 L 31.109375 69.964844 Z M 31.109375 52.714844 " clip-rule="nonzero"/></clipPath><clipPath id="843e164db0"><path d="M 75.273438 52.714844 C 50.882812 52.714844 31.109375 56.597656 31.109375 61.390625 C 31.109375 66.183594 50.882812 70.070312 75.273438 70.070312 C 99.667969 70.070312 119.4375 66.183594 119.4375 61.390625 C 119.4375 56.597656 99.667969 52.714844 75.273438 52.714844 Z M 75.273438 52.714844 " clip-rule="nonzero"/></clipPath><mask id="91749e5b8c"><g filter="url(#88b62f4259)"><rect x="-15" width="180" fill="#000000" y="-15" height="179.999997" fill-opacity="0.75"/></g></mask><clipPath id="48165fda6d"><path d="M 1 0.199219 L 15 0.199219 L 15 64.519531 L 1 64.519531 Z M 1 0.199219 " clip-rule="nonzero"/></clipPath><clipPath id="4ae7e4c7ff"><path d="M 8.351562 0.433594 L 14.816406 1.175781 L 7.550781 64.429688 L 1.082031 63.6875 Z M 8.351562 0.433594 " clip-rule="nonzero"/></clipPath><clipPath id="4aae252f0b"><path d="M 11.585938 0.804688 C 13.371094 1.007812 14.652344 2.621094 14.445312 4.410156 L 7.921875 61.1875 C 7.71875 62.972656 6.105469 64.253906 4.320312 64.050781 C 2.53125 63.84375 1.25 62.230469 1.457031 60.445312 L 7.980469 3.664062 C 8.183594 1.878906 9.796875 0.597656 11.585938 0.804688 Z M 11.585938 0.804688 " clip-rule="nonzero"/></clipPath><clipPath id="f1e343d39c"><rect x="0" width="16" y="0" height="65"/></clipPath></defs><g clip-path="url(#5b6c1c8aa8)"><g clip-path="url(#4493771185)"><path fill="#d5eafe" d="M 34.648438 128.714844 L 115.132812 128.714844 L 115.132812 150 L 34.648438 150 Z M 34.648438 128.714844 " fill-opacity="1" fill-rule="nonzero"/></g></g><g clip-path="url(#05b3bffbd2)"><g clip-path="url(#2597552c11)"><path stroke-linecap="butt" transform="matrix(0.75, 0, 0, 0.75, 34.651318, 128.714262)" fill="none" stroke-linejoin="miter" d="M 53.621163 0.000775011 C 24.006578 0.000775011 0.00136827 6.349734 0.00136827 14.188276 C 0.00136827 22.02161 24.006578 28.375777 53.621163 28.375777 C 83.235748 28.375777 107.240958 22.02161 107.240958 14.188276 C 107.240958 6.349734 83.235748 0.000775011 53.621163 0.000775011 Z M 53.621163 0.000775011 " stroke="#d5eafe" stroke-width="10" stroke-opacity="1" stroke-miterlimit="4"/></g></g><g clip-path="url(#d30f6e1097)"><g clip-path="url(#e37d2a8ff9)"><g clip-path="url(#70616f3baa)"><path fill="#d5eafe" d="M 18.652344 9.394531 L 44.488281 6.3125 L 60.550781 140.925781 L 34.714844 144.011719 Z M 18.652344 9.394531 " fill-opacity="1" fill-rule="nonzero"/></g></g></g><g clip-path="url(#325c44c05c)"><g clip-path="url(#90e8d8cffa)"><g clip-path="url(#815eea5423)"><path fill="#d5eafe" d="M 106.019531 6.3125 L 131.839844 9.496094 L 115.273438 143.746094 L 89.453125 140.558594 Z M 106.019531 6.3125 " fill-opacity="1" fill-rule="nonzero"/></g></g></g><g clip-path="url(#039d74c9bb)"><g clip-path="url(#fa0692a415)"><path fill="#d5eafe" d="M 44.066406 8.78125 L 105.953125 8.78125 L 105.953125 144.15625 L 44.066406 144.15625 Z M 44.066406 8.78125 " fill-opacity="1" fill-rule="nonzero"/></g></g><g clip-path="url(#514e1f2ee9)"><g clip-path="url(#d94b371737)"><path fill="#d5eafe" d="M 19.914062 0 L 130.839844 0 L 130.839844 30.050781 L 19.914062 30.050781 Z M 19.914062 0 " fill-opacity="1" fill-rule="nonzero"/></g></g><g clip-path="url(#abdf26d616)"><g clip-path="url(#c4d1f15d97)"><path stroke-linecap="butt" transform="matrix(0.75, 0, 0, 0.75, 19.916497, 0.000002)" fill="none" stroke-linejoin="miter" d="M 73.918628 -0.00000266667 C 33.095712 -0.00000266667 0.00196195 8.968747 0.00196195 20.031247 C 0.00196195 31.093747 33.095712 40.062497 73.918628 40.062497 C 114.741545 40.062497 147.835294 31.093747 147.835294 20.031247 C 147.835294 8.968747 114.741545 -0.00000266667 73.918628 -0.00000266667 Z M 73.918628 -0.00000266667 " stroke="#d5eafe" stroke-width="10" stroke-opacity="1" stroke-miterlimit="4"/></g></g><g clip-path="url(#7619dcca2e)"><path fill="#84d8f6" d="M 44.066406 59.070312 L 105.652344 59.070312 L 105.652344 136.054688 L 44.066406 136.054688 Z M 44.066406 59.070312 " fill-opacity="1" fill-rule="nonzero"/></g><g clip-path="url(#4720941a08)"><path fill="#84d8f6" d="M 39.601562 61.398438 L 110.722656 61.398438 L 110.722656 108.6875 L 39.601562 108.6875 Z M 39.601562 61.398438 " fill-opacity="1" fill-rule="nonzero"/></g><g clip-path="url(#eebc5f611c)"><g clip-path="url(#854aaf2149)"><g clip-path="url(#b245660d15)"><path fill="#d5eafe" d="M 30.664062 99.679688 L 38.722656 98.734375 L 43.789062 141.953125 L 35.730469 142.898438 Z M 30.664062 99.679688 " fill-opacity="1" fill-rule="nonzero"/></g></g></g><g clip-path="url(#88c9b297f7)"><g clip-path="url(#e1a6c66105)"><g clip-path="url(#6269d89b3d)"><path fill="#d5eafe" d="M 108.390625 123.683594 L 116.441406 124.675781 L 114.195312 142.890625 L 106.140625 141.894531 Z M 108.390625 123.683594 " fill-opacity="1" fill-rule="nonzero"/></g></g></g><g clip-path="url(#66a6324b3c)"><g clip-path="url(#bec5dc393e)"><path fill="#84d8f6" d="M 40.386719 130.234375 L 109.328125 130.234375 L 109.328125 144.042969 L 40.386719 144.042969 Z M 40.386719 130.234375 " fill-opacity="1" fill-rule="nonzero"/></g></g><g clip-path="url(#6cec11544e)"><g clip-path="url(#8ed6297119)"><path stroke-linecap="butt" transform="matrix(0.75, 0, 0, 0.75, 40.39708, 130.235092)" fill="none" stroke-linejoin="miter" d="M 45.944524 -0.000956004 C 20.569521 -0.000956004 0.00181041 4.118836 0.00181041 9.20217 C 0.00181041 14.285504 20.569521 18.405296 45.944524 18.405296 C 71.324736 18.405296 91.892447 14.285504 91.892447 9.20217 C 91.892447 4.118836 71.324736 -0.000956004 45.944524 -0.000956004 Z M 45.944524 -0.000956004 " stroke="#84d8f6" stroke-width="10" stroke-opacity="1" stroke-miterlimit="4"/></g></g><g clip-path="url(#0b751eb211)"><g clip-path="url(#3330eae86f)"><g clip-path="url(#a75293fad9)"><path fill="#84d8f6" d="M 111.695312 59.070312 L 119.746094 60.089844 L 109.632812 139.921875 L 101.585938 138.90625 Z M 111.695312 59.070312 " fill-opacity="1" fill-rule="nonzero"/></g></g></g><g mask="url(#163ee1d3e4)"><g transform="matrix(1, 0, 0, 1, 97, 128)"><g clip-path="url(#3540d7948e)"><g clip-path="url(#112b862d75)"><g clip-path="url(#01e409b7ad)"><path fill="#ffffff" d="M 0.320312 0.714844 L 7.191406 0.714844 L 7.191406 7.585938 L 0.320312 7.585938 Z M 0.320312 0.714844 " fill-opacity="1" fill-rule="nonzero"/></g></g></g></g></g><g clip-path="url(#5309d72d80)"><g clip-path="url(#b9451eafd3)"><g clip-path="url(#91ed3244a6)"><path fill="#84d8f6" d="M 30.890625 60 L 38.949219 59.054688 L 48.316406 138.980469 L 40.261719 139.925781 Z M 30.890625 60 " fill-opacity="1" fill-rule="nonzero"/></g></g></g><g clip-path="url(#10fcb2578e)"><g clip-path="url(#5a8fdea129)"><path fill="#4f9fdd" d="M 31.082031 52.714844 L 119.472656 52.714844 L 119.472656 70.078125 L 31.082031 70.078125 Z M 31.082031 52.714844 " fill-opacity="1" fill-rule="nonzero"/></g></g><g clip-path="url(#5b5c745f3c)"><g clip-path="url(#843e164db0)"><path stroke-linecap="butt" transform="matrix(0.75, 0, 0, 0.75, 31.109223, 52.71369)" fill="none" stroke-linejoin="miter" d="M 58.885623 0.00153817 C 26.364787 0.00153817 0.00020262 5.178622 0.00020262 11.569247 C 0.00020262 17.959873 26.364787 23.142165 58.885623 23.142165 C 91.411666 23.142165 117.771043 17.959873 117.771043 11.569247 C 117.771043 5.178622 91.411666 0.00153817 58.885623 0.00153817 Z M 58.885623 0.00153817 " stroke="#4f9fdd" stroke-width="10" stroke-opacity="1" stroke-miterlimit="4"/></g></g><g mask="url(#91749e5b8c)"><g transform="matrix(1, 0, 0, 1, 98, 61)"><g clip-path="url(#f1e343d39c)"><g clip-path="url(#48165fda6d)"><g clip-path="url(#4ae7e4c7ff)"><g clip-path="url(#4aae252f0b)"><path fill="#ffffff" d="M 8.351562 0.433594 L 14.816406 1.175781 L 7.550781 64.429688 L 1.082031 63.6875 Z M 8.351562 0.433594 " fill-opacity="1" fill-rule="nonzero"/></g></g></g></g></g></g></svg>