<svg xmlns="http://www.w3.org/2000/svg" xmlns:xlink="http://www.w3.org/1999/xlink" width="1080" zoomAndPan="magnify" viewBox="0 0 810 809.999993" height="1080" preserveAspectRatio="xMidYMid meet" version="1.0"><defs><clipPath id="aba4e9a341"><path d="M 248.671875 305.546875 L 476 305.546875 L 476 523.460938 L 248.671875 523.460938 Z M 248.671875 305.546875 " clip-rule="nonzero"/></clipPath><clipPath id="dc22dc7c33"><path d="M 362.523438 305.546875 C 299.644531 305.546875 248.671875 354.328125 248.671875 414.503906 C 248.671875 474.679688 299.644531 523.460938 362.523438 523.460938 C 425.398438 523.460938 476.371094 474.679688 476.371094 414.503906 C 476.371094 354.328125 425.398438 305.546875 362.523438 305.546875 Z M 362.523438 305.546875 " clip-rule="nonzero"/></clipPath><clipPath id="6e5d7cf033"><path d="M 481 401 L 519 401 L 519 434 L 481 434 Z M 481 401 " clip-rule="nonzero"/></clipPath><clipPath id="5166cacedb"><path d="M 476.375 411.636719 L 510.769531 395.21875 L 523.945312 422.820312 L 489.550781 439.242188 Z M 476.375 411.636719 " clip-rule="nonzero"/></clipPath><clipPath id="f91beafe62"><path d="M 493.539062 403.441406 C 484.058594 407.96875 479.324219 417.816406 482.960938 425.4375 C 486.601562 433.0625 497.238281 435.570312 506.714844 431.046875 C 516.195312 426.519531 520.933594 416.671875 517.292969 409.050781 C 513.652344 401.425781 503.019531 398.917969 493.539062 403.441406 Z M 493.539062 403.441406 " clip-rule="nonzero"/></clipPath><clipPath id="87d3136b9d"><path d="M 395 521 L 443 521 L 443 565 L 395 565 Z M 395 521 " clip-rule="nonzero"/></clipPath><clipPath id="1e71b53a79"><path d="M 450.585938 540.65625 L 409.300781 573.476562 L 387.421875 545.953125 L 428.707031 513.132812 Z M 450.585938 540.65625 " clip-rule="nonzero"/></clipPath><clipPath id="01c6bc69fb"><path d="M 429.992188 557.03125 C 441.363281 547.988281 445.6875 534.496094 439.644531 526.894531 C 433.605469 519.296875 419.484375 520.464844 408.109375 529.507812 C 396.734375 538.550781 392.414062 552.042969 398.453125 559.640625 C 404.496094 567.242188 418.617188 566.074219 429.992188 557.03125 Z M 429.992188 557.03125 " clip-rule="nonzero"/></clipPath><clipPath id="223dffe602"><path d="M 405 520 L 459 520 L 459 556 L 405 556 Z M 405 520 " clip-rule="nonzero"/></clipPath><clipPath id="9e0022a87f"><path d="M 460.640625 551.460938 L 408.5 559.394531 L 403.207031 524.632812 L 455.347656 516.699219 Z M 460.640625 551.460938 " clip-rule="nonzero"/></clipPath><clipPath id="a528e07e91"><path d="M 434.628906 555.417969 C 448.992188 553.230469 459.453125 543.679688 457.992188 534.078125 C 456.53125 524.480469 443.703125 518.472656 429.335938 520.65625 C 414.972656 522.84375 404.511719 532.398438 405.972656 541.996094 C 407.433594 551.597656 420.261719 557.605469 434.628906 555.417969 Z M 434.628906 555.417969 " clip-rule="nonzero"/></clipPath><clipPath id="f19c361bbf"><path d="M 280 522 L 333 522 L 333 558 L 280 558 Z M 280 522 " clip-rule="nonzero"/></clipPath><clipPath id="a6994711f3"><path d="M 333.101562 557.421875 L 280.363281 558.121094 L 279.898438 522.964844 L 332.632812 522.261719 Z M 333.101562 557.421875 " clip-rule="nonzero"/></clipPath><clipPath id="d3be8aaec0"><path d="M 306.792969 557.769531 C 321.320312 557.578125 332.996094 549.550781 332.867188 539.84375 C 332.738281 530.132812 320.855469 522.417969 306.324219 522.613281 C 291.792969 522.804688 280.121094 530.832031 280.25 540.542969 C 280.378906 550.25 292.261719 557.964844 306.792969 557.769531 Z M 306.792969 557.769531 " clip-rule="nonzero"/></clipPath><clipPath id="c4b437ddd2"><path d="M 295 523 L 345 523 L 345 564 L 295 564 Z M 295 523 " clip-rule="nonzero"/></clipPath><clipPath id="f3da7eeb28"><path d="M 334.445312 572.117188 L 288.34375 546.492188 L 305.429688 515.757812 L 351.527344 541.382812 Z M 334.445312 572.117188 " clip-rule="nonzero"/></clipPath><clipPath id="b15ccfdb73"><path d="M 311.445312 559.332031 C 324.148438 566.390625 338.269531 565.234375 342.984375 556.75 C 347.703125 548.261719 341.230469 535.660156 328.53125 528.601562 C 315.828125 521.539062 301.707031 522.695312 296.992188 531.183594 C 292.273438 539.667969 298.746094 552.273438 311.445312 559.332031 Z M 311.445312 559.332031 " clip-rule="nonzero"/></clipPath><clipPath id="efd9ec1eab"><path d="M 286.378906 380.945312 L 442.578125 380.945312 L 442.578125 513.792969 L 286.378906 513.792969 Z M 286.378906 380.945312 " clip-rule="nonzero"/></clipPath><clipPath id="ff1a5a8dd4"><path d="M 364.3125 380.945312 C 321.269531 380.945312 286.378906 410.6875 286.378906 447.371094 C 286.378906 484.054688 321.269531 513.792969 364.3125 513.792969 C 407.355469 513.792969 442.246094 484.054688 442.246094 447.371094 C 442.246094 410.6875 407.355469 380.945312 364.3125 380.945312 Z M 364.3125 380.945312 " clip-rule="nonzero"/></clipPath><clipPath id="3cf10445d9"><path d="M 304.488281 347.390625 L 356.847656 347.390625 L 356.847656 414.679688 L 304.488281 414.679688 Z M 304.488281 347.390625 " clip-rule="nonzero"/></clipPath><clipPath id="9ea28f0746"><path d="M 330.667969 347.390625 C 337.613281 347.390625 344.273438 350.148438 349.179688 355.058594 C 354.089844 359.96875 356.847656 366.625 356.847656 373.570312 L 356.847656 388.324219 C 356.847656 395.265625 354.089844 401.925781 349.179688 406.835938 C 344.273438 411.746094 337.613281 414.503906 330.667969 414.503906 C 323.726562 414.503906 317.066406 411.746094 312.15625 406.835938 C 307.246094 401.925781 304.488281 395.265625 304.488281 388.324219 L 304.488281 373.570312 C 304.488281 366.625 307.246094 359.96875 312.15625 355.058594 C 317.066406 350.148438 323.726562 347.390625 330.667969 347.390625 Z M 330.667969 347.390625 " clip-rule="nonzero"/></clipPath><clipPath id="b3fd4118bb"><path d="M 368.195312 347.390625 L 420.554688 347.390625 L 420.554688 414.679688 L 368.195312 414.679688 Z M 368.195312 347.390625 " clip-rule="nonzero"/></clipPath><clipPath id="fc03685eb9"><path d="M 394.375 347.390625 C 401.316406 347.390625 407.976562 350.148438 412.886719 355.058594 C 417.796875 359.96875 420.554688 366.625 420.554688 373.570312 L 420.554688 388.324219 C 420.554688 395.265625 417.796875 401.925781 412.886719 406.835938 C 407.976562 411.746094 401.316406 414.503906 394.375 414.503906 C 387.429688 414.503906 380.773438 411.746094 375.863281 406.835938 C 370.953125 401.925781 368.195312 395.265625 368.195312 388.324219 L 368.195312 373.570312 C 368.195312 366.625 370.953125 359.96875 375.863281 355.058594 C 380.773438 350.148438 387.429688 347.390625 394.375 347.390625 Z M 394.375 347.390625 " clip-rule="nonzero"/></clipPath><clipPath id="b5ad341117"><path d="M 379.40625 361.039062 L 409.34375 361.039062 L 409.34375 402.4375 L 379.40625 402.4375 Z M 379.40625 361.039062 " clip-rule="nonzero"/></clipPath><clipPath id="280021405d"><path d="M 394.375 361.039062 C 398.34375 361.039062 402.152344 362.617188 404.960938 365.421875 C 407.765625 368.230469 409.34375 372.039062 409.34375 376.007812 L 409.34375 387.363281 C 409.34375 391.335938 407.765625 395.140625 404.960938 397.949219 C 402.152344 400.757812 398.34375 402.332031 394.375 402.332031 C 390.40625 402.332031 386.597656 400.757812 383.789062 397.949219 C 380.980469 395.140625 379.40625 391.335938 379.40625 387.363281 L 379.40625 376.007812 C 379.40625 372.039062 380.980469 368.230469 383.789062 365.421875 C 386.597656 362.617188 390.40625 361.039062 394.375 361.039062 Z M 394.375 361.039062 " clip-rule="nonzero"/></clipPath><clipPath id="dcceb76524"><path d="M 392.003906 361.039062 L 405.328125 361.039062 L 405.328125 376.289062 L 392.003906 376.289062 Z M 392.003906 361.039062 " clip-rule="nonzero"/></clipPath><clipPath id="72970d73b5"><path d="M 398.664062 361.039062 C 402.34375 361.039062 405.328125 364.023438 405.328125 367.703125 L 405.328125 369.621094 C 405.328125 373.300781 402.34375 376.285156 398.664062 376.285156 C 394.984375 376.285156 392.003906 373.300781 392.003906 369.621094 L 392.003906 367.703125 C 392.003906 364.023438 394.984375 361.039062 398.664062 361.039062 Z M 398.664062 361.039062 " clip-rule="nonzero"/></clipPath><clipPath id="1acb6c5cd3"><path d="M 314.742188 360.300781 L 344.679688 360.300781 L 344.679688 401.699219 L 314.742188 401.699219 Z M 314.742188 360.300781 " clip-rule="nonzero"/></clipPath><clipPath id="e3925feb3f"><path d="M 329.710938 360.300781 C 333.679688 360.300781 337.488281 361.875 340.296875 364.683594 C 343.101562 367.492188 344.679688 371.296875 344.679688 375.269531 L 344.679688 386.625 C 344.679688 390.59375 343.101562 394.402344 340.296875 397.210938 C 337.488281 400.015625 333.679688 401.59375 329.710938 401.59375 C 325.742188 401.59375 321.933594 400.015625 319.125 397.210938 C 316.320312 394.402344 314.742188 390.59375 314.742188 386.625 L 314.742188 375.269531 C 314.742188 371.296875 316.320312 367.492188 319.125 364.683594 C 321.933594 361.875 325.742188 360.300781 329.710938 360.300781 Z M 329.710938 360.300781 " clip-rule="nonzero"/></clipPath><clipPath id="85209dd4d9"><path d="M 328.648438 360.300781 L 341.972656 360.300781 L 341.972656 375.550781 L 328.648438 375.550781 Z M 328.648438 360.300781 " clip-rule="nonzero"/></clipPath><clipPath id="1a03732730"><path d="M 335.3125 360.300781 C 338.992188 360.300781 341.972656 363.28125 341.972656 366.960938 L 341.972656 368.882812 C 341.972656 372.5625 338.992188 375.546875 335.3125 375.546875 C 331.632812 375.546875 328.648438 372.5625 328.648438 368.882812 L 328.648438 366.960938 C 328.648438 363.28125 331.632812 360.300781 335.3125 360.300781 Z M 335.3125 360.300781 " clip-rule="nonzero"/></clipPath><clipPath id="12e93e0761"><path d="M 342.917969 416.3125 L 382.53125 416.3125 L 382.53125 433.671875 L 342.917969 433.671875 Z M 342.917969 416.3125 " clip-rule="nonzero"/></clipPath><clipPath id="d487986bdc"><path d="M 337.523438 395.25 L 387.378906 395.25 L 387.378906 419.730469 L 337.523438 419.730469 Z M 337.523438 395.25 " clip-rule="nonzero"/></clipPath><clipPath id="35e3ff0907"><path d="M 369.015625 399.917969 L 378.597656 399.917969 L 378.597656 407.886719 L 369.015625 407.886719 Z M 369.015625 399.917969 " clip-rule="nonzero"/></clipPath><clipPath id="aec431d181"><path d="M 371.378906 400.003906 C 374.675781 401.472656 376.007812 402.375 376.828125 403.140625 C 377.488281 403.753906 378.125 404.539062 378.378906 405.015625 C 378.507812 405.257812 378.542969 405.417969 378.566406 405.628906 C 378.589844 405.835938 378.578125 406.054688 378.53125 406.265625 C 378.484375 406.472656 378.414062 406.679688 378.3125 406.867188 C 378.207031 407.050781 378.066406 407.210938 377.90625 407.351562 C 377.746094 407.492188 377.558594 407.605469 377.363281 407.6875 C 377.164062 407.769531 376.945312 407.824219 376.738281 407.835938 C 376.527344 407.847656 376.308594 407.835938 376.101562 407.78125 C 375.902344 407.722656 375.695312 407.640625 375.523438 407.523438 C 375.347656 407.410156 375.175781 407.246094 375.046875 407.085938 C 374.921875 406.921875 374.816406 406.726562 374.746094 406.53125 C 374.675781 406.332031 374.632812 406.113281 374.632812 405.90625 C 374.632812 405.695312 374.652344 405.464844 374.722656 405.269531 C 374.792969 405.070312 374.886719 404.863281 375.011719 404.703125 C 375.140625 404.527344 375.300781 404.378906 375.476562 404.261719 C 375.648438 404.144531 375.847656 404.042969 376.042969 403.984375 C 376.238281 403.925781 376.472656 403.890625 376.679688 403.902344 C 376.886719 403.914062 377.109375 403.960938 377.304688 404.03125 C 377.5 404.109375 377.699219 404.214844 377.859375 404.355469 C 378.023438 404.480469 378.171875 404.65625 378.277344 404.828125 C 378.390625 405.003906 378.472656 405.210938 378.519531 405.417969 C 378.566406 405.628906 378.589844 405.847656 378.566406 406.054688 C 378.542969 406.265625 378.484375 406.484375 378.402344 406.667969 C 378.324219 406.867188 378.195312 407.050781 378.058594 407.199219 C 377.917969 407.351562 377.746094 407.492188 377.558594 407.59375 C 377.375 407.699219 377.164062 407.78125 376.957031 407.816406 C 376.75 407.847656 376.527344 407.859375 376.320312 407.824219 C 376.113281 407.792969 375.890625 407.722656 375.707031 407.628906 C 375.523438 407.535156 375.382812 407.433594 375.199219 407.246094 C 374.898438 406.945312 374.621094 406.390625 374.132812 405.929688 C 373.402344 405.234375 371.820312 404.109375 371.03125 403.707031 C 370.605469 403.484375 370.234375 403.472656 369.980469 403.335938 C 369.816406 403.253906 369.722656 403.171875 369.621094 403.070312 C 369.515625 402.964844 369.421875 402.882812 369.34375 402.734375 C 369.226562 402.527344 369.085938 402.191406 369.0625 401.914062 C 369.042969 401.632812 369.121094 401.265625 369.203125 401.042969 C 369.261719 400.882812 369.320312 400.789062 369.421875 400.664062 C 369.574219 400.476562 369.886719 400.234375 370.09375 400.117188 C 370.246094 400.039062 370.347656 399.992188 370.511719 399.96875 C 370.742188 399.933594 371.378906 400.003906 371.378906 400.003906 " clip-rule="nonzero"/></clipPath><clipPath id="7915c659b6"><path d="M 378.171875 410.171875 L 381.703125 410.171875 L 381.703125 413.8125 L 378.171875 413.8125 Z M 378.171875 410.171875 " clip-rule="nonzero"/></clipPath><clipPath id="7a2f09a8a0"><path d="M 381.703125 411.472656 C 381.703125 412.59375 381.574219 412.882812 381.402344 413.101562 C 381.226562 413.324219 380.984375 413.519531 380.730469 413.636719 C 380.476562 413.75 380.164062 413.796875 379.886719 413.785156 C 379.609375 413.773438 379.304688 413.671875 379.0625 413.53125 C 378.820312 413.394531 378.589844 413.160156 378.449219 412.929688 C 378.300781 412.6875 378.207031 412.386719 378.195312 412.109375 C 378.183594 411.832031 378.242188 411.519531 378.359375 411.261719 C 378.472656 411.007812 378.660156 410.765625 378.878906 410.59375 C 379.097656 410.417969 379.386719 410.28125 379.664062 410.234375 C 379.941406 410.1875 380.253906 410.210938 380.523438 410.289062 C 380.789062 410.371094 381.261719 410.730469 381.261719 410.730469 " clip-rule="nonzero"/></clipPath><clipPath id="9b6c9f0315"><path d="M 360 272.335938 L 379 272.335938 L 379 292.8125 L 360 292.8125 Z M 360 272.335938 " clip-rule="nonzero"/></clipPath><clipPath id="28d51cce7e"><path d="M 346 277 L 360 277 L 360 292.8125 L 346 292.8125 Z M 346 277 " clip-rule="nonzero"/></clipPath><clipPath id="5a5f558cc5"><path d="M 207 417 L 245 417 L 245 450 L 207 450 Z M 207 417 " clip-rule="nonzero"/></clipPath><clipPath id="55a5af358a"><path d="M 215.699219 411.753906 L 250.082031 428.203125 L 236.882812 455.792969 L 202.5 439.347656 Z M 215.699219 411.753906 " clip-rule="nonzero"/></clipPath><clipPath id="e7c8d63502"><path d="M 232.855469 419.960938 C 223.378906 415.429688 212.742188 417.929688 209.097656 425.550781 C 205.453125 433.167969 210.179688 443.019531 219.65625 447.554688 C 229.132812 452.089844 239.769531 449.585938 243.417969 441.96875 C 247.0625 434.347656 242.332031 424.496094 232.855469 419.960938 Z M 232.855469 419.960938 " clip-rule="nonzero"/></clipPath><clipPath id="b217f837a0"><path d="M 466 471 L 500 471 L 500 550 L 466 550 Z M 466 471 " clip-rule="nonzero"/></clipPath><clipPath id="747a759cbe"><path d="M 477.222656 471.683594 L 499.976562 474.882812 L 489.449219 549.8125 L 466.691406 546.617188 Z M 477.222656 471.683594 " clip-rule="nonzero"/></clipPath><clipPath id="8dff77b43a"><path d="M 477.222656 471.683594 L 499.976562 474.882812 L 489.457031 549.75 L 466.703125 546.550781 Z M 477.222656 471.683594 " clip-rule="nonzero"/></clipPath><clipPath id="4e804a7e54"><path d="M 446 534 L 482 534 L 482 569 L 446 569 Z M 446 534 " clip-rule="nonzero"/></clipPath><clipPath id="cfdc79e423"><path d="M 458.042969 527.378906 L 488.503906 546.542969 L 470.335938 575.421875 L 439.875 556.261719 Z M 458.042969 527.378906 " clip-rule="nonzero"/></clipPath><clipPath id="35b0b392da"><path d="M 473.261719 536.953125 C 464.859375 531.667969 453.976562 533.847656 448.960938 541.820312 C 443.945312 549.796875 446.691406 560.546875 455.09375 565.835938 C 463.5 571.121094 474.378906 568.945312 479.398438 560.96875 C 484.414062 552.992188 481.667969 542.242188 473.261719 536.953125 Z M 473.261719 536.953125 " clip-rule="nonzero"/></clipPath><clipPath id="ce900f8cdb"><path d="M 472 536 L 511 536 L 511 573 L 472 573 Z M 472 536 " clip-rule="nonzero"/></clipPath><clipPath id="83e0919472"><path d="M 483.621094 529.421875 L 517.242188 550.570312 L 499.074219 579.453125 L 465.453125 558.304688 Z M 483.621094 529.421875 " clip-rule="nonzero"/></clipPath><clipPath id="ffe6de9b93"><path d="M 500.390625 539.972656 C 491.128906 534.144531 479.554688 535.886719 474.539062 543.863281 C 469.523438 551.835938 472.960938 563.027344 482.222656 568.851562 C 491.484375 574.679688 503.058594 572.9375 508.078125 564.960938 C 513.09375 556.984375 509.652344 545.796875 500.390625 539.972656 Z M 500.390625 539.972656 " clip-rule="nonzero"/></clipPath><clipPath id="c304146ae5"><path d="M 454 528 L 475 528 L 475 544 L 454 544 Z M 454 528 " clip-rule="nonzero"/></clipPath><clipPath id="26935cdc62"><path d="M 454.042969 536.699219 L 470.984375 528.363281 L 474.332031 535.171875 L 457.394531 543.507812 Z M 454.042969 536.699219 " clip-rule="nonzero"/></clipPath><clipPath id="9a08200cfd"><path d="M 454.042969 536.699219 L 470.972656 528.367188 L 474.324219 535.175781 L 457.394531 543.507812 Z M 454.042969 536.699219 " clip-rule="nonzero"/></clipPath><clipPath id="c2af9b7dbd"><path d="M 486 530 L 505 530 L 505 550 L 486 550 Z M 486 530 " clip-rule="nonzero"/></clipPath><clipPath id="e968b15e98"><path d="M 492.21875 530.09375 L 504.910156 544.070312 L 499.292969 549.171875 L 486.601562 535.191406 Z M 492.21875 530.09375 " clip-rule="nonzero"/></clipPath><clipPath id="3939598746"><path d="M 492.21875 530.09375 L 504.902344 544.0625 L 499.285156 549.164062 L 486.601562 535.191406 Z M 492.21875 530.09375 " clip-rule="nonzero"/></clipPath><clipPath id="6c88d3320a"><path d="M 423.429688 233.273438 L 600.355469 233.273438 L 600.355469 410.199219 L 423.429688 410.199219 Z M 423.429688 233.273438 " clip-rule="nonzero"/></clipPath><clipPath id="dfc193f8d3"><path d="M 511.894531 233.273438 C 463.039062 233.273438 423.429688 272.878906 423.429688 321.734375 C 423.429688 370.59375 463.039062 410.199219 511.894531 410.199219 C 560.75 410.199219 600.355469 370.59375 600.355469 321.734375 C 600.355469 272.878906 560.75 233.273438 511.894531 233.273438 Z M 511.894531 233.273438 " clip-rule="nonzero"/></clipPath><clipPath id="edab999870"><path d="M 422 263 L 530 263 L 530 439 L 422 439 Z M 422 263 " clip-rule="nonzero"/></clipPath><clipPath id="b884d4c0d4"><path d="M 408.105469 273.878906 L 509.695312 254.253906 L 543.277344 428.070312 L 441.6875 447.695312 Z M 408.105469 273.878906 " clip-rule="nonzero"/></clipPath><clipPath id="8007c0df22"><path d="M 458.902344 264.066406 C 430.847656 269.488281 415.617188 312.765625 424.886719 360.734375 C 434.152344 408.703125 464.410156 443.199219 492.460938 437.777344 C 520.515625 432.355469 535.746094 389.078125 526.476562 341.109375 C 517.210938 293.140625 486.953125 258.644531 458.902344 264.066406 Z M 458.902344 264.066406 " clip-rule="nonzero"/></clipPath><clipPath id="f3ebd356d4"><path d="M 469 282 L 599 282 L 599 442 L 469 442 Z M 469 282 " clip-rule="nonzero"/></clipPath><clipPath id="ee055768b7"><path d="M 537.09375 259.75 L 624.675781 314.84375 L 530.410156 464.691406 L 442.828125 409.597656 Z M 537.09375 259.75 " clip-rule="nonzero"/></clipPath><clipPath id="4bab8bca60"><path d="M 580.886719 287.296875 C 556.699219 272.082031 516.003906 293.273438 489.992188 334.628906 C 463.976562 375.980469 462.492188 421.839844 486.679688 437.054688 C 510.863281 452.265625 551.558594 431.078125 577.570312 389.722656 C 603.585938 348.367188 605.070312 302.511719 580.886719 287.296875 Z M 580.886719 287.296875 " clip-rule="nonzero"/></clipPath><clipPath id="e7514821df"><path d="M 454 468 L 480 468 L 480 494 L 454 494 Z M 454 468 " clip-rule="nonzero"/></clipPath><clipPath id="798e3d07d6"><path d="M 462.503906 463.871094 L 483.902344 477.328125 L 470.949219 497.921875 L 449.550781 484.460938 Z M 462.503906 463.871094 " clip-rule="nonzero"/></clipPath><clipPath id="48428d031f"><path d="M 473.175781 470.582031 C 467.28125 466.875 459.605469 468.480469 456.027344 474.164062 C 452.449219 479.851562 454.328125 487.46875 460.222656 491.175781 C 466.117188 494.882812 473.792969 493.277344 477.371094 487.59375 C 480.949219 481.90625 479.070312 474.289062 473.175781 470.582031 Z M 473.175781 470.582031 " clip-rule="nonzero"/></clipPath><clipPath id="e945e578c8"><path d="M 505 470 L 524 470 L 524 489 L 505 489 Z M 505 470 " clip-rule="nonzero"/></clipPath><clipPath id="cb4ba0b5c3"><path d="M 511.921875 467.15625 L 527.394531 476.890625 L 517.917969 491.953125 L 502.445312 482.21875 Z M 511.921875 467.15625 " clip-rule="nonzero"/></clipPath><clipPath id="9038269b66"><path d="M 519.632812 472.007812 C 515.375 469.328125 509.800781 470.527344 507.183594 474.6875 C 504.566406 478.847656 505.898438 484.390625 510.160156 487.070312 C 514.417969 489.75 519.992188 488.550781 522.609375 484.390625 C 525.226562 480.230469 523.894531 474.6875 519.632812 472.007812 Z M 519.632812 472.007812 " clip-rule="nonzero"/></clipPath><clipPath id="ec989faf05"><path d="M 526 397 L 570 397 L 570 442 L 526 442 Z M 526 397 " clip-rule="nonzero"/></clipPath><clipPath id="67ea1083f3"><path d="M 565.839844 394.476562 L 573.289062 401.921875 L 530.378906 444.828125 L 522.933594 437.382812 Z M 565.839844 394.476562 " clip-rule="nonzero"/></clipPath><clipPath id="3a2ca7b05f"><path d="M 569.5625 398.199219 C 567.507812 396.144531 556.238281 404.078125 544.390625 415.925781 C 532.546875 427.769531 524.609375 439.039062 526.667969 441.09375 C 528.722656 443.152344 539.992188 435.214844 551.839844 423.371094 C 563.683594 411.523438 571.621094 400.253906 569.5625 398.199219 Z M 569.5625 398.199219 " clip-rule="nonzero"/></clipPath><clipPath id="850e3a6cd1"><path d="M 428 281 L 536 281 L 536 457 L 428 457 Z M 428 281 " clip-rule="nonzero"/></clipPath><clipPath id="7ec75b4645"><path d="M 414.304688 291.769531 L 515.894531 272.144531 L 549.480469 445.957031 L 447.886719 465.585938 Z M 414.304688 291.769531 " clip-rule="nonzero"/></clipPath><clipPath id="579a8a4414"><path d="M 465.101562 281.957031 C 437.046875 287.378906 421.816406 330.65625 431.085938 378.625 C 440.355469 426.59375 470.609375 461.085938 498.664062 455.667969 C 526.714844 450.246094 541.945312 406.96875 532.675781 359 C 523.410156 311.03125 493.152344 276.535156 465.101562 281.957031 Z M 465.101562 281.957031 " clip-rule="nonzero"/></clipPath><clipPath id="232893099d"><path d="M 440 350 L 507 350 L 507 451 L 440 451 Z M 440 350 " clip-rule="nonzero"/></clipPath><clipPath id="cf0124f4e4"><path d="M 431.402344 357.792969 L 493.921875 344.480469 L 514.929688 443.144531 L 452.410156 456.460938 Z M 431.402344 357.792969 " clip-rule="nonzero"/></clipPath><clipPath id="aa644dff93"><path d="M 462.660156 351.136719 C 445.398438 354.8125 436.097656 379.84375 441.890625 407.046875 C 447.679688 434.25 466.371094 453.320312 483.636719 449.644531 C 500.902344 445.96875 510.203125 420.9375 504.410156 393.734375 C 498.617188 366.53125 479.925781 347.460938 462.660156 351.136719 Z M 462.660156 351.136719 " clip-rule="nonzero"/></clipPath><clipPath id="f803c0e457"><path d="M 449 421 L 472 421 L 472 479 L 449 479 Z M 449 421 " clip-rule="nonzero"/></clipPath><clipPath id="7a8f91fa2d"><path d="M 467.003906 420.054688 L 474.304688 477.835938 L 456.375 480.101562 L 449.074219 422.320312 Z M 467.003906 420.054688 " clip-rule="nonzero"/></clipPath><clipPath id="28e01b9724"><path d="M 467.003906 420.054688 L 474.304688 477.835938 L 456.375 480.101562 L 449.074219 422.320312 Z M 467.003906 420.054688 " clip-rule="nonzero"/></clipPath><clipPath id="5a4cf8f540"><path d="M 468 476 L 484 476 L 484 532 L 468 532 Z M 468 476 " clip-rule="nonzero"/></clipPath><clipPath id="b032713bd8"><path d="M 476.542969 476.648438 L 484 477.695312 L 476.425781 531.582031 L 468.96875 530.535156 Z M 476.542969 476.648438 " clip-rule="nonzero"/></clipPath><clipPath id="6018b53348"><path d="M 476.542969 476.648438 L 484 477.695312 L 476.429688 531.574219 L 468.972656 530.527344 Z M 476.542969 476.648438 " clip-rule="nonzero"/></clipPath><clipPath id="5bdb72dcf8"><path d="M 484 476.648438 L 511.445312 476.648438 L 511.445312 485.347656 L 484 485.347656 Z M 484 476.648438 " clip-rule="nonzero"/></clipPath><clipPath id="be15a71c89"><path d="M 464 467 L 495 467 L 495 493 L 464 493 Z M 464 467 " clip-rule="nonzero"/></clipPath><clipPath id="d2069d6242"><path d="M 488.101562 467 L 494.582031 482.03125 L 471.214844 492.101562 L 464.734375 477.070312 Z M 488.101562 467 " clip-rule="nonzero"/></clipPath><clipPath id="c4991d6bc6"><path d="M 488.101562 467 L 494.582031 482.03125 L 471.261719 492.082031 L 464.785156 477.050781 Z M 488.101562 467 " clip-rule="nonzero"/></clipPath><clipPath id="01305b128e"><path d="M 511 426 L 542 426 L 542 482 L 511 482 Z M 511 426 " clip-rule="nonzero"/></clipPath><clipPath id="4a8794cef2"><path d="M 504.910156 478.457031 L 526.242188 424.261719 L 543.058594 430.882812 L 521.726562 485.074219 Z M 504.910156 478.457031 " clip-rule="nonzero"/></clipPath><clipPath id="d4b8eb9518"><path d="M 504.910156 478.457031 L 526.242188 424.261719 L 543.058594 430.882812 L 521.726562 485.074219 Z M 504.910156 478.457031 " clip-rule="nonzero"/></clipPath><clipPath id="84370056a7"><path d="M 518 408 L 562 408 L 562 452 L 518 452 Z M 518 408 " clip-rule="nonzero"/></clipPath><clipPath id="ff36d4be10"><path d="M 557.789062 404.96875 L 565.238281 412.417969 L 522.328125 455.324219 L 514.882812 447.878906 Z M 557.789062 404.96875 " clip-rule="nonzero"/></clipPath><clipPath id="aff8e9e199"><path d="M 561.511719 408.695312 C 559.457031 406.636719 548.1875 414.574219 536.339844 426.417969 C 524.496094 438.265625 516.558594 449.535156 518.617188 451.589844 C 520.671875 453.648438 531.941406 445.710938 543.789062 433.867188 C 555.632812 422.019531 563.570312 410.75 561.511719 408.695312 Z M 561.511719 408.695312 " clip-rule="nonzero"/></clipPath><clipPath id="54ed7ef093"><path d="M 464 433 L 523 433 L 523 482 L 464 482 Z M 464 433 " clip-rule="nonzero"/></clipPath><clipPath id="7beceab626"><path d="M 460.167969 439.878906 L 517.183594 427.738281 L 527.273438 475.128906 L 470.257812 487.269531 Z M 460.167969 439.878906 " clip-rule="nonzero"/></clipPath><clipPath id="e7c6b8f1ed"><path d="M 488.667969 433.808594 C 472.925781 437.160156 462.425781 450.488281 465.214844 463.574219 C 468 476.660156 483.019531 484.550781 498.757812 481.199219 C 514.496094 477.847656 524.996094 464.523438 522.210938 451.4375 C 519.421875 438.351562 504.40625 430.457031 488.667969 433.808594 Z M 488.667969 433.808594 " clip-rule="nonzero"/></clipPath><clipPath id="0515c23cc1"><path d="M 469 410 L 528 410 L 528 460 L 469 460 Z M 469 410 " clip-rule="nonzero"/></clipPath><clipPath id="bcfd3f0110"><path d="M 464.789062 417.105469 L 521.804688 404.964844 L 531.894531 452.355469 L 474.878906 464.496094 Z M 464.789062 417.105469 " clip-rule="nonzero"/></clipPath><clipPath id="45b8123f0b"><path d="M 493.285156 411.035156 C 477.546875 414.386719 467.046875 427.714844 469.835938 440.800781 C 472.621094 453.886719 487.640625 461.777344 503.378906 458.425781 C 519.117188 455.074219 529.617188 441.75 526.832031 428.664062 C 524.042969 415.578125 509.027344 407.683594 493.285156 411.035156 Z M 493.285156 411.035156 " clip-rule="nonzero"/></clipPath><clipPath id="3445a33143"><path d="M 450 233 L 590 233 L 590 432 L 450 432 Z M 450 233 " clip-rule="nonzero"/></clipPath><clipPath id="ae946f38e4"><path d="M 445.839844 237.382812 L 584.191406 230.601562 L 593.855469 427.859375 L 455.503906 434.640625 Z M 445.839844 237.382812 " clip-rule="nonzero"/></clipPath><clipPath id="0d47606312"><path d="M 515.015625 233.992188 C 476.808594 235.863281 448 281.488281 450.667969 335.898438 C 453.332031 390.304688 486.464844 432.894531 524.671875 431.023438 C 562.875 429.148438 591.683594 383.527344 589.019531 329.117188 C 586.351562 274.707031 553.21875 232.117188 515.015625 233.992188 Z M 515.015625 233.992188 " clip-rule="nonzero"/></clipPath><clipPath id="1929e18de2"><path d="M 451 235 L 602 235 L 602 415 L 451 415 Z M 451 235 " clip-rule="nonzero"/></clipPath><clipPath id="320f317f41"><path d="M 447.527344 238.84375 L 596.851562 231.523438 L 605.65625 411.179688 L 456.332031 418.496094 Z M 447.527344 238.84375 " clip-rule="nonzero"/></clipPath><clipPath id="a3c2295c58"><path d="M 522.1875 235.183594 C 480.953125 237.203125 449.496094 279.015625 451.925781 328.574219 C 454.351562 378.132812 489.75 416.667969 530.984375 414.648438 C 572.21875 412.625 603.675781 370.8125 601.246094 321.257812 C 598.820312 271.699219 563.421875 233.164062 522.1875 235.183594 Z M 522.1875 235.183594 " clip-rule="nonzero"/></clipPath><clipPath id="6eea1a32fd"><path d="M 564 272 L 583 272 L 583 297 L 564 297 Z M 564 272 " clip-rule="nonzero"/></clipPath><clipPath id="4073bac5e8"><path d="M 560.617188 292.714844 L 565.136719 272.457031 L 586.042969 277.121094 L 581.527344 297.375 Z M 560.617188 292.714844 " clip-rule="nonzero"/></clipPath><clipPath id="274546de60"><path d="M 560.617188 292.714844 L 565.136719 272.457031 L 586.042969 277.121094 L 581.527344 297.375 Z M 560.617188 292.714844 " clip-rule="nonzero"/></clipPath><clipPath id="62b3c799f2"><path d="M 549.457031 259.746094 L 557.015625 259.746094 L 557.015625 267.304688 L 549.457031 267.304688 Z M 549.457031 259.746094 " clip-rule="nonzero"/></clipPath><clipPath id="9ecf3ed25a"><path d="M 553.238281 259.746094 C 551.148438 259.746094 549.457031 261.4375 549.457031 263.527344 C 549.457031 265.613281 551.148438 267.304688 553.238281 267.304688 C 555.324219 267.304688 557.015625 265.613281 557.015625 263.527344 C 557.015625 261.4375 555.324219 259.746094 553.238281 259.746094 Z M 553.238281 259.746094 " clip-rule="nonzero"/></clipPath><clipPath id="147955055a"><path d="M 448 406 L 498 406 L 498 473 L 448 473 Z M 448 406 " clip-rule="nonzero"/></clipPath><clipPath id="7c27097dc0"><path d="M 469.820312 400.660156 L 503.148438 463 L 476.007812 477.511719 L 442.679688 415.167969 Z M 469.820312 400.660156 " clip-rule="nonzero"/></clipPath><clipPath id="1af574f2e4"><path d="M 477.078125 414.230469 L 495.875 449.394531 C 497.796875 452.992188 498.214844 457.210938 497.027344 461.113281 C 495.84375 465.019531 493.15625 468.296875 489.558594 470.21875 C 485.957031 472.144531 481.742188 472.558594 477.835938 471.375 C 473.929688 470.191406 470.65625 467.503906 468.730469 463.902344 L 449.933594 428.742188 C 448.011719 425.140625 447.59375 420.925781 448.78125 417.019531 C 449.964844 413.113281 452.652344 409.839844 456.25 407.914062 C 459.851562 405.992188 464.066406 405.574219 467.972656 406.761719 C 471.878906 407.945312 475.152344 410.632812 477.078125 414.230469 Z M 477.078125 414.230469 " clip-rule="nonzero"/></clipPath><clipPath id="258bbe6913"><path d="M 452 414 L 498 414 L 498 483 L 452 483 Z M 452 414 " clip-rule="nonzero"/></clipPath><clipPath id="6986acc6f2"><path d="M 476.382812 409.585938 L 501.765625 475.5625 L 473.042969 486.613281 L 447.660156 420.636719 Z M 476.382812 409.585938 " clip-rule="nonzero"/></clipPath><clipPath id="43ae465d01"><path d="M 481.910156 423.945312 L 496.226562 461.160156 C 497.691406 464.96875 497.585938 469.203125 495.925781 472.933594 C 494.269531 476.664062 491.199219 479.582031 487.390625 481.046875 C 483.582031 482.511719 479.347656 482.40625 475.617188 480.75 C 471.886719 479.089844 468.96875 476.019531 467.503906 472.210938 L 453.1875 435 C 451.71875 431.191406 451.828125 426.953125 453.484375 423.226562 C 455.140625 419.496094 458.214844 416.578125 462.023438 415.109375 C 465.832031 413.644531 470.066406 413.753906 473.796875 415.410156 C 477.527344 417.066406 480.445312 420.136719 481.910156 423.945312 Z M 481.910156 423.945312 " clip-rule="nonzero"/></clipPath><clipPath id="c36deb1b01"><path d="M 454 416 L 494 416 L 494 486 L 454 486 Z M 454 416 " clip-rule="nonzero"/></clipPath><clipPath id="360bb487e3"><path d="M 482.066406 413.375 L 496.175781 482.640625 L 466.015625 488.785156 L 451.90625 419.515625 Z M 482.066406 413.375 " clip-rule="nonzero"/></clipPath><clipPath id="5ca06804ab"><path d="M 485.136719 428.453125 L 493.09375 467.523438 C 493.910156 471.519531 493.101562 475.679688 490.851562 479.082031 C 488.597656 482.488281 485.085938 484.855469 481.085938 485.671875 C 477.089844 486.488281 472.929688 485.679688 469.527344 483.425781 C 466.121094 481.175781 463.75 477.664062 462.9375 473.664062 L 454.980469 434.59375 C 454.164062 430.597656 454.972656 426.4375 457.222656 423.03125 C 459.476562 419.628906 462.988281 417.257812 466.984375 416.445312 C 470.984375 415.628906 475.144531 416.4375 478.546875 418.6875 C 481.953125 420.941406 484.320312 424.453125 485.136719 428.453125 Z M 485.136719 428.453125 " clip-rule="nonzero"/></clipPath><clipPath id="5d91ff1a2f"><path d="M 419 310 L 599 310 L 599 365 L 419 365 Z M 419 310 " clip-rule="nonzero"/></clipPath><clipPath id="a36233e6f5"><path d="M 429.011719 264.714844 L 613.761719 314.148438 L 599.996094 365.589844 L 415.246094 316.15625 Z M 429.011719 264.714844 " clip-rule="nonzero"/></clipPath><clipPath id="f481200103"><path d="M 429.011719 264.714844 L 613.761719 314.148438 L 599.996094 365.589844 L 415.246094 316.15625 Z M 429.011719 264.714844 " clip-rule="nonzero"/></clipPath><clipPath id="e34942ccc4"><path d="M 430 266 L 610 266 L 610 320 L 430 320 Z M 430 266 " clip-rule="nonzero"/></clipPath><clipPath id="6e23c27588"><path d="M 429.011719 264.714844 L 613.761719 314.148438 L 599.996094 365.589844 L 415.246094 316.15625 Z M 429.011719 264.714844 " clip-rule="nonzero"/></clipPath><clipPath id="abdd3de63a"><path d="M 429.011719 264.714844 L 613.761719 314.148438 L 599.996094 365.589844 L 415.246094 316.15625 Z M 429.011719 264.714844 " clip-rule="nonzero"/></clipPath><clipPath id="24445234c9"><path d="M 419 274 L 610 274 L 610 357 L 419 357 Z M 419 274 " clip-rule="nonzero"/></clipPath><clipPath id="d66e3719ba"><path d="M 429.011719 264.714844 L 613.761719 314.148438 L 599.996094 365.589844 L 415.246094 316.15625 Z M 429.011719 264.714844 " clip-rule="nonzero"/></clipPath><clipPath id="16fc824ed1"><path d="M 429.011719 264.714844 L 613.761719 314.148438 L 599.996094 365.589844 L 415.246094 316.15625 Z M 429.011719 264.714844 " clip-rule="nonzero"/></clipPath></defs><g clip-path="url(#aba4e9a341)"><g clip-path="url(#dc22dc7c33)"><path fill="#f8c038" d="M 248.671875 305.546875 L 475.949219 305.546875 L 475.949219 523.460938 L 248.671875 523.460938 Z M 248.671875 305.546875 " fill-opacity="1" fill-rule="nonzero"/></g></g><g clip-path="url(#6e5d7cf033)"><g clip-path="url(#5166cacedb)"><g clip-path="url(#f91beafe62)"><path fill="#f8c038" d="M 476.375 411.636719 L 510.660156 395.269531 L 523.839844 422.871094 L 489.550781 439.242188 Z M 476.375 411.636719 " fill-opacity="1" fill-rule="nonzero"/></g></g></g><g clip-path="url(#87d3136b9d)"><g clip-path="url(#1e71b53a79)"><g clip-path="url(#01c6bc69fb)"><path fill="#f09020" d="M 450.585938 540.65625 L 409.410156 573.394531 L 387.527344 545.871094 L 428.707031 513.132812 Z M 450.585938 540.65625 " fill-opacity="1" fill-rule="nonzero"/></g></g></g><g clip-path="url(#223dffe602)"><g clip-path="url(#9e0022a87f)"><g clip-path="url(#a528e07e91)"><path fill="#f09020" d="M 460.640625 551.460938 L 408.632812 559.375 L 403.34375 524.613281 L 455.347656 516.699219 Z M 460.640625 551.460938 " fill-opacity="1" fill-rule="nonzero"/></g></g></g><g clip-path="url(#f19c361bbf)"><g clip-path="url(#a6994711f3)"><g clip-path="url(#d3be8aaec0)"><path fill="#f09020" d="M 333.101562 557.421875 L 280.5 558.121094 L 280.035156 522.960938 L 332.632812 522.261719 Z M 333.101562 557.421875 " fill-opacity="1" fill-rule="nonzero"/></g></g></g><g clip-path="url(#c4b437ddd2)"><g clip-path="url(#f3da7eeb28)"><g clip-path="url(#b15ccfdb73)"><path fill="#f09020" d="M 334.445312 572.117188 L 288.464844 546.558594 L 305.546875 515.824219 L 351.527344 541.382812 Z M 334.445312 572.117188 " fill-opacity="1" fill-rule="nonzero"/></g></g></g><g clip-path="url(#efd9ec1eab)"><g clip-path="url(#ff1a5a8dd4)"><path fill="#fddc66" d="M 286.378906 380.945312 L 442.058594 380.945312 L 442.058594 513.792969 L 286.378906 513.792969 Z M 286.378906 380.945312 " fill-opacity="1" fill-rule="nonzero"/></g></g><g clip-path="url(#3cf10445d9)"><g clip-path="url(#9ea28f0746)"><path fill="#ffffff" d="M 304.488281 347.390625 L 356.847656 347.390625 L 356.847656 414.476562 L 304.488281 414.476562 Z M 304.488281 347.390625 " fill-opacity="1" fill-rule="nonzero"/></g></g><g clip-path="url(#b3fd4118bb)"><g clip-path="url(#fc03685eb9)"><path fill="#ffffff" d="M 368.195312 347.390625 L 420.554688 347.390625 L 420.554688 414.476562 L 368.195312 414.476562 Z M 368.195312 347.390625 " fill-opacity="1" fill-rule="nonzero"/></g></g><g clip-path="url(#b5ad341117)"><g clip-path="url(#280021405d)"><path fill="#4b4b4b" d="M 379.40625 361.039062 L 409.34375 361.039062 L 409.34375 402.320312 L 379.40625 402.320312 Z M 379.40625 361.039062 " fill-opacity="1" fill-rule="nonzero"/></g></g><g clip-path="url(#dcceb76524)"><g clip-path="url(#72970d73b5)"><path fill="#ffffff" d="M 392.003906 361.039062 L 405.328125 361.039062 L 405.328125 376.289062 L 392.003906 376.289062 Z M 392.003906 361.039062 " fill-opacity="1" fill-rule="nonzero"/></g></g><g clip-path="url(#1acb6c5cd3)"><g clip-path="url(#e3925feb3f)"><path fill="#4b4b4b" d="M 314.742188 360.300781 L 344.679688 360.300781 L 344.679688 401.582031 L 314.742188 401.582031 Z M 314.742188 360.300781 " fill-opacity="1" fill-rule="nonzero"/></g></g><g clip-path="url(#85209dd4d9)"><g clip-path="url(#1a03732730)"><path fill="#ffffff" d="M 328.648438 360.300781 L 341.972656 360.300781 L 341.972656 375.550781 L 328.648438 375.550781 Z M 328.648438 360.300781 " fill-opacity="1" fill-rule="nonzero"/></g></g><g clip-path="url(#12e93e0761)"><path fill="#f86018" d="M 382.359375 414.035156 C 382.359375 414.679688 382.328125 415.324219 382.265625 415.96875 C 382.199219 416.609375 382.105469 417.246094 381.980469 417.882812 C 381.855469 418.515625 381.699219 419.140625 381.511719 419.757812 C 381.324219 420.375 381.105469 420.984375 380.859375 421.582031 C 380.609375 422.175781 380.335938 422.761719 380.03125 423.332031 C 379.726562 423.898438 379.394531 424.453125 379.035156 424.992188 C 378.675781 425.527344 378.292969 426.046875 377.882812 426.546875 C 377.472656 427.042969 377.039062 427.523438 376.582031 427.980469 C 376.125 428.4375 375.648438 428.867188 375.148438 429.277344 C 374.648438 429.6875 374.132812 430.074219 373.59375 430.433594 C 373.058594 430.789062 372.503906 431.121094 371.933594 431.425781 C 371.363281 431.730469 370.78125 432.007812 370.183594 432.253906 C 369.589844 432.5 368.980469 432.71875 368.363281 432.90625 C 367.746094 433.09375 367.117188 433.25 366.484375 433.375 C 365.851562 433.503906 365.214844 433.597656 364.570312 433.660156 C 363.929688 433.722656 363.285156 433.753906 362.636719 433.753906 C 361.992188 433.753906 361.347656 433.722656 360.703125 433.660156 C 360.0625 433.597656 359.421875 433.503906 358.789062 433.375 C 358.15625 433.25 357.53125 433.09375 356.914062 432.90625 C 356.292969 432.71875 355.6875 432.5 355.089844 432.253906 C 354.492188 432.007812 353.910156 431.730469 353.339844 431.425781 C 352.769531 431.121094 352.21875 430.789062 351.679688 430.433594 C 351.144531 430.074219 350.625 429.6875 350.125 429.277344 C 349.628906 428.867188 349.148438 428.4375 348.691406 427.980469 C 348.234375 427.523438 347.800781 427.042969 347.394531 426.546875 C 346.984375 426.046875 346.597656 425.527344 346.238281 424.992188 C 345.882812 424.453125 345.550781 423.898438 345.246094 423.332031 C 344.941406 422.761719 344.664062 422.175781 344.417969 421.582031 C 344.171875 420.984375 343.953125 420.375 343.765625 419.757812 C 343.578125 419.140625 343.421875 418.515625 343.296875 417.882812 C 343.167969 417.246094 343.074219 416.609375 343.011719 415.96875 C 342.949219 415.324219 342.917969 414.679688 342.917969 414.035156 C 342.917969 413.386719 342.949219 412.742188 343.011719 412.101562 C 343.074219 411.457031 343.167969 410.820312 343.296875 410.1875 C 343.421875 409.554688 343.578125 408.925781 343.765625 408.308594 C 343.953125 407.691406 344.171875 407.082031 344.417969 406.488281 C 344.664062 405.890625 344.941406 405.308594 345.246094 404.738281 C 345.550781 404.167969 345.882812 403.613281 346.238281 403.078125 C 346.597656 402.539062 346.984375 402.023438 347.394531 401.523438 C 347.800781 401.023438 348.234375 400.546875 348.691406 400.089844 C 349.148438 399.632812 349.628906 399.199219 350.125 398.789062 C 350.625 398.378906 351.144531 397.996094 351.679688 397.636719 C 352.21875 397.277344 352.769531 396.945312 353.339844 396.640625 C 353.910156 396.335938 354.492188 396.0625 355.089844 395.8125 C 355.6875 395.566406 356.292969 395.347656 356.914062 395.160156 C 357.53125 394.972656 358.15625 394.816406 358.789062 394.691406 C 359.421875 394.566406 360.0625 394.46875 360.703125 394.40625 C 361.347656 394.34375 361.992188 394.3125 362.636719 394.3125 C 363.285156 394.3125 363.929688 394.34375 364.570312 394.40625 C 365.214844 394.46875 365.851562 394.566406 366.484375 394.691406 C 367.117188 394.816406 367.746094 394.972656 368.363281 395.160156 C 368.980469 395.347656 369.589844 395.566406 370.183594 395.8125 C 370.78125 396.0625 371.363281 396.335938 371.933594 396.640625 C 372.503906 396.945312 373.058594 397.277344 373.59375 397.636719 C 374.132812 397.996094 374.648438 398.378906 375.148438 398.789062 C 375.648438 399.199219 376.125 399.632812 376.582031 400.089844 C 377.039062 400.546875 377.472656 401.023438 377.882812 401.523438 C 378.292969 402.023438 378.675781 402.539062 379.035156 403.078125 C 379.394531 403.613281 379.726562 404.167969 380.03125 404.738281 C 380.335938 405.308594 380.609375 405.890625 380.859375 406.488281 C 381.105469 407.082031 381.324219 407.691406 381.511719 408.308594 C 381.699219 408.925781 381.855469 409.554688 381.980469 410.1875 C 382.105469 410.820312 382.199219 411.457031 382.265625 412.101562 C 382.328125 412.742188 382.359375 413.386719 382.359375 414.035156 Z M 382.359375 414.035156 " fill-opacity="1" fill-rule="nonzero"/></g><g clip-path="url(#d487986bdc)"><path fill="#f09020" d="M 387.519531 420.246094 C 387.519531 421.066406 387.476562 421.882812 387.398438 422.695312 C 387.316406 423.511719 387.199219 424.320312 387.039062 425.121094 C 386.878906 425.925781 386.679688 426.71875 386.441406 427.503906 C 386.203125 428.285156 385.929688 429.054688 385.613281 429.8125 C 385.300781 430.570312 384.953125 431.308594 384.566406 432.03125 C 384.179688 432.75 383.761719 433.453125 383.304688 434.132812 C 382.851562 434.816406 382.363281 435.472656 381.84375 436.105469 C 381.324219 436.738281 380.773438 437.34375 380.195312 437.921875 C 379.617188 438.5 379.011719 439.050781 378.378906 439.570312 C 377.746094 440.089844 377.089844 440.574219 376.410156 441.03125 C 375.726562 441.484375 375.027344 441.90625 374.304688 442.292969 C 373.582031 442.675781 372.84375 443.027344 372.085938 443.339844 C 371.332031 443.652344 370.5625 443.929688 369.777344 444.167969 C 368.992188 444.40625 368.199219 444.601562 367.398438 444.761719 C 366.59375 444.921875 365.785156 445.042969 364.972656 445.121094 C 364.15625 445.203125 363.339844 445.242188 362.519531 445.242188 C 361.703125 445.242188 360.886719 445.203125 360.070312 445.121094 C 359.257812 445.042969 358.445312 444.921875 357.644531 444.761719 C 356.839844 444.601562 356.046875 444.40625 355.265625 444.167969 C 354.480469 443.929688 353.710938 443.652344 352.953125 443.339844 C 352.199219 443.027344 351.460938 442.675781 350.738281 442.292969 C 350.015625 441.90625 349.3125 441.484375 348.632812 441.03125 C 347.953125 440.574219 347.296875 440.089844 346.664062 439.570312 C 346.03125 439.050781 345.425781 438.5 344.84375 437.921875 C 344.265625 437.34375 343.71875 436.738281 343.199219 436.105469 C 342.679688 435.472656 342.191406 434.816406 341.738281 434.132812 C 341.28125 433.453125 340.859375 432.75 340.476562 432.03125 C 340.089844 431.308594 339.738281 430.570312 339.425781 429.8125 C 339.113281 429.054688 338.835938 428.285156 338.601562 427.503906 C 338.363281 426.71875 338.164062 425.925781 338.003906 425.121094 C 337.84375 424.320312 337.722656 423.511719 337.644531 422.695312 C 337.5625 421.882812 337.523438 421.066406 337.523438 420.246094 C 337.523438 419.425781 337.5625 418.609375 337.644531 417.796875 C 337.722656 416.980469 337.84375 416.171875 338.003906 415.371094 C 338.164062 414.566406 338.363281 413.773438 338.601562 412.988281 C 338.835938 412.207031 339.113281 411.4375 339.425781 410.679688 C 339.738281 409.925781 340.089844 409.183594 340.476562 408.460938 C 340.859375 407.742188 341.28125 407.039062 341.738281 406.359375 C 342.191406 405.679688 342.679688 405.019531 343.199219 404.386719 C 343.71875 403.753906 344.265625 403.148438 344.84375 402.570312 C 345.425781 401.992188 346.03125 401.441406 346.664062 400.921875 C 347.296875 400.402344 347.953125 399.917969 348.632812 399.460938 C 349.3125 399.007812 350.015625 398.585938 350.738281 398.199219 C 351.460938 397.816406 352.199219 397.464844 352.953125 397.152344 C 353.710938 396.839844 354.480469 396.5625 355.265625 396.324219 C 356.046875 396.089844 356.839844 395.890625 357.644531 395.730469 C 358.445312 395.570312 359.257812 395.449219 360.070312 395.371094 C 360.886719 395.289062 361.703125 395.25 362.519531 395.25 C 363.339844 395.25 364.15625 395.289062 364.972656 395.371094 C 365.785156 395.449219 366.59375 395.570312 367.398438 395.730469 C 368.199219 395.890625 368.992188 396.089844 369.777344 396.324219 C 370.5625 396.5625 371.332031 396.839844 372.085938 397.152344 C 372.84375 397.464844 373.582031 397.816406 374.304688 398.199219 C 375.027344 398.585938 375.726562 399.007812 376.410156 399.460938 C 377.089844 399.917969 377.746094 400.402344 378.378906 400.921875 C 379.011719 401.441406 379.617188 401.992188 380.195312 402.570312 C 380.773438 403.148438 381.324219 403.753906 381.84375 404.386719 C 382.363281 405.019531 382.851562 405.679688 383.304688 406.359375 C 383.761719 407.039062 384.179688 407.742188 384.566406 408.460938 C 384.953125 409.183594 385.300781 409.925781 385.613281 410.679688 C 385.929688 411.4375 386.203125 412.207031 386.441406 412.988281 C 386.679688 413.773438 386.878906 414.566406 387.039062 415.371094 C 387.199219 416.171875 387.316406 416.980469 387.398438 417.796875 C 387.476562 418.609375 387.519531 419.425781 387.519531 420.246094 Z M 387.519531 420.246094 " fill-opacity="1" fill-rule="nonzero"/></g><g clip-path="url(#35e3ff0907)"><g clip-path="url(#aec431d181)"><path fill="#ffffff" d="M 368.601562 399.503906 L 379.011719 399.503906 L 379.011719 408.300781 L 368.601562 408.300781 Z M 368.601562 399.503906 " fill-opacity="1" fill-rule="nonzero"/></g></g><g clip-path="url(#7915c659b6)"><g clip-path="url(#7a2f09a8a0)"><path fill="#ffffff" d="M 377.734375 409.769531 L 382.210938 409.769531 L 382.210938 414.25 L 377.734375 414.25 Z M 377.734375 409.769531 " fill-opacity="1" fill-rule="nonzero"/></g></g><path stroke-linecap="round" transform="matrix(-0.445135, 0.000000000776907, -0.000000000776907, -0.445135, 349.747954, 415.171415)" fill="none" stroke-linejoin="miter" d="M 1.496002 1.499566 L 17.449739 1.499566 " stroke="#c8831a" stroke-width="3" stroke-opacity="1" stroke-miterlimit="4"/><path stroke-linecap="round" transform="matrix(-0.445135, -0.000000000776907, 0.000000000776907, -0.445135, 349.751588, 410.457647)" fill="none" stroke-linejoin="miter" d="M 1.504165 1.501983 L 10.507759 1.501983 " stroke="#c8831a" stroke-width="3" stroke-opacity="1" stroke-miterlimit="4"/><path stroke-linecap="round" transform="matrix(-0.445135, -0.000000000776907, 0.000000000776907, -0.445135, 349.752087, 406.098744)" fill="none" stroke-linejoin="miter" d="M 1.496511 1.503042 L 5.454232 1.503042 " stroke="#c8831a" stroke-width="3" stroke-opacity="1" stroke-miterlimit="4"/><g clip-path="url(#9b6c9f0315)"><path fill="#39b54a" d="M 361.355469 291.664062 C 360.585938 289.886719 359.441406 286.429688 360.566406 282.738281 C 362.410156 276.679688 369.640625 272.335938 378.34375 272.898438 C 379.5 280.289062 376.652344 287.214844 371.285156 290.300781 C 367.671875 292.382812 363.925781 292.140625 362.152344 291.894531 C 363.96875 290.511719 366.007812 288.742188 368.042969 286.496094 C 371.191406 283.03125 373.289062 279.59375 374.679688 276.851562 C 372.683594 279.644531 370.285156 282.660156 367.417969 285.738281 C 365.347656 287.960938 363.308594 289.929688 361.355469 291.664062 Z M 361.355469 291.664062 " fill-opacity="1" fill-rule="nonzero"/></g><g clip-path="url(#28d51cce7e)"><path fill="#39b54a" d="M 359.035156 291.859375 C 357.675781 292.269531 355.0625 292.8125 352.472656 291.675781 C 348.21875 289.8125 345.675781 284.152344 346.824219 277.835938 C 352.300781 277.621094 357.097656 280.292969 358.890625 284.480469 C 360.097656 287.300781 359.601562 290.019531 359.269531 291.292969 C 358.417969 289.847656 357.304688 288.207031 355.84375 286.527344 C 353.589844 283.933594 351.269531 282.105469 349.390625 280.855469 C 351.253906 282.550781 353.242188 284.5625 355.238281 286.921875 C 356.679688 288.621094 357.941406 290.285156 359.035156 291.859375 Z M 359.035156 291.859375 " fill-opacity="1" fill-rule="nonzero"/></g><g clip-path="url(#5a5f558cc5)"><g clip-path="url(#55a5af358a)"><g clip-path="url(#e7c8d63502)"><path fill="#f8c038" d="M 215.699219 411.753906 L 249.972656 428.152344 L 236.773438 455.742188 L 202.5 439.347656 Z M 215.699219 411.753906 " fill-opacity="1" fill-rule="nonzero"/></g></g></g><g clip-path="url(#b217f837a0)"><g clip-path="url(#747a759cbe)"><g clip-path="url(#8dff77b43a)"><path fill="#f7eee1" d="M 477.222656 471.683594 L 499.976562 474.882812 L 489.460938 549.726562 L 466.703125 546.527344 Z M 477.222656 471.683594 " fill-opacity="1" fill-rule="nonzero"/></g></g></g><g clip-path="url(#4e804a7e54)"><g clip-path="url(#cfdc79e423)"><g clip-path="url(#35b0b392da)"><path fill="#f7eee1" d="M 458.042969 527.378906 L 488.503906 546.542969 L 470.335938 575.421875 L 439.875 556.261719 Z M 458.042969 527.378906 " fill-opacity="1" fill-rule="nonzero"/></g></g></g><g clip-path="url(#ce900f8cdb)"><g clip-path="url(#83e0919472)"><g clip-path="url(#ffe6de9b93)"><path fill="#f7eee1" d="M 483.621094 529.421875 L 517.128906 550.5 L 498.960938 579.378906 L 465.453125 558.304688 Z M 483.621094 529.421875 " fill-opacity="1" fill-rule="nonzero"/></g></g></g><g clip-path="url(#c304146ae5)"><g clip-path="url(#26935cdc62)"><g clip-path="url(#9a08200cfd)"><path fill="#f7eee1" d="M 454.042969 536.699219 L 470.984375 528.363281 L 474.332031 535.171875 L 457.394531 543.507812 Z M 454.042969 536.699219 " fill-opacity="1" fill-rule="nonzero"/></g></g></g><g clip-path="url(#c2af9b7dbd)"><g clip-path="url(#e968b15e98)"><g clip-path="url(#3939598746)"><path fill="#f7eee1" d="M 492.21875 530.09375 L 504.910156 544.070312 L 499.292969 549.171875 L 486.601562 535.191406 Z M 492.21875 530.09375 " fill-opacity="1" fill-rule="nonzero"/></g></g></g><g clip-path="url(#6c88d3320a)"><g clip-path="url(#dfc193f8d3)"><path fill="#de773c" d="M 423.429688 233.273438 L 600.355469 233.273438 L 600.355469 410.199219 L 423.429688 410.199219 Z M 423.429688 233.273438 " fill-opacity="1" fill-rule="nonzero"/></g></g><g clip-path="url(#edab999870)"><g clip-path="url(#b884d4c0d4)"><g clip-path="url(#8007c0df22)"><path fill="#de773c" d="M 408.105469 273.878906 L 509.695312 254.253906 L 543.277344 428.070312 L 441.6875 447.695312 Z M 408.105469 273.878906 " fill-opacity="1" fill-rule="nonzero"/></g></g></g><g clip-path="url(#f3ebd356d4)"><g clip-path="url(#ee055768b7)"><g clip-path="url(#4bab8bca60)"><path fill="#de773c" d="M 537.09375 259.75 L 624.675781 314.84375 L 530.410156 464.691406 L 442.828125 409.597656 Z M 537.09375 259.75 " fill-opacity="1" fill-rule="nonzero"/></g></g></g><g clip-path="url(#e7514821df)"><g clip-path="url(#798e3d07d6)"><g clip-path="url(#48428d031f)"><path fill="#de773c" d="M 462.503906 463.871094 L 483.820312 477.277344 L 470.867188 497.871094 L 449.550781 484.460938 Z M 462.503906 463.871094 " fill-opacity="1" fill-rule="nonzero"/></g></g></g><g clip-path="url(#e945e578c8)"><g clip-path="url(#cb4ba0b5c3)"><g clip-path="url(#9038269b66)"><path fill="#de773c" d="M 511.921875 467.15625 L 527.335938 476.855469 L 517.859375 491.914062 L 502.445312 482.21875 Z M 511.921875 467.15625 " fill-opacity="1" fill-rule="nonzero"/></g></g></g><g clip-path="url(#ec989faf05)"><g clip-path="url(#67ea1083f3)"><g clip-path="url(#3a2ca7b05f)"><path fill="#de773c" d="M 565.839844 394.476562 L 573.289062 401.921875 L 530.378906 444.828125 L 522.933594 437.382812 Z M 565.839844 394.476562 " fill-opacity="1" fill-rule="nonzero"/></g></g></g><g clip-path="url(#850e3a6cd1)"><g clip-path="url(#7ec75b4645)"><g clip-path="url(#579a8a4414)"><path fill="#de773c" d="M 414.304688 291.769531 L 515.894531 272.144531 L 549.480469 445.957031 L 447.886719 465.585938 Z M 414.304688 291.769531 " fill-opacity="1" fill-rule="nonzero"/></g></g></g><g clip-path="url(#232893099d)"><g clip-path="url(#cf0124f4e4)"><g clip-path="url(#aa644dff93)"><path fill="#de773c" d="M 431.402344 357.792969 L 493.921875 344.480469 L 514.878906 442.902344 L 452.359375 456.214844 Z M 431.402344 357.792969 " fill-opacity="1" fill-rule="nonzero"/></g></g></g><g clip-path="url(#f803c0e457)"><g clip-path="url(#7a8f91fa2d)"><g clip-path="url(#28e01b9724)"><path fill="#de773c" d="M 449.980469 427.382812 C 449.84375 427.472656 449.765625 427.601562 449.746094 427.765625 C 449.726562 427.933594 449.769531 428.074219 449.882812 428.199219 C 454.03125 432.777344 457.40625 440.9375 458.617188 450.519531 C 459.828125 460.101562 458.589844 468.847656 455.707031 474.3125 C 455.628906 474.460938 455.621094 474.609375 455.683594 474.765625 C 455.742188 474.917969 455.851562 475.023438 456.007812 475.078125 L 466.46875 478.800781 C 466.601562 478.847656 466.730469 478.847656 466.863281 478.792969 C 466.992188 478.738281 467.085938 478.644531 467.144531 478.519531 C 467.746094 477.222656 468.269531 475.898438 468.714844 474.546875 C 471.121094 467.277344 471.804688 458.207031 470.640625 449 C 469.476562 439.792969 466.558594 431.179688 462.421875 424.738281 C 461.652344 423.539062 460.816406 422.386719 459.914062 421.28125 C 459.824219 421.171875 459.710938 421.105469 459.570312 421.085938 C 459.433594 421.066406 459.304688 421.09375 459.1875 421.175781 Z M 449.980469 427.382812 " fill-opacity="1" fill-rule="nonzero"/></g></g></g><g clip-path="url(#5a4cf8f540)"><g clip-path="url(#b032713bd8)"><g clip-path="url(#6018b53348)"><path fill="#e4d3c8" d="M 476.542969 476.648438 L 484 477.695312 L 476.425781 531.582031 L 468.96875 530.535156 Z M 476.542969 476.648438 " fill-opacity="1" fill-rule="nonzero"/></g></g></g><g clip-path="url(#5bdb72dcf8)"><path fill="#de773c" d="M 486.390625 484.949219 C 486.425781 485.015625 486.480469 485.0625 486.558594 485.082031 C 486.632812 485.097656 486.699219 485.085938 486.765625 485.042969 C 489.121094 483.390625 493.09375 482.308594 497.59375 482.308594 C 502.097656 482.308594 506.066406 483.390625 508.425781 485.042969 C 508.488281 485.085938 508.558594 485.097656 508.632812 485.082031 C 508.707031 485.0625 508.761719 485.015625 508.796875 484.949219 L 511.128906 480.328125 C 511.199219 480.191406 511.167969 480.082031 511.039062 480 C 510.476562 479.648438 509.894531 479.328125 509.292969 479.042969 C 506.074219 477.503906 501.917969 476.660156 497.59375 476.660156 C 493.269531 476.660156 489.117188 477.503906 485.898438 479.042969 C 485.296875 479.328125 484.714844 479.648438 484.152344 480 C 484.019531 480.082031 483.992188 480.191406 484.058594 480.328125 Z M 486.390625 484.949219 " fill-opacity="1" fill-rule="nonzero"/></g><g clip-path="url(#be15a71c89)"><g clip-path="url(#d2069d6242)"><g clip-path="url(#c4991d6bc6)"><path fill="#de773c" d="M 488.101562 467 L 494.582031 482.03125 L 471.273438 492.078125 L 464.792969 477.046875 Z M 488.101562 467 " fill-opacity="1" fill-rule="nonzero"/></g></g></g><g clip-path="url(#01305b128e)"><g clip-path="url(#4a8794cef2)"><g clip-path="url(#d4b8eb9518)"><path fill="#de773c" d="M 523.359375 480.199219 C 523.527344 480.183594 523.65625 480.109375 523.753906 479.972656 C 523.851562 479.839844 523.878906 479.691406 523.839844 479.53125 C 522.398438 473.523438 523.355469 464.742188 526.894531 455.753906 C 530.429688 446.765625 535.714844 439.691406 540.867188 436.277344 C 541.003906 436.1875 541.085938 436.058594 541.105469 435.894531 C 541.125 435.730469 541.082031 435.585938 540.972656 435.460938 L 533.582031 427.175781 C 533.488281 427.070312 533.371094 427.011719 533.230469 426.996094 C 533.089844 426.980469 532.964844 427.015625 532.851562 427.097656 C 531.703125 427.945312 530.609375 428.855469 529.566406 429.832031 C 523.96875 435.050781 519.015625 442.679688 515.613281 451.316406 C 512.214844 459.949219 510.640625 468.910156 511.179688 476.546875 C 511.277344 477.96875 511.457031 479.378906 511.71875 480.78125 C 511.746094 480.921875 511.8125 481.03125 511.925781 481.117188 C 512.039062 481.203125 512.164062 481.238281 512.304688 481.222656 Z M 523.359375 480.199219 " fill-opacity="1" fill-rule="nonzero"/></g></g></g><g clip-path="url(#84370056a7)"><g clip-path="url(#ff36d4be10)"><g clip-path="url(#aff8e9e199)"><path fill="#de773c" d="M 557.789062 404.96875 L 565.238281 412.417969 L 522.328125 455.324219 L 514.882812 447.878906 Z M 557.789062 404.96875 " fill-opacity="1" fill-rule="nonzero"/></g></g></g><g clip-path="url(#54ed7ef093)"><g clip-path="url(#7beceab626)"><g clip-path="url(#e7c6b8f1ed)"><path fill="#de773c" d="M 460.167969 439.878906 L 517.183594 427.738281 L 527.273438 475.128906 L 470.257812 487.269531 Z M 460.167969 439.878906 " fill-opacity="1" fill-rule="nonzero"/></g></g></g><g clip-path="url(#0515c23cc1)"><g clip-path="url(#bcfd3f0110)"><g clip-path="url(#45b8123f0b)"><path fill="#de773c" d="M 464.789062 417.105469 L 521.804688 404.964844 L 531.894531 452.355469 L 474.878906 464.496094 Z M 464.789062 417.105469 " fill-opacity="1" fill-rule="nonzero"/></g></g></g><g clip-path="url(#3445a33143)"><g clip-path="url(#ae946f38e4)"><g clip-path="url(#0d47606312)"><path fill="#f4a043" d="M 445.839844 237.382812 L 584.191406 230.601562 L 593.855469 427.859375 L 455.503906 434.640625 Z M 445.839844 237.382812 " fill-opacity="1" fill-rule="nonzero"/></g></g></g><g clip-path="url(#1929e18de2)"><g clip-path="url(#320f317f41)"><g clip-path="url(#a3c2295c58)"><path fill="#f4a043" d="M 447.527344 238.84375 L 596.851562 231.523438 L 605.65625 411.179688 L 456.332031 418.496094 Z M 447.527344 238.84375 " fill-opacity="1" fill-rule="nonzero"/></g></g></g><g clip-path="url(#6eea1a32fd)"><g clip-path="url(#4073bac5e8)"><g clip-path="url(#274546de60)"><path fill="#ffffff" d="M 566.242188 273.378906 C 565.003906 274.0625 564.4375 275.597656 565.152344 276.855469 C 565.472656 277.402344 565.957031 277.855469 566.386719 278.308594 C 566.886719 278.835938 567.398438 279.359375 567.902344 279.886719 C 568.863281 280.894531 569.832031 281.902344 570.730469 282.96875 C 570.945312 283.21875 571.160156 283.464844 571.382812 283.714844 L 571.542969 283.976562 C 572.148438 284.984375 572.734375 285.984375 573.144531 287.09375 C 573.554688 288.203125 573.734375 289.335938 573.917969 290.496094 C 574.285156 292.820312 575.105469 295.34375 577.554688 296.191406 C 579.726562 296.945312 581.523438 295.390625 582.109375 293.390625 C 582.738281 291.253906 582.207031 288.8125 581.617188 286.726562 C 580.96875 284.441406 579.972656 282.316406 578.628906 280.359375 C 577.234375 278.285156 575.519531 276.523438 573.484375 275.074219 C 572.371094 274.289062 571.167969 273.695312 569.867188 273.289062 C 568.695312 272.925781 567.359375 272.761719 566.242188 273.378906 Z M 566.242188 273.378906 " fill-opacity="1" fill-rule="nonzero"/></g></g></g><g clip-path="url(#62b3c799f2)"><g clip-path="url(#9ecf3ed25a)"><path fill="#ffffff" d="M 549.457031 259.746094 L 557.015625 259.746094 L 557.015625 267.304688 L 549.457031 267.304688 Z M 549.457031 259.746094 " fill-opacity="1" fill-rule="nonzero"/></g></g><g clip-path="url(#147955055a)"><g clip-path="url(#7c27097dc0)"><g clip-path="url(#1af574f2e4)"><path fill="#de773c" d="M 469.820312 400.660156 L 503.148438 463 L 476.007812 477.511719 L 442.679688 415.167969 Z M 469.820312 400.660156 " fill-opacity="1" fill-rule="nonzero"/></g></g></g><g clip-path="url(#258bbe6913)"><g clip-path="url(#6986acc6f2)"><g clip-path="url(#43ae465d01)"><path fill="#de773c" d="M 476.382812 409.585938 L 501.765625 475.5625 L 473.042969 486.613281 L 447.660156 420.636719 Z M 476.382812 409.585938 " fill-opacity="1" fill-rule="nonzero"/></g></g></g><g clip-path="url(#c36deb1b01)"><g clip-path="url(#360bb487e3)"><g clip-path="url(#5ca06804ab)"><path fill="#de773c" d="M 482.066406 413.375 L 496.175781 482.640625 L 466.015625 488.785156 L 451.90625 419.515625 Z M 482.066406 413.375 " fill-opacity="1" fill-rule="nonzero"/></g></g></g><g clip-path="url(#5d91ff1a2f)"><g clip-path="url(#a36233e6f5)"><g clip-path="url(#f481200103)"><path fill="#ffffff" d="M 420.8125 317.765625 L 594.597656 364.265625 L 598.945312 358.929688 L 419.710938 310.96875 Z M 420.8125 317.765625 " fill-opacity="1" fill-rule="nonzero"/></g></g></g><g clip-path="url(#e34942ccc4)"><g clip-path="url(#6e23c27588)"><g clip-path="url(#abdd3de63a)"><path fill="#ffffff" d="M 608.390625 312.714844 L 434.605469 266.214844 L 430.257812 271.550781 L 609.492188 319.507812 Z M 608.390625 312.714844 " fill-opacity="1" fill-rule="nonzero"/></g></g></g><g clip-path="url(#24445234c9)"><g clip-path="url(#d66e3719ba)"><g clip-path="url(#16fc824ed1)"><path fill="#ffffff" d="M 609.816406 322.84375 L 428.3125 274.277344 C 424.859375 280.9375 422.84375 287.765625 422.113281 290.492188 C 420.394531 296.910156 419.601562 303.320312 419.390625 307.636719 L 600.886719 356.199219 C 602.859375 352.355469 605.371094 346.40625 607.089844 339.984375 C 607.820312 337.261719 609.480469 330.339844 609.816406 322.84375 Z M 515.578125 328.488281 C 511.246094 327.066406 509.425781 322.035156 507.660156 317.160156 C 505.164062 310.269531 505.242188 304.0625 505.550781 300.484375 C 507.589844 305.175781 509.757812 308.773438 511.425781 311.261719 C 514.78125 316.273438 516.566406 318.867188 519.917969 320.441406 C 523.996094 322.355469 528.171875 321.71875 530.710938 321.027344 C 526.261719 326.859375 520.234375 330.015625 515.578125 328.488281 Z M 515.578125 328.488281 " fill-opacity="1" fill-rule="nonzero"/></g></g></g></svg>