<svg xmlns="http://www.w3.org/2000/svg" xmlns:xlink="http://www.w3.org/1999/xlink" width="200" zoomAndPan="magnify" viewBox="0 0 150 149.999998" height="200" preserveAspectRatio="xMidYMid meet" version="1.0"><defs><clipPath id="6adc4de631"><path d="M 17.152344 39.761719 L 101.902344 39.761719 L 101.902344 120.71875 L 17.152344 120.71875 Z M 17.152344 39.761719 " clip-rule="nonzero"/></clipPath><clipPath id="6a6dfe2d1b"><path d="M 59.449219 39.761719 C 36.089844 39.761719 17.152344 57.886719 17.152344 80.238281 C 17.152344 102.59375 36.089844 120.71875 59.449219 120.71875 C 82.804688 120.71875 101.742188 102.59375 101.742188 80.238281 C 101.742188 57.886719 82.804688 39.761719 59.449219 39.761719 Z M 59.449219 39.761719 " clip-rule="nonzero"/></clipPath><clipPath id="f4d9f7ad8c"><path d="M 103 75 L 118 75 L 118 88 L 103 88 Z M 103 75 " clip-rule="nonzero"/></clipPath><clipPath id="813b4f2173"><path d="M 101.742188 79.175781 L 114.519531 73.074219 L 119.417969 83.328125 L 106.636719 89.429688 Z M 101.742188 79.175781 " clip-rule="nonzero"/></clipPath><clipPath id="83262d12bd"><path d="M 108.121094 76.132812 C 104.597656 77.8125 102.839844 81.472656 104.191406 84.300781 C 105.542969 87.132812 109.492188 88.066406 113.015625 86.386719 C 116.539062 84.703125 118.296875 81.046875 116.945312 78.214844 C 115.59375 75.382812 111.640625 74.449219 108.121094 76.132812 Z M 108.121094 76.132812 " clip-rule="nonzero"/></clipPath><clipPath id="7f6f8e9496"><path d="M 71 120 L 90 120 L 90 137 L 71 137 Z M 71 120 " clip-rule="nonzero"/></clipPath><clipPath id="dc0988c23f"><path d="M 92.164062 127.105469 L 76.824219 139.296875 L 68.699219 129.074219 L 84.035156 116.882812 Z M 92.164062 127.105469 " clip-rule="nonzero"/></clipPath><clipPath id="8726763abc"><path d="M 84.511719 133.1875 C 88.738281 129.828125 90.34375 124.816406 88.097656 121.992188 C 85.855469 119.167969 80.609375 119.605469 76.382812 122.964844 C 72.15625 126.324219 70.550781 131.335938 72.796875 134.160156 C 75.039062 136.980469 80.285156 136.546875 84.511719 133.1875 Z M 84.511719 133.1875 " clip-rule="nonzero"/></clipPath><clipPath id="c73eee13a0"><path d="M 75 119 L 95 119 L 95 133 L 75 133 Z M 75 119 " clip-rule="nonzero"/></clipPath><clipPath id="4f22b692b6"><path d="M 95.898438 131.117188 L 76.527344 134.066406 L 74.5625 121.152344 L 93.933594 118.207031 Z M 95.898438 131.117188 " clip-rule="nonzero"/></clipPath><clipPath id="d2a1c1df8b"><path d="M 86.234375 132.589844 C 91.570312 131.777344 95.457031 128.226562 94.914062 124.660156 C 94.371094 121.097656 89.605469 118.863281 84.269531 119.675781 C 78.933594 120.488281 75.046875 124.039062 75.589844 127.601562 C 76.132812 131.167969 80.898438 133.402344 86.234375 132.589844 Z M 86.234375 132.589844 " clip-rule="nonzero"/></clipPath><clipPath id="6b88834306"><path d="M 28 120 L 49 120 L 49 134 L 28 134 Z M 28 120 " clip-rule="nonzero"/></clipPath><clipPath id="1e52dcc8de"><path d="M 48.519531 133.332031 L 28.925781 133.59375 L 28.753906 120.53125 L 48.34375 120.273438 Z M 48.519531 133.332031 " clip-rule="nonzero"/></clipPath><clipPath id="9712e62c01"><path d="M 38.746094 133.464844 C 44.140625 133.390625 48.480469 130.410156 48.429688 126.804688 C 48.382812 123.195312 43.96875 120.332031 38.570312 120.402344 C 33.171875 120.472656 28.835938 123.457031 28.882812 127.0625 C 28.933594 130.667969 33.347656 133.535156 38.746094 133.464844 Z M 38.746094 133.464844 " clip-rule="nonzero"/></clipPath><clipPath id="22eca969d4"><path d="M 34 120 L 53 120 L 53 136 L 34 136 Z M 34 120 " clip-rule="nonzero"/></clipPath><clipPath id="00e291bbb5"><path d="M 49.015625 138.792969 L 31.890625 129.273438 L 38.238281 117.855469 L 55.363281 127.375 Z M 49.015625 138.792969 " clip-rule="nonzero"/></clipPath><clipPath id="0ed00f83de"><path d="M 40.472656 134.042969 C 45.191406 136.667969 50.4375 136.238281 52.191406 133.082031 C 53.941406 129.929688 51.539062 125.25 46.820312 122.625 C 42.101562 120.003906 36.855469 120.433594 35.101562 123.585938 C 33.351562 126.738281 35.753906 131.421875 40.472656 134.042969 Z M 40.472656 134.042969 " clip-rule="nonzero"/></clipPath><clipPath id="832708d6f4"><path d="M 31.160156 67.773438 L 89 67.773438 L 89 117.125 L 31.160156 117.125 Z M 31.160156 67.773438 " clip-rule="nonzero"/></clipPath><clipPath id="1d4d90e35b"><path d="M 60.113281 67.773438 C 44.125 67.773438 31.160156 78.820312 31.160156 92.449219 C 31.160156 106.078125 44.125 117.125 60.113281 117.125 C 76.101562 117.125 89.066406 106.078125 89.066406 92.449219 C 89.066406 78.820312 76.101562 67.773438 60.113281 67.773438 Z M 60.113281 67.773438 " clip-rule="nonzero"/></clipPath><clipPath id="f46c76bc84"><path d="M 37.886719 55.308594 L 57.339844 55.308594 L 57.339844 80.304688 L 37.886719 80.304688 Z M 37.886719 55.308594 " clip-rule="nonzero"/></clipPath><clipPath id="80d1e6b6cf"><path d="M 47.613281 55.308594 C 50.195312 55.308594 52.667969 56.332031 54.492188 58.15625 C 56.316406 59.980469 57.339844 62.453125 57.339844 65.035156 L 57.339844 70.515625 C 57.339844 73.09375 56.316406 75.566406 54.492188 77.390625 C 52.667969 79.214844 50.195312 80.238281 47.613281 80.238281 C 45.035156 80.238281 42.5625 79.214844 40.738281 77.390625 C 38.914062 75.566406 37.886719 73.09375 37.886719 70.515625 L 37.886719 65.035156 C 37.886719 62.453125 38.914062 59.980469 40.738281 58.15625 C 42.5625 56.332031 45.035156 55.308594 47.613281 55.308594 Z M 47.613281 55.308594 " clip-rule="nonzero"/></clipPath><clipPath id="5c8877ed9e"><path d="M 61.554688 55.308594 L 81.007812 55.308594 L 81.007812 80.304688 L 61.554688 80.304688 Z M 61.554688 55.308594 " clip-rule="nonzero"/></clipPath><clipPath id="d3f71d7b37"><path d="M 71.28125 55.308594 C 73.859375 55.308594 76.332031 56.332031 78.15625 58.15625 C 79.980469 59.980469 81.007812 62.453125 81.007812 65.035156 L 81.007812 70.515625 C 81.007812 73.09375 79.980469 75.566406 78.15625 77.390625 C 76.332031 79.214844 73.859375 80.238281 71.28125 80.238281 C 68.703125 80.238281 66.226562 79.214844 64.402344 77.390625 C 62.578125 75.566406 61.554688 73.09375 61.554688 70.515625 L 61.554688 65.035156 C 61.554688 62.453125 62.578125 59.980469 64.402344 58.15625 C 66.226562 56.332031 68.703125 55.308594 71.28125 55.308594 Z M 71.28125 55.308594 " clip-rule="nonzero"/></clipPath><clipPath id="59c48f0ec3"><path d="M 65.71875 60.378906 L 76.839844 60.378906 L 76.839844 75.757812 L 65.71875 75.757812 Z M 65.71875 60.378906 " clip-rule="nonzero"/></clipPath><clipPath id="209d656373"><path d="M 71.28125 60.378906 C 72.753906 60.378906 74.171875 60.964844 75.214844 62.007812 C 76.253906 63.050781 76.839844 64.464844 76.839844 65.9375 L 76.839844 70.15625 C 76.839844 71.632812 76.253906 73.046875 75.214844 74.089844 C 74.171875 75.132812 72.753906 75.71875 71.28125 75.71875 C 69.804688 75.71875 68.390625 75.132812 67.347656 74.089844 C 66.304688 73.046875 65.71875 71.632812 65.71875 70.15625 L 65.71875 65.9375 C 65.71875 64.464844 66.304688 63.050781 67.347656 62.007812 C 68.390625 60.964844 69.804688 60.378906 71.28125 60.378906 Z M 71.28125 60.378906 " clip-rule="nonzero"/></clipPath><clipPath id="c3ea79fb9c"><path d="M 70.398438 60.378906 L 75.351562 60.378906 L 75.351562 66.042969 L 70.398438 66.042969 Z M 70.398438 60.378906 " clip-rule="nonzero"/></clipPath><clipPath id="b22036577d"><path d="M 72.875 60.378906 C 74.242188 60.378906 75.351562 61.488281 75.351562 62.851562 L 75.351562 63.566406 C 75.351562 64.933594 74.242188 66.042969 72.875 66.042969 C 71.507812 66.042969 70.398438 64.933594 70.398438 63.566406 L 70.398438 62.851562 C 70.398438 61.488281 71.507812 60.378906 72.875 60.378906 Z M 72.875 60.378906 " clip-rule="nonzero"/></clipPath><clipPath id="95e217f131"><path d="M 41.699219 60.101562 L 52.820312 60.101562 L 52.820312 75.484375 L 41.699219 75.484375 Z M 41.699219 60.101562 " clip-rule="nonzero"/></clipPath><clipPath id="6aa9f35a92"><path d="M 47.257812 60.101562 C 48.734375 60.101562 50.148438 60.6875 51.191406 61.730469 C 52.234375 62.773438 52.820312 64.191406 52.820312 65.664062 L 52.820312 69.882812 C 52.820312 71.359375 52.234375 72.773438 51.191406 73.816406 C 50.148438 74.859375 48.734375 75.445312 47.257812 75.445312 C 45.785156 75.445312 44.367188 74.859375 43.328125 73.816406 C 42.285156 72.773438 41.699219 71.359375 41.699219 69.882812 L 41.699219 65.664062 C 41.699219 64.191406 42.285156 62.773438 43.328125 61.730469 C 44.367188 60.6875 45.785156 60.101562 47.257812 60.101562 Z M 47.257812 60.101562 " clip-rule="nonzero"/></clipPath><clipPath id="4fea4b1e65"><path d="M 46.863281 60.101562 L 51.8125 60.101562 L 51.8125 65.769531 L 46.863281 65.769531 Z M 46.863281 60.101562 " clip-rule="nonzero"/></clipPath><clipPath id="7b87af5f63"><path d="M 49.339844 60.101562 C 50.707031 60.101562 51.8125 61.210938 51.8125 62.578125 L 51.8125 63.292969 C 51.8125 64.660156 50.707031 65.765625 49.339844 65.765625 C 47.972656 65.765625 46.863281 64.660156 46.863281 63.292969 L 46.863281 62.578125 C 46.863281 61.210938 47.972656 60.101562 49.339844 60.101562 Z M 49.339844 60.101562 " clip-rule="nonzero"/></clipPath><clipPath id="9d4deef11c"><path d="M 52.164062 80.910156 L 66.882812 80.910156 L 66.882812 87.359375 L 52.164062 87.359375 Z M 52.164062 80.910156 " clip-rule="nonzero"/></clipPath><clipPath id="d16fe7c788"><path d="M 50.160156 73.085938 L 68.683594 73.085938 L 68.683594 82.183594 L 50.160156 82.183594 Z M 50.160156 73.085938 " clip-rule="nonzero"/></clipPath><clipPath id="00e9d755b1"><path d="M 61.859375 74.820312 L 65.421875 74.820312 L 65.421875 77.78125 L 61.859375 77.78125 Z M 61.859375 74.820312 " clip-rule="nonzero"/></clipPath><clipPath id="a765a1fab2"><path d="M 62.738281 74.851562 C 63.964844 75.398438 64.457031 75.734375 64.761719 76.019531 C 65.007812 76.246094 65.246094 76.539062 65.339844 76.714844 C 65.386719 76.804688 65.398438 76.863281 65.40625 76.941406 C 65.417969 77.019531 65.414062 77.101562 65.394531 77.179688 C 65.378906 77.257812 65.351562 77.332031 65.3125 77.402344 C 65.273438 77.472656 65.222656 77.53125 65.164062 77.582031 C 65.101562 77.632812 65.035156 77.675781 64.960938 77.707031 C 64.886719 77.738281 64.804688 77.757812 64.730469 77.761719 C 64.652344 77.769531 64.570312 77.761719 64.492188 77.742188 C 64.417969 77.71875 64.339844 77.691406 64.277344 77.648438 C 64.210938 77.605469 64.148438 77.542969 64.101562 77.484375 C 64.054688 77.425781 64.015625 77.351562 63.988281 77.277344 C 63.964844 77.203125 63.945312 77.121094 63.945312 77.046875 C 63.945312 76.96875 63.953125 76.882812 63.980469 76.808594 C 64.007812 76.734375 64.039062 76.660156 64.089844 76.597656 C 64.136719 76.535156 64.195312 76.476562 64.261719 76.433594 C 64.324219 76.390625 64.398438 76.351562 64.46875 76.332031 C 64.542969 76.308594 64.628906 76.296875 64.707031 76.300781 C 64.785156 76.304688 64.867188 76.324219 64.9375 76.347656 C 65.011719 76.378906 65.085938 76.417969 65.144531 76.46875 C 65.207031 76.515625 65.261719 76.582031 65.300781 76.644531 C 65.34375 76.710938 65.375 76.789062 65.390625 76.863281 C 65.40625 76.941406 65.417969 77.023438 65.40625 77.101562 C 65.398438 77.179688 65.378906 77.261719 65.347656 77.328125 C 65.316406 77.402344 65.269531 77.472656 65.21875 77.527344 C 65.167969 77.582031 65.101562 77.632812 65.035156 77.671875 C 64.964844 77.710938 64.886719 77.742188 64.808594 77.753906 C 64.734375 77.769531 64.652344 77.773438 64.574219 77.757812 C 64.496094 77.746094 64.414062 77.71875 64.347656 77.6875 C 64.277344 77.652344 64.226562 77.613281 64.15625 77.542969 C 64.042969 77.433594 63.941406 77.226562 63.761719 77.054688 C 63.492188 76.796875 62.902344 76.378906 62.609375 76.230469 C 62.449219 76.148438 62.3125 76.144531 62.21875 76.089844 C 62.15625 76.0625 62.125 76.03125 62.085938 75.992188 C 62.046875 75.953125 62.011719 75.921875 61.980469 75.867188 C 61.9375 75.789062 61.886719 75.664062 61.878906 75.5625 C 61.871094 75.460938 61.898438 75.320312 61.929688 75.238281 C 61.949219 75.179688 61.972656 75.144531 62.011719 75.097656 C 62.066406 75.027344 62.183594 74.9375 62.261719 74.894531 C 62.316406 74.867188 62.355469 74.847656 62.414062 74.839844 C 62.5 74.828125 62.738281 74.851562 62.738281 74.851562 " clip-rule="nonzero"/></clipPath><clipPath id="ffebc7f2d3"><path d="M 65.261719 78.632812 L 66.574219 78.632812 L 66.574219 79.984375 L 65.261719 79.984375 Z M 65.261719 78.632812 " clip-rule="nonzero"/></clipPath><clipPath id="d4cb19317d"><path d="M 66.574219 79.113281 C 66.574219 79.53125 66.527344 79.636719 66.460938 79.71875 C 66.398438 79.800781 66.304688 79.875 66.210938 79.917969 C 66.117188 79.960938 66 79.976562 65.898438 79.972656 C 65.792969 79.96875 65.683594 79.929688 65.59375 79.878906 C 65.503906 79.828125 65.417969 79.742188 65.363281 79.65625 C 65.308594 79.566406 65.273438 79.453125 65.269531 79.351562 C 65.265625 79.246094 65.289062 79.128906 65.332031 79.035156 C 65.375 78.941406 65.441406 78.851562 65.523438 78.785156 C 65.605469 78.722656 65.714844 78.671875 65.816406 78.652344 C 65.917969 78.636719 66.035156 78.644531 66.132812 78.675781 C 66.234375 78.707031 66.410156 78.839844 66.410156 78.839844 " clip-rule="nonzero"/></clipPath><clipPath id="7329c9fa96"><path d="M 58 27.425781 L 65.757812 27.425781 L 65.757812 35 L 58 35 Z M 58 27.425781 " clip-rule="nonzero"/></clipPath><clipPath id="0ed8ee550f"><path d="M 53.1875 29 L 59 29 L 59 35 L 53.1875 35 Z M 53.1875 29 " clip-rule="nonzero"/></clipPath><clipPath id="1752fa2fec"><path d="M 1 81 L 16 81 L 16 94 L 1 94 Z M 1 81 " clip-rule="nonzero"/></clipPath><clipPath id="b6383f5d9c"><path d="M 4.902344 79.21875 L 17.675781 85.328125 L 12.773438 95.578125 L 0 89.46875 Z M 4.902344 79.21875 " clip-rule="nonzero"/></clipPath><clipPath id="be28e0dff5"><path d="M 11.277344 82.269531 C 7.757812 80.582031 3.804688 81.511719 2.453125 84.34375 C 1.097656 87.175781 2.851562 90.835938 6.375 92.519531 C 9.894531 94.203125 13.847656 93.273438 15.199219 90.441406 C 16.554688 87.613281 14.796875 83.953125 11.277344 82.269531 Z M 11.277344 82.269531 " clip-rule="nonzero"/></clipPath><clipPath id="e008a65592"><path d="M 98 101 L 111 101 L 111 131 L 98 131 Z M 98 101 " clip-rule="nonzero"/></clipPath><clipPath id="802b852dad"><path d="M 102.058594 101.480469 L 110.511719 102.671875 L 106.601562 130.507812 L 98.148438 129.320312 Z M 102.058594 101.480469 " clip-rule="nonzero"/></clipPath><clipPath id="7d7c22c061"><path d="M 102.058594 101.480469 L 110.511719 102.671875 L 106.605469 130.484375 L 98.148438 129.296875 Z M 102.058594 101.480469 " clip-rule="nonzero"/></clipPath><clipPath id="12e9a06e7e"><path d="M 90 124 L 104 124 L 104 138 L 90 138 Z M 90 124 " clip-rule="nonzero"/></clipPath><clipPath id="02efb53ebb"><path d="M 94.933594 122.171875 L 106.25 129.292969 L 99.5 140.019531 L 88.183594 132.902344 Z M 94.933594 122.171875 " clip-rule="nonzero"/></clipPath><clipPath id="cf8c8632e6"><path d="M 100.589844 125.730469 C 97.464844 123.765625 93.421875 124.574219 91.558594 127.539062 C 89.695312 130.5 90.714844 134.496094 93.839844 136.457031 C 96.960938 138.421875 101.003906 137.613281 102.867188 134.652344 C 104.730469 131.6875 103.710938 127.695312 100.589844 125.730469 Z M 100.589844 125.730469 " clip-rule="nonzero"/></clipPath><clipPath id="5ead589a1f"><path d="M 100 125 L 115 125 L 115 139 L 100 139 Z M 100 125 " clip-rule="nonzero"/></clipPath><clipPath id="aba4045340"><path d="M 104.4375 122.929688 L 116.925781 130.789062 L 110.175781 141.515625 L 97.6875 133.660156 Z M 104.4375 122.929688 " clip-rule="nonzero"/></clipPath><clipPath id="72dec90646"><path d="M 110.667969 126.851562 C 107.226562 124.6875 102.925781 125.332031 101.0625 128.296875 C 99.199219 131.257812 100.476562 135.414062 103.917969 137.578125 C 107.359375 139.742188 111.65625 139.097656 113.519531 136.132812 C 115.386719 133.171875 114.105469 129.015625 110.667969 126.851562 Z M 110.667969 126.851562 " clip-rule="nonzero"/></clipPath><clipPath id="df24db316a"><path d="M 93 122 L 101 122 L 101 129 L 93 129 Z M 93 122 " clip-rule="nonzero"/></clipPath><clipPath id="6fdc5dce8a"><path d="M 93.449219 125.636719 L 99.742188 122.539062 L 100.984375 125.066406 L 94.691406 128.164062 Z M 93.449219 125.636719 " clip-rule="nonzero"/></clipPath><clipPath id="14d9a2e0bd"><path d="M 93.449219 125.636719 L 99.738281 122.539062 L 100.980469 125.070312 L 94.691406 128.164062 Z M 93.449219 125.636719 " clip-rule="nonzero"/></clipPath><clipPath id="e8ad62e3f1"><path d="M 105 123 L 113 123 L 113 131 L 105 131 Z M 105 123 " clip-rule="nonzero"/></clipPath><clipPath id="7d786d3c16"><path d="M 107.628906 123.179688 L 112.34375 128.375 L 110.257812 130.269531 L 105.542969 125.074219 Z M 107.628906 123.179688 " clip-rule="nonzero"/></clipPath><clipPath id="ef220ec83e"><path d="M 107.628906 123.179688 L 112.339844 128.371094 L 110.253906 130.265625 L 105.542969 125.074219 Z M 107.628906 123.179688 " clip-rule="nonzero"/></clipPath><clipPath id="f6dc07bad8"><path d="M 82.074219 12.914062 L 147.800781 12.914062 L 147.800781 78.640625 L 82.074219 78.640625 Z M 82.074219 12.914062 " clip-rule="nonzero"/></clipPath><clipPath id="263ce80ecf"><path d="M 114.9375 12.914062 C 96.789062 12.914062 82.074219 27.628906 82.074219 45.777344 C 82.074219 63.925781 96.789062 78.640625 114.9375 78.640625 C 133.089844 78.640625 147.800781 63.925781 147.800781 45.777344 C 147.800781 27.628906 133.089844 12.914062 114.9375 12.914062 Z M 114.9375 12.914062 " clip-rule="nonzero"/></clipPath><clipPath id="eb056cd4dd"><path d="M 81 24 L 122 24 L 122 90 L 81 90 Z M 81 24 " clip-rule="nonzero"/></clipPath><clipPath id="2481f76730"><path d="M 76.382812 28 L 114.121094 20.707031 L 126.597656 85.28125 L 88.855469 92.570312 Z M 76.382812 28 " clip-rule="nonzero"/></clipPath><clipPath id="48e4cb193d"><path d="M 95.25 24.351562 C 84.828125 26.367188 79.171875 42.445312 82.617188 60.265625 C 86.058594 78.085938 97.296875 90.898438 107.71875 88.886719 C 118.140625 86.871094 123.800781 70.792969 120.355469 52.972656 C 116.914062 35.152344 105.671875 22.339844 95.25 24.351562 Z M 95.25 24.351562 " clip-rule="nonzero"/></clipPath><clipPath id="6bad12b85a"><path d="M 99 31 L 147 31 L 147 91 L 99 91 Z M 99 31 " clip-rule="nonzero"/></clipPath><clipPath id="d2cf9cad46"><path d="M 124.300781 22.75 L 156.835938 43.214844 L 121.816406 98.882812 L 89.28125 78.417969 Z M 124.300781 22.75 " clip-rule="nonzero"/></clipPath><clipPath id="482ff8e628"><path d="M 140.570312 32.984375 C 131.585938 27.332031 116.464844 35.203125 106.800781 50.566406 C 97.136719 65.929688 96.585938 82.964844 105.570312 88.617188 C 114.554688 94.269531 129.671875 86.394531 139.339844 71.035156 C 149.003906 55.671875 149.554688 38.632812 140.570312 32.984375 Z M 140.570312 32.984375 " clip-rule="nonzero"/></clipPath><clipPath id="ee40a0c1db"><path d="M 93 100 L 103 100 L 103 110 L 93 110 Z M 93 100 " clip-rule="nonzero"/></clipPath><clipPath id="d4205d54d2"><path d="M 96.589844 98.578125 L 104.539062 103.578125 L 99.726562 111.230469 L 91.777344 106.230469 Z M 96.589844 98.578125 " clip-rule="nonzero"/></clipPath><clipPath id="01726c0102"><path d="M 100.554688 101.074219 C 98.367188 99.695312 95.515625 100.292969 94.183594 102.402344 C 92.855469 104.515625 93.554688 107.34375 95.742188 108.722656 C 97.933594 110.101562 100.785156 109.503906 102.113281 107.390625 C 103.441406 105.277344 102.746094 102.449219 100.554688 101.074219 Z M 100.554688 101.074219 " clip-rule="nonzero"/></clipPath><clipPath id="ed4edb079a"><path d="M 112 101 L 120 101 L 120 108 L 112 108 Z M 112 101 " clip-rule="nonzero"/></clipPath><clipPath id="2cd438fe33"><path d="M 114.949219 99.800781 L 120.695312 103.417969 L 117.175781 109.011719 L 111.429688 105.394531 Z M 114.949219 99.800781 " clip-rule="nonzero"/></clipPath><clipPath id="5092af82ed"><path d="M 117.8125 101.601562 C 116.230469 100.609375 114.160156 101.054688 113.1875 102.597656 C 112.21875 104.144531 112.710938 106.203125 114.292969 107.199219 C 115.875 108.195312 117.949219 107.746094 118.917969 106.203125 C 119.890625 104.65625 119.394531 102.597656 117.8125 101.601562 Z M 117.8125 101.601562 " clip-rule="nonzero"/></clipPath><clipPath id="87a9b74a17"><path d="M 120 74 L 137 74 L 137 91 L 120 91 Z M 120 74 " clip-rule="nonzero"/></clipPath><clipPath id="6323b4143e"><path d="M 134.980469 72.800781 L 137.746094 75.566406 L 121.808594 91.503906 L 119.042969 88.738281 Z M 134.980469 72.800781 " clip-rule="nonzero"/></clipPath><clipPath id="a0f6aea9a1"><path d="M 136.363281 74.183594 C 135.601562 73.417969 131.414062 76.367188 127.011719 80.765625 C 122.613281 85.167969 119.664062 89.355469 120.429688 90.117188 C 121.191406 90.882812 125.378906 87.933594 129.777344 83.535156 C 134.179688 79.132812 137.128906 74.945312 136.363281 74.183594 Z M 136.363281 74.183594 " clip-rule="nonzero"/></clipPath><clipPath id="a0bdfb74c6"><path d="M 83 30 L 124 30 L 124 96 L 83 96 Z M 83 30 " clip-rule="nonzero"/></clipPath><clipPath id="378335021b"><path d="M 78.683594 34.644531 L 116.425781 27.355469 L 128.902344 91.925781 L 91.160156 99.21875 Z M 78.683594 34.644531 " clip-rule="nonzero"/></clipPath><clipPath id="53c5d57e6d"><path d="M 97.554688 31 C 87.132812 33.011719 81.476562 49.09375 84.917969 66.910156 C 88.363281 84.730469 99.601562 97.546875 110.023438 95.53125 C 120.445312 93.519531 126.101562 77.441406 122.660156 59.621094 C 119.214844 41.800781 107.976562 28.984375 97.554688 31 Z M 97.554688 31 " clip-rule="nonzero"/></clipPath><clipPath id="9172675185"><path d="M 88 56 L 113 56 L 113 94 L 88 94 Z M 88 56 " clip-rule="nonzero"/></clipPath><clipPath id="a2bfcda176"><path d="M 85.035156 59.171875 L 108.261719 54.226562 L 116.066406 90.878906 L 92.839844 95.828125 Z M 85.035156 59.171875 " clip-rule="nonzero"/></clipPath><clipPath id="e6f0c31c93"><path d="M 96.648438 56.699219 C 90.234375 58.066406 86.78125 67.363281 88.933594 77.46875 C 91.082031 87.574219 98.027344 94.660156 104.441406 93.292969 C 110.855469 91.929688 114.308594 82.628906 112.160156 72.523438 C 110.007812 62.417969 103.0625 55.332031 96.648438 56.699219 Z M 96.648438 56.699219 " clip-rule="nonzero"/></clipPath><clipPath id="b203c642b5"><path d="M 91 82 L 100 82 L 100 105 L 91 105 Z M 91 82 " clip-rule="nonzero"/></clipPath><clipPath id="6a224dc0df"><path d="M 98.261719 82.304688 L 100.980469 103.792969 L 94.253906 104.644531 L 91.535156 83.152344 Z M 98.261719 82.304688 " clip-rule="nonzero"/></clipPath><clipPath id="195cd669c3"><path d="M 98.261719 82.304688 L 100.980469 103.792969 L 94.253906 104.644531 L 91.535156 83.152344 Z M 98.261719 82.304688 " clip-rule="nonzero"/></clipPath><clipPath id="9116dc3846"><path d="M 98 103 L 105 103 L 105 124 L 98 124 Z M 98 103 " clip-rule="nonzero"/></clipPath><clipPath id="0e9dd93f46"><path d="M 101.804688 103.324219 L 104.574219 103.714844 L 101.761719 123.734375 L 98.992188 123.34375 Z M 101.804688 103.324219 " clip-rule="nonzero"/></clipPath><clipPath id="579b48258f"><path d="M 101.804688 103.324219 L 104.574219 103.714844 L 101.761719 123.730469 L 98.992188 123.34375 Z M 101.804688 103.324219 " clip-rule="nonzero"/></clipPath><clipPath id="417a7031a9"><path d="M 104.574219 103.324219 L 114.664062 103.324219 L 114.664062 106.46875 L 104.574219 106.46875 Z M 104.574219 103.324219 " clip-rule="nonzero"/></clipPath><clipPath id="d205ad9e00"><path d="M 97 99 L 109 99 L 109 110 L 97 110 Z M 97 99 " clip-rule="nonzero"/></clipPath><clipPath id="92f9605e5a"><path d="M 106.101562 99.742188 L 108.507812 105.324219 L 99.828125 109.066406 L 97.421875 103.484375 Z M 106.101562 99.742188 " clip-rule="nonzero"/></clipPath><clipPath id="0d4f3c0ee5"><path d="M 106.101562 99.742188 L 108.507812 105.324219 L 99.84375 109.058594 L 97.4375 103.476562 Z M 106.101562 99.742188 " clip-rule="nonzero"/></clipPath><clipPath id="d02f304ba5"><path d="M 114 84 L 126 84 L 126 106 L 114 106 Z M 114 84 " clip-rule="nonzero"/></clipPath><clipPath id="59bcbfaf12"><path d="M 112.34375 104 L 120.277344 83.839844 L 126.585938 86.324219 L 118.652344 106.480469 Z M 112.34375 104 " clip-rule="nonzero"/></clipPath><clipPath id="4108bf157f"><path d="M 112.34375 104 L 120.277344 83.839844 L 126.585938 86.324219 L 118.652344 106.480469 Z M 112.34375 104 " clip-rule="nonzero"/></clipPath><clipPath id="a66f54c49b"><path d="M 117 77 L 134 77 L 134 95 L 117 95 Z M 117 77 " clip-rule="nonzero"/></clipPath><clipPath id="88f3ad1045"><path d="M 131.988281 76.699219 L 134.757812 79.464844 L 118.816406 95.402344 L 116.050781 92.636719 Z M 131.988281 76.699219 " clip-rule="nonzero"/></clipPath><clipPath id="c1cafa4910"><path d="M 133.375 78.082031 C 132.609375 77.316406 128.421875 80.265625 124.023438 84.664062 C 119.621094 89.066406 116.671875 93.253906 117.4375 94.015625 C 118.203125 94.78125 122.386719 91.832031 126.789062 87.433594 C 131.1875 83.03125 134.136719 78.84375 133.375 78.082031 Z M 133.375 78.082031 " clip-rule="nonzero"/></clipPath><clipPath id="49a823c9f4"><path d="M 97 87 L 119 87 L 119 106 L 97 106 Z M 97 87 " clip-rule="nonzero"/></clipPath><clipPath id="e3819c4514"><path d="M 95.722656 89.667969 L 116.902344 85.15625 L 120.652344 102.761719 L 99.472656 107.273438 Z M 95.722656 89.667969 " clip-rule="nonzero"/></clipPath><clipPath id="9e9fe0ff98"><path d="M 106.308594 87.414062 C 100.460938 88.65625 96.5625 93.609375 97.597656 98.46875 C 98.632812 103.332031 104.210938 106.261719 110.058594 105.015625 C 115.90625 103.773438 119.804688 98.820312 118.769531 93.960938 C 117.734375 89.097656 112.15625 86.167969 106.308594 87.414062 Z M 106.308594 87.414062 " clip-rule="nonzero"/></clipPath><clipPath id="c266a3e513"><path d="M 99 78 L 121 78 L 121 97 L 99 97 Z M 99 78 " clip-rule="nonzero"/></clipPath><clipPath id="aea8ab19d6"><path d="M 97.4375 81.207031 L 118.621094 76.695312 L 122.371094 94.300781 L 101.1875 98.8125 Z M 97.4375 81.207031 " clip-rule="nonzero"/></clipPath><clipPath id="602132c161"><path d="M 108.027344 78.953125 C 102.179688 80.195312 98.277344 85.148438 99.3125 90.007812 C 100.347656 94.871094 105.929688 97.800781 111.773438 96.558594 C 117.621094 95.3125 121.523438 90.363281 120.488281 85.5 C 119.453125 80.640625 113.875 77.707031 108.027344 78.953125 Z M 108.027344 78.953125 " clip-rule="nonzero"/></clipPath><clipPath id="ed22830bfc"><path d="M 92 13 L 144 13 L 144 87 L 92 87 Z M 92 13 " clip-rule="nonzero"/></clipPath><clipPath id="6264c596f1"><path d="M 90.398438 14.441406 L 141.796875 11.921875 L 145.386719 85.203125 L 93.992188 87.722656 Z M 90.398438 14.441406 " clip-rule="nonzero"/></clipPath><clipPath id="fb06df8ebb"><path d="M 116.097656 13.179688 C 101.90625 13.875 91.203125 30.824219 92.191406 51.039062 C 93.183594 71.25 105.492188 87.074219 119.683594 86.375 C 133.878906 85.679688 144.582031 68.730469 143.589844 48.519531 C 142.597656 28.304688 130.289062 12.484375 116.097656 13.179688 Z M 116.097656 13.179688 " clip-rule="nonzero"/></clipPath><clipPath id="31bcbfd641"><path d="M 92 13 L 149 13 L 149 81 L 92 81 Z M 92 13 " clip-rule="nonzero"/></clipPath><clipPath id="0884449a3b"><path d="M 91.027344 14.984375 L 146.5 12.265625 L 149.769531 79.003906 L 94.296875 81.722656 Z M 91.027344 14.984375 " clip-rule="nonzero"/></clipPath><clipPath id="78e885c94e"><path d="M 118.761719 13.625 C 103.445312 14.375 91.757812 29.90625 92.660156 48.316406 C 93.5625 66.726562 106.710938 81.042969 122.03125 80.292969 C 137.347656 79.542969 149.035156 64.007812 148.132812 45.597656 C 147.230469 27.1875 134.082031 12.871094 118.761719 13.625 Z M 118.761719 13.625 " clip-rule="nonzero"/></clipPath><clipPath id="fd805fae11"><path d="M 134 27 L 142 27 L 142 37 L 134 37 Z M 134 27 " clip-rule="nonzero"/></clipPath><clipPath id="1dd3c32c16"><path d="M 133.039062 34.996094 L 134.730469 27.410156 L 142.476562 29.136719 L 140.785156 36.722656 Z M 133.039062 34.996094 " clip-rule="nonzero"/></clipPath><clipPath id="5756ed4a37"><path d="M 133.039062 34.996094 L 134.730469 27.410156 L 142.476562 29.136719 L 140.785156 36.722656 Z M 133.039062 34.996094 " clip-rule="nonzero"/></clipPath><clipPath id="b998a48cd4"><path d="M 128.894531 22.75 L 131.703125 22.75 L 131.703125 25.554688 L 128.894531 25.554688 Z M 128.894531 22.75 " clip-rule="nonzero"/></clipPath><clipPath id="9c51cfca3c"><path d="M 130.296875 22.75 C 129.523438 22.75 128.894531 23.378906 128.894531 24.152344 C 128.894531 24.925781 129.523438 25.554688 130.296875 25.554688 C 131.074219 25.554688 131.703125 24.925781 131.703125 24.152344 C 131.703125 23.378906 131.074219 22.75 130.296875 22.75 Z M 130.296875 22.75 " clip-rule="nonzero"/></clipPath><clipPath id="cb00d99e64"><path d="M 91 77 L 110 77 L 110 102 L 91 102 Z M 91 77 " clip-rule="nonzero"/></clipPath><clipPath id="43c6579d59"><path d="M 99.308594 75.097656 L 111.6875 98.257812 L 101.605469 103.648438 L 89.226562 80.488281 Z M 99.308594 75.097656 " clip-rule="nonzero"/></clipPath><clipPath id="f1963dac04"><path d="M 102.003906 80.140625 L 108.988281 93.203125 C 109.703125 94.539062 109.855469 96.105469 109.414062 97.554688 C 108.976562 99.007812 107.976562 100.222656 106.640625 100.9375 C 105.304688 101.652344 103.738281 101.808594 102.285156 101.367188 C 100.835938 100.925781 99.617188 99.929688 98.902344 98.59375 L 91.921875 85.527344 C 91.207031 84.191406 91.050781 82.625 91.492188 81.175781 C 91.929688 79.722656 92.929688 78.507812 94.265625 77.792969 C 95.605469 77.078125 97.171875 76.921875 98.621094 77.363281 C 100.070312 77.804688 101.289062 78.800781 102.003906 80.140625 Z M 102.003906 80.140625 " clip-rule="nonzero"/></clipPath><clipPath id="143e53bc53"><path d="M 92 80 L 110 80 L 110 106 L 92 106 Z M 92 80 " clip-rule="nonzero"/></clipPath><clipPath id="6c0a8eb45b"><path d="M 101.746094 78.414062 L 111.175781 102.921875 L 100.503906 107.027344 L 91.074219 82.519531 Z M 101.746094 78.414062 " clip-rule="nonzero"/></clipPath><clipPath id="05b1e16580"><path d="M 103.796875 83.75 L 109.117188 97.574219 C 109.660156 98.988281 109.621094 100.5625 109.007812 101.945312 C 108.390625 103.332031 107.25 104.417969 105.835938 104.960938 C 104.417969 105.503906 102.847656 105.464844 101.460938 104.851562 C 100.074219 104.234375 98.992188 103.09375 98.445312 101.679688 L 93.128906 87.855469 C 92.582031 86.4375 92.625 84.867188 93.238281 83.480469 C 93.855469 82.09375 94.996094 81.011719 96.410156 80.464844 C 97.824219 79.921875 99.398438 79.960938 100.785156 80.578125 C 102.171875 81.191406 103.253906 82.332031 103.796875 83.75 Z M 103.796875 83.75 " clip-rule="nonzero"/></clipPath><clipPath id="b2d15bcdd0"><path d="M 93 80 L 109 80 L 109 107 L 93 107 Z M 93 80 " clip-rule="nonzero"/></clipPath><clipPath id="6021c55621"><path d="M 103.855469 79.820312 L 109.097656 105.554688 L 97.894531 107.835938 L 92.652344 82.101562 Z M 103.855469 79.820312 " clip-rule="nonzero"/></clipPath><clipPath id="21f4850367"><path d="M 104.996094 85.421875 L 107.953125 99.9375 C 108.257812 101.421875 107.957031 102.964844 107.121094 104.230469 C 106.285156 105.496094 104.980469 106.375 103.492188 106.679688 C 102.007812 106.980469 100.460938 106.679688 99.199219 105.84375 C 97.933594 105.007812 97.054688 103.703125 96.75 102.21875 L 93.792969 87.703125 C 93.492188 86.21875 93.792969 84.671875 94.628906 83.410156 C 95.464844 82.144531 96.769531 81.265625 98.253906 80.960938 C 99.742188 80.660156 101.285156 80.957031 102.550781 81.796875 C 103.8125 82.632812 104.695312 83.9375 104.996094 85.421875 Z M 104.996094 85.421875 " clip-rule="nonzero"/></clipPath><clipPath id="e2c21e7116"><path d="M 80 41 L 148 41 L 148 62 L 80 62 Z M 80 41 " clip-rule="nonzero"/></clipPath><clipPath id="15b2f2b7d8"><path d="M 84.148438 24.59375 L 152.839844 42.972656 L 147.710938 62.144531 L 79.019531 43.761719 Z M 84.148438 24.59375 " clip-rule="nonzero"/></clipPath><clipPath id="cf6d079d10"><path d="M 84.148438 24.59375 L 152.839844 42.972656 L 147.710938 62.144531 L 79.019531 43.761719 Z M 84.148438 24.59375 " clip-rule="nonzero"/></clipPath><clipPath id="47de78a2a4"><path d="M 84 25 L 150 25 L 150 45 L 84 45 Z M 84 25 " clip-rule="nonzero"/></clipPath><clipPath id="282ad4956f"><path d="M 84.148438 24.59375 L 152.839844 42.972656 L 147.710938 62.144531 L 79.019531 43.761719 Z M 84.148438 24.59375 " clip-rule="nonzero"/></clipPath><clipPath id="b168f6e356"><path d="M 84.148438 24.59375 L 152.839844 42.972656 L 147.710938 62.144531 L 79.019531 43.761719 Z M 84.148438 24.59375 " clip-rule="nonzero"/></clipPath><clipPath id="70f98b493c"><path d="M 80 28 L 150 28 L 150 59 L 80 59 Z M 80 28 " clip-rule="nonzero"/></clipPath><clipPath id="8e3d36f678"><path d="M 84.148438 24.59375 L 152.839844 42.972656 L 147.710938 62.144531 L 79.019531 43.761719 Z M 84.148438 24.59375 " clip-rule="nonzero"/></clipPath><clipPath id="3339a4d144"><path d="M 84.148438 24.59375 L 152.839844 42.972656 L 147.710938 62.144531 L 79.019531 43.761719 Z M 84.148438 24.59375 " clip-rule="nonzero"/></clipPath></defs><g clip-path="url(#6adc4de631)"><g clip-path="url(#6a6dfe2d1b)"><path fill="#f8c038" d="M 17.152344 39.761719 L 101.585938 39.761719 L 101.585938 120.71875 L 17.152344 120.71875 Z M 17.152344 39.761719 " fill-opacity="1" fill-rule="nonzero"/></g></g><g clip-path="url(#f4d9f7ad8c)"><g clip-path="url(#813b4f2173)"><g clip-path="url(#83262d12bd)"><path fill="#f8c038" d="M 101.742188 79.175781 L 114.480469 73.09375 L 119.375 83.347656 L 106.636719 89.429688 Z M 101.742188 79.175781 " fill-opacity="1" fill-rule="nonzero"/></g></g></g><g clip-path="url(#7f6f8e9496)"><g clip-path="url(#dc0988c23f)"><g clip-path="url(#8726763abc)"><path fill="#f09020" d="M 92.164062 127.105469 L 76.867188 139.265625 L 68.738281 129.042969 L 84.035156 116.882812 Z M 92.164062 127.105469 " fill-opacity="1" fill-rule="nonzero"/></g></g></g><g clip-path="url(#c73eee13a0)"><g clip-path="url(#4f22b692b6)"><g clip-path="url(#d2a1c1df8b)"><path fill="#f09020" d="M 95.898438 131.117188 L 76.578125 134.058594 L 74.613281 121.144531 L 93.933594 118.207031 Z M 95.898438 131.117188 " fill-opacity="1" fill-rule="nonzero"/></g></g></g><g clip-path="url(#6b88834306)"><g clip-path="url(#1e52dcc8de)"><g clip-path="url(#9712e62c01)"><path fill="#f09020" d="M 48.519531 133.332031 L 28.976562 133.59375 L 28.804688 120.53125 L 48.34375 120.273438 Z M 48.519531 133.332031 " fill-opacity="1" fill-rule="nonzero"/></g></g></g><g clip-path="url(#22eca969d4)"><g clip-path="url(#00e291bbb5)"><g clip-path="url(#0ed00f83de)"><path fill="#f09020" d="M 49.015625 138.792969 L 31.9375 129.296875 L 38.28125 117.882812 L 55.363281 127.375 Z M 49.015625 138.792969 " fill-opacity="1" fill-rule="nonzero"/></g></g></g><g clip-path="url(#832708d6f4)"><g clip-path="url(#1d4d90e35b)"><path fill="#fddc66" d="M 31.160156 67.773438 L 88.996094 67.773438 L 88.996094 117.125 L 31.160156 117.125 Z M 31.160156 67.773438 " fill-opacity="1" fill-rule="nonzero"/></g></g><g clip-path="url(#f46c76bc84)"><g clip-path="url(#80d1e6b6cf)"><path fill="#ffffff" d="M 37.886719 55.308594 L 57.339844 55.308594 L 57.339844 80.230469 L 37.886719 80.230469 Z M 37.886719 55.308594 " fill-opacity="1" fill-rule="nonzero"/></g></g><g clip-path="url(#5c8877ed9e)"><g clip-path="url(#d3f71d7b37)"><path fill="#ffffff" d="M 61.554688 55.308594 L 81.007812 55.308594 L 81.007812 80.230469 L 61.554688 80.230469 Z M 61.554688 55.308594 " fill-opacity="1" fill-rule="nonzero"/></g></g><g clip-path="url(#59c48f0ec3)"><g clip-path="url(#209d656373)"><path fill="#4b4b4b" d="M 65.71875 60.378906 L 76.839844 60.378906 L 76.839844 75.714844 L 65.71875 75.714844 Z M 65.71875 60.378906 " fill-opacity="1" fill-rule="nonzero"/></g></g><g clip-path="url(#c3ea79fb9c)"><g clip-path="url(#b22036577d)"><path fill="#ffffff" d="M 70.398438 60.378906 L 75.351562 60.378906 L 75.351562 66.042969 L 70.398438 66.042969 Z M 70.398438 60.378906 " fill-opacity="1" fill-rule="nonzero"/></g></g><g clip-path="url(#95e217f131)"><g clip-path="url(#6aa9f35a92)"><path fill="#4b4b4b" d="M 41.699219 60.101562 L 52.820312 60.101562 L 52.820312 75.441406 L 41.699219 75.441406 Z M 41.699219 60.101562 " fill-opacity="1" fill-rule="nonzero"/></g></g><g clip-path="url(#4fea4b1e65)"><g clip-path="url(#7b87af5f63)"><path fill="#ffffff" d="M 46.863281 60.101562 L 51.8125 60.101562 L 51.8125 65.769531 L 46.863281 65.769531 Z M 46.863281 60.101562 " fill-opacity="1" fill-rule="nonzero"/></g></g><g clip-path="url(#9d4deef11c)"><path fill="#f86018" d="M 66.816406 80.066406 C 66.816406 80.546875 66.769531 81.023438 66.675781 81.496094 C 66.582031 81.964844 66.445312 82.425781 66.257812 82.871094 C 66.074219 83.3125 65.847656 83.734375 65.582031 84.136719 C 65.316406 84.535156 65.011719 84.90625 64.671875 85.246094 C 64.332031 85.585938 63.960938 85.890625 63.5625 86.15625 C 63.160156 86.425781 62.738281 86.648438 62.292969 86.835938 C 61.851562 87.019531 61.390625 87.15625 60.917969 87.25 C 60.449219 87.34375 59.972656 87.390625 59.492188 87.390625 C 59.007812 87.390625 58.53125 87.34375 58.0625 87.25 C 57.589844 87.15625 57.132812 87.019531 56.6875 86.835938 C 56.242188 86.648438 55.820312 86.425781 55.421875 86.15625 C 55.019531 85.890625 54.648438 85.585938 54.308594 85.246094 C 53.96875 84.90625 53.667969 84.535156 53.398438 84.136719 C 53.132812 83.734375 52.90625 83.3125 52.722656 82.871094 C 52.539062 82.425781 52.398438 81.964844 52.304688 81.496094 C 52.210938 81.023438 52.164062 80.546875 52.164062 80.066406 C 52.164062 79.585938 52.210938 79.109375 52.304688 78.636719 C 52.398438 78.164062 52.539062 77.707031 52.722656 77.261719 C 52.90625 76.816406 53.132812 76.394531 53.398438 75.996094 C 53.667969 75.59375 53.96875 75.226562 54.308594 74.886719 C 54.648438 74.542969 55.019531 74.242188 55.421875 73.972656 C 55.820312 73.707031 56.242188 73.480469 56.6875 73.296875 C 57.132812 73.113281 57.589844 72.972656 58.0625 72.878906 C 58.53125 72.785156 59.007812 72.738281 59.492188 72.738281 C 59.972656 72.738281 60.449219 72.785156 60.917969 72.878906 C 61.390625 72.972656 61.851562 73.113281 62.292969 73.296875 C 62.738281 73.480469 63.160156 73.707031 63.5625 73.972656 C 63.960938 74.242188 64.332031 74.542969 64.671875 74.886719 C 65.011719 75.226562 65.316406 75.59375 65.582031 75.996094 C 65.847656 76.394531 66.074219 76.816406 66.257812 77.261719 C 66.445312 77.707031 66.582031 78.164062 66.675781 78.636719 C 66.769531 79.109375 66.816406 79.585938 66.816406 80.066406 Z M 66.816406 80.066406 " fill-opacity="1" fill-rule="nonzero"/></g><g clip-path="url(#d16fe7c788)"><path fill="#f09020" d="M 68.734375 82.375 C 68.734375 82.984375 68.675781 83.585938 68.554688 84.183594 C 68.4375 84.78125 68.261719 85.363281 68.027344 85.925781 C 67.792969 86.492188 67.507812 87.027344 67.167969 87.53125 C 66.828125 88.039062 66.445312 88.507812 66.011719 88.941406 C 65.582031 89.371094 65.113281 89.757812 64.605469 90.09375 C 64.097656 90.433594 63.5625 90.71875 63 90.953125 C 62.4375 91.1875 61.855469 91.363281 61.257812 91.480469 C 60.660156 91.601562 60.058594 91.660156 59.445312 91.660156 C 58.835938 91.660156 58.234375 91.601562 57.636719 91.480469 C 57.039062 91.363281 56.457031 91.1875 55.894531 90.953125 C 55.332031 90.71875 54.796875 90.433594 54.289062 90.09375 C 53.78125 89.757812 53.3125 89.371094 52.878906 88.941406 C 52.449219 88.507812 52.066406 88.039062 51.726562 87.53125 C 51.386719 87.027344 51.101562 86.492188 50.867188 85.925781 C 50.632812 85.363281 50.457031 84.78125 50.339844 84.183594 C 50.21875 83.585938 50.160156 82.984375 50.160156 82.375 C 50.160156 81.765625 50.21875 81.160156 50.339844 80.5625 C 50.457031 79.964844 50.632812 79.382812 50.867188 78.820312 C 51.101562 78.257812 51.386719 77.722656 51.726562 77.214844 C 52.066406 76.707031 52.449219 76.238281 52.878906 75.808594 C 53.3125 75.375 53.78125 74.992188 54.289062 74.652344 C 54.796875 74.3125 55.332031 74.027344 55.894531 73.792969 C 56.457031 73.5625 57.039062 73.382812 57.636719 73.265625 C 58.234375 73.148438 58.835938 73.085938 59.445312 73.085938 C 60.058594 73.085938 60.660156 73.148438 61.257812 73.265625 C 61.855469 73.382812 62.4375 73.5625 63 73.792969 C 63.5625 74.027344 64.097656 74.3125 64.605469 74.652344 C 65.113281 74.992188 65.582031 75.375 66.011719 75.808594 C 66.445312 76.238281 66.828125 76.707031 67.167969 77.214844 C 67.507812 77.722656 67.792969 78.257812 68.027344 78.820312 C 68.261719 79.382812 68.4375 79.964844 68.554688 80.5625 C 68.675781 81.160156 68.734375 81.765625 68.734375 82.375 Z M 68.734375 82.375 " fill-opacity="1" fill-rule="nonzero"/></g><g clip-path="url(#00e9d755b1)"><g clip-path="url(#a765a1fab2)"><path fill="#ffffff" d="M 61.707031 74.667969 L 65.574219 74.667969 L 65.574219 77.9375 L 61.707031 77.9375 Z M 61.707031 74.667969 " fill-opacity="1" fill-rule="nonzero"/></g></g><g clip-path="url(#ffebc7f2d3)"><g clip-path="url(#d4cb19317d)"><path fill="#ffffff" d="M 65.097656 78.480469 L 66.761719 78.480469 L 66.761719 80.144531 L 65.097656 80.144531 Z M 65.097656 78.480469 " fill-opacity="1" fill-rule="nonzero"/></g></g><path stroke-linecap="round" transform="matrix(-0.165366, 0.000000000288618, -0.000000000288618, -0.165366, 54.702075, 80.488123)" fill="none" stroke-linejoin="miter" d="M 1.505448 1.510841 L 17.450202 1.510841 " stroke="#c8831a" stroke-width="3" stroke-opacity="1" stroke-miterlimit="4"/><path stroke-linecap="round" transform="matrix(-0.165366, -0.000000000288618, 0.000000000288618, -0.165366, 54.703431, 78.736989)" fill="none" stroke-linejoin="miter" d="M 1.490027 1.503987 L 10.513576 1.503987 " stroke="#c8831a" stroke-width="3" stroke-opacity="1" stroke-miterlimit="4"/><path stroke-linecap="round" transform="matrix(-0.165366, -0.000000000288618, 0.000000000288618, -0.165366, 54.703613, 77.117635)" fill="none" stroke-linejoin="miter" d="M 1.49113 1.490884 L 5.459602 1.490884 " stroke="#c8831a" stroke-width="3" stroke-opacity="1" stroke-miterlimit="4"/><g clip-path="url(#7329c9fa96)"><path fill="#39b54a" d="M 59.015625 34.605469 C 58.726562 33.945312 58.304688 32.660156 58.722656 31.289062 C 59.40625 29.039062 62.09375 27.425781 65.324219 27.632812 C 65.753906 30.378906 64.695312 32.953125 62.703125 34.101562 C 61.359375 34.871094 59.96875 34.78125 59.308594 34.691406 C 59.984375 34.179688 60.742188 33.519531 61.5 32.6875 C 62.667969 31.398438 63.449219 30.121094 63.964844 29.101562 C 63.222656 30.140625 62.332031 31.261719 61.265625 32.40625 C 60.496094 33.230469 59.738281 33.960938 59.015625 34.605469 Z M 59.015625 34.605469 " fill-opacity="1" fill-rule="nonzero"/></g><g clip-path="url(#0ed8ee550f)"><path fill="#39b54a" d="M 58.152344 34.675781 C 57.648438 34.832031 56.675781 35.03125 55.714844 34.609375 C 54.132812 33.917969 53.1875 31.816406 53.617188 29.46875 C 55.652344 29.386719 57.433594 30.382812 58.097656 31.9375 C 58.546875 32.984375 58.363281 33.996094 58.238281 34.46875 C 57.921875 33.929688 57.507812 33.320312 56.964844 32.695312 C 56.128906 31.734375 55.265625 31.054688 54.570312 30.589844 C 55.261719 31.21875 56 31.96875 56.742188 32.84375 C 57.277344 33.476562 57.746094 34.09375 58.152344 34.675781 Z M 58.152344 34.675781 " fill-opacity="1" fill-rule="nonzero"/></g><g clip-path="url(#1752fa2fec)"><g clip-path="url(#b6383f5d9c)"><g clip-path="url(#be28e0dff5)"><path fill="#f8c038" d="M 4.902344 79.21875 L 17.636719 85.308594 L 12.730469 95.558594 L 0 89.46875 Z M 4.902344 79.21875 " fill-opacity="1" fill-rule="nonzero"/></g></g></g><g clip-path="url(#e008a65592)"><g clip-path="url(#802b852dad)"><g clip-path="url(#7d7c22c061)"><path fill="#f7eee1" d="M 102.058594 101.480469 L 110.511719 102.671875 L 106.605469 130.472656 L 98.152344 129.285156 Z M 102.058594 101.480469 " fill-opacity="1" fill-rule="nonzero"/></g></g></g><g clip-path="url(#12e9a06e7e)"><g clip-path="url(#02efb53ebb)"><g clip-path="url(#cf8c8632e6)"><path fill="#f7eee1" d="M 94.933594 122.171875 L 106.25 129.292969 L 99.5 140.019531 L 88.183594 132.902344 Z M 94.933594 122.171875 " fill-opacity="1" fill-rule="nonzero"/></g></g></g><g clip-path="url(#5ead589a1f)"><g clip-path="url(#aba4045340)"><g clip-path="url(#72dec90646)"><path fill="#f7eee1" d="M 104.4375 122.929688 L 116.882812 130.761719 L 110.132812 141.492188 L 97.6875 133.660156 Z M 104.4375 122.929688 " fill-opacity="1" fill-rule="nonzero"/></g></g></g><g clip-path="url(#df24db316a)"><g clip-path="url(#6fdc5dce8a)"><g clip-path="url(#14d9a2e0bd)"><path fill="#f7eee1" d="M 93.449219 125.636719 L 99.742188 122.539062 L 100.984375 125.066406 L 94.691406 128.164062 Z M 93.449219 125.636719 " fill-opacity="1" fill-rule="nonzero"/></g></g></g><g clip-path="url(#e8ad62e3f1)"><g clip-path="url(#7d786d3c16)"><g clip-path="url(#ef220ec83e)"><path fill="#f7eee1" d="M 107.628906 123.179688 L 112.34375 128.375 L 110.257812 130.269531 L 105.542969 125.074219 Z M 107.628906 123.179688 " fill-opacity="1" fill-rule="nonzero"/></g></g></g><g clip-path="url(#f6dc07bad8)"><g clip-path="url(#263ce80ecf)"><path fill="#de773c" d="M 82.074219 12.914062 L 147.800781 12.914062 L 147.800781 78.640625 L 82.074219 78.640625 Z M 82.074219 12.914062 " fill-opacity="1" fill-rule="nonzero"/></g></g><g clip-path="url(#eb056cd4dd)"><g clip-path="url(#2481f76730)"><g clip-path="url(#48e4cb193d)"><path fill="#de773c" d="M 76.382812 28 L 114.121094 20.707031 L 126.597656 85.28125 L 88.855469 92.570312 Z M 76.382812 28 " fill-opacity="1" fill-rule="nonzero"/></g></g></g><g clip-path="url(#6bad12b85a)"><g clip-path="url(#d2cf9cad46)"><g clip-path="url(#482ff8e628)"><path fill="#de773c" d="M 124.300781 22.75 L 156.835938 43.214844 L 121.816406 98.882812 L 89.28125 78.417969 Z M 124.300781 22.75 " fill-opacity="1" fill-rule="nonzero"/></g></g></g><g clip-path="url(#ee40a0c1db)"><g clip-path="url(#d4205d54d2)"><g clip-path="url(#01726c0102)"><path fill="#de773c" d="M 96.589844 98.578125 L 104.511719 103.5625 L 99.699219 111.210938 L 91.777344 106.230469 Z M 96.589844 98.578125 " fill-opacity="1" fill-rule="nonzero"/></g></g></g><g clip-path="url(#ed4edb079a)"><g clip-path="url(#2cd438fe33)"><g clip-path="url(#5092af82ed)"><path fill="#de773c" d="M 114.949219 99.800781 L 120.675781 103.402344 L 117.15625 108.996094 L 111.429688 105.394531 Z M 114.949219 99.800781 " fill-opacity="1" fill-rule="nonzero"/></g></g></g><g clip-path="url(#87a9b74a17)"><g clip-path="url(#6323b4143e)"><g clip-path="url(#a0f6aea9a1)"><path fill="#de773c" d="M 134.980469 72.800781 L 137.746094 75.566406 L 121.808594 91.503906 L 119.042969 88.738281 Z M 134.980469 72.800781 " fill-opacity="1" fill-rule="nonzero"/></g></g></g><g clip-path="url(#a0bdfb74c6)"><g clip-path="url(#378335021b)"><g clip-path="url(#53c5d57e6d)"><path fill="#de773c" d="M 78.683594 34.644531 L 116.425781 27.355469 L 128.902344 91.925781 L 91.160156 99.21875 Z M 78.683594 34.644531 " fill-opacity="1" fill-rule="nonzero"/></g></g></g><g clip-path="url(#9172675185)"><g clip-path="url(#a2bfcda176)"><g clip-path="url(#e6f0c31c93)"><path fill="#de773c" d="M 85.035156 59.171875 L 108.261719 54.226562 L 116.046875 90.789062 L 92.820312 95.734375 Z M 85.035156 59.171875 " fill-opacity="1" fill-rule="nonzero"/></g></g></g><g clip-path="url(#b203c642b5)"><g clip-path="url(#6a224dc0df)"><g clip-path="url(#195cd669c3)"><path fill="#de773c" d="M 91.9375 85.023438 C 91.886719 85.058594 91.859375 85.105469 91.851562 85.167969 C 91.84375 85.230469 91.859375 85.28125 91.902344 85.328125 C 93.441406 87.027344 94.695312 90.0625 95.144531 93.621094 C 95.597656 97.179688 95.136719 100.429688 94.066406 102.460938 C 94.035156 102.515625 94.035156 102.570312 94.054688 102.628906 C 94.078125 102.683594 94.117188 102.722656 94.175781 102.746094 L 98.0625 104.128906 C 98.179688 104.167969 98.261719 104.132812 98.316406 104.023438 C 98.539062 103.542969 98.730469 103.050781 98.898438 102.546875 C 99.789062 99.847656 100.046875 96.476562 99.613281 93.054688 C 99.179688 89.636719 98.097656 86.4375 96.558594 84.042969 C 96.273438 83.597656 95.964844 83.167969 95.628906 82.757812 C 95.550781 82.664062 95.460938 82.652344 95.359375 82.71875 Z M 91.9375 85.023438 " fill-opacity="1" fill-rule="nonzero"/></g></g></g><g clip-path="url(#9116dc3846)"><g clip-path="url(#0e9dd93f46)"><g clip-path="url(#579b48258f)"><path fill="#e4d3c8" d="M 101.804688 103.324219 L 104.574219 103.714844 L 101.761719 123.734375 L 98.992188 123.34375 Z M 101.804688 103.324219 " fill-opacity="1" fill-rule="nonzero"/></g></g></g><g clip-path="url(#417a7031a9)"><path fill="#de773c" d="M 105.464844 106.410156 C 105.496094 106.472656 105.542969 106.484375 105.601562 106.445312 C 106.480469 105.832031 107.953125 105.429688 109.625 105.429688 C 111.296875 105.429688 112.773438 105.832031 113.648438 106.445312 C 113.707031 106.484375 113.753906 106.472656 113.785156 106.410156 L 114.652344 104.691406 C 114.679688 104.640625 114.667969 104.601562 114.617188 104.570312 C 114.410156 104.441406 114.195312 104.320312 113.972656 104.214844 C 112.773438 103.644531 111.230469 103.328125 109.625 103.328125 C 108.019531 103.328125 106.476562 103.644531 105.28125 104.214844 C 105.058594 104.320312 104.84375 104.441406 104.632812 104.570312 C 104.585938 104.601562 104.574219 104.640625 104.597656 104.691406 Z M 105.464844 106.410156 " fill-opacity="1" fill-rule="nonzero"/></g><g clip-path="url(#d205ad9e00)"><g clip-path="url(#92f9605e5a)"><g clip-path="url(#0d4f3c0ee5)"><path fill="#de773c" d="M 106.101562 99.742188 L 108.507812 105.324219 L 99.847656 109.058594 L 97.441406 103.472656 Z M 106.101562 99.742188 " fill-opacity="1" fill-rule="nonzero"/></g></g></g><g clip-path="url(#d02f304ba5)"><g clip-path="url(#59bcbfaf12)"><g clip-path="url(#4108bf157f)"><path fill="#de773c" d="M 119.199219 104.644531 C 119.261719 104.640625 119.308594 104.613281 119.34375 104.5625 C 119.378906 104.511719 119.390625 104.457031 119.375 104.398438 C 118.839844 102.167969 119.195312 98.902344 120.511719 95.566406 C 121.824219 92.226562 123.789062 89.597656 125.699219 88.332031 C 125.753906 88.296875 125.78125 88.25 125.789062 88.1875 C 125.796875 88.125 125.78125 88.074219 125.738281 88.027344 L 122.996094 84.949219 C 122.914062 84.855469 122.824219 84.847656 122.722656 84.921875 C 122.296875 85.234375 121.890625 85.574219 121.503906 85.9375 C 119.425781 87.875 117.582031 90.707031 116.320312 93.917969 C 115.058594 97.125 114.472656 100.453125 114.671875 103.289062 C 114.710938 103.816406 114.777344 104.34375 114.875 104.863281 C 114.894531 104.984375 114.96875 105.039062 115.089844 105.027344 Z M 119.199219 104.644531 " fill-opacity="1" fill-rule="nonzero"/></g></g></g><g clip-path="url(#a66f54c49b)"><g clip-path="url(#88f3ad1045)"><g clip-path="url(#c1cafa4910)"><path fill="#de773c" d="M 131.988281 76.699219 L 134.757812 79.464844 L 118.816406 95.402344 L 116.050781 92.636719 Z M 131.988281 76.699219 " fill-opacity="1" fill-rule="nonzero"/></g></g></g><g clip-path="url(#49a823c9f4)"><g clip-path="url(#e3819c4514)"><g clip-path="url(#9e9fe0ff98)"><path fill="#de773c" d="M 95.722656 89.667969 L 116.902344 85.15625 L 120.652344 102.761719 L 99.472656 107.273438 Z M 95.722656 89.667969 " fill-opacity="1" fill-rule="nonzero"/></g></g></g><g clip-path="url(#c266a3e513)"><g clip-path="url(#aea8ab19d6)"><g clip-path="url(#602132c161)"><path fill="#de773c" d="M 97.4375 81.207031 L 118.621094 76.695312 L 122.371094 94.300781 L 101.1875 98.8125 Z M 97.4375 81.207031 " fill-opacity="1" fill-rule="nonzero"/></g></g></g><g clip-path="url(#ed22830bfc)"><g clip-path="url(#6264c596f1)"><g clip-path="url(#fb06df8ebb)"><path fill="#f4a043" d="M 90.398438 14.441406 L 141.796875 11.921875 L 145.386719 85.203125 L 93.992188 87.722656 Z M 90.398438 14.441406 " fill-opacity="1" fill-rule="nonzero"/></g></g></g><g clip-path="url(#31bcbfd641)"><g clip-path="url(#0884449a3b)"><g clip-path="url(#78e885c94e)"><path fill="#f4a043" d="M 91.027344 14.984375 L 146.5 12.265625 L 149.769531 79.003906 L 94.296875 81.722656 Z M 91.027344 14.984375 " fill-opacity="1" fill-rule="nonzero"/></g></g></g><g clip-path="url(#fd805fae11)"><g clip-path="url(#1dd3c32c16)"><g clip-path="url(#5756ed4a37)"><path fill="#ffffff" d="M 135.128906 27.8125 C 134.667969 28.066406 134.457031 28.636719 134.722656 29.105469 C 134.839844 29.308594 135.023438 29.476562 135.179688 29.644531 C 135.367188 29.839844 135.558594 30.035156 135.746094 30.230469 C 136.101562 30.605469 136.460938 30.980469 136.796875 31.375 C 136.875 31.46875 136.957031 31.5625 137.039062 31.652344 L 137.097656 31.75 C 137.324219 32.125 137.539062 32.496094 137.691406 32.910156 C 137.84375 33.320312 137.914062 33.742188 137.980469 34.171875 C 138.117188 35.039062 138.421875 35.972656 139.332031 36.289062 C 140.136719 36.570312 140.804688 35.992188 141.023438 35.25 C 141.257812 34.453125 141.0625 33.546875 140.839844 32.773438 C 140.601562 31.921875 140.230469 31.132812 139.730469 30.40625 C 139.210938 29.636719 138.574219 28.980469 137.820312 28.441406 C 137.40625 28.152344 136.957031 27.929688 136.476562 27.78125 C 136.039062 27.644531 135.542969 27.582031 135.128906 27.8125 Z M 135.128906 27.8125 " fill-opacity="1" fill-rule="nonzero"/></g></g></g><g clip-path="url(#b998a48cd4)"><g clip-path="url(#9c51cfca3c)"><path fill="#ffffff" d="M 128.894531 22.75 L 131.703125 22.75 L 131.703125 25.554688 L 128.894531 25.554688 Z M 128.894531 22.75 " fill-opacity="1" fill-rule="nonzero"/></g></g><g clip-path="url(#cb00d99e64)"><g clip-path="url(#43c6579d59)"><g clip-path="url(#f1963dac04)"><path fill="#de773c" d="M 99.308594 75.097656 L 111.6875 98.257812 L 101.605469 103.648438 L 89.226562 80.488281 Z M 99.308594 75.097656 " fill-opacity="1" fill-rule="nonzero"/></g></g></g><g clip-path="url(#143e53bc53)"><g clip-path="url(#6c0a8eb45b)"><g clip-path="url(#05b1e16580)"><path fill="#de773c" d="M 101.746094 78.414062 L 111.175781 102.921875 L 100.503906 107.027344 L 91.074219 82.519531 Z M 101.746094 78.414062 " fill-opacity="1" fill-rule="nonzero"/></g></g></g><g clip-path="url(#b2d15bcdd0)"><g clip-path="url(#6021c55621)"><g clip-path="url(#21f4850367)"><path fill="#de773c" d="M 103.855469 79.820312 L 109.097656 105.554688 L 97.894531 107.835938 L 92.652344 82.101562 Z M 103.855469 79.820312 " fill-opacity="1" fill-rule="nonzero"/></g></g></g><g clip-path="url(#e2c21e7116)"><g clip-path="url(#15b2f2b7d8)"><g clip-path="url(#cf6d079d10)"><path fill="#ffffff" d="M 81.101562 44.304688 L 145.664062 61.578125 L 147.28125 59.597656 L 80.691406 41.777344 Z M 81.101562 44.304688 " fill-opacity="1" fill-rule="nonzero"/></g></g></g><g clip-path="url(#47de78a2a4)"><g clip-path="url(#282ad4956f)"><g clip-path="url(#b168f6e356)"><path fill="#ffffff" d="M 150.789062 42.425781 L 86.226562 25.152344 L 84.613281 27.132812 L 151.199219 44.949219 Z M 150.789062 42.425781 " fill-opacity="1" fill-rule="nonzero"/></g></g></g><g clip-path="url(#70f98b493c)"><g clip-path="url(#8e3d36f678)"><g clip-path="url(#3339a4d144)"><path fill="#ffffff" d="M 151.320312 46.191406 L 83.886719 28.148438 C 82.605469 30.621094 81.855469 33.160156 81.585938 34.171875 C 80.949219 36.554688 80.652344 38.9375 80.574219 40.539062 L 148 58.582031 C 148.734375 57.152344 149.667969 54.945312 150.304688 52.558594 C 150.578125 51.546875 151.195312 48.972656 151.320312 46.191406 Z M 116.308594 48.285156 C 114.699219 47.757812 114.023438 45.890625 113.367188 44.078125 C 112.441406 41.519531 112.46875 39.210938 112.582031 37.882812 C 113.339844 39.625 114.148438 40.964844 114.765625 41.886719 C 116.011719 43.75 116.675781 44.710938 117.921875 45.296875 C 119.4375 46.007812 120.988281 45.773438 121.929688 45.515625 C 120.277344 47.683594 118.039062 48.855469 116.308594 48.285156 Z M 116.308594 48.285156 " fill-opacity="1" fill-rule="nonzero"/></g></g></g></svg>