<svg xmlns="http://www.w3.org/2000/svg" xmlns:xlink="http://www.w3.org/1999/xlink" width="200" zoomAndPan="magnify" viewBox="0 0 150 149.999998" height="200" preserveAspectRatio="xMidYMid meet" version="1.0"><defs><clipPath id="74937c64e9"><path d="M 21.550781 26.609375 L 128 26.609375 L 128 128.320312 L 21.550781 128.320312 Z M 21.550781 26.609375 " clip-rule="nonzero"/></clipPath><clipPath id="6a82de784f"><path d="M 74.6875 26.609375 C 45.339844 26.609375 21.550781 49.378906 21.550781 77.464844 C 21.550781 105.550781 45.339844 128.320312 74.6875 128.320312 C 104.035156 128.320312 127.828125 105.550781 127.828125 77.464844 C 127.828125 49.378906 104.035156 26.609375 74.6875 26.609375 Z M 74.6875 26.609375 " clip-rule="nonzero"/></clipPath><clipPath id="4b4e988b4d"><path d="M 130 71 L 148 71 L 148 87 L 130 87 Z M 130 71 " clip-rule="nonzero"/></clipPath><clipPath id="93ca1eb5f5"><path d="M 127.828125 76.128906 L 143.878906 68.464844 L 150.03125 81.347656 L 133.976562 89.011719 Z M 127.828125 76.128906 " clip-rule="nonzero"/></clipPath><clipPath id="f84f101b34"><path d="M 135.839844 72.304688 C 131.414062 74.414062 129.203125 79.011719 130.902344 82.570312 C 132.601562 86.125 137.5625 87.296875 141.988281 85.1875 C 146.414062 83.074219 148.625 78.476562 146.925781 74.917969 C 145.226562 71.363281 140.261719 70.191406 135.839844 72.304688 Z M 135.839844 72.304688 " clip-rule="nonzero"/></clipPath><clipPath id="8e784aa52a"><path d="M 79 127 L 96 127 L 96 143 L 79 143 Z M 79 127 " clip-rule="nonzero"/></clipPath><clipPath id="d1484d4f0c"><path d="M 98.160156 134.011719 L 84.105469 145.183594 L 76.65625 135.8125 L 90.710938 124.640625 Z M 98.160156 134.011719 " clip-rule="nonzero"/></clipPath><clipPath id="18219afea3"><path d="M 91.148438 139.585938 C 95.019531 136.503906 96.492188 131.914062 94.433594 129.324219 C 92.378906 126.738281 87.570312 127.136719 83.699219 130.214844 C 79.828125 133.292969 78.355469 137.886719 80.414062 140.472656 C 82.46875 143.058594 87.277344 142.664062 91.148438 139.585938 Z M 91.148438 139.585938 " clip-rule="nonzero"/></clipPath><clipPath id="3b09c82a80"><path d="M 82 127 L 101 127 L 101 140 L 82 140 Z M 82 127 " clip-rule="nonzero"/></clipPath><clipPath id="b3fbd5dcaf"><path d="M 101.582031 137.6875 L 83.832031 140.390625 L 82.03125 128.554688 L 99.78125 125.855469 Z M 101.582031 137.6875 " clip-rule="nonzero"/></clipPath><clipPath id="141920da5b"><path d="M 92.726562 139.035156 C 97.617188 138.289062 101.179688 135.039062 100.679688 131.769531 C 100.183594 128.503906 95.816406 126.457031 90.925781 127.203125 C 86.035156 127.945312 82.476562 131.199219 82.972656 134.464844 C 83.46875 137.734375 87.835938 139.78125 92.726562 139.035156 Z M 92.726562 139.035156 " clip-rule="nonzero"/></clipPath><clipPath id="c48a425f56"><path d="M 42 122 L 67 122 L 67 139 L 42 139 Z M 42 122 " clip-rule="nonzero"/></clipPath><clipPath id="f401f35286"><path d="M 66.921875 138.296875 L 42.308594 138.625 L 42.089844 122.214844 L 66.703125 121.886719 Z M 66.921875 138.296875 " clip-rule="nonzero"/></clipPath><clipPath id="d83809887d"><path d="M 54.644531 138.460938 C 61.425781 138.371094 66.875 134.625 66.8125 130.09375 C 66.753906 125.5625 61.207031 121.960938 54.425781 122.050781 C 47.644531 122.140625 42.195312 125.886719 42.253906 130.417969 C 42.316406 134.949219 47.863281 138.550781 54.644531 138.460938 Z M 54.644531 138.460938 " clip-rule="nonzero"/></clipPath><clipPath id="e06d68cb43"><path d="M 49 122 L 73 122 L 73 142 L 49 142 Z M 49 122 " clip-rule="nonzero"/></clipPath><clipPath id="cbcec3abbc"><path d="M 67.550781 145.15625 L 46.035156 133.195312 L 54.007812 118.851562 L 75.523438 130.8125 Z M 67.550781 145.15625 " clip-rule="nonzero"/></clipPath><clipPath id="c286201c59"><path d="M 56.816406 139.191406 C 62.742188 142.484375 69.332031 141.945312 71.535156 137.984375 C 73.738281 134.023438 70.714844 128.140625 64.789062 124.847656 C 58.859375 121.550781 52.269531 122.089844 50.070312 126.050781 C 47.867188 130.011719 50.886719 135.894531 56.816406 139.191406 Z M 56.816406 139.191406 " clip-rule="nonzero"/></clipPath><clipPath id="7e6222bce4"><path d="M 39.148438 61.800781 L 112 61.800781 L 112 123.808594 L 39.148438 123.808594 Z M 39.148438 61.800781 " clip-rule="nonzero"/></clipPath><clipPath id="379cd9d068"><path d="M 75.523438 61.800781 C 55.433594 61.800781 39.148438 75.683594 39.148438 92.804688 C 39.148438 109.925781 55.433594 123.808594 75.523438 123.808594 C 95.613281 123.808594 111.898438 109.925781 111.898438 92.804688 C 111.898438 75.683594 95.613281 61.800781 75.523438 61.800781 Z M 75.523438 61.800781 " clip-rule="nonzero"/></clipPath><clipPath id="5fa7376c60"><path d="M 65.539062 78.308594 L 83.972656 78.308594 L 83.972656 86.414062 L 65.539062 86.414062 Z M 65.539062 78.308594 " clip-rule="nonzero"/></clipPath><clipPath id="455e276b7d"><path d="M 63.019531 68.476562 L 86.320312 68.476562 L 86.320312 79.824219 L 63.019531 79.824219 Z M 63.019531 68.476562 " clip-rule="nonzero"/></clipPath><clipPath id="99203393a7"><path d="M 77.71875 70.65625 L 82.191406 70.65625 L 82.191406 74.378906 L 77.71875 74.378906 Z M 77.71875 70.65625 " clip-rule="nonzero"/></clipPath><clipPath id="d7445d8abf"><path d="M 78.820312 70.695312 C 80.359375 71.382812 80.984375 71.804688 81.367188 72.160156 C 81.675781 72.445312 81.972656 72.8125 82.089844 73.035156 C 82.148438 73.148438 82.164062 73.222656 82.175781 73.320312 C 82.1875 73.417969 82.179688 73.523438 82.160156 73.617188 C 82.136719 73.714844 82.105469 73.8125 82.058594 73.898438 C 82.007812 73.984375 81.945312 74.0625 81.867188 74.125 C 81.792969 74.191406 81.707031 74.246094 81.613281 74.285156 C 81.523438 74.320312 81.421875 74.347656 81.324219 74.355469 C 81.226562 74.359375 81.121094 74.355469 81.027344 74.328125 C 80.933594 74.300781 80.835938 74.261719 80.753906 74.207031 C 80.675781 74.152344 80.59375 74.078125 80.535156 74.003906 C 80.476562 73.925781 80.425781 73.835938 80.394531 73.742188 C 80.359375 73.652344 80.339844 73.546875 80.339844 73.453125 C 80.339844 73.355469 80.351562 73.246094 80.382812 73.15625 C 80.414062 73.0625 80.457031 72.964844 80.519531 72.890625 C 80.578125 72.808594 80.652344 72.738281 80.734375 72.683594 C 80.816406 72.628906 80.90625 72.582031 81 72.554688 C 81.089844 72.527344 81.199219 72.511719 81.296875 72.515625 C 81.394531 72.523438 81.496094 72.542969 81.585938 72.578125 C 81.679688 72.613281 81.769531 72.664062 81.847656 72.726562 C 81.921875 72.785156 81.992188 72.867188 82.042969 72.949219 C 82.09375 73.03125 82.132812 73.128906 82.15625 73.222656 C 82.175781 73.320312 82.1875 73.425781 82.175781 73.523438 C 82.164062 73.617188 82.136719 73.722656 82.101562 73.808594 C 82.0625 73.898438 82.003906 73.984375 81.9375 74.054688 C 81.875 74.125 81.792969 74.191406 81.707031 74.238281 C 81.621094 74.289062 81.523438 74.328125 81.425781 74.34375 C 81.328125 74.359375 81.226562 74.363281 81.128906 74.347656 C 81.03125 74.332031 80.929688 74.300781 80.84375 74.257812 C 80.753906 74.214844 80.691406 74.164062 80.605469 74.078125 C 80.464844 73.9375 80.335938 73.679688 80.105469 73.460938 C 79.765625 73.136719 79.027344 72.613281 78.660156 72.425781 C 78.460938 72.324219 78.285156 72.316406 78.167969 72.253906 C 78.09375 72.214844 78.050781 72.175781 78 72.128906 C 77.953125 72.078125 77.910156 72.042969 77.871094 71.972656 C 77.816406 71.875 77.753906 71.71875 77.742188 71.589844 C 77.730469 71.457031 77.769531 71.285156 77.804688 71.183594 C 77.832031 71.105469 77.859375 71.0625 77.910156 71.003906 C 77.980469 70.917969 78.125 70.804688 78.222656 70.75 C 78.292969 70.710938 78.339844 70.691406 78.417969 70.679688 C 78.523438 70.664062 78.820312 70.695312 78.820312 70.695312 " clip-rule="nonzero"/></clipPath><clipPath id="32be359e14"><path d="M 82 75.445312 L 83.640625 75.445312 L 83.640625 77.140625 L 82 77.140625 Z M 82 75.445312 " clip-rule="nonzero"/></clipPath><clipPath id="da9b8b74f9"><path d="M 83.640625 76.050781 C 83.640625 76.574219 83.582031 76.707031 83.5 76.8125 C 83.417969 76.914062 83.304688 77.003906 83.1875 77.058594 C 83.066406 77.113281 82.921875 77.136719 82.792969 77.128906 C 82.664062 77.125 82.523438 77.074219 82.410156 77.011719 C 82.296875 76.945312 82.1875 76.839844 82.121094 76.730469 C 82.050781 76.617188 82.007812 76.476562 82.003906 76.347656 C 81.996094 76.21875 82.023438 76.070312 82.078125 75.953125 C 82.132812 75.832031 82.21875 75.71875 82.320312 75.640625 C 82.425781 75.558594 82.558594 75.492188 82.6875 75.472656 C 82.820312 75.449219 82.964844 75.460938 83.089844 75.5 C 83.214844 75.535156 83.433594 75.703125 83.433594 75.703125 " clip-rule="nonzero"/></clipPath><clipPath id="170a71888c"><path d="M 73 11.109375 L 82.625 11.109375 L 82.625 20.632812 L 73 20.632812 Z M 73 11.109375 " clip-rule="nonzero"/></clipPath><clipPath id="b5096cf7be"><path d="M 67 13 L 74 13 L 74 20.632812 L 67 20.632812 Z M 67 13 " clip-rule="nonzero"/></clipPath><clipPath id="967434a479"><path d="M 2 78 L 20 78 L 20 94 L 2 94 Z M 2 78 " clip-rule="nonzero"/></clipPath><clipPath id="4f2cf7cf0d"><path d="M 6.160156 76.179688 L 22.207031 83.859375 L 16.046875 96.734375 L 0 89.058594 Z M 6.160156 76.179688 " clip-rule="nonzero"/></clipPath><clipPath id="4fceaeda70"><path d="M 14.167969 80.011719 C 9.746094 77.898438 4.78125 79.0625 3.078125 82.621094 C 1.378906 86.175781 3.585938 90.773438 8.007812 92.890625 C 12.429688 95.007812 17.394531 93.839844 19.097656 90.28125 C 20.796875 86.726562 18.59375 82.128906 14.167969 80.011719 Z M 14.167969 80.011719 " clip-rule="nonzero"/></clipPath><clipPath id="03d04332bf"><path d="M 48 44 L 72 44 L 72 71.484375 L 48 71.484375 Z M 48 44 " clip-rule="nonzero"/></clipPath><clipPath id="c6bc8509b4"><path d="M 52 53 L 69 53 L 69 71.484375 L 52 71.484375 Z M 52 53 " clip-rule="nonzero"/></clipPath><clipPath id="ef03a9c2f0"><path d="M 47 34.613281 L 72.6875 34.613281 L 72.6875 71 L 47 71 Z M 47 34.613281 " clip-rule="nonzero"/></clipPath><clipPath id="514dfeca5e"><path d="M 50 46 L 70 46 L 70 71.484375 L 50 71.484375 Z M 50 46 " clip-rule="nonzero"/></clipPath><clipPath id="b39ae61dd1"><path d="M 54 56 L 67 56 L 67 71.484375 L 54 71.484375 Z M 54 56 " clip-rule="nonzero"/></clipPath><clipPath id="58d1df297c"><path d="M 78 44 L 102 44 L 102 71.484375 L 78 71.484375 Z M 78 44 " clip-rule="nonzero"/></clipPath><clipPath id="6e7791e2a5"><path d="M 82 53 L 99 53 L 99 71.484375 L 82 71.484375 Z M 82 53 " clip-rule="nonzero"/></clipPath><clipPath id="3f5a12381a"><path d="M 76.691406 34.613281 L 102.421875 34.613281 L 102.421875 71 L 76.691406 71 Z M 76.691406 34.613281 " clip-rule="nonzero"/></clipPath><clipPath id="4ba66b1f51"><path d="M 80 46 L 99 46 L 99 71.484375 L 80 71.484375 Z M 80 46 " clip-rule="nonzero"/></clipPath><clipPath id="8c6bf58a2e"><path d="M 84 56 L 96 56 L 96 71.484375 L 84 71.484375 Z M 84 56 " clip-rule="nonzero"/></clipPath><clipPath id="e1887394d3"><path d="M 7 79 L 16 79 L 16 94 L 7 94 Z M 7 79 " clip-rule="nonzero"/></clipPath><clipPath id="189549c124"><path d="M 6.453125 92.230469 L 13.207031 79.253906 L 16.390625 80.910156 L 9.632812 93.886719 Z M 6.453125 92.230469 " clip-rule="nonzero"/></clipPath><clipPath id="ec94754caa"><path d="M 7.28125 90.640625 L 12.375 80.855469 C 12.59375 80.433594 12.972656 80.117188 13.425781 79.972656 C 13.878906 79.828125 14.371094 79.871094 14.792969 80.09375 C 15.214844 80.3125 15.535156 80.691406 15.675781 81.144531 C 15.820312 81.597656 15.777344 82.089844 15.554688 82.511719 L 10.460938 92.296875 C 10.242188 92.71875 9.863281 93.035156 9.410156 93.179688 C 8.957031 93.320312 8.464844 93.277344 8.042969 93.058594 C 7.621094 92.839844 7.304688 92.460938 7.160156 92.007812 C 7.015625 91.554688 7.058594 91.0625 7.28125 90.640625 Z M 7.28125 90.640625 " clip-rule="nonzero"/></clipPath><clipPath id="7d7ba582ab"><path d="M 134 71 L 144 71 L 144 86 L 134 86 Z M 134 71 " clip-rule="nonzero"/></clipPath><clipPath id="42b20c9488"><path d="M 137.027344 71.285156 L 143.964844 84.167969 L 140.804688 85.871094 L 133.867188 72.988281 Z M 137.027344 71.285156 " clip-rule="nonzero"/></clipPath><clipPath id="60d5787f01"><path d="M 137.875 72.863281 L 143.105469 82.578125 C 143.332031 82.996094 143.382812 83.488281 143.246094 83.945312 C 143.109375 84.398438 142.796875 84.78125 142.378906 85.007812 C 141.960938 85.234375 141.46875 85.28125 141.011719 85.144531 C 140.554688 85.007812 140.171875 84.699219 139.949219 84.277344 L 134.71875 74.566406 C 134.492188 74.148438 134.441406 73.65625 134.578125 73.199219 C 134.714844 72.746094 135.027344 72.363281 135.445312 72.136719 C 135.867188 71.910156 136.355469 71.859375 136.8125 71.996094 C 137.269531 72.132812 137.652344 72.445312 137.875 72.863281 Z M 137.875 72.863281 " clip-rule="nonzero"/></clipPath></defs><g clip-path="url(#74937c64e9)"><g clip-path="url(#6a82de784f)"><path fill="#f8c038" d="M 21.550781 26.609375 L 127.628906 26.609375 L 127.628906 128.320312 L 21.550781 128.320312 Z M 21.550781 26.609375 " fill-opacity="1" fill-rule="nonzero"/></g></g><g clip-path="url(#4b4e988b4d)"><g clip-path="url(#93ca1eb5f5)"><g clip-path="url(#f84f101b34)"><path fill="#f8c038" d="M 127.828125 76.128906 L 143.828125 68.488281 L 149.980469 81.371094 L 133.976562 89.011719 Z M 127.828125 76.128906 " fill-opacity="1" fill-rule="nonzero"/></g></g></g><g clip-path="url(#8e784aa52a)"><g clip-path="url(#d1484d4f0c)"><g clip-path="url(#18219afea3)"><path fill="#f09020" d="M 98.160156 134.011719 L 84.140625 145.152344 L 76.695312 135.785156 L 90.710938 124.640625 Z M 98.160156 134.011719 " fill-opacity="1" fill-rule="nonzero"/></g></g></g><g clip-path="url(#3b09c82a80)"><g clip-path="url(#b3fbd5dcaf)"><g clip-path="url(#141920da5b)"><path fill="#f09020" d="M 101.582031 137.6875 L 83.878906 140.382812 L 82.078125 128.550781 L 99.78125 125.855469 Z M 101.582031 137.6875 " fill-opacity="1" fill-rule="nonzero"/></g></g></g><g clip-path="url(#c48a425f56)"><g clip-path="url(#f401f35286)"><g clip-path="url(#d83809887d)"><path fill="#f09020" d="M 66.921875 138.296875 L 42.371094 138.625 L 42.152344 122.214844 L 66.703125 121.886719 Z M 66.921875 138.296875 " fill-opacity="1" fill-rule="nonzero"/></g></g></g><g clip-path="url(#e06d68cb43)"><g clip-path="url(#cbcec3abbc)"><g clip-path="url(#c286201c59)"><path fill="#f09020" d="M 67.550781 145.15625 L 46.089844 133.226562 L 54.0625 118.882812 L 75.523438 130.8125 Z M 67.550781 145.15625 " fill-opacity="1" fill-rule="nonzero"/></g></g></g><g clip-path="url(#7e6222bce4)"><g clip-path="url(#379cd9d068)"><path fill="#fddc66" d="M 39.148438 61.800781 L 111.8125 61.800781 L 111.8125 123.808594 L 39.148438 123.808594 Z M 39.148438 61.800781 " fill-opacity="1" fill-rule="nonzero"/></g></g><g clip-path="url(#5fa7376c60)"><path fill="#f86018" d="M 83.945312 77.246094 C 83.945312 77.847656 83.886719 78.449219 83.769531 79.039062 C 83.648438 79.632812 83.476562 80.207031 83.246094 80.765625 C 83.011719 81.324219 82.730469 81.855469 82.394531 82.359375 C 82.058594 82.859375 81.675781 83.324219 81.25 83.753906 C 80.820312 84.179688 80.355469 84.5625 79.855469 84.898438 C 79.351562 85.234375 78.820312 85.515625 78.261719 85.746094 C 77.703125 85.980469 77.128906 86.152344 76.535156 86.273438 C 75.945312 86.390625 75.34375 86.449219 74.742188 86.449219 C 74.136719 86.449219 73.539062 86.390625 72.945312 86.273438 C 72.351562 86.152344 71.777344 85.980469 71.21875 85.746094 C 70.660156 85.515625 70.128906 85.234375 69.628906 84.898438 C 69.125 84.5625 68.660156 84.179688 68.234375 83.753906 C 67.804688 83.324219 67.425781 82.859375 67.089844 82.359375 C 66.753906 81.855469 66.46875 81.324219 66.238281 80.765625 C 66.007812 80.207031 65.832031 79.632812 65.714844 79.039062 C 65.597656 78.449219 65.539062 77.847656 65.539062 77.246094 C 65.539062 76.640625 65.597656 76.042969 65.714844 75.449219 C 65.832031 74.855469 66.007812 74.28125 66.238281 73.722656 C 66.46875 73.164062 66.753906 72.632812 67.089844 72.132812 C 67.425781 71.628906 67.804688 71.164062 68.234375 70.738281 C 68.660156 70.308594 69.125 69.925781 69.628906 69.59375 C 70.128906 69.257812 70.660156 68.972656 71.21875 68.742188 C 71.777344 68.511719 72.351562 68.335938 72.945312 68.21875 C 73.539062 68.101562 74.136719 68.039062 74.742188 68.039062 C 75.34375 68.039062 75.945312 68.101562 76.535156 68.21875 C 77.128906 68.335938 77.703125 68.511719 78.261719 68.742188 C 78.820312 68.972656 79.351562 69.257812 79.855469 69.59375 C 80.355469 69.925781 80.820312 70.308594 81.25 70.738281 C 81.675781 71.164062 82.058594 71.628906 82.394531 72.132812 C 82.730469 72.632812 83.011719 73.164062 83.246094 73.722656 C 83.476562 74.28125 83.648438 74.855469 83.769531 75.449219 C 83.886719 76.042969 83.945312 76.640625 83.945312 77.246094 Z M 83.945312 77.246094 " fill-opacity="1" fill-rule="nonzero"/></g><g clip-path="url(#455e276b7d)"><path fill="#f09020" d="M 86.355469 80.144531 C 86.355469 80.910156 86.277344 81.667969 86.128906 82.421875 C 85.980469 83.171875 85.757812 83.902344 85.464844 84.609375 C 85.171875 85.316406 84.8125 85.988281 84.386719 86.625 C 83.960938 87.261719 83.476562 87.851562 82.9375 88.394531 C 82.394531 88.9375 81.804688 89.417969 81.167969 89.84375 C 80.53125 90.269531 79.859375 90.628906 79.152344 90.921875 C 78.445312 91.214844 77.714844 91.4375 76.964844 91.585938 C 76.210938 91.738281 75.453125 91.8125 74.6875 91.8125 C 73.921875 91.8125 73.164062 91.738281 72.410156 91.585938 C 71.660156 91.4375 70.929688 91.214844 70.222656 90.921875 C 69.515625 90.628906 68.84375 90.269531 68.207031 89.84375 C 67.570312 89.417969 66.980469 88.9375 66.4375 88.394531 C 65.894531 87.851562 65.414062 87.261719 64.988281 86.625 C 64.5625 85.988281 64.203125 85.316406 63.910156 84.609375 C 63.617188 83.902344 63.394531 83.171875 63.246094 82.421875 C 63.09375 81.667969 63.019531 80.910156 63.019531 80.144531 C 63.019531 79.378906 63.09375 78.621094 63.246094 77.867188 C 63.394531 77.117188 63.617188 76.386719 63.910156 75.679688 C 64.203125 74.972656 64.5625 74.300781 64.988281 73.664062 C 65.414062 73.027344 65.894531 72.4375 66.4375 71.894531 C 66.980469 71.355469 67.570312 70.871094 68.207031 70.445312 C 68.84375 70.019531 69.515625 69.660156 70.222656 69.367188 C 70.929688 69.074219 71.660156 68.851562 72.410156 68.703125 C 73.164062 68.554688 73.921875 68.476562 74.6875 68.476562 C 75.453125 68.476562 76.210938 68.554688 76.964844 68.703125 C 77.714844 68.851562 78.445312 69.074219 79.152344 69.367188 C 79.859375 69.660156 80.53125 70.019531 81.167969 70.445312 C 81.804688 70.871094 82.394531 71.355469 82.9375 71.894531 C 83.476562 72.4375 83.960938 73.027344 84.386719 73.664062 C 84.8125 74.300781 85.171875 74.972656 85.464844 75.679688 C 85.757812 76.386719 85.980469 77.117188 86.128906 77.867188 C 86.277344 78.621094 86.355469 79.378906 86.355469 80.144531 Z M 86.355469 80.144531 " fill-opacity="1" fill-rule="nonzero"/></g><g clip-path="url(#99203393a7)"><g clip-path="url(#d7445d8abf)"><path fill="#ffffff" d="M 77.527344 70.464844 L 82.382812 70.464844 L 82.382812 74.570312 L 77.527344 74.570312 Z M 77.527344 70.464844 " fill-opacity="1" fill-rule="nonzero"/></g></g><g clip-path="url(#32be359e14)"><g clip-path="url(#da9b8b74f9)"><path fill="#ffffff" d="M 81.789062 75.253906 L 83.878906 75.253906 L 83.878906 77.347656 L 81.789062 77.347656 Z M 81.789062 75.253906 " fill-opacity="1" fill-rule="nonzero"/></g></g><path stroke-linecap="round" transform="matrix(-0.202595, 0.000000000353595, -0.000000000353595, -0.202595, 68.726152, 77.768786)" fill="none" stroke-linejoin="miter" d="M 1.501898 1.500245 L 17.929353 1.500245 " stroke="#c8831a" stroke-width="3" stroke-opacity="1" stroke-miterlimit="4"/><path stroke-linecap="round" transform="matrix(-0.202595, 0, 0, -0.202595, 68.725699, 75.56868)" fill="none" stroke-linejoin="miter" d="M 1.499659 1.495864 L 10.812406 1.495864 " stroke="#c8831a" stroke-width="3" stroke-opacity="1" stroke-miterlimit="4"/><path stroke-linecap="round" transform="matrix(-0.202595, -0.000000000353595, 0.000000000353595, -0.202595, 68.726673, 73.534246)" fill="none" stroke-linejoin="miter" d="M 1.504469 1.499428 L 5.630613 1.499428 " stroke="#c8831a" stroke-width="3" stroke-opacity="1" stroke-miterlimit="4"/><g clip-path="url(#170a71888c)"><path fill="#39b54a" d="M 74.148438 20.097656 C 73.789062 19.273438 73.257812 17.664062 73.78125 15.945312 C 74.640625 13.128906 78.019531 11.109375 82.082031 11.371094 C 82.625 14.808594 81.292969 18.027344 78.785156 19.464844 C 77.097656 20.433594 75.351562 20.320312 74.523438 20.203125 C 75.371094 19.5625 76.320312 18.738281 77.273438 17.695312 C 78.742188 16.085938 79.722656 14.484375 80.371094 13.210938 C 79.4375 14.507812 78.320312 15.910156 76.980469 17.34375 C 76.015625 18.378906 75.0625 19.292969 74.148438 20.097656 Z M 74.148438 20.097656 " fill-opacity="1" fill-rule="nonzero"/></g><g clip-path="url(#b5096cf7be)"><path fill="#39b54a" d="M 73.066406 20.1875 C 72.433594 20.378906 71.210938 20.632812 70 20.101562 C 68.015625 19.238281 66.828125 16.605469 67.363281 13.667969 C 69.921875 13.566406 72.160156 14.8125 73 16.757812 C 73.5625 18.070312 73.332031 19.332031 73.175781 19.925781 C 72.777344 19.253906 72.257812 18.492188 71.574219 17.710938 C 70.523438 16.503906 69.4375 15.652344 68.5625 15.070312 C 69.429688 15.859375 70.359375 16.796875 71.292969 17.890625 C 71.964844 18.683594 72.554688 19.457031 73.066406 20.1875 Z M 73.066406 20.1875 " fill-opacity="1" fill-rule="nonzero"/></g><g clip-path="url(#967434a479)"><g clip-path="url(#4f2cf7cf0d)"><g clip-path="url(#4fceaeda70)"><path fill="#f8c038" d="M 6.160156 76.179688 L 22.15625 83.835938 L 15.996094 96.710938 L 0 89.058594 Z M 6.160156 76.179688 " fill-opacity="1" fill-rule="nonzero"/></g></g></g><g clip-path="url(#03d04332bf)"><path stroke-linecap="butt" transform="matrix(0.20262, 0, 0, 0.202179, 35.717673, 28.987068)" fill="none" stroke-linejoin="miter" d="M 147.602885 203.511742 C 149.819933 201.019362 152.017703 198.565624 154.196194 196.169847 C 157.068717 192.962598 159.131535 190.27701 160.365371 188.093762 C 163.392124 182.741907 165.898352 175.863711 165.223598 169.700383 C 164.433172 162.41645 162.216124 155.712141 158.591732 149.548813 C 157.357897 147.48149 157.010881 147.616735 157.550684 149.97387 C 158.418224 153.780063 157.839864 157.528294 155.834881 161.218562 C 155.699931 161.469732 155.487865 161.566336 155.217964 161.547015 C 154.948062 161.527694 154.755275 161.373128 154.658882 161.121958 C 152.326162 154.533573 149.14518 149.568134 145.077378 146.225639 C 140.373381 142.361484 135.360924 140.27484 133.490892 134.05355 C 132.623352 131.155433 132.218499 127.870901 132.314893 124.161312 C 132.681188 110.269674 131.023221 96.49396 117.875162 88.881574 C 117.740211 88.823611 117.605261 88.804291 117.451031 88.842932 C 117.065458 88.939536 117.0269 89.132744 117.335359 89.383914 C 121.287488 92.803691 123.099684 97.054262 122.771947 102.135627 C 122.039357 113.979263 107.156216 120.548327 99.676089 127.735656 C 88.86075 138.168875 84.735113 151.596815 87.279898 168.038796 C 87.299177 168.174042 87.241341 168.289966 87.125669 168.367249 C 87.009997 168.444533 86.875046 168.444533 86.759374 168.367249 C 80.185344 163.962112 77.775509 157.798784 75.558461 150.669418 C 75.13433 149.297643 74.84515 149.316963 74.690921 150.746701 C 73.572757 161.856148 74.806593 172.424613 78.392427 182.432775 C 79.722656 186.142364 81.862589 189.851953 84.831506 193.542222 C 88.089603 197.560943 91.791109 201.347815 95.916747 204.883518 " stroke="#f57621" stroke-width="2" stroke-opacity="1" stroke-miterlimit="4"/></g><g clip-path="url(#c6bc8509b4)"><path stroke-linecap="butt" transform="matrix(0.20262, 0, 0, 0.202179, 35.717673, 28.987068)" fill="none" stroke-linejoin="miter" d="M 135.630826 207.511143 C 143.380855 202.487741 148.104131 195.937998 149.742819 187.861913 C 150.803146 182.741907 150.957376 177.699185 150.244064 172.753066 C 149.839212 169.970874 149.357245 169.951553 148.798163 172.714424 C 148.104131 175.998956 146.523279 178.935714 144.03633 181.524698 C 143.130232 182.471416 142.72538 182.278209 142.821773 181.003037 C 143.457969 171.381291 140.276987 163.537055 133.317384 157.451011 C 127.418108 152.311684 118.145064 150.167078 116.911228 141.163596 C 116.622048 139.096273 117.451031 137.028949 118.588473 135.348042 C 119.822309 133.609172 119.571686 133.358002 117.855883 134.613852 C 113.441066 137.840422 111.802378 144.699298 112.053001 149.896587 C 112.245788 153.760742 112.303624 157.489652 112.226509 161.063996 C 112.091558 167.362569 106.173004 169.004835 103.184809 173.661142 C 101.912416 175.631861 100.948482 177.699185 100.273728 179.843791 C 99.676089 181.775868 99.039893 181.775868 98.365139 179.882432 C 97.690385 178.008317 97.343369 176.114881 97.304811 174.163482 C 97.285533 173.371331 97.112025 173.332689 96.784287 174.066879 C 93.410518 181.56334 92.273076 189.755349 96.899959 197.097244 C 99.52186 201.251211 103.955956 205.211971 110.182969 208.960201 " stroke="#fcc021" stroke-width="2" stroke-opacity="1" stroke-miterlimit="4"/></g><g clip-path="url(#ef03a9c2f0)"><path fill="#ef5922" d="M 65.625 70.132812 C 66.074219 69.628906 66.519531 69.132812 66.960938 68.648438 C 67.542969 68 67.960938 67.457031 68.210938 67.015625 C 68.824219 65.933594 69.332031 64.542969 69.195312 63.296875 C 69.035156 61.824219 68.585938 60.46875 67.851562 59.222656 C 67.601562 58.804688 67.53125 58.832031 67.640625 59.308594 C 67.816406 60.078125 67.699219 60.835938 67.292969 61.582031 C 67.265625 61.632812 67.222656 61.652344 67.167969 61.648438 C 67.113281 61.644531 67.074219 61.613281 67.054688 61.5625 C 66.582031 60.230469 65.9375 59.226562 65.113281 58.550781 C 64.160156 57.769531 63.144531 57.347656 62.765625 56.089844 C 62.589844 55.503906 62.507812 54.839844 62.527344 54.089844 C 62.601562 51.28125 62.265625 48.496094 59.601562 46.957031 C 59.574219 46.945312 59.546875 46.941406 59.515625 46.949219 C 59.4375 46.96875 59.429688 47.007812 59.492188 47.058594 C 60.292969 47.75 60.660156 48.609375 60.59375 49.636719 C 60.445312 52.03125 57.429688 53.359375 55.914062 54.8125 C 53.722656 56.921875 52.886719 59.636719 53.402344 62.960938 C 53.40625 62.988281 53.394531 63.011719 53.371094 63.027344 C 53.347656 63.042969 53.320312 63.042969 53.296875 63.027344 C 51.964844 62.136719 51.476562 60.890625 51.027344 59.449219 C 50.941406 59.171875 50.882812 59.175781 50.851562 59.464844 C 50.625 61.710938 50.875 63.847656 51.601562 65.871094 C 51.871094 66.621094 52.304688 67.371094 52.90625 68.117188 C 53.566406 68.929688 54.316406 69.695312 55.152344 70.410156 C 54.300781 70.101562 53.535156 69.710938 52.859375 69.234375 C 50.5 67.578125 48.871094 65.4375 47.972656 62.820312 C 47.589844 61.703125 47.339844 60.371094 47.21875 58.828125 C 47.039062 56.546875 47.164062 54.289062 47.589844 52.050781 C 47.660156 51.683594 47.726562 51.6875 47.789062 52.054688 C 47.851562 52.449219 47.917969 52.855469 47.984375 53.269531 C 48.242188 54.84375 49.035156 56.863281 50.394531 57.847656 C 50.4375 57.878906 50.488281 57.882812 50.539062 57.859375 C 50.589844 57.835938 50.617188 57.792969 50.621094 57.738281 C 50.644531 57.136719 50.660156 56.519531 50.664062 55.886719 C 50.691406 51.34375 53.25 47.007812 57.320312 44.671875 C 59.179688 43.601562 61.097656 42.441406 62.246094 40.648438 C 63.488281 38.710938 63.058594 36.734375 61.769531 34.980469 C 61.59375 34.742188 61.632812 34.703125 61.882812 34.863281 C 63.25 35.734375 64.210938 37.523438 64.582031 38.996094 C 65.019531 40.765625 65.105469 42.601562 64.835938 44.496094 C 64.632812 45.933594 64.519531 47.371094 64.632812 48.757812 C 64.707031 49.660156 65.101562 50.550781 65.75 51.203125 C 66.882812 52.34375 68.082031 53.242188 68.796875 54.742188 C 69.242188 55.667969 69.609375 56.75 69.898438 57.984375 C 69.914062 58.046875 69.949219 58.089844 70.007812 58.117188 C 70.066406 58.144531 70.125 58.140625 70.183594 58.109375 C 70.21875 58.09375 70.246094 58.070312 70.261719 58.039062 C 71.070312 56.761719 71.367188 55.429688 71.160156 54.042969 C 71.113281 53.761719 71.148438 53.753906 71.257812 54.015625 C 72.210938 56.292969 72.625 58.675781 72.5 61.164062 C 72.480469 61.605469 72.402344 62.039062 72.265625 62.46875 C 71.152344 65.964844 68.941406 68.519531 65.625 70.132812 Z M 65.625 70.132812 " fill-opacity="1" fill-rule="nonzero"/></g><g clip-path="url(#514dfeca5e)"><path fill="#fa921f" d="M 65.625 70.132812 C 64.9375 70.523438 64.128906 70.789062 63.199219 70.941406 C 64.769531 69.925781 65.726562 68.601562 66.058594 66.96875 C 66.273438 65.933594 66.304688 64.914062 66.160156 63.914062 C 66.078125 63.351562 65.980469 63.347656 65.867188 63.90625 C 65.726562 64.570312 65.40625 65.164062 64.902344 65.6875 C 64.71875 65.878906 64.636719 65.839844 64.65625 65.582031 C 64.785156 63.636719 64.140625 62.050781 62.730469 60.820312 C 61.535156 59.78125 59.65625 59.347656 59.40625 57.527344 C 59.347656 57.109375 59.515625 56.691406 59.746094 56.351562 C 59.996094 56 59.945312 55.949219 59.597656 56.203125 C 58.703125 56.855469 58.371094 58.242188 58.421875 59.292969 C 58.460938 60.074219 58.472656 60.828125 58.457031 61.550781 C 58.429688 62.824219 57.230469 63.15625 56.625 64.097656 C 56.367188 64.496094 56.171875 64.914062 56.035156 65.347656 C 55.914062 65.738281 55.785156 65.738281 55.648438 65.355469 C 55.511719 64.976562 55.441406 64.59375 55.433594 64.199219 C 55.429688 64.039062 55.394531 64.03125 55.328125 64.179688 C 54.644531 65.695312 54.414062 67.351562 55.351562 68.835938 C 55.882812 69.675781 56.78125 70.476562 58.042969 71.234375 C 56.921875 71.082031 55.960938 70.808594 55.152344 70.410156 C 54.316406 69.695312 53.566406 68.929688 52.90625 68.117188 C 52.304688 67.371094 51.871094 66.621094 51.601562 65.871094 C 50.875 63.847656 50.625 61.710938 50.851562 59.464844 C 50.882812 59.175781 50.941406 59.171875 51.027344 59.449219 C 51.476562 60.890625 51.964844 62.136719 53.296875 63.027344 C 53.320312 63.042969 53.347656 63.042969 53.371094 63.027344 C 53.394531 63.011719 53.40625 62.988281 53.402344 62.960938 C 52.886719 59.636719 53.722656 56.921875 55.914062 54.8125 C 57.429688 53.359375 60.445312 52.03125 60.59375 49.636719 C 60.660156 48.609375 60.292969 47.75 59.492188 47.058594 C 59.429688 47.007812 59.4375 46.96875 59.515625 46.949219 C 59.546875 46.941406 59.574219 46.945312 59.601562 46.957031 C 62.265625 48.496094 62.601562 51.28125 62.527344 54.089844 C 62.507812 54.839844 62.589844 55.503906 62.765625 56.089844 C 63.144531 57.347656 64.160156 57.769531 65.113281 58.550781 C 65.9375 59.226562 66.582031 60.230469 67.054688 61.5625 C 67.074219 61.613281 67.113281 61.644531 67.167969 61.648438 C 67.222656 61.652344 67.265625 61.632812 67.292969 61.582031 C 67.699219 60.835938 67.816406 60.078125 67.640625 59.308594 C 67.53125 58.832031 67.601562 58.804688 67.851562 59.222656 C 68.585938 60.46875 69.035156 61.824219 69.195312 63.296875 C 69.332031 64.542969 68.824219 65.933594 68.210938 67.015625 C 67.960938 67.457031 67.542969 68 66.960938 68.648438 C 66.519531 69.132812 66.074219 69.628906 65.625 70.132812 Z M 65.625 70.132812 " fill-opacity="1" fill-rule="nonzero"/></g><g clip-path="url(#b39ae61dd1)"><path fill="#fdee23" d="M 63.199219 70.941406 C 62.746094 71.15625 62.117188 71.296875 61.3125 71.355469 C 60.046875 71.449219 58.957031 71.410156 58.042969 71.234375 C 56.78125 70.476562 55.882812 69.675781 55.351562 68.835938 C 54.414062 67.351562 54.644531 65.695312 55.328125 64.179688 C 55.394531 64.03125 55.429688 64.039062 55.433594 64.199219 C 55.441406 64.59375 55.511719 64.976562 55.648438 65.355469 C 55.785156 65.738281 55.914062 65.738281 56.035156 65.347656 C 56.171875 64.914062 56.367188 64.496094 56.625 64.097656 C 57.230469 63.15625 58.429688 62.824219 58.457031 61.550781 C 58.472656 60.828125 58.460938 60.074219 58.421875 59.292969 C 58.371094 58.242188 58.703125 56.855469 59.597656 56.203125 C 59.945312 55.949219 59.996094 56 59.746094 56.351562 C 59.515625 56.691406 59.347656 57.109375 59.40625 57.527344 C 59.65625 59.347656 61.535156 59.78125 62.730469 60.820312 C 64.140625 62.050781 64.785156 63.636719 64.65625 65.582031 C 64.636719 65.839844 64.71875 65.878906 64.902344 65.6875 C 65.40625 65.164062 65.726562 64.570312 65.867188 63.90625 C 65.980469 63.347656 66.078125 63.351562 66.160156 63.914062 C 66.304688 64.914062 66.273438 65.933594 66.058594 66.96875 C 65.726562 68.601562 64.769531 69.925781 63.199219 70.941406 Z M 63.199219 70.941406 " fill-opacity="1" fill-rule="nonzero"/></g><g clip-path="url(#58d1df297c)"><path stroke-linecap="butt" transform="matrix(0.20262, 0, 0, 0.202179, 65.45123, 28.987068)" fill="none" stroke-linejoin="miter" d="M 147.606919 203.511742 C 149.823967 201.019362 152.021736 198.565624 154.180949 196.169847 C 157.07275 192.962598 159.135569 190.27701 160.369405 188.093762 C 163.376879 182.741907 165.902385 175.863711 165.227632 169.700383 C 164.437206 162.41645 162.220158 155.712141 158.595766 149.548813 C 157.361931 147.48149 157.014914 147.616735 157.554717 149.97387 C 158.422258 153.780063 157.843898 157.528294 155.838915 161.218562 C 155.703964 161.469732 155.491899 161.566336 155.221997 161.547015 C 154.932817 161.527694 154.759309 161.373128 154.662916 161.121958 C 152.330195 154.533573 149.129935 149.568134 145.062133 146.225639 C 140.377414 142.361484 135.364958 140.27484 133.494926 134.05355 C 132.608107 131.155433 132.222533 127.870901 132.318926 124.161312 C 132.685221 110.269674 131.027255 96.49396 117.879196 88.881574 C 117.744245 88.823611 117.609294 88.804291 117.455065 88.842932 C 117.069491 88.939536 117.030934 89.132744 117.339393 89.383914 C 121.272243 92.803691 123.103718 97.054262 122.77598 102.135627 C 122.04339 113.979263 107.16025 120.548327 99.680123 127.735656 C 88.864784 138.168875 84.719868 151.596815 87.283932 168.038796 C 87.303211 168.174042 87.245375 168.289966 87.129702 168.367249 C 86.994752 168.444533 86.87908 168.444533 86.763408 168.367249 C 80.189378 163.962112 77.779543 157.798784 75.562495 150.669418 C 75.119085 149.297643 74.829905 149.316963 74.694954 150.746701 C 73.576791 161.856148 74.791348 172.424613 78.396461 182.432775 C 79.72669 186.142364 81.866623 189.851953 84.83554 193.542222 C 88.093636 197.560943 91.775864 201.347815 95.92078 204.883518 " stroke="#f57621" stroke-width="2" stroke-opacity="1" stroke-miterlimit="4"/></g><g clip-path="url(#6e7791e2a5)"><path stroke-linecap="butt" transform="matrix(0.20262, 0, 0, 0.202179, 65.45123, 28.987068)" fill="none" stroke-linejoin="miter" d="M 135.634859 207.511143 C 143.384888 202.487741 148.088886 195.937998 149.746852 187.861913 C 150.80718 182.741907 150.961409 177.699185 150.248098 172.753066 C 149.843246 169.970874 149.361279 169.951553 148.782918 172.714424 C 148.108165 175.998956 146.527313 178.935714 144.021085 181.524698 C 143.134265 182.471416 142.729413 182.278209 142.825807 181.003037 C 143.442724 171.381291 140.281021 163.537055 133.302139 157.451011 C 127.422142 152.311684 118.149097 150.167078 116.915262 141.163596 C 116.606803 139.096273 117.435786 137.028949 118.592507 135.348042 C 119.807064 133.609172 119.575719 133.358002 117.840638 134.613852 C 113.445099 137.840422 111.806412 144.699298 112.057035 149.896587 C 112.249821 153.760742 112.307657 157.489652 112.230543 161.063996 C 112.095592 167.362569 106.177037 169.004835 103.188842 173.661142 C 101.916449 175.631861 100.952515 177.699185 100.258483 179.843791 C 99.660844 181.775868 99.024647 181.775868 98.369172 179.882432 C 97.694419 178.008317 97.328124 176.114881 97.308845 174.163482 C 97.289566 173.371331 97.116058 173.332689 96.788321 174.066879 C 93.414552 181.56334 92.27711 189.755349 96.903993 197.097244 C 99.525893 201.251211 103.959989 205.211971 110.187003 208.960201 " stroke="#fcc021" stroke-width="2" stroke-opacity="1" stroke-miterlimit="4"/></g><g clip-path="url(#3f5a12381a)"><path fill="#ef5922" d="M 95.359375 70.132812 C 95.808594 69.628906 96.253906 69.132812 96.691406 68.648438 C 97.277344 68 97.695312 67.457031 97.945312 67.015625 C 98.554688 65.933594 99.066406 64.542969 98.929688 63.296875 C 98.769531 61.824219 98.320312 60.46875 97.585938 59.222656 C 97.335938 58.804688 97.265625 58.832031 97.375 59.308594 C 97.550781 60.078125 97.433594 60.835938 97.027344 61.582031 C 97 61.632812 96.957031 61.652344 96.902344 61.648438 C 96.84375 61.644531 96.808594 61.613281 96.789062 61.5625 C 96.316406 60.230469 95.667969 59.226562 94.84375 58.550781 C 93.894531 57.769531 92.878906 57.347656 92.5 56.089844 C 92.320312 55.503906 92.242188 54.839844 92.261719 54.089844 C 92.335938 51.28125 92 48.496094 89.335938 46.957031 C 89.308594 46.945312 89.28125 46.941406 89.25 46.949219 C 89.171875 46.96875 89.164062 47.007812 89.226562 47.058594 C 90.023438 47.75 90.394531 48.609375 90.328125 49.636719 C 90.179688 52.03125 87.164062 53.359375 85.648438 54.8125 C 83.457031 56.921875 82.617188 59.636719 83.136719 62.960938 C 83.140625 62.988281 83.128906 63.011719 83.105469 63.027344 C 83.078125 63.042969 83.054688 63.042969 83.03125 63.027344 C 81.699219 62.136719 81.210938 60.890625 80.761719 59.449219 C 80.671875 59.171875 80.613281 59.175781 80.585938 59.464844 C 80.359375 61.710938 80.605469 63.847656 81.335938 65.871094 C 81.605469 66.621094 82.039062 67.371094 82.640625 68.117188 C 83.300781 68.929688 84.046875 69.695312 84.886719 70.410156 C 84.035156 70.101562 83.269531 69.710938 82.59375 69.234375 C 80.230469 67.578125 78.601562 65.4375 77.707031 62.820312 C 77.324219 61.703125 77.070312 60.371094 76.949219 58.828125 C 76.769531 56.546875 76.894531 54.289062 77.324219 52.050781 C 77.394531 51.683594 77.460938 51.6875 77.519531 52.054688 C 77.585938 52.449219 77.652344 52.855469 77.71875 53.269531 C 77.976562 54.84375 78.769531 56.863281 80.125 57.847656 C 80.171875 57.878906 80.222656 57.882812 80.273438 57.859375 C 80.324219 57.835938 80.351562 57.792969 80.355469 57.738281 C 80.378906 57.136719 80.394531 56.519531 80.398438 55.886719 C 80.425781 51.34375 82.984375 47.007812 87.054688 44.671875 C 88.914062 43.601562 90.828125 42.441406 91.976562 40.648438 C 93.21875 38.710938 92.792969 36.734375 91.503906 34.980469 C 91.328125 34.742188 91.367188 34.703125 91.617188 34.863281 C 92.984375 35.734375 93.945312 37.523438 94.3125 38.996094 C 94.753906 40.765625 94.839844 42.601562 94.570312 44.496094 C 94.363281 45.933594 94.253906 47.371094 94.367188 48.757812 C 94.441406 49.660156 94.835938 50.550781 95.484375 51.203125 C 96.617188 52.34375 97.816406 53.242188 98.53125 54.742188 C 98.976562 55.667969 99.339844 56.75 99.632812 57.984375 C 99.644531 58.046875 99.683594 58.089844 99.742188 58.117188 C 99.800781 58.144531 99.859375 58.140625 99.917969 58.109375 C 99.953125 58.09375 99.976562 58.070312 99.996094 58.039062 C 100.804688 56.761719 101.101562 55.429688 100.890625 54.042969 C 100.847656 53.761719 100.882812 53.753906 100.992188 54.015625 C 101.945312 56.292969 102.359375 58.675781 102.234375 61.164062 C 102.214844 61.605469 102.132812 62.039062 101.996094 62.46875 C 100.886719 65.964844 98.671875 68.519531 95.359375 70.132812 Z M 95.359375 70.132812 " fill-opacity="1" fill-rule="nonzero"/></g><g clip-path="url(#4ba66b1f51)"><path fill="#fa921f" d="M 95.359375 70.132812 C 94.671875 70.523438 93.863281 70.789062 92.933594 70.941406 C 94.503906 69.925781 95.457031 68.601562 95.792969 66.96875 C 96.007812 65.933594 96.039062 64.914062 95.894531 63.914062 C 95.8125 63.351562 95.714844 63.347656 95.597656 63.90625 C 95.460938 64.570312 95.140625 65.164062 94.632812 65.6875 C 94.453125 65.878906 94.371094 65.839844 94.390625 65.582031 C 94.515625 63.636719 93.875 62.050781 92.460938 60.820312 C 91.269531 59.78125 89.390625 59.347656 89.140625 57.527344 C 89.078125 57.109375 89.246094 56.691406 89.480469 56.351562 C 89.726562 56 89.679688 55.949219 89.328125 56.203125 C 88.4375 56.855469 88.105469 58.242188 88.15625 59.292969 C 88.195312 60.074219 88.207031 60.828125 88.191406 61.550781 C 88.164062 62.824219 86.964844 63.15625 86.359375 64.097656 C 86.101562 64.496094 85.90625 64.914062 85.765625 65.347656 C 85.644531 65.738281 85.515625 65.738281 85.382812 65.355469 C 85.246094 64.976562 85.171875 64.59375 85.167969 64.199219 C 85.164062 64.039062 85.128906 64.03125 85.0625 64.179688 C 84.378906 65.695312 84.148438 67.351562 85.085938 68.835938 C 85.617188 69.675781 86.515625 70.476562 87.777344 71.234375 C 86.65625 71.082031 85.691406 70.808594 84.886719 70.410156 C 84.046875 69.695312 83.300781 68.929688 82.640625 68.117188 C 82.039062 67.371094 81.605469 66.621094 81.335938 65.871094 C 80.605469 63.847656 80.359375 61.710938 80.585938 59.464844 C 80.613281 59.175781 80.671875 59.171875 80.761719 59.449219 C 81.210938 60.890625 81.699219 62.136719 83.03125 63.027344 C 83.054688 63.042969 83.078125 63.042969 83.105469 63.027344 C 83.128906 63.011719 83.140625 62.988281 83.136719 62.960938 C 82.617188 59.636719 83.457031 56.921875 85.648438 54.8125 C 87.164062 53.359375 90.179688 52.03125 90.328125 49.636719 C 90.394531 48.609375 90.023438 47.75 89.226562 47.058594 C 89.164062 47.007812 89.171875 46.96875 89.25 46.949219 C 89.28125 46.941406 89.308594 46.945312 89.335938 46.957031 C 92 48.496094 92.335938 51.28125 92.261719 54.089844 C 92.242188 54.839844 92.320312 55.503906 92.5 56.089844 C 92.878906 57.347656 93.894531 57.769531 94.84375 58.550781 C 95.667969 59.226562 96.316406 60.230469 96.789062 61.5625 C 96.808594 61.613281 96.84375 61.644531 96.902344 61.648438 C 96.957031 61.652344 97 61.632812 97.027344 61.582031 C 97.433594 60.835938 97.550781 60.078125 97.375 59.308594 C 97.265625 58.832031 97.335938 58.804688 97.585938 59.222656 C 98.320312 60.46875 98.769531 61.824219 98.929688 63.296875 C 99.066406 64.542969 98.554688 65.933594 97.945312 67.015625 C 97.695312 67.457031 97.277344 68 96.691406 68.648438 C 96.253906 69.132812 95.808594 69.628906 95.359375 70.132812 Z M 95.359375 70.132812 " fill-opacity="1" fill-rule="nonzero"/></g><g clip-path="url(#8c6bf58a2e)"><path fill="#fdee23" d="M 92.933594 70.941406 C 92.480469 71.15625 91.851562 71.296875 91.046875 71.355469 C 89.78125 71.449219 88.691406 71.410156 87.777344 71.234375 C 86.515625 70.476562 85.617188 69.675781 85.085938 68.835938 C 84.148438 67.351562 84.378906 65.695312 85.0625 64.179688 C 85.128906 64.03125 85.164062 64.039062 85.167969 64.199219 C 85.171875 64.59375 85.246094 64.976562 85.382812 65.355469 C 85.515625 65.738281 85.644531 65.738281 85.765625 65.347656 C 85.90625 64.914062 86.101562 64.496094 86.359375 64.097656 C 86.964844 63.15625 88.164062 62.824219 88.191406 61.550781 C 88.207031 60.828125 88.195312 60.074219 88.15625 59.292969 C 88.105469 58.242188 88.4375 56.855469 89.328125 56.203125 C 89.679688 55.949219 89.726562 56 89.480469 56.351562 C 89.246094 56.691406 89.078125 57.109375 89.140625 57.527344 C 89.390625 59.347656 91.269531 59.78125 92.460938 60.820312 C 93.875 62.050781 94.515625 63.636719 94.390625 65.582031 C 94.371094 65.839844 94.453125 65.878906 94.632812 65.6875 C 95.140625 65.164062 95.460938 64.570312 95.597656 63.90625 C 95.714844 63.347656 95.8125 63.351562 95.894531 63.914062 C 96.039062 64.914062 96.007812 65.933594 95.792969 66.96875 C 95.457031 68.601562 94.503906 69.925781 92.933594 70.941406 Z M 92.933594 70.941406 " fill-opacity="1" fill-rule="nonzero"/></g><g clip-path="url(#e1887394d3)"><g clip-path="url(#189549c124)"><g clip-path="url(#ec94754caa)"><path fill="#ff430e" d="M 6.453125 92.230469 L 13.203125 79.265625 L 16.382812 80.921875 L 9.632812 93.886719 Z M 6.453125 92.230469 " fill-opacity="1" fill-rule="nonzero"/></g></g></g><g clip-path="url(#7d7ba582ab)"><g clip-path="url(#42b20c9488)"><g clip-path="url(#60d5787f01)"><path fill="#ff430e" d="M 137.027344 71.285156 L 143.957031 84.15625 L 140.796875 85.855469 L 133.867188 72.988281 Z M 137.027344 71.285156 " fill-opacity="1" fill-rule="nonzero"/></g></g></g></svg>