<svg xmlns="http://www.w3.org/2000/svg" xmlns:xlink="http://www.w3.org/1999/xlink" width="1080" zoomAndPan="magnify" viewBox="0 0 810 809.999993" height="1080" preserveAspectRatio="xMidYMid meet" version="1.0"><defs><clipPath id="87d8bdef4a"><path d="M 258.304688 261.019531 L 555 261.019531 L 555 545.199219 L 258.304688 545.199219 Z M 258.304688 261.019531 " clip-rule="nonzero"/></clipPath><clipPath id="917e35b705"><path d="M 406.78125 261.019531 C 324.78125 261.019531 258.304688 324.632812 258.304688 403.109375 C 258.304688 481.585938 324.78125 545.199219 406.78125 545.199219 C 488.78125 545.199219 555.253906 481.585938 555.253906 403.109375 C 555.253906 324.632812 488.78125 261.019531 406.78125 261.019531 Z M 406.78125 261.019531 " clip-rule="nonzero"/></clipPath><clipPath id="068bb9d79d"><path d="M 562 413 L 611 413 L 611 456 L 562 456 Z M 562 413 " clip-rule="nonzero"/></clipPath><clipPath id="9188aad203"><path d="M 555.253906 426.839844 L 600.109375 405.425781 L 617.296875 441.421875 L 572.441406 462.835938 Z M 555.253906 426.839844 " clip-rule="nonzero"/></clipPath><clipPath id="eb724c27dd"><path d="M 577.640625 416.152344 C 565.277344 422.054688 559.101562 434.898438 563.847656 444.839844 C 568.59375 454.78125 582.460938 458.054688 594.824219 452.152344 C 607.1875 446.25 613.363281 433.40625 608.617188 423.464844 C 603.875 413.523438 590.003906 410.25 577.640625 416.152344 Z M 577.640625 416.152344 " clip-rule="nonzero"/></clipPath><clipPath id="d7e1599fb2"><path d="M 465 525 L 522 525 L 522 587 L 465 587 Z M 465 525 " clip-rule="nonzero"/></clipPath><clipPath id="84f9cb9197"><path d="M 532.621094 542.960938 L 490.132812 597.050781 L 454.074219 568.726562 L 496.558594 514.640625 Z M 532.621094 542.960938 " clip-rule="nonzero"/></clipPath><clipPath id="fc5301bb89"><path d="M 511.425781 569.945312 C 523.128906 555.042969 524.546875 536.621094 514.589844 528.800781 C 504.632812 520.980469 487.070312 526.71875 475.363281 541.621094 C 463.660156 556.523438 462.242188 574.945312 472.199219 582.769531 C 482.15625 590.589844 499.71875 584.847656 511.425781 569.945312 Z M 511.425781 569.945312 " clip-rule="nonzero"/></clipPath><clipPath id="8be67da149"><path d="M 475 520 L 542 520 L 542 571 L 475 571 Z M 475 520 " clip-rule="nonzero"/></clipPath><clipPath id="e99d82e66c"><path d="M 548.632812 553.636719 L 484.871094 579.425781 L 467.675781 536.917969 L 531.4375 511.128906 Z M 548.632812 553.636719 " clip-rule="nonzero"/></clipPath><clipPath id="13fea42fb7"><path d="M 516.824219 566.5 C 534.390625 559.394531 544.78125 544.121094 540.035156 532.382812 C 535.289062 520.644531 517.195312 516.886719 499.628906 523.992188 C 482.0625 531.097656 471.667969 546.375 476.417969 558.113281 C 481.164062 569.851562 499.253906 573.605469 516.824219 566.5 Z M 516.824219 566.5 " clip-rule="nonzero"/></clipPath><clipPath id="44db4932c2"><path d="M 327 545 L 395 545 L 395 594 L 327 594 Z M 327 545 " clip-rule="nonzero"/></clipPath><clipPath id="7bfbb395cc"><path d="M 400.015625 581.878906 L 334 601.1875 L 321.128906 557.175781 L 387.144531 537.871094 Z M 400.015625 581.878906 " clip-rule="nonzero"/></clipPath><clipPath id="3e70b17a6f"><path d="M 367.082031 591.511719 C 385.269531 586.191406 397.132812 572.027344 393.578125 559.875 C 390.027344 547.722656 372.398438 542.183594 354.210938 547.5 C 336.023438 552.820312 324.160156 566.984375 327.714844 579.136719 C 331.269531 591.292969 348.894531 596.832031 367.082031 591.511719 Z M 367.082031 591.511719 " clip-rule="nonzero"/></clipPath><clipPath id="7720c4563f"><path d="M 345 545 L 413 545 L 413 594 L 345 594 Z M 345 545 " clip-rule="nonzero"/></clipPath><clipPath id="b7adcae111"><path d="M 406.835938 599.875 L 339.964844 583.785156 L 350.691406 539.203125 L 417.5625 555.292969 Z M 406.835938 599.875 " clip-rule="nonzero"/></clipPath><clipPath id="f88b874083"><path d="M 373.476562 591.847656 C 391.902344 596.28125 409.238281 589.894531 412.199219 577.582031 C 415.164062 565.273438 402.628906 551.699219 384.203125 547.265625 C 365.777344 542.832031 348.441406 549.21875 345.480469 561.53125 C 342.519531 573.839844 355.050781 587.414062 373.476562 591.847656 Z M 373.476562 591.847656 " clip-rule="nonzero"/></clipPath><clipPath id="3c98f1984f"><path d="M 307.480469 359.347656 L 511 359.347656 L 511 532.59375 L 307.480469 532.59375 Z M 307.480469 359.347656 " clip-rule="nonzero"/></clipPath><clipPath id="0c86b7d0f4"><path d="M 409.117188 359.347656 C 352.984375 359.347656 307.480469 398.128906 307.480469 445.972656 C 307.480469 493.8125 352.984375 532.59375 409.117188 532.59375 C 465.25 532.59375 510.75 493.8125 510.75 445.972656 C 510.75 398.128906 465.25 359.347656 409.117188 359.347656 Z M 409.117188 359.347656 " clip-rule="nonzero"/></clipPath><clipPath id="4a88cbfc06"><path d="M 381.210938 405.46875 L 432.878906 405.46875 L 432.878906 428.109375 L 381.210938 428.109375 Z M 381.210938 405.46875 " clip-rule="nonzero"/></clipPath><clipPath id="92286d0cf3"><path d="M 374.179688 378 L 439.195312 378 L 439.195312 409.925781 L 374.179688 409.925781 Z M 374.179688 378 " clip-rule="nonzero"/></clipPath><clipPath id="4e2b36af35"><path d="M 415.246094 384.085938 L 427.746094 384.085938 L 427.746094 394.480469 L 415.246094 394.480469 Z M 415.246094 384.085938 " clip-rule="nonzero"/></clipPath><clipPath id="a705919619"><path d="M 418.332031 384.199219 C 422.632812 386.113281 424.367188 387.292969 425.441406 388.289062 C 426.300781 389.089844 427.128906 390.113281 427.460938 390.734375 C 427.628906 391.050781 427.671875 391.261719 427.703125 391.535156 C 427.734375 391.804688 427.71875 392.089844 427.660156 392.363281 C 427.597656 392.636719 427.507812 392.90625 427.371094 393.148438 C 427.234375 393.390625 427.054688 393.601562 426.84375 393.78125 C 426.632812 393.964844 426.390625 394.113281 426.132812 394.21875 C 425.878906 394.324219 425.589844 394.402344 425.320312 394.414062 C 425.046875 394.429688 424.761719 394.414062 424.488281 394.339844 C 424.230469 394.265625 423.960938 394.160156 423.734375 394.007812 C 423.507812 393.859375 423.28125 393.644531 423.117188 393.433594 C 422.949219 393.222656 422.8125 392.96875 422.722656 392.710938 C 422.632812 392.453125 422.570312 392.167969 422.570312 391.894531 C 422.570312 391.625 422.601562 391.320312 422.691406 391.066406 C 422.785156 390.808594 422.902344 390.539062 423.070312 390.324219 C 423.234375 390.097656 423.449219 389.902344 423.671875 389.753906 C 423.898438 389.601562 424.15625 389.464844 424.414062 389.390625 C 424.667969 389.316406 424.972656 389.269531 425.242188 389.285156 C 425.515625 389.300781 425.800781 389.359375 426.058594 389.449219 C 426.316406 389.554688 426.570312 389.691406 426.78125 389.875 C 426.992188 390.039062 427.191406 390.265625 427.328125 390.492188 C 427.476562 390.71875 427.582031 390.988281 427.644531 391.261719 C 427.703125 391.535156 427.734375 391.820312 427.703125 392.089844 C 427.671875 392.363281 427.597656 392.648438 427.492188 392.890625 C 427.386719 393.148438 427.21875 393.390625 427.039062 393.585938 C 426.859375 393.78125 426.632812 393.964844 426.390625 394.097656 C 426.148438 394.234375 425.878906 394.339844 425.605469 394.386719 C 425.332031 394.429688 425.046875 394.445312 424.777344 394.402344 C 424.503906 394.355469 424.21875 394.265625 423.976562 394.144531 C 423.734375 394.023438 423.554688 393.886719 423.3125 393.644531 C 422.917969 393.253906 422.558594 392.53125 421.921875 391.925781 C 420.972656 391.019531 418.90625 389.554688 417.878906 389.027344 C 417.320312 388.742188 416.835938 388.726562 416.503906 388.546875 C 416.292969 388.4375 416.171875 388.332031 416.035156 388.199219 C 415.902344 388.0625 415.78125 387.957031 415.675781 387.761719 C 415.523438 387.488281 415.34375 387.050781 415.3125 386.6875 C 415.28125 386.328125 415.386719 385.84375 415.492188 385.554688 C 415.570312 385.34375 415.644531 385.222656 415.78125 385.058594 C 415.976562 384.816406 416.382812 384.5 416.65625 384.347656 C 416.851562 384.242188 416.988281 384.183594 417.199219 384.152344 C 417.5 384.109375 418.332031 384.199219 418.332031 384.199219 " clip-rule="nonzero"/></clipPath><clipPath id="c62d958e8a"><path d="M 427.1875 397.460938 L 431.796875 397.460938 L 431.796875 402.207031 L 427.1875 402.207031 Z M 427.1875 397.460938 " clip-rule="nonzero"/></clipPath><clipPath id="e7b807cabd"><path d="M 431.792969 399.15625 C 431.792969 400.621094 431.628906 400.996094 431.402344 401.285156 C 431.175781 401.570312 430.859375 401.828125 430.527344 401.976562 C 430.195312 402.128906 429.785156 402.191406 429.421875 402.175781 C 429.0625 402.160156 428.667969 402.023438 428.351562 401.84375 C 428.035156 401.660156 427.734375 401.359375 427.550781 401.058594 C 427.355469 400.742188 427.234375 400.347656 427.21875 399.984375 C 427.207031 399.625 427.28125 399.214844 427.429688 398.882812 C 427.582031 398.550781 427.824219 398.234375 428.109375 398.007812 C 428.398438 397.78125 428.773438 397.601562 429.136719 397.539062 C 429.5 397.480469 429.90625 397.511719 430.253906 397.617188 C 430.601562 397.722656 431.21875 398.191406 431.21875 398.191406 " clip-rule="nonzero"/></clipPath><clipPath id="b83986587d"><path d="M 204 378 L 253 378 L 253 421 L 204 421 Z M 204 378 " clip-rule="nonzero"/></clipPath><clipPath id="e223392063"><path d="M 214.324219 370.828125 L 259.160156 392.277344 L 241.945312 428.261719 L 197.109375 406.8125 Z M 214.324219 370.828125 " clip-rule="nonzero"/></clipPath><clipPath id="f4dca8a026"><path d="M 236.699219 381.53125 C 224.339844 375.621094 210.46875 378.882812 205.714844 388.820312 C 200.960938 398.753906 207.128906 411.605469 219.484375 417.515625 C 231.84375 423.425781 245.714844 420.164062 250.46875 410.230469 C 255.222656 400.292969 249.058594 387.445312 236.699219 381.53125 Z M 236.699219 381.53125 " clip-rule="nonzero"/></clipPath><clipPath id="e415f293b3"><path d="M 304 323.566406 L 511 323.566406 L 511 396 L 304 396 Z M 304 323.566406 " clip-rule="nonzero"/></clipPath><clipPath id="46b8fd6f75"><path d="M 459.894531 308.648438 L 521.425781 308.648438 L 521.425781 370.183594 L 459.894531 370.183594 Z M 459.894531 308.648438 " clip-rule="nonzero"/></clipPath></defs><g clip-path="url(#87d8bdef4a)"><g clip-path="url(#917e35b705)"><path fill="#f8c038" d="M 258.304688 261.019531 L 554.699219 261.019531 L 554.699219 545.199219 L 258.304688 545.199219 Z M 258.304688 261.019531 " fill-opacity="1" fill-rule="nonzero"/></g></g><g clip-path="url(#068bb9d79d)"><g clip-path="url(#9188aad203)"><g clip-path="url(#eb724c27dd)"><path fill="#f8c038" d="M 555.253906 426.839844 L 599.96875 405.492188 L 617.15625 441.492188 L 572.441406 462.835938 Z M 555.253906 426.839844 " fill-opacity="1" fill-rule="nonzero"/></g></g></g><g clip-path="url(#d7e1599fb2)"><g clip-path="url(#84f9cb9197)"><g clip-path="url(#fc5301bb89)"><path fill="#f09020" d="M 532.621094 542.960938 L 490.246094 596.910156 L 454.183594 568.585938 L 496.558594 514.640625 Z M 532.621094 542.960938 " fill-opacity="1" fill-rule="nonzero"/></g></g></g><g clip-path="url(#8be67da149)"><g clip-path="url(#e99d82e66c)"><g clip-path="url(#13fea42fb7)"><path fill="#f09020" d="M 548.632812 553.636719 L 485.035156 579.359375 L 467.84375 536.851562 L 531.4375 511.128906 Z M 548.632812 553.636719 " fill-opacity="1" fill-rule="nonzero"/></g></g></g><g clip-path="url(#44db4932c2)"><g clip-path="url(#7bfbb395cc)"><g clip-path="url(#3e70b17a6f)"><path fill="#f09020" d="M 400.015625 581.878906 L 334.171875 601.136719 L 321.300781 557.125 L 387.144531 537.871094 Z M 400.015625 581.878906 " fill-opacity="1" fill-rule="nonzero"/></g></g></g><g clip-path="url(#7720c4563f)"><g clip-path="url(#b7adcae111)"><g clip-path="url(#f88b874083)"><path fill="#f09020" d="M 406.835938 599.875 L 340.140625 583.828125 L 350.867188 539.246094 L 417.5625 555.292969 Z M 406.835938 599.875 " fill-opacity="1" fill-rule="nonzero"/></g></g></g><g clip-path="url(#3c98f1984f)"><g clip-path="url(#0c86b7d0f4)"><path fill="#fddc66" d="M 307.480469 359.347656 L 510.507812 359.347656 L 510.507812 532.59375 L 307.480469 532.59375 Z M 307.480469 359.347656 " fill-opacity="1" fill-rule="nonzero"/></g></g><g clip-path="url(#4a88cbfc06)"><path fill="#f86018" d="M 432.652344 402.496094 C 432.652344 403.339844 432.609375 404.179688 432.527344 405.019531 C 432.445312 405.855469 432.320312 406.6875 432.15625 407.515625 C 431.992188 408.339844 431.789062 409.15625 431.542969 409.960938 C 431.296875 410.769531 431.015625 411.5625 430.691406 412.339844 C 430.371094 413.117188 430.011719 413.878906 429.613281 414.621094 C 429.214844 415.363281 428.785156 416.085938 428.316406 416.785156 C 427.847656 417.484375 427.347656 418.160156 426.8125 418.8125 C 426.277344 419.464844 425.714844 420.085938 425.117188 420.683594 C 424.523438 421.277344 423.898438 421.84375 423.246094 422.378906 C 422.597656 422.914062 421.921875 423.414062 421.21875 423.882812 C 420.519531 424.347656 419.796875 424.78125 419.054688 425.179688 C 418.3125 425.574219 417.550781 425.9375 416.773438 426.257812 C 415.996094 426.582031 415.203125 426.863281 414.398438 427.109375 C 413.589844 427.351562 412.773438 427.558594 411.949219 427.722656 C 411.121094 427.886719 410.289062 428.007812 409.453125 428.09375 C 408.613281 428.175781 407.773438 428.214844 406.929688 428.214844 C 406.089844 428.214844 405.25 428.175781 404.410156 428.09375 C 403.574219 428.007812 402.738281 427.886719 401.914062 427.722656 C 401.089844 427.558594 400.273438 427.351562 399.464844 427.109375 C 398.660156 426.863281 397.867188 426.582031 397.089844 426.257812 C 396.3125 425.9375 395.550781 425.574219 394.808594 425.179688 C 394.066406 424.78125 393.34375 424.347656 392.644531 423.882812 C 391.941406 423.414062 391.265625 422.914062 390.617188 422.378906 C 389.964844 421.84375 389.339844 421.277344 388.746094 420.683594 C 388.148438 420.085938 387.585938 419.464844 387.050781 418.8125 C 386.515625 418.160156 386.015625 417.484375 385.546875 416.785156 C 385.078125 416.085938 384.648438 415.363281 384.25 414.621094 C 383.851562 413.878906 383.492188 413.117188 383.171875 412.339844 C 382.847656 411.5625 382.566406 410.769531 382.320312 409.960938 C 382.074219 409.15625 381.871094 408.339844 381.707031 407.515625 C 381.542969 406.6875 381.417969 405.855469 381.335938 405.019531 C 381.253906 404.179688 381.210938 403.339844 381.210938 402.496094 C 381.210938 401.65625 381.253906 400.8125 381.335938 399.976562 C 381.417969 399.136719 381.542969 398.304688 381.707031 397.480469 C 381.871094 396.652344 382.074219 395.835938 382.320312 395.03125 C 382.566406 394.226562 382.847656 393.433594 383.171875 392.65625 C 383.492188 391.875 383.851562 391.117188 384.25 390.371094 C 384.648438 389.628906 385.078125 388.910156 385.546875 388.207031 C 386.015625 387.507812 386.515625 386.832031 387.050781 386.179688 C 387.585938 385.53125 388.148438 384.90625 388.746094 384.3125 C 389.339844 383.714844 389.964844 383.148438 390.617188 382.617188 C 391.265625 382.082031 391.941406 381.582031 392.644531 381.113281 C 393.34375 380.644531 394.066406 380.210938 394.808594 379.816406 C 395.550781 379.417969 396.3125 379.058594 397.089844 378.734375 C 397.867188 378.414062 398.660156 378.128906 399.464844 377.886719 C 400.273438 377.640625 401.089844 377.4375 401.914062 377.273438 C 402.738281 377.109375 403.574219 376.984375 404.410156 376.902344 C 405.25 376.820312 406.089844 376.777344 406.929688 376.777344 C 407.773438 376.777344 408.613281 376.820312 409.453125 376.902344 C 410.289062 376.984375 411.121094 377.109375 411.949219 377.273438 C 412.773438 377.4375 413.589844 377.640625 414.398438 377.886719 C 415.203125 378.128906 415.996094 378.414062 416.773438 378.734375 C 417.550781 379.058594 418.3125 379.417969 419.054688 379.816406 C 419.796875 380.210938 420.519531 380.644531 421.21875 381.113281 C 421.921875 381.582031 422.597656 382.082031 423.246094 382.617188 C 423.898438 383.148438 424.523438 383.714844 425.117188 384.3125 C 425.714844 384.90625 426.277344 385.53125 426.8125 386.179688 C 427.347656 386.832031 427.847656 387.507812 428.316406 388.207031 C 428.785156 388.910156 429.214844 389.628906 429.613281 390.371094 C 430.011719 391.117188 430.371094 391.875 430.691406 392.65625 C 431.015625 393.433594 431.296875 394.226562 431.542969 395.03125 C 431.789062 395.835938 431.992188 396.652344 432.15625 397.480469 C 432.320312 398.304688 432.445312 399.136719 432.527344 399.976562 C 432.609375 400.8125 432.652344 401.65625 432.652344 402.496094 Z M 432.652344 402.496094 " fill-opacity="1" fill-rule="nonzero"/></g><g clip-path="url(#92286d0cf3)"><path fill="#f09020" d="M 439.378906 410.597656 C 439.378906 411.667969 439.324219 412.730469 439.222656 413.792969 C 439.117188 414.855469 438.960938 415.910156 438.75 416.957031 C 438.542969 418.003906 438.285156 419.039062 437.972656 420.0625 C 437.664062 421.082031 437.304688 422.085938 436.898438 423.074219 C 436.488281 424.058594 436.03125 425.023438 435.527344 425.964844 C 435.027344 426.90625 434.476562 427.820312 433.882812 428.710938 C 433.289062 429.597656 432.65625 430.453125 431.976562 431.277344 C 431.300781 432.105469 430.585938 432.894531 429.828125 433.648438 C 429.074219 434.402344 428.285156 435.121094 427.460938 435.796875 C 426.632812 436.476562 425.777344 437.109375 424.890625 437.703125 C 424.003906 438.296875 423.085938 438.84375 422.144531 439.347656 C 421.203125 439.851562 420.242188 440.308594 419.253906 440.714844 C 418.269531 441.125 417.265625 441.484375 416.242188 441.792969 C 415.21875 442.101562 414.1875 442.363281 413.140625 442.570312 C 412.089844 442.777344 411.035156 442.9375 409.972656 443.039062 C 408.910156 443.144531 407.847656 443.199219 406.777344 443.199219 C 405.710938 443.199219 404.644531 443.144531 403.582031 443.039062 C 402.519531 442.9375 401.464844 442.777344 400.417969 442.570312 C 399.371094 442.363281 398.335938 442.101562 397.316406 441.792969 C 396.292969 441.484375 395.289062 441.125 394.304688 440.714844 C 393.316406 440.308594 392.355469 439.851562 391.414062 439.347656 C 390.46875 438.84375 389.554688 438.296875 388.667969 437.703125 C 387.78125 437.109375 386.925781 436.476562 386.097656 435.796875 C 385.273438 435.121094 384.484375 434.402344 383.726562 433.648438 C 382.972656 432.894531 382.257812 432.105469 381.578125 431.277344 C 380.902344 430.453125 380.265625 429.597656 379.675781 428.710938 C 379.082031 427.820312 378.53125 426.90625 378.03125 425.964844 C 377.527344 425.023438 377.070312 424.058594 376.660156 423.074219 C 376.253906 422.085938 375.894531 421.082031 375.582031 420.0625 C 375.273438 419.039062 375.015625 418.003906 374.808594 416.957031 C 374.597656 415.910156 374.441406 414.855469 374.335938 413.792969 C 374.234375 412.730469 374.179688 411.667969 374.179688 410.597656 C 374.179688 409.53125 374.234375 408.464844 374.335938 407.402344 C 374.441406 406.339844 374.597656 405.285156 374.808594 404.238281 C 375.015625 403.191406 375.273438 402.15625 375.582031 401.136719 C 375.894531 400.113281 376.253906 399.109375 376.660156 398.125 C 377.070312 397.136719 377.527344 396.171875 378.03125 395.230469 C 378.53125 394.289062 379.082031 393.375 379.675781 392.488281 C 380.265625 391.601562 380.902344 390.742188 381.578125 389.917969 C 382.257812 389.09375 382.972656 388.300781 383.726562 387.546875 C 384.484375 386.792969 385.273438 386.078125 386.097656 385.398438 C 386.925781 384.722656 387.78125 384.085938 388.667969 383.492188 C 389.554688 382.898438 390.46875 382.351562 391.414062 381.847656 C 392.355469 381.34375 393.316406 380.890625 394.304688 380.480469 C 395.289062 380.074219 396.292969 379.714844 397.316406 379.402344 C 398.335938 379.09375 399.371094 378.835938 400.417969 378.625 C 401.464844 378.417969 402.519531 378.261719 403.582031 378.15625 C 404.644531 378.050781 405.710938 378 406.777344 378 C 407.847656 378 408.910156 378.050781 409.972656 378.15625 C 411.035156 378.261719 412.089844 378.417969 413.140625 378.625 C 414.1875 378.835938 415.21875 379.09375 416.242188 379.402344 C 417.265625 379.714844 418.269531 380.074219 419.253906 380.480469 C 420.242188 380.890625 421.203125 381.34375 422.144531 381.847656 C 423.085938 382.351562 424.003906 382.898438 424.890625 383.492188 C 425.777344 384.085938 426.632812 384.722656 427.460938 385.398438 C 428.285156 386.078125 429.074219 386.792969 429.828125 387.546875 C 430.585938 388.300781 431.300781 389.09375 431.976562 389.917969 C 432.65625 390.742188 433.289062 391.601562 433.882812 392.488281 C 434.476562 393.375 435.027344 394.289062 435.527344 395.230469 C 436.03125 396.171875 436.488281 397.136719 436.898438 398.125 C 437.304688 399.109375 437.664062 400.113281 437.972656 401.136719 C 438.285156 402.15625 438.542969 403.191406 438.75 404.238281 C 438.960938 405.285156 439.117188 406.339844 439.222656 407.402344 C 439.324219 408.464844 439.378906 409.53125 439.378906 410.597656 Z M 439.378906 410.597656 " fill-opacity="1" fill-rule="nonzero"/></g><g clip-path="url(#4e2b36af35)"><g clip-path="url(#a705919619)"><path fill="#ffffff" d="M 414.707031 383.550781 L 428.285156 383.550781 L 428.285156 395.019531 L 414.707031 395.019531 Z M 414.707031 383.550781 " fill-opacity="1" fill-rule="nonzero"/></g></g><g clip-path="url(#c62d958e8a)"><g clip-path="url(#e7b807cabd)"><path fill="#ffffff" d="M 426.617188 396.9375 L 432.457031 396.9375 L 432.457031 402.777344 L 426.617188 402.777344 Z M 426.617188 396.9375 " fill-opacity="1" fill-rule="nonzero"/></g></g><path stroke-linecap="round" transform="matrix(-0.580503, -0.00000000101317, 0.00000000101317, -0.580503, 390.122533, 403.980696)" fill="none" stroke-linejoin="miter" d="M 1.503063 1.500975 L 17.450973 1.500975 " stroke="#c8831a" stroke-width="3" stroke-opacity="1" stroke-miterlimit="4"/><path stroke-linecap="round" transform="matrix(-0.580503, -0.00000000101317, 0.00000000101317, -0.580503, 390.127191, 397.832813)" fill="none" stroke-linejoin="miter" d="M 1.497629 1.50193 L 10.507862 1.50193 " stroke="#c8831a" stroke-width="3" stroke-opacity="1" stroke-miterlimit="4"/><path stroke-linecap="round" transform="matrix(-0.580503, -0.00000000101317, 0.00000000101317, -0.580503, 390.127894, 392.148281)" fill="none" stroke-linejoin="miter" d="M 1.498841 1.500314 L 5.455537 1.500314 " stroke="#c8831a" stroke-width="3" stroke-opacity="1" stroke-miterlimit="4"/><path fill="#39b54a" d="M 405.261719 242.914062 C 404.257812 240.597656 402.765625 236.089844 404.230469 231.273438 C 406.632812 223.371094 416.066406 217.707031 427.417969 218.441406 C 428.925781 228.078125 425.210938 237.109375 418.210938 241.136719 C 413.496094 243.851562 408.613281 243.535156 406.300781 243.210938 C 408.667969 241.414062 411.324219 239.101562 413.984375 236.175781 C 418.085938 231.65625 420.824219 227.175781 422.636719 223.597656 C 420.03125 227.238281 416.902344 231.171875 413.164062 235.1875 C 410.46875 238.085938 407.804688 240.652344 405.261719 242.914062 Z M 405.261719 242.914062 " fill-opacity="1" fill-rule="nonzero"/><path fill="#39b54a" d="M 402.234375 243.167969 C 400.460938 243.703125 397.054688 244.410156 393.671875 242.929688 C 388.128906 240.496094 384.808594 233.117188 386.3125 224.878906 C 393.453125 224.601562 399.710938 228.085938 402.042969 233.546875 C 403.617188 237.226562 402.972656 240.769531 402.539062 242.433594 C 401.429688 240.546875 399.976562 238.40625 398.070312 236.214844 C 395.132812 232.832031 392.105469 230.445312 389.65625 228.816406 C 392.085938 231.03125 394.679688 233.652344 397.285156 236.726562 C 399.164062 238.945312 400.804688 241.113281 402.234375 243.167969 Z M 402.234375 243.167969 " fill-opacity="1" fill-rule="nonzero"/><g clip-path="url(#b83986587d)"><g clip-path="url(#e223392063)"><g clip-path="url(#f4dca8a026)"><path fill="#f8c038" d="M 214.324219 370.828125 L 259.019531 392.210938 L 241.804688 428.195312 L 197.109375 406.8125 Z M 214.324219 370.828125 " fill-opacity="1" fill-rule="nonzero"/></g></g></g><g clip-path="url(#e415f293b3)"><path fill="#000000" d="M 505.421875 354.324219 C 505.472656 355.070312 505.511719 355.828125 505.511719 356.59375 L 505.511719 362.011719 C 505.511719 362.234375 505.511719 362.453125 505.503906 362.671875 C 505.300781 373.855469 499.289062 384.328125 489.800781 390.171875 C 477.390625 397.839844 458.976562 395.308594 445.625 391.582031 C 443.554688 390.996094 441.472656 390.320312 439.433594 389.53125 C 429.335938 385.65625 420.058594 379.136719 415.832031 369.035156 C 415.386719 367.96875 414.996094 366.863281 414.671875 365.707031 C 412.464844 357.992188 413.179688 350.292969 416.035156 343.628906 C 411.175781 340.488281 409.339844 339.964844 408.660156 339.964844 L 406.242188 339.964844 C 405.894531 339.964844 404.054688 340.144531 399.179688 343.230469 C 402.179688 349.984375 402.957031 357.839844 400.710938 365.699219 C 400.386719 366.855469 399.996094 367.960938 399.550781 369.027344 C 395.324219 379.121094 386.046875 385.648438 375.945312 389.519531 C 373.910156 390.3125 371.835938 390.996094 369.757812 391.570312 C 356.40625 395.300781 337.992188 397.832031 325.582031 390.164062 C 316.089844 384.320312 310.089844 373.855469 309.878906 362.664062 C 309.871094 362.445312 309.871094 362.226562 309.871094 362.003906 L 309.871094 356.585938 C 309.871094 355.820312 309.902344 355.0625 309.960938 354.3125 C 306.796875 353.53125 304.425781 350.660156 304.425781 347.25 C 304.425781 343.246094 307.695312 339.964844 311.6875 339.964844 L 314.347656 339.964844 C 320.058594 330.160156 330.652344 323.566406 342.785156 323.566406 L 369.074219 323.566406 C 380.5625 323.566406 390.378906 329.363281 396.21875 337.929688 C 400.539062 335.230469 403.84375 333.894531 406.234375 333.894531 L 408.652344 333.894531 C 411.441406 333.894531 415.132812 335.847656 418.914062 338.273438 C 424.746094 329.515625 434.65625 323.566406 446.304688 323.566406 L 472.59375 323.566406 C 484.730469 323.566406 495.324219 330.160156 501.035156 339.964844 L 503.695312 339.964844 C 507.6875 339.964844 510.953125 343.246094 510.953125 347.25 C 510.953125 350.660156 508.585938 353.53125 505.421875 354.324219 Z M 505.421875 354.324219 " fill-opacity="1" fill-rule="nonzero"/></g><path fill="#f6f6f6" d="M 344.261719 378.910156 C 343.847656 378.910156 343.4375 378.746094 343.121094 378.429688 L 328.113281 363.371094 C 327.480469 362.738281 327.480469 361.703125 328.113281 361.070312 C 328.746094 360.433594 329.777344 360.433594 330.410156 361.070312 L 345.414062 376.125 C 346.046875 376.761719 346.046875 377.792969 345.414062 378.429688 C 345.097656 378.746094 344.675781 378.910156 344.261719 378.910156 Z M 355.960938 378.429688 C 356.59375 377.792969 356.59375 376.761719 355.960938 376.125 L 340.953125 361.070312 C 340.320312 360.433594 339.289062 360.433594 338.65625 361.070312 C 338.023438 361.703125 338.023438 362.738281 338.65625 363.371094 L 353.664062 378.429688 C 353.980469 378.746094 354.394531 378.910156 354.808594 378.910156 C 355.222656 378.910156 355.644531 378.746094 355.960938 378.429688 Z M 450.863281 374.359375 C 451.496094 373.722656 451.496094 372.691406 450.863281 372.054688 L 435.859375 357 C 435.226562 356.363281 434.195312 356.363281 433.5625 357 C 432.929688 357.632812 432.929688 358.667969 433.5625 359.304688 L 448.570312 374.359375 C 448.886719 374.675781 449.300781 374.839844 449.710938 374.839844 C 450.125 374.839844 450.539062 374.675781 450.863281 374.359375 Z M 461.410156 374.359375 C 462.042969 373.722656 462.042969 372.691406 461.410156 372.054688 L 446.402344 357 C 445.769531 356.363281 444.742188 356.363281 444.109375 357 C 443.476562 357.632812 443.476562 358.667969 444.109375 359.304688 L 459.113281 374.359375 C 459.429688 374.675781 459.84375 374.839844 460.257812 374.839844 C 460.671875 374.839844 461.085938 374.675781 461.410156 374.359375 Z M 461.410156 374.359375 " fill-opacity="1" fill-rule="nonzero"/><g clip-path="url(#46b8fd6f75)"><path fill="#ffffff" d="M 490.761719 370.382812 C 490.761719 353.398438 476.878906 339.515625 459.894531 339.515625 C 476.878906 339.515625 490.761719 325.632812 490.761719 308.648438 C 490.761719 325.632812 504.640625 339.515625 521.625 339.515625 C 504.640625 339.515625 490.761719 353.398438 490.761719 370.382812 Z M 490.761719 370.382812 " fill-opacity="1" fill-rule="nonzero"/></g></svg>