<svg xmlns="http://www.w3.org/2000/svg" xmlns:xlink="http://www.w3.org/1999/xlink" width="200" zoomAndPan="magnify" viewBox="0 0 150 149.999998" height="200" preserveAspectRatio="xMidYMid meet" version="1.0"><defs><clipPath id="60f60c8daf"><path d="M 22.410156 22.601562 L 129 22.601562 L 129 124.480469 L 22.410156 124.480469 Z M 22.410156 22.601562 " clip-rule="nonzero"/></clipPath><clipPath id="8647276df9"><path d="M 75.640625 22.601562 C 46.242188 22.601562 22.410156 45.40625 22.410156 73.539062 C 22.410156 101.675781 46.242188 124.480469 75.640625 124.480469 C 105.035156 124.480469 128.867188 101.675781 128.867188 73.539062 C 128.867188 45.40625 105.035156 22.601562 75.640625 22.601562 Z M 75.640625 22.601562 " clip-rule="nonzero"/></clipPath><clipPath id="18f9cceafb"><path d="M 131 77 L 149 77 L 149 93 L 131 93 Z M 131 77 " clip-rule="nonzero"/></clipPath><clipPath id="eca2e06c8c"><path d="M 128.867188 82.046875 L 144.949219 74.371094 L 151.109375 87.277344 L 135.027344 94.953125 Z M 128.867188 82.046875 " clip-rule="nonzero"/></clipPath><clipPath id="547dd5badb"><path d="M 136.894531 78.21875 C 132.460938 80.332031 130.246094 84.9375 131.949219 88.5 C 133.648438 92.066406 138.621094 93.238281 143.054688 91.121094 C 147.484375 89.007812 149.699219 84.402344 148 80.839844 C 146.296875 77.273438 141.324219 76.101562 136.894531 78.21875 Z M 136.894531 78.21875 " clip-rule="nonzero"/></clipPath><clipPath id="8660d6c48b"><path d="M 96 117 L 117 117 L 117 140 L 96 140 Z M 96 117 " clip-rule="nonzero"/></clipPath><clipPath id="b75cf9e3a9"><path d="M 120.753906 123.679688 L 105.519531 143.070312 L 92.59375 132.914062 L 107.824219 113.523438 Z M 120.753906 123.679688 " clip-rule="nonzero"/></clipPath><clipPath id="36170a8b1d"><path d="M 113.152344 133.351562 C 117.351562 128.007812 117.859375 121.40625 114.289062 118.601562 C 110.71875 115.796875 104.421875 117.855469 100.226562 123.199219 C 96.03125 128.539062 95.523438 135.144531 99.09375 137.949219 C 102.660156 140.753906 108.957031 138.695312 113.152344 133.351562 Z M 113.152344 133.351562 " clip-rule="nonzero"/></clipPath><clipPath id="47e0949f0f"><path d="M 100 115 L 124 115 L 124 134 L 100 134 Z M 100 115 " clip-rule="nonzero"/></clipPath><clipPath id="9f4fb988fa"><path d="M 126.492188 127.503906 L 103.632812 136.75 L 97.46875 121.511719 L 120.328125 112.265625 Z M 126.492188 127.503906 " clip-rule="nonzero"/></clipPath><clipPath id="c51133b7df"><path d="M 115.089844 132.117188 C 121.386719 129.570312 125.113281 124.09375 123.410156 119.886719 C 121.710938 115.675781 115.222656 114.332031 108.925781 116.878906 C 102.628906 119.425781 98.902344 124.902344 100.605469 129.109375 C 102.304688 133.320312 108.792969 134.664062 115.089844 132.117188 Z M 115.089844 132.117188 " clip-rule="nonzero"/></clipPath><clipPath id="49ff3401bb"><path d="M 47 124 L 72 124 L 72 142 L 47 142 Z M 47 124 " clip-rule="nonzero"/></clipPath><clipPath id="0318cf9ac2"><path d="M 73.214844 137.628906 L 49.546875 144.550781 L 44.933594 128.773438 L 68.597656 121.851562 Z M 73.214844 137.628906 " clip-rule="nonzero"/></clipPath><clipPath id="555c4907b0"><path d="M 61.40625 141.082031 C 67.925781 139.175781 72.179688 134.097656 70.90625 129.742188 C 69.632812 125.386719 63.3125 123.398438 56.792969 125.304688 C 50.273438 127.214844 46.019531 132.289062 47.292969 136.648438 C 48.566406 141.003906 54.886719 142.992188 61.40625 141.082031 Z M 61.40625 141.082031 " clip-rule="nonzero"/></clipPath><clipPath id="b8a50ac5de"><path d="M 53 124 L 78 124 L 78 142 L 53 142 Z M 53 124 " clip-rule="nonzero"/></clipPath><clipPath id="916c56754e"><path d="M 75.660156 144.082031 L 51.683594 138.3125 L 55.53125 122.332031 L 79.503906 128.097656 Z M 75.660156 144.082031 " clip-rule="nonzero"/></clipPath><clipPath id="91174a8efe"><path d="M 63.699219 141.203125 C 70.304688 142.792969 76.519531 140.503906 77.582031 136.089844 C 78.644531 131.675781 74.148438 126.8125 67.542969 125.222656 C 60.941406 123.632812 54.722656 125.921875 53.664062 130.335938 C 52.601562 134.75 57.09375 139.613281 63.699219 141.203125 Z M 63.699219 141.203125 " clip-rule="nonzero"/></clipPath><clipPath id="0a815de28d"><path d="M 40.039062 57.851562 L 113 57.851562 L 113 119.960938 L 40.039062 119.960938 Z M 40.039062 57.851562 " clip-rule="nonzero"/></clipPath><clipPath id="75f5ced5e0"><path d="M 76.476562 57.851562 C 56.351562 57.851562 40.039062 71.753906 40.039062 88.90625 C 40.039062 106.058594 56.351562 119.960938 76.476562 119.960938 C 96.601562 119.960938 112.914062 106.058594 112.914062 88.90625 C 112.914062 71.753906 96.601562 57.851562 76.476562 57.851562 Z M 76.476562 57.851562 " clip-rule="nonzero"/></clipPath><clipPath id="35a358a8f8"><path d="M 66.472656 74.386719 L 84.996094 74.386719 L 84.996094 82.503906 L 66.472656 82.503906 Z M 66.472656 74.386719 " clip-rule="nonzero"/></clipPath><clipPath id="abf7d5166b"><path d="M 63.953125 64.539062 L 87.261719 64.539062 L 87.261719 75.984375 L 63.953125 75.984375 Z M 63.953125 64.539062 " clip-rule="nonzero"/></clipPath><clipPath id="00257de277"><path d="M 78.675781 66.722656 L 83.15625 66.722656 L 83.15625 70.449219 L 78.675781 70.449219 Z M 78.675781 66.722656 " clip-rule="nonzero"/></clipPath><clipPath id="63072c6ceb"><path d="M 79.78125 66.761719 C 81.320312 67.449219 81.945312 67.871094 82.328125 68.226562 C 82.636719 68.515625 82.933594 68.882812 83.054688 69.105469 C 83.113281 69.21875 83.128906 69.292969 83.140625 69.390625 C 83.152344 69.488281 83.144531 69.589844 83.125 69.6875 C 83.101562 69.785156 83.070312 69.882812 83.019531 69.96875 C 82.972656 70.054688 82.90625 70.132812 82.832031 70.195312 C 82.753906 70.261719 82.667969 70.316406 82.578125 70.355469 C 82.484375 70.390625 82.382812 70.417969 82.285156 70.425781 C 82.1875 70.429688 82.085938 70.425781 81.988281 70.398438 C 81.894531 70.371094 81.796875 70.332031 81.71875 70.277344 C 81.636719 70.222656 81.554688 70.148438 81.496094 70.074219 C 81.433594 69.996094 81.386719 69.90625 81.355469 69.8125 C 81.320312 69.722656 81.300781 69.617188 81.300781 69.519531 C 81.300781 69.421875 81.3125 69.316406 81.34375 69.222656 C 81.375 69.132812 81.417969 69.035156 81.480469 68.957031 C 81.539062 68.875 81.613281 68.804688 81.695312 68.753906 C 81.777344 68.699219 81.867188 68.648438 81.960938 68.621094 C 82.050781 68.59375 82.160156 68.578125 82.257812 68.585938 C 82.355469 68.589844 82.457031 68.613281 82.550781 68.644531 C 82.640625 68.683594 82.734375 68.730469 82.808594 68.796875 C 82.886719 68.855469 82.957031 68.9375 83.003906 69.015625 C 83.058594 69.097656 83.097656 69.195312 83.117188 69.292969 C 83.140625 69.390625 83.152344 69.492188 83.140625 69.589844 C 83.128906 69.6875 83.101562 69.792969 83.0625 69.878906 C 83.027344 69.96875 82.964844 70.054688 82.902344 70.125 C 82.835938 70.195312 82.753906 70.261719 82.667969 70.308594 C 82.582031 70.359375 82.484375 70.398438 82.386719 70.414062 C 82.289062 70.429688 82.1875 70.433594 82.089844 70.417969 C 81.992188 70.402344 81.890625 70.371094 81.804688 70.328125 C 81.71875 70.285156 81.652344 70.234375 81.566406 70.148438 C 81.425781 70.007812 81.292969 69.746094 81.066406 69.53125 C 80.726562 69.207031 79.984375 68.683594 79.617188 68.492188 C 79.417969 68.390625 79.242188 68.382812 79.125 68.320312 C 79.050781 68.28125 79.007812 68.242188 78.957031 68.195312 C 78.910156 68.144531 78.867188 68.109375 78.828125 68.039062 C 78.773438 67.941406 78.707031 67.785156 78.699219 67.652344 C 78.6875 67.523438 78.726562 67.351562 78.761719 67.246094 C 78.789062 67.171875 78.816406 67.128906 78.867188 67.070312 C 78.9375 66.984375 79.082031 66.871094 79.179688 66.816406 C 79.25 66.777344 79.296875 66.753906 79.375 66.746094 C 79.480469 66.730469 79.78125 66.761719 79.78125 66.761719 " clip-rule="nonzero"/></clipPath><clipPath id="f870716eef"><path d="M 82.953125 71.515625 L 84.605469 71.515625 L 84.605469 73.21875 L 82.953125 73.21875 Z M 82.953125 71.515625 " clip-rule="nonzero"/></clipPath><clipPath id="26733606ec"><path d="M 84.605469 72.125 C 84.605469 72.648438 84.546875 72.785156 84.464844 72.886719 C 84.382812 72.988281 84.269531 73.082031 84.152344 73.136719 C 84.03125 73.1875 83.886719 73.210938 83.757812 73.207031 C 83.625 73.199219 83.484375 73.152344 83.371094 73.085938 C 83.257812 73.023438 83.152344 72.914062 83.085938 72.804688 C 83.015625 72.691406 82.972656 72.550781 82.964844 72.421875 C 82.960938 72.292969 82.988281 72.144531 83.042969 72.027344 C 83.097656 71.90625 83.183594 71.792969 83.285156 71.710938 C 83.386719 71.632812 83.523438 71.566406 83.652344 71.542969 C 83.785156 71.523438 83.929688 71.535156 84.054688 71.570312 C 84.179688 71.609375 84.402344 71.777344 84.402344 71.777344 " clip-rule="nonzero"/></clipPath><clipPath id="286242f4db"><path d="M 74 7.074219 L 83.578125 7.074219 L 83.578125 16.648438 L 74 16.648438 Z M 74 7.074219 " clip-rule="nonzero"/></clipPath><clipPath id="ec033e8dbc"><path d="M 68 9 L 75 9 L 75 16.648438 L 68 16.648438 Z M 68 9 " clip-rule="nonzero"/></clipPath><clipPath id="3b990636f8"><path d="M 2 64 L 21 64 L 21 80 L 2 80 Z M 2 64 " clip-rule="nonzero"/></clipPath><clipPath id="181e0ec97b"><path d="M 6.640625 61.96875 L 22.714844 69.65625 L 16.546875 82.558594 L 0.472656 74.867188 Z M 6.640625 61.96875 " clip-rule="nonzero"/></clipPath><clipPath id="da24cc85a6"><path d="M 14.664062 65.804688 C 10.234375 63.6875 5.261719 64.855469 3.554688 68.417969 C 1.851562 71.980469 4.0625 76.585938 8.492188 78.707031 C 12.921875 80.824219 17.898438 79.65625 19.601562 76.09375 C 21.304688 72.53125 19.09375 67.925781 14.664062 65.804688 Z M 14.664062 65.804688 " clip-rule="nonzero"/></clipPath><clipPath id="4c4d646539"><path d="M 38.710938 45.023438 L 113 45.023438 L 113 71 L 38.710938 71 Z M 38.710938 45.023438 " clip-rule="nonzero"/></clipPath><clipPath id="cb04a91501"><path d="M 94.679688 39.675781 L 116.738281 39.675781 L 116.738281 61.738281 L 94.679688 61.738281 Z M 94.679688 39.675781 " clip-rule="nonzero"/></clipPath></defs><g clip-path="url(#60f60c8daf)"><g clip-path="url(#8647276df9)"><path fill="#f8c038" d="M 22.410156 22.601562 L 128.667969 22.601562 L 128.667969 124.480469 L 22.410156 124.480469 Z M 22.410156 22.601562 " fill-opacity="1" fill-rule="nonzero"/></g></g><g clip-path="url(#18f9cceafb)"><g clip-path="url(#eca2e06c8c)"><g clip-path="url(#547dd5badb)"><path fill="#f8c038" d="M 128.867188 82.046875 L 144.898438 74.394531 L 151.058594 87.300781 L 135.027344 94.953125 Z M 128.867188 82.046875 " fill-opacity="1" fill-rule="nonzero"/></g></g></g><g clip-path="url(#8660d6c48b)"><g clip-path="url(#b75cf9e3a9)"><g clip-path="url(#36170a8b1d)"><path fill="#f09020" d="M 120.753906 123.679688 L 105.5625 143.019531 L 92.632812 132.863281 L 107.824219 113.523438 Z M 120.753906 123.679688 " fill-opacity="1" fill-rule="nonzero"/></g></g></g><g clip-path="url(#47e0949f0f)"><g clip-path="url(#9f4fb988fa)"><g clip-path="url(#c51133b7df)"><path fill="#f09020" d="M 126.492188 127.503906 L 103.695312 136.726562 L 97.53125 121.488281 L 120.328125 112.265625 Z M 126.492188 127.503906 " fill-opacity="1" fill-rule="nonzero"/></g></g></g><g clip-path="url(#49ff3401bb)"><g clip-path="url(#0318cf9ac2)"><g clip-path="url(#555c4907b0)"><path fill="#f09020" d="M 73.214844 137.628906 L 49.609375 144.535156 L 44.996094 128.757812 L 68.597656 121.851562 Z M 73.214844 137.628906 " fill-opacity="1" fill-rule="nonzero"/></g></g></g><g clip-path="url(#b8a50ac5de)"><g clip-path="url(#916c56754e)"><g clip-path="url(#91174a8efe)"><path fill="#f09020" d="M 75.660156 144.082031 L 51.746094 138.328125 L 55.59375 122.347656 L 79.503906 128.097656 Z M 75.660156 144.082031 " fill-opacity="1" fill-rule="nonzero"/></g></g></g><g clip-path="url(#0a815de28d)"><g clip-path="url(#75f5ced5e0)"><path fill="#fddc66" d="M 40.039062 57.851562 L 112.824219 57.851562 L 112.824219 119.960938 L 40.039062 119.960938 Z M 40.039062 57.851562 " fill-opacity="1" fill-rule="nonzero"/></g></g><g clip-path="url(#35a358a8f8)"><path fill="#f86018" d="M 84.914062 73.320312 C 84.914062 73.925781 84.855469 74.527344 84.734375 75.121094 C 84.617188 75.714844 84.441406 76.289062 84.210938 76.847656 C 83.980469 77.410156 83.695312 77.941406 83.359375 78.445312 C 83.023438 78.945312 82.640625 79.414062 82.210938 79.839844 C 81.785156 80.269531 81.320312 80.652344 80.816406 80.988281 C 80.3125 81.324219 79.78125 81.609375 79.222656 81.839844 C 78.664062 82.070312 78.085938 82.246094 77.492188 82.363281 C 76.898438 82.484375 76.296875 82.542969 75.691406 82.542969 C 75.085938 82.542969 74.488281 82.484375 73.894531 82.363281 C 73.300781 82.246094 72.722656 82.070312 72.164062 81.839844 C 71.605469 81.609375 71.074219 81.324219 70.570312 80.988281 C 70.066406 80.652344 69.601562 80.269531 69.171875 79.839844 C 68.746094 79.414062 68.363281 78.945312 68.027344 78.445312 C 67.691406 77.941406 67.40625 77.410156 67.175781 76.847656 C 66.941406 76.289062 66.769531 75.714844 66.648438 75.121094 C 66.53125 74.527344 66.472656 73.925781 66.472656 73.320312 C 66.472656 72.714844 66.53125 72.117188 66.648438 71.523438 C 66.769531 70.929688 66.941406 70.351562 67.175781 69.792969 C 67.40625 69.234375 67.691406 68.703125 68.027344 68.199219 C 68.363281 67.695312 68.746094 67.230469 69.171875 66.800781 C 69.601562 66.375 70.066406 65.992188 70.570312 65.65625 C 71.074219 65.316406 71.605469 65.035156 72.164062 64.800781 C 72.722656 64.570312 73.300781 64.394531 73.894531 64.277344 C 74.488281 64.160156 75.085938 64.101562 75.691406 64.101562 C 76.296875 64.101562 76.898438 64.160156 77.492188 64.277344 C 78.085938 64.394531 78.664062 64.570312 79.222656 64.800781 C 79.78125 65.035156 80.3125 65.316406 80.816406 65.65625 C 81.320312 65.992188 81.785156 66.375 82.210938 66.800781 C 82.640625 67.230469 83.023438 67.695312 83.359375 68.199219 C 83.695312 68.703125 83.980469 69.234375 84.210938 69.792969 C 84.441406 70.351562 84.617188 70.929688 84.734375 71.523438 C 84.855469 72.117188 84.914062 72.714844 84.914062 73.320312 Z M 84.914062 73.320312 " fill-opacity="1" fill-rule="nonzero"/></g><g clip-path="url(#abf7d5166b)"><path fill="#f09020" d="M 87.324219 76.226562 C 87.324219 76.992188 87.25 77.753906 87.101562 78.503906 C 86.949219 79.257812 86.730469 79.988281 86.4375 80.699219 C 86.140625 81.40625 85.78125 82.082031 85.355469 82.71875 C 84.929688 83.355469 84.445312 83.945312 83.902344 84.488281 C 83.359375 85.03125 82.769531 85.515625 82.132812 85.941406 C 81.492188 86.371094 80.820312 86.730469 80.109375 87.023438 C 79.402344 87.316406 78.671875 87.539062 77.917969 87.6875 C 77.164062 87.835938 76.40625 87.914062 75.636719 87.914062 C 74.871094 87.914062 74.109375 87.835938 73.359375 87.6875 C 72.605469 87.539062 71.875 87.316406 71.167969 87.023438 C 70.457031 86.730469 69.785156 86.371094 69.144531 85.941406 C 68.507812 85.515625 67.917969 85.03125 67.375 84.488281 C 66.832031 83.945312 66.347656 83.355469 65.921875 82.71875 C 65.496094 82.082031 65.136719 81.40625 64.839844 80.699219 C 64.546875 79.988281 64.324219 79.257812 64.175781 78.503906 C 64.027344 77.753906 63.953125 76.992188 63.953125 76.226562 C 63.953125 75.457031 64.027344 74.699219 64.175781 73.945312 C 64.324219 73.191406 64.546875 72.460938 64.839844 71.753906 C 65.136719 71.042969 65.496094 70.371094 65.921875 69.734375 C 66.347656 69.09375 66.832031 68.503906 67.375 67.960938 C 67.917969 67.417969 68.507812 66.933594 69.144531 66.507812 C 69.785156 66.082031 70.457031 65.722656 71.167969 65.429688 C 71.875 65.132812 72.605469 64.914062 73.359375 64.761719 C 74.109375 64.613281 74.871094 64.539062 75.636719 64.539062 C 76.40625 64.539062 77.164062 64.613281 77.917969 64.761719 C 78.671875 64.914062 79.402344 65.132812 80.109375 65.429688 C 80.820312 65.722656 81.492188 66.082031 82.132812 66.507812 C 82.769531 66.933594 83.359375 67.417969 83.902344 67.960938 C 84.445312 68.503906 84.929688 69.09375 85.355469 69.734375 C 85.78125 70.371094 86.140625 71.042969 86.4375 71.753906 C 86.730469 72.460938 86.949219 73.191406 87.101562 73.945312 C 87.25 74.699219 87.324219 75.457031 87.324219 76.226562 Z M 87.324219 76.226562 " fill-opacity="1" fill-rule="nonzero"/></g><g clip-path="url(#00257de277)"><g clip-path="url(#63072c6ceb)"><path fill="#ffffff" d="M 78.480469 66.527344 L 83.347656 66.527344 L 83.347656 70.640625 L 78.480469 70.640625 Z M 78.480469 66.527344 " fill-opacity="1" fill-rule="nonzero"/></g></g><g clip-path="url(#f870716eef)"><g clip-path="url(#26733606ec)"><path fill="#ffffff" d="M 82.75 71.328125 L 84.84375 71.328125 L 84.84375 73.421875 L 82.75 73.421875 Z M 82.75 71.328125 " fill-opacity="1" fill-rule="nonzero"/></g></g><path stroke-linecap="round" transform="matrix(-0.208113, -0.000000000363225, 0.000000000363225, -0.208113, 69.66694, 73.853143)" fill="none" stroke-linejoin="miter" d="M 1.49665 1.509188 L 17.451062 1.509188 " stroke="#c8831a" stroke-width="3" stroke-opacity="1" stroke-miterlimit="4"/><path stroke-linecap="round" transform="matrix(-0.208113, -0.000000000363225, 0.000000000363225, -0.208113, 69.668625, 71.649139)" fill="none" stroke-linejoin="miter" d="M 1.504746 1.504964 L 10.495526 1.504964 " stroke="#c8831a" stroke-width="3" stroke-opacity="1" stroke-miterlimit="4"/><path stroke-linecap="round" transform="matrix(-0.208113, -0.000000000363225, 0.000000000363225, -0.208113, 69.66886, 69.611189)" fill="none" stroke-linejoin="miter" d="M 1.505876 1.491539 L 5.447554 1.491539 " stroke="#c8831a" stroke-width="3" stroke-opacity="1" stroke-miterlimit="4"/><g clip-path="url(#286242f4db)"><path fill="#39b54a" d="M 75.09375 16.109375 C 74.734375 15.28125 74.199219 13.664062 74.722656 11.9375 C 75.585938 9.105469 78.96875 7.074219 83.039062 7.335938 C 83.578125 10.792969 82.246094 14.027344 79.738281 15.472656 C 78.046875 16.445312 76.296875 16.332031 75.464844 16.21875 C 76.316406 15.570312 77.269531 14.742188 78.222656 13.695312 C 79.691406 12.074219 80.671875 10.46875 81.324219 9.1875 C 80.390625 10.492188 79.269531 11.898438 77.929688 13.339844 C 76.960938 14.378906 76.007812 15.300781 75.09375 16.109375 Z M 75.09375 16.109375 " fill-opacity="1" fill-rule="nonzero"/></g><g clip-path="url(#ec033e8dbc)"><path fill="#39b54a" d="M 74.007812 16.199219 C 73.375 16.394531 72.152344 16.644531 70.941406 16.117188 C 68.953125 15.242188 67.761719 12.597656 68.300781 9.644531 C 70.859375 9.542969 73.105469 10.792969 73.941406 12.75 C 74.503906 14.070312 74.273438 15.339844 74.117188 15.9375 C 73.722656 15.261719 73.199219 14.496094 72.515625 13.707031 C 71.464844 12.496094 70.378906 11.640625 69.5 11.054688 C 70.371094 11.851562 71.300781 12.789062 72.234375 13.890625 C 72.910156 14.6875 73.496094 15.464844 74.007812 16.199219 Z M 74.007812 16.199219 " fill-opacity="1" fill-rule="nonzero"/></g><g clip-path="url(#3b990636f8)"><g clip-path="url(#181e0ec97b)"><g clip-path="url(#da24cc85a6)"><path fill="#f8c038" d="M 6.640625 61.96875 L 22.667969 69.632812 L 16.496094 82.535156 L 0.472656 74.867188 Z M 6.640625 61.96875 " fill-opacity="1" fill-rule="nonzero"/></g></g></g><g clip-path="url(#4c4d646539)"><path fill="#000000" d="M 111.003906 56.050781 C 111.019531 56.320312 111.035156 56.589844 111.035156 56.863281 L 111.035156 58.808594 C 111.035156 58.886719 111.035156 58.964844 111.03125 59.042969 C 110.957031 63.054688 108.804688 66.808594 105.402344 68.902344 C 100.953125 71.652344 94.351562 70.742188 89.566406 69.40625 C 88.824219 69.199219 88.074219 68.957031 87.347656 68.671875 C 83.726562 67.285156 80.398438 64.945312 78.882812 61.324219 C 78.722656 60.945312 78.582031 60.546875 78.46875 60.132812 C 77.675781 57.367188 77.933594 54.605469 78.957031 52.214844 C 77.214844 51.089844 76.558594 50.902344 76.3125 50.902344 L 75.445312 50.902344 C 75.320312 50.902344 74.660156 50.96875 72.914062 52.074219 C 73.988281 54.496094 74.269531 57.3125 73.464844 60.128906 C 73.347656 60.542969 73.207031 60.941406 73.046875 61.324219 C 71.53125 64.941406 68.207031 67.28125 64.585938 68.667969 C 63.855469 68.953125 63.109375 69.199219 62.367188 69.40625 C 57.578125 70.742188 50.976562 71.648438 46.527344 68.898438 C 43.125 66.804688 40.976562 63.054688 40.898438 59.042969 C 40.894531 58.960938 40.894531 58.882812 40.894531 58.804688 L 40.894531 56.863281 C 40.894531 56.585938 40.90625 56.316406 40.929688 56.046875 C 39.792969 55.765625 38.945312 54.738281 38.945312 53.515625 C 38.945312 52.078125 40.117188 50.902344 41.546875 50.902344 L 42.5 50.902344 C 44.546875 47.386719 48.347656 45.023438 52.695312 45.023438 L 62.121094 45.023438 C 66.238281 45.023438 69.757812 47.101562 71.851562 50.175781 C 73.402344 49.207031 74.585938 48.726562 75.441406 48.726562 L 76.308594 48.726562 C 77.308594 48.726562 78.632812 49.425781 79.988281 50.296875 C 82.078125 47.15625 85.632812 45.023438 89.808594 45.023438 L 99.234375 45.023438 C 103.585938 45.023438 107.382812 47.386719 109.429688 50.902344 L 110.382812 50.902344 C 111.8125 50.902344 112.984375 52.078125 112.984375 53.515625 C 112.984375 54.738281 112.136719 55.765625 111.003906 56.050781 Z M 111.003906 56.050781 " fill-opacity="1" fill-rule="nonzero"/></g><path fill="#f6f6f6" d="M 53.226562 64.863281 C 53.078125 64.863281 52.929688 64.804688 52.816406 64.691406 L 47.4375 59.292969 C 47.210938 59.066406 47.210938 58.695312 47.4375 58.46875 C 47.664062 58.242188 48.03125 58.242188 48.257812 58.46875 L 53.640625 63.867188 C 53.867188 64.09375 53.867188 64.464844 53.640625 64.691406 C 53.527344 64.804688 53.375 64.863281 53.226562 64.863281 Z M 57.417969 64.691406 C 57.644531 64.464844 57.644531 64.09375 57.417969 63.867188 L 52.039062 58.46875 C 51.8125 58.242188 51.445312 58.242188 51.214844 58.46875 C 50.988281 58.695312 50.988281 59.066406 51.214844 59.292969 L 56.597656 64.691406 C 56.710938 64.804688 56.859375 64.863281 57.007812 64.863281 C 57.15625 64.863281 57.304688 64.804688 57.417969 64.691406 Z M 91.441406 63.234375 C 91.671875 63.007812 91.671875 62.636719 91.441406 62.40625 L 86.0625 57.011719 C 85.835938 56.78125 85.46875 56.78125 85.242188 57.011719 C 85.011719 57.238281 85.011719 57.609375 85.242188 57.835938 L 90.621094 63.234375 C 90.734375 63.347656 90.882812 63.40625 91.03125 63.40625 C 91.179688 63.40625 91.328125 63.347656 91.441406 63.234375 Z M 95.222656 63.234375 C 95.449219 63.007812 95.449219 62.636719 95.222656 62.40625 L 89.84375 57.011719 C 89.617188 56.78125 89.246094 56.78125 89.019531 57.011719 C 88.792969 57.238281 88.792969 57.609375 89.019531 57.835938 L 94.402344 63.234375 C 94.515625 63.347656 94.664062 63.40625 94.8125 63.40625 C 94.957031 63.40625 95.105469 63.347656 95.222656 63.234375 Z M 95.222656 63.234375 " fill-opacity="1" fill-rule="nonzero"/><g clip-path="url(#cb04a91501)"><path fill="#ffffff" d="M 105.746094 61.808594 C 105.746094 55.71875 100.769531 50.742188 94.679688 50.742188 C 100.769531 50.742188 105.746094 45.765625 105.746094 39.675781 C 105.746094 45.765625 110.722656 50.742188 116.8125 50.742188 C 110.722656 50.742188 105.746094 55.71875 105.746094 61.808594 Z M 105.746094 61.808594 " fill-opacity="1" fill-rule="nonzero"/></g></svg>