<svg xmlns="http://www.w3.org/2000/svg" xmlns:xlink="http://www.w3.org/1999/xlink" width="200" zoomAndPan="magnify" viewBox="0 0 150 149.999998" height="200" preserveAspectRatio="xMidYMid meet" version="1.0"><defs><clipPath id="6459fa886e"><path d="M 7.054688 19.351562 L 127.902344 19.351562 L 127.902344 134.789062 L 7.054688 134.789062 Z M 7.054688 19.351562 " clip-rule="nonzero"/></clipPath><clipPath id="8382a058d5"><path d="M 67.367188 19.351562 C 34.058594 19.351562 7.054688 45.191406 7.054688 77.070312 C 7.054688 108.945312 34.058594 134.789062 67.367188 134.789062 C 100.675781 134.789062 127.679688 108.945312 127.679688 77.070312 C 127.679688 45.191406 100.675781 19.351562 67.367188 19.351562 Z M 67.367188 19.351562 " clip-rule="nonzero"/></clipPath><clipPath id="5ccbeab9cd"><path d="M 129 84 L 147 84 L 147 105 L 129 105 Z M 129 84 " clip-rule="nonzero"/></clipPath><clipPath id="ef06159139"><path d="M 139.042969 81.609375 L 150.132812 98.484375 L 136.59375 107.382812 L 125.503906 90.507812 Z M 139.042969 81.609375 " clip-rule="nonzero"/></clipPath><clipPath id="ac693ac477"><path d="M 144.578125 90.03125 C 141.523438 85.378906 136.011719 83.601562 132.273438 86.058594 C 128.535156 88.515625 127.980469 94.277344 131.039062 98.929688 C 134.09375 103.578125 139.601562 105.359375 143.34375 102.902344 C 147.082031 100.441406 147.636719 94.679688 144.578125 90.03125 Z M 144.578125 90.03125 " clip-rule="nonzero"/></clipPath><clipPath id="d6135b7dc7"><path d="M 36.625 59.683594 L 119.371094 59.683594 L 119.371094 130.058594 L 36.625 130.058594 Z M 36.625 59.683594 " clip-rule="nonzero"/></clipPath><clipPath id="292efdf8c4"><path d="M 77.910156 59.683594 C 55.109375 59.683594 36.625 75.4375 36.625 94.871094 C 36.625 114.304688 55.109375 130.058594 77.910156 130.058594 C 100.710938 130.058594 119.195312 114.304688 119.195312 94.871094 C 119.195312 75.4375 100.710938 59.683594 77.910156 59.683594 Z M 77.910156 59.683594 " clip-rule="nonzero"/></clipPath><clipPath id="7eca44c222"><path d="M 79 121 L 107 121 L 107 141 L 79 141 Z M 79 121 " clip-rule="nonzero"/></clipPath><clipPath id="ca6189c667"><path d="M 109.164062 136.523438 L 82.199219 143.839844 L 77.320312 125.863281 L 104.285156 118.546875 Z M 109.164062 136.523438 " clip-rule="nonzero"/></clipPath><clipPath id="05c5c36662"><path d="M 95.710938 140.171875 C 103.140625 138.15625 108.070312 132.496094 106.722656 127.535156 C 105.378906 122.570312 98.261719 120.179688 90.832031 122.195312 C 83.40625 124.210938 78.472656 129.871094 79.820312 134.832031 C 81.167969 139.796875 88.28125 142.1875 95.710938 140.171875 Z M 95.710938 140.171875 " clip-rule="nonzero"/></clipPath><clipPath id="813b5d9664"><path d="M 86 121 L 115 121 L 115 142 L 86 142 Z M 86 121 " clip-rule="nonzero"/></clipPath><clipPath id="5520688f3c"><path d="M 111.789062 143.882812 L 84.757812 136.816406 L 89.46875 118.796875 L 116.5 125.863281 Z M 111.789062 143.882812 " clip-rule="nonzero"/></clipPath><clipPath id="90a2b78e2b"><path d="M 98.304688 140.359375 C 105.753906 142.304688 112.84375 139.851562 114.144531 134.875 C 115.445312 129.898438 110.464844 124.285156 103.015625 122.339844 C 95.570312 120.390625 88.476562 122.847656 87.175781 127.824219 C 85.875 132.800781 90.859375 138.414062 98.304688 140.359375 Z M 98.304688 140.359375 " clip-rule="nonzero"/></clipPath><clipPath id="1f559175c4"><path d="M 39 121 L 68 121 L 68 141 L 39 141 Z M 39 121 " clip-rule="nonzero"/></clipPath><clipPath id="f2fad6e497"><path d="M 69.292969 136.257812 L 42.304688 143.476562 L 37.488281 125.484375 L 64.480469 118.265625 Z M 69.292969 136.257812 " clip-rule="nonzero"/></clipPath><clipPath id="2c9ef837d7"><path d="M 55.828125 139.859375 C 63.265625 137.871094 68.214844 132.230469 66.886719 127.261719 C 65.558594 122.292969 58.453125 119.878906 51.015625 121.867188 C 43.578125 123.855469 38.628906 129.496094 39.957031 134.464844 C 41.285156 139.433594 48.390625 141.847656 55.828125 139.859375 Z M 55.828125 139.859375 " clip-rule="nonzero"/></clipPath><clipPath id="944e088d6e"><path d="M 47 121 L 75 121 L 75 141 L 47 141 Z M 47 121 " clip-rule="nonzero"/></clipPath><clipPath id="4d3c36b606"><path d="M 71.894531 143.628906 L 44.886719 136.46875 L 49.664062 118.464844 L 76.667969 125.628906 Z M 71.894531 143.628906 " clip-rule="nonzero"/></clipPath><clipPath id="d7b493c7a4"><path d="M 58.421875 140.058594 C 65.863281 142.03125 72.960938 139.601562 74.28125 134.628906 C 75.601562 129.65625 70.636719 124.027344 63.195312 122.054688 C 55.757812 120.082031 48.65625 122.511719 47.335938 127.480469 C 46.019531 132.453125 50.980469 138.082031 58.421875 140.058594 Z M 58.421875 140.058594 " clip-rule="nonzero"/></clipPath><clipPath id="1b0ab557c2"><path d="M 47.640625 41.515625 L 75.375 41.515625 L 75.375 77.164062 L 47.640625 77.164062 Z M 47.640625 41.515625 " clip-rule="nonzero"/></clipPath><clipPath id="d3ad20e5cc"><path d="M 61.507812 41.515625 C 65.1875 41.515625 68.714844 42.976562 71.3125 45.578125 C 73.914062 48.179688 75.375 51.707031 75.375 55.386719 L 75.375 63.199219 C 75.375 66.878906 73.914062 70.40625 71.3125 73.007812 C 68.714844 75.609375 65.1875 77.070312 61.507812 77.070312 C 57.828125 77.070312 54.300781 75.609375 51.699219 73.007812 C 49.101562 70.40625 47.640625 66.878906 47.640625 63.199219 L 47.640625 55.386719 C 47.640625 51.707031 49.101562 48.179688 51.699219 45.578125 C 54.300781 42.976562 57.828125 41.515625 61.507812 41.515625 Z M 61.507812 41.515625 " clip-rule="nonzero"/></clipPath><clipPath id="2df3ea8191"><path d="M 81.386719 41.515625 L 109.125 41.515625 L 109.125 77.164062 L 81.386719 77.164062 Z M 81.386719 41.515625 " clip-rule="nonzero"/></clipPath><clipPath id="4968f0cc9c"><path d="M 95.253906 41.515625 C 98.933594 41.515625 102.460938 42.976562 105.0625 45.578125 C 107.664062 48.179688 109.125 51.707031 109.125 55.386719 L 109.125 63.199219 C 109.125 66.878906 107.664062 70.40625 105.0625 73.007812 C 102.460938 75.609375 98.933594 77.070312 95.253906 77.070312 C 91.578125 77.070312 88.050781 75.609375 85.449219 73.007812 C 82.847656 70.40625 81.386719 66.878906 81.386719 63.199219 L 81.386719 55.386719 C 81.386719 51.707031 82.847656 48.179688 85.449219 45.578125 C 88.050781 42.976562 91.578125 41.515625 95.253906 41.515625 Z M 95.253906 41.515625 " clip-rule="nonzero"/></clipPath><clipPath id="f1e7fc7b66"><path d="M 87.324219 48.746094 L 103.183594 48.746094 L 103.183594 70.679688 L 87.324219 70.679688 Z M 87.324219 48.746094 " clip-rule="nonzero"/></clipPath><clipPath id="930427467d"><path d="M 95.253906 48.746094 C 97.359375 48.746094 99.375 49.582031 100.863281 51.070312 C 102.347656 52.558594 103.183594 54.574219 103.183594 56.675781 L 103.183594 62.691406 C 103.183594 64.796875 102.347656 66.8125 100.863281 68.300781 C 99.375 69.785156 97.359375 70.621094 95.253906 70.621094 C 93.152344 70.621094 91.132812 69.785156 89.648438 68.300781 C 88.160156 66.8125 87.324219 64.796875 87.324219 62.691406 L 87.324219 56.675781 C 87.324219 54.574219 88.160156 52.558594 89.648438 51.070312 C 91.132812 49.582031 93.152344 48.746094 95.253906 48.746094 Z M 95.253906 48.746094 " clip-rule="nonzero"/></clipPath><clipPath id="950e9516d1"><path d="M 95.253906 58.792969 L 102.3125 58.792969 L 102.3125 66.871094 L 95.253906 66.871094 Z M 95.253906 58.792969 " clip-rule="nonzero"/></clipPath><clipPath id="6e11e153d9"><path d="M 98.785156 58.792969 C 100.734375 58.792969 102.3125 60.375 102.3125 62.324219 L 102.3125 63.339844 C 102.3125 65.289062 100.734375 66.867188 98.785156 66.867188 C 96.835938 66.867188 95.253906 65.289062 95.253906 63.339844 L 95.253906 62.324219 C 95.253906 60.375 96.835938 58.792969 98.785156 58.792969 Z M 98.785156 58.792969 " clip-rule="nonzero"/></clipPath><clipPath id="f67e6dfe61"><path d="M 53.070312 48.355469 L 68.929688 48.355469 L 68.929688 70.285156 L 53.070312 70.285156 Z M 53.070312 48.355469 " clip-rule="nonzero"/></clipPath><clipPath id="3b2b4ca03e"><path d="M 61 48.355469 C 63.101562 48.355469 65.121094 49.191406 66.605469 50.679688 C 68.09375 52.164062 68.929688 54.183594 68.929688 56.285156 L 68.929688 62.300781 C 68.929688 64.402344 68.09375 66.421875 66.605469 67.90625 C 65.121094 69.394531 63.101562 70.230469 61 70.230469 C 58.898438 70.230469 56.878906 69.394531 55.394531 67.90625 C 53.90625 66.421875 53.070312 64.402344 53.070312 62.300781 L 53.070312 56.285156 C 53.070312 54.183594 53.90625 52.164062 55.394531 50.679688 C 56.878906 49.191406 58.898438 48.355469 61 48.355469 Z M 61 48.355469 " clip-rule="nonzero"/></clipPath><clipPath id="a635d517e5"><path d="M 61.871094 58.792969 L 68.929688 58.792969 L 68.929688 66.871094 L 61.871094 66.871094 Z M 61.871094 58.792969 " clip-rule="nonzero"/></clipPath><clipPath id="3e1da4976b"><path d="M 65.402344 58.792969 C 67.351562 58.792969 68.929688 60.375 68.929688 62.324219 L 68.929688 63.339844 C 68.929688 65.289062 67.351562 66.867188 65.402344 66.867188 C 63.453125 66.867188 61.871094 65.289062 61.871094 63.339844 L 61.871094 62.324219 C 61.871094 60.375 63.453125 58.792969 65.402344 58.792969 Z M 65.402344 58.792969 " clip-rule="nonzero"/></clipPath><clipPath id="dd79224a7a"><path d="M 67.996094 78.027344 L 88.980469 78.027344 L 88.980469 87.222656 L 67.996094 87.222656 Z M 67.996094 78.027344 " clip-rule="nonzero"/></clipPath><clipPath id="84ecf53d46"><path d="M 65.140625 66.871094 L 91.550781 66.871094 L 91.550781 79.839844 L 65.140625 79.839844 Z M 65.140625 66.871094 " clip-rule="nonzero"/></clipPath><clipPath id="8d3c4f08fa"><path d="M 81.820312 69.34375 L 86.898438 69.34375 L 86.898438 73.566406 L 81.820312 73.566406 Z M 81.820312 69.34375 " clip-rule="nonzero"/></clipPath><clipPath id="74b6e9b0ce"><path d="M 83.074219 69.386719 C 84.820312 70.167969 85.527344 70.644531 85.960938 71.050781 C 86.308594 71.375 86.648438 71.789062 86.78125 72.042969 C 86.851562 72.171875 86.867188 72.257812 86.878906 72.367188 C 86.894531 72.476562 86.886719 72.59375 86.863281 72.703125 C 86.835938 72.816406 86.800781 72.925781 86.746094 73.023438 C 86.691406 73.121094 86.617188 73.207031 86.53125 73.28125 C 86.445312 73.355469 86.347656 73.414062 86.242188 73.457031 C 86.136719 73.5 86.023438 73.53125 85.910156 73.539062 C 85.800781 73.542969 85.683594 73.539062 85.574219 73.507812 C 85.46875 73.476562 85.359375 73.433594 85.269531 73.371094 C 85.175781 73.3125 85.085938 73.226562 85.015625 73.140625 C 84.949219 73.054688 84.894531 72.949219 84.855469 72.84375 C 84.820312 72.742188 84.796875 72.625 84.796875 72.515625 C 84.796875 72.402344 84.808594 72.28125 84.84375 72.175781 C 84.882812 72.074219 84.929688 71.960938 85 71.875 C 85.066406 71.785156 85.152344 71.703125 85.242188 71.644531 C 85.335938 71.582031 85.441406 71.527344 85.542969 71.496094 C 85.648438 71.464844 85.769531 71.449219 85.882812 71.453125 C 85.992188 71.460938 86.109375 71.484375 86.210938 71.519531 C 86.316406 71.5625 86.421875 71.617188 86.507812 71.691406 C 86.59375 71.761719 86.671875 71.851562 86.726562 71.945312 C 86.789062 72.035156 86.832031 72.144531 86.855469 72.257812 C 86.878906 72.367188 86.894531 72.484375 86.878906 72.59375 C 86.867188 72.703125 86.835938 72.820312 86.792969 72.917969 C 86.75 73.023438 86.683594 73.121094 86.609375 73.199219 C 86.535156 73.28125 86.445312 73.355469 86.347656 73.410156 C 86.25 73.464844 86.136719 73.507812 86.027344 73.527344 C 85.917969 73.542969 85.800781 73.550781 85.691406 73.53125 C 85.582031 73.511719 85.464844 73.476562 85.367188 73.425781 C 85.269531 73.378906 85.195312 73.324219 85.097656 73.226562 C 84.9375 73.066406 84.789062 72.773438 84.53125 72.527344 C 84.144531 72.160156 83.304688 71.5625 82.890625 71.347656 C 82.664062 71.234375 82.464844 71.226562 82.332031 71.152344 C 82.246094 71.109375 82.195312 71.066406 82.140625 71.011719 C 82.085938 70.957031 82.035156 70.914062 81.996094 70.835938 C 81.933594 70.722656 81.859375 70.546875 81.847656 70.398438 C 81.835938 70.253906 81.878906 70.054688 81.921875 69.9375 C 81.953125 69.851562 81.980469 69.804688 82.035156 69.738281 C 82.117188 69.640625 82.28125 69.511719 82.394531 69.449219 C 82.472656 69.40625 82.527344 69.382812 82.613281 69.367188 C 82.734375 69.351562 83.074219 69.386719 83.074219 69.386719 " clip-rule="nonzero"/></clipPath><clipPath id="6c25b3b31a"><path d="M 86.671875 74.773438 L 88.542969 74.773438 L 88.542969 76.703125 L 86.671875 76.703125 Z M 86.671875 74.773438 " clip-rule="nonzero"/></clipPath><clipPath id="371e005bbe"><path d="M 88.542969 75.460938 C 88.542969 76.058594 88.476562 76.210938 88.382812 76.328125 C 88.289062 76.445312 88.160156 76.546875 88.027344 76.609375 C 87.890625 76.671875 87.726562 76.695312 87.578125 76.6875 C 87.433594 76.683594 87.273438 76.628906 87.144531 76.554688 C 87.015625 76.480469 86.894531 76.359375 86.820312 76.234375 C 86.738281 76.105469 86.691406 75.945312 86.683594 75.800781 C 86.679688 75.652344 86.710938 75.488281 86.769531 75.351562 C 86.832031 75.21875 86.929688 75.089844 87.046875 74.996094 C 87.164062 74.90625 87.316406 74.832031 87.464844 74.804688 C 87.609375 74.78125 87.777344 74.792969 87.917969 74.835938 C 88.058594 74.878906 88.308594 75.070312 88.308594 75.070312 " clip-rule="nonzero"/></clipPath><clipPath id="66de7eddea"><path d="M 67 5.507812 L 77.980469 5.507812 L 77.980469 16 L 67 16 Z M 67 5.507812 " clip-rule="nonzero"/></clipPath><clipPath id="61d39067cb"><path d="M 60.058594 8 L 68 8 L 68 16.355469 L 60.058594 16.355469 Z M 60.058594 8 " clip-rule="nonzero"/></clipPath><clipPath id="17f1d45f7b"><path d="M 2 84 L 21 84 L 21 105 L 2 105 Z M 2 84 " clip-rule="nonzero"/></clipPath><clipPath id="4547eb4d6f"><path d="M -0.726562 98.5625 L 10.21875 81.597656 L 23.835938 90.382812 L 12.886719 107.347656 Z M -0.726562 98.5625 " clip-rule="nonzero"/></clipPath><clipPath id="4e84765c52"><path d="M 4.734375 90.097656 C 1.71875 94.773438 2.320312 100.53125 6.082031 102.957031 C 9.839844 105.382812 15.335938 103.558594 18.351562 98.882812 C 21.367188 94.207031 20.765625 88.449219 17.007812 86.023438 C 13.246094 83.597656 7.753906 85.421875 4.734375 90.097656 Z M 4.734375 90.097656 " clip-rule="nonzero"/></clipPath><clipPath id="3e62226d85"><path d="M 86 32 L 119 32 L 119 55 L 86 55 Z M 86 32 " clip-rule="nonzero"/></clipPath><clipPath id="e9372da78a"><path d="M 90.199219 28.476562 L 121.660156 44.101562 L 114.453125 58.613281 L 82.992188 42.988281 Z M 90.199219 28.476562 " clip-rule="nonzero"/></clipPath><clipPath id="edabda312d"><path d="M 105.917969 36.28125 C 97.238281 31.96875 88.585938 31.722656 86.597656 35.730469 C 84.605469 39.738281 90.03125 46.480469 98.710938 50.792969 C 107.390625 55.101562 116.039062 55.347656 118.027344 51.339844 C 120.019531 47.335938 114.597656 40.589844 105.917969 36.28125 Z M 105.917969 36.28125 " clip-rule="nonzero"/></clipPath><clipPath id="44cd3db470"><path d="M 39 31 L 73 31 L 73 53 L 39 53 Z M 39 31 " clip-rule="nonzero"/></clipPath><clipPath id="6bd1d575ba"><path d="M 36.625 42.53125 L 68.300781 27.34375 L 75.304688 41.953125 L 43.632812 57.144531 Z M 36.625 42.53125 " clip-rule="nonzero"/></clipPath><clipPath id="0a12a2170f"><path d="M 52.449219 34.945312 C 43.710938 39.136719 38.195312 45.804688 40.128906 49.835938 C 42.0625 53.871094 50.714844 53.746094 59.453125 49.554688 C 68.191406 45.363281 73.707031 38.699219 71.773438 34.664062 C 69.839844 30.628906 61.1875 30.753906 52.449219 34.945312 Z M 52.449219 34.945312 " clip-rule="nonzero"/></clipPath></defs><g clip-path="url(#6459fa886e)"><g clip-path="url(#8382a058d5)"><path fill="#f8c038" d="M 7.054688 19.351562 L 127.453125 19.351562 L 127.453125 134.789062 L 7.054688 134.789062 Z M 7.054688 19.351562 " fill-opacity="1" fill-rule="nonzero"/></g></g><g clip-path="url(#5ccbeab9cd)"><g clip-path="url(#ef06159139)"><g clip-path="url(#ac693ac477)"><path fill="#f8c038" d="M 139.042969 81.609375 L 150.097656 98.429688 L 136.558594 107.328125 L 125.503906 90.507812 Z M 139.042969 81.609375 " fill-opacity="1" fill-rule="nonzero"/></g></g></g><g clip-path="url(#d6135b7dc7)"><g clip-path="url(#292efdf8c4)"><path fill="#fddc66" d="M 36.625 59.683594 L 119.09375 59.683594 L 119.09375 130.058594 L 36.625 130.058594 Z M 36.625 59.683594 " fill-opacity="1" fill-rule="nonzero"/></g></g><g clip-path="url(#7eca44c222)"><g clip-path="url(#ca6189c667)"><g clip-path="url(#05c5c36662)"><path fill="#f09020" d="M 109.164062 136.523438 L 82.269531 143.820312 L 77.390625 125.84375 L 104.285156 118.546875 Z M 109.164062 136.523438 " fill-opacity="1" fill-rule="nonzero"/></g></g></g><g clip-path="url(#813b5d9664)"><g clip-path="url(#5520688f3c)"><g clip-path="url(#90a2b78e2b)"><path fill="#f09020" d="M 111.789062 143.882812 L 84.828125 136.835938 L 89.539062 118.816406 L 116.5 125.863281 Z M 111.789062 143.882812 " fill-opacity="1" fill-rule="nonzero"/></g></g></g><g clip-path="url(#1f559175c4)"><g clip-path="url(#f2fad6e497)"><g clip-path="url(#2c9ef837d7)"><path fill="#f09020" d="M 69.292969 136.257812 L 42.371094 143.460938 L 37.558594 125.464844 L 64.480469 118.265625 Z M 69.292969 136.257812 " fill-opacity="1" fill-rule="nonzero"/></g></g></g><g clip-path="url(#944e088d6e)"><g clip-path="url(#4d3c36b606)"><g clip-path="url(#d7b493c7a4)"><path fill="#f09020" d="M 71.894531 143.628906 L 44.960938 136.484375 L 49.734375 118.484375 L 76.667969 125.628906 Z M 71.894531 143.628906 " fill-opacity="1" fill-rule="nonzero"/></g></g></g><g clip-path="url(#1b0ab557c2)"><g clip-path="url(#d3ad20e5cc)"><path fill="#ffffff" d="M 47.640625 41.515625 L 75.375 41.515625 L 75.375 77.054688 L 47.640625 77.054688 Z M 47.640625 41.515625 " fill-opacity="1" fill-rule="nonzero"/></g></g><g clip-path="url(#2df3ea8191)"><g clip-path="url(#4968f0cc9c)"><path fill="#ffffff" d="M 81.386719 41.515625 L 109.125 41.515625 L 109.125 77.054688 L 81.386719 77.054688 Z M 81.386719 41.515625 " fill-opacity="1" fill-rule="nonzero"/></g></g><g clip-path="url(#f1e7fc7b66)"><g clip-path="url(#930427467d)"><path fill="#4b4b4b" d="M 87.324219 48.746094 L 103.183594 48.746094 L 103.183594 70.617188 L 87.324219 70.617188 Z M 87.324219 48.746094 " fill-opacity="1" fill-rule="nonzero"/></g></g><g clip-path="url(#950e9516d1)"><g clip-path="url(#6e11e153d9)"><path fill="#ffffff" d="M 95.253906 58.792969 L 102.3125 58.792969 L 102.3125 66.871094 L 95.253906 66.871094 Z M 95.253906 58.792969 " fill-opacity="1" fill-rule="nonzero"/></g></g><g clip-path="url(#f67e6dfe61)"><g clip-path="url(#3b2b4ca03e)"><path fill="#4b4b4b" d="M 53.070312 48.355469 L 68.929688 48.355469 L 68.929688 70.222656 L 53.070312 70.222656 Z M 53.070312 48.355469 " fill-opacity="1" fill-rule="nonzero"/></g></g><g clip-path="url(#a635d517e5)"><g clip-path="url(#3e1da4976b)"><path fill="#ffffff" d="M 61.871094 58.792969 L 68.929688 58.792969 L 68.929688 66.871094 L 61.871094 66.871094 Z M 61.871094 58.792969 " fill-opacity="1" fill-rule="nonzero"/></g></g><g clip-path="url(#dd79224a7a)"><path fill="#f86018" d="M 88.890625 76.820312 C 88.890625 77.507812 88.824219 78.1875 88.6875 78.859375 C 88.554688 79.53125 88.355469 80.183594 88.09375 80.816406 C 87.832031 81.453125 87.511719 82.054688 87.128906 82.625 C 86.746094 83.195312 86.316406 83.722656 85.828125 84.207031 C 85.34375 84.691406 84.816406 85.125 84.246094 85.507812 C 83.675781 85.886719 83.074219 86.210938 82.441406 86.472656 C 81.804688 86.734375 81.152344 86.933594 80.480469 87.066406 C 79.808594 87.199219 79.128906 87.265625 78.441406 87.265625 C 77.757812 87.265625 77.078125 87.199219 76.402344 87.066406 C 75.730469 86.933594 75.078125 86.734375 74.445312 86.472656 C 73.8125 86.210938 73.207031 85.886719 72.636719 85.507812 C 72.066406 85.125 71.539062 84.691406 71.054688 84.207031 C 70.570312 83.722656 70.136719 83.195312 69.753906 82.625 C 69.375 82.054688 69.054688 81.453125 68.789062 80.816406 C 68.527344 80.183594 68.328125 79.53125 68.195312 78.859375 C 68.0625 78.1875 67.996094 77.507812 67.996094 76.820312 C 67.996094 76.132812 68.0625 75.453125 68.195312 74.78125 C 68.328125 74.109375 68.527344 73.457031 68.789062 72.824219 C 69.054688 72.1875 69.375 71.585938 69.753906 71.015625 C 70.136719 70.445312 70.570312 69.917969 71.054688 69.433594 C 71.539062 68.949219 72.066406 68.515625 72.636719 68.132812 C 73.207031 67.753906 73.8125 67.429688 74.445312 67.167969 C 75.078125 66.90625 75.730469 66.707031 76.402344 66.574219 C 77.078125 66.441406 77.757812 66.375 78.441406 66.375 C 79.128906 66.375 79.808594 66.441406 80.480469 66.574219 C 81.152344 66.707031 81.804688 66.90625 82.441406 67.167969 C 83.074219 67.429688 83.675781 67.753906 84.246094 68.132812 C 84.816406 68.515625 85.34375 68.949219 85.828125 69.433594 C 86.316406 69.917969 86.746094 70.445312 87.128906 71.015625 C 87.511719 71.585938 87.832031 72.1875 88.09375 72.824219 C 88.355469 73.457031 88.554688 74.109375 88.6875 74.78125 C 88.824219 75.453125 88.890625 76.132812 88.890625 76.820312 Z M 88.890625 76.820312 " fill-opacity="1" fill-rule="nonzero"/></g><g clip-path="url(#84ecf53d46)"><path fill="#f09020" d="M 91.621094 80.113281 C 91.621094 80.980469 91.539062 81.84375 91.367188 82.695312 C 91.199219 83.546875 90.949219 84.375 90.613281 85.179688 C 90.28125 85.980469 89.875 86.746094 89.390625 87.46875 C 88.90625 88.191406 88.359375 88.859375 87.746094 89.476562 C 87.128906 90.089844 86.460938 90.636719 85.738281 91.121094 C 85.015625 91.605469 84.25 92.011719 83.449219 92.34375 C 82.644531 92.679688 81.816406 92.929688 80.964844 93.097656 C 80.109375 93.269531 79.25 93.351562 78.378906 93.351562 C 77.511719 93.351562 76.648438 93.269531 75.796875 93.097656 C 74.945312 92.929688 74.117188 92.679688 73.3125 92.34375 C 72.511719 92.011719 71.746094 91.605469 71.023438 91.121094 C 70.300781 90.636719 69.632812 90.089844 69.015625 89.476562 C 68.402344 88.859375 67.855469 88.191406 67.371094 87.46875 C 66.886719 86.746094 66.480469 85.980469 66.148438 85.179688 C 65.8125 84.375 65.5625 83.546875 65.394531 82.695312 C 65.222656 81.84375 65.140625 80.980469 65.140625 80.113281 C 65.140625 79.242188 65.222656 78.378906 65.394531 77.527344 C 65.5625 76.675781 65.8125 75.847656 66.148438 75.042969 C 66.480469 74.242188 66.886719 73.476562 67.371094 72.753906 C 67.855469 72.03125 68.402344 71.363281 69.015625 70.746094 C 69.632812 70.132812 70.300781 69.585938 71.023438 69.101562 C 71.746094 68.617188 72.511719 68.210938 73.3125 67.878906 C 74.117188 67.542969 74.945312 67.292969 75.796875 67.125 C 76.648438 66.953125 77.511719 66.871094 78.378906 66.871094 C 79.25 66.871094 80.109375 66.953125 80.964844 67.125 C 81.816406 67.292969 82.644531 67.542969 83.449219 67.878906 C 84.25 68.210938 85.015625 68.617188 85.738281 69.101562 C 86.460938 69.585938 87.128906 70.132812 87.746094 70.746094 C 88.359375 71.363281 88.90625 72.03125 89.390625 72.753906 C 89.875 73.476562 90.28125 74.242188 90.613281 75.042969 C 90.949219 75.847656 91.199219 76.675781 91.367188 77.527344 C 91.539062 78.378906 91.621094 79.242188 91.621094 80.113281 Z M 91.621094 80.113281 " fill-opacity="1" fill-rule="nonzero"/></g><g clip-path="url(#8d3c4f08fa)"><g clip-path="url(#74b6e9b0ce)"><path fill="#ffffff" d="M 81.601562 69.125 L 87.117188 69.125 L 87.117188 73.785156 L 81.601562 73.785156 Z M 81.601562 69.125 " fill-opacity="1" fill-rule="nonzero"/></g></g><g clip-path="url(#6c25b3b31a)"><g clip-path="url(#371e005bbe)"><path fill="#ffffff" d="M 86.4375 74.5625 L 88.8125 74.5625 L 88.8125 76.933594 L 86.4375 76.933594 Z M 86.4375 74.5625 " fill-opacity="1" fill-rule="nonzero"/></g></g><path stroke-linecap="round" transform="matrix(-0.235804, 0.000000000411556, -0.000000000411556, -0.235804, 71.614091, 77.422512)" fill="none" stroke-linejoin="miter" d="M 1.494346 1.493611 L 17.447085 1.493611 " stroke="#c8831a" stroke-width="3" stroke-opacity="1" stroke-miterlimit="4"/><path stroke-linecap="round" transform="matrix(-0.235804, 0.000000000411556, -0.000000000411556, -0.235804, 71.615937, 74.925818)" fill="none" stroke-linejoin="miter" d="M 1.502173 1.507634 L 10.497331 1.507634 " stroke="#c8831a" stroke-width="3" stroke-opacity="1" stroke-miterlimit="4"/><path stroke-linecap="round" transform="matrix(-0.235804, 0.000000000411556, -0.000000000411556, -0.235804, 71.616194, 72.616815)" fill="none" stroke-linejoin="miter" d="M 1.503262 1.505894 L 5.462457 1.505894 " stroke="#c8831a" stroke-width="3" stroke-opacity="1" stroke-miterlimit="4"/><g clip-path="url(#66de7eddea)"><path fill="#39b54a" d="M 68.367188 15.746094 C 67.957031 14.804688 67.351562 12.972656 67.949219 11.019531 C 68.925781 7.808594 72.753906 5.507812 77.367188 5.804688 C 77.980469 9.722656 76.46875 13.390625 73.625 15.023438 C 71.710938 16.128906 69.726562 16 68.789062 15.867188 C 69.75 15.136719 70.828125 14.199219 71.910156 13.007812 C 73.574219 11.175781 74.6875 9.351562 75.425781 7.902344 C 74.367188 9.378906 73.09375 10.976562 71.578125 12.609375 C 70.480469 13.785156 69.398438 14.828125 68.367188 15.746094 Z M 68.367188 15.746094 " fill-opacity="1" fill-rule="nonzero"/></g><g clip-path="url(#61d39067cb)"><path fill="#39b54a" d="M 67.136719 15.847656 C 66.417969 16.066406 65.03125 16.355469 63.660156 15.753906 C 61.40625 14.765625 60.058594 11.765625 60.667969 8.421875 C 63.570312 8.308594 66.109375 9.722656 67.058594 11.941406 C 67.699219 13.4375 67.4375 14.875 67.261719 15.550781 C 66.8125 14.785156 66.21875 13.914062 65.445312 13.023438 C 64.253906 11.652344 63.023438 10.683594 62.027344 10.019531 C 63.015625 10.917969 64.066406 11.984375 65.125 13.234375 C 65.890625 14.136719 66.554688 15.015625 67.136719 15.847656 Z M 67.136719 15.847656 " fill-opacity="1" fill-rule="nonzero"/></g><g clip-path="url(#17f1d45f7b)"><g clip-path="url(#4547eb4d6f)"><g clip-path="url(#4e84765c52)"><path fill="#f8c038" d="M -0.726562 98.5625 L 10.183594 81.652344 L 23.800781 90.4375 L 12.886719 107.347656 Z M -0.726562 98.5625 " fill-opacity="1" fill-rule="nonzero"/></g></g></g><g clip-path="url(#3e62226d85)"><g clip-path="url(#e9372da78a)"><g clip-path="url(#edabda312d)"><path fill="#f8c038" d="M 90.199219 28.476562 L 121.605469 44.070312 L 114.398438 58.585938 L 82.992188 42.988281 Z M 90.199219 28.476562 " fill-opacity="1" fill-rule="nonzero"/></g></g></g><g clip-path="url(#44cd3db470)"><g clip-path="url(#6bd1d575ba)"><g clip-path="url(#0a12a2170f)"><path fill="#f8c038" d="M 36.625 42.53125 L 68.242188 27.371094 L 75.25 41.980469 L 43.632812 57.144531 Z M 36.625 42.53125 " fill-opacity="1" fill-rule="nonzero"/></g></g></g></svg>