<svg xmlns="http://www.w3.org/2000/svg" xmlns:xlink="http://www.w3.org/1999/xlink" width="200" zoomAndPan="magnify" viewBox="0 0 150 149.999998" height="200" preserveAspectRatio="xMidYMid meet" version="1.0"><defs><clipPath id="617d509582"><path d="M 7.738281 19.960938 L 127.914062 19.960938 L 127.914062 134.753906 L 7.738281 134.753906 Z M 7.738281 19.960938 " clip-rule="nonzero"/></clipPath><clipPath id="89aea99942"><path d="M 67.714844 19.960938 C 34.589844 19.960938 7.738281 45.660156 7.738281 77.359375 C 7.738281 109.058594 34.589844 134.753906 67.714844 134.753906 C 100.835938 134.753906 127.6875 109.058594 127.6875 77.359375 C 127.6875 45.660156 100.835938 19.960938 67.714844 19.960938 Z M 67.714844 19.960938 " clip-rule="nonzero"/></clipPath><clipPath id="cb6670f383"><path d="M 129 85 L 147 85 L 147 105 L 129 105 Z M 129 85 " clip-rule="nonzero"/></clipPath><clipPath id="aab1cb1d6a"><path d="M 138.992188 81.875 L 150.019531 98.652344 L 136.554688 107.503906 L 125.527344 90.722656 Z M 138.992188 81.875 " clip-rule="nonzero"/></clipPath><clipPath id="c933264ea3"><path d="M 144.496094 90.25 C 141.457031 85.625 135.976562 83.855469 132.261719 86.300781 C 128.542969 88.742188 127.992188 94.472656 131.03125 99.097656 C 134.070312 103.722656 139.546875 105.488281 143.265625 103.046875 C 146.984375 100.601562 147.535156 94.871094 144.496094 90.25 Z M 144.496094 90.25 " clip-rule="nonzero"/></clipPath><clipPath id="efeee1927a"><path d="M 37.144531 60.070312 L 119.425781 60.070312 L 119.425781 130.054688 L 37.144531 130.054688 Z M 37.144531 60.070312 " clip-rule="nonzero"/></clipPath><clipPath id="374fd4624f"><path d="M 78.199219 60.070312 C 55.523438 60.070312 37.144531 75.738281 37.144531 95.0625 C 37.144531 114.386719 55.523438 130.054688 78.199219 130.054688 C 100.871094 130.054688 119.253906 114.386719 119.253906 95.0625 C 119.253906 75.738281 100.871094 60.070312 78.199219 60.070312 Z M 78.199219 60.070312 " clip-rule="nonzero"/></clipPath><clipPath id="2e62e89905"><path d="M 79 121 L 108 121 L 108 141 L 79 141 Z M 79 121 " clip-rule="nonzero"/></clipPath><clipPath id="54e864476d"><path d="M 109.277344 136.480469 L 82.464844 143.753906 L 77.613281 125.878906 L 104.425781 118.605469 Z M 109.277344 136.480469 " clip-rule="nonzero"/></clipPath><clipPath id="1abbe21bbd"><path d="M 95.902344 140.109375 C 103.289062 138.105469 108.191406 132.480469 106.851562 127.542969 C 105.511719 122.605469 98.4375 120.230469 91.050781 122.234375 C 83.664062 124.238281 78.761719 129.863281 80.097656 134.800781 C 81.4375 139.738281 88.511719 142.113281 95.902344 140.109375 Z M 95.902344 140.109375 " clip-rule="nonzero"/></clipPath><clipPath id="7b7391dc99"><path d="M 87 121 L 115 121 L 115 141 L 87 141 Z M 87 121 " clip-rule="nonzero"/></clipPath><clipPath id="0782f63e61"><path d="M 111.890625 143.800781 L 85.011719 136.773438 L 89.695312 118.855469 L 116.574219 125.882812 Z M 111.890625 143.800781 " clip-rule="nonzero"/></clipPath><clipPath id="d75347cf10"><path d="M 98.480469 140.296875 C 105.886719 142.230469 112.9375 139.789062 114.230469 134.839844 C 115.527344 129.894531 110.570312 124.3125 103.164062 122.375 C 95.757812 120.441406 88.707031 122.882812 87.414062 127.832031 C 86.121094 132.777344 91.074219 138.359375 98.480469 140.296875 Z M 98.480469 140.296875 " clip-rule="nonzero"/></clipPath><clipPath id="7bcbe11f0c"><path d="M 40 121 L 68 121 L 68 141 L 40 141 Z M 40 121 " clip-rule="nonzero"/></clipPath><clipPath id="40f97eade1"><path d="M 69.628906 136.21875 L 42.789062 143.398438 L 38.003906 125.503906 L 64.84375 118.324219 Z M 69.628906 136.21875 " clip-rule="nonzero"/></clipPath><clipPath id="641f523483"><path d="M 56.242188 139.800781 C 63.636719 137.824219 68.558594 132.214844 67.238281 127.273438 C 65.914062 122.332031 58.847656 119.929688 51.453125 121.90625 C 44.058594 123.886719 39.136719 129.492188 40.457031 134.433594 C 41.78125 139.375 48.847656 141.777344 56.242188 139.800781 Z M 56.242188 139.800781 " clip-rule="nonzero"/></clipPath><clipPath id="1ea1e9e7d2"><path d="M 47 121 L 75 121 L 75 141 L 47 141 Z M 47 121 " clip-rule="nonzero"/></clipPath><clipPath id="3c2d6d0fb6"><path d="M 72.214844 143.550781 L 45.363281 136.425781 L 50.109375 118.523438 L 76.964844 125.644531 Z M 72.214844 143.550781 " clip-rule="nonzero"/></clipPath><clipPath id="f8bfb36f4d"><path d="M 58.820312 139.996094 C 66.21875 141.957031 73.28125 139.542969 74.589844 134.597656 C 75.902344 129.652344 70.96875 124.054688 63.566406 122.09375 C 56.167969 120.128906 49.109375 122.546875 47.796875 127.492188 C 46.484375 132.433594 51.421875 138.035156 58.820312 139.996094 Z M 58.820312 139.996094 " clip-rule="nonzero"/></clipPath><clipPath id="b858e58ddf"><path d="M 48.097656 42.003906 L 75.679688 42.003906 L 75.679688 77.453125 L 48.097656 77.453125 Z M 48.097656 42.003906 " clip-rule="nonzero"/></clipPath><clipPath id="083f82dd3d"><path d="M 61.886719 42.003906 C 65.546875 42.003906 69.054688 43.457031 71.640625 46.042969 C 74.226562 48.628906 75.679688 52.136719 75.679688 55.796875 L 75.679688 63.566406 C 75.679688 67.226562 74.226562 70.734375 71.640625 73.320312 C 69.054688 75.90625 65.546875 77.359375 61.886719 77.359375 C 58.230469 77.359375 54.722656 75.90625 52.136719 73.320312 C 49.550781 70.734375 48.097656 67.226562 48.097656 63.566406 L 48.097656 55.796875 C 48.097656 52.136719 49.550781 48.628906 52.136719 46.042969 C 54.722656 43.457031 58.230469 42.003906 61.886719 42.003906 Z M 61.886719 42.003906 " clip-rule="nonzero"/></clipPath><clipPath id="23afc058bf"><path d="M 81.65625 42.003906 L 109.238281 42.003906 L 109.238281 77.453125 L 81.65625 77.453125 Z M 81.65625 42.003906 " clip-rule="nonzero"/></clipPath><clipPath id="3da13c23c7"><path d="M 95.445312 42.003906 C 99.105469 42.003906 102.613281 43.457031 105.199219 46.042969 C 107.785156 48.628906 109.238281 52.136719 109.238281 55.796875 L 109.238281 63.566406 C 109.238281 67.226562 107.785156 70.734375 105.199219 73.320312 C 102.613281 75.90625 99.105469 77.359375 95.445312 77.359375 C 91.789062 77.359375 88.28125 75.90625 85.695312 73.320312 C 83.109375 70.734375 81.65625 67.226562 81.65625 63.566406 L 81.65625 55.796875 C 81.65625 52.136719 83.109375 48.628906 85.695312 46.042969 C 88.28125 43.457031 91.789062 42.003906 95.445312 42.003906 Z M 95.445312 42.003906 " clip-rule="nonzero"/></clipPath><clipPath id="f1ebc90994"><path d="M 87.5625 49.195312 L 103.332031 49.195312 L 103.332031 71 L 87.5625 71 Z M 87.5625 49.195312 " clip-rule="nonzero"/></clipPath><clipPath id="553068d805"><path d="M 95.445312 49.195312 C 97.539062 49.195312 99.542969 50.027344 101.023438 51.503906 C 102.5 52.984375 103.332031 54.988281 103.332031 57.082031 L 103.332031 63.0625 C 103.332031 65.152344 102.5 67.160156 101.023438 68.636719 C 99.542969 70.117188 97.539062 70.949219 95.445312 70.949219 C 93.355469 70.949219 91.351562 70.117188 89.871094 68.636719 C 88.390625 67.160156 87.5625 65.152344 87.5625 63.0625 L 87.5625 57.082031 C 87.5625 54.988281 88.390625 52.984375 89.871094 51.503906 C 91.351562 50.027344 93.355469 49.195312 95.445312 49.195312 Z M 95.445312 49.195312 " clip-rule="nonzero"/></clipPath><clipPath id="619ccf8eed"><path d="M 95.445312 59.183594 L 102.464844 59.183594 L 102.464844 67.21875 L 95.445312 67.21875 Z M 95.445312 59.183594 " clip-rule="nonzero"/></clipPath><clipPath id="c0281477fb"><path d="M 98.957031 59.183594 C 100.894531 59.183594 102.464844 60.757812 102.464844 62.695312 L 102.464844 63.707031 C 102.464844 65.644531 100.894531 67.214844 98.957031 67.214844 C 97.019531 67.214844 95.445312 65.644531 95.445312 63.707031 L 95.445312 62.695312 C 95.445312 60.757812 97.019531 59.183594 98.957031 59.183594 Z M 98.957031 59.183594 " clip-rule="nonzero"/></clipPath><clipPath id="2c6cbe58fd"><path d="M 53.496094 48.804688 L 69.269531 48.804688 L 69.269531 70.613281 L 53.496094 70.613281 Z M 53.496094 48.804688 " clip-rule="nonzero"/></clipPath><clipPath id="30d6e8714b"><path d="M 61.382812 48.804688 C 63.476562 48.804688 65.480469 49.636719 66.960938 51.113281 C 68.4375 52.59375 69.269531 54.597656 69.269531 56.691406 L 69.269531 62.671875 C 69.269531 64.765625 68.4375 66.769531 66.960938 68.25 C 65.480469 69.726562 63.476562 70.558594 61.382812 70.558594 C 59.292969 70.558594 57.285156 69.726562 55.808594 68.25 C 54.328125 66.769531 53.496094 64.765625 53.496094 62.671875 L 53.496094 56.691406 C 53.496094 54.597656 54.328125 52.59375 55.808594 51.113281 C 57.285156 49.636719 59.292969 48.804688 61.382812 48.804688 Z M 61.382812 48.804688 " clip-rule="nonzero"/></clipPath><clipPath id="f155f77cda"><path d="M 62.25 59.183594 L 69.269531 59.183594 L 69.269531 67.21875 L 62.25 67.21875 Z M 62.25 59.183594 " clip-rule="nonzero"/></clipPath><clipPath id="ea0094bc9c"><path d="M 65.757812 59.183594 C 67.699219 59.183594 69.269531 60.757812 69.269531 62.695312 L 69.269531 63.707031 C 69.269531 65.644531 67.699219 67.214844 65.757812 67.214844 C 63.820312 67.214844 62.25 65.644531 62.25 63.707031 L 62.25 62.695312 C 62.25 60.757812 63.820312 59.183594 65.757812 59.183594 Z M 65.757812 59.183594 " clip-rule="nonzero"/></clipPath><clipPath id="6d803c675b"><path d="M 68.339844 78.3125 L 89.207031 78.3125 L 89.207031 87.457031 L 68.339844 87.457031 Z M 68.339844 78.3125 " clip-rule="nonzero"/></clipPath><clipPath id="38773948f6"><path d="M 65.5 67.214844 L 91.761719 67.214844 L 91.761719 80.113281 L 65.5 80.113281 Z M 65.5 67.214844 " clip-rule="nonzero"/></clipPath><clipPath id="ea827c3f48"><path d="M 82.085938 69.675781 L 87.136719 69.675781 L 87.136719 73.875 L 82.085938 73.875 Z M 82.085938 69.675781 " clip-rule="nonzero"/></clipPath><clipPath id="53049f8e6e"><path d="M 83.332031 69.71875 C 85.070312 70.496094 85.773438 70.96875 86.203125 71.371094 C 86.550781 71.695312 86.886719 72.109375 87.023438 72.359375 C 87.089844 72.488281 87.105469 72.574219 87.117188 72.683594 C 87.132812 72.792969 87.125 72.910156 87.101562 73.019531 C 87.078125 73.128906 87.039062 73.238281 86.984375 73.335938 C 86.929688 73.433594 86.855469 73.519531 86.773438 73.589844 C 86.6875 73.664062 86.589844 73.726562 86.484375 73.769531 C 86.382812 73.8125 86.265625 73.839844 86.15625 73.847656 C 86.046875 73.851562 85.929688 73.847656 85.820312 73.816406 C 85.71875 73.785156 85.605469 73.742188 85.515625 73.683594 C 85.425781 73.621094 85.332031 73.535156 85.265625 73.449219 C 85.199219 73.367188 85.144531 73.261719 85.105469 73.160156 C 85.070312 73.054688 85.046875 72.9375 85.046875 72.828125 C 85.046875 72.71875 85.058594 72.597656 85.09375 72.492188 C 85.132812 72.390625 85.179688 72.28125 85.246094 72.195312 C 85.316406 72.105469 85.398438 72.023438 85.492188 71.964844 C 85.582031 71.902344 85.6875 71.847656 85.789062 71.816406 C 85.894531 71.785156 86.015625 71.769531 86.125 71.773438 C 86.234375 71.78125 86.351562 71.804688 86.453125 71.839844 C 86.558594 71.882812 86.660156 71.9375 86.746094 72.011719 C 86.832031 72.078125 86.910156 72.171875 86.964844 72.261719 C 87.027344 72.355469 87.070312 72.464844 87.09375 72.574219 C 87.117188 72.683594 87.132812 72.796875 87.117188 72.910156 C 87.105469 73.019531 87.078125 73.132812 87.035156 73.230469 C 86.992188 73.335938 86.925781 73.433594 86.851562 73.511719 C 86.777344 73.589844 86.6875 73.664062 86.589844 73.71875 C 86.492188 73.773438 86.382812 73.816406 86.273438 73.835938 C 86.160156 73.851562 86.046875 73.859375 85.9375 73.839844 C 85.828125 73.824219 85.710938 73.785156 85.613281 73.738281 C 85.515625 73.6875 85.441406 73.632812 85.34375 73.535156 C 85.1875 73.378906 85.039062 73.085938 84.785156 72.839844 C 84.398438 72.476562 83.566406 71.882812 83.148438 71.671875 C 82.925781 71.554688 82.730469 71.550781 82.59375 71.476562 C 82.511719 71.433594 82.460938 71.390625 82.40625 71.335938 C 82.351562 71.28125 82.304688 71.238281 82.261719 71.160156 C 82.199219 71.050781 82.125 70.871094 82.113281 70.726562 C 82.101562 70.578125 82.144531 70.382812 82.1875 70.269531 C 82.21875 70.183594 82.246094 70.132812 82.304688 70.066406 C 82.382812 69.96875 82.546875 69.84375 82.65625 69.78125 C 82.734375 69.738281 82.789062 69.714844 82.875 69.703125 C 82.996094 69.683594 83.332031 69.71875 83.332031 69.71875 " clip-rule="nonzero"/></clipPath><clipPath id="310386aef9"><path d="M 86.910156 75.078125 L 88.773438 75.078125 L 88.773438 76.996094 L 86.910156 76.996094 Z M 86.910156 75.078125 " clip-rule="nonzero"/></clipPath><clipPath id="1a5cb7d257"><path d="M 88.769531 75.761719 C 88.769531 76.351562 88.703125 76.503906 88.613281 76.621094 C 88.519531 76.738281 88.394531 76.839844 88.257812 76.902344 C 88.125 76.960938 87.960938 76.988281 87.8125 76.980469 C 87.667969 76.976562 87.507812 76.921875 87.382812 76.847656 C 87.253906 76.773438 87.132812 76.652344 87.058594 76.53125 C 86.980469 76.402344 86.929688 76.242188 86.925781 76.097656 C 86.917969 75.949219 86.949219 75.785156 87.007812 75.652344 C 87.070312 75.519531 87.167969 75.390625 87.285156 75.296875 C 87.398438 75.207031 87.550781 75.132812 87.699219 75.109375 C 87.84375 75.085938 88.007812 75.097656 88.148438 75.140625 C 88.289062 75.183594 88.539062 75.371094 88.539062 75.371094 " clip-rule="nonzero"/></clipPath><clipPath id="dab8f95a77"><path d="M 68 6.195312 L 78 6.195312 L 78 16.984375 L 68 16.984375 Z M 68 6.195312 " clip-rule="nonzero"/></clipPath><clipPath id="4ecbfad332"><path d="M 60.445312 9 L 68 9 L 68 16.984375 L 60.445312 16.984375 Z M 60.445312 9 " clip-rule="nonzero"/></clipPath><clipPath id="566110ab5a"><path d="M 3 85 L 21 85 L 21 105 L 3 105 Z M 3 85 " clip-rule="nonzero"/></clipPath><clipPath id="743cacd8d9"><path d="M 0 98.734375 L 10.886719 81.863281 L 24.425781 90.597656 L 13.539062 107.46875 Z M 0 98.734375 " clip-rule="nonzero"/></clipPath><clipPath id="036bf58393"><path d="M 5.433594 90.3125 C 2.433594 94.964844 3.03125 100.6875 6.769531 103.101562 C 10.507812 105.515625 15.972656 103.699219 18.972656 99.050781 C 21.972656 94.398438 21.375 88.675781 17.632812 86.261719 C 13.894531 83.851562 8.433594 85.664062 5.433594 90.3125 Z M 5.433594 90.3125 " clip-rule="nonzero"/></clipPath><clipPath id="67ac1f4487"><path d="M 86 33 L 119 33 L 119 55 L 86 55 Z M 86 33 " clip-rule="nonzero"/></clipPath><clipPath id="82b9e45b2d"><path d="M 90.421875 29.035156 L 121.707031 44.574219 L 114.539062 59.003906 L 83.253906 43.46875 Z M 90.421875 29.035156 " clip-rule="nonzero"/></clipPath><clipPath id="04f9ff8aad"><path d="M 106.050781 36.796875 C 97.417969 32.511719 88.816406 32.265625 86.835938 36.253906 C 84.859375 40.238281 90.25 46.941406 98.882812 51.230469 C 107.515625 55.515625 116.113281 55.757812 118.09375 51.773438 C 120.074219 47.789062 114.679688 41.085938 106.050781 36.796875 Z M 106.050781 36.796875 " clip-rule="nonzero"/></clipPath><clipPath id="714f9fb2f3"><path d="M 40 32 L 73 32 L 73 54 L 40 54 Z M 40 32 " clip-rule="nonzero"/></clipPath><clipPath id="8b3e0be529"><path d="M 37.144531 43.015625 L 68.640625 27.910156 L 75.609375 42.441406 L 44.113281 57.542969 Z M 37.144531 43.015625 " clip-rule="nonzero"/></clipPath><clipPath id="3ae312fba5"><path d="M 52.878906 35.46875 C 44.1875 39.636719 38.703125 46.265625 40.628906 50.277344 C 42.550781 54.292969 51.15625 54.164062 59.84375 50 C 68.535156 45.832031 74.019531 39.203125 72.097656 35.1875 C 70.171875 31.175781 61.566406 31.304688 52.878906 35.46875 Z M 52.878906 35.46875 " clip-rule="nonzero"/></clipPath></defs><g clip-path="url(#617d509582)"><g clip-path="url(#89aea99942)"><path fill="#a6a6a6" d="M 7.738281 19.960938 L 127.464844 19.960938 L 127.464844 134.753906 L 7.738281 134.753906 Z M 7.738281 19.960938 " fill-opacity="1" fill-rule="nonzero"/></g></g><g clip-path="url(#cb6670f383)"><g clip-path="url(#aab1cb1d6a)"><g clip-path="url(#c933264ea3)"><path fill="#a6a6a6" d="M 138.992188 81.875 L 149.984375 98.601562 L 136.519531 107.449219 L 125.527344 90.722656 Z M 138.992188 81.875 " fill-opacity="1" fill-rule="nonzero"/></g></g></g><g clip-path="url(#efeee1927a)"><g clip-path="url(#374fd4624f)"><path fill="#d9d9d9" d="M 37.144531 60.070312 L 119.152344 60.070312 L 119.152344 130.054688 L 37.144531 130.054688 Z M 37.144531 60.070312 " fill-opacity="1" fill-rule="nonzero"/></g></g><g clip-path="url(#2e62e89905)"><g clip-path="url(#54e864476d)"><g clip-path="url(#1abbe21bbd)"><path fill="#737373" d="M 109.277344 136.480469 L 82.535156 143.738281 L 77.683594 125.859375 L 104.425781 118.605469 Z M 109.277344 136.480469 " fill-opacity="1" fill-rule="nonzero"/></g></g></g><g clip-path="url(#7b7391dc99)"><g clip-path="url(#0782f63e61)"><g clip-path="url(#d75347cf10)"><path fill="#737373" d="M 111.890625 143.800781 L 85.082031 136.792969 L 89.765625 118.875 L 116.574219 125.882812 Z M 111.890625 143.800781 " fill-opacity="1" fill-rule="nonzero"/></g></g></g><g clip-path="url(#7bcbe11f0c)"><g clip-path="url(#40f97eade1)"><g clip-path="url(#641f523483)"><path fill="#737373" d="M 69.628906 136.21875 L 42.859375 143.378906 L 38.074219 125.484375 L 64.84375 118.324219 Z M 69.628906 136.21875 " fill-opacity="1" fill-rule="nonzero"/></g></g></g><g clip-path="url(#1ea1e9e7d2)"><g clip-path="url(#3c2d6d0fb6)"><g clip-path="url(#f8bfb36f4d)"><path fill="#737373" d="M 72.214844 143.550781 L 45.433594 136.445312 L 50.179688 118.542969 L 76.964844 125.644531 Z M 72.214844 143.550781 " fill-opacity="1" fill-rule="nonzero"/></g></g></g><g clip-path="url(#b858e58ddf)"><g clip-path="url(#083f82dd3d)"><path fill="#ffffff" d="M 48.097656 42.003906 L 75.679688 42.003906 L 75.679688 77.34375 L 48.097656 77.34375 Z M 48.097656 42.003906 " fill-opacity="1" fill-rule="nonzero"/></g></g><g clip-path="url(#23afc058bf)"><g clip-path="url(#3da13c23c7)"><path fill="#ffffff" d="M 81.65625 42.003906 L 109.238281 42.003906 L 109.238281 77.34375 L 81.65625 77.34375 Z M 81.65625 42.003906 " fill-opacity="1" fill-rule="nonzero"/></g></g><g clip-path="url(#f1ebc90994)"><g clip-path="url(#553068d805)"><path fill="#4b4b4b" d="M 87.5625 49.195312 L 103.332031 49.195312 L 103.332031 70.941406 L 87.5625 70.941406 Z M 87.5625 49.195312 " fill-opacity="1" fill-rule="nonzero"/></g></g><g clip-path="url(#619ccf8eed)"><g clip-path="url(#c0281477fb)"><path fill="#ffffff" d="M 95.445312 59.183594 L 102.464844 59.183594 L 102.464844 67.21875 L 95.445312 67.21875 Z M 95.445312 59.183594 " fill-opacity="1" fill-rule="nonzero"/></g></g><g clip-path="url(#2c6cbe58fd)"><g clip-path="url(#30d6e8714b)"><path fill="#4b4b4b" d="M 53.496094 48.804688 L 69.269531 48.804688 L 69.269531 70.550781 L 53.496094 70.550781 Z M 53.496094 48.804688 " fill-opacity="1" fill-rule="nonzero"/></g></g><g clip-path="url(#f155f77cda)"><g clip-path="url(#ea0094bc9c)"><path fill="#ffffff" d="M 62.25 59.183594 L 69.269531 59.183594 L 69.269531 67.21875 L 62.25 67.21875 Z M 62.25 59.183594 " fill-opacity="1" fill-rule="nonzero"/></g></g><g clip-path="url(#6d803c675b)"><path fill="#737373" d="M 89.117188 77.113281 C 89.117188 77.792969 89.050781 78.46875 88.917969 79.136719 C 88.785156 79.808594 88.585938 80.457031 88.328125 81.085938 C 88.066406 81.71875 87.746094 82.316406 87.367188 82.882812 C 86.988281 83.449219 86.558594 83.976562 86.074219 84.457031 C 85.59375 84.941406 85.066406 85.371094 84.5 85.75 C 83.933594 86.128906 83.335938 86.449219 82.703125 86.710938 C 82.074219 86.96875 81.425781 87.167969 80.753906 87.300781 C 80.085938 87.433594 79.410156 87.5 78.726562 87.5 C 78.046875 87.5 77.371094 87.433594 76.703125 87.300781 C 76.03125 87.167969 75.382812 86.96875 74.753906 86.710938 C 74.121094 86.449219 73.523438 86.128906 72.957031 85.75 C 72.390625 85.371094 71.863281 84.941406 71.382812 84.457031 C 70.898438 83.976562 70.46875 83.449219 70.089844 82.882812 C 69.710938 82.316406 69.390625 81.71875 69.128906 81.085938 C 68.871094 80.457031 68.671875 79.808594 68.539062 79.136719 C 68.40625 78.46875 68.339844 77.792969 68.339844 77.113281 C 68.339844 76.429688 68.40625 75.753906 68.539062 75.085938 C 68.671875 74.414062 68.871094 73.765625 69.128906 73.136719 C 69.390625 72.503906 69.710938 71.90625 70.089844 71.339844 C 70.46875 70.773438 70.898438 70.246094 71.382812 69.765625 C 71.863281 69.28125 72.390625 68.851562 72.957031 68.472656 C 73.523438 68.09375 74.121094 67.773438 74.753906 67.511719 C 75.382812 67.253906 76.03125 67.054688 76.703125 66.921875 C 77.371094 66.789062 78.046875 66.722656 78.726562 66.722656 C 79.410156 66.722656 80.085938 66.789062 80.753906 66.921875 C 81.425781 67.054688 82.074219 67.253906 82.703125 67.511719 C 83.335938 67.773438 83.933594 68.09375 84.5 68.472656 C 85.066406 68.851562 85.59375 69.28125 86.074219 69.765625 C 86.558594 70.246094 86.988281 70.773438 87.367188 71.339844 C 87.746094 71.90625 88.066406 72.503906 88.328125 73.136719 C 88.585938 73.765625 88.785156 74.414062 88.917969 75.085938 C 89.050781 75.753906 89.117188 76.429688 89.117188 77.113281 Z M 89.117188 77.113281 " fill-opacity="1" fill-rule="nonzero"/></g><g clip-path="url(#38773948f6)"><path fill="#a6a6a6" d="M 91.835938 80.382812 C 91.835938 81.25 91.75 82.105469 91.582031 82.953125 C 91.414062 83.800781 91.164062 84.625 90.832031 85.421875 C 90.5 86.222656 90.097656 86.980469 89.617188 87.699219 C 89.136719 88.417969 88.589844 89.082031 87.976562 89.695312 C 87.367188 90.304688 86.703125 90.851562 85.984375 91.332031 C 85.265625 91.8125 84.503906 92.21875 83.707031 92.550781 C 82.90625 92.878906 82.082031 93.128906 81.234375 93.300781 C 80.386719 93.46875 79.53125 93.550781 78.667969 93.550781 C 77.800781 93.550781 76.945312 93.46875 76.097656 93.300781 C 75.25 93.128906 74.425781 92.878906 73.628906 92.550781 C 72.828125 92.21875 72.070312 91.8125 71.351562 91.332031 C 70.632812 90.851562 69.96875 90.304688 69.355469 89.695312 C 68.746094 89.082031 68.199219 88.417969 67.71875 87.699219 C 67.238281 86.980469 66.832031 86.222656 66.5 85.421875 C 66.171875 84.625 65.921875 83.800781 65.753906 82.953125 C 65.582031 82.105469 65.5 81.25 65.5 80.382812 C 65.5 79.519531 65.582031 78.664062 65.753906 77.816406 C 65.921875 76.96875 66.171875 76.144531 66.5 75.34375 C 66.832031 74.546875 67.238281 73.789062 67.71875 73.066406 C 68.199219 72.347656 68.746094 71.683594 69.355469 71.074219 C 69.96875 70.460938 70.632812 69.914062 71.351562 69.433594 C 72.070312 68.953125 72.828125 68.550781 73.628906 68.21875 C 74.425781 67.886719 75.25 67.636719 76.097656 67.46875 C 76.945312 67.300781 77.800781 67.214844 78.667969 67.214844 C 79.53125 67.214844 80.386719 67.300781 81.234375 67.46875 C 82.082031 67.636719 82.90625 67.886719 83.707031 68.21875 C 84.503906 68.550781 85.265625 68.953125 85.984375 69.433594 C 86.703125 69.914062 87.367188 70.460938 87.976562 71.074219 C 88.589844 71.683594 89.136719 72.347656 89.617188 73.066406 C 90.097656 73.789062 90.5 74.546875 90.832031 75.34375 C 91.164062 76.144531 91.414062 76.96875 91.582031 77.816406 C 91.75 78.664062 91.835938 79.519531 91.835938 80.382812 Z M 91.835938 80.382812 " fill-opacity="1" fill-rule="nonzero"/></g><g clip-path="url(#ea827c3f48)"><g clip-path="url(#53049f8e6e)"><path fill="#ffffff" d="M 81.871094 69.457031 L 87.355469 69.457031 L 87.355469 74.089844 L 81.871094 74.089844 Z M 81.871094 69.457031 " fill-opacity="1" fill-rule="nonzero"/></g></g><g clip-path="url(#310386aef9)"><g clip-path="url(#1a5cb7d257)"><path fill="#ffffff" d="M 86.679688 74.867188 L 89.039062 74.867188 L 89.039062 77.226562 L 86.679688 77.226562 Z M 86.679688 74.867188 " fill-opacity="1" fill-rule="nonzero"/></g></g><path stroke-linecap="round" transform="matrix(-0.234489, 0.00000000040926, -0.00000000040926, -0.234489, 71.938387, 77.710632)" fill="none" stroke-linejoin="miter" d="M 1.503055 1.49797 L 17.445332 1.49797 " stroke="#737373" stroke-width="3" stroke-opacity="1" stroke-miterlimit="4"/><path stroke-linecap="round" transform="matrix(-0.234489, 0, 0, -0.234489, 71.940304, 75.227518)" fill="none" stroke-linejoin="miter" d="M 1.494574 1.503347 L 10.506875 1.503347 " stroke="#737373" stroke-width="3" stroke-opacity="1" stroke-miterlimit="4"/><path stroke-linecap="round" transform="matrix(-0.234489, -0.00000000040926, 0.00000000040926, -0.234489, 71.940568, 72.931315)" fill="none" stroke-linejoin="miter" d="M 1.4957 1.506216 L 5.460446 1.506216 " stroke="#737373" stroke-width="3" stroke-opacity="1" stroke-miterlimit="4"/><g clip-path="url(#dab8f95a77)"><path fill="#737373" d="M 68.675781 16.3125 C 68.269531 15.382812 67.671875 13.574219 68.261719 11.640625 C 69.226562 8.46875 73.019531 6.195312 77.585938 6.492188 C 78.195312 10.359375 76.699219 13.984375 73.882812 15.601562 C 71.988281 16.691406 70.023438 16.5625 69.09375 16.433594 C 70.046875 15.710938 71.113281 14.78125 72.183594 13.609375 C 73.832031 11.796875 74.933594 9.996094 75.664062 8.5625 C 74.617188 10.023438 73.359375 11.601562 71.855469 13.210938 C 70.769531 14.375 69.699219 15.40625 68.675781 16.3125 Z M 68.675781 16.3125 " fill-opacity="1" fill-rule="nonzero"/></g><g clip-path="url(#4ecbfad332)"><path fill="#737373" d="M 67.457031 16.414062 C 66.746094 16.628906 65.371094 16.914062 64.011719 16.320312 C 61.78125 15.34375 60.449219 12.382812 61.050781 9.074219 C 63.925781 8.964844 66.441406 10.363281 67.382812 12.554688 C 68.015625 14.03125 67.753906 15.453125 67.578125 16.121094 C 67.132812 15.363281 66.546875 14.503906 65.78125 13.625 C 64.601562 12.265625 63.382812 11.308594 62.398438 10.65625 C 63.375 11.542969 64.417969 12.597656 65.464844 13.832031 C 66.222656 14.722656 66.882812 15.589844 67.457031 16.414062 Z M 67.457031 16.414062 " fill-opacity="1" fill-rule="nonzero"/></g><g clip-path="url(#566110ab5a)"><g clip-path="url(#743cacd8d9)"><g clip-path="url(#036bf58393)"><path fill="#a6a6a6" d="M 0 98.734375 L 10.851562 81.914062 L 24.390625 90.652344 L 13.539062 107.46875 Z M 0 98.734375 " fill-opacity="1" fill-rule="nonzero"/></g></g></g><g clip-path="url(#67ac1f4487)"><g clip-path="url(#82b9e45b2d)"><g clip-path="url(#04f9ff8aad)"><path fill="#a6a6a6" d="M 90.421875 29.035156 L 121.648438 44.546875 L 114.484375 58.976562 L 83.253906 43.46875 Z M 90.421875 29.035156 " fill-opacity="1" fill-rule="nonzero"/></g></g></g><g clip-path="url(#714f9fb2f3)"><g clip-path="url(#8b3e0be529)"><g clip-path="url(#3ae312fba5)"><path fill="#a6a6a6" d="M 37.144531 43.015625 L 68.585938 27.9375 L 75.550781 42.464844 L 44.113281 57.542969 Z M 37.144531 43.015625 " fill-opacity="1" fill-rule="nonzero"/></g></g></g></svg>