<svg xmlns="http://www.w3.org/2000/svg" xmlns:xlink="http://www.w3.org/1999/xlink" width="200" zoomAndPan="magnify" viewBox="0 0 150 149.999998" height="200" preserveAspectRatio="xMidYMid meet" version="1.0"><defs><clipPath id="59a0a92492"><path d="M 22.992188 21.71875 L 126.59375 21.71875 L 126.59375 120.679688 L 22.992188 120.679688 Z M 22.992188 21.71875 " clip-rule="nonzero"/></clipPath><clipPath id="f29db13890"><path d="M 74.695312 21.71875 C 46.140625 21.71875 22.992188 43.875 22.992188 71.199219 C 22.992188 98.527344 46.140625 120.679688 74.695312 120.679688 C 103.25 120.679688 126.398438 98.527344 126.398438 71.199219 C 126.398438 43.875 103.25 21.71875 74.695312 21.71875 Z M 74.695312 21.71875 " clip-rule="nonzero"/></clipPath><clipPath id="3fa9659dd8"><path d="M 128 65 L 146 65 L 146 80 L 128 80 Z M 128 65 " clip-rule="nonzero"/></clipPath><clipPath id="aa1c0d04ff"><path d="M 126.398438 69.898438 L 142.019531 62.441406 L 148.003906 74.976562 L 132.382812 82.433594 Z M 126.398438 69.898438 " clip-rule="nonzero"/></clipPath><clipPath id="e134ba5627"><path d="M 134.195312 66.175781 C 129.890625 68.234375 127.738281 72.707031 129.390625 76.167969 C 131.042969 79.628906 135.875 80.769531 140.179688 78.710938 C 144.484375 76.65625 146.636719 72.183594 144.980469 68.722656 C 143.328125 65.261719 138.5 64.121094 134.195312 66.175781 Z M 134.195312 66.175781 " clip-rule="nonzero"/></clipPath><clipPath id="44aba89060"><path d="M 89 119 L 111 119 L 111 140 L 89 140 Z M 89 119 " clip-rule="nonzero"/></clipPath><clipPath id="22717e0adb"><path d="M 114.6875 128.492188 L 95.941406 143.394531 L 86.003906 130.894531 L 104.753906 115.992188 Z M 114.6875 128.492188 " clip-rule="nonzero"/></clipPath><clipPath id="3d376ca1af"><path d="M 105.335938 135.925781 C 110.5 131.820312 112.464844 125.691406 109.71875 122.242188 C 106.976562 118.789062 100.566406 119.320312 95.398438 123.425781 C 90.234375 127.535156 88.269531 133.660156 91.015625 137.113281 C 93.757812 140.5625 100.171875 140.03125 105.335938 135.925781 Z M 105.335938 135.925781 " clip-rule="nonzero"/></clipPath><clipPath id="48613d5ebf"><path d="M 94 119 L 119 119 L 119 136 L 94 136 Z M 94 119 " clip-rule="nonzero"/></clipPath><clipPath id="e0acb2c7f4"><path d="M 119.253906 133.394531 L 95.574219 137 L 93.171875 121.214844 L 116.851562 117.609375 Z M 119.253906 133.394531 " clip-rule="nonzero"/></clipPath><clipPath id="d6c5394c0d"><path d="M 107.441406 135.195312 C 113.964844 134.199219 118.714844 129.863281 118.054688 125.503906 C 117.390625 121.144531 111.5625 118.414062 105.039062 119.410156 C 98.515625 120.402344 93.765625 124.738281 94.429688 129.097656 C 95.089844 133.457031 100.917969 136.1875 107.441406 135.195312 Z M 107.441406 135.195312 " clip-rule="nonzero"/></clipPath><clipPath id="1408591969"><path d="M 37 120 L 62 120 L 62 137 L 37 137 Z M 37 120 " clip-rule="nonzero"/></clipPath><clipPath id="1609a82607"><path d="M 61.335938 136.101562 L 37.386719 136.421875 L 37.171875 120.457031 L 61.121094 120.136719 Z M 61.335938 136.101562 " clip-rule="nonzero"/></clipPath><clipPath id="0f50940af0"><path d="M 49.386719 136.261719 C 55.984375 136.175781 61.289062 132.527344 61.230469 128.121094 C 61.171875 123.710938 55.773438 120.207031 49.175781 120.296875 C 42.578125 120.382812 37.277344 124.027344 37.335938 128.4375 C 37.394531 132.847656 42.789062 136.351562 49.386719 136.261719 Z M 49.386719 136.261719 " clip-rule="nonzero"/></clipPath><clipPath id="8cddca00b3"><path d="M 44 120 L 67 120 L 67 140 L 44 140 Z M 44 120 " clip-rule="nonzero"/></clipPath><clipPath id="ef06a12546"><path d="M 61.945312 142.777344 L 41.011719 131.140625 L 48.769531 117.183594 L 69.703125 128.820312 Z M 61.945312 142.777344 " clip-rule="nonzero"/></clipPath><clipPath id="58080db256"><path d="M 51.5 136.972656 C 57.269531 140.175781 63.683594 139.652344 65.824219 135.796875 C 67.964844 131.945312 65.027344 126.222656 59.257812 123.015625 C 53.492188 119.808594 47.078125 120.335938 44.9375 124.1875 C 42.792969 128.042969 45.734375 133.765625 51.5 136.972656 Z M 51.5 136.972656 " clip-rule="nonzero"/></clipPath><clipPath id="1933acc852"><path d="M 40.117188 55.960938 L 111 55.960938 L 111 116.292969 L 40.117188 116.292969 Z M 40.117188 55.960938 " clip-rule="nonzero"/></clipPath><clipPath id="84a6b000a7"><path d="M 75.511719 55.960938 C 55.964844 55.960938 40.117188 69.46875 40.117188 86.125 C 40.117188 102.785156 55.964844 116.292969 75.511719 116.292969 C 95.054688 116.292969 110.902344 102.785156 110.902344 86.125 C 110.902344 69.46875 95.054688 55.960938 75.511719 55.960938 Z M 75.511719 55.960938 " clip-rule="nonzero"/></clipPath><clipPath id="2d63fc805a"><path d="M 48.34375 40.722656 L 72.121094 40.722656 L 72.121094 71.28125 L 48.34375 71.28125 Z M 48.34375 40.722656 " clip-rule="nonzero"/></clipPath><clipPath id="7bdda497db"><path d="M 60.230469 40.722656 C 63.382812 40.722656 66.410156 41.976562 68.636719 44.203125 C 70.867188 46.433594 72.121094 49.457031 72.121094 52.613281 L 72.121094 59.3125 C 72.121094 62.464844 70.867188 65.488281 68.636719 67.71875 C 66.410156 69.949219 63.382812 71.199219 60.230469 71.199219 C 57.078125 71.199219 54.054688 69.949219 51.824219 67.71875 C 49.59375 65.488281 48.34375 62.464844 48.34375 59.3125 L 48.34375 52.613281 C 48.34375 49.457031 49.59375 46.433594 51.824219 44.203125 C 54.054688 41.976562 57.078125 40.722656 60.230469 40.722656 Z M 60.230469 40.722656 " clip-rule="nonzero"/></clipPath><clipPath id="cbe470a8be"><path d="M 77.273438 40.722656 L 101.050781 40.722656 L 101.050781 71.28125 L 77.273438 71.28125 Z M 77.273438 40.722656 " clip-rule="nonzero"/></clipPath><clipPath id="ab973cb97c"><path d="M 89.160156 40.722656 C 92.316406 40.722656 95.339844 41.976562 97.570312 44.203125 C 99.796875 46.433594 101.050781 49.457031 101.050781 52.613281 L 101.050781 59.3125 C 101.050781 62.464844 99.796875 65.488281 97.570312 67.71875 C 95.339844 69.949219 92.316406 71.199219 89.160156 71.199219 C 86.007812 71.199219 82.984375 69.949219 80.753906 67.71875 C 78.523438 65.488281 77.273438 62.464844 77.273438 59.3125 L 77.273438 52.613281 C 77.273438 49.457031 78.523438 46.433594 80.753906 44.203125 C 82.984375 41.976562 86.007812 40.722656 89.160156 40.722656 Z M 89.160156 40.722656 " clip-rule="nonzero"/></clipPath><clipPath id="7e732ba87d"><path d="M 82.363281 46.921875 L 95.960938 46.921875 L 95.960938 65.722656 L 82.363281 65.722656 Z M 82.363281 46.921875 " clip-rule="nonzero"/></clipPath><clipPath id="c434e74c3c"><path d="M 89.160156 46.921875 C 90.964844 46.921875 92.695312 47.636719 93.96875 48.914062 C 95.242188 50.1875 95.960938 51.917969 95.960938 53.71875 L 95.960938 58.875 C 95.960938 60.679688 95.242188 62.40625 93.96875 63.683594 C 92.695312 64.957031 90.964844 65.675781 89.160156 65.675781 C 87.359375 65.675781 85.628906 64.957031 84.355469 63.683594 C 83.078125 62.40625 82.363281 60.679688 82.363281 58.875 L 82.363281 53.71875 C 82.363281 51.917969 83.078125 50.1875 84.355469 48.914062 C 85.628906 47.636719 87.359375 46.921875 89.160156 46.921875 Z M 89.160156 46.921875 " clip-rule="nonzero"/></clipPath><clipPath id="d51d142517"><path d="M 88.085938 46.921875 L 94.136719 46.921875 L 94.136719 53.847656 L 88.085938 53.847656 Z M 88.085938 46.921875 " clip-rule="nonzero"/></clipPath><clipPath id="6e60ea1b7b"><path d="M 91.109375 46.921875 C 92.78125 46.921875 94.136719 48.277344 94.136719 49.945312 L 94.136719 50.820312 C 94.136719 52.488281 92.78125 53.84375 91.109375 53.84375 C 89.4375 53.84375 88.085938 52.488281 88.085938 50.820312 L 88.085938 49.945312 C 88.085938 48.277344 89.4375 46.921875 91.109375 46.921875 Z M 91.109375 46.921875 " clip-rule="nonzero"/></clipPath><clipPath id="192aab89ee"><path d="M 53 46.585938 L 66.59375 46.585938 L 66.59375 65.386719 L 53 65.386719 Z M 53 46.585938 " clip-rule="nonzero"/></clipPath><clipPath id="b2d6abb909"><path d="M 59.796875 46.585938 C 61.597656 46.585938 63.328125 47.300781 64.601562 48.574219 C 65.878906 49.851562 66.59375 51.582031 66.59375 53.382812 L 66.59375 58.539062 C 66.59375 60.34375 65.878906 62.070312 64.601562 63.347656 C 63.328125 64.621094 61.597656 65.339844 59.796875 65.339844 C 57.992188 65.339844 56.265625 64.621094 54.988281 63.347656 C 53.714844 62.070312 53 60.34375 53 58.539062 L 53 53.382812 C 53 51.582031 53.714844 49.851562 54.988281 48.574219 C 56.265625 47.300781 57.992188 46.585938 59.796875 46.585938 Z M 59.796875 46.585938 " clip-rule="nonzero"/></clipPath><clipPath id="4d5a90b072"><path d="M 59.3125 46.585938 L 65.363281 46.585938 L 65.363281 53.511719 L 59.3125 53.511719 Z M 59.3125 46.585938 " clip-rule="nonzero"/></clipPath><clipPath id="be3b0e62a2"><path d="M 62.339844 46.585938 C 64.011719 46.585938 65.363281 47.941406 65.363281 49.609375 L 65.363281 50.484375 C 65.363281 52.152344 64.011719 53.507812 62.339844 53.507812 C 60.667969 53.507812 59.3125 52.152344 59.3125 50.484375 L 59.3125 49.609375 C 59.3125 47.941406 60.667969 46.585938 62.339844 46.585938 Z M 62.339844 46.585938 " clip-rule="nonzero"/></clipPath><clipPath id="831b7dcb06"><path d="M 65.792969 72.023438 L 83.785156 72.023438 L 83.785156 79.90625 L 65.792969 79.90625 Z M 65.792969 72.023438 " clip-rule="nonzero"/></clipPath><clipPath id="9ae24daffb"><path d="M 63.34375 62.457031 L 85.984375 62.457031 L 85.984375 73.574219 L 63.34375 73.574219 Z M 63.34375 62.457031 " clip-rule="nonzero"/></clipPath><clipPath id="d84fc945ee"><path d="M 77.644531 64.578125 L 81.996094 64.578125 L 81.996094 68.195312 L 77.644531 68.195312 Z M 77.644531 64.578125 " clip-rule="nonzero"/></clipPath><clipPath id="9c1b83387b"><path d="M 78.71875 64.617188 C 80.214844 65.28125 80.820312 65.691406 81.195312 66.039062 C 81.492188 66.316406 81.78125 66.675781 81.898438 66.890625 C 81.957031 67 81.972656 67.074219 81.980469 67.167969 C 81.992188 67.265625 81.988281 67.363281 81.964844 67.457031 C 81.945312 67.554688 81.914062 67.648438 81.867188 67.730469 C 81.820312 67.816406 81.757812 67.890625 81.683594 67.953125 C 81.609375 68.015625 81.523438 68.066406 81.4375 68.105469 C 81.347656 68.140625 81.246094 68.167969 81.152344 68.171875 C 81.058594 68.179688 80.957031 68.171875 80.863281 68.148438 C 80.773438 68.121094 80.679688 68.085938 80.601562 68.03125 C 80.519531 67.980469 80.441406 67.90625 80.382812 67.832031 C 80.328125 67.757812 80.28125 67.667969 80.246094 67.578125 C 80.214844 67.488281 80.195312 67.390625 80.195312 67.296875 C 80.195312 67.199219 80.207031 67.097656 80.238281 67.007812 C 80.269531 66.917969 80.3125 66.824219 80.367188 66.75 C 80.425781 66.671875 80.5 66.601562 80.578125 66.550781 C 80.65625 66.496094 80.746094 66.449219 80.835938 66.421875 C 80.925781 66.398438 81.03125 66.382812 81.125 66.386719 C 81.21875 66.390625 81.320312 66.414062 81.410156 66.445312 C 81.5 66.480469 81.589844 66.527344 81.660156 66.589844 C 81.734375 66.648438 81.804688 66.726562 81.851562 66.808594 C 81.902344 66.886719 81.941406 66.980469 81.960938 67.074219 C 81.980469 67.167969 81.992188 67.269531 81.980469 67.363281 C 81.972656 67.457031 81.945312 67.558594 81.910156 67.644531 C 81.871094 67.730469 81.8125 67.816406 81.75 67.882812 C 81.6875 67.953125 81.609375 68.015625 81.523438 68.0625 C 81.441406 68.109375 81.347656 68.148438 81.25 68.164062 C 81.15625 68.179688 81.058594 68.183594 80.960938 68.167969 C 80.867188 68.152344 80.769531 68.121094 80.683594 68.078125 C 80.601562 68.035156 80.535156 67.988281 80.453125 67.90625 C 80.316406 67.769531 80.191406 67.515625 79.96875 67.304688 C 79.636719 66.992188 78.917969 66.480469 78.5625 66.296875 C 78.367188 66.199219 78.199219 66.191406 78.082031 66.128906 C 78.007812 66.09375 77.96875 66.054688 77.917969 66.007812 C 77.871094 65.960938 77.832031 65.925781 77.792969 65.855469 C 77.742188 65.761719 77.679688 65.609375 77.667969 65.484375 C 77.65625 65.355469 77.695312 65.1875 77.730469 65.089844 C 77.757812 65.015625 77.78125 64.972656 77.832031 64.914062 C 77.898438 64.832031 78.039062 64.71875 78.136719 64.667969 C 78.203125 64.632812 78.25 64.609375 78.324219 64.597656 C 78.429688 64.582031 78.71875 64.617188 78.71875 64.617188 " clip-rule="nonzero"/></clipPath><clipPath id="5708343445"><path d="M 81.800781 69.234375 L 83.40625 69.234375 L 83.40625 70.886719 L 81.800781 70.886719 Z M 81.800781 69.234375 " clip-rule="nonzero"/></clipPath><clipPath id="f3a2f033cd"><path d="M 83.40625 69.824219 C 83.40625 70.332031 83.347656 70.464844 83.269531 70.566406 C 83.191406 70.664062 83.082031 70.753906 82.964844 70.804688 C 82.847656 70.859375 82.707031 70.878906 82.582031 70.875 C 82.457031 70.871094 82.320312 70.820312 82.207031 70.757812 C 82.097656 70.695312 81.992188 70.589844 81.929688 70.484375 C 81.863281 70.375 81.820312 70.238281 81.8125 70.113281 C 81.808594 69.988281 81.835938 69.84375 81.886719 69.730469 C 81.941406 69.613281 82.023438 69.503906 82.125 69.425781 C 82.222656 69.34375 82.355469 69.28125 82.480469 69.261719 C 82.609375 69.242188 82.75 69.25 82.871094 69.289062 C 82.992188 69.324219 83.207031 69.488281 83.207031 69.488281 " clip-rule="nonzero"/></clipPath><clipPath id="05fb5c39e9"><path d="M 73 6.636719 L 82 6.636719 L 82 15.9375 L 73 15.9375 Z M 73 6.636719 " clip-rule="nonzero"/></clipPath><clipPath id="23d046e1b4"><path d="M 67.042969 9 L 74 9 L 74 15.9375 L 67.042969 15.9375 Z M 67.042969 9 " clip-rule="nonzero"/></clipPath><clipPath id="68de89b225"><path d="M 4 72 L 22 72 L 22 88 L 4 88 Z M 4 72 " clip-rule="nonzero"/></clipPath><clipPath id="8362a15230"><path d="M 8.019531 69.953125 L 23.632812 77.421875 L 17.640625 89.953125 L 2.023438 82.480469 Z M 8.019531 69.953125 " clip-rule="nonzero"/></clipPath><clipPath id="4367d9ae94"><path d="M 15.8125 73.679688 C 11.507812 71.621094 6.679688 72.757812 5.023438 76.21875 C 3.367188 79.675781 5.515625 84.152344 9.816406 86.210938 C 14.121094 88.269531 18.953125 87.132812 20.605469 83.671875 C 22.261719 80.210938 20.117188 75.738281 15.8125 73.679688 Z M 15.8125 73.679688 " clip-rule="nonzero"/></clipPath></defs><g clip-path="url(#59a0a92492)"><g clip-path="url(#f29db13890)"><path fill="#f8c038" d="M 22.992188 21.71875 L 126.207031 21.71875 L 126.207031 120.679688 L 22.992188 120.679688 Z M 22.992188 21.71875 " fill-opacity="1" fill-rule="nonzero"/></g></g><g clip-path="url(#3fa9659dd8)"><g clip-path="url(#aa1c0d04ff)"><g clip-path="url(#e134ba5627)"><path fill="#f8c038" d="M 126.398438 69.898438 L 141.96875 62.464844 L 147.953125 75 L 132.382812 82.433594 Z M 126.398438 69.898438 " fill-opacity="1" fill-rule="nonzero"/></g></g></g><g clip-path="url(#44aba89060)"><g clip-path="url(#22717e0adb)"><g clip-path="url(#3d376ca1af)"><path fill="#f09020" d="M 114.6875 128.492188 L 95.988281 143.355469 L 86.050781 130.859375 L 104.753906 115.992188 Z M 114.6875 128.492188 " fill-opacity="1" fill-rule="nonzero"/></g></g></g><g clip-path="url(#48613d5ebf)"><g clip-path="url(#e0acb2c7f4)"><g clip-path="url(#d6c5394c0d)"><path fill="#f09020" d="M 119.253906 133.394531 L 95.636719 136.992188 L 93.234375 121.203125 L 116.851562 117.609375 Z M 119.253906 133.394531 " fill-opacity="1" fill-rule="nonzero"/></g></g></g><g clip-path="url(#1408591969)"><g clip-path="url(#1609a82607)"><g clip-path="url(#0f50940af0)"><path fill="#f09020" d="M 61.335938 136.101562 L 37.449219 136.421875 L 37.234375 120.453125 L 61.121094 120.136719 Z M 61.335938 136.101562 " fill-opacity="1" fill-rule="nonzero"/></g></g></g><g clip-path="url(#8cddca00b3)"><g clip-path="url(#ef06a12546)"><g clip-path="url(#58080db256)"><path fill="#f09020" d="M 61.945312 142.777344 L 41.066406 131.171875 L 48.824219 117.214844 L 69.703125 128.820312 Z M 61.945312 142.777344 " fill-opacity="1" fill-rule="nonzero"/></g></g></g><g clip-path="url(#1933acc852)"><g clip-path="url(#84a6b000a7)"><path fill="#fddc66" d="M 40.117188 55.960938 L 110.816406 55.960938 L 110.816406 116.292969 L 40.117188 116.292969 Z M 40.117188 55.960938 " fill-opacity="1" fill-rule="nonzero"/></g></g><g clip-path="url(#2d63fc805a)"><g clip-path="url(#7bdda497db)"><path fill="#ffffff" d="M 48.34375 40.722656 L 72.121094 40.722656 L 72.121094 71.1875 L 48.34375 71.1875 Z M 48.34375 40.722656 " fill-opacity="1" fill-rule="nonzero"/></g></g><g clip-path="url(#cbe470a8be)"><g clip-path="url(#ab973cb97c)"><path fill="#ffffff" d="M 77.273438 40.722656 L 101.050781 40.722656 L 101.050781 71.1875 L 77.273438 71.1875 Z M 77.273438 40.722656 " fill-opacity="1" fill-rule="nonzero"/></g></g><g clip-path="url(#7e732ba87d)"><g clip-path="url(#c434e74c3c)"><path fill="#4b4b4b" d="M 82.363281 46.921875 L 95.960938 46.921875 L 95.960938 65.667969 L 82.363281 65.667969 Z M 82.363281 46.921875 " fill-opacity="1" fill-rule="nonzero"/></g></g><g clip-path="url(#d51d142517)"><g clip-path="url(#6e60ea1b7b)"><path fill="#ffffff" d="M 88.085938 46.921875 L 94.136719 46.921875 L 94.136719 53.847656 L 88.085938 53.847656 Z M 88.085938 46.921875 " fill-opacity="1" fill-rule="nonzero"/></g></g><g clip-path="url(#192aab89ee)"><g clip-path="url(#b2d6abb909)"><path fill="#4b4b4b" d="M 53 46.585938 L 66.59375 46.585938 L 66.59375 65.332031 L 53 65.332031 Z M 53 46.585938 " fill-opacity="1" fill-rule="nonzero"/></g></g><g clip-path="url(#4d5a90b072)"><g clip-path="url(#be3b0e62a2)"><path fill="#ffffff" d="M 59.3125 46.585938 L 65.363281 46.585938 L 65.363281 53.511719 L 59.3125 53.511719 Z M 59.3125 46.585938 " fill-opacity="1" fill-rule="nonzero"/></g></g><g clip-path="url(#831b7dcb06)"><path fill="#f86018" d="M 83.703125 70.988281 C 83.703125 71.574219 83.648438 72.15625 83.53125 72.734375 C 83.417969 73.3125 83.25 73.871094 83.023438 74.414062 C 82.796875 74.957031 82.523438 75.472656 82.195312 75.964844 C 81.867188 76.453125 81.496094 76.90625 81.082031 77.320312 C 80.664062 77.734375 80.214844 78.105469 79.726562 78.433594 C 79.234375 78.761719 78.71875 79.035156 78.175781 79.261719 C 77.632812 79.488281 77.074219 79.65625 76.496094 79.769531 C 75.917969 79.886719 75.335938 79.945312 74.75 79.945312 C 74.160156 79.945312 73.578125 79.886719 73 79.769531 C 72.425781 79.65625 71.863281 79.488281 71.320312 79.261719 C 70.777344 79.035156 70.261719 78.761719 69.773438 78.433594 C 69.285156 78.105469 68.832031 77.734375 68.414062 77.320312 C 68 76.90625 67.628906 76.453125 67.300781 75.964844 C 66.976562 75.472656 66.699219 74.957031 66.472656 74.414062 C 66.25 73.871094 66.078125 73.3125 65.964844 72.734375 C 65.851562 72.15625 65.792969 71.574219 65.792969 70.988281 C 65.792969 70.398438 65.851562 69.816406 65.964844 69.238281 C 66.078125 68.664062 66.25 68.101562 66.472656 67.558594 C 66.699219 67.015625 66.976562 66.5 67.300781 66.011719 C 67.628906 65.523438 68 65.070312 68.414062 64.65625 C 68.832031 64.238281 69.285156 63.867188 69.773438 63.539062 C 70.261719 63.214844 70.777344 62.9375 71.320312 62.714844 C 71.863281 62.488281 72.425781 62.316406 73 62.203125 C 73.578125 62.089844 74.160156 62.03125 74.75 62.03125 C 75.335938 62.03125 75.917969 62.089844 76.496094 62.203125 C 77.074219 62.316406 77.632812 62.488281 78.175781 62.714844 C 78.71875 62.9375 79.234375 63.214844 79.726562 63.539062 C 80.214844 63.867188 80.664062 64.238281 81.082031 64.65625 C 81.496094 65.070312 81.867188 65.523438 82.195312 66.011719 C 82.523438 66.5 82.796875 67.015625 83.023438 67.558594 C 83.25 68.101562 83.417969 68.664062 83.53125 69.238281 C 83.648438 69.816406 83.703125 70.398438 83.703125 70.988281 Z M 83.703125 70.988281 " fill-opacity="1" fill-rule="nonzero"/></g><g clip-path="url(#9ae24daffb)"><path fill="#f09020" d="M 86.046875 73.808594 C 86.046875 74.554688 85.976562 75.292969 85.828125 76.023438 C 85.683594 76.753906 85.46875 77.464844 85.183594 78.152344 C 84.898438 78.839844 84.546875 79.496094 84.132812 80.117188 C 83.71875 80.734375 83.25 81.308594 82.722656 81.835938 C 82.195312 82.363281 81.621094 82.832031 81.003906 83.246094 C 80.382812 83.660156 79.730469 84.011719 79.039062 84.296875 C 78.351562 84.582031 77.640625 84.796875 76.910156 84.941406 C 76.179688 85.085938 75.441406 85.160156 74.695312 85.160156 C 73.949219 85.160156 73.210938 85.085938 72.480469 84.941406 C 71.75 84.796875 71.039062 84.582031 70.351562 84.296875 C 69.664062 84.011719 69.007812 83.660156 68.390625 83.246094 C 67.769531 82.832031 67.195312 82.363281 66.667969 81.835938 C 66.140625 81.308594 65.671875 80.734375 65.257812 80.117188 C 64.84375 79.496094 64.492188 78.839844 64.207031 78.152344 C 63.921875 77.464844 63.707031 76.753906 63.5625 76.023438 C 63.417969 75.292969 63.34375 74.554688 63.34375 73.808594 C 63.34375 73.0625 63.417969 72.324219 63.5625 71.59375 C 63.707031 70.863281 63.921875 70.152344 64.207031 69.464844 C 64.492188 68.777344 64.84375 68.121094 65.257812 67.5 C 65.671875 66.882812 66.140625 66.308594 66.667969 65.78125 C 67.195312 65.253906 67.769531 64.785156 68.390625 64.371094 C 69.007812 63.957031 69.664062 63.605469 70.351562 63.320312 C 71.039062 63.035156 71.75 62.820312 72.480469 62.675781 C 73.210938 62.53125 73.949219 62.457031 74.695312 62.457031 C 75.441406 62.457031 76.179688 62.53125 76.910156 62.675781 C 77.640625 62.820312 78.351562 63.035156 79.039062 63.320312 C 79.730469 63.605469 80.382812 63.957031 81.003906 64.371094 C 81.621094 64.785156 82.195312 65.253906 82.722656 65.78125 C 83.25 66.308594 83.71875 66.882812 84.132812 67.5 C 84.546875 68.121094 84.898438 68.777344 85.183594 69.464844 C 85.46875 70.152344 85.683594 70.863281 85.828125 71.59375 C 85.976562 72.324219 86.046875 73.0625 86.046875 73.808594 Z M 86.046875 73.808594 " fill-opacity="1" fill-rule="nonzero"/></g><g clip-path="url(#d84fc945ee)"><g clip-path="url(#9c1b83387b)"><path fill="#ffffff" d="M 77.457031 64.390625 L 82.183594 64.390625 L 82.183594 68.382812 L 77.457031 68.382812 Z M 77.457031 64.390625 " fill-opacity="1" fill-rule="nonzero"/></g></g><g clip-path="url(#5708343445)"><g clip-path="url(#f3a2f033cd)"><path fill="#ffffff" d="M 81.605469 69.050781 L 83.636719 69.050781 L 83.636719 71.085938 L 81.605469 71.085938 Z M 81.605469 69.050781 " fill-opacity="1" fill-rule="nonzero"/></g></g><path stroke-linecap="round" transform="matrix(-0.202148, 0.000000000352815, -0.000000000352815, -0.202148, 68.895304, 71.503944)" fill="none" stroke-linejoin="miter" d="M 1.491749 1.507436 L 17.453115 1.507436 " stroke="#c8831a" stroke-width="3" stroke-opacity="1" stroke-miterlimit="4"/><path stroke-linecap="round" transform="matrix(-0.202148, -0.000000000352815, 0.000000000352815, -0.202148, 68.896968, 69.363221)" fill="none" stroke-linejoin="miter" d="M 1.499976 1.50695 L 10.504815 1.50695 " stroke="#c8831a" stroke-width="3" stroke-opacity="1" stroke-miterlimit="4"/><path stroke-linecap="round" transform="matrix(-0.202148, -0.000000000352815, 0.000000000352815, -0.202148, 68.897186, 67.383749)" fill="none" stroke-linejoin="miter" d="M 1.501057 1.492558 L 5.462413 1.492558 " stroke="#c8831a" stroke-width="3" stroke-opacity="1" stroke-miterlimit="4"/><g clip-path="url(#05fb5c39e9)"><path fill="#39b54a" d="M 74.167969 15.417969 C 73.816406 14.609375 73.296875 13.039062 73.808594 11.363281 C 74.644531 8.609375 77.929688 6.636719 81.882812 6.894531 C 82.40625 10.25 81.113281 13.394531 78.675781 14.796875 C 77.035156 15.742188 75.332031 15.632812 74.527344 15.519531 C 75.351562 14.894531 76.277344 14.089844 77.203125 13.070312 C 78.632812 11.496094 79.585938 9.933594 80.21875 8.691406 C 79.3125 9.957031 78.222656 11.328125 76.917969 12.726562 C 75.980469 13.734375 75.054688 14.628906 74.167969 15.417969 Z M 74.167969 15.417969 " fill-opacity="1" fill-rule="nonzero"/></g><g clip-path="url(#23d046e1b4)"><path fill="#39b54a" d="M 73.113281 15.503906 C 72.496094 15.691406 71.308594 15.9375 70.132812 15.421875 C 68.199219 14.574219 67.046875 12.003906 67.566406 9.136719 C 70.054688 9.039062 72.234375 10.253906 73.046875 12.152344 C 73.59375 13.433594 73.371094 14.667969 73.21875 15.25 C 72.832031 14.589844 72.328125 13.847656 71.664062 13.082031 C 70.640625 11.902344 69.585938 11.074219 68.734375 10.507812 C 69.578125 11.277344 70.480469 12.191406 71.390625 13.261719 C 72.042969 14.035156 72.617188 14.789062 73.113281 15.503906 Z M 73.113281 15.503906 " fill-opacity="1" fill-rule="nonzero"/></g><g clip-path="url(#68de89b225)"><g clip-path="url(#8362a15230)"><g clip-path="url(#4367d9ae94)"><path fill="#f8c038" d="M 8.019531 69.953125 L 23.585938 77.398438 L 17.589844 89.929688 L 2.023438 82.480469 Z M 8.019531 69.953125 " fill-opacity="1" fill-rule="nonzero"/></g></g></g></svg>