<svg xmlns="http://www.w3.org/2000/svg" xmlns:xlink="http://www.w3.org/1999/xlink" width="200" zoomAndPan="magnify" viewBox="0 0 150 149.999998" height="200" preserveAspectRatio="xMidYMid meet" version="1.0"><defs><clipPath id="4e49c4e0ca"><path d="M 4.234375 62.675781 L 146.324219 62.675781 L 146.324219 85.996094 L 4.234375 85.996094 Z M 4.234375 62.675781 " clip-rule="nonzero"/></clipPath><clipPath id="938aec35ee"><path d="M 15.890625 62.675781 L 134.589844 62.675781 C 141.03125 62.675781 146.25 67.898438 146.25 74.335938 C 146.25 80.773438 141.03125 85.996094 134.589844 85.996094 L 15.890625 85.996094 C 9.453125 85.996094 4.234375 80.773438 4.234375 74.335938 C 4.234375 67.898438 9.453125 62.675781 15.890625 62.675781 Z M 15.890625 62.675781 " clip-rule="nonzero"/></clipPath><clipPath id="82a2d9dbc5"><path d="M 7 18 L 71 18 L 71 82 L 7 82 Z M 7 18 " clip-rule="nonzero"/></clipPath><clipPath id="87f72aabb3"><path d="M 2.917969 69.507812 L 58.757812 13.664062 L 75.246094 30.152344 L 19.40625 85.992188 Z M 2.917969 69.507812 " clip-rule="nonzero"/></clipPath><clipPath id="f92dafd793"><path d="M 11.160156 61.261719 L 50.507812 21.914062 C 55.0625 17.363281 62.445312 17.363281 66.996094 21.914062 C 71.550781 26.46875 71.550781 33.847656 66.996094 38.402344 L 27.648438 77.75 C 23.097656 82.304688 15.714844 82.304688 11.160156 77.75 C 6.609375 73.195312 6.609375 65.816406 11.160156 61.261719 Z M 11.160156 61.261719 " clip-rule="nonzero"/></clipPath><clipPath id="66921a299c"><path d="M 7 67 L 71 67 L 71 131 L 7 131 Z M 7 67 " clip-rule="nonzero"/></clipPath><clipPath id="0bb3c13c5f"><path d="M 19.40625 62.675781 L 75.246094 118.515625 L 58.757812 135.003906 L 2.917969 79.164062 Z M 19.40625 62.675781 " clip-rule="nonzero"/></clipPath><clipPath id="a9faf854d3"><path d="M 27.648438 70.921875 L 66.996094 110.269531 C 71.550781 114.820312 71.550781 122.203125 66.996094 126.757812 C 62.441406 131.308594 55.0625 131.308594 50.507812 126.757812 L 11.160156 87.410156 C 6.609375 82.855469 6.609375 75.472656 11.160156 70.921875 C 15.714844 66.367188 23.097656 66.367188 27.648438 70.921875 Z M 27.648438 70.921875 " clip-rule="nonzero"/></clipPath></defs><g clip-path="url(#4e49c4e0ca)"><g clip-path="url(#938aec35ee)"><path fill="#f8c038" d="M 4.234375 62.675781 L 146.230469 62.675781 L 146.230469 85.996094 L 4.234375 85.996094 Z M 4.234375 62.675781 " fill-opacity="1" fill-rule="nonzero"/></g></g><g clip-path="url(#82a2d9dbc5)"><g clip-path="url(#87f72aabb3)"><g clip-path="url(#f92dafd793)"><path fill="#f8c038" d="M 2.917969 69.507812 L 58.757812 13.664062 L 75.246094 30.152344 L 19.40625 85.992188 Z M 2.917969 69.507812 " fill-opacity="1" fill-rule="nonzero"/></g></g></g><g clip-path="url(#66921a299c)"><g clip-path="url(#0bb3c13c5f)"><g clip-path="url(#a9faf854d3)"><path fill="#f8c038" d="M 19.40625 62.675781 L 75.246094 118.515625 L 58.757812 135.003906 L 2.917969 79.164062 Z M 19.40625 62.675781 " fill-opacity="1" fill-rule="nonzero"/></g></g></g></svg>