<svg xmlns="http://www.w3.org/2000/svg" xmlns:xlink="http://www.w3.org/1999/xlink" width="1080" zoomAndPan="magnify" viewBox="0 0 810 809.999993" height="1080" preserveAspectRatio="xMidYMid meet" version="1.0"><defs><clipPath id="06a003f60b"><path d="M 246.289062 235.003906 L 565 235.003906 L 565 540.148438 L 246.289062 540.148438 Z M 246.289062 235.003906 " clip-rule="nonzero"/></clipPath><clipPath id="a2618f7969"><path d="M 405.714844 235.003906 C 317.667969 235.003906 246.289062 303.3125 246.289062 387.574219 C 246.289062 471.839844 317.667969 540.148438 405.714844 540.148438 C 493.761719 540.148438 565.140625 471.839844 565.140625 387.574219 C 565.140625 303.3125 493.761719 235.003906 405.714844 235.003906 Z M 405.714844 235.003906 " clip-rule="nonzero"/></clipPath><clipPath id="5f64d5b91c"><path d="M 562 431 L 606 431 L 606 485 L 562 485 Z M 562 431 " clip-rule="nonzero"/></clipPath><clipPath id="6513cbfa6e"><path d="M 604.40625 430.203125 L 606.453125 483.535156 L 563.652344 485.175781 L 561.609375 431.84375 Z M 604.40625 430.203125 " clip-rule="nonzero"/></clipPath><clipPath id="aa248a761b"><path d="M 605.429688 456.820312 C 604.863281 442.121094 594.828125 430.570312 583.007812 431.023438 C 571.1875 431.476562 562.066406 443.761719 562.628906 458.460938 C 563.191406 473.160156 573.230469 484.707031 585.050781 484.253906 C 596.867188 483.800781 605.992188 471.519531 605.429688 456.820312 Z M 605.429688 456.820312 " clip-rule="nonzero"/></clipPath><clipPath id="df4c7f32ea"><path d="M 429 545 L 502 545 L 502 598 L 429 598 Z M 429 545 " clip-rule="nonzero"/></clipPath><clipPath id="074f95d8ca"><path d="M 507.3125 585.339844 L 436.171875 605.171875 L 422.949219 557.742188 L 494.089844 537.910156 Z M 507.3125 585.339844 " clip-rule="nonzero"/></clipPath><clipPath id="afe3d0201c"><path d="M 471.820312 595.230469 C 491.421875 589.769531 504.351562 574.722656 500.699219 561.625 C 497.050781 548.527344 478.199219 542.339844 458.601562 547.804688 C 439 553.269531 426.070312 568.316406 429.722656 581.414062 C 433.371094 594.507812 452.222656 600.695312 471.820312 595.230469 Z M 471.820312 595.230469 " clip-rule="nonzero"/></clipPath><clipPath id="9f0d4b1c93"><path d="M 448 546 L 521 546 L 521 598 L 448 598 Z M 448 546 " clip-rule="nonzero"/></clipPath><clipPath id="49a4b28f0b"><path d="M 514.390625 604.75 L 442.8125 586.566406 L 454.933594 538.847656 L 526.511719 557.03125 Z M 514.390625 604.75 " clip-rule="nonzero"/></clipPath><clipPath id="ad47b230df"><path d="M 478.683594 595.679688 C 498.402344 600.691406 517.105469 594.066406 520.453125 580.890625 C 523.800781 567.714844 510.523438 552.96875 490.804688 547.960938 C 471.082031 542.949219 452.382812 549.570312 449.035156 562.75 C 445.6875 575.925781 458.960938 590.671875 478.683594 595.679688 Z M 478.683594 595.679688 " clip-rule="nonzero"/></clipPath><clipPath id="e092cb5e5a"><path d="M 302 545 L 375 545 L 375 598 L 302 598 Z M 302 545 " clip-rule="nonzero"/></clipPath><clipPath id="32240f3a2e"><path d="M 380.320312 584.945312 L 309.296875 605.199219 L 295.792969 557.851562 L 366.816406 537.597656 Z M 380.320312 584.945312 " clip-rule="nonzero"/></clipPath><clipPath id="f7595c0494"><path d="M 344.886719 595.046875 C 364.457031 589.46875 377.296875 574.34375 373.566406 561.269531 C 369.839844 548.195312 350.953125 542.121094 331.386719 547.699219 C 311.816406 553.28125 298.976562 568.402344 302.707031 581.476562 C 306.433594 594.550781 325.320312 600.628906 344.886719 595.046875 Z M 344.886719 595.046875 " clip-rule="nonzero"/></clipPath><clipPath id="8337102519"><path d="M 321 546 L 394 546 L 394 598 L 321 598 Z M 321 546 " clip-rule="nonzero"/></clipPath><clipPath id="2986d767bf"><path d="M 387.511719 604.3125 L 315.828125 586.554688 L 327.664062 538.765625 L 399.351562 556.523438 Z M 387.511719 604.3125 " clip-rule="nonzero"/></clipPath><clipPath id="da3384eea7"><path d="M 351.75 595.453125 C 371.503906 600.347656 390.164062 593.617188 393.433594 580.417969 C 396.703125 567.222656 383.339844 552.554688 363.589844 547.664062 C 343.839844 542.769531 325.179688 549.503906 321.910156 562.699219 C 318.640625 575.898438 332 590.5625 351.75 595.453125 Z M 351.75 595.453125 " clip-rule="nonzero"/></clipPath><clipPath id="4dac35b696"><path d="M 299.09375 340.582031 L 517.820312 340.582031 L 517.820312 526.605469 L 299.09375 526.605469 Z M 299.09375 340.582031 " clip-rule="nonzero"/></clipPath><clipPath id="17dea8fd4c"><path d="M 408.226562 340.582031 C 347.953125 340.582031 299.09375 382.226562 299.09375 433.59375 C 299.09375 484.964844 347.953125 526.605469 408.226562 526.605469 C 468.496094 526.605469 517.355469 484.964844 517.355469 433.59375 C 517.355469 382.226562 468.496094 340.582031 408.226562 340.582031 Z M 408.226562 340.582031 " clip-rule="nonzero"/></clipPath><clipPath id="c581cc68f4"><path d="M 324.453125 293.59375 L 397.773438 293.59375 L 397.773438 387.820312 L 324.453125 387.820312 Z M 324.453125 293.59375 " clip-rule="nonzero"/></clipPath><clipPath id="5b35ddedbf"><path d="M 361.113281 293.59375 C 370.835938 293.59375 380.160156 297.453125 387.035156 304.328125 C 393.910156 311.203125 397.773438 320.53125 397.773438 330.253906 L 397.773438 350.910156 C 397.773438 360.632812 393.910156 369.957031 387.035156 376.832031 C 380.160156 383.707031 370.835938 387.570312 361.113281 387.570312 C 351.390625 387.570312 342.066406 383.707031 335.191406 376.832031 C 328.316406 369.957031 324.453125 360.632812 324.453125 350.910156 L 324.453125 330.253906 C 324.453125 320.53125 328.316406 311.203125 335.191406 304.328125 C 342.066406 297.453125 351.390625 293.59375 361.113281 293.59375 Z M 361.113281 293.59375 " clip-rule="nonzero"/></clipPath><clipPath id="ac45b28e18"><path d="M 413.660156 293.59375 L 486.980469 293.59375 L 486.980469 387.820312 L 413.660156 387.820312 Z M 413.660156 293.59375 " clip-rule="nonzero"/></clipPath><clipPath id="daa97ff36c"><path d="M 450.320312 293.59375 C 460.042969 293.59375 469.367188 297.453125 476.242188 304.328125 C 483.117188 311.203125 486.980469 320.53125 486.980469 330.253906 L 486.980469 350.910156 C 486.980469 360.632812 483.117188 369.957031 476.242188 376.832031 C 469.367188 383.707031 460.042969 387.570312 450.320312 387.570312 C 440.597656 387.570312 431.273438 383.707031 424.398438 376.832031 C 417.519531 369.957031 413.660156 360.632812 413.660156 350.910156 L 413.660156 330.253906 C 413.660156 320.53125 417.519531 311.203125 424.398438 304.328125 C 431.273438 297.453125 440.597656 293.59375 450.320312 293.59375 Z M 450.320312 293.59375 " clip-rule="nonzero"/></clipPath><clipPath id="7505d162ad"><path d="M 429.359375 312.703125 L 471.28125 312.703125 L 471.28125 370.675781 L 429.359375 370.675781 Z M 429.359375 312.703125 " clip-rule="nonzero"/></clipPath><clipPath id="447ab695dd"><path d="M 450.320312 312.703125 C 455.878906 312.703125 461.210938 314.910156 465.144531 318.84375 C 469.074219 322.773438 471.28125 328.105469 471.28125 333.664062 L 471.28125 349.566406 C 471.28125 355.125 469.074219 360.457031 465.144531 364.386719 C 461.210938 368.320312 455.878906 370.527344 450.320312 370.527344 C 444.761719 370.527344 439.429688 368.320312 435.5 364.386719 C 431.570312 360.457031 429.359375 355.125 429.359375 349.566406 L 429.359375 333.664062 C 429.359375 328.105469 431.570312 322.773438 435.5 318.84375 C 439.429688 314.910156 444.761719 312.703125 450.320312 312.703125 Z M 450.320312 312.703125 " clip-rule="nonzero"/></clipPath><clipPath id="7eeeeae422"><path d="M 447 312.710938 L 465.660156 312.710938 L 465.660156 334.066406 L 447 334.066406 Z M 447 312.710938 " clip-rule="nonzero"/></clipPath><clipPath id="8e54862073"><path d="M 456.332031 312.710938 C 461.484375 312.710938 465.660156 316.886719 465.660156 322.042969 L 465.660156 324.730469 C 465.660156 329.882812 461.484375 334.058594 456.332031 334.058594 C 451.179688 334.058594 447 329.882812 447 324.730469 L 447 322.042969 C 447 316.886719 451.179688 312.710938 456.332031 312.710938 Z M 456.332031 312.710938 " clip-rule="nonzero"/></clipPath><clipPath id="074ebd296d"><path d="M 338.8125 311.667969 L 380.734375 311.667969 L 380.734375 369.636719 L 338.8125 369.636719 Z M 338.8125 311.667969 " clip-rule="nonzero"/></clipPath><clipPath id="8020e967c9"><path d="M 359.773438 311.667969 C 365.332031 311.667969 370.664062 313.875 374.59375 317.808594 C 378.527344 321.738281 380.734375 327.070312 380.734375 332.628906 L 380.734375 348.53125 C 380.734375 354.089844 378.527344 359.421875 374.59375 363.351562 C 370.664062 367.285156 365.332031 369.492188 359.773438 369.492188 C 354.214844 369.492188 348.882812 367.285156 344.953125 363.351562 C 341.019531 359.421875 338.8125 354.089844 338.8125 348.53125 L 338.8125 332.628906 C 338.8125 327.070312 341.019531 321.738281 344.953125 317.808594 C 348.882812 313.875 354.214844 311.667969 359.773438 311.667969 Z M 359.773438 311.667969 " clip-rule="nonzero"/></clipPath><clipPath id="cdf13e663c"><path d="M 358.289062 311.675781 L 376.949219 311.675781 L 376.949219 333.03125 L 358.289062 333.03125 Z M 358.289062 311.675781 " clip-rule="nonzero"/></clipPath><clipPath id="7ae4393929"><path d="M 367.617188 311.675781 C 372.769531 311.675781 376.949219 315.851562 376.949219 321.003906 L 376.949219 323.695312 C 376.949219 328.847656 372.769531 333.023438 367.617188 333.023438 C 362.464844 333.023438 358.289062 328.847656 358.289062 323.695312 L 358.289062 321.003906 C 358.289062 315.851562 362.464844 311.675781 367.617188 311.675781 Z M 367.617188 311.675781 " clip-rule="nonzero"/></clipPath><clipPath id="a53b7c29ba"><path d="M 378.265625 390.101562 L 433.738281 390.101562 L 433.738281 414.414062 L 378.265625 414.414062 Z M 378.265625 390.101562 " clip-rule="nonzero"/></clipPath><clipPath id="76fd4b9d94"><path d="M 370.710938 360.609375 L 440.523438 360.609375 L 440.523438 394.894531 L 370.710938 394.894531 Z M 370.710938 360.609375 " clip-rule="nonzero"/></clipPath><clipPath id="4ca0d225b9"><path d="M 414.804688 367.148438 L 428.230469 367.148438 L 428.230469 378.308594 L 414.804688 378.308594 Z M 414.804688 367.148438 " clip-rule="nonzero"/></clipPath><clipPath id="d420b327ab"><path d="M 418.117188 367.265625 C 422.738281 369.324219 424.601562 370.589844 425.75 371.660156 C 426.675781 372.519531 427.566406 373.621094 427.921875 374.285156 C 428.101562 374.625 428.148438 374.851562 428.183594 375.144531 C 428.214844 375.433594 428.199219 375.742188 428.132812 376.035156 C 428.066406 376.324219 427.972656 376.617188 427.824219 376.878906 C 427.679688 377.136719 427.484375 377.363281 427.257812 377.558594 C 427.03125 377.753906 426.773438 377.914062 426.496094 378.027344 C 426.222656 378.140625 425.914062 378.222656 425.621094 378.238281 C 425.328125 378.253906 425.023438 378.238281 424.730469 378.15625 C 424.453125 378.078125 424.164062 377.960938 423.917969 377.800781 C 423.675781 377.640625 423.433594 377.410156 423.253906 377.183594 C 423.078125 376.957031 422.929688 376.683594 422.832031 376.40625 C 422.738281 376.132812 422.671875 375.824219 422.671875 375.53125 C 422.671875 375.242188 422.703125 374.917969 422.800781 374.640625 C 422.898438 374.363281 423.027344 374.074219 423.207031 373.847656 C 423.386719 373.601562 423.613281 373.394531 423.855469 373.230469 C 424.097656 373.070312 424.375 372.921875 424.648438 372.84375 C 424.925781 372.761719 425.25 372.710938 425.539062 372.726562 C 425.832031 372.746094 426.140625 372.808594 426.414062 372.90625 C 426.691406 373.019531 426.964844 373.164062 427.191406 373.359375 C 427.421875 373.539062 427.628906 373.78125 427.777344 374.023438 C 427.9375 374.269531 428.050781 374.558594 428.117188 374.851562 C 428.183594 375.144531 428.214844 375.449219 428.183594 375.742188 C 428.148438 376.035156 428.066406 376.34375 427.953125 376.601562 C 427.839844 376.878906 427.664062 377.136719 427.46875 377.347656 C 427.273438 377.558594 427.03125 377.753906 426.773438 377.898438 C 426.511719 378.042969 426.222656 378.15625 425.929688 378.207031 C 425.636719 378.253906 425.328125 378.269531 425.039062 378.222656 C 424.746094 378.171875 424.4375 378.078125 424.179688 377.945312 C 423.917969 377.816406 423.726562 377.671875 423.464844 377.410156 C 423.042969 376.992188 422.65625 376.210938 421.976562 375.5625 C 420.953125 374.59375 418.734375 373.019531 417.632812 372.453125 C 417.03125 372.144531 416.511719 372.128906 416.15625 371.933594 C 415.929688 371.820312 415.800781 371.707031 415.65625 371.5625 C 415.507812 371.414062 415.378906 371.300781 415.265625 371.089844 C 415.105469 370.800781 414.910156 370.328125 414.875 369.941406 C 414.84375 369.550781 414.957031 369.035156 415.070312 368.726562 C 415.152344 368.5 415.234375 368.367188 415.378906 368.191406 C 415.589844 367.929688 416.027344 367.589844 416.320312 367.429688 C 416.53125 367.316406 416.675781 367.25 416.902344 367.21875 C 417.226562 367.167969 418.117188 367.265625 418.117188 367.265625 " clip-rule="nonzero"/></clipPath><clipPath id="66aaedeaeb"><path d="M 427.632812 381.511719 L 432.582031 381.511719 L 432.582031 386.609375 L 427.632812 386.609375 Z M 427.632812 381.511719 " clip-rule="nonzero"/></clipPath><clipPath id="1243498f80"><path d="M 432.578125 383.332031 C 432.578125 384.902344 432.402344 385.308594 432.160156 385.617188 C 431.914062 385.925781 431.574219 386.199219 431.21875 386.363281 C 430.863281 386.523438 430.425781 386.589844 430.035156 386.574219 C 429.644531 386.554688 429.226562 386.410156 428.882812 386.214844 C 428.542969 386.023438 428.21875 385.699219 428.027344 385.375 C 427.816406 385.035156 427.683594 384.613281 427.667969 384.222656 C 427.652344 383.835938 427.734375 383.398438 427.894531 383.039062 C 428.058594 382.683594 428.316406 382.34375 428.625 382.101562 C 428.933594 381.855469 429.339844 381.664062 429.726562 381.597656 C 430.117188 381.53125 430.554688 381.566406 430.925781 381.679688 C 431.300781 381.792969 431.964844 382.292969 431.964844 382.292969 " clip-rule="nonzero"/></clipPath><clipPath id="354595a9a9"><path d="M 489 220 L 524 220 L 524 242 L 489 242 Z M 489 220 " clip-rule="nonzero"/></clipPath><clipPath id="de3f4be245"><path d="M 484.453125 202.082031 L 525.304688 226.066406 L 510.785156 250.792969 L 469.933594 226.804688 Z M 484.453125 202.082031 " clip-rule="nonzero"/></clipPath><clipPath id="29200d254a"><path d="M 484.453125 202.082031 L 525.304688 226.066406 L 510.785156 250.792969 L 469.933594 226.804688 Z M 484.453125 202.082031 " clip-rule="nonzero"/></clipPath><clipPath id="ff963debed"><path d="M 484.453125 202.082031 L 525.304688 226.066406 L 510.785156 250.792969 L 469.933594 226.804688 Z M 484.453125 202.082031 " clip-rule="nonzero"/></clipPath><clipPath id="be8f35e399"><path d="M 476 209 L 492 209 L 492 236 L 476 236 Z M 476 209 " clip-rule="nonzero"/></clipPath><clipPath id="6ff58d0f45"><path d="M 484.453125 202.082031 L 525.304688 226.066406 L 510.785156 250.792969 L 469.933594 226.804688 Z M 484.453125 202.082031 " clip-rule="nonzero"/></clipPath><clipPath id="c66590396a"><path d="M 484.453125 202.082031 L 525.304688 226.066406 L 510.785156 250.792969 L 469.933594 226.804688 Z M 484.453125 202.082031 " clip-rule="nonzero"/></clipPath><clipPath id="fca0696c57"><path d="M 484.453125 202.082031 L 525.304688 226.066406 L 510.785156 250.792969 L 469.933594 226.804688 Z M 484.453125 202.082031 " clip-rule="nonzero"/></clipPath><clipPath id="9f0096442e"><path d="M 210 431 L 254 431 L 254 485 L 210 485 Z M 210 431 " clip-rule="nonzero"/></clipPath><clipPath id="f2dd529ce0"><path d="M 211.835938 485.496094 L 210.019531 432.15625 L 252.824219 430.695312 L 254.640625 484.035156 Z M 211.835938 485.496094 " clip-rule="nonzero"/></clipPath><clipPath id="4f3e312f36"><path d="M 210.929688 458.875 C 211.429688 473.578125 221.417969 485.167969 233.238281 484.765625 C 245.058594 484.363281 254.234375 472.117188 253.734375 457.417969 C 253.234375 442.714844 243.246094 431.125 231.425781 431.527344 C 219.605469 431.929688 210.429688 444.171875 210.929688 458.875 Z M 210.929688 458.875 " clip-rule="nonzero"/></clipPath><clipPath id="85876697f8"><path d="M 397 375 L 556 375 L 556 458 L 397 458 Z M 397 375 " clip-rule="nonzero"/></clipPath><clipPath id="ff86234cda"><path d="M 388.550781 406.710938 L 408.578125 359.703125 L 564.839844 426.277344 L 544.8125 473.285156 Z M 388.550781 406.710938 " clip-rule="nonzero"/></clipPath><clipPath id="9d37e784a3"><path d="M 398.566406 383.207031 C 393.035156 396.1875 423.5 421.601562 466.613281 439.96875 C 509.726562 458.339844 549.160156 462.707031 554.691406 449.726562 C 560.222656 436.746094 529.753906 411.332031 486.640625 392.964844 C 443.527344 374.59375 404.09375 370.226562 398.566406 383.207031 Z M 398.566406 383.207031 " clip-rule="nonzero"/></clipPath><clipPath id="609f24c5f7"><path d="M 261 231 L 567 231 L 567 452 L 261 452 Z M 261 231 " clip-rule="nonzero"/></clipPath><clipPath id="dbd348cb53"><path d="M 324.761719 179.507812 L 617.839844 310.472656 L 555.03125 451.035156 L 261.949219 320.074219 Z M 324.761719 179.507812 " clip-rule="nonzero"/></clipPath><clipPath id="4de32b976a"><path d="M 324.761719 179.507812 L 617.839844 310.472656 L 486.878906 603.550781 L 193.800781 472.585938 Z M 324.761719 179.507812 " clip-rule="nonzero"/></clipPath><clipPath id="7490387eab"><path d="M 259 305 L 480 305 L 480 428 L 259 428 Z M 259 305 " clip-rule="nonzero"/></clipPath><clipPath id="b2718454c9"><path d="M 243.703125 360.394531 L 277.902344 280.128906 L 495.5 372.835938 L 461.304688 453.101562 Z M 243.703125 360.394531 " clip-rule="nonzero"/></clipPath><clipPath id="c38564a316"><path d="M 260.800781 320.261719 C 251.359375 342.425781 292.363281 381.125 352.386719 406.699219 C 412.410156 432.273438 468.722656 435.035156 478.167969 412.871094 C 487.609375 390.703125 446.609375 352.003906 386.582031 326.433594 C 326.558594 300.859375 270.246094 298.097656 260.800781 320.261719 Z M 260.800781 320.261719 " clip-rule="nonzero"/></clipPath><clipPath id="79fc4bf55a"><path d="M 243.703125 360.394531 L 277.902344 280.128906 L 495.1875 372.703125 L 460.992188 452.96875 Z M 243.703125 360.394531 " clip-rule="nonzero"/></clipPath><clipPath id="e51fe12581"><path d="M 379 264 L 508 264 L 508 354 L 379 354 Z M 379 264 " clip-rule="nonzero"/></clipPath><clipPath id="079c4ccfa2"><path d="M 394.339844 248.535156 L 519.871094 291.738281 L 492.960938 369.925781 L 367.429688 326.722656 Z M 394.339844 248.535156 " clip-rule="nonzero"/></clipPath><clipPath id="f6d5d9460b"><path d="M 457 270.101562 C 422.394531 258.191406 388.316406 266.039062 380.886719 287.628906 C 373.457031 309.222656 395.484375 336.378906 430.089844 348.289062 C 464.695312 360.199219 498.773438 352.351562 506.203125 330.761719 C 513.636719 309.167969 491.605469 282.011719 457 270.101562 Z M 457 270.101562 " clip-rule="nonzero"/></clipPath><clipPath id="f8cdb2aed8"><path d="M 394.339844 248.535156 L 519.566406 291.632812 L 492.65625 369.820312 L 367.429688 326.722656 Z M 394.339844 248.535156 " clip-rule="nonzero"/></clipPath><linearGradient x1="-33.096411" gradientTransform="matrix(0.305422, 0.105117, -0.105117, 0.305422, 394.34164, 248.535968)" y1="-110.244849" x2="443.400997" gradientUnits="userSpaceOnUse" y2="366.252556" id="8c2209d80d"><stop stop-opacity="1" stop-color="rgb(99.598694%, 88.999939%, 21.598816%)" offset="0"/><stop stop-opacity="1" stop-color="rgb(99.598694%, 88.999939%, 21.598816%)" offset="0.125"/><stop stop-opacity="1" stop-color="rgb(99.583435%, 88.908386%, 21.588135%)" offset="0.15625"/><stop stop-opacity="1" stop-color="rgb(99.549866%, 88.693237%, 21.565247%)" offset="0.164062"/><stop stop-opacity="1" stop-color="rgb(99.511719%, 88.449097%, 21.539307%)" offset="0.171875"/><stop stop-opacity="1" stop-color="rgb(99.472046%, 88.204956%, 21.511841%)" offset="0.179688"/><stop stop-opacity="1" stop-color="rgb(99.432373%, 87.95929%, 21.484375%)" offset="0.1875"/><stop stop-opacity="1" stop-color="rgb(99.394226%, 87.715149%, 21.458435%)" offset="0.195312"/><stop stop-opacity="1" stop-color="rgb(99.354553%, 87.469482%, 21.430969%)" offset="0.203125"/><stop stop-opacity="1" stop-color="rgb(99.31488%, 87.225342%, 21.405029%)" offset="0.210938"/><stop stop-opacity="1" stop-color="rgb(99.276733%, 86.981201%, 21.377563%)" offset="0.21875"/><stop stop-opacity="1" stop-color="rgb(99.237061%, 86.735535%, 21.351624%)" offset="0.226563"/><stop stop-opacity="1" stop-color="rgb(99.198914%, 86.491394%, 21.324158%)" offset="0.234375"/><stop stop-opacity="1" stop-color="rgb(99.159241%, 86.247253%, 21.296692%)" offset="0.242188"/><stop stop-opacity="1" stop-color="rgb(99.119568%, 86.001587%, 21.270752%)" offset="0.25"/><stop stop-opacity="1" stop-color="rgb(99.081421%, 85.757446%, 21.243286%)" offset="0.257812"/><stop stop-opacity="1" stop-color="rgb(99.041748%, 85.51178%, 21.217346%)" offset="0.265625"/><stop stop-opacity="1" stop-color="rgb(99.002075%, 85.267639%, 21.18988%)" offset="0.273438"/><stop stop-opacity="1" stop-color="rgb(98.963928%, 85.023499%, 21.16394%)" offset="0.28125"/><stop stop-opacity="1" stop-color="rgb(98.924255%, 84.777832%, 21.136475%)" offset="0.289062"/><stop stop-opacity="1" stop-color="rgb(98.884583%, 84.533691%, 21.109009%)" offset="0.296875"/><stop stop-opacity="1" stop-color="rgb(98.846436%, 84.289551%, 21.083069%)" offset="0.304688"/><stop stop-opacity="1" stop-color="rgb(98.806763%, 84.043884%, 21.055603%)" offset="0.3125"/><stop stop-opacity="1" stop-color="rgb(98.768616%, 83.799744%, 21.029663%)" offset="0.320313"/><stop stop-opacity="1" stop-color="rgb(98.728943%, 83.554077%, 21.002197%)" offset="0.328125"/><stop stop-opacity="1" stop-color="rgb(98.68927%, 83.309937%, 20.974731%)" offset="0.335938"/><stop stop-opacity="1" stop-color="rgb(98.651123%, 83.065796%, 20.948792%)" offset="0.34375"/><stop stop-opacity="1" stop-color="rgb(98.61145%, 82.820129%, 20.921326%)" offset="0.351563"/><stop stop-opacity="1" stop-color="rgb(98.571777%, 82.575989%, 20.895386%)" offset="0.359375"/><stop stop-opacity="1" stop-color="rgb(98.53363%, 82.331848%, 20.86792%)" offset="0.367188"/><stop stop-opacity="1" stop-color="rgb(98.493958%, 82.086182%, 20.84198%)" offset="0.375"/><stop stop-opacity="1" stop-color="rgb(98.455811%, 81.842041%, 20.814514%)" offset="0.382813"/><stop stop-opacity="1" stop-color="rgb(98.416138%, 81.596375%, 20.787048%)" offset="0.390625"/><stop stop-opacity="1" stop-color="rgb(98.376465%, 81.352234%, 20.761108%)" offset="0.398438"/><stop stop-opacity="1" stop-color="rgb(98.338318%, 81.108093%, 20.733643%)" offset="0.40625"/><stop stop-opacity="1" stop-color="rgb(98.298645%, 80.862427%, 20.707703%)" offset="0.414063"/><stop stop-opacity="1" stop-color="rgb(98.258972%, 80.618286%, 20.680237%)" offset="0.421875"/><stop stop-opacity="1" stop-color="rgb(98.220825%, 80.374146%, 20.654297%)" offset="0.429688"/><stop stop-opacity="1" stop-color="rgb(98.181152%, 80.128479%, 20.626831%)" offset="0.4375"/><stop stop-opacity="1" stop-color="rgb(98.141479%, 79.884338%, 20.599365%)" offset="0.445313"/><stop stop-opacity="1" stop-color="rgb(98.103333%, 79.638672%, 20.573425%)" offset="0.453125"/><stop stop-opacity="1" stop-color="rgb(98.06366%, 79.394531%, 20.545959%)" offset="0.460938"/><stop stop-opacity="1" stop-color="rgb(98.025513%, 79.150391%, 20.52002%)" offset="0.46155"/><stop stop-opacity="1" stop-color="rgb(98.005676%, 79.02832%, 20.506287%)" offset="0.46875"/><stop stop-opacity="1" stop-color="rgb(97.98584%, 78.904724%, 20.492554%)" offset="0.476563"/><stop stop-opacity="1" stop-color="rgb(97.946167%, 78.660583%, 20.466614%)" offset="0.484375"/><stop stop-opacity="1" stop-color="rgb(97.90802%, 78.416443%, 20.439148%)" offset="0.492188"/><stop stop-opacity="1" stop-color="rgb(97.868347%, 78.170776%, 20.411682%)" offset="0.5"/><stop stop-opacity="1" stop-color="rgb(97.828674%, 77.926636%, 20.385742%)" offset="0.507813"/><stop stop-opacity="1" stop-color="rgb(97.790527%, 77.680969%, 20.358276%)" offset="0.515625"/><stop stop-opacity="1" stop-color="rgb(97.750854%, 77.436829%, 20.332336%)" offset="0.523438"/><stop stop-opacity="1" stop-color="rgb(97.712708%, 77.192688%, 20.304871%)" offset="0.53125"/><stop stop-opacity="1" stop-color="rgb(97.673035%, 76.947021%, 20.278931%)" offset="0.53845"/><stop stop-opacity="1" stop-color="rgb(97.653198%, 76.824951%, 20.265198%)" offset="0.539063"/><stop stop-opacity="1" stop-color="rgb(97.633362%, 76.702881%, 20.251465%)" offset="0.546875"/><stop stop-opacity="1" stop-color="rgb(97.595215%, 76.45874%, 20.223999%)" offset="0.554688"/><stop stop-opacity="1" stop-color="rgb(97.555542%, 76.213074%, 20.198059%)" offset="0.5625"/><stop stop-opacity="1" stop-color="rgb(97.515869%, 75.968933%, 20.170593%)" offset="0.570312"/><stop stop-opacity="1" stop-color="rgb(97.477722%, 75.723267%, 20.144653%)" offset="0.578125"/><stop stop-opacity="1" stop-color="rgb(97.438049%, 75.479126%, 20.117188%)" offset="0.585938"/><stop stop-opacity="1" stop-color="rgb(97.399902%, 75.234985%, 20.089722%)" offset="0.59375"/><stop stop-opacity="1" stop-color="rgb(97.360229%, 74.989319%, 20.063782%)" offset="0.601562"/><stop stop-opacity="1" stop-color="rgb(97.320557%, 74.745178%, 20.036316%)" offset="0.609375"/><stop stop-opacity="1" stop-color="rgb(97.28241%, 74.501038%, 20.010376%)" offset="0.617188"/><stop stop-opacity="1" stop-color="rgb(97.242737%, 74.255371%, 19.98291%)" offset="0.625"/><stop stop-opacity="1" stop-color="rgb(97.203064%, 74.01123%, 19.95697%)" offset="0.632812"/><stop stop-opacity="1" stop-color="rgb(97.164917%, 73.765564%, 19.929504%)" offset="0.640625"/><stop stop-opacity="1" stop-color="rgb(97.125244%, 73.521423%, 19.902039%)" offset="0.648438"/><stop stop-opacity="1" stop-color="rgb(97.085571%, 73.277283%, 19.876099%)" offset="0.65625"/><stop stop-opacity="1" stop-color="rgb(97.047424%, 73.031616%, 19.848633%)" offset="0.664062"/><stop stop-opacity="1" stop-color="rgb(97.007751%, 72.787476%, 19.822693%)" offset="0.671875"/><stop stop-opacity="1" stop-color="rgb(96.969604%, 72.543335%, 19.795227%)" offset="0.679688"/><stop stop-opacity="1" stop-color="rgb(96.929932%, 72.297668%, 19.769287%)" offset="0.6875"/><stop stop-opacity="1" stop-color="rgb(96.890259%, 72.053528%, 19.741821%)" offset="0.695312"/><stop stop-opacity="1" stop-color="rgb(96.852112%, 71.807861%, 19.714355%)" offset="0.703125"/><stop stop-opacity="1" stop-color="rgb(96.812439%, 71.563721%, 19.688416%)" offset="0.710938"/><stop stop-opacity="1" stop-color="rgb(96.772766%, 71.31958%, 19.66095%)" offset="0.71875"/><stop stop-opacity="1" stop-color="rgb(96.734619%, 71.073914%, 19.63501%)" offset="0.726562"/><stop stop-opacity="1" stop-color="rgb(96.694946%, 70.829773%, 19.607544%)" offset="0.734375"/><stop stop-opacity="1" stop-color="rgb(96.656799%, 70.585632%, 19.581604%)" offset="0.742188"/><stop stop-opacity="1" stop-color="rgb(96.617126%, 70.339966%, 19.554138%)" offset="0.75"/><stop stop-opacity="1" stop-color="rgb(96.577454%, 70.095825%, 19.526672%)" offset="0.757812"/><stop stop-opacity="1" stop-color="rgb(96.539307%, 69.850159%, 19.500732%)" offset="0.765625"/><stop stop-opacity="1" stop-color="rgb(96.499634%, 69.606018%, 19.473267%)" offset="0.773438"/><stop stop-opacity="1" stop-color="rgb(96.459961%, 69.361877%, 19.447327%)" offset="0.78125"/><stop stop-opacity="1" stop-color="rgb(96.421814%, 69.116211%, 19.419861%)" offset="0.789062"/><stop stop-opacity="1" stop-color="rgb(96.382141%, 68.87207%, 19.393921%)" offset="0.796875"/><stop stop-opacity="1" stop-color="rgb(96.342468%, 68.62793%, 19.366455%)" offset="0.804688"/><stop stop-opacity="1" stop-color="rgb(96.304321%, 68.382263%, 19.338989%)" offset="0.8125"/><stop stop-opacity="1" stop-color="rgb(96.264648%, 68.138123%, 19.313049%)" offset="0.820312"/><stop stop-opacity="1" stop-color="rgb(96.226501%, 67.892456%, 19.285583%)" offset="0.828125"/><stop stop-opacity="1" stop-color="rgb(96.186829%, 67.648315%, 19.259644%)" offset="0.835938"/><stop stop-opacity="1" stop-color="rgb(96.147156%, 67.404175%, 19.232178%)" offset="0.84375"/><stop stop-opacity="1" stop-color="rgb(96.113586%, 67.190552%, 19.20929%)" offset="0.875"/><stop stop-opacity="1" stop-color="rgb(96.099854%, 67.098999%, 19.198608%)" offset="1"/></linearGradient><clipPath id="d36dc4d88f"><path d="M 383 265 L 503 265 L 503 351 L 383 351 Z M 383 265 " clip-rule="nonzero"/></clipPath><clipPath id="816d5b1ba2"><path d="M 399.558594 249.273438 L 514.792969 294.003906 L 486.796875 366.132812 L 371.558594 321.402344 Z M 399.558594 249.273438 " clip-rule="nonzero"/></clipPath><clipPath id="872fad2d67"><path d="M 457.078125 271.601562 C 425.308594 259.269531 393.289062 265.417969 385.558594 285.335938 C 377.824219 305.253906 397.3125 331.398438 429.078125 343.730469 C 460.847656 356.0625 492.867188 349.910156 500.597656 329.992188 C 508.332031 310.074219 488.84375 283.933594 457.078125 271.601562 Z M 457.078125 271.601562 " clip-rule="nonzero"/></clipPath><clipPath id="db16777230"><path d="M 383 269 L 502 269 L 502 334 L 383 334 Z M 383 269 " clip-rule="nonzero"/></clipPath><clipPath id="67e0e03ca6"><path d="M 390.902344 258.136719 L 507.941406 286.578125 L 493.992188 343.976562 L 376.953125 315.535156 Z M 390.902344 258.136719 " clip-rule="nonzero"/></clipPath><clipPath id="bb00b0e004"><path d="M 449.410156 272.355469 C 417.097656 264.503906 387.777344 270.988281 383.925781 286.835938 C 380.074219 302.6875 403.148438 321.902344 435.460938 329.753906 C 467.777344 337.605469 497.09375 331.125 500.945312 315.273438 C 504.796875 299.421875 481.726562 280.207031 449.410156 272.355469 Z M 449.410156 272.355469 " clip-rule="nonzero"/></clipPath><clipPath id="1e89250bae"><path d="M 384 264 L 493 264 L 493 328 L 384 328 Z M 384 264 " clip-rule="nonzero"/></clipPath><clipPath id="6757d3388a"><path d="M 392.34375 253.9375 L 499.070312 279.871094 L 485.121094 337.269531 L 378.394531 311.335938 Z M 392.34375 253.9375 " clip-rule="nonzero"/></clipPath><clipPath id="c59b68baf7"><path d="M 445.625 266.882812 C 416.199219 259.734375 389.222656 266.785156 385.371094 282.636719 C 381.519531 298.484375 402.25 317.132812 431.675781 324.28125 C 461.101562 331.433594 488.078125 324.378906 491.929688 308.53125 C 495.78125 292.679688 475.050781 274.035156 445.625 266.882812 Z M 445.625 266.882812 " clip-rule="nonzero"/></clipPath><clipPath id="dd07086348"><path d="M 392.34375 253.9375 L 498.84375 279.816406 L 484.898438 337.214844 L 378.394531 311.335938 Z M 392.34375 253.9375 " clip-rule="nonzero"/></clipPath><linearGradient x1="-5.740094" gradientTransform="matrix(0.224212, 0.0544857, -0.0544857, 0.224212, 392.3447, 253.935928)" y1="-115.365094" x2="480.997523" gradientUnits="userSpaceOnUse" y2="371.372523" id="019b906041"><stop stop-opacity="1" stop-color="rgb(99.598694%, 88.999939%, 21.598816%)" offset="0"/><stop stop-opacity="1" stop-color="rgb(99.597168%, 88.993835%, 21.59729%)" offset="0.125"/><stop stop-opacity="1" stop-color="rgb(99.572754%, 88.850403%, 21.575928%)" offset="0.140625"/><stop stop-opacity="1" stop-color="rgb(99.525452%, 88.572693%, 21.534729%)" offset="0.15625"/><stop stop-opacity="1" stop-color="rgb(99.476624%, 88.296509%, 21.49353%)" offset="0.171875"/><stop stop-opacity="1" stop-color="rgb(99.429321%, 88.020325%, 21.450806%)" offset="0.1875"/><stop stop-opacity="1" stop-color="rgb(99.382019%, 87.742615%, 21.409607%)" offset="0.203125"/><stop stop-opacity="1" stop-color="rgb(99.333191%, 87.466431%, 21.368408%)" offset="0.21875"/><stop stop-opacity="1" stop-color="rgb(99.285889%, 87.190247%, 21.327209%)" offset="0.234375"/><stop stop-opacity="1" stop-color="rgb(99.238586%, 86.912537%, 21.284485%)" offset="0.25"/><stop stop-opacity="1" stop-color="rgb(99.189758%, 86.636353%, 21.243286%)" offset="0.265625"/><stop stop-opacity="1" stop-color="rgb(99.142456%, 86.360168%, 21.202087%)" offset="0.28125"/><stop stop-opacity="1" stop-color="rgb(99.095154%, 86.083984%, 21.160889%)" offset="0.296875"/><stop stop-opacity="1" stop-color="rgb(99.046326%, 85.806274%, 21.118164%)" offset="0.3125"/><stop stop-opacity="1" stop-color="rgb(98.999023%, 85.53009%, 21.076965%)" offset="0.328125"/><stop stop-opacity="1" stop-color="rgb(98.951721%, 85.253906%, 21.035767%)" offset="0.34375"/><stop stop-opacity="1" stop-color="rgb(98.902893%, 84.976196%, 20.994568%)" offset="0.359375"/><stop stop-opacity="1" stop-color="rgb(98.855591%, 84.700012%, 20.951843%)" offset="0.375"/><stop stop-opacity="1" stop-color="rgb(98.808289%, 84.423828%, 20.910645%)" offset="0.390625"/><stop stop-opacity="1" stop-color="rgb(98.75946%, 84.146118%, 20.869446%)" offset="0.40625"/><stop stop-opacity="1" stop-color="rgb(98.712158%, 83.869934%, 20.826721%)" offset="0.421875"/><stop stop-opacity="1" stop-color="rgb(98.66333%, 83.59375%, 20.785522%)" offset="0.430306"/><stop stop-opacity="1" stop-color="rgb(98.640442%, 83.456421%, 20.765686%)" offset="0.4375"/><stop stop-opacity="1" stop-color="rgb(98.616028%, 83.317566%, 20.744324%)" offset="0.453125"/><stop stop-opacity="1" stop-color="rgb(98.568726%, 83.039856%, 20.703125%)" offset="0.46875"/><stop stop-opacity="1" stop-color="rgb(98.519897%, 82.763672%, 20.6604%)" offset="0.484375"/><stop stop-opacity="1" stop-color="rgb(98.472595%, 82.487488%, 20.619202%)" offset="0.5"/><stop stop-opacity="1" stop-color="rgb(98.425293%, 82.209778%, 20.578003%)" offset="0.515625"/><stop stop-opacity="1" stop-color="rgb(98.376465%, 81.933594%, 20.536804%)" offset="0.53125"/><stop stop-opacity="1" stop-color="rgb(98.329163%, 81.65741%, 20.49408%)" offset="0.546875"/><stop stop-opacity="1" stop-color="rgb(98.28186%, 81.3797%, 20.452881%)" offset="0.5625"/><stop stop-opacity="1" stop-color="rgb(98.233032%, 81.103516%, 20.411682%)" offset="0.569694"/><stop stop-opacity="1" stop-color="rgb(98.210144%, 80.966187%, 20.391846%)" offset="0.578125"/><stop stop-opacity="1" stop-color="rgb(98.18573%, 80.827332%, 20.370483%)" offset="0.59375"/><stop stop-opacity="1" stop-color="rgb(98.138428%, 80.549622%, 20.327759%)" offset="0.609375"/><stop stop-opacity="1" stop-color="rgb(98.0896%, 80.273438%, 20.28656%)" offset="0.625"/><stop stop-opacity="1" stop-color="rgb(98.042297%, 79.997253%, 20.245361%)" offset="0.640625"/><stop stop-opacity="1" stop-color="rgb(97.993469%, 79.721069%, 20.204163%)" offset="0.65625"/><stop stop-opacity="1" stop-color="rgb(97.946167%, 79.443359%, 20.161438%)" offset="0.671875"/><stop stop-opacity="1" stop-color="rgb(97.898865%, 79.167175%, 20.120239%)" offset="0.6875"/><stop stop-opacity="1" stop-color="rgb(97.850037%, 78.890991%, 20.079041%)" offset="0.703125"/><stop stop-opacity="1" stop-color="rgb(97.802734%, 78.613281%, 20.036316%)" offset="0.71875"/><stop stop-opacity="1" stop-color="rgb(97.755432%, 78.337097%, 19.995117%)" offset="0.734375"/><stop stop-opacity="1" stop-color="rgb(97.706604%, 78.060913%, 19.953918%)" offset="0.75"/><stop stop-opacity="1" stop-color="rgb(97.659302%, 77.783203%, 19.91272%)" offset="0.765625"/><stop stop-opacity="1" stop-color="rgb(97.612%, 77.507019%, 19.869995%)" offset="0.78125"/><stop stop-opacity="1" stop-color="rgb(97.563171%, 77.230835%, 19.828796%)" offset="0.796875"/><stop stop-opacity="1" stop-color="rgb(97.515869%, 76.954651%, 19.787598%)" offset="0.8125"/><stop stop-opacity="1" stop-color="rgb(97.468567%, 76.676941%, 19.746399%)" offset="0.828125"/><stop stop-opacity="1" stop-color="rgb(97.419739%, 76.400757%, 19.703674%)" offset="0.84375"/><stop stop-opacity="1" stop-color="rgb(97.372437%, 76.124573%, 19.662476%)" offset="0.859375"/><stop stop-opacity="1" stop-color="rgb(97.325134%, 75.846863%, 19.621277%)" offset="0.875"/><stop stop-opacity="1" stop-color="rgb(97.299194%, 75.70343%, 19.599915%)" offset="1"/></linearGradient><clipPath id="f704d842f2"><path d="M 417 268 L 442 268 L 442 280 L 417 280 Z M 417 268 " clip-rule="nonzero"/></clipPath><clipPath id="75d0619d2b"><path d="M 427.386719 288.945312 L 416.203125 273.1875 L 432.46875 261.640625 L 443.652344 277.398438 Z M 427.386719 288.945312 " clip-rule="nonzero"/></clipPath><clipPath id="5f20d39e86"><path d="M 427.386719 288.945312 L 416.203125 273.1875 L 432.46875 261.640625 L 443.652344 277.398438 Z M 427.386719 288.945312 " clip-rule="nonzero"/></clipPath><clipPath id="5d18946029"><path d="M 406.210938 273.949219 L 413.246094 273.949219 L 413.246094 280.984375 L 406.210938 280.984375 Z M 406.210938 273.949219 " clip-rule="nonzero"/></clipPath><clipPath id="4507367e9c"><path d="M 409.726562 273.949219 C 407.785156 273.949219 406.210938 275.523438 406.210938 277.464844 C 406.210938 279.410156 407.785156 280.984375 409.726562 280.984375 C 411.671875 280.984375 413.246094 279.410156 413.246094 277.464844 C 413.246094 275.523438 411.671875 273.949219 409.726562 273.949219 Z M 409.726562 273.949219 " clip-rule="nonzero"/></clipPath><clipPath id="b2e57ec2e7"><path d="M 396 369 L 416 369 L 416 381 L 396 381 Z M 396 369 " clip-rule="nonzero"/></clipPath><clipPath id="14439499d1"><path d="M 397.5 367.730469 L 416.058594 370.796875 L 414.207031 382.003906 L 395.648438 378.9375 Z M 397.5 367.730469 " clip-rule="nonzero"/></clipPath><clipPath id="48de833d2b"><path d="M 406.761719 369.261719 C 401.644531 368.417969 397.085938 370.238281 396.574219 373.335938 C 396.0625 376.429688 399.792969 379.625 404.910156 380.46875 C 410.027344 381.3125 414.585938 379.492188 415.097656 376.394531 C 415.609375 373.300781 411.878906 370.105469 406.761719 369.261719 Z M 406.761719 369.261719 " clip-rule="nonzero"/></clipPath><clipPath id="82b1acff64"><path d="M 413 384 L 440 384 L 440 392 L 413 392 Z M 413 384 " clip-rule="nonzero"/></clipPath><clipPath id="01e9bbdb62"><path d="M 413.445312 385.390625 L 439.804688 384.078125 L 440.121094 390.445312 L 413.761719 391.757812 Z M 413.445312 385.390625 " clip-rule="nonzero"/></clipPath><clipPath id="dc0747c77c"><path d="M 426.617188 384.734375 C 419.34375 385.097656 413.515625 386.816406 413.605469 388.574219 C 413.691406 390.332031 419.660156 391.464844 426.933594 391.101562 C 434.210938 390.738281 440.035156 389.019531 439.949219 387.261719 C 439.863281 385.503906 433.894531 384.375 426.617188 384.734375 Z M 426.617188 384.734375 " clip-rule="nonzero"/></clipPath><clipPath id="f8c0d51b15"><path d="M 393 390 L 405 390 L 405 403 L 393 403 Z M 393 390 " clip-rule="nonzero"/></clipPath><clipPath id="e1f7a57d28"><path d="M 394.921875 390.105469 L 405.71875 391.886719 L 403.867188 403.109375 L 393.070312 401.324219 Z M 394.921875 390.105469 " clip-rule="nonzero"/></clipPath><clipPath id="216e06af78"><path d="M 400.320312 390.996094 C 397.339844 390.503906 394.507812 392.613281 393.996094 395.707031 C 393.484375 398.800781 395.488281 401.710938 398.46875 402.203125 C 401.449219 402.695312 404.28125 400.585938 404.792969 397.492188 C 405.304688 394.398438 403.304688 391.488281 400.320312 390.996094 Z M 400.320312 390.996094 " clip-rule="nonzero"/></clipPath><clipPath id="ff2626714b"><path d="M 432 369 L 440 369 L 440 376 L 432 376 Z M 432 369 " clip-rule="nonzero"/></clipPath><clipPath id="43624f6aa7"><path d="M 433.382812 368.835938 L 439.558594 369.859375 L 438.496094 376.273438 L 432.324219 375.253906 Z M 433.382812 368.835938 " clip-rule="nonzero"/></clipPath><clipPath id="7ef77b9bdb"><path d="M 436.46875 369.347656 C 434.765625 369.066406 433.148438 370.273438 432.855469 372.042969 C 432.5625 373.8125 433.707031 375.472656 435.410156 375.753906 C 437.117188 376.035156 438.734375 374.832031 439.027344 373.0625 C 439.320312 371.292969 438.175781 369.628906 436.46875 369.347656 Z M 436.46875 369.347656 " clip-rule="nonzero"/></clipPath><clipPath id="dde36fb1be"><path d="M 322 310 L 340 310 L 340 325 L 322 325 Z M 322 310 " clip-rule="nonzero"/></clipPath><clipPath id="f523b1778b"><path d="M 335.566406 327.480469 L 320.042969 316.851562 L 326.464844 307.480469 L 341.984375 318.109375 Z M 335.566406 327.480469 " clip-rule="nonzero"/></clipPath><clipPath id="c1dd8fd3a7"><path d="M 327.820312 322.175781 C 332.097656 325.105469 337.003906 325.382812 338.773438 322.796875 C 340.546875 320.207031 338.515625 315.734375 334.238281 312.804688 C 329.960938 309.875 325.054688 309.597656 323.28125 312.183594 C 321.511719 314.773438 323.542969 319.246094 327.820312 322.175781 Z M 327.820312 322.175781 " clip-rule="nonzero"/></clipPath><clipPath id="a7f0696889"><path d="M 305 291 L 330 291 L 330 303 L 305 303 Z M 305 291 " clip-rule="nonzero"/></clipPath><clipPath id="5fc399bae2"><path d="M 328.585938 304.734375 L 304.148438 294.773438 L 306.554688 288.871094 L 330.992188 298.835938 Z M 328.585938 304.734375 " clip-rule="nonzero"/></clipPath><clipPath id="3526130395"><path d="M 316.375 299.757812 C 323.121094 302.507812 329.125 303.414062 329.789062 301.785156 C 330.453125 300.15625 325.527344 296.605469 318.78125 293.855469 C 312.035156 291.105469 306.027344 290.199219 305.363281 291.828125 C 304.699219 293.457031 309.628906 297.007812 316.375 299.757812 Z M 316.375 299.757812 " clip-rule="nonzero"/></clipPath><clipPath id="8e8b0de23e"><path d="M 340 294 L 352 294 L 352 307 L 340 307 Z M 340 294 " clip-rule="nonzero"/></clipPath><clipPath id="5e4edb147d"><path d="M 347.367188 308.304688 L 338.339844 302.117188 L 344.765625 292.738281 L 353.796875 298.921875 Z M 347.367188 308.304688 " clip-rule="nonzero"/></clipPath><clipPath id="4b00bf1a26"><path d="M 342.855469 305.210938 C 345.347656 306.917969 348.804688 306.203125 350.578125 303.617188 C 352.351562 301.03125 351.765625 297.546875 349.273438 295.839844 C 346.78125 294.132812 343.320312 294.84375 341.550781 297.433594 C 339.777344 300.019531 340.359375 303.503906 342.855469 305.210938 Z M 342.855469 305.210938 " clip-rule="nonzero"/></clipPath><clipPath id="3b54f0fc11"><path d="M 299 303 L 306 303 L 306 311 L 299 311 Z M 299 303 " clip-rule="nonzero"/></clipPath><clipPath id="492ee24272"><path d="M 303.519531 311.304688 L 298.355469 307.769531 L 302.03125 302.40625 L 307.191406 305.941406 Z M 303.519531 311.304688 " clip-rule="nonzero"/></clipPath><clipPath id="c5300a9f31"><path d="M 300.9375 309.535156 C 302.363281 310.511719 304.339844 310.105469 305.351562 308.625 C 306.367188 307.144531 306.03125 305.15625 304.605469 304.179688 C 303.179688 303.203125 301.203125 303.609375 300.191406 305.089844 C 299.175781 306.570312 299.511719 308.5625 300.9375 309.535156 Z M 300.9375 309.535156 " clip-rule="nonzero"/></clipPath><clipPath id="0acf14fe24"><path d="M 533 360 L 558 360 L 558 373 L 533 373 Z M 533 360 " clip-rule="nonzero"/></clipPath><clipPath id="2289e477fa"><path d="M 558.707031 364.125 L 534.535156 374.710938 L 531.976562 368.871094 L 556.152344 358.289062 Z M 558.707031 364.125 " clip-rule="nonzero"/></clipPath><clipPath id="da185c8a24"><path d="M 546.628906 369.414062 C 553.300781 366.496094 558.136719 362.820312 557.429688 361.207031 C 556.722656 359.59375 550.742188 360.65625 544.070312 363.578125 C 537.398438 366.5 532.5625 370.175781 533.265625 371.785156 C 533.972656 373.398438 539.953125 372.335938 546.628906 369.414062 Z M 546.628906 369.414062 " clip-rule="nonzero"/></clipPath><clipPath id="69423f50b2"><path d="M 539 380 L 546 380 L 546 388 L 539 388 Z M 539 380 " clip-rule="nonzero"/></clipPath><clipPath id="004fa93b95"><path d="M 545.945312 386.683594 L 539.8125 387.921875 L 538.527344 381.550781 L 544.660156 380.3125 Z M 545.945312 386.683594 " clip-rule="nonzero"/></clipPath><clipPath id="fb46af8de8"><path d="M 542.878906 387.304688 C 544.574219 386.960938 545.660156 385.257812 545.304688 383.5 C 544.949219 381.742188 543.289062 380.597656 541.59375 380.9375 C 539.902344 381.28125 538.816406 382.980469 539.171875 384.738281 C 539.527344 386.496094 541.1875 387.644531 542.878906 387.304688 Z M 542.878906 387.304688 " clip-rule="nonzero"/></clipPath></defs><g clip-path="url(#06a003f60b)"><g clip-path="url(#a2618f7969)"><path fill="#f8c038" d="M 246.289062 235.003906 L 564.542969 235.003906 L 564.542969 540.148438 L 246.289062 540.148438 Z M 246.289062 235.003906 " fill-opacity="1" fill-rule="nonzero"/></g></g><g clip-path="url(#5f64d5b91c)"><g clip-path="url(#6513cbfa6e)"><g clip-path="url(#aa248a761b)"><path fill="#f8c038" d="M 604.40625 430.203125 L 606.445312 483.367188 L 563.648438 485.007812 L 561.609375 431.84375 Z M 604.40625 430.203125 " fill-opacity="1" fill-rule="nonzero"/></g></g></g><g clip-path="url(#df4c7f32ea)"><g clip-path="url(#074f95d8ca)"><g clip-path="url(#afe3d0201c)"><path fill="#f09020" d="M 507.3125 585.339844 L 436.355469 605.121094 L 423.132812 557.691406 L 494.089844 537.910156 Z M 507.3125 585.339844 " fill-opacity="1" fill-rule="nonzero"/></g></g></g><g clip-path="url(#9f0d4b1c93)"><g clip-path="url(#49a4b28f0b)"><g clip-path="url(#ad47b230df)"><path fill="#f09020" d="M 514.390625 604.75 L 442.996094 586.617188 L 455.117188 538.894531 L 526.511719 557.03125 Z M 514.390625 604.75 " fill-opacity="1" fill-rule="nonzero"/></g></g></g><g clip-path="url(#e092cb5e5a)"><g clip-path="url(#32240f3a2e)"><g clip-path="url(#f7595c0494)"><path fill="#f09020" d="M 380.320312 584.945312 L 309.480469 605.144531 L 295.980469 557.796875 L 366.816406 537.597656 Z M 380.320312 584.945312 " fill-opacity="1" fill-rule="nonzero"/></g></g></g><g clip-path="url(#8337102519)"><g clip-path="url(#2986d767bf)"><g clip-path="url(#da3384eea7)"><path fill="#f09020" d="M 387.511719 604.3125 L 316.011719 586.601562 L 327.851562 538.8125 L 399.351562 556.523438 Z M 387.511719 604.3125 " fill-opacity="1" fill-rule="nonzero"/></g></g></g><g clip-path="url(#4dac35b696)"><g clip-path="url(#17dea8fd4c)"><path fill="#fddc66" d="M 299.09375 340.582031 L 517.09375 340.582031 L 517.09375 526.605469 L 299.09375 526.605469 Z M 299.09375 340.582031 " fill-opacity="1" fill-rule="nonzero"/></g></g><g clip-path="url(#c581cc68f4)"><g clip-path="url(#5b35ddedbf)"><path fill="#ffffff" d="M 324.453125 293.59375 L 397.773438 293.59375 L 397.773438 387.535156 L 324.453125 387.535156 Z M 324.453125 293.59375 " fill-opacity="1" fill-rule="nonzero"/></g></g><g clip-path="url(#ac45b28e18)"><g clip-path="url(#daa97ff36c)"><path fill="#ffffff" d="M 413.660156 293.59375 L 486.980469 293.59375 L 486.980469 387.535156 L 413.660156 387.535156 Z M 413.660156 293.59375 " fill-opacity="1" fill-rule="nonzero"/></g></g><g clip-path="url(#7505d162ad)"><g clip-path="url(#447ab695dd)"><path fill="#4b4b4b" d="M 429.359375 312.703125 L 471.28125 312.703125 L 471.28125 370.511719 L 429.359375 370.511719 Z M 429.359375 312.703125 " fill-opacity="1" fill-rule="nonzero"/></g></g><g clip-path="url(#7eeeeae422)"><g clip-path="url(#8e54862073)"><path fill="#ffffff" d="M 447 312.710938 L 465.660156 312.710938 L 465.660156 334.066406 L 447 334.066406 Z M 447 312.710938 " fill-opacity="1" fill-rule="nonzero"/></g></g><g clip-path="url(#074ebd296d)"><g clip-path="url(#8020e967c9)"><path fill="#4b4b4b" d="M 338.8125 311.667969 L 380.734375 311.667969 L 380.734375 369.476562 L 338.8125 369.476562 Z M 338.8125 311.667969 " fill-opacity="1" fill-rule="nonzero"/></g></g><g clip-path="url(#cdf13e663c)"><g clip-path="url(#7ae4393929)"><path fill="#ffffff" d="M 358.289062 311.675781 L 376.949219 311.675781 L 376.949219 333.03125 L 358.289062 333.03125 Z M 358.289062 311.675781 " fill-opacity="1" fill-rule="nonzero"/></g></g><g clip-path="url(#a53b7c29ba)"><path fill="#f86018" d="M 433.496094 386.914062 C 433.496094 387.816406 433.453125 388.71875 433.363281 389.621094 C 433.273438 390.519531 433.140625 391.414062 432.964844 392.300781 C 432.789062 393.1875 432.570312 394.0625 432.304688 394.929688 C 432.042969 395.792969 431.738281 396.644531 431.394531 397.480469 C 431.046875 398.316406 430.660156 399.132812 430.234375 399.929688 C 429.808594 400.726562 429.34375 401.503906 428.839844 402.253906 C 428.339844 403.007812 427.800781 403.734375 427.226562 404.433594 C 426.652344 405.132812 426.046875 405.800781 425.40625 406.441406 C 424.769531 407.078125 424.097656 407.6875 423.398438 408.261719 C 422.699219 408.832031 421.972656 409.371094 421.222656 409.875 C 420.46875 410.378906 419.695312 410.839844 418.898438 411.269531 C 418.101562 411.695312 417.285156 412.082031 416.449219 412.425781 C 415.613281 412.773438 414.761719 413.078125 413.894531 413.339844 C 413.03125 413.601562 412.15625 413.820312 411.265625 413.996094 C 410.378906 414.175781 409.488281 414.308594 408.585938 414.394531 C 407.6875 414.484375 406.785156 414.527344 405.878906 414.527344 C 404.976562 414.527344 404.074219 414.484375 403.171875 414.394531 C 402.273438 414.308594 401.378906 414.175781 400.492188 413.996094 C 399.605469 413.820312 398.730469 413.601562 397.863281 413.339844 C 396.996094 413.078125 396.148438 412.773438 395.3125 412.425781 C 394.476562 412.082031 393.660156 411.695312 392.863281 411.269531 C 392.0625 410.839844 391.289062 410.378906 390.539062 409.875 C 389.785156 409.371094 389.058594 408.832031 388.359375 408.261719 C 387.660156 407.6875 386.992188 407.078125 386.351562 406.441406 C 385.710938 405.800781 385.105469 405.132812 384.53125 404.433594 C 383.957031 403.734375 383.421875 403.007812 382.917969 402.253906 C 382.414062 401.503906 381.949219 400.726562 381.523438 399.929688 C 381.097656 399.132812 380.710938 398.316406 380.367188 397.480469 C 380.019531 396.644531 379.714844 395.792969 379.453125 394.929688 C 379.191406 394.0625 378.972656 393.1875 378.792969 392.300781 C 378.617188 391.414062 378.484375 390.519531 378.398438 389.621094 C 378.308594 388.71875 378.265625 387.816406 378.265625 386.914062 C 378.265625 386.007812 378.308594 385.105469 378.398438 384.207031 C 378.484375 383.304688 378.617188 382.414062 378.792969 381.523438 C 378.972656 380.636719 379.191406 379.761719 379.453125 378.894531 C 379.714844 378.03125 380.019531 377.179688 380.367188 376.34375 C 380.710938 375.507812 381.097656 374.691406 381.523438 373.894531 C 381.949219 373.097656 382.414062 372.320312 382.917969 371.570312 C 383.421875 370.816406 383.957031 370.09375 384.53125 369.394531 C 385.105469 368.695312 385.710938 368.023438 386.351562 367.386719 C 386.992188 366.746094 387.660156 366.140625 388.359375 365.566406 C 389.058594 364.992188 389.785156 364.453125 390.539062 363.949219 C 391.289062 363.449219 392.0625 362.984375 392.863281 362.558594 C 393.660156 362.132812 394.476562 361.746094 395.3125 361.398438 C 396.148438 361.054688 396.996094 360.75 397.863281 360.484375 C 398.730469 360.222656 399.605469 360.003906 400.492188 359.828125 C 401.378906 359.652344 402.273438 359.519531 403.171875 359.429688 C 404.074219 359.339844 404.976562 359.296875 405.878906 359.296875 C 406.785156 359.296875 407.6875 359.339844 408.585938 359.429688 C 409.488281 359.519531 410.378906 359.652344 411.265625 359.828125 C 412.15625 360.003906 413.03125 360.222656 413.894531 360.484375 C 414.761719 360.75 415.613281 361.054688 416.449219 361.398438 C 417.285156 361.746094 418.101562 362.132812 418.898438 362.558594 C 419.695312 362.984375 420.46875 363.449219 421.222656 363.949219 C 421.972656 364.453125 422.699219 364.992188 423.398438 365.566406 C 424.097656 366.140625 424.769531 366.746094 425.40625 367.386719 C 426.046875 368.023438 426.652344 368.695312 427.226562 369.394531 C 427.800781 370.09375 428.339844 370.816406 428.839844 371.570312 C 429.34375 372.320312 429.808594 373.097656 430.234375 373.894531 C 430.660156 374.691406 431.046875 375.507812 431.394531 376.34375 C 431.738281 377.179688 432.042969 378.03125 432.304688 378.894531 C 432.570312 379.761719 432.789062 380.636719 432.964844 381.523438 C 433.140625 382.414062 433.273438 383.304688 433.363281 384.207031 C 433.453125 385.105469 433.496094 386.007812 433.496094 386.914062 Z M 433.496094 386.914062 " fill-opacity="1" fill-rule="nonzero"/></g><g clip-path="url(#76fd4b9d94)"><path fill="#f09020" d="M 440.71875 395.613281 C 440.71875 396.761719 440.660156 397.90625 440.550781 399.046875 C 440.4375 400.1875 440.269531 401.320312 440.046875 402.441406 C 439.820312 403.566406 439.542969 404.679688 439.210938 405.773438 C 438.878906 406.871094 438.492188 407.949219 438.054688 409.007812 C 437.613281 410.070312 437.125 411.105469 436.585938 412.113281 C 436.042969 413.125 435.457031 414.109375 434.820312 415.0625 C 434.183594 416.015625 433.5 416.933594 432.773438 417.820312 C 432.046875 418.707031 431.277344 419.554688 430.464844 420.367188 C 429.65625 421.175781 428.804688 421.945312 427.921875 422.671875 C 427.035156 423.398438 426.113281 424.082031 425.160156 424.71875 C 424.207031 425.355469 423.226562 425.945312 422.214844 426.484375 C 421.203125 427.023438 420.167969 427.515625 419.109375 427.953125 C 418.050781 428.390625 416.972656 428.777344 415.875 429.109375 C 414.777344 429.441406 413.667969 429.722656 412.542969 429.945312 C 411.417969 430.167969 410.285156 430.335938 409.144531 430.449219 C 408.003906 430.5625 406.859375 430.617188 405.714844 430.617188 C 404.566406 430.617188 403.425781 430.5625 402.285156 430.449219 C 401.144531 430.335938 400.011719 430.167969 398.886719 429.945312 C 397.761719 429.722656 396.652344 429.441406 395.554688 429.109375 C 394.457031 428.777344 393.378906 428.390625 392.320312 427.953125 C 391.261719 427.515625 390.226562 427.023438 389.214844 426.484375 C 388.203125 425.945312 387.222656 425.355469 386.269531 424.71875 C 385.316406 424.082031 384.394531 423.398438 383.507812 422.671875 C 382.621094 421.945312 381.773438 421.175781 380.964844 420.367188 C 380.152344 419.554688 379.382812 418.707031 378.65625 417.820312 C 377.929688 416.933594 377.246094 416.015625 376.609375 415.0625 C 375.972656 414.109375 375.386719 413.125 374.84375 412.113281 C 374.304688 411.105469 373.8125 410.070312 373.375 409.007812 C 372.9375 407.949219 372.550781 406.871094 372.21875 405.773438 C 371.886719 404.679688 371.609375 403.566406 371.382812 402.441406 C 371.160156 401.320312 370.992188 400.1875 370.878906 399.046875 C 370.765625 397.90625 370.710938 396.761719 370.710938 395.613281 C 370.710938 394.46875 370.765625 393.324219 370.878906 392.183594 C 370.992188 391.042969 371.160156 389.910156 371.382812 388.785156 C 371.609375 387.660156 371.886719 386.550781 372.21875 385.453125 C 372.550781 384.355469 372.9375 383.277344 373.375 382.21875 C 373.8125 381.160156 374.304688 380.125 374.84375 379.113281 C 375.386719 378.101562 375.972656 377.121094 376.609375 376.167969 C 377.246094 375.214844 377.929688 374.292969 378.65625 373.410156 C 379.382812 372.523438 380.152344 371.675781 380.964844 370.863281 C 381.773438 370.050781 382.621094 369.285156 383.507812 368.554688 C 384.394531 367.828125 385.316406 367.148438 386.269531 366.511719 C 387.222656 365.875 388.203125 365.285156 389.214844 364.746094 C 390.226562 364.203125 391.261719 363.714844 392.320312 363.277344 C 393.378906 362.835938 394.457031 362.449219 395.554688 362.117188 C 396.652344 361.785156 397.761719 361.507812 398.886719 361.285156 C 400.011719 361.058594 401.144531 360.890625 402.285156 360.78125 C 403.425781 360.667969 404.566406 360.609375 405.714844 360.609375 C 406.859375 360.609375 408.003906 360.667969 409.144531 360.78125 C 410.285156 360.890625 411.417969 361.058594 412.542969 361.285156 C 413.667969 361.507812 414.777344 361.785156 415.875 362.117188 C 416.972656 362.449219 418.050781 362.835938 419.109375 363.277344 C 420.167969 363.714844 421.203125 364.203125 422.214844 364.746094 C 423.226562 365.285156 424.207031 365.875 425.160156 366.511719 C 426.113281 367.148438 427.035156 367.828125 427.921875 368.554688 C 428.804688 369.285156 429.65625 370.050781 430.464844 370.863281 C 431.277344 371.675781 432.046875 372.523438 432.773438 373.410156 C 433.5 374.292969 434.183594 375.214844 434.820312 376.167969 C 435.457031 377.121094 436.042969 378.101562 436.585938 379.113281 C 437.125 380.125 437.613281 381.160156 438.054688 382.21875 C 438.492188 383.277344 438.878906 384.355469 439.210938 385.453125 C 439.542969 386.550781 439.820312 387.660156 440.046875 388.785156 C 440.269531 389.910156 440.4375 391.042969 440.550781 392.183594 C 440.660156 393.324219 440.71875 394.46875 440.71875 395.613281 Z M 440.71875 395.613281 " fill-opacity="1" fill-rule="nonzero"/></g><g clip-path="url(#4ca0d225b9)"><g clip-path="url(#d420b327ab)"><path fill="#ffffff" d="M 414.230469 366.570312 L 428.804688 366.570312 L 428.804688 378.886719 L 414.230469 378.886719 Z M 414.230469 366.570312 " fill-opacity="1" fill-rule="nonzero"/></g></g><g clip-path="url(#66aaedeaeb)"><g clip-path="url(#1243498f80)"><path fill="#ffffff" d="M 427.019531 380.949219 L 433.292969 380.949219 L 433.292969 387.222656 L 427.019531 387.222656 Z M 427.019531 380.949219 " fill-opacity="1" fill-rule="nonzero"/></g></g><path stroke-linecap="round" transform="matrix(-0.623319, -0.0000000010879, 0.0000000010879, -0.623319, 387.835268, 388.503574)" fill="none" stroke-linejoin="miter" d="M 1.502972 1.497246 L 17.452122 1.497246 " stroke="#c8831a" stroke-width="3" stroke-opacity="1" stroke-miterlimit="4"/><path stroke-linecap="round" transform="matrix(-0.623319, -0.0000000010879, 0.0000000010879, -0.623319, 387.835501, 381.901818)" fill="none" stroke-linejoin="miter" d="M 1.497078 1.496935 L 10.502551 1.496935 " stroke="#c8831a" stroke-width="3" stroke-opacity="1" stroke-miterlimit="4"/><path stroke-linecap="round" transform="matrix(-0.623319, -0.0000000010879, 0.0000000010879, -0.623319, 387.835532, 375.797989)" fill="none" stroke-linejoin="miter" d="M 1.497128 1.499566 L 5.457782 1.499566 " stroke="#c8831a" stroke-width="3" stroke-opacity="1" stroke-miterlimit="4"/><g clip-path="url(#354595a9a9)"><g clip-path="url(#de3f4be245)"><g clip-path="url(#29200d254a)"><g clip-path="url(#ff963debed)"><path fill="#39b54a" d="M 489.6875 236.539062 C 490.015625 233.847656 491.085938 228.863281 495.0625 225.199219 C 501.582031 219.191406 513.394531 219.074219 523.507812 225.921875 C 519.664062 235.667969 511.3125 242.011719 502.644531 241.9375 C 496.800781 241.886719 492.453125 238.9375 490.484375 237.378906 C 493.65625 237 497.375 236.304688 501.425781 235.042969 C 507.679688 233.089844 512.652344 230.425781 516.273438 228.101562 C 511.886719 230.054688 506.851562 231.996094 501.207031 233.683594 C 497.132812 234.902344 493.273438 235.828125 489.6875 236.539062 Z M 489.6875 236.539062 " fill-opacity="1" fill-rule="nonzero"/></g></g></g></g><g clip-path="url(#be8f35e399)"><g clip-path="url(#6ff58d0f45)"><g clip-path="url(#c66590396a)"><g clip-path="url(#fca0696c57)"><path fill="#39b54a" d="M 486.746094 235.128906 C 484.816406 234.660156 481.273438 233.460938 478.949219 230.253906 C 475.136719 224.988281 476.074219 216.351562 481.945312 209.539062 C 488.710938 213.164062 492.609375 219.789062 491.800781 226.117188 C 491.257812 230.378906 488.734375 233.308594 487.429688 234.613281 C 487.425781 232.265625 487.242188 229.492188 486.671875 226.429688 C 485.792969 221.699219 484.285156 217.84375 482.902344 215.003906 C 483.945312 218.371094 484.921875 222.210938 485.664062 226.476562 C 486.199219 229.550781 486.539062 232.449219 486.746094 235.128906 Z M 486.746094 235.128906 " fill-opacity="1" fill-rule="nonzero"/></g></g></g></g><g clip-path="url(#9f0096442e)"><g clip-path="url(#f2dd529ce0)"><g clip-path="url(#4f3e312f36)"><path fill="#f8c038" d="M 211.835938 485.496094 L 210.023438 432.320312 L 252.832031 430.863281 L 254.640625 484.035156 Z M 211.835938 485.496094 " fill-opacity="1" fill-rule="nonzero"/></g></g></g><g clip-path="url(#85876697f8)"><g clip-path="url(#ff86234cda)"><g clip-path="url(#9d37e784a3)"><path fill="#fdf4e8" d="M 388.550781 406.710938 L 408.578125 359.703125 L 564.65625 426.199219 L 544.628906 473.207031 Z M 388.550781 406.710938 " fill-opacity="1" fill-rule="nonzero"/></g></g></g><g clip-path="url(#609f24c5f7)"><g clip-path="url(#dbd348cb53)"><g clip-path="url(#4de32b976a)"><path fill="#fdf4e8" d="M 552.566406 457.261719 C 551.496094 459.664062 550.363281 462.035156 549.175781 464.382812 C 547.984375 466.726562 546.738281 469.039062 545.4375 471.324219 C 544.132812 473.609375 542.777344 475.859375 541.363281 478.074219 C 539.949219 480.292969 538.484375 482.472656 536.960938 484.617188 C 535.441406 486.765625 533.871094 488.871094 532.246094 490.9375 C 530.621094 493.007812 528.949219 495.03125 527.226562 497.019531 C 525.503906 499.003906 523.730469 500.945312 521.914062 502.84375 C 520.09375 504.742188 518.230469 506.597656 516.320312 508.402344 C 514.410156 510.210938 512.457031 511.96875 510.460938 513.683594 C 508.464844 515.394531 506.429688 517.054688 504.351562 518.664062 C 502.273438 520.277344 500.160156 521.835938 498.003906 523.34375 C 495.851562 524.851562 493.660156 526.304688 491.4375 527.703125 C 489.210938 529.105469 486.953125 530.449219 484.660156 531.738281 C 482.367188 533.027344 480.046875 534.257812 477.695312 535.433594 C 475.34375 536.609375 472.964844 537.726562 470.558594 538.785156 C 468.148438 539.84375 465.71875 540.839844 463.261719 541.78125 C 460.808594 542.71875 458.328125 543.597656 455.832031 544.414062 C 453.332031 545.230469 450.816406 545.988281 448.277344 546.679688 C 445.742188 547.375 443.191406 548.003906 440.625 548.574219 C 438.058594 549.140625 435.476562 549.648438 432.886719 550.089844 C 430.292969 550.53125 427.691406 550.910156 425.082031 551.222656 C 422.472656 551.535156 419.855469 551.785156 417.234375 551.972656 C 414.609375 552.15625 411.984375 552.277344 409.355469 552.335938 C 406.726562 552.390625 404.097656 552.382812 401.472656 552.3125 C 398.84375 552.238281 396.21875 552.101562 393.597656 551.902344 C 390.976562 551.699219 388.359375 551.433594 385.753906 551.105469 C 383.144531 550.777344 380.542969 550.382812 377.957031 549.925781 C 375.367188 549.46875 372.789062 548.945312 370.226562 548.363281 C 367.664062 547.78125 365.117188 547.132812 362.582031 546.425781 C 360.050781 545.714844 357.539062 544.945312 355.046875 544.113281 C 352.550781 543.28125 350.078125 542.386719 347.628906 541.433594 C 345.179688 540.480469 342.753906 539.46875 340.351562 538.394531 C 337.953125 537.324219 335.578125 536.191406 333.234375 535.003906 C 330.890625 533.8125 328.574219 532.566406 326.292969 531.265625 C 324.007812 529.960938 321.757812 528.605469 319.539062 527.191406 C 317.324219 525.777344 315.144531 524.3125 312.996094 522.789062 C 310.851562 521.269531 308.746094 519.699219 306.679688 518.074219 C 304.609375 516.449219 302.582031 514.777344 300.597656 513.054688 C 298.613281 511.332031 296.671875 509.558594 294.773438 507.742188 C 292.871094 505.921875 291.019531 504.058594 289.210938 502.148438 C 287.40625 500.238281 285.644531 498.285156 283.933594 496.289062 C 282.222656 494.292969 280.5625 492.257812 278.949219 490.179688 C 277.339844 488.101562 275.78125 485.988281 274.273438 483.832031 C 272.765625 481.679688 271.3125 479.488281 269.910156 477.265625 C 268.511719 475.039062 267.167969 472.78125 265.878906 470.488281 C 264.589844 468.195312 263.355469 465.875 262.183594 463.523438 C 261.007812 461.171875 259.890625 458.792969 258.832031 456.386719 C 257.773438 453.976562 256.773438 451.546875 255.835938 449.089844 C 254.898438 446.636719 254.019531 444.15625 253.203125 441.660156 C 252.382812 439.160156 251.628906 436.644531 250.933594 434.105469 C 250.242188 431.570312 249.609375 429.019531 249.042969 426.453125 C 248.472656 423.886719 247.96875 421.304688 247.527344 418.714844 C 247.085938 416.121094 246.707031 413.519531 246.394531 410.910156 C 246.078125 408.300781 245.828125 405.683594 245.644531 403.0625 C 245.457031 400.4375 245.335938 397.8125 245.28125 395.183594 C 245.222656 392.554688 245.230469 389.925781 245.304688 387.300781 C 245.375 384.671875 245.511719 382.046875 245.714844 379.425781 C 245.917969 376.804688 246.179688 374.1875 246.511719 371.582031 C 246.839844 368.972656 247.234375 366.371094 247.691406 363.785156 C 248.148438 361.195312 248.667969 358.617188 249.253906 356.054688 C 249.835938 353.492188 250.484375 350.945312 251.191406 348.410156 C 251.902344 345.878906 252.671875 343.367188 253.503906 340.875 C 254.335938 338.378906 255.226562 335.90625 256.183594 333.457031 C 257.136719 331.007812 258.148438 328.582031 259.222656 326.179688 C 260.292969 323.78125 261.425781 321.40625 262.613281 319.0625 C 263.804688 316.71875 265.046875 314.402344 266.351562 312.121094 C 267.65625 309.835938 269.011719 307.585938 270.425781 305.367188 C 271.839844 303.152344 273.304688 300.972656 274.824219 298.824219 C 276.347656 296.679688 277.917969 294.574219 279.542969 292.507812 C 281.164062 290.4375 282.839844 288.410156 284.5625 286.425781 C 286.285156 284.441406 288.054688 282.5 289.875 280.601562 C 291.695312 278.699219 293.558594 276.847656 295.46875 275.039062 C 297.378906 273.234375 299.328125 271.472656 301.324219 269.761719 C 303.320312 268.050781 305.359375 266.390625 307.4375 264.777344 C 309.511719 263.167969 311.628906 261.609375 313.785156 260.101562 C 315.9375 258.59375 318.128906 257.140625 320.351562 255.738281 C 322.578125 254.339844 324.835938 252.996094 327.128906 251.707031 C 329.417969 250.417969 331.742188 249.183594 334.09375 248.011719 C 336.445312 246.835938 338.824219 245.71875 341.230469 244.660156 C 343.636719 243.601562 346.070312 242.601562 348.523438 241.664062 C 350.980469 240.726562 353.457031 239.847656 355.957031 239.03125 C 358.457031 238.210938 360.972656 237.457031 363.511719 236.761719 C 366.046875 236.070312 368.597656 235.4375 371.164062 234.871094 C 373.730469 234.300781 376.3125 233.796875 378.902344 233.355469 C 381.496094 232.914062 384.09375 232.535156 386.707031 232.222656 C 389.316406 231.90625 391.933594 231.65625 394.554688 231.472656 C 397.179688 231.285156 399.804688 231.164062 402.433594 231.109375 C 405.058594 231.050781 407.6875 231.058594 410.316406 231.132812 C 412.945312 231.203125 415.570312 231.339844 418.191406 231.542969 C 420.8125 231.746094 423.429688 232.007812 426.035156 232.339844 C 428.644531 232.667969 431.242188 233.0625 433.832031 233.519531 C 436.421875 233.976562 438.996094 234.496094 441.5625 235.082031 C 444.125 235.664062 446.671875 236.3125 449.203125 237.019531 C 451.738281 237.730469 454.25 238.5 456.742188 239.332031 C 459.238281 240.164062 461.710938 241.054688 464.160156 242.011719 C 466.609375 242.964844 469.035156 243.976562 471.433594 245.050781 C 473.835938 246.121094 476.207031 247.253906 478.554688 248.441406 C 480.898438 249.632812 483.210938 250.878906 485.496094 252.179688 C 487.78125 253.484375 490.03125 254.839844 492.246094 256.253906 C 494.464844 257.667969 496.644531 259.132812 498.789062 260.652344 C 500.9375 262.175781 503.042969 263.746094 505.109375 265.371094 C 507.179688 266.992188 509.203125 268.667969 511.191406 270.390625 C 513.175781 272.113281 515.117188 273.882812 517.015625 275.703125 C 518.914062 277.523438 520.769531 279.386719 522.574219 281.296875 C 524.382812 283.207031 526.140625 285.15625 527.855469 287.152344 C 529.566406 289.148438 531.226562 291.1875 532.835938 293.265625 C 534.449219 295.339844 536.007812 297.457031 537.515625 299.613281 C 539.023438 301.765625 540.476562 303.957031 541.875 306.179688 C 543.277344 308.40625 544.621094 310.664062 545.910156 312.957031 C 547.199219 315.246094 548.429688 317.570312 549.605469 319.921875 C 550.78125 322.273438 551.898438 324.652344 552.957031 327.058594 C 554.015625 329.464844 555.011719 331.898438 555.953125 334.351562 C 556.890625 336.808594 557.769531 339.285156 558.585938 341.785156 C 559.402344 344.285156 560.160156 346.800781 560.851562 349.339844 C 561.546875 351.875 562.175781 354.425781 562.746094 356.992188 C 563.3125 359.558594 563.820312 362.140625 564.261719 364.730469 C 564.703125 367.324219 565.082031 369.921875 565.394531 372.535156 C 565.707031 375.144531 565.957031 377.761719 566.144531 380.382812 C 566.328125 383.007812 566.449219 385.632812 566.507812 388.261719 C 566.5625 390.886719 566.554688 393.515625 566.484375 396.144531 C 566.410156 398.773438 566.273438 401.398438 566.074219 404.019531 C 565.871094 406.640625 565.605469 409.257812 565.277344 411.863281 C 564.949219 414.472656 564.554688 417.070312 564.097656 419.660156 C 563.640625 422.25 563.121094 424.828125 562.535156 427.390625 C 561.953125 429.953125 561.304688 432.5 560.597656 435.03125 C 559.886719 437.566406 559.117188 440.078125 558.285156 442.570312 C 557.453125 445.066406 556.558594 447.539062 555.605469 449.988281 C 554.652344 452.4375 553.640625 454.863281 552.566406 457.261719 Z M 552.566406 457.261719 " fill-opacity="1" fill-rule="nonzero"/></g></g></g><g clip-path="url(#7490387eab)"><g clip-path="url(#b2718454c9)"><g clip-path="url(#c38564a316)"><g clip-path="url(#79fc4bf55a)"><path fill="#fdf4e8" d="M 201.980469 413.996094 L 451.316406 520.226562 L 536.988281 319.132812 L 287.65625 212.90625 Z M 201.980469 413.996094 " fill-opacity="1" fill-rule="nonzero"/></g></g></g></g><g clip-path="url(#e51fe12581)"><g clip-path="url(#079c4ccfa2)"><g clip-path="url(#f6d5d9460b)"><g clip-path="url(#f8cdb2aed8)"><path fill="url(#8c2209d80d)" d="M 388.300781 215.054688 L 342.066406 349.394531 L 498.789062 403.335938 L 545.027344 268.996094 Z M 388.300781 215.054688 " fill-rule="nonzero"/></g></g></g></g><g clip-path="url(#d36dc4d88f)"><g clip-path="url(#816d5b1ba2)"><g clip-path="url(#872fad2d67)"><path fill="#fcda65" d="M 399.558594 249.273438 L 514.511719 293.894531 L 486.515625 366.023438 L 371.558594 321.402344 Z M 399.558594 249.273438 " fill-opacity="1" fill-rule="nonzero"/></g></g></g><g clip-path="url(#db16777230)"><g clip-path="url(#67e0e03ca6)"><g clip-path="url(#bb00b0e004)"><path fill="#f8c132" d="M 390.902344 258.136719 L 507.941406 286.578125 L 493.992188 343.976562 L 376.953125 315.535156 Z M 390.902344 258.136719 " fill-opacity="1" fill-rule="nonzero"/></g></g></g><g clip-path="url(#1e89250bae)"><g clip-path="url(#6757d3388a)"><g clip-path="url(#c59b68baf7)"><g clip-path="url(#dd07086348)"><path fill="url(#019b906041)" d="M 387.890625 233.515625 L 365.066406 327.433594 L 489.410156 357.652344 L 512.234375 263.730469 Z M 387.890625 233.515625 " fill-rule="nonzero"/></g></g></g></g><g clip-path="url(#f704d842f2)"><g clip-path="url(#75d0619d2b)"><g clip-path="url(#5f20d39e86)"><path fill="#ffffff" d="M 417.527344 272.996094 C 417.230469 274.277344 417.9375 275.628906 419.253906 275.917969 C 419.832031 276.039062 420.445312 275.984375 421.027344 275.972656 C 421.707031 275.953125 422.386719 275.929688 423.066406 275.910156 C 424.363281 275.875 425.660156 275.832031 426.957031 275.875 C 427.265625 275.882812 427.570312 275.890625 427.882812 275.890625 L 428.164062 275.941406 C 429.238281 276.152344 430.292969 276.371094 431.316406 276.777344 C 432.339844 277.1875 433.234375 277.769531 434.148438 278.367188 C 435.988281 279.566406 438.242188 280.570312 440.359375 279.40625 C 442.230469 278.375 442.277344 276.164062 441.261719 274.511719 C 440.175781 272.742188 438.160156 271.585938 436.347656 270.691406 C 434.363281 269.714844 432.273438 269.082031 430.082031 268.785156 C 427.777344 268.457031 425.488281 268.542969 423.21875 269.046875 C 421.984375 269.328125 420.820312 269.789062 419.730469 270.433594 C 418.746094 271.015625 417.800781 271.835938 417.527344 272.996094 Z M 417.527344 272.996094 " fill-opacity="1" fill-rule="nonzero"/></g></g></g><g clip-path="url(#5d18946029)"><g clip-path="url(#4507367e9c)"><path fill="#ffffff" d="M 406.210938 273.949219 L 413.246094 273.949219 L 413.246094 280.984375 L 406.210938 280.984375 Z M 406.210938 273.949219 " fill-opacity="1" fill-rule="nonzero"/></g></g><g clip-path="url(#b2e57ec2e7)"><g clip-path="url(#14439499d1)"><g clip-path="url(#48de833d2b)"><path fill="#e6d6b3" d="M 397.5 367.730469 L 416.015625 370.792969 L 414.164062 381.996094 L 395.648438 378.9375 Z M 397.5 367.730469 " fill-opacity="1" fill-rule="nonzero"/></g></g></g><g clip-path="url(#82b1acff64)"><g clip-path="url(#01e9bbdb62)"><g clip-path="url(#dc0747c77c)"><path fill="#e6d6b3" d="M 413.445312 385.390625 L 439.777344 384.082031 L 440.09375 390.445312 L 413.761719 391.757812 Z M 413.445312 385.390625 " fill-opacity="1" fill-rule="nonzero"/></g></g></g><g clip-path="url(#f8c0d51b15)"><g clip-path="url(#e1f7a57d28)"><g clip-path="url(#216e06af78)"><path fill="#ffffff" d="M 394.921875 390.105469 L 405.71875 391.886719 L 403.867188 403.109375 L 393.070312 401.324219 Z M 394.921875 390.105469 " fill-opacity="1" fill-rule="nonzero"/></g></g></g><g clip-path="url(#ff2626714b)"><g clip-path="url(#43624f6aa7)"><g clip-path="url(#7ef77b9bdb)"><path fill="#ffffff" d="M 433.382812 368.835938 L 439.558594 369.859375 L 438.496094 376.273438 L 432.324219 375.253906 Z M 433.382812 368.835938 " fill-opacity="1" fill-rule="nonzero"/></g></g></g><g clip-path="url(#dde36fb1be)"><g clip-path="url(#f523b1778b)"><g clip-path="url(#c1dd8fd3a7)"><path fill="#e6d6b3" d="M 335.566406 327.480469 L 320.082031 316.875 L 326.5 307.503906 L 341.984375 318.109375 Z M 335.566406 327.480469 " fill-opacity="1" fill-rule="nonzero"/></g></g></g><g clip-path="url(#a7f0696889)"><g clip-path="url(#5fc399bae2)"><g clip-path="url(#3526130395)"><path fill="#e6d6b3" d="M 328.585938 304.734375 L 304.171875 294.785156 L 306.578125 288.882812 L 330.992188 298.835938 Z M 328.585938 304.734375 " fill-opacity="1" fill-rule="nonzero"/></g></g></g><g clip-path="url(#8e8b0de23e)"><g clip-path="url(#5e4edb147d)"><g clip-path="url(#4b00bf1a26)"><path fill="#ffffff" d="M 347.367188 308.304688 L 338.339844 302.117188 L 344.765625 292.738281 L 353.796875 298.921875 Z M 347.367188 308.304688 " fill-opacity="1" fill-rule="nonzero"/></g></g></g><g clip-path="url(#3b54f0fc11)"><g clip-path="url(#492ee24272)"><g clip-path="url(#c5300a9f31)"><path fill="#ffffff" d="M 303.519531 311.304688 L 298.355469 307.769531 L 302.03125 302.40625 L 307.191406 305.941406 Z M 303.519531 311.304688 " fill-opacity="1" fill-rule="nonzero"/></g></g></g><g clip-path="url(#0acf14fe24)"><g clip-path="url(#2289e477fa)"><g clip-path="url(#da185c8a24)"><path fill="#e6d6b3" d="M 558.707031 364.125 L 534.554688 374.699219 L 532 368.863281 L 556.152344 358.289062 Z M 558.707031 364.125 " fill-opacity="1" fill-rule="nonzero"/></g></g></g><g clip-path="url(#69423f50b2)"><g clip-path="url(#004fa93b95)"><g clip-path="url(#fb46af8de8)"><path fill="#ffffff" d="M 545.945312 386.683594 L 539.8125 387.921875 L 538.527344 381.550781 L 544.660156 380.3125 Z M 545.945312 386.683594 " fill-opacity="1" fill-rule="nonzero"/></g></g></g></svg>