<svg xmlns="http://www.w3.org/2000/svg" xmlns:xlink="http://www.w3.org/1999/xlink" width="200" zoomAndPan="magnify" viewBox="0 0 150 149.999998" height="200" preserveAspectRatio="xMidYMid meet" version="1.0"><defs><clipPath id="153fbd551a"><path d="M 15.375 13.199219 L 132.453125 13.199219 L 132.453125 125.035156 L 15.375 125.035156 Z M 15.375 13.199219 " clip-rule="nonzero"/></clipPath><clipPath id="985b785810"><path d="M 73.804688 13.199219 C 41.535156 13.199219 15.375 38.234375 15.375 69.117188 C 15.375 100 41.535156 125.035156 73.804688 125.035156 C 106.078125 125.035156 132.238281 100 132.238281 69.117188 C 132.238281 38.234375 106.078125 13.199219 73.804688 13.199219 Z M 73.804688 13.199219 " clip-rule="nonzero"/></clipPath><clipPath id="2e09dae86d"><path d="M 131 85 L 148 85 L 148 105 L 131 105 Z M 131 85 " clip-rule="nonzero"/></clipPath><clipPath id="7de3b6d5be"><path d="M 146.628906 84.738281 L 147.378906 104.285156 L 131.691406 104.886719 L 130.941406 85.339844 Z M 146.628906 84.738281 " clip-rule="nonzero"/></clipPath><clipPath id="7b2de09e92"><path d="M 147.003906 94.496094 C 146.796875 89.105469 143.117188 84.875 138.785156 85.039062 C 134.453125 85.207031 131.109375 89.707031 131.316406 95.097656 C 131.523438 100.484375 135.203125 104.714844 139.535156 104.550781 C 143.863281 104.382812 147.207031 99.882812 147.003906 94.496094 Z M 147.003906 94.496094 " clip-rule="nonzero"/></clipPath><clipPath id="81316930d2"><path d="M 82 127 L 109 127 L 109 146 L 82 146 Z M 82 127 " clip-rule="nonzero"/></clipPath><clipPath id="97c9f47478"><path d="M 111.042969 141.597656 L 84.96875 148.867188 L 80.121094 131.484375 L 106.195312 124.214844 Z M 111.042969 141.597656 " clip-rule="nonzero"/></clipPath><clipPath id="ef21d7d77d"><path d="M 98.035156 145.222656 C 105.21875 143.222656 109.957031 137.707031 108.617188 132.90625 C 107.28125 128.105469 100.371094 125.839844 93.1875 127.839844 C 86.003906 129.84375 81.265625 135.359375 82.605469 140.160156 C 83.941406 144.957031 90.851562 147.226562 98.035156 145.222656 Z M 98.035156 145.222656 " clip-rule="nonzero"/></clipPath><clipPath id="267534c1d1"><path d="M 89 127 L 117 127 L 117 146 L 89 146 Z M 89 127 " clip-rule="nonzero"/></clipPath><clipPath id="88ab95a431"><path d="M 113.636719 148.710938 L 87.402344 142.046875 L 91.84375 124.558594 L 118.078125 131.222656 Z M 113.636719 148.710938 " clip-rule="nonzero"/></clipPath><clipPath id="cd64845619"><path d="M 100.550781 145.386719 C 107.777344 147.222656 114.632812 144.796875 115.859375 139.96875 C 117.085938 135.136719 112.21875 129.734375 104.992188 127.898438 C 97.761719 126.0625 90.910156 128.488281 89.683594 133.316406 C 88.457031 138.148438 93.320312 143.550781 100.550781 145.386719 Z M 100.550781 145.386719 " clip-rule="nonzero"/></clipPath><clipPath id="14ab99429d"><path d="M 35 127 L 63 127 L 63 146 L 35 146 Z M 35 127 " clip-rule="nonzero"/></clipPath><clipPath id="9a616355de"><path d="M 64.5 141.453125 L 38.46875 148.875 L 33.519531 131.523438 L 59.550781 124.097656 Z M 64.5 141.453125 " clip-rule="nonzero"/></clipPath><clipPath id="21b19cb995"><path d="M 51.511719 145.15625 C 58.683594 143.109375 63.390625 137.566406 62.023438 132.777344 C 60.65625 127.984375 53.734375 125.757812 46.5625 127.800781 C 39.390625 129.847656 34.6875 135.390625 36.054688 140.183594 C 37.417969 144.972656 44.339844 147.199219 51.511719 145.15625 Z M 51.511719 145.15625 " clip-rule="nonzero"/></clipPath><clipPath id="cba4406b8a"><path d="M 42 127 L 70 127 L 70 146 L 42 146 Z M 42 127 " clip-rule="nonzero"/></clipPath><clipPath id="13c8a29596"><path d="M 67.136719 148.550781 L 40.863281 142.042969 L 45.199219 124.527344 L 71.472656 131.035156 Z M 67.136719 148.550781 " clip-rule="nonzero"/></clipPath><clipPath id="93446c1f75"><path d="M 54.027344 145.304688 C 61.265625 147.097656 68.105469 144.628906 69.304688 139.792969 C 70.503906 134.957031 65.605469 129.582031 58.367188 127.789062 C 51.128906 125.996094 44.289062 128.464844 43.089844 133.300781 C 41.890625 138.136719 46.789062 143.511719 54.027344 145.304688 Z M 54.027344 145.304688 " clip-rule="nonzero"/></clipPath><clipPath id="28116688a3"><path d="M 34.730469 51.894531 L 114.894531 51.894531 L 114.894531 120.070312 L 34.730469 120.070312 Z M 34.730469 51.894531 " clip-rule="nonzero"/></clipPath><clipPath id="904713ec84"><path d="M 74.726562 51.894531 C 52.636719 51.894531 34.730469 67.15625 34.730469 85.980469 C 34.730469 104.808594 52.636719 120.070312 74.726562 120.070312 C 96.816406 120.070312 114.722656 104.808594 114.722656 85.980469 C 114.722656 67.15625 96.816406 51.894531 74.726562 51.894531 Z M 74.726562 51.894531 " clip-rule="nonzero"/></clipPath><clipPath id="f97a4e03c8"><path d="M 44.023438 34.671875 L 70.894531 34.671875 L 70.894531 69.207031 L 44.023438 69.207031 Z M 44.023438 34.671875 " clip-rule="nonzero"/></clipPath><clipPath id="f4f1d18d65"><path d="M 57.460938 34.671875 C 61.023438 34.671875 64.441406 36.085938 66.960938 38.605469 C 69.480469 41.125 70.894531 44.542969 70.894531 48.105469 L 70.894531 55.679688 C 70.894531 59.242188 69.480469 62.660156 66.960938 65.179688 C 64.441406 67.699219 61.023438 69.113281 57.460938 69.113281 C 53.894531 69.113281 50.476562 67.699219 47.957031 65.179688 C 45.4375 62.660156 44.023438 59.242188 44.023438 55.679688 L 44.023438 48.105469 C 44.023438 44.542969 45.4375 41.125 47.957031 38.605469 C 50.476562 36.085938 53.894531 34.671875 57.460938 34.671875 Z M 57.460938 34.671875 " clip-rule="nonzero"/></clipPath><clipPath id="2a2456e8bc"><path d="M 76.71875 34.671875 L 103.589844 34.671875 L 103.589844 69.207031 L 76.71875 69.207031 Z M 76.71875 34.671875 " clip-rule="nonzero"/></clipPath><clipPath id="0f854b00f9"><path d="M 90.152344 34.671875 C 93.71875 34.671875 97.136719 36.085938 99.65625 38.605469 C 102.175781 41.125 103.589844 44.542969 103.589844 48.105469 L 103.589844 55.679688 C 103.589844 59.242188 102.175781 62.660156 99.65625 65.179688 C 97.136719 67.699219 93.71875 69.113281 90.152344 69.113281 C 86.589844 69.113281 83.171875 67.699219 80.652344 65.179688 C 78.132812 62.660156 76.71875 59.242188 76.71875 55.679688 L 76.71875 48.105469 C 76.71875 44.542969 78.132812 41.125 80.652344 38.605469 C 83.171875 36.085938 86.589844 34.671875 90.152344 34.671875 Z M 90.152344 34.671875 " clip-rule="nonzero"/></clipPath><clipPath id="8d85b6cc28"><path d="M 82.472656 41.675781 L 97.835938 41.675781 L 97.835938 62.921875 L 82.472656 62.921875 Z M 82.472656 41.675781 " clip-rule="nonzero"/></clipPath><clipPath id="12c848f021"><path d="M 90.15625 41.675781 C 92.191406 41.675781 94.144531 42.484375 95.585938 43.925781 C 97.027344 45.367188 97.835938 47.320312 97.835938 49.359375 L 97.835938 55.1875 C 97.835938 57.222656 97.027344 59.175781 95.585938 60.617188 C 94.144531 62.058594 92.191406 62.867188 90.15625 62.867188 C 88.117188 62.867188 86.164062 62.058594 84.722656 60.617188 C 83.28125 59.175781 82.472656 57.222656 82.472656 55.1875 L 82.472656 49.359375 C 82.472656 47.320312 83.28125 45.367188 84.722656 43.925781 C 86.164062 42.484375 88.117188 41.675781 90.15625 41.675781 Z M 90.15625 41.675781 " clip-rule="nonzero"/></clipPath><clipPath id="7f8ac5ed41"><path d="M 88.9375 41.679688 L 95.777344 41.679688 L 95.777344 49.503906 L 88.9375 49.503906 Z M 88.9375 41.679688 " clip-rule="nonzero"/></clipPath><clipPath id="d6f9e99ed4"><path d="M 92.355469 41.679688 C 94.246094 41.679688 95.777344 43.210938 95.777344 45.097656 L 95.777344 46.082031 C 95.777344 47.972656 94.246094 49.503906 92.355469 49.503906 C 90.46875 49.503906 88.9375 47.972656 88.9375 46.082031 L 88.9375 45.097656 C 88.9375 43.210938 90.46875 41.679688 92.355469 41.679688 Z M 92.355469 41.679688 " clip-rule="nonzero"/></clipPath><clipPath id="7c66e24121"><path d="M 49.285156 41.296875 L 64.652344 41.296875 L 64.652344 62.542969 L 49.285156 62.542969 Z M 49.285156 41.296875 " clip-rule="nonzero"/></clipPath><clipPath id="19f4579702"><path d="M 56.96875 41.296875 C 59.007812 41.296875 60.960938 42.105469 62.402344 43.546875 C 63.839844 44.988281 64.652344 46.941406 64.652344 48.976562 L 64.652344 54.804688 C 64.652344 56.84375 63.839844 58.796875 62.402344 60.238281 C 60.960938 61.679688 59.007812 62.488281 56.96875 62.488281 C 54.929688 62.488281 52.976562 61.679688 51.535156 60.238281 C 50.09375 58.796875 49.285156 56.84375 49.285156 54.804688 L 49.285156 48.976562 C 49.285156 46.941406 50.09375 44.988281 51.535156 43.546875 C 52.976562 42.105469 54.929688 41.296875 56.96875 41.296875 Z M 56.96875 41.296875 " clip-rule="nonzero"/></clipPath><clipPath id="18af5a9d81"><path d="M 56.425781 41.296875 L 63.261719 41.296875 L 63.261719 49.125 L 56.425781 49.125 Z M 56.425781 41.296875 " clip-rule="nonzero"/></clipPath><clipPath id="621f6bc6ca"><path d="M 59.84375 41.296875 C 61.730469 41.296875 63.261719 42.828125 63.261719 44.71875 L 63.261719 45.703125 C 63.261719 47.589844 61.730469 49.121094 59.84375 49.121094 C 57.953125 49.121094 56.425781 47.589844 56.425781 45.703125 L 56.425781 44.71875 C 56.425781 42.828125 57.953125 41.296875 59.84375 41.296875 Z M 59.84375 41.296875 " clip-rule="nonzero"/></clipPath><clipPath id="9fb124141f"><path d="M 63.746094 70.042969 L 84 70.042969 L 84 78.953125 L 63.746094 78.953125 Z M 63.746094 70.042969 " clip-rule="nonzero"/></clipPath><clipPath id="095883d74d"><path d="M 60.976562 59.234375 L 86.5625 59.234375 L 86.5625 71.796875 L 60.976562 71.796875 Z M 60.976562 59.234375 " clip-rule="nonzero"/></clipPath><clipPath id="7544731a69"><path d="M 77.136719 61.628906 L 82.058594 61.628906 L 82.058594 65.71875 L 77.136719 65.71875 Z M 77.136719 61.628906 " clip-rule="nonzero"/></clipPath><clipPath id="49c6c42f20"><path d="M 78.351562 61.671875 C 80.042969 62.425781 80.726562 62.890625 81.148438 63.28125 C 81.488281 63.597656 81.816406 64 81.945312 64.246094 C 82.011719 64.371094 82.027344 64.453125 82.039062 64.558594 C 82.050781 64.667969 82.046875 64.78125 82.023438 64.886719 C 82 64.992188 81.964844 65.101562 81.910156 65.195312 C 81.855469 65.289062 81.785156 65.375 81.703125 65.445312 C 81.617188 65.515625 81.523438 65.574219 81.421875 65.617188 C 81.320312 65.660156 81.207031 65.6875 81.101562 65.695312 C 80.996094 65.699219 80.882812 65.695312 80.773438 65.664062 C 80.675781 65.632812 80.566406 65.59375 80.476562 65.535156 C 80.390625 65.472656 80.300781 65.390625 80.234375 65.308594 C 80.167969 65.226562 80.117188 65.125 80.082031 65.023438 C 80.042969 64.921875 80.019531 64.808594 80.019531 64.703125 C 80.019531 64.59375 80.03125 64.476562 80.070312 64.375 C 80.105469 64.273438 80.152344 64.167969 80.21875 64.085938 C 80.28125 63.996094 80.367188 63.917969 80.453125 63.859375 C 80.542969 63.800781 80.644531 63.746094 80.746094 63.714844 C 80.847656 63.6875 80.964844 63.667969 81.070312 63.675781 C 81.179688 63.679688 81.292969 63.703125 81.394531 63.738281 C 81.492188 63.78125 81.59375 63.835938 81.679688 63.90625 C 81.761719 63.972656 81.839844 64.0625 81.890625 64.148438 C 81.953125 64.238281 81.992188 64.347656 82.015625 64.453125 C 82.039062 64.558594 82.050781 64.671875 82.039062 64.78125 C 82.027344 64.886719 82 65 81.957031 65.09375 C 81.914062 65.195312 81.851562 65.289062 81.777344 65.367188 C 81.707031 65.445312 81.617188 65.515625 81.523438 65.570312 C 81.429688 65.621094 81.320312 65.664062 81.214844 65.683594 C 81.109375 65.699219 80.996094 65.707031 80.886719 65.6875 C 80.78125 65.671875 80.667969 65.632812 80.574219 65.585938 C 80.476562 65.539062 80.40625 65.484375 80.3125 65.390625 C 80.15625 65.238281 80.015625 64.953125 79.765625 64.714844 C 79.390625 64.359375 78.578125 63.78125 78.171875 63.574219 C 77.953125 63.460938 77.765625 63.453125 77.632812 63.382812 C 77.550781 63.34375 77.503906 63.300781 77.449219 63.246094 C 77.394531 63.195312 77.347656 63.152344 77.304688 63.074219 C 77.246094 62.96875 77.175781 62.796875 77.164062 62.652344 C 77.152344 62.511719 77.195312 62.320312 77.234375 62.207031 C 77.265625 62.125 77.292969 62.078125 77.347656 62.011719 C 77.425781 61.917969 77.585938 61.792969 77.691406 61.730469 C 77.769531 61.691406 77.824219 61.667969 77.90625 61.65625 C 78.023438 61.636719 78.351562 61.671875 78.351562 61.671875 " clip-rule="nonzero"/></clipPath><clipPath id="7d89ad6f9f"><path d="M 81.839844 66.894531 L 83.652344 66.894531 L 83.652344 68.761719 L 81.839844 68.761719 Z M 81.839844 66.894531 " clip-rule="nonzero"/></clipPath><clipPath id="13947a8e3f"><path d="M 83.652344 67.5625 C 83.652344 68.136719 83.585938 68.285156 83.496094 68.398438 C 83.410156 68.511719 83.285156 68.613281 83.152344 68.671875 C 83.023438 68.730469 82.863281 68.753906 82.71875 68.75 C 82.578125 68.742188 82.421875 68.6875 82.296875 68.617188 C 82.171875 68.546875 82.054688 68.429688 81.984375 68.308594 C 81.90625 68.183594 81.859375 68.03125 81.851562 67.886719 C 81.847656 67.746094 81.875 67.585938 81.9375 67.453125 C 81.996094 67.324219 82.089844 67.199219 82.203125 67.109375 C 82.316406 67.019531 82.464844 66.949219 82.605469 66.925781 C 82.75 66.902344 82.910156 66.914062 83.046875 66.953125 C 83.183594 66.996094 83.425781 67.179688 83.425781 67.179688 " clip-rule="nonzero"/></clipPath><clipPath id="7d7ad73042"><path d="M 104 7 L 117 7 L 117 16 L 104 16 Z M 104 7 " clip-rule="nonzero"/></clipPath><clipPath id="1d58c0c724"><path d="M 102.664062 1.132812 L 117.636719 9.921875 L 112.316406 18.984375 L 97.34375 10.195312 Z M 102.664062 1.132812 " clip-rule="nonzero"/></clipPath><clipPath id="8162c5d5c8"><path d="M 102.664062 1.132812 L 117.636719 9.921875 L 112.316406 18.984375 L 97.34375 10.195312 Z M 102.664062 1.132812 " clip-rule="nonzero"/></clipPath><clipPath id="1d82b34746"><path d="M 102.664062 1.132812 L 117.636719 9.921875 L 112.316406 18.984375 L 97.34375 10.195312 Z M 102.664062 1.132812 " clip-rule="nonzero"/></clipPath><clipPath id="b78f346ec6"><path d="M 99 3 L 106 3 L 106 14 L 99 14 Z M 99 3 " clip-rule="nonzero"/></clipPath><clipPath id="7c80db1507"><path d="M 102.664062 1.132812 L 117.636719 9.921875 L 112.316406 18.984375 L 97.34375 10.195312 Z M 102.664062 1.132812 " clip-rule="nonzero"/></clipPath><clipPath id="5e3b57e8b3"><path d="M 102.664062 1.132812 L 117.636719 9.921875 L 112.316406 18.984375 L 97.34375 10.195312 Z M 102.664062 1.132812 " clip-rule="nonzero"/></clipPath><clipPath id="1459ffa1b9"><path d="M 102.664062 1.132812 L 117.636719 9.921875 L 112.316406 18.984375 L 97.34375 10.195312 Z M 102.664062 1.132812 " clip-rule="nonzero"/></clipPath><clipPath id="9af7dd2b00"><path d="M 2 85 L 19 85 L 19 105 L 2 105 Z M 2 85 " clip-rule="nonzero"/></clipPath><clipPath id="309e8a316d"><path d="M 2.75 105.003906 L 2.082031 85.453125 L 17.769531 84.921875 L 18.4375 104.46875 Z M 2.75 105.003906 " clip-rule="nonzero"/></clipPath><clipPath id="17f4dd9a0f"><path d="M 2.417969 95.246094 C 2.601562 100.636719 6.261719 104.882812 10.59375 104.738281 C 14.925781 104.589844 18.289062 100.101562 18.105469 94.714844 C 17.921875 89.324219 14.261719 85.078125 9.929688 85.222656 C 5.597656 85.371094 2.234375 89.859375 2.417969 95.246094 Z M 2.417969 95.246094 " clip-rule="nonzero"/></clipPath><clipPath id="bbbc963dba"><path d="M 70 64 L 129 64 L 129 95 L 70 95 Z M 70 64 " clip-rule="nonzero"/></clipPath><clipPath id="dd849b4357"><path d="M 67.515625 76.128906 L 74.855469 58.902344 L 132.125 83.300781 L 124.785156 100.53125 Z M 67.515625 76.128906 " clip-rule="nonzero"/></clipPath><clipPath id="e59b692bbe"><path d="M 71.1875 67.515625 C 69.160156 72.273438 80.324219 81.585938 96.125 88.320312 C 111.925781 95.050781 126.378906 96.652344 128.40625 91.894531 C 130.433594 87.136719 119.265625 77.824219 103.464844 71.089844 C 87.664062 64.359375 73.210938 62.757812 71.1875 67.515625 Z M 71.1875 67.515625 " clip-rule="nonzero"/></clipPath><clipPath id="bcd478562f"><path d="M 21 11 L 133 11 L 133 93 L 21 93 Z M 21 11 " clip-rule="nonzero"/></clipPath><clipPath id="459cd5d35c"><path d="M 44.136719 -7.140625 L 151.550781 40.855469 L 128.53125 92.375 L 21.117188 44.375 Z M 44.136719 -7.140625 " clip-rule="nonzero"/></clipPath><clipPath id="a2c6aaac4e"><path d="M 44.136719 -7.140625 L 151.550781 40.855469 L 103.554688 148.273438 L -3.863281 100.273438 Z M 44.136719 -7.140625 " clip-rule="nonzero"/></clipPath><clipPath id="80b59de2ef"><path d="M 20 38 L 101 38 L 101 84 L 20 84 Z M 20 38 " clip-rule="nonzero"/></clipPath><clipPath id="d1efc940c5"><path d="M 14.429688 59.15625 L 26.960938 29.734375 L 106.714844 63.714844 L 94.179688 93.132812 Z M 14.429688 59.15625 " clip-rule="nonzero"/></clipPath><clipPath id="cf3aa24967"><path d="M 20.695312 44.445312 C 17.234375 52.570312 32.261719 66.753906 54.261719 76.125 C 76.261719 85.496094 96.898438 86.511719 100.359375 78.386719 C 103.820312 70.261719 88.792969 56.078125 66.792969 46.707031 C 44.796875 37.335938 24.15625 36.320312 20.695312 44.445312 Z M 20.695312 44.445312 " clip-rule="nonzero"/></clipPath><clipPath id="baaf222d25"><path d="M 14.429688 59.15625 L 26.960938 29.734375 L 106.597656 63.664062 L 94.066406 93.082031 Z M 14.429688 59.15625 " clip-rule="nonzero"/></clipPath><clipPath id="fccaf315ed"><path d="M 64 24 L 112 24 L 112 57 L 64 57 Z M 64 24 " clip-rule="nonzero"/></clipPath><clipPath id="145698337a"><path d="M 69.636719 18.15625 L 115.644531 33.992188 L 105.78125 62.648438 L 59.773438 46.8125 Z M 69.636719 18.15625 " clip-rule="nonzero"/></clipPath><clipPath id="1fd6489f75"><path d="M 92.601562 26.0625 C 79.917969 21.695312 67.429688 24.574219 64.707031 32.484375 C 61.984375 40.398438 70.058594 50.351562 82.738281 54.71875 C 95.421875 59.082031 107.914062 56.207031 110.636719 48.292969 C 113.359375 40.378906 105.285156 30.425781 92.601562 26.0625 Z M 92.601562 26.0625 " clip-rule="nonzero"/></clipPath><clipPath id="7f35e2be0f"><path d="M 69.636719 18.15625 L 115.53125 33.953125 L 105.671875 62.609375 L 59.773438 46.8125 Z M 69.636719 18.15625 " clip-rule="nonzero"/></clipPath><linearGradient x1="-33.096399" gradientTransform="matrix(0.111939, 0.038526, -0.038526, 0.111939, 69.637749, 18.157473)" y1="-110.244836" x2="443.40095" gradientUnits="userSpaceOnUse" y2="366.25251" id="e4a69dc1ae"><stop stop-opacity="1" stop-color="rgb(99.598694%, 88.999939%, 21.598816%)" offset="0"/><stop stop-opacity="1" stop-color="rgb(99.598694%, 88.999939%, 21.598816%)" offset="0.125"/><stop stop-opacity="1" stop-color="rgb(99.583435%, 88.908386%, 21.588135%)" offset="0.15625"/><stop stop-opacity="1" stop-color="rgb(99.549866%, 88.693237%, 21.565247%)" offset="0.164062"/><stop stop-opacity="1" stop-color="rgb(99.511719%, 88.449097%, 21.539307%)" offset="0.171875"/><stop stop-opacity="1" stop-color="rgb(99.472046%, 88.204956%, 21.511841%)" offset="0.179687"/><stop stop-opacity="1" stop-color="rgb(99.432373%, 87.95929%, 21.484375%)" offset="0.1875"/><stop stop-opacity="1" stop-color="rgb(99.394226%, 87.715149%, 21.458435%)" offset="0.195312"/><stop stop-opacity="1" stop-color="rgb(99.354553%, 87.469482%, 21.430969%)" offset="0.203125"/><stop stop-opacity="1" stop-color="rgb(99.31488%, 87.225342%, 21.405029%)" offset="0.210937"/><stop stop-opacity="1" stop-color="rgb(99.276733%, 86.981201%, 21.377563%)" offset="0.21875"/><stop stop-opacity="1" stop-color="rgb(99.237061%, 86.735535%, 21.351624%)" offset="0.226562"/><stop stop-opacity="1" stop-color="rgb(99.198914%, 86.491394%, 21.324158%)" offset="0.234375"/><stop stop-opacity="1" stop-color="rgb(99.159241%, 86.247253%, 21.296692%)" offset="0.242187"/><stop stop-opacity="1" stop-color="rgb(99.119568%, 86.001587%, 21.270752%)" offset="0.25"/><stop stop-opacity="1" stop-color="rgb(99.081421%, 85.757446%, 21.243286%)" offset="0.257812"/><stop stop-opacity="1" stop-color="rgb(99.041748%, 85.51178%, 21.217346%)" offset="0.265625"/><stop stop-opacity="1" stop-color="rgb(99.002075%, 85.267639%, 21.18988%)" offset="0.273437"/><stop stop-opacity="1" stop-color="rgb(98.963928%, 85.023499%, 21.16394%)" offset="0.28125"/><stop stop-opacity="1" stop-color="rgb(98.924255%, 84.777832%, 21.136475%)" offset="0.289062"/><stop stop-opacity="1" stop-color="rgb(98.884583%, 84.533691%, 21.109009%)" offset="0.296875"/><stop stop-opacity="1" stop-color="rgb(98.846436%, 84.289551%, 21.083069%)" offset="0.304687"/><stop stop-opacity="1" stop-color="rgb(98.806763%, 84.043884%, 21.055603%)" offset="0.3125"/><stop stop-opacity="1" stop-color="rgb(98.768616%, 83.799744%, 21.029663%)" offset="0.320312"/><stop stop-opacity="1" stop-color="rgb(98.728943%, 83.554077%, 21.002197%)" offset="0.328125"/><stop stop-opacity="1" stop-color="rgb(98.68927%, 83.309937%, 20.974731%)" offset="0.335937"/><stop stop-opacity="1" stop-color="rgb(98.651123%, 83.065796%, 20.948792%)" offset="0.34375"/><stop stop-opacity="1" stop-color="rgb(98.61145%, 82.820129%, 20.921326%)" offset="0.351562"/><stop stop-opacity="1" stop-color="rgb(98.571777%, 82.575989%, 20.895386%)" offset="0.359375"/><stop stop-opacity="1" stop-color="rgb(98.53363%, 82.331848%, 20.86792%)" offset="0.367187"/><stop stop-opacity="1" stop-color="rgb(98.493958%, 82.086182%, 20.84198%)" offset="0.375"/><stop stop-opacity="1" stop-color="rgb(98.455811%, 81.842041%, 20.814514%)" offset="0.382812"/><stop stop-opacity="1" stop-color="rgb(98.416138%, 81.596375%, 20.787048%)" offset="0.390625"/><stop stop-opacity="1" stop-color="rgb(98.376465%, 81.352234%, 20.761108%)" offset="0.398437"/><stop stop-opacity="1" stop-color="rgb(98.338318%, 81.108093%, 20.733643%)" offset="0.40625"/><stop stop-opacity="1" stop-color="rgb(98.298645%, 80.862427%, 20.707703%)" offset="0.414062"/><stop stop-opacity="1" stop-color="rgb(98.258972%, 80.618286%, 20.680237%)" offset="0.421875"/><stop stop-opacity="1" stop-color="rgb(98.220825%, 80.374146%, 20.654297%)" offset="0.429687"/><stop stop-opacity="1" stop-color="rgb(98.181152%, 80.128479%, 20.626831%)" offset="0.4375"/><stop stop-opacity="1" stop-color="rgb(98.141479%, 79.884338%, 20.599365%)" offset="0.445312"/><stop stop-opacity="1" stop-color="rgb(98.103333%, 79.638672%, 20.573425%)" offset="0.453125"/><stop stop-opacity="1" stop-color="rgb(98.06366%, 79.394531%, 20.545959%)" offset="0.460937"/><stop stop-opacity="1" stop-color="rgb(98.025513%, 79.150391%, 20.52002%)" offset="0.46155"/><stop stop-opacity="1" stop-color="rgb(98.005676%, 79.02832%, 20.506287%)" offset="0.46875"/><stop stop-opacity="1" stop-color="rgb(97.98584%, 78.904724%, 20.492554%)" offset="0.476562"/><stop stop-opacity="1" stop-color="rgb(97.946167%, 78.660583%, 20.466614%)" offset="0.484375"/><stop stop-opacity="1" stop-color="rgb(97.90802%, 78.416443%, 20.439148%)" offset="0.492187"/><stop stop-opacity="1" stop-color="rgb(97.868347%, 78.170776%, 20.411682%)" offset="0.5"/><stop stop-opacity="1" stop-color="rgb(97.828674%, 77.926636%, 20.385742%)" offset="0.507812"/><stop stop-opacity="1" stop-color="rgb(97.790527%, 77.680969%, 20.358276%)" offset="0.515625"/><stop stop-opacity="1" stop-color="rgb(97.750854%, 77.436829%, 20.332336%)" offset="0.523437"/><stop stop-opacity="1" stop-color="rgb(97.712708%, 77.192688%, 20.304871%)" offset="0.53125"/><stop stop-opacity="1" stop-color="rgb(97.673035%, 76.947021%, 20.278931%)" offset="0.53845"/><stop stop-opacity="1" stop-color="rgb(97.653198%, 76.824951%, 20.265198%)" offset="0.539062"/><stop stop-opacity="1" stop-color="rgb(97.633362%, 76.702881%, 20.251465%)" offset="0.546875"/><stop stop-opacity="1" stop-color="rgb(97.595215%, 76.45874%, 20.223999%)" offset="0.554687"/><stop stop-opacity="1" stop-color="rgb(97.555542%, 76.213074%, 20.198059%)" offset="0.5625"/><stop stop-opacity="1" stop-color="rgb(97.515869%, 75.968933%, 20.170593%)" offset="0.570312"/><stop stop-opacity="1" stop-color="rgb(97.477722%, 75.723267%, 20.144653%)" offset="0.578125"/><stop stop-opacity="1" stop-color="rgb(97.438049%, 75.479126%, 20.117188%)" offset="0.585938"/><stop stop-opacity="1" stop-color="rgb(97.399902%, 75.234985%, 20.089722%)" offset="0.59375"/><stop stop-opacity="1" stop-color="rgb(97.360229%, 74.989319%, 20.063782%)" offset="0.601562"/><stop stop-opacity="1" stop-color="rgb(97.320557%, 74.745178%, 20.036316%)" offset="0.609375"/><stop stop-opacity="1" stop-color="rgb(97.28241%, 74.501038%, 20.010376%)" offset="0.617187"/><stop stop-opacity="1" stop-color="rgb(97.242737%, 74.255371%, 19.98291%)" offset="0.625"/><stop stop-opacity="1" stop-color="rgb(97.203064%, 74.01123%, 19.95697%)" offset="0.632812"/><stop stop-opacity="1" stop-color="rgb(97.164917%, 73.765564%, 19.929504%)" offset="0.640625"/><stop stop-opacity="1" stop-color="rgb(97.125244%, 73.521423%, 19.902039%)" offset="0.648437"/><stop stop-opacity="1" stop-color="rgb(97.085571%, 73.277283%, 19.876099%)" offset="0.65625"/><stop stop-opacity="1" stop-color="rgb(97.047424%, 73.031616%, 19.848633%)" offset="0.664062"/><stop stop-opacity="1" stop-color="rgb(97.007751%, 72.787476%, 19.822693%)" offset="0.671875"/><stop stop-opacity="1" stop-color="rgb(96.969604%, 72.543335%, 19.795227%)" offset="0.679688"/><stop stop-opacity="1" stop-color="rgb(96.929932%, 72.297668%, 19.769287%)" offset="0.6875"/><stop stop-opacity="1" stop-color="rgb(96.890259%, 72.053528%, 19.741821%)" offset="0.695312"/><stop stop-opacity="1" stop-color="rgb(96.852112%, 71.807861%, 19.714355%)" offset="0.703125"/><stop stop-opacity="1" stop-color="rgb(96.812439%, 71.563721%, 19.688416%)" offset="0.710937"/><stop stop-opacity="1" stop-color="rgb(96.772766%, 71.31958%, 19.66095%)" offset="0.71875"/><stop stop-opacity="1" stop-color="rgb(96.734619%, 71.073914%, 19.63501%)" offset="0.726563"/><stop stop-opacity="1" stop-color="rgb(96.694946%, 70.829773%, 19.607544%)" offset="0.734375"/><stop stop-opacity="1" stop-color="rgb(96.656799%, 70.585632%, 19.581604%)" offset="0.742188"/><stop stop-opacity="1" stop-color="rgb(96.617126%, 70.339966%, 19.554138%)" offset="0.75"/><stop stop-opacity="1" stop-color="rgb(96.577454%, 70.095825%, 19.526672%)" offset="0.757812"/><stop stop-opacity="1" stop-color="rgb(96.539307%, 69.850159%, 19.500732%)" offset="0.765625"/><stop stop-opacity="1" stop-color="rgb(96.499634%, 69.606018%, 19.473267%)" offset="0.773437"/><stop stop-opacity="1" stop-color="rgb(96.459961%, 69.361877%, 19.447327%)" offset="0.78125"/><stop stop-opacity="1" stop-color="rgb(96.421814%, 69.116211%, 19.419861%)" offset="0.789062"/><stop stop-opacity="1" stop-color="rgb(96.382141%, 68.87207%, 19.393921%)" offset="0.796875"/><stop stop-opacity="1" stop-color="rgb(96.342468%, 68.62793%, 19.366455%)" offset="0.804687"/><stop stop-opacity="1" stop-color="rgb(96.304321%, 68.382263%, 19.338989%)" offset="0.8125"/><stop stop-opacity="1" stop-color="rgb(96.264648%, 68.138123%, 19.313049%)" offset="0.820312"/><stop stop-opacity="1" stop-color="rgb(96.226501%, 67.892456%, 19.285583%)" offset="0.828125"/><stop stop-opacity="1" stop-color="rgb(96.186829%, 67.648315%, 19.259644%)" offset="0.835937"/><stop stop-opacity="1" stop-color="rgb(96.147156%, 67.404175%, 19.232178%)" offset="0.84375"/><stop stop-opacity="1" stop-color="rgb(96.113586%, 67.190552%, 19.20929%)" offset="0.875"/><stop stop-opacity="1" stop-color="rgb(96.099854%, 67.098999%, 19.198608%)" offset="1"/></linearGradient><clipPath id="f343448a72"><path d="M 65 24 L 110 24 L 110 56 L 65 56 Z M 65 24 " clip-rule="nonzero"/></clipPath><clipPath id="c0b6d62aea"><path d="M 71.550781 18.425781 L 113.785156 34.820312 L 103.523438 61.257812 L 61.289062 44.863281 Z M 71.550781 18.425781 " clip-rule="nonzero"/></clipPath><clipPath id="98d0016aa6"><path d="M 92.628906 26.609375 C 80.988281 22.089844 69.253906 24.34375 66.417969 31.644531 C 63.585938 38.945312 70.726562 48.527344 82.371094 53.046875 C 94.011719 57.566406 105.746094 55.3125 108.582031 48.011719 C 111.414062 40.710938 104.273438 31.128906 92.628906 26.609375 Z M 92.628906 26.609375 " clip-rule="nonzero"/></clipPath><clipPath id="0ebf543672"><path d="M 65 25 L 109 25 L 109 50 L 65 50 Z M 65 25 " clip-rule="nonzero"/></clipPath><clipPath id="6728e24f67"><path d="M 68.375 21.675781 L 111.273438 32.101562 L 106.160156 53.136719 L 63.265625 42.714844 Z M 68.375 21.675781 " clip-rule="nonzero"/></clipPath><clipPath id="6b3fdf491c"><path d="M 89.820312 26.886719 C 77.976562 24.007812 67.230469 26.386719 65.820312 32.195312 C 64.410156 38.003906 72.867188 45.046875 84.707031 47.925781 C 96.550781 50.800781 107.296875 48.425781 108.710938 42.617188 C 110.121094 36.808594 101.664062 29.765625 89.820312 26.886719 Z M 89.820312 26.886719 " clip-rule="nonzero"/></clipPath><clipPath id="5e011949c3"><path d="M 66 23 L 106 23 L 106 47 L 66 47 Z M 66 23 " clip-rule="nonzero"/></clipPath><clipPath id="063935ead4"><path d="M 68.90625 20.136719 L 108.019531 29.640625 L 102.910156 50.679688 L 63.792969 41.171875 Z M 68.90625 20.136719 " clip-rule="nonzero"/></clipPath><clipPath id="8801fb3c40"><path d="M 88.433594 24.882812 C 77.648438 22.261719 67.761719 24.847656 66.351562 30.65625 C 64.9375 36.464844 72.535156 43.296875 83.320312 45.917969 C 94.105469 48.539062 103.992188 45.953125 105.40625 40.144531 C 106.816406 34.335938 99.21875 27.503906 88.433594 24.882812 Z M 88.433594 24.882812 " clip-rule="nonzero"/></clipPath><clipPath id="9e012aa095"><path d="M 68.90625 20.136719 L 107.9375 29.621094 L 102.828125 50.660156 L 63.792969 41.171875 Z M 68.90625 20.136719 " clip-rule="nonzero"/></clipPath><linearGradient x1="-5.740205" gradientTransform="matrix(0.0821748, 0.0199693, -0.0199693, 0.0821748, 68.905853, 20.136629)" y1="-115.365205" x2="480.997502" gradientUnits="userSpaceOnUse" y2="371.372502" id="a734fedffa"><stop stop-opacity="1" stop-color="rgb(99.598694%, 88.999939%, 21.598816%)" offset="0"/><stop stop-opacity="1" stop-color="rgb(99.597168%, 88.993835%, 21.59729%)" offset="0.125"/><stop stop-opacity="1" stop-color="rgb(99.572754%, 88.850403%, 21.575928%)" offset="0.140625"/><stop stop-opacity="1" stop-color="rgb(99.525452%, 88.572693%, 21.534729%)" offset="0.15625"/><stop stop-opacity="1" stop-color="rgb(99.476624%, 88.296509%, 21.49353%)" offset="0.171875"/><stop stop-opacity="1" stop-color="rgb(99.429321%, 88.020325%, 21.450806%)" offset="0.1875"/><stop stop-opacity="1" stop-color="rgb(99.382019%, 87.742615%, 21.409607%)" offset="0.203125"/><stop stop-opacity="1" stop-color="rgb(99.333191%, 87.466431%, 21.368408%)" offset="0.21875"/><stop stop-opacity="1" stop-color="rgb(99.285889%, 87.190247%, 21.327209%)" offset="0.234375"/><stop stop-opacity="1" stop-color="rgb(99.238586%, 86.914062%, 21.284485%)" offset="0.25"/><stop stop-opacity="1" stop-color="rgb(99.189758%, 86.636353%, 21.243286%)" offset="0.265625"/><stop stop-opacity="1" stop-color="rgb(99.142456%, 86.360168%, 21.202087%)" offset="0.28125"/><stop stop-opacity="1" stop-color="rgb(99.095154%, 86.083984%, 21.160889%)" offset="0.296875"/><stop stop-opacity="1" stop-color="rgb(99.046326%, 85.806274%, 21.118164%)" offset="0.3125"/><stop stop-opacity="1" stop-color="rgb(98.999023%, 85.53009%, 21.076965%)" offset="0.328125"/><stop stop-opacity="1" stop-color="rgb(98.951721%, 85.253906%, 21.035767%)" offset="0.34375"/><stop stop-opacity="1" stop-color="rgb(98.902893%, 84.976196%, 20.994568%)" offset="0.359375"/><stop stop-opacity="1" stop-color="rgb(98.855591%, 84.700012%, 20.951843%)" offset="0.375"/><stop stop-opacity="1" stop-color="rgb(98.808289%, 84.423828%, 20.910645%)" offset="0.390625"/><stop stop-opacity="1" stop-color="rgb(98.75946%, 84.146118%, 20.869446%)" offset="0.40625"/><stop stop-opacity="1" stop-color="rgb(98.712158%, 83.869934%, 20.826721%)" offset="0.421875"/><stop stop-opacity="1" stop-color="rgb(98.66333%, 83.59375%, 20.785522%)" offset="0.430306"/><stop stop-opacity="1" stop-color="rgb(98.640442%, 83.456421%, 20.765686%)" offset="0.4375"/><stop stop-opacity="1" stop-color="rgb(98.616028%, 83.317566%, 20.744324%)" offset="0.453125"/><stop stop-opacity="1" stop-color="rgb(98.568726%, 83.039856%, 20.703125%)" offset="0.46875"/><stop stop-opacity="1" stop-color="rgb(98.519897%, 82.763672%, 20.6604%)" offset="0.484375"/><stop stop-opacity="1" stop-color="rgb(98.472595%, 82.487488%, 20.619202%)" offset="0.5"/><stop stop-opacity="1" stop-color="rgb(98.425293%, 82.209778%, 20.578003%)" offset="0.515625"/><stop stop-opacity="1" stop-color="rgb(98.376465%, 81.933594%, 20.536804%)" offset="0.53125"/><stop stop-opacity="1" stop-color="rgb(98.329163%, 81.65741%, 20.49408%)" offset="0.546875"/><stop stop-opacity="1" stop-color="rgb(98.28186%, 81.3797%, 20.452881%)" offset="0.5625"/><stop stop-opacity="1" stop-color="rgb(98.233032%, 81.103516%, 20.411682%)" offset="0.569694"/><stop stop-opacity="1" stop-color="rgb(98.210144%, 80.966187%, 20.391846%)" offset="0.578125"/><stop stop-opacity="1" stop-color="rgb(98.18573%, 80.827332%, 20.370483%)" offset="0.59375"/><stop stop-opacity="1" stop-color="rgb(98.138428%, 80.549622%, 20.327759%)" offset="0.609375"/><stop stop-opacity="1" stop-color="rgb(98.0896%, 80.273438%, 20.28656%)" offset="0.625"/><stop stop-opacity="1" stop-color="rgb(98.042297%, 79.997253%, 20.245361%)" offset="0.640625"/><stop stop-opacity="1" stop-color="rgb(97.993469%, 79.721069%, 20.204163%)" offset="0.65625"/><stop stop-opacity="1" stop-color="rgb(97.946167%, 79.443359%, 20.161438%)" offset="0.671875"/><stop stop-opacity="1" stop-color="rgb(97.898865%, 79.167175%, 20.120239%)" offset="0.6875"/><stop stop-opacity="1" stop-color="rgb(97.850037%, 78.890991%, 20.079041%)" offset="0.703125"/><stop stop-opacity="1" stop-color="rgb(97.802734%, 78.613281%, 20.036316%)" offset="0.71875"/><stop stop-opacity="1" stop-color="rgb(97.755432%, 78.337097%, 19.995117%)" offset="0.734375"/><stop stop-opacity="1" stop-color="rgb(97.706604%, 78.060913%, 19.953918%)" offset="0.75"/><stop stop-opacity="1" stop-color="rgb(97.659302%, 77.783203%, 19.91272%)" offset="0.765625"/><stop stop-opacity="1" stop-color="rgb(97.612%, 77.507019%, 19.869995%)" offset="0.78125"/><stop stop-opacity="1" stop-color="rgb(97.563171%, 77.230835%, 19.828796%)" offset="0.796875"/><stop stop-opacity="1" stop-color="rgb(97.515869%, 76.954651%, 19.787598%)" offset="0.8125"/><stop stop-opacity="1" stop-color="rgb(97.468567%, 76.676941%, 19.746399%)" offset="0.828125"/><stop stop-opacity="1" stop-color="rgb(97.419739%, 76.400757%, 19.703674%)" offset="0.84375"/><stop stop-opacity="1" stop-color="rgb(97.372437%, 76.124573%, 19.662476%)" offset="0.859375"/><stop stop-opacity="1" stop-color="rgb(97.325134%, 75.846863%, 19.621277%)" offset="0.875"/><stop stop-opacity="1" stop-color="rgb(97.299194%, 75.70343%, 19.599915%)" offset="1"/></linearGradient><clipPath id="ee6d460e82"><path d="M 78 25 L 88 25 L 88 30 L 78 30 Z M 78 25 " clip-rule="nonzero"/></clipPath><clipPath id="1f4dff0f2d"><path d="M 81.75 32.96875 L 77.648438 27.191406 L 83.609375 22.960938 L 87.710938 28.734375 Z M 81.75 32.96875 " clip-rule="nonzero"/></clipPath><clipPath id="d7e8560e88"><path d="M 81.75 32.96875 L 77.648438 27.191406 L 83.609375 22.960938 L 87.710938 28.734375 Z M 81.75 32.96875 " clip-rule="nonzero"/></clipPath><clipPath id="662d5d8238"><path d="M 73.988281 27.472656 L 76.566406 27.472656 L 76.566406 30.050781 L 73.988281 30.050781 Z M 73.988281 27.472656 " clip-rule="nonzero"/></clipPath><clipPath id="4ad7bcfa75"><path d="M 75.277344 27.472656 C 74.566406 27.472656 73.988281 28.046875 73.988281 28.761719 C 73.988281 29.472656 74.566406 30.050781 75.277344 30.050781 C 75.988281 30.050781 76.566406 29.472656 76.566406 28.761719 C 76.566406 28.046875 75.988281 27.472656 75.277344 27.472656 Z M 75.277344 27.472656 " clip-rule="nonzero"/></clipPath><clipPath id="86c494d337"><path d="M 70 62 L 78 62 L 78 67 L 70 67 Z M 70 62 " clip-rule="nonzero"/></clipPath><clipPath id="68bba87b71"><path d="M 70.792969 61.84375 L 77.597656 62.96875 L 76.917969 67.074219 L 70.117188 65.949219 Z M 70.792969 61.84375 " clip-rule="nonzero"/></clipPath><clipPath id="7f27b44ac0"><path d="M 74.191406 62.402344 C 72.316406 62.09375 70.644531 62.761719 70.457031 63.898438 C 70.269531 65.03125 71.636719 66.203125 73.511719 66.511719 C 75.386719 66.820312 77.058594 66.152344 77.246094 65.019531 C 77.433594 63.882812 76.066406 62.714844 74.191406 62.402344 Z M 74.191406 62.402344 " clip-rule="nonzero"/></clipPath><clipPath id="63b3a54b46"><path d="M 76 68 L 87 68 L 87 71 L 76 71 Z M 76 68 " clip-rule="nonzero"/></clipPath><clipPath id="4afabde335"><path d="M 76.640625 68.316406 L 86.300781 67.835938 L 86.414062 70.167969 L 76.753906 70.648438 Z M 76.640625 68.316406 " clip-rule="nonzero"/></clipPath><clipPath id="c7a18c249c"><path d="M 81.46875 68.074219 C 78.800781 68.207031 76.664062 68.839844 76.699219 69.480469 C 76.730469 70.125 78.917969 70.542969 81.582031 70.410156 C 84.25 70.277344 86.386719 69.644531 86.351562 69 C 86.320312 68.359375 84.132812 67.941406 81.46875 68.074219 Z M 81.46875 68.074219 " clip-rule="nonzero"/></clipPath><clipPath id="2ec8c9b90e"><path d="M 69 70 L 74 70 L 74 75 L 69 75 Z M 69 70 " clip-rule="nonzero"/></clipPath><clipPath id="5b7bdbe518"><path d="M 69.851562 70.042969 L 73.808594 70.695312 L 73.128906 74.808594 L 69.171875 74.15625 Z M 69.851562 70.042969 " clip-rule="nonzero"/></clipPath><clipPath id="dcf2fc0046"><path d="M 71.828125 70.371094 C 70.738281 70.1875 69.699219 70.960938 69.511719 72.097656 C 69.324219 73.230469 70.058594 74.296875 71.152344 74.476562 C 72.242188 74.65625 73.28125 73.886719 73.46875 72.75 C 73.65625 71.617188 72.921875 70.550781 71.828125 70.371094 Z M 71.828125 70.371094 " clip-rule="nonzero"/></clipPath><clipPath id="ba34f37053"><path d="M 83 62 L 87 62 L 87 65 L 83 65 Z M 83 62 " clip-rule="nonzero"/></clipPath><clipPath id="6e429b78f1"><path d="M 83.945312 62.25 L 86.210938 62.621094 L 85.820312 64.972656 L 83.558594 64.601562 Z M 83.945312 62.25 " clip-rule="nonzero"/></clipPath><clipPath id="58bbefb924"><path d="M 85.078125 62.4375 C 84.453125 62.332031 83.859375 62.773438 83.753906 63.421875 C 83.644531 64.070312 84.066406 64.679688 84.691406 64.785156 C 85.316406 64.886719 85.910156 64.445312 86.015625 63.796875 C 86.121094 63.148438 85.703125 62.539062 85.078125 62.4375 Z M 85.078125 62.4375 " clip-rule="nonzero"/></clipPath><clipPath id="fbd03b7340"><path d="M 43 40 L 50 40 L 50 47 L 43 47 Z M 43 40 " clip-rule="nonzero"/></clipPath><clipPath id="560d4c48eb"><path d="M 48.097656 47.089844 L 42.40625 43.195312 L 44.761719 39.761719 L 50.449219 43.65625 Z M 48.097656 47.089844 " clip-rule="nonzero"/></clipPath><clipPath id="b214845cba"><path d="M 45.257812 45.148438 C 46.824219 46.222656 48.621094 46.324219 49.273438 45.375 C 49.921875 44.425781 49.175781 42.785156 47.609375 41.710938 C 46.042969 40.636719 44.242188 40.535156 43.59375 41.484375 C 42.945312 42.433594 43.6875 44.074219 45.257812 45.148438 Z M 45.257812 45.148438 " clip-rule="nonzero"/></clipPath><clipPath id="6424f7d996"><path d="M 37 33 L 47 33 L 47 38 L 37 38 Z M 37 33 " clip-rule="nonzero"/></clipPath><clipPath id="350dd7eb8f"><path d="M 45.539062 38.753906 L 36.582031 35.105469 L 37.464844 32.941406 L 46.421875 36.59375 Z M 45.539062 38.753906 " clip-rule="nonzero"/></clipPath><clipPath id="f7f6091c5c"><path d="M 41.0625 36.929688 C 43.535156 37.9375 45.734375 38.269531 45.980469 37.671875 C 46.222656 37.078125 44.417969 35.773438 41.945312 34.765625 C 39.472656 33.757812 37.269531 33.425781 37.027344 34.023438 C 36.785156 34.621094 38.589844 35.921875 41.0625 36.929688 Z M 41.0625 36.929688 " clip-rule="nonzero"/></clipPath><clipPath id="b9b626106e"><path d="M 49 35 L 54 35 L 54 40 L 49 40 Z M 49 35 " clip-rule="nonzero"/></clipPath><clipPath id="719aa7545b"><path d="M 52.421875 40.0625 L 49.113281 37.796875 L 51.46875 34.355469 L 54.777344 36.625 Z M 52.421875 40.0625 " clip-rule="nonzero"/></clipPath><clipPath id="38d532732c"><path d="M 50.765625 38.929688 C 51.679688 39.554688 52.949219 39.292969 53.597656 38.34375 C 54.246094 37.398438 54.035156 36.121094 53.121094 35.496094 C 52.207031 34.867188 50.9375 35.128906 50.289062 36.078125 C 49.640625 37.027344 49.855469 38.304688 50.765625 38.929688 Z M 50.765625 38.929688 " clip-rule="nonzero"/></clipPath><clipPath id="e300caadf8"><path d="M 34 38 L 38 38 L 38 41 L 34 41 Z M 34 38 " clip-rule="nonzero"/></clipPath><clipPath id="a588689199"><path d="M 36.351562 41.164062 L 34.457031 39.867188 L 35.804688 37.902344 L 37.695312 39.195312 Z M 36.351562 41.164062 " clip-rule="nonzero"/></clipPath><clipPath id="e32bc5893f"><path d="M 35.402344 40.515625 C 35.925781 40.871094 36.652344 40.722656 37.023438 40.179688 C 37.394531 39.636719 37.273438 38.910156 36.75 38.550781 C 36.226562 38.191406 35.503906 38.34375 35.128906 38.886719 C 34.757812 39.425781 34.882812 40.15625 35.402344 40.515625 Z M 35.402344 40.515625 " clip-rule="nonzero"/></clipPath><clipPath id="e32048877d"><path d="M 120 59 L 130 59 L 130 64 L 120 64 Z M 120 59 " clip-rule="nonzero"/></clipPath><clipPath id="bbfec24ce9"><path d="M 129.878906 60.523438 L 121.019531 64.402344 L 120.082031 62.261719 L 128.941406 58.382812 Z M 129.878906 60.523438 " clip-rule="nonzero"/></clipPath><clipPath id="72740624cc"><path d="M 125.449219 62.460938 C 127.898438 61.390625 129.667969 60.042969 129.410156 59.453125 C 129.152344 58.859375 126.960938 59.25 124.515625 60.320312 C 122.070312 61.390625 120.296875 62.738281 120.554688 63.328125 C 120.8125 63.921875 123.003906 63.53125 125.449219 62.460938 Z M 125.449219 62.460938 " clip-rule="nonzero"/></clipPath><clipPath id="f503b2522b"><path d="M 122 66 L 125 66 L 125 70 L 122 70 Z M 122 66 " clip-rule="nonzero"/></clipPath><clipPath id="42ba555f2e"><path d="M 125.203125 68.789062 L 122.953125 69.242188 L 122.484375 66.90625 L 124.730469 66.453125 Z M 125.203125 68.789062 " clip-rule="nonzero"/></clipPath><clipPath id="8f72fbac42"><path d="M 124.078125 69.015625 C 124.699219 68.890625 125.097656 68.265625 124.964844 67.621094 C 124.835938 66.980469 124.226562 66.558594 123.605469 66.683594 C 122.984375 66.808594 122.589844 67.433594 122.71875 68.078125 C 122.847656 68.722656 123.457031 69.140625 124.078125 69.015625 Z M 124.078125 69.015625 " clip-rule="nonzero"/></clipPath></defs><g clip-path="url(#153fbd551a)"><g clip-path="url(#985b785810)"><path fill="#f8c038" d="M 15.375 13.199219 L 132.019531 13.199219 L 132.019531 125.035156 L 15.375 125.035156 Z M 15.375 13.199219 " fill-opacity="1" fill-rule="nonzero"/></g></g><g clip-path="url(#2e09dae86d)"><g clip-path="url(#7de3b6d5be)"><g clip-path="url(#7b2de09e92)"><path fill="#f8c038" d="M 146.628906 84.738281 L 147.375 104.222656 L 131.6875 104.828125 L 130.941406 85.339844 Z M 146.628906 84.738281 " fill-opacity="1" fill-rule="nonzero"/></g></g></g><g clip-path="url(#81316930d2)"><g clip-path="url(#97c9f47478)"><g clip-path="url(#ef21d7d77d)"><path fill="#f09020" d="M 111.042969 141.597656 L 85.035156 148.847656 L 80.191406 131.464844 L 106.195312 124.214844 Z M 111.042969 141.597656 " fill-opacity="1" fill-rule="nonzero"/></g></g></g><g clip-path="url(#267534c1d1)"><g clip-path="url(#88ab95a431)"><g clip-path="url(#cd64845619)"><path fill="#f09020" d="M 113.636719 148.710938 L 87.46875 142.066406 L 91.914062 124.574219 L 118.078125 131.222656 Z M 113.636719 148.710938 " fill-opacity="1" fill-rule="nonzero"/></g></g></g><g clip-path="url(#14ab99429d)"><g clip-path="url(#9a616355de)"><g clip-path="url(#21b19cb995)"><path fill="#f09020" d="M 64.5 141.453125 L 38.535156 148.855469 L 33.585938 131.503906 L 59.550781 124.097656 Z M 64.5 141.453125 " fill-opacity="1" fill-rule="nonzero"/></g></g></g><g clip-path="url(#cba4406b8a)"><g clip-path="url(#13c8a29596)"><g clip-path="url(#93446c1f75)"><path fill="#f09020" d="M 67.136719 148.550781 L 40.929688 142.058594 L 45.269531 124.542969 L 71.472656 131.035156 Z M 67.136719 148.550781 " fill-opacity="1" fill-rule="nonzero"/></g></g></g><g clip-path="url(#28116688a3)"><g clip-path="url(#904713ec84)"><path fill="#fddc66" d="M 34.730469 51.894531 L 114.625 51.894531 L 114.625 120.070312 L 34.730469 120.070312 Z M 34.730469 51.894531 " fill-opacity="1" fill-rule="nonzero"/></g></g><g clip-path="url(#f97a4e03c8)"><g clip-path="url(#f4f1d18d65)"><path fill="#ffffff" d="M 44.023438 34.671875 L 70.894531 34.671875 L 70.894531 69.101562 L 44.023438 69.101562 Z M 44.023438 34.671875 " fill-opacity="1" fill-rule="nonzero"/></g></g><g clip-path="url(#2a2456e8bc)"><g clip-path="url(#0f854b00f9)"><path fill="#ffffff" d="M 76.71875 34.671875 L 103.589844 34.671875 L 103.589844 69.101562 L 76.71875 69.101562 Z M 76.71875 34.671875 " fill-opacity="1" fill-rule="nonzero"/></g></g><g clip-path="url(#8d85b6cc28)"><g clip-path="url(#12c848f021)"><path fill="#4b4b4b" d="M 82.472656 41.675781 L 97.835938 41.675781 L 97.835938 62.863281 L 82.472656 62.863281 Z M 82.472656 41.675781 " fill-opacity="1" fill-rule="nonzero"/></g></g><g clip-path="url(#7f8ac5ed41)"><g clip-path="url(#d6f9e99ed4)"><path fill="#ffffff" d="M 88.9375 41.679688 L 95.777344 41.679688 L 95.777344 49.503906 L 88.9375 49.503906 Z M 88.9375 41.679688 " fill-opacity="1" fill-rule="nonzero"/></g></g><g clip-path="url(#7c66e24121)"><g clip-path="url(#19f4579702)"><path fill="#4b4b4b" d="M 49.285156 41.296875 L 64.652344 41.296875 L 64.652344 62.480469 L 49.285156 62.480469 Z M 49.285156 41.296875 " fill-opacity="1" fill-rule="nonzero"/></g></g><g clip-path="url(#18af5a9d81)"><g clip-path="url(#621f6bc6ca)"><path fill="#ffffff" d="M 56.425781 41.296875 L 63.261719 41.296875 L 63.261719 49.125 L 56.425781 49.125 Z M 56.425781 41.296875 " fill-opacity="1" fill-rule="nonzero"/></g></g><g clip-path="url(#9fb124141f)"><path fill="#f86018" d="M 83.988281 68.875 C 83.988281 69.539062 83.921875 70.195312 83.792969 70.847656 C 83.664062 71.5 83.472656 72.132812 83.21875 72.746094 C 82.964844 73.359375 82.652344 73.945312 82.28125 74.496094 C 81.914062 75.050781 81.492188 75.558594 81.023438 76.03125 C 80.554688 76.5 80.042969 76.917969 79.488281 77.289062 C 78.9375 77.65625 78.355469 77.96875 77.738281 78.222656 C 77.125 78.476562 76.492188 78.671875 75.839844 78.800781 C 75.1875 78.929688 74.53125 78.996094 73.867188 78.996094 C 73.203125 78.996094 72.542969 78.929688 71.890625 78.800781 C 71.238281 78.671875 70.605469 78.476562 69.992188 78.222656 C 69.378906 77.96875 68.796875 77.65625 68.242188 77.289062 C 67.691406 76.917969 67.179688 76.5 66.710938 76.03125 C 66.238281 75.558594 65.820312 75.050781 65.449219 74.496094 C 65.082031 73.945312 64.769531 73.359375 64.515625 72.746094 C 64.261719 72.132812 64.070312 71.5 63.941406 70.847656 C 63.808594 70.195312 63.746094 69.539062 63.746094 68.875 C 63.746094 68.207031 63.808594 67.550781 63.941406 66.898438 C 64.070312 66.246094 64.261719 65.613281 64.515625 65 C 64.769531 64.386719 65.082031 63.800781 65.449219 63.25 C 65.820312 62.699219 66.238281 62.1875 66.710938 61.714844 C 67.179688 61.246094 67.691406 60.828125 68.242188 60.457031 C 68.796875 60.089844 69.378906 59.777344 69.992188 59.523438 C 70.605469 59.269531 71.238281 59.074219 71.890625 58.945312 C 72.542969 58.816406 73.203125 58.75 73.867188 58.75 C 74.53125 58.75 75.1875 58.816406 75.839844 58.945312 C 76.492188 59.074219 77.125 59.269531 77.738281 59.523438 C 78.355469 59.777344 78.9375 60.089844 79.488281 60.457031 C 80.042969 60.828125 80.554688 61.246094 81.023438 61.714844 C 81.492188 62.1875 81.914062 62.699219 82.28125 63.25 C 82.652344 63.800781 82.964844 64.386719 83.21875 65 C 83.472656 65.613281 83.664062 66.246094 83.792969 66.898438 C 83.921875 67.550781 83.988281 68.207031 83.988281 68.875 Z M 83.988281 68.875 " fill-opacity="1" fill-rule="nonzero"/></g><g clip-path="url(#095883d74d)"><path fill="#f09020" d="M 86.636719 72.0625 C 86.636719 72.90625 86.550781 73.738281 86.386719 74.566406 C 86.222656 75.390625 85.980469 76.195312 85.660156 76.972656 C 85.335938 77.75 84.941406 78.488281 84.472656 79.191406 C 84.003906 79.890625 83.472656 80.539062 82.878906 81.132812 C 82.28125 81.730469 81.632812 82.261719 80.933594 82.730469 C 80.234375 83.195312 79.492188 83.59375 78.714844 83.914062 C 77.9375 84.238281 77.136719 84.480469 76.308594 84.644531 C 75.484375 84.808594 74.648438 84.890625 73.804688 84.890625 C 72.964844 84.890625 72.128906 84.808594 71.304688 84.644531 C 70.476562 84.480469 69.675781 84.238281 68.898438 83.914062 C 68.117188 83.59375 67.378906 83.195312 66.679688 82.730469 C 65.976562 82.261719 65.332031 81.730469 64.734375 81.132812 C 64.140625 80.539062 63.605469 79.890625 63.140625 79.191406 C 62.671875 78.488281 62.277344 77.75 61.953125 76.972656 C 61.632812 76.195312 61.386719 75.390625 61.222656 74.566406 C 61.058594 73.738281 60.976562 72.90625 60.976562 72.0625 C 60.976562 71.21875 61.058594 70.386719 61.222656 69.558594 C 61.386719 68.734375 61.632812 67.929688 61.953125 67.152344 C 62.277344 66.375 62.671875 65.636719 63.140625 64.933594 C 63.605469 64.234375 64.140625 63.585938 64.734375 62.992188 C 65.332031 62.394531 65.976562 61.863281 66.679688 61.394531 C 67.378906 60.925781 68.117188 60.53125 68.898438 60.210938 C 69.675781 59.886719 70.476562 59.644531 71.304688 59.480469 C 72.128906 59.316406 72.964844 59.234375 73.804688 59.234375 C 74.648438 59.234375 75.484375 59.316406 76.308594 59.480469 C 77.136719 59.644531 77.9375 59.886719 78.714844 60.210938 C 79.492188 60.53125 80.234375 60.925781 80.933594 61.394531 C 81.632812 61.863281 82.28125 62.394531 82.878906 62.992188 C 83.472656 63.585938 84.003906 64.234375 84.472656 64.933594 C 84.941406 65.636719 85.335938 66.375 85.660156 67.152344 C 85.980469 67.929688 86.222656 68.734375 86.386719 69.558594 C 86.550781 70.386719 86.636719 71.21875 86.636719 72.0625 Z M 86.636719 72.0625 " fill-opacity="1" fill-rule="nonzero"/></g><g clip-path="url(#7544731a69)"><g clip-path="url(#49c6c42f20)"><path fill="#ffffff" d="M 76.925781 61.417969 L 82.269531 61.417969 L 82.269531 65.929688 L 76.925781 65.929688 Z M 76.925781 61.417969 " fill-opacity="1" fill-rule="nonzero"/></g></g><g clip-path="url(#7d89ad6f9f)"><g clip-path="url(#13947a8e3f)"><path fill="#ffffff" d="M 81.613281 66.6875 L 83.914062 66.6875 L 83.914062 68.984375 L 81.613281 68.984375 Z M 81.613281 66.6875 " fill-opacity="1" fill-rule="nonzero"/></g></g><path stroke-linecap="round" transform="matrix(-0.22845, -0.00000000039872, 0.00000000039872, -0.22845, 67.253136, 69.456356)" fill="none" stroke-linejoin="miter" d="M 1.501336 1.501751 L 17.454669 1.501751 " stroke="#c8831a" stroke-width="3" stroke-opacity="1" stroke-miterlimit="4"/><path stroke-linecap="round" transform="matrix(-0.22845, -0.00000000039872, 0.00000000039872, -0.22845, 67.253222, 67.036755)" fill="none" stroke-linejoin="miter" d="M 1.501714 1.494608 L 10.512868 1.494608 " stroke="#c8831a" stroke-width="3" stroke-opacity="1" stroke-miterlimit="4"/><path stroke-linecap="round" transform="matrix(-0.22845, -0.00000000039872, 0.00000000039872, -0.22845, 67.253237, 64.799648)" fill="none" stroke-linejoin="miter" d="M 1.501777 1.499747 L 5.451638 1.499747 " stroke="#c8831a" stroke-width="3" stroke-opacity="1" stroke-miterlimit="4"/><g clip-path="url(#7d7ad73042)"><g clip-path="url(#1d58c0c724)"><g clip-path="url(#8162c5d5c8)"><g clip-path="url(#1d82b34746)"><path fill="#39b54a" d="M 104.582031 13.761719 C 104.703125 12.773438 105.09375 10.945312 106.550781 9.605469 C 108.941406 7.402344 113.273438 7.359375 116.976562 9.871094 C 115.570312 13.441406 112.507812 15.765625 109.332031 15.738281 C 107.191406 15.71875 105.59375 14.640625 104.875 14.070312 C 106.039062 13.929688 107.398438 13.675781 108.886719 13.210938 C 111.175781 12.496094 113 11.519531 114.328125 10.667969 C 112.71875 11.382812 110.875 12.09375 108.804688 12.714844 C 107.3125 13.160156 105.894531 13.5 104.582031 13.761719 Z M 104.582031 13.761719 " fill-opacity="1" fill-rule="nonzero"/></g></g></g></g><g clip-path="url(#b78f346ec6)"><g clip-path="url(#7c80db1507)"><g clip-path="url(#5e3b57e8b3)"><g clip-path="url(#1459ffa1b9)"><path fill="#39b54a" d="M 103.503906 13.242188 C 102.796875 13.074219 101.5 12.632812 100.648438 11.457031 C 99.25 9.527344 99.59375 6.363281 101.746094 3.863281 C 104.222656 5.191406 105.652344 7.621094 105.355469 9.941406 C 105.160156 11.503906 104.234375 12.578125 103.753906 13.054688 C 103.753906 12.195312 103.6875 11.179688 103.476562 10.054688 C 103.15625 8.320312 102.601562 6.910156 102.097656 5.867188 C 102.476562 7.101562 102.835938 8.507812 103.109375 10.070312 C 103.304688 11.199219 103.429688 12.261719 103.503906 13.242188 Z M 103.503906 13.242188 " fill-opacity="1" fill-rule="nonzero"/></g></g></g></g><g clip-path="url(#9af7dd2b00)"><g clip-path="url(#309e8a316d)"><g clip-path="url(#17f4dd9a0f)"><path fill="#f8c038" d="M 2.75 105.003906 L 2.085938 85.515625 L 17.773438 84.980469 L 18.4375 104.46875 Z M 2.75 105.003906 " fill-opacity="1" fill-rule="nonzero"/></g></g></g><g clip-path="url(#bbbc963dba)"><g clip-path="url(#dd849b4357)"><g clip-path="url(#e59b692bbe)"><path fill="#fdf4e8" d="M 67.515625 76.128906 L 74.855469 58.902344 L 132.058594 83.273438 L 124.71875 100.5 Z M 67.515625 76.128906 " fill-opacity="1" fill-rule="nonzero"/></g></g></g><g clip-path="url(#bcd478562f)"><g clip-path="url(#459cd5d35c)"><g clip-path="url(#a2c6aaac4e)"><path fill="#fdf4e8" d="M 127.628906 94.65625 C 126.839844 96.417969 125.96875 98.136719 125.015625 99.8125 C 124.058594 101.484375 123.023438 103.109375 121.910156 104.683594 C 120.792969 106.257812 119.605469 107.769531 118.339844 109.226562 C 117.078125 110.683594 115.746094 112.074219 114.34375 113.398438 C 112.941406 114.726562 111.480469 115.980469 109.957031 117.160156 C 108.433594 118.34375 106.855469 119.449219 105.222656 120.472656 C 103.589844 121.5 101.914062 122.445312 100.1875 123.308594 C 98.460938 124.167969 96.699219 124.945312 94.898438 125.632812 C 93.097656 126.320312 91.265625 126.921875 89.40625 127.429688 C 87.546875 127.9375 85.664062 128.355469 83.765625 128.679688 C 81.863281 129.003906 79.949219 129.230469 78.027344 129.367188 C 76.105469 129.503906 74.179688 129.546875 72.25 129.492188 C 70.324219 129.441406 68.402344 129.292969 66.488281 129.050781 C 64.578125 128.808594 62.679688 128.472656 60.800781 128.046875 C 58.917969 127.617188 57.066406 127.097656 55.234375 126.488281 C 53.40625 125.878906 51.609375 125.179688 49.851562 124.390625 C 48.089844 123.605469 46.371094 122.734375 44.695312 121.777344 C 43.023438 120.824219 41.398438 119.789062 39.824219 118.671875 C 38.25 117.558594 36.738281 116.367188 35.28125 115.105469 C 33.824219 113.839844 32.433594 112.507812 31.105469 111.109375 C 29.78125 109.707031 28.527344 108.246094 27.347656 106.722656 C 26.164062 105.199219 25.058594 103.621094 24.035156 101.988281 C 23.007812 100.355469 22.0625 98.675781 21.199219 96.953125 C 20.339844 95.226562 19.5625 93.464844 18.875 91.660156 C 18.1875 89.859375 17.585938 88.03125 17.078125 86.171875 C 16.570312 84.308594 16.152344 82.429688 15.828125 80.527344 C 15.503906 78.628906 15.277344 76.714844 15.140625 74.792969 C 15.003906 72.867188 14.960938 70.941406 15.015625 69.015625 C 15.066406 67.085938 15.214844 65.167969 15.457031 63.253906 C 15.699219 61.339844 16.035156 59.445312 16.460938 57.5625 C 16.890625 55.683594 17.410156 53.828125 18.019531 52 C 18.628906 50.171875 19.328125 48.375 20.117188 46.613281 C 20.902344 44.855469 21.773438 43.136719 22.730469 41.460938 C 23.683594 39.785156 24.71875 38.164062 25.835938 36.589844 C 26.949219 35.015625 28.140625 33.5 29.402344 32.042969 C 30.667969 30.589844 32 29.195312 33.398438 27.871094 C 34.800781 26.546875 36.261719 25.292969 37.785156 24.109375 C 39.308594 22.929688 40.886719 21.824219 42.519531 20.796875 C 44.152344 19.769531 45.832031 18.828125 47.554688 17.964844 C 49.28125 17.101562 51.042969 16.328125 52.847656 15.640625 C 54.648438 14.949219 56.476562 14.351562 58.335938 13.84375 C 60.199219 13.335938 62.078125 12.917969 63.980469 12.59375 C 65.878906 12.269531 67.792969 12.039062 69.714844 11.902344 C 71.640625 11.765625 73.566406 11.726562 75.492188 11.777344 C 77.421875 11.832031 79.339844 11.980469 81.253906 12.222656 C 83.167969 12.464844 85.0625 12.796875 86.945312 13.226562 C 88.824219 13.65625 90.679688 14.171875 92.507812 14.785156 C 94.335938 15.394531 96.132812 16.09375 97.894531 16.878906 C 99.652344 17.667969 101.371094 18.539062 103.046875 19.492188 C 104.722656 20.449219 106.34375 21.484375 107.917969 22.597656 C 109.492188 23.714844 111.007812 24.902344 112.464844 26.167969 C 113.917969 27.429688 115.3125 28.761719 116.636719 30.164062 C 117.960938 31.566406 119.214844 33.027344 120.398438 34.550781 C 121.578125 36.074219 122.683594 37.652344 123.710938 39.285156 C 124.738281 40.917969 125.679688 42.59375 126.542969 44.320312 C 127.40625 46.046875 128.179688 47.808594 128.867188 49.609375 C 129.558594 51.410156 130.15625 53.242188 130.664062 55.101562 C 131.171875 56.960938 131.589844 58.84375 131.914062 60.742188 C 132.238281 62.644531 132.46875 64.558594 132.605469 66.480469 C 132.742188 68.402344 132.78125 70.328125 132.730469 72.257812 C 132.675781 74.183594 132.527344 76.105469 132.285156 78.019531 C 132.042969 79.929688 131.710938 81.828125 131.28125 83.707031 C 130.851562 85.589844 130.335938 87.441406 129.722656 89.273438 C 129.113281 91.101562 128.414062 92.898438 127.628906 94.65625 Z M 127.628906 94.65625 " fill-opacity="1" fill-rule="nonzero"/></g></g></g><g clip-path="url(#80b59de2ef)"><g clip-path="url(#d1efc940c5)"><g clip-path="url(#cf3aa24967)"><g clip-path="url(#baaf222d25)"><path fill="#fdf4e8" d="M -0.863281 78.800781 L 90.519531 117.734375 L 121.917969 44.03125 L 30.535156 5.097656 Z M -0.863281 78.800781 " fill-opacity="1" fill-rule="nonzero"/></g></g></g></g><g clip-path="url(#fccaf315ed)"><g clip-path="url(#145698337a)"><g clip-path="url(#1fd6489f75)"><g clip-path="url(#7f35e2be0f)"><path fill="url(#e4a69dc1ae)" d="M 67.425781 5.886719 L 50.476562 55.125 L 107.917969 74.890625 L 124.863281 25.65625 Z M 67.425781 5.886719 " fill-rule="nonzero"/></g></g></g></g><g clip-path="url(#f343448a72)"><g clip-path="url(#c0b6d62aea)"><g clip-path="url(#98d0016aa6)"><path fill="#fcda65" d="M 71.550781 18.425781 L 113.679688 34.78125 L 103.417969 61.21875 L 61.289062 44.863281 Z M 71.550781 18.425781 " fill-opacity="1" fill-rule="nonzero"/></g></g></g><g clip-path="url(#0ebf543672)"><g clip-path="url(#6728e24f67)"><g clip-path="url(#6b3fdf491c)"><path fill="#f8c132" d="M 68.375 21.675781 L 111.273438 32.101562 L 106.160156 53.136719 L 63.265625 42.714844 Z M 68.375 21.675781 " fill-opacity="1" fill-rule="nonzero"/></g></g></g><g clip-path="url(#5e011949c3)"><g clip-path="url(#063935ead4)"><g clip-path="url(#8801fb3c40)"><g clip-path="url(#9e012aa095)"><path fill="url(#a734fedffa)" d="M 67.273438 12.652344 L 58.910156 47.074219 L 104.480469 58.148438 L 112.847656 23.726562 Z M 67.273438 12.652344 " fill-rule="nonzero"/></g></g></g></g><g clip-path="url(#ee6d460e82)"><g clip-path="url(#1f4dff0f2d)"><g clip-path="url(#d7e8560e88)"><path fill="#ffffff" d="M 78.136719 27.121094 C 78.027344 27.589844 78.285156 28.085938 78.769531 28.191406 C 78.980469 28.238281 79.203125 28.21875 79.417969 28.210938 C 79.667969 28.207031 79.917969 28.195312 80.164062 28.191406 C 80.640625 28.175781 81.117188 28.160156 81.59375 28.175781 C 81.703125 28.179688 81.816406 28.183594 81.929688 28.183594 L 82.035156 28.203125 C 82.425781 28.277344 82.8125 28.359375 83.1875 28.507812 C 83.5625 28.660156 83.890625 28.871094 84.226562 29.089844 C 84.902344 29.53125 85.726562 29.898438 86.503906 29.472656 C 87.191406 29.09375 87.207031 28.28125 86.835938 27.675781 C 86.4375 27.027344 85.695312 26.605469 85.03125 26.277344 C 84.304688 25.921875 83.539062 25.6875 82.738281 25.578125 C 81.890625 25.457031 81.054688 25.492188 80.222656 25.675781 C 79.769531 25.777344 79.34375 25.949219 78.941406 26.183594 C 78.582031 26.398438 78.234375 26.699219 78.136719 27.121094 Z M 78.136719 27.121094 " fill-opacity="1" fill-rule="nonzero"/></g></g></g><g clip-path="url(#662d5d8238)"><g clip-path="url(#4ad7bcfa75)"><path fill="#ffffff" d="M 73.988281 27.472656 L 76.566406 27.472656 L 76.566406 30.050781 L 73.988281 30.050781 Z M 73.988281 27.472656 " fill-opacity="1" fill-rule="nonzero"/></g></g><g clip-path="url(#86c494d337)"><g clip-path="url(#68bba87b71)"><g clip-path="url(#7f27b44ac0)"><path fill="#e6d6b3" d="M 70.792969 61.84375 L 77.582031 62.964844 L 76.902344 67.070312 L 70.117188 65.949219 Z M 70.792969 61.84375 " fill-opacity="1" fill-rule="nonzero"/></g></g></g><g clip-path="url(#63b3a54b46)"><g clip-path="url(#4afabde335)"><g clip-path="url(#c7a18c249c)"><path fill="#e6d6b3" d="M 76.640625 68.316406 L 86.289062 67.835938 L 86.40625 70.167969 L 76.753906 70.648438 Z M 76.640625 68.316406 " fill-opacity="1" fill-rule="nonzero"/></g></g></g><g clip-path="url(#2ec8c9b90e)"><g clip-path="url(#5b7bdbe518)"><g clip-path="url(#dcf2fc0046)"><path fill="#ffffff" d="M 69.851562 70.042969 L 73.808594 70.695312 L 73.128906 74.808594 L 69.171875 74.15625 Z M 69.851562 70.042969 " fill-opacity="1" fill-rule="nonzero"/></g></g></g><g clip-path="url(#ba34f37053)"><g clip-path="url(#6e429b78f1)"><g clip-path="url(#58bbefb924)"><path fill="#ffffff" d="M 83.945312 62.25 L 86.210938 62.621094 L 85.820312 64.972656 L 83.558594 64.601562 Z M 83.945312 62.25 " fill-opacity="1" fill-rule="nonzero"/></g></g></g><g clip-path="url(#fbd03b7340)"><g clip-path="url(#560d4c48eb)"><g clip-path="url(#b214845cba)"><path fill="#e6d6b3" d="M 48.097656 47.089844 L 42.421875 43.203125 L 44.773438 39.769531 L 50.449219 43.65625 Z M 48.097656 47.089844 " fill-opacity="1" fill-rule="nonzero"/></g></g></g><g clip-path="url(#6424f7d996)"><g clip-path="url(#350dd7eb8f)"><g clip-path="url(#f7f6091c5c)"><path fill="#e6d6b3" d="M 45.539062 38.753906 L 36.589844 35.109375 L 37.472656 32.945312 L 46.421875 36.59375 Z M 45.539062 38.753906 " fill-opacity="1" fill-rule="nonzero"/></g></g></g><g clip-path="url(#b9b626106e)"><g clip-path="url(#719aa7545b)"><g clip-path="url(#38d532732c)"><path fill="#ffffff" d="M 52.421875 40.0625 L 49.113281 37.796875 L 51.46875 34.355469 L 54.777344 36.625 Z M 52.421875 40.0625 " fill-opacity="1" fill-rule="nonzero"/></g></g></g><g clip-path="url(#e300caadf8)"><g clip-path="url(#a588689199)"><g clip-path="url(#e32bc5893f)"><path fill="#ffffff" d="M 36.351562 41.164062 L 34.457031 39.867188 L 35.804688 37.902344 L 37.695312 39.195312 Z M 36.351562 41.164062 " fill-opacity="1" fill-rule="nonzero"/></g></g></g><g clip-path="url(#e32048877d)"><g clip-path="url(#bbfec24ce9)"><g clip-path="url(#72740624cc)"><path fill="#e6d6b3" d="M 129.878906 60.523438 L 121.027344 64.398438 L 120.089844 62.257812 L 128.941406 58.382812 Z M 129.878906 60.523438 " fill-opacity="1" fill-rule="nonzero"/></g></g></g><g clip-path="url(#f503b2522b)"><g clip-path="url(#42ba555f2e)"><g clip-path="url(#8f72fbac42)"><path fill="#ffffff" d="M 125.203125 68.789062 L 122.953125 69.242188 L 122.484375 66.90625 L 124.730469 66.453125 Z M 125.203125 68.789062 " fill-opacity="1" fill-rule="nonzero"/></g></g></g></svg>