<svg xmlns="http://www.w3.org/2000/svg" xmlns:xlink="http://www.w3.org/1999/xlink" width="1080" zoomAndPan="magnify" viewBox="0 0 810 809.999993" height="1080" preserveAspectRatio="xMidYMid meet" version="1.0"><defs><clipPath id="448a4c0c43"><path d="M 202.5 300.519531 L 608 300.519531 L 608 562.949219 L 202.5 562.949219 Z M 202.5 300.519531 " clip-rule="nonzero"/></clipPath><clipPath id="3649d24938"><path d="M 249 300.519531 L 561 300.519531 C 573.332031 300.519531 585.160156 305.417969 593.878906 314.140625 C 602.601562 322.859375 607.5 334.6875 607.5 347.019531 L 607.5 516.449219 C 607.5 528.78125 602.601562 540.609375 593.878906 549.332031 C 585.160156 558.050781 573.332031 562.949219 561 562.949219 L 249 562.949219 C 236.667969 562.949219 224.839844 558.050781 216.121094 549.332031 C 207.398438 540.609375 202.5 528.78125 202.5 516.449219 L 202.5 347.019531 C 202.5 334.6875 207.398438 322.859375 216.121094 314.140625 C 224.839844 305.417969 236.667969 300.519531 249 300.519531 Z M 249 300.519531 " clip-rule="nonzero"/></clipPath><clipPath id="438a0d5ef1"><path d="M 318.59375 242.398438 L 491.96875 242.398438 L 491.96875 400.347656 L 318.59375 400.347656 Z M 318.59375 242.398438 " clip-rule="nonzero"/></clipPath><clipPath id="93b41cf5c4"><path d="M 365.09375 242.398438 L 444.90625 242.398438 C 457.238281 242.398438 469.066406 247.296875 477.785156 256.015625 C 486.507812 264.738281 491.40625 276.5625 491.40625 288.898438 L 491.40625 353.847656 C 491.40625 366.179688 486.507812 378.007812 477.785156 386.726562 C 469.066406 395.449219 457.238281 400.347656 444.90625 400.347656 L 365.09375 400.347656 C 352.761719 400.347656 340.933594 395.449219 332.214844 386.726562 C 323.492188 378.007812 318.59375 366.179688 318.59375 353.847656 L 318.59375 288.898438 C 318.59375 276.5625 323.492188 264.738281 332.214844 256.015625 C 340.933594 247.296875 352.761719 242.398438 365.09375 242.398438 Z M 365.09375 242.398438 " clip-rule="nonzero"/></clipPath><clipPath id="af4784de26"><path d="M 305.382812 332.867188 L 504.617188 332.867188 L 504.617188 532.101562 L 305.382812 532.101562 Z M 305.382812 332.867188 " clip-rule="nonzero"/></clipPath><clipPath id="38441c0c2c"><path d="M 405 332.867188 C 349.980469 332.867188 305.382812 377.46875 305.382812 432.484375 C 305.382812 487.503906 349.980469 532.101562 405 532.101562 C 460.019531 532.101562 504.617188 487.503906 504.617188 432.484375 C 504.617188 377.46875 460.019531 332.867188 405 332.867188 Z M 405 332.867188 " clip-rule="nonzero"/></clipPath><clipPath id="243f5f86c5"><path d="M 305.382812 332.867188 L 504.882812 332.867188 L 504.882812 532.367188 L 305.382812 532.367188 Z M 305.382812 332.867188 " clip-rule="nonzero"/></clipPath><clipPath id="f9fecb29ad"><path d="M 404.996094 332.867188 C 349.980469 332.867188 305.382812 377.464844 305.382812 432.480469 C 305.382812 487.496094 349.980469 532.097656 404.996094 532.097656 C 460.011719 532.097656 504.613281 487.496094 504.613281 432.480469 C 504.613281 377.464844 460.011719 332.867188 404.996094 332.867188 Z M 404.996094 332.867188 " clip-rule="nonzero"/></clipPath><clipPath id="0132b774c5"><path d="M 545.121094 337.109375 L 573.277344 337.109375 L 573.277344 365.261719 L 545.121094 365.261719 Z M 545.121094 337.109375 " clip-rule="nonzero"/></clipPath><clipPath id="2f6813dc96"><path d="M 559.199219 337.109375 C 551.425781 337.109375 545.121094 343.410156 545.121094 351.183594 C 545.121094 358.960938 551.425781 365.261719 559.199219 365.261719 C 566.976562 365.261719 573.277344 358.960938 573.277344 351.183594 C 573.277344 343.410156 566.976562 337.109375 559.199219 337.109375 Z M 559.199219 337.109375 " clip-rule="nonzero"/></clipPath><clipPath id="de269b3014"><path d="M 318.59375 284.296875 L 491.40625 284.296875 L 491.40625 300.519531 L 318.59375 300.519531 Z M 318.59375 284.296875 " clip-rule="nonzero"/></clipPath></defs><g clip-path="url(#448a4c0c43)"><g clip-path="url(#3649d24938)"><path fill="#a6a6a6" d="M 202.5 300.519531 L 607.421875 300.519531 L 607.421875 562.949219 L 202.5 562.949219 Z M 202.5 300.519531 " fill-opacity="1" fill-rule="nonzero"/></g></g><g clip-path="url(#438a0d5ef1)"><g clip-path="url(#93b41cf5c4)"><path fill="#a6a6a6" d="M 318.59375 242.398438 L 491.351562 242.398438 L 491.351562 400.347656 L 318.59375 400.347656 Z M 318.59375 242.398438 " fill-opacity="1" fill-rule="nonzero"/></g></g><g clip-path="url(#af4784de26)"><g clip-path="url(#38441c0c2c)"><path fill="#ccecff" d="M 305.382812 332.867188 L 504.617188 332.867188 L 504.617188 532.101562 L 305.382812 532.101562 Z M 305.382812 332.867188 " fill-opacity="1" fill-rule="nonzero"/></g></g><g clip-path="url(#243f5f86c5)"><g clip-path="url(#f9fecb29ad)"><path stroke-linecap="butt" transform="matrix(0.75, 0, 0, 0.75, 305.381619, 332.866174)" fill="none" stroke-linejoin="miter" d="M 132.819307 0.00135073 C 59.465137 0.00135073 0.00159195 59.464895 0.00159195 132.819066 C 0.00159195 206.173236 59.465137 265.641989 132.819307 265.641989 C 206.173477 265.641989 265.64223 206.173236 265.64223 132.819066 C 265.64223 59.464895 206.173477 0.00135073 132.819307 0.00135073 Z M 132.819307 0.00135073 " stroke="#ffffff" stroke-width="98" stroke-opacity="1" stroke-miterlimit="4"/></g></g><g clip-path="url(#0132b774c5)"><g clip-path="url(#2f6813dc96)"><path fill="#ffffff" d="M 545.121094 337.109375 L 573.277344 337.109375 L 573.277344 365.261719 L 545.121094 365.261719 Z M 545.121094 337.109375 " fill-opacity="1" fill-rule="nonzero"/></g></g><g clip-path="url(#de269b3014)"><path fill="#dd2e44" d="M 318.59375 284.296875 L 491.394531 284.296875 L 491.394531 300.519531 L 318.59375 300.519531 Z M 318.59375 284.296875 " fill-opacity="1" fill-rule="nonzero"/></g></svg>