<svg xmlns="http://www.w3.org/2000/svg" xmlns:xlink="http://www.w3.org/1999/xlink" width="200" zoomAndPan="magnify" viewBox="0 0 150 149.999998" height="200" preserveAspectRatio="xMidYMid meet" version="1.0"><defs><clipPath id="8ed4217439"><path d="M 3.929688 39.148438 L 146.402344 39.148438 L 146.402344 131.25 L 3.929688 131.25 Z M 3.929688 39.148438 " clip-rule="nonzero"/></clipPath><clipPath id="57eeecee6e"><path d="M 26.429688 39.148438 L 123.570312 39.148438 C 129.535156 39.148438 135.257812 41.519531 139.476562 45.738281 C 143.699219 49.957031 146.070312 55.679688 146.070312 61.648438 L 146.070312 108.75 C 146.070312 114.71875 143.699219 120.441406 139.476562 124.660156 C 135.257812 128.878906 129.535156 131.25 123.570312 131.25 L 26.429688 131.25 C 20.464844 131.25 14.742188 128.878906 10.523438 124.660156 C 6.300781 120.441406 3.929688 114.71875 3.929688 108.75 L 3.929688 61.648438 C 3.929688 55.679688 6.300781 49.957031 10.523438 45.738281 C 14.742188 41.519531 20.464844 39.148438 26.429688 39.148438 Z M 26.429688 39.148438 " clip-rule="nonzero"/></clipPath><clipPath id="310d072be4"><path d="M 44.675781 18.75 L 105.523438 18.75 L 105.523438 74.183594 L 44.675781 74.183594 Z M 44.675781 18.75 " clip-rule="nonzero"/></clipPath><clipPath id="3b7a46f165"><path d="M 72.390625 18.75 L 77.609375 18.75 C 84.957031 18.75 92.007812 21.671875 97.207031 26.867188 C 102.40625 32.066406 105.324219 39.117188 105.324219 46.464844 C 105.324219 53.816406 102.40625 60.867188 97.207031 66.066406 C 92.007812 71.261719 84.957031 74.183594 77.609375 74.183594 L 72.390625 74.183594 C 57.085938 74.183594 44.675781 61.773438 44.675781 46.464844 C 44.675781 31.160156 57.085938 18.75 72.390625 18.75 Z M 72.390625 18.75 " clip-rule="nonzero"/></clipPath><clipPath id="e2e0aef09a"><path d="M 40.039062 50.5 L 109.960938 50.5 L 109.960938 120.425781 L 40.039062 120.425781 Z M 40.039062 50.5 " clip-rule="nonzero"/></clipPath><clipPath id="d2bdf1b428"><path d="M 75 50.5 C 55.691406 50.5 40.039062 66.152344 40.039062 85.460938 C 40.039062 104.769531 55.691406 120.425781 75 120.425781 C 94.308594 120.425781 109.960938 104.769531 109.960938 85.460938 C 109.960938 66.152344 94.308594 50.5 75 50.5 Z M 75 50.5 " clip-rule="nonzero"/></clipPath><clipPath id="9f0e89e2d7"><path d="M 40.039062 50.5 L 110 50.5 L 110 120.515625 L 40.039062 120.515625 Z M 40.039062 50.5 " clip-rule="nonzero"/></clipPath><clipPath id="9a6033474a"><path d="M 75 50.5 C 55.691406 50.5 40.039062 66.152344 40.039062 85.460938 C 40.039062 104.769531 55.691406 120.421875 75 120.421875 C 94.308594 120.421875 109.960938 104.769531 109.960938 85.460938 C 109.960938 66.152344 94.308594 50.5 75 50.5 Z M 75 50.5 " clip-rule="nonzero"/></clipPath><clipPath id="fc251f352e"><path d="M 124.175781 51.988281 L 134.058594 51.988281 L 134.058594 61.871094 L 124.175781 61.871094 Z M 124.175781 51.988281 " clip-rule="nonzero"/></clipPath><clipPath id="62b12cffd2"><path d="M 129.117188 51.988281 C 126.390625 51.988281 124.175781 54.203125 124.175781 56.929688 C 124.175781 59.660156 126.390625 61.871094 129.117188 61.871094 C 131.847656 61.871094 134.058594 59.660156 134.058594 56.929688 C 134.058594 54.203125 131.847656 51.988281 129.117188 51.988281 Z M 129.117188 51.988281 " clip-rule="nonzero"/></clipPath><clipPath id="b8c9a23e19"><path d="M 44.675781 33.457031 L 105.34375 33.457031 L 105.34375 39.148438 L 44.675781 39.148438 Z M 44.675781 33.457031 " clip-rule="nonzero"/></clipPath><clipPath id="a75952d053"><path d="M 47.523438 33.457031 L 102.476562 33.457031 C 104.050781 33.457031 105.324219 34.730469 105.324219 36.300781 C 105.324219 37.875 104.050781 39.148438 102.476562 39.148438 L 47.523438 39.148438 C 45.949219 39.148438 44.675781 37.875 44.675781 36.300781 C 44.675781 34.730469 45.949219 33.457031 47.523438 33.457031 Z M 47.523438 33.457031 " clip-rule="nonzero"/></clipPath></defs><g clip-path="url(#8ed4217439)"><g clip-path="url(#57eeecee6e)"><path fill="#a6a6a6" d="M 3.929688 39.148438 L 146.042969 39.148438 L 146.042969 131.25 L 3.929688 131.25 Z M 3.929688 39.148438 " fill-opacity="1" fill-rule="nonzero"/></g></g><g clip-path="url(#310d072be4)"><g clip-path="url(#3b7a46f165)"><path fill="#a6a6a6" d="M 44.675781 18.75 L 105.304688 18.75 L 105.304688 74.183594 L 44.675781 74.183594 Z M 44.675781 18.75 " fill-opacity="1" fill-rule="nonzero"/></g></g><g clip-path="url(#e2e0aef09a)"><g clip-path="url(#d2bdf1b428)"><path fill="#ccecff" d="M 40.039062 50.5 L 109.960938 50.5 L 109.960938 120.425781 L 40.039062 120.425781 Z M 40.039062 50.5 " fill-opacity="1" fill-rule="nonzero"/></g></g><g clip-path="url(#9f0e89e2d7)"><g clip-path="url(#9a6033474a)"><path stroke-linecap="butt" transform="matrix(0.263217, 0, 0, 0.263217, 40.038386, 50.500813)" fill="none" stroke-linejoin="miter" d="M 132.824481 -0.00309044 C 59.4682 -0.00309044 0.00256908 59.462541 0.00256908 132.818821 C 0.00256908 206.175102 59.4682 265.640733 132.824481 265.640733 C 206.180761 265.640733 265.646392 206.175102 265.646392 132.818821 C 265.646392 59.462541 206.180761 -0.00309044 132.824481 -0.00309044 Z M 132.824481 -0.00309044 " stroke="#ffffff" stroke-width="68.384735" stroke-opacity="1" stroke-miterlimit="4"/></g></g><g clip-path="url(#fc251f352e)"><g clip-path="url(#62b12cffd2)"><path fill="#ffffff" d="M 124.175781 51.988281 L 134.058594 51.988281 L 134.058594 61.871094 L 124.175781 61.871094 Z M 124.175781 51.988281 " fill-opacity="1" fill-rule="nonzero"/></g></g><g clip-path="url(#b8c9a23e19)"><g clip-path="url(#a75952d053)"><path fill="#dd2e44" d="M 44.675781 33.457031 L 105.320312 33.457031 L 105.320312 39.148438 L 44.675781 39.148438 Z M 44.675781 33.457031 " fill-opacity="1" fill-rule="nonzero"/></g></g></svg>