<svg xmlns="http://www.w3.org/2000/svg" xmlns:xlink="http://www.w3.org/1999/xlink" width="200" zoomAndPan="magnify" viewBox="0 0 150 149.999998" height="200" preserveAspectRatio="xMidYMid meet" version="1.0"><defs><clipPath id="c16444d9b3"><path d="M 8.585938 46.859375 L 146.664062 46.859375 L 146.664062 144.238281 L 8.585938 144.238281 Z M 8.585938 46.859375 " clip-rule="nonzero"/></clipPath><clipPath id="edf3ba47e8"><path d="M 38.585938 46.859375 L 116.542969 46.859375 C 124.496094 46.859375 132.128906 50.019531 137.753906 55.648438 C 143.378906 61.273438 146.542969 68.902344 146.542969 76.859375 L 146.542969 114.238281 C 146.542969 122.195312 143.378906 129.824219 137.753906 135.449219 C 132.128906 141.078125 124.496094 144.238281 116.542969 144.238281 L 38.585938 144.238281 C 30.628906 144.238281 23 141.078125 17.371094 135.449219 C 11.746094 129.824219 8.585938 122.195312 8.585938 114.238281 L 8.585938 76.859375 C 8.585938 68.902344 11.746094 61.273438 17.371094 55.648438 C 23 50.019531 30.628906 46.859375 38.585938 46.859375 Z M 38.585938 46.859375 " clip-rule="nonzero"/></clipPath><clipPath id="fd14c47d9e"><path d="M 8.847656 12.75 L 146.871094 12.75 L 146.871094 61.019531 L 8.847656 61.019531 Z M 8.847656 12.75 " clip-rule="nonzero"/></clipPath><clipPath id="bcdb312660"><path d="M 32.980469 12.75 L 122.664062 12.75 C 135.996094 12.75 146.800781 23.554688 146.800781 36.886719 C 146.800781 50.214844 135.996094 61.019531 122.664062 61.019531 L 32.980469 61.019531 C 19.652344 61.019531 8.847656 50.214844 8.847656 36.886719 C 8.847656 23.554688 19.652344 12.75 32.980469 12.75 Z M 32.980469 12.75 " clip-rule="nonzero"/></clipPath><clipPath id="5c68fd7540"><path d="M 8.847656 39.578125 L 146.800781 39.578125 L 146.800781 75 L 8.847656 75 Z M 8.847656 39.578125 " clip-rule="nonzero"/></clipPath><clipPath id="11c56551e6"><path d="M 15.449219 16.570312 L 34.96875 16.570312 L 34.96875 36.089844 L 15.449219 36.089844 Z M 15.449219 16.570312 " clip-rule="nonzero"/></clipPath><clipPath id="9aa4417b09"><path d="M 25.207031 16.570312 C 19.816406 16.570312 15.449219 20.9375 15.449219 26.328125 C 15.449219 31.71875 19.816406 36.089844 25.207031 36.089844 C 30.597656 36.089844 34.96875 31.71875 34.96875 26.328125 C 34.96875 20.9375 30.597656 16.570312 25.207031 16.570312 Z M 25.207031 16.570312 " clip-rule="nonzero"/></clipPath><clipPath id="aeb94086e2"><path d="M 15.449219 16.570312 L 34.9375 16.570312 L 34.9375 36.058594 L 15.449219 36.058594 Z M 15.449219 16.570312 " clip-rule="nonzero"/></clipPath><clipPath id="0faaa1c5c4"><path d="M 25.207031 16.570312 C 19.816406 16.570312 15.449219 20.9375 15.449219 26.328125 C 15.449219 31.71875 19.816406 36.089844 25.207031 36.089844 C 30.597656 36.089844 34.96875 31.71875 34.96875 26.328125 C 34.96875 20.9375 30.597656 16.570312 25.207031 16.570312 Z M 25.207031 16.570312 " clip-rule="nonzero"/></clipPath><clipPath id="6cb20b8a07"><path d="M 119.65625 16.570312 L 139.175781 16.570312 L 139.175781 36.089844 L 119.65625 36.089844 Z M 119.65625 16.570312 " clip-rule="nonzero"/></clipPath><clipPath id="c58ca4b081"><path d="M 129.417969 16.570312 C 124.027344 16.570312 119.65625 20.9375 119.65625 26.328125 C 119.65625 31.71875 124.027344 36.089844 129.417969 36.089844 C 134.808594 36.089844 139.175781 31.71875 139.175781 26.328125 C 139.175781 20.9375 134.808594 16.570312 129.417969 16.570312 Z M 129.417969 16.570312 " clip-rule="nonzero"/></clipPath><clipPath id="e2e5ad5cb0"><path d="M 119.65625 16.570312 L 139.144531 16.570312 L 139.144531 36.058594 L 119.65625 36.058594 Z M 119.65625 16.570312 " clip-rule="nonzero"/></clipPath><clipPath id="9d3ee83262"><path d="M 129.417969 16.570312 C 124.027344 16.570312 119.65625 20.9375 119.65625 26.328125 C 119.65625 31.71875 124.027344 36.089844 129.417969 36.089844 C 134.808594 36.089844 139.175781 31.71875 139.175781 26.328125 C 139.175781 20.9375 134.808594 16.570312 129.417969 16.570312 Z M 129.417969 16.570312 " clip-rule="nonzero"/></clipPath><clipPath id="ea75aaf08d"><path d="M 21.511719 54.148438 L 39.710938 54.148438 L 39.710938 68.800781 L 21.511719 68.800781 Z M 21.511719 54.148438 " clip-rule="nonzero"/></clipPath><clipPath id="ce8820618c"><path d="M 27.511719 54.148438 L 33.710938 54.148438 C 35.300781 54.148438 36.828125 54.78125 37.953125 55.90625 C 39.078125 57.03125 39.710938 58.554688 39.710938 60.148438 L 39.710938 62.800781 C 39.710938 64.390625 39.078125 65.917969 37.953125 67.042969 C 36.828125 68.167969 35.300781 68.800781 33.710938 68.800781 L 27.511719 68.800781 C 25.921875 68.800781 24.394531 68.167969 23.269531 67.042969 C 22.144531 65.917969 21.511719 64.390625 21.511719 62.800781 L 21.511719 60.148438 C 21.511719 58.554688 22.144531 57.03125 23.269531 55.90625 C 24.394531 54.78125 25.921875 54.148438 27.511719 54.148438 Z M 27.511719 54.148438 " clip-rule="nonzero"/></clipPath><clipPath id="452ca4722c"><path d="M 45.140625 54.148438 L 63.339844 54.148438 L 63.339844 68.800781 L 45.140625 68.800781 Z M 45.140625 54.148438 " clip-rule="nonzero"/></clipPath><clipPath id="99a9d0272f"><path d="M 51.140625 54.148438 L 57.339844 54.148438 C 58.929688 54.148438 60.457031 54.78125 61.582031 55.90625 C 62.707031 57.03125 63.339844 58.554688 63.339844 60.148438 L 63.339844 62.800781 C 63.339844 64.390625 62.707031 65.917969 61.582031 67.042969 C 60.457031 68.167969 58.929688 68.800781 57.339844 68.800781 L 51.140625 68.800781 C 49.546875 68.800781 48.023438 68.167969 46.898438 67.042969 C 45.773438 65.917969 45.140625 64.390625 45.140625 62.800781 L 45.140625 60.148438 C 45.140625 58.554688 45.773438 57.03125 46.898438 55.90625 C 48.023438 54.78125 49.546875 54.148438 51.140625 54.148438 Z M 51.140625 54.148438 " clip-rule="nonzero"/></clipPath><clipPath id="e3ce76b560"><path d="M 68.722656 54.148438 L 86.925781 54.148438 L 86.925781 68.800781 L 68.722656 68.800781 Z M 68.722656 54.148438 " clip-rule="nonzero"/></clipPath><clipPath id="c76998c163"><path d="M 74.722656 54.148438 L 80.921875 54.148438 C 82.515625 54.148438 84.039062 54.78125 85.164062 55.90625 C 86.289062 57.03125 86.921875 58.554688 86.921875 60.148438 L 86.921875 62.800781 C 86.921875 64.390625 86.289062 65.917969 85.164062 67.042969 C 84.039062 68.167969 82.515625 68.800781 80.921875 68.800781 L 74.722656 68.800781 C 73.132812 68.800781 71.605469 68.167969 70.480469 67.042969 C 69.355469 65.917969 68.722656 64.390625 68.722656 62.800781 L 68.722656 60.148438 C 68.722656 58.554688 69.355469 57.03125 70.480469 55.90625 C 71.605469 54.78125 73.132812 54.148438 74.722656 54.148438 Z M 74.722656 54.148438 " clip-rule="nonzero"/></clipPath><clipPath id="6164359efe"><path d="M 92.308594 54.148438 L 110.507812 54.148438 L 110.507812 68.800781 L 92.308594 68.800781 Z M 92.308594 54.148438 " clip-rule="nonzero"/></clipPath><clipPath id="af10ab5af9"><path d="M 98.308594 54.148438 L 104.507812 54.148438 C 106.097656 54.148438 107.625 54.78125 108.75 55.90625 C 109.875 57.03125 110.507812 58.554688 110.507812 60.148438 L 110.507812 62.800781 C 110.507812 64.390625 109.875 65.917969 108.75 67.042969 C 107.625 68.167969 106.097656 68.800781 104.507812 68.800781 L 98.308594 68.800781 C 96.714844 68.800781 95.191406 68.167969 94.066406 67.042969 C 92.941406 65.917969 92.308594 64.390625 92.308594 62.800781 L 92.308594 60.148438 C 92.308594 58.554688 92.941406 57.03125 94.066406 55.90625 C 95.191406 54.78125 96.714844 54.148438 98.308594 54.148438 Z M 98.308594 54.148438 " clip-rule="nonzero"/></clipPath><clipPath id="2aa1be5035"><path d="M 115.890625 54.148438 L 134.09375 54.148438 L 134.09375 68.800781 L 115.890625 68.800781 Z M 115.890625 54.148438 " clip-rule="nonzero"/></clipPath><clipPath id="40c875d42e"><path d="M 121.890625 54.148438 L 128.089844 54.148438 C 129.683594 54.148438 131.207031 54.78125 132.332031 55.90625 C 133.460938 57.03125 134.089844 58.554688 134.089844 60.148438 L 134.089844 62.800781 C 134.089844 64.390625 133.460938 65.917969 132.332031 67.042969 C 131.207031 68.167969 129.683594 68.800781 128.089844 68.800781 L 121.890625 68.800781 C 120.300781 68.800781 118.773438 68.167969 117.648438 67.042969 C 116.523438 65.917969 115.890625 64.390625 115.890625 62.800781 L 115.890625 60.148438 C 115.890625 58.554688 116.523438 57.03125 117.648438 55.90625 C 118.773438 54.78125 120.300781 54.148438 121.890625 54.148438 Z M 121.890625 54.148438 " clip-rule="nonzero"/></clipPath><clipPath id="e61d0a5822"><path d="M 21.535156 73.023438 L 39.734375 73.023438 L 39.734375 87.675781 L 21.535156 87.675781 Z M 21.535156 73.023438 " clip-rule="nonzero"/></clipPath><clipPath id="1c94c5c74c"><path d="M 27.535156 73.023438 L 33.734375 73.023438 C 35.324219 73.023438 36.851562 73.65625 37.976562 74.78125 C 39.101562 75.90625 39.734375 77.433594 39.734375 79.023438 L 39.734375 81.675781 C 39.734375 83.269531 39.101562 84.792969 37.976562 85.917969 C 36.851562 87.042969 35.324219 87.675781 33.734375 87.675781 L 27.535156 87.675781 C 25.941406 87.675781 24.417969 87.042969 23.289062 85.917969 C 22.164062 84.792969 21.535156 83.269531 21.535156 81.675781 L 21.535156 79.023438 C 21.535156 77.433594 22.164062 75.90625 23.289062 74.78125 C 24.417969 73.65625 25.941406 73.023438 27.535156 73.023438 Z M 27.535156 73.023438 " clip-rule="nonzero"/></clipPath><clipPath id="bbbb58c2de"><path d="M 45.160156 73.023438 L 63.363281 73.023438 L 63.363281 87.675781 L 45.160156 87.675781 Z M 45.160156 73.023438 " clip-rule="nonzero"/></clipPath><clipPath id="4bdf0eac98"><path d="M 51.160156 73.023438 L 57.359375 73.023438 C 58.953125 73.023438 60.476562 73.65625 61.601562 74.78125 C 62.730469 75.90625 63.359375 77.433594 63.359375 79.023438 L 63.359375 81.675781 C 63.359375 83.269531 62.730469 84.792969 61.601562 85.917969 C 60.476562 87.042969 58.953125 87.675781 57.359375 87.675781 L 51.160156 87.675781 C 49.570312 87.675781 48.042969 87.042969 46.917969 85.917969 C 45.792969 84.792969 45.160156 83.269531 45.160156 81.675781 L 45.160156 79.023438 C 45.160156 77.433594 45.792969 75.90625 46.917969 74.78125 C 48.042969 73.65625 49.570312 73.023438 51.160156 73.023438 Z M 51.160156 73.023438 " clip-rule="nonzero"/></clipPath><clipPath id="8323f17239"><path d="M 68.746094 73.023438 L 86.945312 73.023438 L 86.945312 87.675781 L 68.746094 87.675781 Z M 68.746094 73.023438 " clip-rule="nonzero"/></clipPath><clipPath id="0e60ec7a1e"><path d="M 74.746094 73.023438 L 80.945312 73.023438 C 82.535156 73.023438 84.0625 73.65625 85.1875 74.78125 C 86.3125 75.90625 86.945312 77.433594 86.945312 79.023438 L 86.945312 81.675781 C 86.945312 83.269531 86.3125 84.792969 85.1875 85.917969 C 84.0625 87.042969 82.535156 87.675781 80.945312 87.675781 L 74.746094 87.675781 C 73.15625 87.675781 71.628906 87.042969 70.503906 85.917969 C 69.378906 84.792969 68.746094 83.269531 68.746094 81.675781 L 68.746094 79.023438 C 68.746094 77.433594 69.378906 75.90625 70.503906 74.78125 C 71.628906 73.65625 73.15625 73.023438 74.746094 73.023438 Z M 74.746094 73.023438 " clip-rule="nonzero"/></clipPath><clipPath id="73c8cd24f7"><path d="M 92.328125 73.023438 L 110.53125 73.023438 L 110.53125 87.675781 L 92.328125 87.675781 Z M 92.328125 73.023438 " clip-rule="nonzero"/></clipPath><clipPath id="1186bca386"><path d="M 98.328125 73.023438 L 104.527344 73.023438 C 106.121094 73.023438 107.648438 73.65625 108.773438 74.78125 C 109.898438 75.90625 110.527344 77.433594 110.527344 79.023438 L 110.527344 81.675781 C 110.527344 83.269531 109.898438 84.792969 108.773438 85.917969 C 107.648438 87.042969 106.121094 87.675781 104.527344 87.675781 L 98.328125 87.675781 C 96.738281 87.675781 95.210938 87.042969 94.085938 85.917969 C 92.960938 84.792969 92.328125 83.269531 92.328125 81.675781 L 92.328125 79.023438 C 92.328125 77.433594 92.960938 75.90625 94.085938 74.78125 C 95.210938 73.65625 96.738281 73.023438 98.328125 73.023438 Z M 98.328125 73.023438 " clip-rule="nonzero"/></clipPath><clipPath id="aae4977837"><path d="M 115.914062 73.023438 L 134.113281 73.023438 L 134.113281 87.675781 L 115.914062 87.675781 Z M 115.914062 73.023438 " clip-rule="nonzero"/></clipPath><clipPath id="faf02e2161"><path d="M 121.914062 73.023438 L 128.113281 73.023438 C 129.703125 73.023438 131.230469 73.65625 132.355469 74.78125 C 133.480469 75.90625 134.113281 77.433594 134.113281 79.023438 L 134.113281 81.675781 C 134.113281 83.269531 133.480469 84.792969 132.355469 85.917969 C 131.230469 87.042969 129.703125 87.675781 128.113281 87.675781 L 121.914062 87.675781 C 120.324219 87.675781 118.796875 87.042969 117.671875 85.917969 C 116.546875 84.792969 115.914062 83.269531 115.914062 81.675781 L 115.914062 79.023438 C 115.914062 77.433594 116.546875 75.90625 117.671875 74.78125 C 118.796875 73.65625 120.324219 73.023438 121.914062 73.023438 Z M 121.914062 73.023438 " clip-rule="nonzero"/></clipPath><clipPath id="304a8bbc40"><path d="M 21.511719 91.777344 L 39.710938 91.777344 L 39.710938 106.429688 L 21.511719 106.429688 Z M 21.511719 91.777344 " clip-rule="nonzero"/></clipPath><clipPath id="c24f2cc38a"><path d="M 27.511719 91.777344 L 33.710938 91.777344 C 35.300781 91.777344 36.828125 92.410156 37.953125 93.535156 C 39.078125 94.660156 39.710938 96.1875 39.710938 97.777344 L 39.710938 100.429688 C 39.710938 102.023438 39.078125 103.550781 37.953125 104.675781 C 36.828125 105.800781 35.300781 106.429688 33.710938 106.429688 L 27.511719 106.429688 C 25.921875 106.429688 24.394531 105.800781 23.269531 104.675781 C 22.144531 103.550781 21.511719 102.023438 21.511719 100.429688 L 21.511719 97.777344 C 21.511719 96.1875 22.144531 94.660156 23.269531 93.535156 C 24.394531 92.410156 25.921875 91.777344 27.511719 91.777344 Z M 27.511719 91.777344 " clip-rule="nonzero"/></clipPath><clipPath id="a050647a1f"><path d="M 45.140625 91.777344 L 63.339844 91.777344 L 63.339844 106.429688 L 45.140625 106.429688 Z M 45.140625 91.777344 " clip-rule="nonzero"/></clipPath><clipPath id="60a7aa7182"><path d="M 51.140625 91.777344 L 57.339844 91.777344 C 58.929688 91.777344 60.457031 92.410156 61.582031 93.535156 C 62.707031 94.660156 63.339844 96.1875 63.339844 97.777344 L 63.339844 100.429688 C 63.339844 102.023438 62.707031 103.550781 61.582031 104.675781 C 60.457031 105.800781 58.929688 106.429688 57.339844 106.429688 L 51.140625 106.429688 C 49.546875 106.429688 48.023438 105.800781 46.898438 104.675781 C 45.773438 103.550781 45.140625 102.023438 45.140625 100.429688 L 45.140625 97.777344 C 45.140625 96.1875 45.773438 94.660156 46.898438 93.535156 C 48.023438 92.410156 49.546875 91.777344 51.140625 91.777344 Z M 51.140625 91.777344 " clip-rule="nonzero"/></clipPath><clipPath id="bdce3d8cf1"><path d="M 68.722656 91.777344 L 86.925781 91.777344 L 86.925781 106.429688 L 68.722656 106.429688 Z M 68.722656 91.777344 " clip-rule="nonzero"/></clipPath><clipPath id="87370fc057"><path d="M 74.722656 91.777344 L 80.921875 91.777344 C 82.515625 91.777344 84.039062 92.410156 85.164062 93.535156 C 86.289062 94.660156 86.921875 96.1875 86.921875 97.777344 L 86.921875 100.429688 C 86.921875 102.023438 86.289062 103.550781 85.164062 104.675781 C 84.039062 105.800781 82.515625 106.429688 80.921875 106.429688 L 74.722656 106.429688 C 73.132812 106.429688 71.605469 105.800781 70.480469 104.675781 C 69.355469 103.550781 68.722656 102.023438 68.722656 100.429688 L 68.722656 97.777344 C 68.722656 96.1875 69.355469 94.660156 70.480469 93.535156 C 71.605469 92.410156 73.132812 91.777344 74.722656 91.777344 Z M 74.722656 91.777344 " clip-rule="nonzero"/></clipPath><clipPath id="6102151ca0"><path d="M 92.308594 91.777344 L 110.507812 91.777344 L 110.507812 106.429688 L 92.308594 106.429688 Z M 92.308594 91.777344 " clip-rule="nonzero"/></clipPath><clipPath id="b7897bada0"><path d="M 98.308594 91.777344 L 104.507812 91.777344 C 106.097656 91.777344 107.625 92.410156 108.75 93.535156 C 109.875 94.660156 110.507812 96.1875 110.507812 97.777344 L 110.507812 100.429688 C 110.507812 102.023438 109.875 103.550781 108.75 104.675781 C 107.625 105.800781 106.097656 106.429688 104.507812 106.429688 L 98.308594 106.429688 C 96.714844 106.429688 95.191406 105.800781 94.066406 104.675781 C 92.941406 103.550781 92.308594 102.023438 92.308594 100.429688 L 92.308594 97.777344 C 92.308594 96.1875 92.941406 94.660156 94.066406 93.535156 C 95.191406 92.410156 96.714844 91.777344 98.308594 91.777344 Z M 98.308594 91.777344 " clip-rule="nonzero"/></clipPath><clipPath id="263560bf84"><path d="M 115.890625 91.777344 L 134.09375 91.777344 L 134.09375 106.429688 L 115.890625 106.429688 Z M 115.890625 91.777344 " clip-rule="nonzero"/></clipPath><clipPath id="3b5fd7ee18"><path d="M 121.890625 91.777344 L 128.089844 91.777344 C 129.683594 91.777344 131.207031 92.410156 132.332031 93.535156 C 133.460938 94.660156 134.089844 96.1875 134.089844 97.777344 L 134.089844 100.429688 C 134.089844 102.023438 133.460938 103.550781 132.332031 104.675781 C 131.207031 105.800781 129.683594 106.429688 128.089844 106.429688 L 121.890625 106.429688 C 120.300781 106.429688 118.773438 105.800781 117.648438 104.675781 C 116.523438 103.550781 115.890625 102.023438 115.890625 100.429688 L 115.890625 97.777344 C 115.890625 96.1875 116.523438 94.660156 117.648438 93.535156 C 118.773438 92.410156 120.300781 91.777344 121.890625 91.777344 Z M 121.890625 91.777344 " clip-rule="nonzero"/></clipPath><clipPath id="435d838a8d"><path d="M 21.554688 110.535156 L 39.757812 110.535156 L 39.757812 125.1875 L 21.554688 125.1875 Z M 21.554688 110.535156 " clip-rule="nonzero"/></clipPath><clipPath id="e49a0c3c28"><path d="M 27.554688 110.535156 L 33.753906 110.535156 C 35.347656 110.535156 36.871094 111.167969 37.996094 112.292969 C 39.121094 113.417969 39.753906 114.941406 39.753906 116.535156 L 39.753906 119.1875 C 39.753906 120.777344 39.121094 122.304688 37.996094 123.429688 C 36.871094 124.554688 35.347656 125.1875 33.753906 125.1875 L 27.554688 125.1875 C 25.964844 125.1875 24.4375 124.554688 23.3125 123.429688 C 22.1875 122.304688 21.554688 120.777344 21.554688 119.1875 L 21.554688 116.535156 C 21.554688 114.941406 22.1875 113.417969 23.3125 112.292969 C 24.4375 111.167969 25.964844 110.535156 27.554688 110.535156 Z M 27.554688 110.535156 " clip-rule="nonzero"/></clipPath><clipPath id="1e15404c15"><path d="M 45.183594 110.535156 L 63.382812 110.535156 L 63.382812 125.1875 L 45.183594 125.1875 Z M 45.183594 110.535156 " clip-rule="nonzero"/></clipPath><clipPath id="a08788ee26"><path d="M 51.183594 110.535156 L 57.382812 110.535156 C 58.972656 110.535156 60.5 111.167969 61.625 112.292969 C 62.75 113.417969 63.382812 114.941406 63.382812 116.535156 L 63.382812 119.1875 C 63.382812 120.777344 62.75 122.304688 61.625 123.429688 C 60.5 124.554688 58.972656 125.1875 57.382812 125.1875 L 51.183594 125.1875 C 49.59375 125.1875 48.066406 124.554688 46.941406 123.429688 C 45.816406 122.304688 45.183594 120.777344 45.183594 119.1875 L 45.183594 116.535156 C 45.183594 114.941406 45.816406 113.417969 46.941406 112.292969 C 48.066406 111.167969 49.59375 110.535156 51.183594 110.535156 Z M 51.183594 110.535156 " clip-rule="nonzero"/></clipPath><clipPath id="6b4e535f08"><path d="M 68.769531 110.535156 L 86.96875 110.535156 L 86.96875 125.1875 L 68.769531 125.1875 Z M 68.769531 110.535156 " clip-rule="nonzero"/></clipPath><clipPath id="a45fd7d719"><path d="M 74.769531 110.535156 L 80.96875 110.535156 C 82.558594 110.535156 84.085938 111.167969 85.210938 112.292969 C 86.335938 113.417969 86.96875 114.941406 86.96875 116.535156 L 86.96875 119.1875 C 86.96875 120.777344 86.335938 122.304688 85.210938 123.429688 C 84.085938 124.554688 82.558594 125.1875 80.96875 125.1875 L 74.769531 125.1875 C 73.175781 125.1875 71.648438 124.554688 70.523438 123.429688 C 69.398438 122.304688 68.769531 120.777344 68.769531 119.1875 L 68.769531 116.535156 C 68.769531 114.941406 69.398438 113.417969 70.523438 112.292969 C 71.648438 111.167969 73.175781 110.535156 74.769531 110.535156 Z M 74.769531 110.535156 " clip-rule="nonzero"/></clipPath><clipPath id="76f5e6cf7f"><path d="M 92.351562 110.535156 L 110.554688 110.535156 L 110.554688 125.1875 L 92.351562 125.1875 Z M 92.351562 110.535156 " clip-rule="nonzero"/></clipPath><clipPath id="e7151fefa2"><path d="M 98.351562 110.535156 L 104.550781 110.535156 C 106.140625 110.535156 107.667969 111.167969 108.792969 112.292969 C 109.917969 113.417969 110.550781 114.941406 110.550781 116.535156 L 110.550781 119.1875 C 110.550781 120.777344 109.917969 122.304688 108.792969 123.429688 C 107.667969 124.554688 106.140625 125.1875 104.550781 125.1875 L 98.351562 125.1875 C 96.761719 125.1875 95.234375 124.554688 94.109375 123.429688 C 92.984375 122.304688 92.351562 120.777344 92.351562 119.1875 L 92.351562 116.535156 C 92.351562 114.941406 92.984375 113.417969 94.109375 112.292969 C 95.234375 111.167969 96.761719 110.535156 98.351562 110.535156 Z M 98.351562 110.535156 " clip-rule="nonzero"/></clipPath><clipPath id="2cd1ff1007"><path d="M 115.9375 110.535156 L 134.136719 110.535156 L 134.136719 125.1875 L 115.9375 125.1875 Z M 115.9375 110.535156 " clip-rule="nonzero"/></clipPath><clipPath id="ba42105342"><path d="M 121.9375 110.535156 L 128.136719 110.535156 C 129.726562 110.535156 131.253906 111.167969 132.378906 112.292969 C 133.503906 113.417969 134.136719 114.941406 134.136719 116.535156 L 134.136719 119.1875 C 134.136719 120.777344 133.503906 122.304688 132.378906 123.429688 C 131.253906 124.554688 129.726562 125.1875 128.136719 125.1875 L 121.9375 125.1875 C 120.34375 125.1875 118.820312 124.554688 117.695312 123.429688 C 116.566406 122.304688 115.9375 120.777344 115.9375 119.1875 L 115.9375 116.535156 C 115.9375 114.941406 116.566406 113.417969 117.695312 112.292969 C 118.820312 111.167969 120.34375 110.535156 121.9375 110.535156 Z M 121.9375 110.535156 " clip-rule="nonzero"/></clipPath><clipPath id="73899a791f"><path d="M 124.234375 5.761719 L 134.597656 5.761719 L 134.597656 31.351562 L 124.234375 31.351562 Z M 124.234375 5.761719 " clip-rule="nonzero"/></clipPath><clipPath id="32e3316864"><path d="M 129.417969 5.761719 C 132.277344 5.761719 134.597656 8.082031 134.597656 10.945312 L 134.597656 26.132812 C 134.597656 28.996094 132.277344 31.316406 129.417969 31.316406 C 126.554688 31.316406 124.234375 28.996094 124.234375 26.132812 L 124.234375 10.945312 C 124.234375 8.082031 126.554688 5.761719 129.417969 5.761719 Z M 129.417969 5.761719 " clip-rule="nonzero"/></clipPath><clipPath id="52156dca1b"><path d="M 20.027344 5.761719 L 30.390625 5.761719 L 30.390625 31.351562 L 20.027344 31.351562 Z M 20.027344 5.761719 " clip-rule="nonzero"/></clipPath><clipPath id="19ac786b31"><path d="M 25.207031 5.761719 C 28.070312 5.761719 30.390625 8.082031 30.390625 10.945312 L 30.390625 26.132812 C 30.390625 28.996094 28.070312 31.316406 25.207031 31.316406 C 22.347656 31.316406 20.027344 28.996094 20.027344 26.132812 L 20.027344 10.945312 C 20.027344 8.082031 22.347656 5.761719 25.207031 5.761719 Z M 25.207031 5.761719 " clip-rule="nonzero"/></clipPath><clipPath id="b606bd260e"><path d="M 98 68 L 113 68 L 113 87 L 98 87 Z M 98 68 " clip-rule="nonzero"/></clipPath><clipPath id="078049ff78"><path d="M 109.828125 67.308594 L 113.464844 69.796875 L 101.304688 87.578125 L 97.664062 85.089844 Z M 109.828125 67.308594 " clip-rule="nonzero"/></clipPath><clipPath id="6010904508"><path d="M 111.644531 68.550781 C 112.128906 68.882812 112.460938 69.390625 112.566406 69.964844 C 112.675781 70.539062 112.550781 71.132812 112.222656 71.617188 L 102.554688 85.746094 C 102.226562 86.230469 101.71875 86.5625 101.140625 86.667969 C 100.566406 86.777344 99.972656 86.652344 99.492188 86.320312 C 99.007812 85.992188 98.675781 85.484375 98.570312 84.910156 C 98.460938 84.335938 98.585938 83.742188 98.917969 83.257812 L 108.582031 69.128906 C 108.914062 68.644531 109.421875 68.3125 109.996094 68.203125 C 110.570312 68.097656 111.164062 68.222656 111.644531 68.550781 Z M 111.644531 68.550781 " clip-rule="nonzero"/></clipPath><clipPath id="16068dca44"><path d="M 93 75 L 103 75 L 103 87 L 93 87 Z M 93 75 " clip-rule="nonzero"/></clipPath><clipPath id="5a3d6b4f78"><path d="M 92.8125 77.527344 L 96.40625 74.96875 L 103.558594 85.011719 L 99.96875 87.570312 Z M 92.8125 77.527344 " clip-rule="nonzero"/></clipPath><clipPath id="eb322af491"><path d="M 94.609375 76.25 C 95.085938 75.910156 95.675781 75.773438 96.253906 75.871094 C 96.828125 75.96875 97.34375 76.289062 97.683594 76.765625 L 102.277344 83.210938 C 102.617188 83.6875 102.753906 84.28125 102.65625 84.855469 C 102.558594 85.433594 102.238281 85.949219 101.761719 86.285156 C 101.285156 86.625 100.695312 86.761719 100.117188 86.664062 C 99.539062 86.570312 99.027344 86.246094 98.6875 85.769531 L 94.09375 79.324219 C 93.753906 78.847656 93.617188 78.253906 93.714844 77.679688 C 93.8125 77.101562 94.132812 76.589844 94.609375 76.25 Z M 94.609375 76.25 " clip-rule="nonzero"/></clipPath><clipPath id="e1865f8dd9"><path d="M 3.253906 7.753906 L 111.925781 7.753906 L 111.925781 116.484375 L 3.253906 116.484375 Z M 3.253906 7.753906 " clip-rule="nonzero"/></clipPath><clipPath id="41e7fefa1b"><path d="M 3.253906 7.753906 L 108 7.753906 L 108 112 L 3.253906 112 Z M 3.253906 7.753906 " clip-rule="nonzero"/></clipPath><clipPath id="85acc3c9ef"><path d="M 23.304688 48 L 51 48 L 51 78.617188 L 23.304688 78.617188 Z M 23.304688 48 " clip-rule="nonzero"/></clipPath><clipPath id="416d5aed3d"><path d="M 37 48 L 64.335938 48 L 64.335938 78.617188 L 37 78.617188 Z M 37 48 " clip-rule="nonzero"/></clipPath><clipPath id="f614c99cb0"><path d="M 28 29.636719 L 60 29.636719 L 60 61 L 28 61 Z M 28 29.636719 " clip-rule="nonzero"/></clipPath></defs><g clip-path="url(#c16444d9b3)"><g clip-path="url(#edf3ba47e8)"><path fill="#fff9b7" d="M 8.585938 46.859375 L 146.664062 46.859375 L 146.664062 144.238281 L 8.585938 144.238281 Z M 8.585938 46.859375 " fill-opacity="1" fill-rule="nonzero"/></g></g><g clip-path="url(#fd14c47d9e)"><g clip-path="url(#bcdb312660)"><path fill="#dd2e44" d="M 8.847656 12.75 L 146.871094 12.75 L 146.871094 61.019531 L 8.847656 61.019531 Z M 8.847656 12.75 " fill-opacity="1" fill-rule="nonzero"/></g></g><g clip-path="url(#5c68fd7540)"><path fill="#fff9b7" d="M 8.847656 39.578125 L 146.792969 39.578125 L 146.792969 75 L 8.847656 75 Z M 8.847656 39.578125 " fill-opacity="1" fill-rule="nonzero"/></g><g clip-path="url(#11c56551e6)"><g clip-path="url(#9aa4417b09)"><path fill="#2a81b9" d="M 15.449219 16.570312 L 34.96875 16.570312 L 34.96875 36.089844 L 15.449219 36.089844 Z M 15.449219 16.570312 " fill-opacity="1" fill-rule="nonzero"/></g></g><g clip-path="url(#aeb94086e2)"><g clip-path="url(#0faaa1c5c4)"><path stroke-linecap="butt" transform="matrix(0.256434, 0, 0, 0.256434, 15.447655, 16.568759)" fill="none" stroke-linejoin="miter" d="M 38.058008 0.00605858 C 17.036537 0.00605858 0.00609872 17.036497 0.00609872 38.057967 C 0.00609872 59.079438 17.036537 76.125109 38.058008 76.125109 C 59.079479 76.125109 76.125149 59.079438 76.125149 38.057967 C 76.125149 17.036497 59.079479 0.00605858 38.058008 0.00605858 Z M 38.058008 0.00605858 " stroke="#ffffff" stroke-width="111.139587" stroke-opacity="1" stroke-miterlimit="4"/></g></g><g clip-path="url(#6cb20b8a07)"><g clip-path="url(#c58ca4b081)"><path fill="#2a81b9" d="M 119.65625 16.570312 L 139.175781 16.570312 L 139.175781 36.089844 L 119.65625 36.089844 Z M 119.65625 16.570312 " fill-opacity="1" fill-rule="nonzero"/></g></g><g clip-path="url(#e2e5ad5cb0)"><g clip-path="url(#9d3ee83262)"><path stroke-linecap="butt" transform="matrix(0.256434, 0, 0, 0.256434, 119.655676, 16.568759)" fill="none" stroke-linejoin="miter" d="M 38.069381 0.00605858 C 17.04791 0.00605858 0.0022389 17.036497 0.0022389 38.057967 C 0.0022389 59.079438 17.04791 76.125109 38.069381 76.125109 C 59.090852 76.125109 76.12129 59.079438 76.12129 38.057967 C 76.12129 17.036497 59.090852 0.00605858 38.069381 0.00605858 Z M 38.069381 0.00605858 " stroke="#ffffff" stroke-width="111.139587" stroke-opacity="1" stroke-miterlimit="4"/></g></g><g clip-path="url(#ea75aaf08d)"><g clip-path="url(#ce8820618c)"><path fill="#fabe12" d="M 21.511719 54.148438 L 39.710938 54.148438 L 39.710938 68.800781 L 21.511719 68.800781 Z M 21.511719 54.148438 " fill-opacity="1" fill-rule="nonzero"/></g></g><g clip-path="url(#452ca4722c)"><g clip-path="url(#99a9d0272f)"><path fill="#fabe12" d="M 45.140625 54.148438 L 63.339844 54.148438 L 63.339844 68.800781 L 45.140625 68.800781 Z M 45.140625 54.148438 " fill-opacity="1" fill-rule="nonzero"/></g></g><g clip-path="url(#e3ce76b560)"><g clip-path="url(#c76998c163)"><path fill="#fabe12" d="M 68.722656 54.148438 L 86.925781 54.148438 L 86.925781 68.800781 L 68.722656 68.800781 Z M 68.722656 54.148438 " fill-opacity="1" fill-rule="nonzero"/></g></g><g clip-path="url(#6164359efe)"><g clip-path="url(#af10ab5af9)"><path fill="#fabe12" d="M 92.308594 54.148438 L 110.507812 54.148438 L 110.507812 68.800781 L 92.308594 68.800781 Z M 92.308594 54.148438 " fill-opacity="1" fill-rule="nonzero"/></g></g><g clip-path="url(#2aa1be5035)"><g clip-path="url(#40c875d42e)"><path fill="#fabe12" d="M 115.890625 54.148438 L 134.09375 54.148438 L 134.09375 68.800781 L 115.890625 68.800781 Z M 115.890625 54.148438 " fill-opacity="1" fill-rule="nonzero"/></g></g><g clip-path="url(#e61d0a5822)"><g clip-path="url(#1c94c5c74c)"><path fill="#fabe12" d="M 21.535156 73.023438 L 39.734375 73.023438 L 39.734375 87.675781 L 21.535156 87.675781 Z M 21.535156 73.023438 " fill-opacity="1" fill-rule="nonzero"/></g></g><g clip-path="url(#bbbb58c2de)"><g clip-path="url(#4bdf0eac98)"><path fill="#fabe12" d="M 45.160156 73.023438 L 63.363281 73.023438 L 63.363281 87.675781 L 45.160156 87.675781 Z M 45.160156 73.023438 " fill-opacity="1" fill-rule="nonzero"/></g></g><g clip-path="url(#8323f17239)"><g clip-path="url(#0e60ec7a1e)"><path fill="#fabe12" d="M 68.746094 73.023438 L 86.945312 73.023438 L 86.945312 87.675781 L 68.746094 87.675781 Z M 68.746094 73.023438 " fill-opacity="1" fill-rule="nonzero"/></g></g><g clip-path="url(#73c8cd24f7)"><g clip-path="url(#1186bca386)"><path fill="#fabe12" d="M 92.328125 73.023438 L 110.53125 73.023438 L 110.53125 87.675781 L 92.328125 87.675781 Z M 92.328125 73.023438 " fill-opacity="1" fill-rule="nonzero"/></g></g><g clip-path="url(#aae4977837)"><g clip-path="url(#faf02e2161)"><path fill="#fabe12" d="M 115.914062 73.023438 L 134.113281 73.023438 L 134.113281 87.675781 L 115.914062 87.675781 Z M 115.914062 73.023438 " fill-opacity="1" fill-rule="nonzero"/></g></g><g clip-path="url(#304a8bbc40)"><g clip-path="url(#c24f2cc38a)"><path fill="#fabe12" d="M 21.511719 91.777344 L 39.710938 91.777344 L 39.710938 106.429688 L 21.511719 106.429688 Z M 21.511719 91.777344 " fill-opacity="1" fill-rule="nonzero"/></g></g><g clip-path="url(#a050647a1f)"><g clip-path="url(#60a7aa7182)"><path fill="#fabe12" d="M 45.140625 91.777344 L 63.339844 91.777344 L 63.339844 106.429688 L 45.140625 106.429688 Z M 45.140625 91.777344 " fill-opacity="1" fill-rule="nonzero"/></g></g><g clip-path="url(#bdce3d8cf1)"><g clip-path="url(#87370fc057)"><path fill="#fabe12" d="M 68.722656 91.777344 L 86.925781 91.777344 L 86.925781 106.429688 L 68.722656 106.429688 Z M 68.722656 91.777344 " fill-opacity="1" fill-rule="nonzero"/></g></g><g clip-path="url(#6102151ca0)"><g clip-path="url(#b7897bada0)"><path fill="#fabe12" d="M 92.308594 91.777344 L 110.507812 91.777344 L 110.507812 106.429688 L 92.308594 106.429688 Z M 92.308594 91.777344 " fill-opacity="1" fill-rule="nonzero"/></g></g><g clip-path="url(#263560bf84)"><g clip-path="url(#3b5fd7ee18)"><path fill="#fabe12" d="M 115.890625 91.777344 L 134.09375 91.777344 L 134.09375 106.429688 L 115.890625 106.429688 Z M 115.890625 91.777344 " fill-opacity="1" fill-rule="nonzero"/></g></g><g clip-path="url(#435d838a8d)"><g clip-path="url(#e49a0c3c28)"><path fill="#fabe12" d="M 21.554688 110.535156 L 39.757812 110.535156 L 39.757812 125.1875 L 21.554688 125.1875 Z M 21.554688 110.535156 " fill-opacity="1" fill-rule="nonzero"/></g></g><g clip-path="url(#1e15404c15)"><g clip-path="url(#a08788ee26)"><path fill="#fabe12" d="M 45.183594 110.535156 L 63.382812 110.535156 L 63.382812 125.1875 L 45.183594 125.1875 Z M 45.183594 110.535156 " fill-opacity="1" fill-rule="nonzero"/></g></g><g clip-path="url(#6b4e535f08)"><g clip-path="url(#a45fd7d719)"><path fill="#fabe12" d="M 68.769531 110.535156 L 86.96875 110.535156 L 86.96875 125.1875 L 68.769531 125.1875 Z M 68.769531 110.535156 " fill-opacity="1" fill-rule="nonzero"/></g></g><g clip-path="url(#76f5e6cf7f)"><g clip-path="url(#e7151fefa2)"><path fill="#fabe12" d="M 92.351562 110.535156 L 110.554688 110.535156 L 110.554688 125.1875 L 92.351562 125.1875 Z M 92.351562 110.535156 " fill-opacity="1" fill-rule="nonzero"/></g></g><g clip-path="url(#2cd1ff1007)"><g clip-path="url(#ba42105342)"><path fill="#fabe12" d="M 115.9375 110.535156 L 134.136719 110.535156 L 134.136719 125.1875 L 115.9375 125.1875 Z M 115.9375 110.535156 " fill-opacity="1" fill-rule="nonzero"/></g></g><g clip-path="url(#73899a791f)"><g clip-path="url(#32e3316864)"><path fill="#fabe12" d="M 124.234375 5.761719 L 134.597656 5.761719 L 134.597656 31.3125 L 124.234375 31.3125 Z M 124.234375 5.761719 " fill-opacity="1" fill-rule="nonzero"/></g></g><g clip-path="url(#52156dca1b)"><g clip-path="url(#19ac786b31)"><path fill="#fabe12" d="M 20.027344 5.761719 L 30.390625 5.761719 L 30.390625 31.3125 L 20.027344 31.3125 Z M 20.027344 5.761719 " fill-opacity="1" fill-rule="nonzero"/></g></g><g clip-path="url(#b606bd260e)"><g clip-path="url(#078049ff78)"><g clip-path="url(#6010904508)"><path fill="#dd2e44" d="M 109.828125 67.308594 L 113.464844 69.796875 L 101.3125 87.5625 L 97.675781 85.074219 Z M 109.828125 67.308594 " fill-opacity="1" fill-rule="nonzero"/></g></g></g><g clip-path="url(#16068dca44)"><g clip-path="url(#5a3d6b4f78)"><g clip-path="url(#eb322af491)"><path fill="#dd2e44" d="M 92.8125 77.527344 L 96.40625 74.96875 L 103.558594 85.011719 L 99.96875 87.570312 Z M 92.8125 77.527344 " fill-opacity="1" fill-rule="nonzero"/></g></g></g><g clip-path="url(#e1865f8dd9)"><path fill="#a6a6a6" d="M 3.199219 111.808594 L 8.359375 116.492188 L 8.359375 102.566406 Z M 111.984375 12.957031 L 98.058594 12.957031 L 107.300781 7.796875 Z M 111.984375 12.957031 " fill-opacity="1" fill-rule="nonzero"/></g><g clip-path="url(#41e7fefa1b)"><path fill="#d9d9d9" d="M 3.199219 60.867188 L 3.199219 111.808594 L 107.210938 7.796875 L 56.265625 7.796875 Z M 3.199219 60.867188 " fill-opacity="1" fill-rule="nonzero"/></g><path fill="#d9d9d9" d="M 68.019531 12.757812 C 66.480469 14.300781 66.609375 16.023438 68.222656 17.625 L 68.539062 17.945312 L 70.039062 16.445312 L 69.621094 16.027344 C 68.898438 15.308594 68.914062 14.746094 69.417969 14.242188 C 69.921875 13.738281 70.484375 13.722656 71.203125 14.441406 C 73.277344 16.519531 70.570312 20.003906 73.453125 22.882812 C 75.0625 24.496094 76.792969 24.613281 78.347656 23.054688 C 79.90625 21.5 79.78125 19.765625 78.175781 18.160156 L 77.558594 17.542969 L 76.058594 19.039062 L 76.777344 19.765625 C 77.5 20.484375 77.441406 21.070312 76.9375 21.566406 C 76.433594 22.0625 75.847656 22.128906 75.136719 21.40625 C 73.0625 19.332031 75.769531 15.847656 72.890625 12.964844 C 71.277344 11.347656 69.558594 11.214844 68.019531 12.757812 Z M 62.679688 23.316406 L 63.984375 24.621094 C 65.597656 26.234375 67.246094 26.335938 68.835938 24.75 L 69.585938 24 L 73.378906 27.796875 L 74.964844 26.210938 L 64.882812 16.128906 L 62.546875 18.460938 C 60.964844 20.046875 61.070312 21.703125 62.679688 23.316406 Z M 64.738281 19.152344 L 68.148438 22.566406 L 67.402344 23.316406 C 66.898438 23.820312 66.394531 23.863281 65.671875 23.144531 L 64.152344 21.621094 C 63.429688 20.898438 63.472656 20.394531 63.976562 19.890625 Z M 62.128906 27.394531 L 59.953125 29.566406 L 61.390625 31.007812 L 63.566406 28.832031 L 66.511719 31.785156 L 63.773438 34.523438 L 65.207031 35.960938 L 69.527344 31.640625 L 59.445312 21.558594 L 55.125 25.878906 L 56.5625 27.320312 L 59.308594 24.582031 Z M 55.890625 37.777344 L 57.21875 39.128906 C 58.832031 40.742188 60.5625 40.855469 62.117188 39.300781 C 63.671875 37.746094 63.558594 36.015625 61.941406 34.402344 L 56.699219 29.160156 C 55.085938 27.546875 53.359375 27.421875 51.804688 28.988281 C 50.25 30.554688 50.363281 32.273438 51.976562 33.886719 L 52.953125 34.863281 L 54.453125 33.367188 L 53.367188 32.277344 C 52.644531 31.558594 52.6875 30.972656 53.195312 30.464844 C 53.699219 29.957031 54.28125 29.917969 55.007812 30.640625 L 60.449219 36.078125 C 61.167969 36.796875 61.101562 37.382812 60.605469 37.878906 C 60.113281 38.371094 59.519531 38.441406 58.808594 37.71875 L 57.367188 36.28125 Z M 48.601562 32.417969 L 47.015625 34.003906 L 57.097656 44.085938 L 58.679688 42.503906 Z M 50.820312 50.367188 L 52.417969 48.765625 L 50.863281 46.664062 L 52.804688 44.71875 L 54.910156 46.273438 L 56.363281 44.820312 L 44.667969 36.351562 L 42.347656 38.667969 Z M 51.238281 43.554688 L 49.714844 45.078125 L 45.378906 39.214844 Z M 40.003906 41.019531 L 38.417969 42.601562 L 47.0625 51.246094 L 44.449219 53.855469 L 45.890625 55.296875 L 50.074219 51.09375 Z M 35.433594 50.425781 C 33.820312 48.808594 32.050781 48.738281 30.496094 50.292969 C 28.941406 51.847656 29.003906 53.621094 30.613281 55.226562 L 35.855469 60.46875 C 37.46875 62.082031 39.242188 62.15625 40.796875 60.601562 C 42.351562 59.042969 42.28125 57.273438 40.667969 55.660156 Z M 39.183594 57.351562 C 39.90625 58.070312 39.863281 58.65625 39.359375 59.167969 C 38.855469 59.675781 38.269531 59.714844 37.542969 58.996094 L 32.105469 53.554688 C 31.386719 52.835938 31.429688 52.25 31.933594 51.742188 C 32.4375 51.230469 33.019531 51.191406 33.746094 51.914062 Z M 30.070312 59.902344 L 28.023438 61.945312 L 29.464844 63.386719 L 31.507812 61.34375 L 35.671875 65.503906 L 37.253906 63.929688 L 27.171875 53.847656 L 22.984375 58.039062 L 24.421875 59.480469 L 27.035156 56.867188 Z M 25.113281 64.855469 L 23.066406 66.902344 L 24.507812 68.339844 L 26.554688 66.296875 L 30.71875 70.457031 L 32.300781 68.875 L 22.21875 58.792969 L 18.027344 62.984375 L 19.464844 64.421875 L 22.078125 61.8125 Z M 19.929688 69.585938 L 17.753906 71.761719 L 19.195312 73.203125 L 21.371094 71.027344 L 24.324219 73.980469 L 21.585938 76.714844 L 23.027344 78.15625 L 27.347656 73.828125 L 17.265625 63.746094 L 12.941406 68.066406 L 14.382812 69.503906 L 17.125 66.773438 Z M 18.734375 82.449219 C 18.558594 82.105469 18.460938 81.890625 17.644531 81.070312 L 16.058594 79.484375 C 15.125 78.546875 15.09375 77.886719 15.816406 77.164062 L 16.363281 76.617188 L 20.46875 80.722656 L 22.050781 79.140625 L 11.96875 69.058594 L 9.574219 71.449219 C 7.933594 73.09375 7.992188 74.5625 9.546875 76.117188 L 10.339844 76.910156 C 11.378906 77.945312 12.386719 78.292969 13.421875 77.917969 C 12.960938 79.042969 13.464844 80.0625 14.511719 81.117188 L 16.066406 82.671875 C 16.554688 83.160156 16.902344 83.542969 17.117188 84.070312 Z M 11.820312 72.082031 L 14.914062 75.175781 L 14.296875 75.789062 C 13.703125 76.378906 13.082031 76.480469 12.277344 75.671875 L 11.285156 74.679688 C 10.5625 73.957031 10.492188 73.398438 11.054688 72.835938 Z M 11.820312 72.082031 " fill-opacity="1" fill-rule="nonzero"/><g clip-path="url(#85acc3c9ef)"><path fill="#db2f14" d="M 34.167969 48.566406 L 50.222656 56.34375 L 39.363281 78.613281 L 34.476562 68.078125 L 23.3125 70.835938 L 34.167969 48.566406 " fill-opacity="1" fill-rule="evenodd"/></g><path fill="#ff430e" d="M 36.519531 49.921875 L 47.710938 55.132812 L 39.511719 72.238281 L 36.335938 64.695312 L 28.117188 66.914062 L 36.519531 49.921875 " fill-opacity="1" fill-rule="evenodd"/><g clip-path="url(#416d5aed3d)"><path fill="#db2f14" d="M 53.394531 48.21875 L 37.371094 56.054688 L 48.308594 78.285156 L 53.160156 67.730469 L 64.335938 70.445312 L 53.394531 48.21875 " fill-opacity="1" fill-rule="evenodd"/></g><path fill="#ff430e" d="M 51.050781 49.585938 L 39.878906 54.832031 L 48.140625 71.910156 L 51.289062 64.355469 L 59.515625 66.542969 L 51.050781 49.585938 " fill-opacity="1" fill-rule="evenodd"/><g clip-path="url(#f614c99cb0)"><path fill="#ffc50d" d="M 43.824219 29.636719 C 52.5 29.636719 59.539062 36.65625 59.539062 45.304688 C 59.539062 53.949219 52.5 60.96875 43.824219 60.96875 C 35.148438 60.96875 28.105469 53.949219 28.105469 45.304688 C 28.105469 36.65625 35.148438 29.636719 43.824219 29.636719 " fill-opacity="1" fill-rule="evenodd"/></g><path fill="#f59f0a" d="M 43.824219 33.007812 C 50.511719 33.007812 55.945312 38.515625 55.945312 45.304688 C 55.945312 52.089844 50.511719 57.597656 43.824219 57.597656 C 37.132812 57.597656 31.699219 52.089844 31.699219 45.304688 C 31.699219 38.515625 37.132812 33.007812 43.824219 33.007812 " fill-opacity="1" fill-rule="evenodd"/><path fill="#faf29f" d="M 42.894531 38.277344 C 43.03125 37.882812 43.40625 37.617188 43.824219 37.617188 C 44.242188 37.617188 44.613281 37.882812 44.75 38.277344 L 46.1875 42.394531 L 50.558594 42.484375 C 50.980469 42.492188 51.347656 42.761719 51.476562 43.160156 C 51.605469 43.554688 51.46875 43.992188 51.132812 44.242188 L 47.648438 46.878906 L 48.914062 51.050781 C 49.035156 51.449219 48.890625 51.882812 48.550781 52.125 C 48.214844 52.371094 47.757812 52.375 47.414062 52.136719 L 43.824219 49.648438 L 40.234375 52.136719 C 39.890625 52.375 39.433594 52.371094 39.09375 52.125 C 38.753906 51.882812 38.609375 51.449219 38.730469 51.050781 L 39.996094 46.878906 L 36.511719 44.242188 C 36.179688 43.992188 36.042969 43.554688 36.171875 43.160156 C 36.300781 42.761719 36.667969 42.492188 37.085938 42.484375 L 41.457031 42.394531 L 42.894531 38.277344 " fill-opacity="1" fill-rule="evenodd"/><path fill="#faf29f" d="M 33.570312 38.195312 C 33.589844 38.140625 33.640625 38.105469 33.699219 38.105469 C 33.761719 38.105469 33.8125 38.140625 33.832031 38.195312 L 34.332031 39.683594 L 35.949219 40.144531 C 36.007812 40.160156 36.046875 40.207031 36.046875 40.265625 C 36.046875 40.320312 36.007812 40.367188 35.949219 40.382812 L 34.332031 40.84375 L 33.832031 42.335938 C 33.8125 42.386719 33.761719 42.421875 33.699219 42.421875 C 33.640625 42.421875 33.589844 42.386719 33.570312 42.335938 L 33.070312 40.84375 L 31.449219 40.382812 C 31.394531 40.367188 31.355469 40.320312 31.355469 40.265625 C 31.355469 40.207031 31.394531 40.160156 31.449219 40.144531 L 33.070312 39.683594 L 33.570312 38.195312 " fill-opacity="1" fill-rule="evenodd"/><path fill="#faf29f" d="M 53.433594 50.183594 C 53.449219 50.128906 53.503906 50.09375 53.566406 50.09375 C 53.625 50.09375 53.679688 50.128906 53.695312 50.183594 L 54.203125 51.695312 L 55.847656 52.164062 C 55.90625 52.179688 55.945312 52.226562 55.945312 52.285156 C 55.945312 52.339844 55.90625 52.386719 55.847656 52.40625 L 54.203125 52.871094 L 53.695312 54.382812 C 53.679688 54.4375 53.625 54.472656 53.566406 54.472656 C 53.503906 54.472656 53.449219 54.4375 53.433594 54.382812 L 52.925781 52.871094 L 51.28125 52.40625 C 51.222656 52.386719 51.183594 52.339844 51.183594 52.285156 C 51.183594 52.226562 51.222656 52.179688 51.28125 52.164062 L 52.925781 51.695312 L 53.433594 50.183594 " fill-opacity="1" fill-rule="evenodd"/><path fill="#faf29f" d="M 31.222656 41.257812 C 31.234375 41.222656 31.269531 41.199219 31.3125 41.199219 C 31.351562 41.199219 31.386719 41.222656 31.398438 41.257812 L 31.734375 42.257812 L 32.820312 42.566406 C 32.859375 42.578125 32.886719 42.609375 32.886719 42.644531 C 32.886719 42.683594 32.859375 42.714844 32.820312 42.726562 L 31.734375 43.035156 L 31.398438 44.035156 C 31.386719 44.070312 31.351562 44.09375 31.3125 44.09375 C 31.269531 44.09375 31.234375 44.070312 31.222656 44.035156 L 30.886719 43.035156 L 29.800781 42.726562 C 29.761719 42.714844 29.738281 42.683594 29.738281 42.644531 C 29.738281 42.609375 29.761719 42.578125 29.800781 42.566406 L 30.886719 42.257812 L 31.222656 41.257812 " fill-opacity="1" fill-rule="evenodd"/><path fill="#faf29f" d="M 55.777344 47.691406 C 55.792969 47.652344 55.832031 47.628906 55.875 47.628906 C 55.917969 47.628906 55.957031 47.652344 55.96875 47.691406 L 56.339844 48.789062 L 57.53125 49.128906 C 57.570312 49.140625 57.601562 49.175781 57.601562 49.214844 C 57.601562 49.257812 57.570312 49.292969 57.53125 49.304688 L 56.339844 49.644531 L 55.96875 50.738281 C 55.957031 50.777344 55.917969 50.804688 55.875 50.804688 C 55.832031 50.804688 55.792969 50.777344 55.777344 50.738281 L 55.410156 49.644531 L 54.21875 49.304688 C 54.175781 49.292969 54.148438 49.257812 54.148438 49.214844 C 54.148438 49.175781 54.175781 49.140625 54.21875 49.128906 L 55.410156 48.789062 L 55.777344 47.691406 " fill-opacity="1" fill-rule="evenodd"/></svg>