<svg xmlns="http://www.w3.org/2000/svg" xmlns:xlink="http://www.w3.org/1999/xlink" width="200" zoomAndPan="magnify" viewBox="0 0 150 149.999998" height="200" preserveAspectRatio="xMidYMid meet" version="1.0"><defs><clipPath id="4dd0807e3b"><path d="M 31.25 55.226562 L 116.144531 55.226562 L 116.144531 147 L 31.25 147 Z M 31.25 55.226562 " clip-rule="nonzero"/></clipPath><clipPath id="828875318f"><path d="M 44.167969 55.226562 L 103.226562 55.226562 C 110.359375 55.226562 116.144531 61.011719 116.144531 68.144531 L 116.144531 134.078125 C 116.144531 141.210938 110.359375 146.996094 103.226562 146.996094 L 44.167969 146.996094 C 37.03125 146.996094 31.25 141.210938 31.25 134.078125 L 31.25 68.144531 C 31.25 61.011719 37.03125 55.226562 44.167969 55.226562 Z M 44.167969 55.226562 " clip-rule="nonzero"/></clipPath><clipPath id="16a5538a1a"><path d="M 6.902344 1.78125 L 136 1.78125 L 136 73.164062 L 6.902344 73.164062 Z M 6.902344 1.78125 " clip-rule="nonzero"/></clipPath><clipPath id="4210db81e2"><path d="M 71.402344 1.78125 C 35.78125 1.78125 6.902344 17.761719 6.902344 37.472656 C 6.902344 57.1875 35.78125 73.164062 71.402344 73.164062 C 107.023438 73.164062 135.898438 57.1875 135.898438 37.472656 C 135.898438 17.761719 107.023438 1.78125 71.402344 1.78125 Z M 71.402344 1.78125 " clip-rule="nonzero"/></clipPath><clipPath id="1e745a8859"><path d="M 7 21 L 89 21 L 89 145 L 7 145 Z M 7 21 " clip-rule="nonzero"/></clipPath><clipPath id="378324bd09"><path d="M 5.339844 33.59375 L 62.582031 19.269531 L 91.015625 132.859375 L 33.769531 147.1875 Z M 5.339844 33.59375 " clip-rule="nonzero"/></clipPath><clipPath id="583428eb8c"><path d="M 15.984375 30.929688 L 51.9375 21.933594 C 57.816406 20.460938 63.777344 24.035156 65.246094 29.910156 L 88.300781 122.023438 C 89.773438 127.902344 86.199219 133.859375 80.320312 135.332031 L 44.367188 144.332031 C 38.488281 145.800781 32.527344 142.230469 31.058594 136.351562 L 8.003906 44.238281 C 6.53125 38.359375 10.105469 32.402344 15.984375 30.929688 Z M 15.984375 30.929688 " clip-rule="nonzero"/></clipPath><clipPath id="00654ed7bd"><path d="M 12.609375 1.78125 L 140.136719 1.78125 L 140.136719 77.53125 L 12.609375 77.53125 Z M 12.609375 1.78125 " clip-rule="nonzero"/></clipPath><clipPath id="01fdbcd0d4"><path d="M 76.359375 1.78125 C 41.148438 1.78125 12.609375 18.738281 12.609375 39.65625 C 12.609375 60.574219 41.148438 77.53125 76.359375 77.53125 C 111.566406 77.53125 140.109375 60.574219 140.109375 39.65625 C 140.109375 18.738281 111.566406 1.78125 76.359375 1.78125 Z M 76.359375 1.78125 " clip-rule="nonzero"/></clipPath><clipPath id="473e8ac8b6"><path d="M 58 21 L 141 21 L 141 144 L 58 144 Z M 58 21 " clip-rule="nonzero"/></clipPath><clipPath id="36ac94e9ed"><path d="M 83.984375 19.269531 L 142.695312 33.820312 L 115.019531 145.511719 L 56.304688 130.960938 Z M 83.984375 19.269531 " clip-rule="nonzero"/></clipPath><clipPath id="65e803ce77"><path d="M 94.632812 21.910156 L 132.046875 31.179688 C 137.929688 32.636719 141.515625 38.585938 140.058594 44.46875 L 117.695312 134.71875 C 116.234375 140.601562 110.285156 144.1875 104.40625 142.730469 L 66.992188 133.457031 C 61.109375 132 57.523438 126.050781 58.980469 120.167969 L 81.34375 29.917969 C 82.800781 24.039062 88.75 20.449219 94.632812 21.910156 Z M 94.632812 21.910156 " clip-rule="nonzero"/></clipPath><clipPath id="1fc513b41c"><path d="M 14 29 L 95 29 L 95 145 L 14 145 Z M 14 29 " clip-rule="nonzero"/></clipPath><clipPath id="6d270295db"><path d="M 12.609375 41.808594 L 70.445312 27.332031 L 96.792969 132.609375 L 38.957031 147.085938 Z M 12.609375 41.808594 " clip-rule="nonzero"/></clipPath><clipPath id="b7f79c4908"><path d="M 23.253906 39.144531 L 59.800781 29.996094 C 65.679688 28.523438 71.636719 32.097656 73.109375 37.976562 L 94.105469 121.875 C 95.578125 127.753906 92.003906 133.710938 86.125 135.183594 L 49.578125 144.332031 C 43.703125 145.800781 37.742188 142.230469 36.273438 136.351562 L 15.273438 52.449219 C 13.800781 46.574219 17.375 40.613281 23.253906 39.144531 Z M 23.253906 39.144531 " clip-rule="nonzero"/></clipPath><clipPath id="c59635a0f8"><path d="M 32.292969 56.554688 L 114.699219 56.554688 L 114.699219 104.390625 L 32.292969 104.390625 Z M 32.292969 56.554688 " clip-rule="nonzero"/></clipPath><clipPath id="c0ba670951"><path d="M 73.433594 56.554688 C 50.714844 56.554688 32.292969 67.261719 32.292969 80.472656 C 32.292969 93.683594 50.714844 104.390625 73.433594 104.390625 C 96.15625 104.390625 114.574219 93.683594 114.574219 80.472656 C 114.574219 67.261719 96.15625 56.554688 73.433594 56.554688 Z M 73.433594 56.554688 " clip-rule="nonzero"/></clipPath><clipPath id="3d35b49d93"><path d="M 49.449219 89.148438 L 98.8125 89.148438 L 98.8125 145.453125 L 49.449219 145.453125 Z M 49.449219 89.148438 " clip-rule="nonzero"/></clipPath><clipPath id="7207dc611d"><path d="M 57.503906 89.148438 L 90.757812 89.148438 C 92.894531 89.148438 94.941406 89.996094 96.453125 91.507812 C 97.964844 93.015625 98.8125 95.066406 98.8125 97.203125 L 98.8125 137.3125 C 98.8125 139.449219 97.964844 141.496094 96.453125 143.007812 C 94.941406 144.519531 92.894531 145.367188 90.757812 145.367188 L 57.503906 145.367188 C 55.367188 145.367188 53.320312 144.519531 51.808594 143.007812 C 50.296875 141.496094 49.449219 139.449219 49.449219 137.3125 L 49.449219 97.203125 C 49.449219 95.066406 50.296875 93.015625 51.808594 91.507812 C 53.320312 89.996094 55.367188 89.148438 57.503906 89.148438 Z M 57.503906 89.148438 " clip-rule="nonzero"/></clipPath><clipPath id="92b6dad2fb"><path d="M 33 71 L 84 71 L 84 145 L 33 145 Z M 33 71 " clip-rule="nonzero"/></clipPath><clipPath id="f7146cfb94"><path d="M 31.25 78.371094 L 68.542969 69.035156 L 85.753906 137.792969 L 48.460938 147.128906 Z M 31.25 78.371094 " clip-rule="nonzero"/></clipPath><clipPath id="f6ae16d93f"><path d="M 41.894531 75.707031 L 57.898438 71.699219 C 63.777344 70.226562 69.734375 73.800781 71.207031 79.679688 L 83.054688 127.015625 C 84.527344 132.894531 80.953125 138.855469 75.074219 140.324219 L 59.070312 144.332031 C 53.191406 145.800781 47.234375 142.230469 45.761719 136.351562 L 33.914062 89.011719 C 32.441406 83.136719 36.015625 77.175781 41.894531 75.707031 Z M 41.894531 75.707031 " clip-rule="nonzero"/></clipPath><clipPath id="4bed2c4db6"><path d="M 60 69 L 114 69 L 114 146 L 60 146 Z M 60 69 " clip-rule="nonzero"/></clipPath><clipPath id="fcad7d6730"><path d="M 76.074219 67.558594 L 116.144531 77.488281 L 98.730469 147.765625 L 58.660156 137.835938 Z M 76.074219 67.558594 " clip-rule="nonzero"/></clipPath><clipPath id="b9c4b00826"><path d="M 86.722656 70.199219 L 105.492188 74.847656 C 111.375 76.304688 114.960938 82.253906 113.503906 88.136719 L 101.378906 137.066406 C 99.921875 142.949219 93.972656 146.535156 88.089844 145.078125 L 69.320312 140.429688 C 63.4375 138.96875 59.851562 133.019531 61.308594 127.140625 L 73.433594 78.207031 C 74.890625 72.328125 80.84375 68.738281 86.722656 70.199219 Z M 86.722656 70.199219 " clip-rule="nonzero"/></clipPath><clipPath id="374a0c6c30"><path d="M 97 25 L 128 25 L 128 57 L 97 57 Z M 97 25 " clip-rule="nonzero"/></clipPath><clipPath id="b32a8dee74"><path d="M 98.761719 23.914062 L 129.171875 27.128906 L 125.957031 57.539062 L 95.546875 54.324219 Z M 98.761719 23.914062 " clip-rule="nonzero"/></clipPath><clipPath id="7e0e2120c3"><path d="M 113.96875 25.523438 C 122.363281 26.410156 128.453125 33.9375 127.566406 42.332031 C 126.675781 50.730469 119.148438 56.820312 110.753906 55.929688 C 102.355469 55.042969 96.269531 47.515625 97.15625 39.117188 C 98.042969 30.722656 105.570312 24.632812 113.96875 25.523438 L 113.324219 31.605469 C 108.285156 31.070312 103.769531 34.722656 103.238281 39.761719 C 102.707031 44.800781 106.359375 49.316406 111.394531 49.847656 C 116.433594 50.382812 120.949219 46.730469 121.484375 41.691406 C 122.015625 36.652344 118.363281 32.136719 113.324219 31.605469 Z M 113.96875 25.523438 " clip-rule="nonzero"/></clipPath><clipPath id="23308c4556"><path d="M 113 26 L 128 26 L 128 49 L 113 49 Z M 113 26 " clip-rule="nonzero"/></clipPath><clipPath id="1754546ebc"><path d="M 113.613281 25.484375 L 129.765625 27.191406 L 127.417969 49.40625 L 111.261719 47.695312 Z M 113.613281 25.484375 " clip-rule="nonzero"/></clipPath><clipPath id="2385db8616"><path d="M 117.71875 26.40625 C 121.664062 27.882812 124.828125 30.925781 126.457031 34.808594 C 128.089844 38.695312 128.042969 43.082031 126.332031 46.933594 C 125.890625 47.933594 124.945312 48.617188 123.859375 48.734375 C 122.773438 48.847656 121.707031 48.375 121.066406 47.492188 C 120.421875 46.609375 120.300781 45.449219 120.742188 44.453125 C 121.769531 42.140625 121.796875 39.507812 120.820312 37.175781 C 119.839844 34.84375 117.941406 33.019531 115.574219 32.132812 C 113.992188 31.542969 113.191406 29.78125 113.78125 28.199219 C 114.375 26.617188 116.136719 25.816406 117.71875 26.40625 Z M 117.71875 26.40625 " clip-rule="nonzero"/></clipPath><clipPath id="14931fbce4"><path d="M 98.8125 19.148438 L 108.34375 19.148438 L 108.34375 28.679688 L 98.8125 28.679688 Z M 98.8125 19.148438 " clip-rule="nonzero"/></clipPath><clipPath id="9b8f188638"><path d="M 103.578125 19.148438 C 100.945312 19.148438 98.8125 21.28125 98.8125 23.914062 C 98.8125 26.546875 100.945312 28.679688 103.578125 28.679688 C 106.207031 28.679688 108.34375 26.546875 108.34375 23.914062 C 108.34375 21.28125 106.207031 19.148438 103.578125 19.148438 Z M 103.578125 19.148438 " clip-rule="nonzero"/></clipPath></defs><g clip-path="url(#4dd0807e3b)"><g clip-path="url(#828875318f)"><path fill="#fede39" d="M 31.25 55.226562 L 116.144531 55.226562 L 116.144531 147.085938 L 31.25 147.085938 Z M 31.25 55.226562 " fill-opacity="1" fill-rule="nonzero"/></g></g><g clip-path="url(#16a5538a1a)"><g clip-path="url(#4210db81e2)"><path fill="#dfba2c" d="M 6.902344 1.78125 L 136.007812 1.78125 L 136.007812 73.164062 L 6.902344 73.164062 Z M 6.902344 1.78125 " fill-opacity="1" fill-rule="nonzero"/></g></g><g clip-path="url(#1e745a8859)"><g clip-path="url(#378324bd09)"><g clip-path="url(#583428eb8c)"><path fill="#dfba2c" d="M 5.339844 33.59375 L 62.582031 19.269531 L 90.957031 132.636719 L 33.714844 146.964844 Z M 5.339844 33.59375 " fill-opacity="1" fill-rule="nonzero"/></g></g></g><g clip-path="url(#00654ed7bd)"><g clip-path="url(#01fdbcd0d4)"><path fill="#fede39" d="M 12.609375 1.78125 L 140.136719 1.78125 L 140.136719 77.53125 L 12.609375 77.53125 Z M 12.609375 1.78125 " fill-opacity="1" fill-rule="nonzero"/></g></g><g clip-path="url(#473e8ac8b6)"><g clip-path="url(#36ac94e9ed)"><g clip-path="url(#65e803ce77)"><path fill="#fede39" d="M 83.984375 19.269531 L 142.695312 33.820312 L 115.074219 145.28125 L 56.363281 130.734375 Z M 83.984375 19.269531 " fill-opacity="1" fill-rule="nonzero"/></g></g></g><g clip-path="url(#1fc513b41c)"><g clip-path="url(#6d270295db)"><g clip-path="url(#b7f79c4908)"><path fill="#fee04e" d="M 12.609375 41.808594 L 70.445312 27.332031 L 96.792969 132.609375 L 38.957031 147.085938 Z M 12.609375 41.808594 " fill-opacity="1" fill-rule="nonzero"/></g></g></g><g clip-path="url(#c59635a0f8)"><g clip-path="url(#c0ba670951)"><path fill="#fff9b7" d="M 32.292969 56.554688 L 114.511719 56.554688 L 114.511719 104.390625 L 32.292969 104.390625 Z M 32.292969 56.554688 " fill-opacity="1" fill-rule="nonzero"/></g></g><g clip-path="url(#3d35b49d93)"><g clip-path="url(#7207dc611d)"><path fill="#fff9b7" d="M 49.449219 89.148438 L 98.8125 89.148438 L 98.8125 145.453125 L 49.449219 145.453125 Z M 49.449219 89.148438 " fill-opacity="1" fill-rule="nonzero"/></g></g><g clip-path="url(#92b6dad2fb)"><g clip-path="url(#f7146cfb94)"><g clip-path="url(#f6ae16d93f)"><path fill="#fff9b7" d="M 31.25 78.371094 L 68.542969 69.035156 L 85.714844 137.648438 L 48.421875 146.980469 Z M 31.25 78.371094 " fill-opacity="1" fill-rule="nonzero"/></g></g></g><g clip-path="url(#4bed2c4db6)"><g clip-path="url(#fcad7d6730)"><g clip-path="url(#b9c4b00826)"><path fill="#fff9b7" d="M 76.074219 67.558594 L 116.144531 77.488281 L 98.730469 147.765625 L 58.660156 137.835938 Z M 76.074219 67.558594 " fill-opacity="1" fill-rule="nonzero"/></g></g></g><g clip-path="url(#374a0c6c30)"><g clip-path="url(#b32a8dee74)"><g clip-path="url(#7e0e2120c3)"><path fill="#fee04e" d="M 98.761719 23.914062 L 129.171875 27.128906 L 125.957031 57.539062 L 95.546875 54.324219 Z M 98.761719 23.914062 " fill-opacity="1" fill-rule="nonzero"/></g></g></g><g clip-path="url(#23308c4556)"><g clip-path="url(#1754546ebc)"><g clip-path="url(#2385db8616)"><path fill="#ffffff" d="M 98.761719 23.914062 L 129.171875 27.128906 L 125.957031 57.539062 L 95.546875 54.324219 Z M 98.761719 23.914062 " fill-opacity="1" fill-rule="nonzero"/></g></g></g><g clip-path="url(#14931fbce4)"><g clip-path="url(#9b8f188638)"><path fill="#ffffff" d="M 98.8125 19.148438 L 108.34375 19.148438 L 108.34375 28.679688 L 98.8125 28.679688 Z M 98.8125 19.148438 " fill-opacity="1" fill-rule="nonzero"/></g></g></svg>