<svg xmlns="http://www.w3.org/2000/svg" xmlns:xlink="http://www.w3.org/1999/xlink" width="1080" zoomAndPan="magnify" viewBox="0 0 810 809.999993" height="1080" preserveAspectRatio="xMidYMid meet" version="1.0"><defs><clipPath id="edd9b6c072"><path d="M 282.167969 350.429688 L 530 350.429688 L 530 589.183594 L 282.167969 589.183594 Z M 282.167969 350.429688 " clip-rule="nonzero"/></clipPath><clipPath id="43f7e766f4"><path d="M 351.917969 350.429688 L 459.601562 350.429688 C 478.101562 350.429688 495.839844 357.777344 508.921875 370.859375 C 522.003906 383.9375 529.351562 401.679688 529.351562 420.179688 L 529.351562 519.433594 C 529.351562 537.933594 522.003906 555.671875 508.921875 568.753906 C 495.839844 581.835938 478.101562 589.183594 459.601562 589.183594 L 351.917969 589.183594 C 333.417969 589.183594 315.679688 581.835938 302.597656 568.753906 C 289.515625 555.671875 282.167969 537.933594 282.167969 519.433594 L 282.167969 420.179688 C 282.167969 401.679688 289.515625 383.9375 302.597656 370.859375 C 315.679688 357.777344 333.417969 350.429688 351.917969 350.429688 Z M 351.917969 350.429688 " clip-rule="nonzero"/></clipPath><clipPath id="ed687e224c"><path d="M 227.441406 209.289062 L 568.386719 209.289062 L 568.386719 397.804688 L 227.441406 397.804688 Z M 227.441406 209.289062 " clip-rule="nonzero"/></clipPath><clipPath id="4c9d097ffb"><path d="M 397.773438 209.289062 C 303.703125 209.289062 227.441406 251.488281 227.441406 303.546875 C 227.441406 355.601562 303.703125 397.804688 397.773438 397.804688 C 491.84375 397.804688 568.101562 355.601562 568.101562 303.546875 C 568.101562 251.488281 491.84375 209.289062 397.773438 209.289062 Z M 397.773438 209.289062 " clip-rule="nonzero"/></clipPath><clipPath id="c0056d494b"><path d="M 228 242 L 441 242 L 441 577 L 228 577 Z M 228 242 " clip-rule="nonzero"/></clipPath><clipPath id="65c72937b8"><path d="M 215.71875 269.390625 L 373.53125 229.894531 L 453.605469 549.832031 L 295.792969 589.332031 Z M 215.71875 269.390625 " clip-rule="nonzero"/></clipPath><clipPath id="cae5595dcb"><path d="M 273.195312 255.007812 L 316.050781 244.28125 C 331.296875 240.464844 347.433594 242.859375 360.910156 250.941406 C 374.386719 259.023438 384.101562 272.128906 387.914062 287.371094 L 439.183594 492.207031 C 443 507.449219 440.601562 523.585938 432.519531 537.0625 C 424.4375 550.539062 411.335938 560.253906 396.089844 564.070312 L 353.234375 574.796875 C 337.988281 578.609375 321.855469 576.214844 308.378906 568.132812 C 294.902344 560.050781 285.1875 546.949219 281.371094 531.703125 L 230.105469 326.867188 C 226.289062 311.625 228.683594 295.488281 236.765625 282.011719 C 244.847656 268.535156 257.953125 258.820312 273.195312 255.007812 Z M 273.195312 255.007812 " clip-rule="nonzero"/></clipPath><clipPath id="5ae80106ff"><path d="M 242.507812 209.289062 L 579.296875 209.289062 L 579.296875 409.332031 L 242.507812 409.332031 Z M 242.507812 209.289062 " clip-rule="nonzero"/></clipPath><clipPath id="d33219009f"><path d="M 410.863281 209.289062 C 317.882812 209.289062 242.507812 254.070312 242.507812 309.308594 C 242.507812 364.550781 317.882812 409.332031 410.863281 409.332031 C 503.84375 409.332031 579.21875 364.550781 579.21875 309.308594 C 579.21875 254.070312 503.84375 209.289062 410.863281 209.289062 Z M 410.863281 209.289062 " clip-rule="nonzero"/></clipPath><clipPath id="96cf4186a3"><path d="M 369 242 L 582 242 L 582 577 L 369 577 Z M 369 242 " clip-rule="nonzero"/></clipPath><clipPath id="15f4a3af28"><path d="M 436.378906 229.898438 L 594.28125 269.023438 L 514.957031 589.148438 L 357.050781 550.023438 Z M 436.378906 229.898438 " clip-rule="nonzero"/></clipPath><clipPath id="03ba91fe9c"><path d="M 493.886719 244.148438 L 536.769531 254.773438 C 552.023438 258.554688 565.148438 268.238281 573.261719 281.695312 C 581.375 295.152344 583.808594 311.28125 580.03125 326.535156 L 529.242188 531.492188 C 525.464844 546.742188 515.78125 559.871094 502.320312 567.984375 C 488.863281 576.09375 472.734375 578.53125 457.480469 574.75 L 414.597656 564.125 C 399.347656 560.34375 386.21875 550.660156 378.105469 537.203125 C 369.996094 523.746094 367.558594 507.613281 371.339844 492.363281 L 422.125 287.40625 C 425.90625 272.15625 435.589844 259.027344 449.046875 250.914062 C 462.507812 242.800781 478.636719 240.367188 493.886719 244.148438 Z M 493.886719 244.148438 " clip-rule="nonzero"/></clipPath><clipPath id="17618b7ee3"><path d="M 339.796875 440.710938 L 470.164062 440.710938 L 470.164062 589.410156 L 339.796875 589.410156 Z M 339.796875 440.710938 " clip-rule="nonzero"/></clipPath><clipPath id="f9742262a2"><path d="M 383.296875 440.710938 L 426.664062 440.710938 C 438.199219 440.710938 449.265625 445.296875 457.421875 453.453125 C 465.578125 461.609375 470.164062 472.675781 470.164062 484.210938 L 470.164062 545.683594 C 470.164062 557.21875 465.578125 568.285156 457.421875 576.441406 C 449.265625 584.601562 438.199219 589.183594 426.664062 589.183594 L 383.296875 589.183594 C 371.761719 589.183594 360.695312 584.601562 352.539062 576.441406 C 344.378906 568.285156 339.796875 557.21875 339.796875 545.683594 L 339.796875 484.210938 C 339.796875 472.675781 344.378906 461.609375 352.539062 453.453125 C 360.695312 445.296875 371.761719 440.710938 383.296875 440.710938 Z M 383.296875 440.710938 " clip-rule="nonzero"/></clipPath><clipPath id="d5b88f35cc"><path d="M 243 254 L 457 254 L 457 589 L 243 589 Z M 243 254 " clip-rule="nonzero"/></clipPath><clipPath id="b1e668123a"><path d="M 230.78125 280.917969 L 388.59375 241.421875 L 468.671875 561.359375 L 310.859375 600.859375 Z M 230.78125 280.917969 " clip-rule="nonzero"/></clipPath><clipPath id="45dfbc9608"><path d="M 288.261719 266.535156 L 331.117188 255.808594 C 346.359375 251.992188 362.496094 254.386719 375.972656 262.46875 C 389.449219 270.550781 399.164062 283.65625 402.980469 298.898438 L 454.246094 503.734375 C 458.0625 518.976562 455.667969 535.113281 447.585938 548.589844 C 439.503906 562.066406 426.398438 571.78125 411.15625 575.597656 L 368.296875 586.324219 C 353.054688 590.140625 336.917969 587.742188 323.441406 579.660156 C 309.964844 571.582031 300.25 558.476562 296.4375 543.234375 L 245.167969 338.398438 C 241.351562 323.152344 243.75 307.019531 251.832031 293.539062 C 259.910156 280.0625 273.015625 270.347656 288.261719 266.535156 Z M 288.261719 266.535156 " clip-rule="nonzero"/></clipPath><clipPath id="bee798d799"><path d="M 294.496094 353.933594 L 512 353.933594 L 512 480.261719 L 294.496094 480.261719 Z M 294.496094 353.933594 " clip-rule="nonzero"/></clipPath><clipPath id="739b713fad"><path d="M 403.140625 353.933594 C 343.136719 353.933594 294.496094 382.214844 294.496094 417.097656 C 294.496094 451.984375 343.136719 480.261719 403.140625 480.261719 C 463.148438 480.261719 511.789062 451.984375 511.789062 417.097656 C 511.789062 382.214844 463.148438 353.933594 403.140625 353.933594 Z M 403.140625 353.933594 " clip-rule="nonzero"/></clipPath><clipPath id="26ff960497"><path d="M 296 371 L 433 371 L 433 590 L 296 590 Z M 296 371 " clip-rule="nonzero"/></clipPath><clipPath id="4792216e3f"><path d="M 284.871094 386.40625 L 390.628906 359.9375 L 444.289062 574.339844 L 338.535156 600.808594 Z M 284.871094 386.40625 " clip-rule="nonzero"/></clipPath><clipPath id="99a74f2680"><path d="M 337.75 373.171875 C 366.953125 365.863281 396.554688 383.613281 403.863281 412.816406 L 431.03125 521.363281 C 438.339844 550.566406 420.589844 580.164062 391.386719 587.476562 C 362.183594 594.785156 332.585938 577.035156 325.273438 547.832031 L 298.105469 439.285156 C 290.796875 410.082031 308.546875 380.480469 337.75 373.171875 Z M 337.75 373.171875 " clip-rule="nonzero"/></clipPath><clipPath id="45710c4ffc"><path d="M 376 371 L 513 371 L 513 590 L 376 590 Z M 376 371 " clip-rule="nonzero"/></clipPath><clipPath id="c016347d45"><path d="M 417.921875 359.941406 L 523.742188 386.160156 L 470.582031 600.6875 L 364.761719 574.46875 Z M 417.921875 359.941406 " clip-rule="nonzero"/></clipPath><clipPath id="3da97947ab"><path d="M 470.832031 373.050781 C 500.050781 380.289062 517.871094 409.847656 510.628906 439.070312 L 483.714844 547.679688 C 476.476562 576.902344 446.917969 594.71875 417.695312 587.480469 C 388.476562 580.238281 370.65625 550.679688 377.898438 521.460938 L 404.8125 412.847656 C 412.054688 383.628906 441.609375 365.808594 470.832031 373.050781 Z M 470.832031 373.050781 " clip-rule="nonzero"/></clipPath><clipPath id="a79585fc25"><path d="M 465 271 L 547 271 L 547 353 L 465 353 Z M 465 271 " clip-rule="nonzero"/></clipPath><clipPath id="e1f742caa8"><path d="M 470.03125 267.738281 L 550.335938 276.226562 L 541.847656 356.53125 L 461.542969 348.042969 Z M 470.03125 267.738281 " clip-rule="nonzero"/></clipPath><clipPath id="6f81394c93"><path d="M 510.183594 271.984375 C 532.359375 274.328125 548.4375 294.203125 546.089844 316.378906 C 543.746094 338.554688 523.871094 354.632812 501.695312 352.289062 C 479.519531 349.941406 463.441406 330.066406 465.785156 307.890625 C 468.132812 285.714844 488.007812 269.636719 510.183594 271.984375 L 508.484375 288.042969 C 495.179688 286.636719 483.253906 296.28125 481.847656 309.589844 C 480.441406 322.894531 490.085938 334.820312 503.390625 336.226562 C 516.699219 337.632812 528.625 327.988281 530.03125 314.683594 C 531.4375 301.375 521.792969 289.449219 508.484375 288.042969 Z M 510.183594 271.984375 " clip-rule="nonzero"/></clipPath><clipPath id="bc2befa612"><path d="M 509 273 L 547 273 L 547 334 L 509 334 Z M 509 273 " clip-rule="nonzero"/></clipPath><clipPath id="d27e6fea2e"><path d="M 509.242188 271.882812 L 551.90625 276.394531 L 545.703125 335.054688 L 503.042969 330.542969 Z M 509.242188 271.882812 " clip-rule="nonzero"/></clipPath><clipPath id="f023659dab"><path d="M 520.085938 274.320312 C 530.511719 278.21875 538.863281 286.25 543.171875 296.511719 C 547.476562 306.773438 547.355469 318.359375 542.835938 328.53125 C 541.664062 331.167969 539.175781 332.976562 536.308594 333.28125 C 533.4375 333.585938 530.625 332.335938 528.925781 330.003906 C 527.230469 327.671875 526.90625 324.609375 528.078125 321.972656 C 530.789062 315.871094 530.863281 308.917969 528.277344 302.761719 C 525.695312 296.601562 520.683594 291.785156 514.429688 289.445312 C 510.25 287.882812 508.132812 283.230469 509.695312 279.050781 C 511.257812 274.875 515.910156 272.757812 520.085938 274.320312 Z M 520.085938 274.320312 " clip-rule="nonzero"/></clipPath><clipPath id="07d069d05b"><path d="M 470.164062 255.15625 L 495.328125 255.15625 L 495.328125 280.320312 L 470.164062 280.320312 Z M 470.164062 255.15625 " clip-rule="nonzero"/></clipPath><clipPath id="d637a74de0"><path d="M 482.746094 255.15625 C 475.796875 255.15625 470.164062 260.789062 470.164062 267.738281 C 470.164062 274.6875 475.796875 280.320312 482.746094 280.320312 C 489.695312 280.320312 495.328125 274.6875 495.328125 267.738281 C 495.328125 260.789062 489.695312 255.15625 482.746094 255.15625 Z M 482.746094 255.15625 " clip-rule="nonzero"/></clipPath></defs><g clip-path="url(#edd9b6c072)"><g clip-path="url(#43f7e766f4)"><path fill="#fede39" d="M 282.167969 350.429688 L 529.316406 350.429688 L 529.316406 589.183594 L 282.167969 589.183594 Z M 282.167969 350.429688 " fill-opacity="1" fill-rule="nonzero"/></g></g><g clip-path="url(#ed687e224c)"><g clip-path="url(#4c9d097ffb)"><path fill="#dfba2c" d="M 227.441406 209.289062 L 568.386719 209.289062 L 568.386719 397.804688 L 227.441406 397.804688 Z M 227.441406 209.289062 " fill-opacity="1" fill-rule="nonzero"/></g></g><g clip-path="url(#c0056d494b)"><g clip-path="url(#65c72937b8)"><g clip-path="url(#cae5595dcb)"><path fill="#dfba2c" d="M 215.71875 269.390625 L 373.53125 229.894531 L 453.605469 549.832031 L 295.792969 589.332031 Z M 215.71875 269.390625 " fill-opacity="1" fill-rule="nonzero"/></g></g></g><g clip-path="url(#5ae80106ff)"><g clip-path="url(#d33219009f)"><path fill="#fede39" d="M 242.507812 209.289062 L 579.296875 209.289062 L 579.296875 409.332031 L 242.507812 409.332031 Z M 242.507812 209.289062 " fill-opacity="1" fill-rule="nonzero"/></g></g><g clip-path="url(#96cf4186a3)"><g clip-path="url(#15f4a3af28)"><g clip-path="url(#03ba91fe9c)"><path fill="#fede39" d="M 436.378906 229.898438 L 594.28125 269.023438 L 514.957031 589.148438 L 357.050781 550.023438 Z M 436.378906 229.898438 " fill-opacity="1" fill-rule="nonzero"/></g></g></g><g clip-path="url(#17618b7ee3)"><g clip-path="url(#f9742262a2)"><path fill="#fff9b7" d="M 339.796875 440.710938 L 470.164062 440.710938 L 470.164062 589.410156 L 339.796875 589.410156 Z M 339.796875 440.710938 " fill-opacity="1" fill-rule="nonzero"/></g></g><g clip-path="url(#d5b88f35cc)"><g clip-path="url(#b1e668123a)"><g clip-path="url(#45dfbc9608)"><path fill="#fee04e" d="M 230.78125 280.917969 L 388.59375 241.421875 L 468.671875 561.359375 L 310.859375 600.859375 Z M 230.78125 280.917969 " fill-opacity="1" fill-rule="nonzero"/></g></g></g><g clip-path="url(#bee798d799)"><g clip-path="url(#739b713fad)"><path fill="#fff9b7" d="M 294.496094 353.933594 L 511.625 353.933594 L 511.625 480.261719 L 294.496094 480.261719 Z M 294.496094 353.933594 " fill-opacity="1" fill-rule="nonzero"/></g></g><g clip-path="url(#26ff960497)"><g clip-path="url(#4792216e3f)"><g clip-path="url(#99a74f2680)"><path fill="#fff9b7" d="M 284.871094 386.40625 L 390.628906 359.9375 L 444.289062 574.339844 L 338.535156 600.808594 Z M 284.871094 386.40625 " fill-opacity="1" fill-rule="nonzero"/></g></g></g><g clip-path="url(#45710c4ffc)"><g clip-path="url(#c016347d45)"><g clip-path="url(#3da97947ab)"><path fill="#fff9b7" d="M 417.921875 359.941406 L 523.742188 386.160156 L 470.582031 600.6875 L 364.761719 574.46875 Z M 417.921875 359.941406 " fill-opacity="1" fill-rule="nonzero"/></g></g></g><g clip-path="url(#a79585fc25)"><g clip-path="url(#e1f742caa8)"><g clip-path="url(#6f81394c93)"><path fill="#fee04e" d="M 470.03125 267.738281 L 550.335938 276.226562 L 541.847656 356.53125 L 461.542969 348.042969 Z M 470.03125 267.738281 " fill-opacity="1" fill-rule="nonzero"/></g></g></g><g clip-path="url(#bc2befa612)"><g clip-path="url(#d27e6fea2e)"><g clip-path="url(#f023659dab)"><path fill="#ffffff" d="M 470.03125 267.738281 L 550.335938 276.226562 L 541.847656 356.53125 L 461.542969 348.042969 Z M 470.03125 267.738281 " fill-opacity="1" fill-rule="nonzero"/></g></g></g><g clip-path="url(#07d069d05b)"><g clip-path="url(#d637a74de0)"><path fill="#ffffff" d="M 470.164062 255.15625 L 495.328125 255.15625 L 495.328125 280.320312 L 470.164062 280.320312 Z M 470.164062 255.15625 " fill-opacity="1" fill-rule="nonzero"/></g></g></svg>