<svg xmlns="http://www.w3.org/2000/svg" xmlns:xlink="http://www.w3.org/1999/xlink" width="200" zoomAndPan="magnify" viewBox="0 0 150 149.999998" height="200" preserveAspectRatio="xMidYMid meet" version="1.0"><defs><clipPath id="86d94ca86d"><path d="M 3.554688 45.90625 L 146.304688 45.90625 L 146.304688 146.578125 L 3.554688 146.578125 Z M 3.554688 45.90625 " clip-rule="nonzero"/></clipPath><clipPath id="a5eefdad58"><path d="M 33.554688 45.90625 L 116.175781 45.90625 C 132.746094 45.90625 146.175781 59.339844 146.175781 75.90625 L 146.175781 116.578125 C 146.175781 133.148438 132.746094 146.578125 116.175781 146.578125 L 33.554688 146.578125 C 16.984375 146.578125 3.554688 133.148438 3.554688 116.578125 L 3.554688 75.90625 C 3.554688 59.339844 16.984375 45.90625 33.554688 45.90625 Z M 33.554688 45.90625 " clip-rule="nonzero"/></clipPath><clipPath id="b3e56fe68a"><path d="M 3.824219 10.644531 L 146.515625 10.644531 L 146.515625 60.546875 L 3.824219 60.546875 Z M 3.824219 10.644531 " clip-rule="nonzero"/></clipPath><clipPath id="4b6e58f3cb"><path d="M 28.773438 10.644531 L 121.492188 10.644531 C 135.273438 10.644531 146.445312 21.816406 146.445312 35.597656 C 146.445312 49.375 135.273438 60.546875 121.492188 60.546875 L 28.773438 60.546875 C 14.996094 60.546875 3.824219 49.375 3.824219 35.597656 C 3.824219 21.816406 14.996094 10.644531 28.773438 10.644531 Z M 28.773438 10.644531 " clip-rule="nonzero"/></clipPath><clipPath id="5240c2eda9"><path d="M 3.824219 38.382812 L 146.445312 38.382812 L 146.445312 75 L 3.824219 75 Z M 3.824219 38.382812 " clip-rule="nonzero"/></clipPath><clipPath id="76f9857db7"><path d="M 10.648438 14.59375 L 30.828125 14.59375 L 30.828125 34.773438 L 10.648438 34.773438 Z M 10.648438 14.59375 " clip-rule="nonzero"/></clipPath><clipPath id="53b207d8df"><path d="M 20.738281 14.59375 C 15.164062 14.59375 10.648438 19.109375 10.648438 24.683594 C 10.648438 30.253906 15.164062 34.773438 20.738281 34.773438 C 26.3125 34.773438 30.828125 30.253906 30.828125 24.683594 C 30.828125 19.109375 26.3125 14.59375 20.738281 14.59375 Z M 20.738281 14.59375 " clip-rule="nonzero"/></clipPath><clipPath id="830e1c6a16"><path d="M 10.648438 14.59375 L 30.796875 14.59375 L 30.796875 34.742188 L 10.648438 34.742188 Z M 10.648438 14.59375 " clip-rule="nonzero"/></clipPath><clipPath id="e44732103d"><path d="M 20.738281 14.59375 C 15.164062 14.59375 10.648438 19.109375 10.648438 24.683594 C 10.648438 30.253906 15.164062 34.773438 20.738281 34.773438 C 26.3125 34.773438 30.828125 30.253906 30.828125 24.683594 C 30.828125 19.109375 26.3125 14.59375 20.738281 14.59375 Z M 20.738281 14.59375 " clip-rule="nonzero"/></clipPath><clipPath id="78e8482b27"><path d="M 118.382812 14.59375 L 138.5625 14.59375 L 138.5625 34.773438 L 118.382812 34.773438 Z M 118.382812 14.59375 " clip-rule="nonzero"/></clipPath><clipPath id="0c7769f932"><path d="M 128.472656 14.59375 C 122.898438 14.59375 118.382812 19.109375 118.382812 24.683594 C 118.382812 30.253906 122.898438 34.773438 128.472656 34.773438 C 134.046875 34.773438 138.5625 30.253906 138.5625 24.683594 C 138.5625 19.109375 134.046875 14.59375 128.472656 14.59375 Z M 128.472656 14.59375 " clip-rule="nonzero"/></clipPath><clipPath id="41936895a1"><path d="M 118.382812 14.59375 L 138.53125 14.59375 L 138.53125 34.742188 L 118.382812 34.742188 Z M 118.382812 14.59375 " clip-rule="nonzero"/></clipPath><clipPath id="8ebe51b379"><path d="M 128.472656 14.59375 C 122.898438 14.59375 118.382812 19.109375 118.382812 24.683594 C 118.382812 30.253906 122.898438 34.773438 128.472656 34.773438 C 134.046875 34.773438 138.5625 30.253906 138.5625 24.683594 C 138.5625 19.109375 134.046875 14.59375 128.472656 14.59375 Z M 128.472656 14.59375 " clip-rule="nonzero"/></clipPath><clipPath id="ad96ddafe2"><path d="M 16.917969 53.441406 L 35.734375 53.441406 L 35.734375 68.589844 L 16.917969 68.589844 Z M 16.917969 53.441406 " clip-rule="nonzero"/></clipPath><clipPath id="12e4d57ffa"><path d="M 22.917969 53.441406 L 29.730469 53.441406 C 33.046875 53.441406 35.730469 56.128906 35.730469 59.441406 L 35.730469 62.589844 C 35.730469 65.902344 33.046875 68.589844 29.730469 68.589844 L 22.917969 68.589844 C 19.601562 68.589844 16.917969 65.902344 16.917969 62.589844 L 16.917969 59.441406 C 16.917969 56.128906 19.601562 53.441406 22.917969 53.441406 Z M 22.917969 53.441406 " clip-rule="nonzero"/></clipPath><clipPath id="6572a44627"><path d="M 41.34375 53.441406 L 60.160156 53.441406 L 60.160156 68.589844 L 41.34375 68.589844 Z M 41.34375 53.441406 " clip-rule="nonzero"/></clipPath><clipPath id="13357a5ddc"><path d="M 47.34375 53.441406 L 54.160156 53.441406 C 57.472656 53.441406 60.160156 56.128906 60.160156 59.441406 L 60.160156 62.589844 C 60.160156 65.902344 57.472656 68.589844 54.160156 68.589844 L 47.34375 68.589844 C 44.03125 68.589844 41.34375 65.902344 41.34375 62.589844 L 41.34375 59.441406 C 41.34375 56.128906 44.03125 53.441406 47.34375 53.441406 Z M 47.34375 53.441406 " clip-rule="nonzero"/></clipPath><clipPath id="92b8514c85"><path d="M 65.726562 53.441406 L 84.542969 53.441406 L 84.542969 68.589844 L 65.726562 68.589844 Z M 65.726562 53.441406 " clip-rule="nonzero"/></clipPath><clipPath id="6ae4980fe1"><path d="M 71.726562 53.441406 L 78.542969 53.441406 C 81.855469 53.441406 84.542969 56.128906 84.542969 59.441406 L 84.542969 62.589844 C 84.542969 65.902344 81.855469 68.589844 78.542969 68.589844 L 71.726562 68.589844 C 68.414062 68.589844 65.726562 65.902344 65.726562 62.589844 L 65.726562 59.441406 C 65.726562 56.128906 68.414062 53.441406 71.726562 53.441406 Z M 71.726562 53.441406 " clip-rule="nonzero"/></clipPath><clipPath id="015fe2c53b"><path d="M 90.109375 53.441406 L 108.925781 53.441406 L 108.925781 68.589844 L 90.109375 68.589844 Z M 90.109375 53.441406 " clip-rule="nonzero"/></clipPath><clipPath id="ea5aed7711"><path d="M 96.109375 53.441406 L 102.921875 53.441406 C 106.238281 53.441406 108.921875 56.128906 108.921875 59.441406 L 108.921875 62.589844 C 108.921875 65.902344 106.238281 68.589844 102.921875 68.589844 L 96.109375 68.589844 C 92.796875 68.589844 90.109375 65.902344 90.109375 62.589844 L 90.109375 59.441406 C 90.109375 56.128906 92.796875 53.441406 96.109375 53.441406 Z M 96.109375 53.441406 " clip-rule="nonzero"/></clipPath><clipPath id="ad0637cf3c"><path d="M 114.492188 53.441406 L 133.308594 53.441406 L 133.308594 68.589844 L 114.492188 68.589844 Z M 114.492188 53.441406 " clip-rule="nonzero"/></clipPath><clipPath id="7d154c05ae"><path d="M 120.492188 53.441406 L 127.304688 53.441406 C 130.621094 53.441406 133.304688 56.128906 133.304688 59.441406 L 133.304688 62.589844 C 133.304688 65.902344 130.621094 68.589844 127.304688 68.589844 L 120.492188 68.589844 C 117.175781 68.589844 114.492188 65.902344 114.492188 62.589844 L 114.492188 59.441406 C 114.492188 56.128906 117.175781 53.441406 120.492188 53.441406 Z M 120.492188 53.441406 " clip-rule="nonzero"/></clipPath><clipPath id="2e0e2fd450"><path d="M 16.941406 72.957031 L 35.757812 72.957031 L 35.757812 88.105469 L 16.941406 88.105469 Z M 16.941406 72.957031 " clip-rule="nonzero"/></clipPath><clipPath id="21319e0257"><path d="M 22.941406 72.957031 L 29.753906 72.957031 C 33.070312 72.957031 35.753906 75.644531 35.753906 78.957031 L 35.753906 82.105469 C 35.753906 85.417969 33.070312 88.105469 29.753906 88.105469 L 22.941406 88.105469 C 19.625 88.105469 16.941406 85.417969 16.941406 82.105469 L 16.941406 78.957031 C 16.941406 75.644531 19.625 72.957031 22.941406 72.957031 Z M 22.941406 72.957031 " clip-rule="nonzero"/></clipPath><clipPath id="26d9448a63"><path d="M 41.367188 72.957031 L 60.183594 72.957031 L 60.183594 88.105469 L 41.367188 88.105469 Z M 41.367188 72.957031 " clip-rule="nonzero"/></clipPath><clipPath id="85cd5a4bfb"><path d="M 47.367188 72.957031 L 54.183594 72.957031 C 57.496094 72.957031 60.183594 75.644531 60.183594 78.957031 L 60.183594 82.105469 C 60.183594 85.417969 57.496094 88.105469 54.183594 88.105469 L 47.367188 88.105469 C 44.054688 88.105469 41.367188 85.417969 41.367188 82.105469 L 41.367188 78.957031 C 41.367188 75.644531 44.054688 72.957031 47.367188 72.957031 Z M 47.367188 72.957031 " clip-rule="nonzero"/></clipPath><clipPath id="d85c7c0a15"><path d="M 65.75 72.957031 L 84.566406 72.957031 L 84.566406 88.105469 L 65.75 88.105469 Z M 65.75 72.957031 " clip-rule="nonzero"/></clipPath><clipPath id="532bb71027"><path d="M 71.75 72.957031 L 78.5625 72.957031 C 81.878906 72.957031 84.5625 75.644531 84.5625 78.957031 L 84.5625 82.105469 C 84.5625 85.417969 81.878906 88.105469 78.5625 88.105469 L 71.75 88.105469 C 68.4375 88.105469 65.75 85.417969 65.75 82.105469 L 65.75 78.957031 C 65.75 75.644531 68.4375 72.957031 71.75 72.957031 Z M 71.75 72.957031 " clip-rule="nonzero"/></clipPath><clipPath id="47ce4ca92b"><path d="M 90.132812 72.957031 L 108.949219 72.957031 L 108.949219 88.105469 L 90.132812 88.105469 Z M 90.132812 72.957031 " clip-rule="nonzero"/></clipPath><clipPath id="090ba265e9"><path d="M 96.132812 72.957031 L 102.945312 72.957031 C 106.261719 72.957031 108.945312 75.644531 108.945312 78.957031 L 108.945312 82.105469 C 108.945312 85.417969 106.261719 88.105469 102.945312 88.105469 L 96.132812 88.105469 C 92.816406 88.105469 90.132812 85.417969 90.132812 82.105469 L 90.132812 78.957031 C 90.132812 75.644531 92.816406 72.957031 96.132812 72.957031 Z M 96.132812 72.957031 " clip-rule="nonzero"/></clipPath><clipPath id="9925a450e7"><path d="M 114.515625 72.957031 L 133.332031 72.957031 L 133.332031 88.105469 L 114.515625 88.105469 Z M 114.515625 72.957031 " clip-rule="nonzero"/></clipPath><clipPath id="82d992337d"><path d="M 120.515625 72.957031 L 127.328125 72.957031 C 130.640625 72.957031 133.328125 75.644531 133.328125 78.957031 L 133.328125 82.105469 C 133.328125 85.417969 130.640625 88.105469 127.328125 88.105469 L 120.515625 88.105469 C 117.199219 88.105469 114.515625 85.417969 114.515625 82.105469 L 114.515625 78.957031 C 114.515625 75.644531 117.199219 72.957031 120.515625 72.957031 Z M 120.515625 72.957031 " clip-rule="nonzero"/></clipPath><clipPath id="072882a519"><path d="M 16.917969 92.347656 L 35.734375 92.347656 L 35.734375 107.496094 L 16.917969 107.496094 Z M 16.917969 92.347656 " clip-rule="nonzero"/></clipPath><clipPath id="799b02321e"><path d="M 22.917969 92.347656 L 29.730469 92.347656 C 33.046875 92.347656 35.730469 95.035156 35.730469 98.347656 L 35.730469 101.496094 C 35.730469 104.808594 33.046875 107.496094 29.730469 107.496094 L 22.917969 107.496094 C 19.601562 107.496094 16.917969 104.808594 16.917969 101.496094 L 16.917969 98.347656 C 16.917969 95.035156 19.601562 92.347656 22.917969 92.347656 Z M 22.917969 92.347656 " clip-rule="nonzero"/></clipPath><clipPath id="e7e7c6b1b2"><path d="M 41.34375 92.347656 L 60.160156 92.347656 L 60.160156 107.496094 L 41.34375 107.496094 Z M 41.34375 92.347656 " clip-rule="nonzero"/></clipPath><clipPath id="b6dabca55e"><path d="M 47.34375 92.347656 L 54.160156 92.347656 C 57.472656 92.347656 60.160156 95.035156 60.160156 98.347656 L 60.160156 101.496094 C 60.160156 104.808594 57.472656 107.496094 54.160156 107.496094 L 47.34375 107.496094 C 44.03125 107.496094 41.34375 104.808594 41.34375 101.496094 L 41.34375 98.347656 C 41.34375 95.035156 44.03125 92.347656 47.34375 92.347656 Z M 47.34375 92.347656 " clip-rule="nonzero"/></clipPath><clipPath id="048f59ab37"><path d="M 65.726562 92.347656 L 84.542969 92.347656 L 84.542969 107.496094 L 65.726562 107.496094 Z M 65.726562 92.347656 " clip-rule="nonzero"/></clipPath><clipPath id="ff51ff4aca"><path d="M 71.726562 92.347656 L 78.542969 92.347656 C 81.855469 92.347656 84.542969 95.035156 84.542969 98.347656 L 84.542969 101.496094 C 84.542969 104.808594 81.855469 107.496094 78.542969 107.496094 L 71.726562 107.496094 C 68.414062 107.496094 65.726562 104.808594 65.726562 101.496094 L 65.726562 98.347656 C 65.726562 95.035156 68.414062 92.347656 71.726562 92.347656 Z M 71.726562 92.347656 " clip-rule="nonzero"/></clipPath><clipPath id="fa344a620e"><path d="M 90.109375 92.347656 L 108.925781 92.347656 L 108.925781 107.496094 L 90.109375 107.496094 Z M 90.109375 92.347656 " clip-rule="nonzero"/></clipPath><clipPath id="7e9c7265b4"><path d="M 96.109375 92.347656 L 102.921875 92.347656 C 106.238281 92.347656 108.921875 95.035156 108.921875 98.347656 L 108.921875 101.496094 C 108.921875 104.808594 106.238281 107.496094 102.921875 107.496094 L 96.109375 107.496094 C 92.796875 107.496094 90.109375 104.808594 90.109375 101.496094 L 90.109375 98.347656 C 90.109375 95.035156 92.796875 92.347656 96.109375 92.347656 Z M 96.109375 92.347656 " clip-rule="nonzero"/></clipPath><clipPath id="611a06b15a"><path d="M 114.492188 92.347656 L 133.308594 92.347656 L 133.308594 107.496094 L 114.492188 107.496094 Z M 114.492188 92.347656 " clip-rule="nonzero"/></clipPath><clipPath id="12d9fcb8d3"><path d="M 120.492188 92.347656 L 127.304688 92.347656 C 130.621094 92.347656 133.304688 95.035156 133.304688 98.347656 L 133.304688 101.496094 C 133.304688 104.808594 130.621094 107.496094 127.304688 107.496094 L 120.492188 107.496094 C 117.175781 107.496094 114.492188 104.808594 114.492188 101.496094 L 114.492188 98.347656 C 114.492188 95.035156 117.175781 92.347656 120.492188 92.347656 Z M 120.492188 92.347656 " clip-rule="nonzero"/></clipPath><clipPath id="0eff8b9906"><path d="M 16.960938 111.738281 L 35.78125 111.738281 L 35.78125 126.882812 L 16.960938 126.882812 Z M 16.960938 111.738281 " clip-rule="nonzero"/></clipPath><clipPath id="f835ef85c8"><path d="M 22.960938 111.738281 L 29.777344 111.738281 C 33.089844 111.738281 35.777344 114.421875 35.777344 117.738281 L 35.777344 120.882812 C 35.777344 124.199219 33.089844 126.882812 29.777344 126.882812 L 22.960938 126.882812 C 19.648438 126.882812 16.960938 124.199219 16.960938 120.882812 L 16.960938 117.738281 C 16.960938 114.421875 19.648438 111.738281 22.960938 111.738281 Z M 22.960938 111.738281 " clip-rule="nonzero"/></clipPath><clipPath id="def4cb9d86"><path d="M 41.390625 111.738281 L 60.207031 111.738281 L 60.207031 126.882812 L 41.390625 126.882812 Z M 41.390625 111.738281 " clip-rule="nonzero"/></clipPath><clipPath id="a145e50c43"><path d="M 47.390625 111.738281 L 54.203125 111.738281 C 57.519531 111.738281 60.203125 114.421875 60.203125 117.738281 L 60.203125 120.882812 C 60.203125 124.199219 57.519531 126.882812 54.203125 126.882812 L 47.390625 126.882812 C 44.078125 126.882812 41.390625 124.199219 41.390625 120.882812 L 41.390625 117.738281 C 41.390625 114.421875 44.078125 111.738281 47.390625 111.738281 Z M 47.390625 111.738281 " clip-rule="nonzero"/></clipPath><clipPath id="fcb15f8085"><path d="M 65.773438 111.738281 L 84.589844 111.738281 L 84.589844 126.882812 L 65.773438 126.882812 Z M 65.773438 111.738281 " clip-rule="nonzero"/></clipPath><clipPath id="73e7867350"><path d="M 71.773438 111.738281 L 78.585938 111.738281 C 81.902344 111.738281 84.585938 114.421875 84.585938 117.738281 L 84.585938 120.882812 C 84.585938 124.199219 81.902344 126.882812 78.585938 126.882812 L 71.773438 126.882812 C 68.457031 126.882812 65.773438 124.199219 65.773438 120.882812 L 65.773438 117.738281 C 65.773438 114.421875 68.457031 111.738281 71.773438 111.738281 Z M 71.773438 111.738281 " clip-rule="nonzero"/></clipPath><clipPath id="c58d80dc97"><path d="M 90.15625 111.738281 L 108.972656 111.738281 L 108.972656 126.882812 L 90.15625 126.882812 Z M 90.15625 111.738281 " clip-rule="nonzero"/></clipPath><clipPath id="afc66bc3a1"><path d="M 96.15625 111.738281 L 102.96875 111.738281 C 106.28125 111.738281 108.96875 114.421875 108.96875 117.738281 L 108.96875 120.882812 C 108.96875 124.199219 106.28125 126.882812 102.96875 126.882812 L 96.15625 126.882812 C 92.839844 126.882812 90.15625 124.199219 90.15625 120.882812 L 90.15625 117.738281 C 90.15625 114.421875 92.839844 111.738281 96.15625 111.738281 Z M 96.15625 111.738281 " clip-rule="nonzero"/></clipPath><clipPath id="feb882fcf1"><path d="M 114.535156 111.738281 L 133.351562 111.738281 L 133.351562 126.882812 L 114.535156 126.882812 Z M 114.535156 111.738281 " clip-rule="nonzero"/></clipPath><clipPath id="103dd49098"><path d="M 120.535156 111.738281 L 127.351562 111.738281 C 130.664062 111.738281 133.351562 114.421875 133.351562 117.738281 L 133.351562 120.882812 C 133.351562 124.199219 130.664062 126.882812 127.351562 126.882812 L 120.535156 126.882812 C 117.222656 126.882812 114.535156 124.199219 114.535156 120.882812 L 114.535156 117.738281 C 114.535156 114.421875 117.222656 111.738281 120.535156 111.738281 Z M 120.535156 111.738281 " clip-rule="nonzero"/></clipPath><clipPath id="41b3b32441"><path d="M 123.113281 3.421875 L 133.832031 3.421875 L 133.832031 29.875 L 123.113281 29.875 Z M 123.113281 3.421875 " clip-rule="nonzero"/></clipPath><clipPath id="5f848404d4"><path d="M 128.472656 3.421875 C 131.429688 3.421875 133.832031 5.820312 133.832031 8.777344 L 133.832031 24.480469 C 133.832031 27.441406 131.429688 29.839844 128.472656 29.839844 C 125.511719 29.839844 123.113281 27.441406 123.113281 24.480469 L 123.113281 8.777344 C 123.113281 5.820312 125.511719 3.421875 128.472656 3.421875 Z M 128.472656 3.421875 " clip-rule="nonzero"/></clipPath><clipPath id="325696b9dc"><path d="M 15.382812 3.421875 L 26.097656 3.421875 L 26.097656 29.875 L 15.382812 29.875 Z M 15.382812 3.421875 " clip-rule="nonzero"/></clipPath><clipPath id="1462428f98"><path d="M 20.738281 3.421875 C 23.699219 3.421875 26.097656 5.820312 26.097656 8.777344 L 26.097656 24.480469 C 26.097656 27.441406 23.699219 29.839844 20.738281 29.839844 C 17.78125 29.839844 15.382812 27.441406 15.382812 24.480469 L 15.382812 8.777344 C 15.382812 5.820312 17.78125 3.421875 20.738281 3.421875 Z M 20.738281 3.421875 " clip-rule="nonzero"/></clipPath><clipPath id="2a98746f9d"><path d="M 96 67 L 112 67 L 112 88 L 96 88 Z M 96 67 " clip-rule="nonzero"/></clipPath><clipPath id="909926d66d"><path d="M 108.21875 67.046875 L 111.980469 69.621094 L 99.40625 88.003906 L 95.644531 85.429688 Z M 108.21875 67.046875 " clip-rule="nonzero"/></clipPath><clipPath id="0a86eff377"><path d="M 110.101562 68.335938 C 110.601562 68.675781 110.941406 69.199219 111.054688 69.792969 C 111.164062 70.386719 111.035156 71.003906 110.695312 71.5 L 100.703125 86.109375 C 100.363281 86.609375 99.835938 86.953125 99.242188 87.0625 C 98.648438 87.175781 98.035156 87.046875 97.535156 86.703125 C 97.035156 86.363281 96.695312 85.839844 96.582031 85.246094 C 96.472656 84.648438 96.601562 84.035156 96.941406 83.539062 L 106.933594 68.929688 C 107.273438 68.429688 107.800781 68.085938 108.394531 67.976562 C 108.988281 67.863281 109.601562 67.992188 110.101562 68.335938 Z M 110.101562 68.335938 " clip-rule="nonzero"/></clipPath><clipPath id="528f1e7f71"><path d="M 91 75 L 101 75 L 101 88 L 91 88 Z M 91 75 " clip-rule="nonzero"/></clipPath><clipPath id="6f97128512"><path d="M 90.632812 77.613281 L 94.34375 74.96875 L 101.742188 85.351562 L 98.027344 87.996094 Z M 90.632812 77.613281 " clip-rule="nonzero"/></clipPath><clipPath id="82e31ef502"><path d="M 92.488281 76.292969 C 92.980469 75.941406 93.589844 75.800781 94.1875 75.898438 C 94.785156 76 95.316406 76.332031 95.667969 76.824219 L 100.414062 83.488281 C 100.765625 83.980469 100.90625 84.59375 100.808594 85.191406 C 100.707031 85.785156 100.375 86.316406 99.882812 86.667969 C 99.390625 87.019531 98.777344 87.160156 98.183594 87.058594 C 97.585938 86.960938 97.054688 86.628906 96.703125 86.136719 L 91.953125 79.46875 C 91.605469 78.976562 91.464844 78.367188 91.5625 77.769531 C 91.664062 77.171875 91.996094 76.640625 92.488281 76.292969 Z M 92.488281 76.292969 " clip-rule="nonzero"/></clipPath></defs><g clip-path="url(#86d94ca86d)"><g clip-path="url(#a5eefdad58)"><path fill="#fff9b7" d="M 3.554688 45.90625 L 146.304688 45.90625 L 146.304688 146.578125 L 3.554688 146.578125 Z M 3.554688 45.90625 " fill-opacity="1" fill-rule="nonzero"/></g></g><g clip-path="url(#b3e56fe68a)"><g clip-path="url(#4b6e58f3cb)"><path fill="#dd2e44" d="M 3.824219 10.644531 L 146.515625 10.644531 L 146.515625 60.546875 L 3.824219 60.546875 Z M 3.824219 10.644531 " fill-opacity="1" fill-rule="nonzero"/></g></g><g clip-path="url(#5240c2eda9)"><path fill="#fff9b7" d="M 3.824219 38.382812 L 146.4375 38.382812 L 146.4375 75 L 3.824219 75 Z M 3.824219 38.382812 " fill-opacity="1" fill-rule="nonzero"/></g><g clip-path="url(#76f9857db7)"><g clip-path="url(#53b207d8df)"><path fill="#2a81b9" d="M 10.648438 14.59375 L 30.828125 14.59375 L 30.828125 34.773438 L 10.648438 34.773438 Z M 10.648438 14.59375 " fill-opacity="1" fill-rule="nonzero"/></g></g><g clip-path="url(#830e1c6a16)"><g clip-path="url(#e44732103d)"><path stroke-linecap="butt" transform="matrix(0.26511, 0, 0, 0.26511, 10.648163, 14.591889)" fill="none" stroke-linejoin="miter" d="M 38.060113 0.00701856 C 17.034056 0.00701856 0.00103471 17.04004 0.00103471 38.066097 C 0.00103471 59.077419 17.034056 76.125175 38.060113 76.125175 C 59.08617 76.125175 76.119191 59.077419 76.119191 38.066097 C 76.119191 17.04004 59.08617 0.00701856 38.060113 0.00701856 Z M 38.060113 0.00701856 " stroke="#ffffff" stroke-width="107.502525" stroke-opacity="1" stroke-miterlimit="4"/></g></g><g clip-path="url(#78e8482b27)"><g clip-path="url(#0c7769f932)"><path fill="#2a81b9" d="M 118.382812 14.59375 L 138.5625 14.59375 L 138.5625 34.773438 L 118.382812 34.773438 Z M 118.382812 14.59375 " fill-opacity="1" fill-rule="nonzero"/></g></g><g clip-path="url(#41936895a1)"><g clip-path="url(#8ebe51b379)"><path stroke-linecap="butt" transform="matrix(0.26511, 0, 0, 0.26511, 118.381775, 14.591889)" fill="none" stroke-linejoin="miter" d="M 38.062991 0.00701856 C 17.036934 0.00701856 0.00391292 17.04004 0.00391292 38.066097 C 0.00391292 59.077419 17.036934 76.125175 38.062991 76.125175 C 59.089048 76.125175 76.122069 59.077419 76.122069 38.066097 C 76.122069 17.04004 59.089048 0.00701856 38.062991 0.00701856 Z M 38.062991 0.00701856 " stroke="#ffffff" stroke-width="107.502525" stroke-opacity="1" stroke-miterlimit="4"/></g></g><g clip-path="url(#ad96ddafe2)"><g clip-path="url(#12e4d57ffa)"><path fill="#fabe12" d="M 16.917969 53.441406 L 35.734375 53.441406 L 35.734375 68.589844 L 16.917969 68.589844 Z M 16.917969 53.441406 " fill-opacity="1" fill-rule="nonzero"/></g></g><g clip-path="url(#6572a44627)"><g clip-path="url(#13357a5ddc)"><path fill="#fabe12" d="M 41.34375 53.441406 L 60.160156 53.441406 L 60.160156 68.589844 L 41.34375 68.589844 Z M 41.34375 53.441406 " fill-opacity="1" fill-rule="nonzero"/></g></g><g clip-path="url(#92b8514c85)"><g clip-path="url(#6ae4980fe1)"><path fill="#fabe12" d="M 65.726562 53.441406 L 84.542969 53.441406 L 84.542969 68.589844 L 65.726562 68.589844 Z M 65.726562 53.441406 " fill-opacity="1" fill-rule="nonzero"/></g></g><g clip-path="url(#015fe2c53b)"><g clip-path="url(#ea5aed7711)"><path fill="#fabe12" d="M 90.109375 53.441406 L 108.925781 53.441406 L 108.925781 68.589844 L 90.109375 68.589844 Z M 90.109375 53.441406 " fill-opacity="1" fill-rule="nonzero"/></g></g><g clip-path="url(#ad0637cf3c)"><g clip-path="url(#7d154c05ae)"><path fill="#fabe12" d="M 114.492188 53.441406 L 133.308594 53.441406 L 133.308594 68.589844 L 114.492188 68.589844 Z M 114.492188 53.441406 " fill-opacity="1" fill-rule="nonzero"/></g></g><g clip-path="url(#2e0e2fd450)"><g clip-path="url(#21319e0257)"><path fill="#fabe12" d="M 16.941406 72.957031 L 35.757812 72.957031 L 35.757812 88.105469 L 16.941406 88.105469 Z M 16.941406 72.957031 " fill-opacity="1" fill-rule="nonzero"/></g></g><g clip-path="url(#26d9448a63)"><g clip-path="url(#85cd5a4bfb)"><path fill="#fabe12" d="M 41.367188 72.957031 L 60.183594 72.957031 L 60.183594 88.105469 L 41.367188 88.105469 Z M 41.367188 72.957031 " fill-opacity="1" fill-rule="nonzero"/></g></g><g clip-path="url(#d85c7c0a15)"><g clip-path="url(#532bb71027)"><path fill="#fabe12" d="M 65.75 72.957031 L 84.566406 72.957031 L 84.566406 88.105469 L 65.75 88.105469 Z M 65.75 72.957031 " fill-opacity="1" fill-rule="nonzero"/></g></g><g clip-path="url(#47ce4ca92b)"><g clip-path="url(#090ba265e9)"><path fill="#fabe12" d="M 90.132812 72.957031 L 108.949219 72.957031 L 108.949219 88.105469 L 90.132812 88.105469 Z M 90.132812 72.957031 " fill-opacity="1" fill-rule="nonzero"/></g></g><g clip-path="url(#9925a450e7)"><g clip-path="url(#82d992337d)"><path fill="#fabe12" d="M 114.515625 72.957031 L 133.332031 72.957031 L 133.332031 88.105469 L 114.515625 88.105469 Z M 114.515625 72.957031 " fill-opacity="1" fill-rule="nonzero"/></g></g><g clip-path="url(#072882a519)"><g clip-path="url(#799b02321e)"><path fill="#fabe12" d="M 16.917969 92.347656 L 35.734375 92.347656 L 35.734375 107.496094 L 16.917969 107.496094 Z M 16.917969 92.347656 " fill-opacity="1" fill-rule="nonzero"/></g></g><g clip-path="url(#e7e7c6b1b2)"><g clip-path="url(#b6dabca55e)"><path fill="#fabe12" d="M 41.34375 92.347656 L 60.160156 92.347656 L 60.160156 107.496094 L 41.34375 107.496094 Z M 41.34375 92.347656 " fill-opacity="1" fill-rule="nonzero"/></g></g><g clip-path="url(#048f59ab37)"><g clip-path="url(#ff51ff4aca)"><path fill="#fabe12" d="M 65.726562 92.347656 L 84.542969 92.347656 L 84.542969 107.496094 L 65.726562 107.496094 Z M 65.726562 92.347656 " fill-opacity="1" fill-rule="nonzero"/></g></g><g clip-path="url(#fa344a620e)"><g clip-path="url(#7e9c7265b4)"><path fill="#fabe12" d="M 90.109375 92.347656 L 108.925781 92.347656 L 108.925781 107.496094 L 90.109375 107.496094 Z M 90.109375 92.347656 " fill-opacity="1" fill-rule="nonzero"/></g></g><g clip-path="url(#611a06b15a)"><g clip-path="url(#12d9fcb8d3)"><path fill="#fabe12" d="M 114.492188 92.347656 L 133.308594 92.347656 L 133.308594 107.496094 L 114.492188 107.496094 Z M 114.492188 92.347656 " fill-opacity="1" fill-rule="nonzero"/></g></g><g clip-path="url(#0eff8b9906)"><g clip-path="url(#f835ef85c8)"><path fill="#fabe12" d="M 16.960938 111.738281 L 35.78125 111.738281 L 35.78125 126.882812 L 16.960938 126.882812 Z M 16.960938 111.738281 " fill-opacity="1" fill-rule="nonzero"/></g></g><g clip-path="url(#def4cb9d86)"><g clip-path="url(#a145e50c43)"><path fill="#fabe12" d="M 41.390625 111.738281 L 60.207031 111.738281 L 60.207031 126.882812 L 41.390625 126.882812 Z M 41.390625 111.738281 " fill-opacity="1" fill-rule="nonzero"/></g></g><g clip-path="url(#fcb15f8085)"><g clip-path="url(#73e7867350)"><path fill="#fabe12" d="M 65.773438 111.738281 L 84.589844 111.738281 L 84.589844 126.882812 L 65.773438 126.882812 Z M 65.773438 111.738281 " fill-opacity="1" fill-rule="nonzero"/></g></g><g clip-path="url(#c58d80dc97)"><g clip-path="url(#afc66bc3a1)"><path fill="#fabe12" d="M 90.15625 111.738281 L 108.972656 111.738281 L 108.972656 126.882812 L 90.15625 126.882812 Z M 90.15625 111.738281 " fill-opacity="1" fill-rule="nonzero"/></g></g><g clip-path="url(#feb882fcf1)"><g clip-path="url(#103dd49098)"><path fill="#fabe12" d="M 114.535156 111.738281 L 133.351562 111.738281 L 133.351562 126.882812 L 114.535156 126.882812 Z M 114.535156 111.738281 " fill-opacity="1" fill-rule="nonzero"/></g></g><g clip-path="url(#41b3b32441)"><g clip-path="url(#5f848404d4)"><path fill="#fabe12" d="M 123.113281 3.421875 L 133.832031 3.421875 L 133.832031 29.832031 L 123.113281 29.832031 Z M 123.113281 3.421875 " fill-opacity="1" fill-rule="nonzero"/></g></g><g clip-path="url(#325696b9dc)"><g clip-path="url(#1462428f98)"><path fill="#fabe12" d="M 15.382812 3.421875 L 26.097656 3.421875 L 26.097656 29.832031 L 15.382812 29.832031 Z M 15.382812 3.421875 " fill-opacity="1" fill-rule="nonzero"/></g></g><g clip-path="url(#2a98746f9d)"><g clip-path="url(#909926d66d)"><g clip-path="url(#0a86eff377)"><path fill="#dd2e44" d="M 108.21875 67.046875 L 111.980469 69.621094 L 99.417969 87.988281 L 95.65625 85.414062 Z M 108.21875 67.046875 " fill-opacity="1" fill-rule="nonzero"/></g></g></g><g clip-path="url(#528f1e7f71)"><g clip-path="url(#6f97128512)"><g clip-path="url(#82e31ef502)"><path fill="#dd2e44" d="M 90.632812 77.613281 L 94.34375 74.96875 L 101.742188 85.351562 L 98.027344 87.996094 Z M 90.632812 77.613281 " fill-opacity="1" fill-rule="nonzero"/></g></g></g></svg>