<svg xmlns="http://www.w3.org/2000/svg" xmlns:xlink="http://www.w3.org/1999/xlink" width="1080" zoomAndPan="magnify" viewBox="0 0 810 809.999993" height="1080" preserveAspectRatio="xMidYMid meet" version="1.0"><defs><clipPath id="71167baff9"><path d="M 203.257812 322.699219 L 607 322.699219 L 607 607.5 L 203.257812 607.5 Z M 203.257812 322.699219 " clip-rule="nonzero"/></clipPath><clipPath id="b3a963b20f"><path d="M 233.257812 322.699219 L 576.742188 322.699219 C 593.308594 322.699219 606.742188 336.128906 606.742188 352.699219 L 606.742188 577.5 C 606.742188 594.070312 593.308594 607.5 576.742188 607.5 L 233.257812 607.5 C 216.691406 607.5 203.257812 594.070312 203.257812 577.5 L 203.257812 352.699219 C 203.257812 336.128906 216.691406 322.699219 233.257812 322.699219 Z M 233.257812 322.699219 " clip-rule="nonzero"/></clipPath><clipPath id="2a5cc0cc07"><path d="M 204.019531 222.9375 L 607.699219 222.9375 L 607.699219 364.117188 L 204.019531 364.117188 Z M 204.019531 222.9375 " clip-rule="nonzero"/></clipPath><clipPath id="3a42bafbbc"><path d="M 234.019531 222.9375 L 577.5 222.9375 C 594.070312 222.9375 607.5 236.367188 607.5 252.9375 L 607.5 334.117188 C 607.5 350.683594 594.070312 364.117188 577.5 364.117188 L 234.019531 364.117188 C 217.449219 364.117188 204.019531 350.683594 204.019531 334.117188 L 204.019531 252.9375 C 204.019531 236.367188 217.449219 222.9375 234.019531 222.9375 Z M 234.019531 222.9375 " clip-rule="nonzero"/></clipPath><clipPath id="1b9e131cf9"><path d="M 204.019531 301.402344 L 607.5 301.402344 L 607.5 405 L 204.019531 405 Z M 204.019531 301.402344 " clip-rule="nonzero"/></clipPath><clipPath id="6b5611b462"><path d="M 223.328125 234.105469 L 280.421875 234.105469 L 280.421875 291.199219 L 223.328125 291.199219 Z M 223.328125 234.105469 " clip-rule="nonzero"/></clipPath><clipPath id="c81366b30b"><path d="M 251.875 234.105469 C 236.109375 234.105469 223.328125 246.886719 223.328125 262.652344 C 223.328125 278.417969 236.109375 291.199219 251.875 291.199219 C 267.640625 291.199219 280.421875 278.417969 280.421875 262.652344 C 280.421875 246.886719 267.640625 234.105469 251.875 234.105469 Z M 251.875 234.105469 " clip-rule="nonzero"/></clipPath><clipPath id="3c4840c844"><path d="M 223.328125 234.105469 L 280.328125 234.105469 L 280.328125 291.105469 L 223.328125 291.105469 Z M 223.328125 234.105469 " clip-rule="nonzero"/></clipPath><clipPath id="a9b5c6d1d4"><path d="M 251.875 234.105469 C 236.109375 234.105469 223.328125 246.886719 223.328125 262.652344 C 223.328125 278.417969 236.109375 291.199219 251.875 291.199219 C 267.640625 291.199219 280.421875 278.417969 280.421875 262.652344 C 280.421875 246.886719 267.640625 234.105469 251.875 234.105469 Z M 251.875 234.105469 " clip-rule="nonzero"/></clipPath><clipPath id="9dee958f42"><path d="M 528.105469 234.105469 L 585.199219 234.105469 L 585.199219 291.199219 L 528.105469 291.199219 Z M 528.105469 234.105469 " clip-rule="nonzero"/></clipPath><clipPath id="78c37b8117"><path d="M 556.652344 234.105469 C 540.886719 234.105469 528.105469 246.886719 528.105469 262.652344 C 528.105469 278.417969 540.886719 291.199219 556.652344 291.199219 C 572.421875 291.199219 585.199219 278.417969 585.199219 262.652344 C 585.199219 246.886719 572.421875 234.105469 556.652344 234.105469 Z M 556.652344 234.105469 " clip-rule="nonzero"/></clipPath><clipPath id="c695903af5"><path d="M 528.105469 234.105469 L 585.105469 234.105469 L 585.105469 291.105469 L 528.105469 291.105469 Z M 528.105469 234.105469 " clip-rule="nonzero"/></clipPath><clipPath id="7f03f93ff1"><path d="M 556.652344 234.105469 C 540.886719 234.105469 528.105469 246.886719 528.105469 262.652344 C 528.105469 278.417969 540.886719 291.199219 556.652344 291.199219 C 572.421875 291.199219 585.199219 278.417969 585.199219 262.652344 C 585.199219 246.886719 572.421875 234.105469 556.652344 234.105469 Z M 556.652344 234.105469 " clip-rule="nonzero"/></clipPath><clipPath id="d0254e8906"><path d="M 241.0625 344.011719 L 294.296875 344.011719 L 294.296875 386.863281 L 241.0625 386.863281 Z M 241.0625 344.011719 " clip-rule="nonzero"/></clipPath><clipPath id="3e4aaf0d06"><path d="M 247.0625 344.011719 L 288.289062 344.011719 C 289.882812 344.011719 291.40625 344.644531 292.53125 345.769531 C 293.65625 346.894531 294.289062 348.417969 294.289062 350.011719 L 294.289062 380.863281 C 294.289062 382.457031 293.65625 383.984375 292.53125 385.109375 C 291.40625 386.234375 289.882812 386.863281 288.289062 386.863281 L 247.0625 386.863281 C 245.472656 386.863281 243.945312 386.234375 242.820312 385.109375 C 241.695312 383.984375 241.0625 382.457031 241.0625 380.863281 L 241.0625 350.011719 C 241.0625 348.417969 241.695312 346.894531 242.820312 345.769531 C 243.945312 344.644531 245.472656 344.011719 247.0625 344.011719 Z M 247.0625 344.011719 " clip-rule="nonzero"/></clipPath><clipPath id="56bc4efa65"><path d="M 310.167969 344.011719 L 363.402344 344.011719 L 363.402344 386.863281 L 310.167969 386.863281 Z M 310.167969 344.011719 " clip-rule="nonzero"/></clipPath><clipPath id="5590e8167f"><path d="M 316.167969 344.011719 L 357.394531 344.011719 C 358.988281 344.011719 360.511719 344.644531 361.636719 345.769531 C 362.761719 346.894531 363.394531 348.417969 363.394531 350.011719 L 363.394531 380.863281 C 363.394531 382.457031 362.761719 383.984375 361.636719 385.109375 C 360.511719 386.234375 358.988281 386.863281 357.394531 386.863281 L 316.167969 386.863281 C 314.578125 386.863281 313.050781 386.234375 311.925781 385.109375 C 310.800781 383.984375 310.167969 382.457031 310.167969 380.863281 L 310.167969 350.011719 C 310.167969 348.417969 310.800781 346.894531 311.925781 345.769531 C 313.050781 344.644531 314.578125 344.011719 316.167969 344.011719 Z M 316.167969 344.011719 " clip-rule="nonzero"/></clipPath><clipPath id="1d4750be8e"><path d="M 379.144531 344.011719 L 432.378906 344.011719 L 432.378906 386.863281 L 379.144531 386.863281 Z M 379.144531 344.011719 " clip-rule="nonzero"/></clipPath><clipPath id="fff58ccadb"><path d="M 385.144531 344.011719 L 426.371094 344.011719 C 427.964844 344.011719 429.492188 344.644531 430.617188 345.769531 C 431.742188 346.894531 432.371094 348.417969 432.371094 350.011719 L 432.371094 380.863281 C 432.371094 382.457031 431.742188 383.984375 430.617188 385.109375 C 429.492188 386.234375 427.964844 386.863281 426.371094 386.863281 L 385.144531 386.863281 C 383.554688 386.863281 382.027344 386.234375 380.902344 385.109375 C 379.777344 383.984375 379.144531 382.457031 379.144531 380.863281 L 379.144531 350.011719 C 379.144531 348.417969 379.777344 346.894531 380.902344 345.769531 C 382.027344 344.644531 383.554688 344.011719 385.144531 344.011719 Z M 385.144531 344.011719 " clip-rule="nonzero"/></clipPath><clipPath id="4c015147ed"><path d="M 448.121094 344.011719 L 501.355469 344.011719 L 501.355469 386.863281 L 448.121094 386.863281 Z M 448.121094 344.011719 " clip-rule="nonzero"/></clipPath><clipPath id="74f6560299"><path d="M 454.121094 344.011719 L 495.351562 344.011719 C 496.941406 344.011719 498.46875 344.644531 499.59375 345.769531 C 500.71875 346.894531 501.351562 348.417969 501.351562 350.011719 L 501.351562 380.863281 C 501.351562 382.457031 500.71875 383.984375 499.59375 385.109375 C 498.46875 386.234375 496.941406 386.863281 495.351562 386.863281 L 454.121094 386.863281 C 452.53125 386.863281 451.003906 386.234375 449.878906 385.109375 C 448.753906 383.984375 448.121094 382.457031 448.121094 380.863281 L 448.121094 350.011719 C 448.121094 348.417969 448.753906 346.894531 449.878906 345.769531 C 451.003906 344.644531 452.53125 344.011719 454.121094 344.011719 Z M 454.121094 344.011719 " clip-rule="nonzero"/></clipPath><clipPath id="bfa9eb1384"><path d="M 517.101562 344.011719 L 570.332031 344.011719 L 570.332031 386.863281 L 517.101562 386.863281 Z M 517.101562 344.011719 " clip-rule="nonzero"/></clipPath><clipPath id="f34cbc44df"><path d="M 523.101562 344.011719 L 564.328125 344.011719 C 565.917969 344.011719 567.445312 344.644531 568.570312 345.769531 C 569.695312 346.894531 570.328125 348.417969 570.328125 350.011719 L 570.328125 380.863281 C 570.328125 382.457031 569.695312 383.984375 568.570312 385.109375 C 567.445312 386.234375 565.917969 386.863281 564.328125 386.863281 L 523.101562 386.863281 C 521.507812 386.863281 519.984375 386.234375 518.859375 385.109375 C 517.734375 383.984375 517.101562 382.457031 517.101562 380.863281 L 517.101562 350.011719 C 517.101562 348.417969 517.734375 346.894531 518.859375 345.769531 C 519.984375 344.644531 521.507812 344.011719 523.101562 344.011719 Z M 523.101562 344.011719 " clip-rule="nonzero"/></clipPath><clipPath id="64e415f280"><path d="M 241.125 399.222656 L 294.359375 399.222656 L 294.359375 442.074219 L 241.125 442.074219 Z M 241.125 399.222656 " clip-rule="nonzero"/></clipPath><clipPath id="1cc82a3203"><path d="M 247.125 399.222656 L 288.355469 399.222656 C 289.945312 399.222656 291.472656 399.851562 292.597656 400.976562 C 293.722656 402.101562 294.355469 403.628906 294.355469 405.222656 L 294.355469 436.074219 C 294.355469 437.664062 293.722656 439.191406 292.597656 440.316406 C 291.472656 441.441406 289.945312 442.074219 288.355469 442.074219 L 247.125 442.074219 C 245.535156 442.074219 244.007812 441.441406 242.882812 440.316406 C 241.757812 439.191406 241.125 437.664062 241.125 436.074219 L 241.125 405.222656 C 241.125 403.628906 241.757812 402.101562 242.882812 400.976562 C 244.007812 399.851562 245.535156 399.222656 247.125 399.222656 Z M 247.125 399.222656 " clip-rule="nonzero"/></clipPath><clipPath id="2b9ec8e7e9"><path d="M 310.234375 399.222656 L 363.464844 399.222656 L 363.464844 442.074219 L 310.234375 442.074219 Z M 310.234375 399.222656 " clip-rule="nonzero"/></clipPath><clipPath id="f49265f881"><path d="M 316.234375 399.222656 L 357.460938 399.222656 C 359.050781 399.222656 360.578125 399.851562 361.703125 400.976562 C 362.828125 402.101562 363.460938 403.628906 363.460938 405.222656 L 363.460938 436.074219 C 363.460938 437.664062 362.828125 439.191406 361.703125 440.316406 C 360.578125 441.441406 359.050781 442.074219 357.460938 442.074219 L 316.234375 442.074219 C 314.640625 442.074219 313.113281 441.441406 311.988281 440.316406 C 310.863281 439.191406 310.234375 437.664062 310.234375 436.074219 L 310.234375 405.222656 C 310.234375 403.628906 310.863281 402.101562 311.988281 400.976562 C 313.113281 399.851562 314.640625 399.222656 316.234375 399.222656 Z M 316.234375 399.222656 " clip-rule="nonzero"/></clipPath><clipPath id="a459b11639"><path d="M 379.210938 399.222656 L 432.441406 399.222656 L 432.441406 442.074219 L 379.210938 442.074219 Z M 379.210938 399.222656 " clip-rule="nonzero"/></clipPath><clipPath id="40f300f4a5"><path d="M 385.210938 399.222656 L 426.4375 399.222656 C 428.027344 399.222656 429.554688 399.851562 430.679688 400.976562 C 431.804688 402.101562 432.4375 403.628906 432.4375 405.222656 L 432.4375 436.074219 C 432.4375 437.664062 431.804688 439.191406 430.679688 440.316406 C 429.554688 441.441406 428.027344 442.074219 426.4375 442.074219 L 385.210938 442.074219 C 383.617188 442.074219 382.09375 441.441406 380.96875 440.316406 C 379.84375 439.191406 379.210938 437.664062 379.210938 436.074219 L 379.210938 405.222656 C 379.210938 403.628906 379.84375 402.101562 380.96875 400.976562 C 382.09375 399.851562 383.617188 399.222656 385.210938 399.222656 Z M 385.210938 399.222656 " clip-rule="nonzero"/></clipPath><clipPath id="fb94f8aeb3"><path d="M 448.1875 399.222656 L 501.417969 399.222656 L 501.417969 442.074219 L 448.1875 442.074219 Z M 448.1875 399.222656 " clip-rule="nonzero"/></clipPath><clipPath id="183e9cdded"><path d="M 454.1875 399.222656 L 495.414062 399.222656 C 497.003906 399.222656 498.53125 399.851562 499.65625 400.976562 C 500.78125 402.101562 501.414062 403.628906 501.414062 405.222656 L 501.414062 436.074219 C 501.414062 437.664062 500.78125 439.191406 499.65625 440.316406 C 498.53125 441.441406 497.003906 442.074219 495.414062 442.074219 L 454.1875 442.074219 C 452.597656 442.074219 451.070312 441.441406 449.945312 440.316406 C 448.820312 439.191406 448.1875 437.664062 448.1875 436.074219 L 448.1875 405.222656 C 448.1875 403.628906 448.820312 402.101562 449.945312 400.976562 C 451.070312 399.851562 452.597656 399.222656 454.1875 399.222656 Z M 454.1875 399.222656 " clip-rule="nonzero"/></clipPath><clipPath id="392aca17b8"><path d="M 517.164062 399.222656 L 570.398438 399.222656 L 570.398438 442.074219 L 517.164062 442.074219 Z M 517.164062 399.222656 " clip-rule="nonzero"/></clipPath><clipPath id="185aea111c"><path d="M 523.164062 399.222656 L 564.390625 399.222656 C 565.984375 399.222656 567.507812 399.851562 568.632812 400.976562 C 569.757812 402.101562 570.390625 403.628906 570.390625 405.222656 L 570.390625 436.074219 C 570.390625 437.664062 569.757812 439.191406 568.632812 440.316406 C 567.507812 441.441406 565.984375 442.074219 564.390625 442.074219 L 523.164062 442.074219 C 521.574219 442.074219 520.046875 441.441406 518.921875 440.316406 C 517.796875 439.191406 517.164062 437.664062 517.164062 436.074219 L 517.164062 405.222656 C 517.164062 403.628906 517.796875 402.101562 518.921875 400.976562 C 520.046875 399.851562 521.574219 399.222656 523.164062 399.222656 Z M 523.164062 399.222656 " clip-rule="nonzero"/></clipPath><clipPath id="5adb6b7147"><path d="M 241.0625 454.074219 L 294.296875 454.074219 L 294.296875 496.929688 L 241.0625 496.929688 Z M 241.0625 454.074219 " clip-rule="nonzero"/></clipPath><clipPath id="eadfa1cb0d"><path d="M 247.0625 454.074219 L 288.289062 454.074219 C 289.882812 454.074219 291.40625 454.707031 292.53125 455.832031 C 293.65625 456.957031 294.289062 458.484375 294.289062 460.074219 L 294.289062 490.929688 C 294.289062 492.519531 293.65625 494.046875 292.53125 495.171875 C 291.40625 496.296875 289.882812 496.929688 288.289062 496.929688 L 247.0625 496.929688 C 245.472656 496.929688 243.945312 496.296875 242.820312 495.171875 C 241.695312 494.046875 241.0625 492.519531 241.0625 490.929688 L 241.0625 460.074219 C 241.0625 458.484375 241.695312 456.957031 242.820312 455.832031 C 243.945312 454.707031 245.472656 454.074219 247.0625 454.074219 Z M 247.0625 454.074219 " clip-rule="nonzero"/></clipPath><clipPath id="8d974e75d6"><path d="M 310.167969 454.074219 L 363.402344 454.074219 L 363.402344 496.929688 L 310.167969 496.929688 Z M 310.167969 454.074219 " clip-rule="nonzero"/></clipPath><clipPath id="afc9dbc0da"><path d="M 316.167969 454.074219 L 357.394531 454.074219 C 358.988281 454.074219 360.511719 454.707031 361.636719 455.832031 C 362.761719 456.957031 363.394531 458.484375 363.394531 460.074219 L 363.394531 490.929688 C 363.394531 492.519531 362.761719 494.046875 361.636719 495.171875 C 360.511719 496.296875 358.988281 496.929688 357.394531 496.929688 L 316.167969 496.929688 C 314.578125 496.929688 313.050781 496.296875 311.925781 495.171875 C 310.800781 494.046875 310.167969 492.519531 310.167969 490.929688 L 310.167969 460.074219 C 310.167969 458.484375 310.800781 456.957031 311.925781 455.832031 C 313.050781 454.707031 314.578125 454.074219 316.167969 454.074219 Z M 316.167969 454.074219 " clip-rule="nonzero"/></clipPath><clipPath id="41063944db"><path d="M 379.144531 454.074219 L 432.378906 454.074219 L 432.378906 496.929688 L 379.144531 496.929688 Z M 379.144531 454.074219 " clip-rule="nonzero"/></clipPath><clipPath id="f088efe48e"><path d="M 385.144531 454.074219 L 426.371094 454.074219 C 427.964844 454.074219 429.492188 454.707031 430.617188 455.832031 C 431.742188 456.957031 432.371094 458.484375 432.371094 460.074219 L 432.371094 490.929688 C 432.371094 492.519531 431.742188 494.046875 430.617188 495.171875 C 429.492188 496.296875 427.964844 496.929688 426.371094 496.929688 L 385.144531 496.929688 C 383.554688 496.929688 382.027344 496.296875 380.902344 495.171875 C 379.777344 494.046875 379.144531 492.519531 379.144531 490.929688 L 379.144531 460.074219 C 379.144531 458.484375 379.777344 456.957031 380.902344 455.832031 C 382.027344 454.707031 383.554688 454.074219 385.144531 454.074219 Z M 385.144531 454.074219 " clip-rule="nonzero"/></clipPath><clipPath id="3793a2a00e"><path d="M 448.121094 454.074219 L 501.355469 454.074219 L 501.355469 496.929688 L 448.121094 496.929688 Z M 448.121094 454.074219 " clip-rule="nonzero"/></clipPath><clipPath id="2a52593f63"><path d="M 454.121094 454.074219 L 495.351562 454.074219 C 496.941406 454.074219 498.46875 454.707031 499.59375 455.832031 C 500.71875 456.957031 501.351562 458.484375 501.351562 460.074219 L 501.351562 490.929688 C 501.351562 492.519531 500.71875 494.046875 499.59375 495.171875 C 498.46875 496.296875 496.941406 496.929688 495.351562 496.929688 L 454.121094 496.929688 C 452.53125 496.929688 451.003906 496.296875 449.878906 495.171875 C 448.753906 494.046875 448.121094 492.519531 448.121094 490.929688 L 448.121094 460.074219 C 448.121094 458.484375 448.753906 456.957031 449.878906 455.832031 C 451.003906 454.707031 452.53125 454.074219 454.121094 454.074219 Z M 454.121094 454.074219 " clip-rule="nonzero"/></clipPath><clipPath id="384810d46c"><path d="M 517.101562 454.074219 L 570.332031 454.074219 L 570.332031 496.929688 L 517.101562 496.929688 Z M 517.101562 454.074219 " clip-rule="nonzero"/></clipPath><clipPath id="2559f3c33c"><path d="M 523.101562 454.074219 L 564.328125 454.074219 C 565.917969 454.074219 567.445312 454.707031 568.570312 455.832031 C 569.695312 456.957031 570.328125 458.484375 570.328125 460.074219 L 570.328125 490.929688 C 570.328125 492.519531 569.695312 494.046875 568.570312 495.171875 C 567.445312 496.296875 565.917969 496.929688 564.328125 496.929688 L 523.101562 496.929688 C 521.507812 496.929688 519.984375 496.296875 518.859375 495.171875 C 517.734375 494.046875 517.101562 492.519531 517.101562 490.929688 L 517.101562 460.074219 C 517.101562 458.484375 517.734375 456.957031 518.859375 455.832031 C 519.984375 454.707031 521.507812 454.074219 523.101562 454.074219 Z M 523.101562 454.074219 " clip-rule="nonzero"/></clipPath><clipPath id="2f3daa0dbd"><path d="M 241.191406 508.929688 L 294.421875 508.929688 L 294.421875 551.78125 L 241.191406 551.78125 Z M 241.191406 508.929688 " clip-rule="nonzero"/></clipPath><clipPath id="61a7fcf5e0"><path d="M 247.191406 508.929688 L 288.417969 508.929688 C 290.007812 508.929688 291.535156 509.5625 292.660156 510.6875 C 293.785156 511.8125 294.417969 513.335938 294.417969 514.929688 L 294.417969 545.78125 C 294.417969 547.375 293.785156 548.898438 292.660156 550.023438 C 291.535156 551.152344 290.007812 551.78125 288.417969 551.78125 L 247.191406 551.78125 C 245.601562 551.78125 244.074219 551.152344 242.949219 550.023438 C 241.824219 548.898438 241.191406 547.375 241.191406 545.78125 L 241.191406 514.929688 C 241.191406 513.335938 241.824219 511.8125 242.949219 510.6875 C 244.074219 509.5625 245.601562 508.929688 247.191406 508.929688 Z M 247.191406 508.929688 " clip-rule="nonzero"/></clipPath><clipPath id="b9754af07c"><path d="M 310.296875 508.929688 L 363.53125 508.929688 L 363.53125 551.78125 L 310.296875 551.78125 Z M 310.296875 508.929688 " clip-rule="nonzero"/></clipPath><clipPath id="dd425eba90"><path d="M 316.296875 508.929688 L 357.523438 508.929688 C 359.117188 508.929688 360.640625 509.5625 361.765625 510.6875 C 362.890625 511.8125 363.523438 513.335938 363.523438 514.929688 L 363.523438 545.78125 C 363.523438 547.375 362.890625 548.898438 361.765625 550.023438 C 360.640625 551.152344 359.117188 551.78125 357.523438 551.78125 L 316.296875 551.78125 C 314.707031 551.78125 313.179688 551.152344 312.054688 550.023438 C 310.929688 548.898438 310.296875 547.375 310.296875 545.78125 L 310.296875 514.929688 C 310.296875 513.335938 310.929688 511.8125 312.054688 510.6875 C 313.179688 509.5625 314.707031 508.929688 316.296875 508.929688 Z M 316.296875 508.929688 " clip-rule="nonzero"/></clipPath><clipPath id="955fad8dd0"><path d="M 379.273438 508.929688 L 432.507812 508.929688 L 432.507812 551.78125 L 379.273438 551.78125 Z M 379.273438 508.929688 " clip-rule="nonzero"/></clipPath><clipPath id="f63c65bc4d"><path d="M 385.273438 508.929688 L 426.5 508.929688 C 428.09375 508.929688 429.617188 509.5625 430.742188 510.6875 C 431.871094 511.8125 432.5 513.335938 432.5 514.929688 L 432.5 545.78125 C 432.5 547.375 431.871094 548.898438 430.742188 550.023438 C 429.617188 551.152344 428.09375 551.78125 426.5 551.78125 L 385.273438 551.78125 C 383.683594 551.78125 382.15625 551.152344 381.03125 550.023438 C 379.90625 548.898438 379.273438 547.375 379.273438 545.78125 L 379.273438 514.929688 C 379.273438 513.335938 379.90625 511.8125 381.03125 510.6875 C 382.15625 509.5625 383.683594 508.929688 385.273438 508.929688 Z M 385.273438 508.929688 " clip-rule="nonzero"/></clipPath><clipPath id="a7c618384c"><path d="M 448.25 508.929688 L 501.484375 508.929688 L 501.484375 551.78125 L 448.25 551.78125 Z M 448.25 508.929688 " clip-rule="nonzero"/></clipPath><clipPath id="1421303d35"><path d="M 454.25 508.929688 L 495.480469 508.929688 C 497.070312 508.929688 498.597656 509.5625 499.722656 510.6875 C 500.847656 511.8125 501.480469 513.335938 501.480469 514.929688 L 501.480469 545.78125 C 501.480469 547.375 500.847656 548.898438 499.722656 550.023438 C 498.597656 551.152344 497.070312 551.78125 495.480469 551.78125 L 454.25 551.78125 C 452.660156 551.78125 451.132812 551.152344 450.007812 550.023438 C 448.882812 548.898438 448.25 547.375 448.25 545.78125 L 448.25 514.929688 C 448.25 513.335938 448.882812 511.8125 450.007812 510.6875 C 451.132812 509.5625 452.660156 508.929688 454.25 508.929688 Z M 454.25 508.929688 " clip-rule="nonzero"/></clipPath><clipPath id="d88abfff85"><path d="M 517.230469 508.929688 L 570.460938 508.929688 L 570.460938 551.78125 L 517.230469 551.78125 Z M 517.230469 508.929688 " clip-rule="nonzero"/></clipPath><clipPath id="914546b7e3"><path d="M 523.230469 508.929688 L 564.457031 508.929688 C 566.046875 508.929688 567.574219 509.5625 568.699219 510.6875 C 569.824219 511.8125 570.457031 513.335938 570.457031 514.929688 L 570.457031 545.78125 C 570.457031 547.375 569.824219 548.898438 568.699219 550.023438 C 567.574219 551.152344 566.046875 551.78125 564.457031 551.78125 L 523.230469 551.78125 C 521.636719 551.78125 520.113281 551.152344 518.984375 550.023438 C 517.859375 548.898438 517.230469 547.375 517.230469 545.78125 L 517.230469 514.929688 C 517.230469 513.335938 517.859375 511.8125 518.984375 510.6875 C 520.113281 509.5625 521.636719 508.929688 523.230469 508.929688 Z M 523.230469 508.929688 " clip-rule="nonzero"/></clipPath><clipPath id="563e868498"><path d="M 541.496094 202.5 L 571.8125 202.5 L 571.8125 277.339844 L 541.496094 277.339844 Z M 541.496094 202.5 " clip-rule="nonzero"/></clipPath><clipPath id="be8e2d728b"><path d="M 555.746094 202.5 L 557.5625 202.5 C 565.433594 202.5 571.8125 208.878906 571.8125 216.75 L 571.8125 262.988281 C 571.8125 270.859375 565.433594 277.238281 557.5625 277.238281 L 555.746094 277.238281 C 547.875 277.238281 541.496094 270.859375 541.496094 262.988281 L 541.496094 216.75 C 541.496094 208.878906 547.875 202.5 555.746094 202.5 Z M 555.746094 202.5 " clip-rule="nonzero"/></clipPath><clipPath id="c5e39c5c44"><path d="M 236.714844 202.5 L 267.03125 202.5 L 267.03125 277.339844 L 236.714844 277.339844 Z M 236.714844 202.5 " clip-rule="nonzero"/></clipPath><clipPath id="70228e52a8"><path d="M 250.964844 202.5 L 252.78125 202.5 C 260.652344 202.5 267.03125 208.878906 267.03125 216.75 L 267.03125 262.988281 C 267.03125 270.859375 260.652344 277.238281 252.78125 277.238281 L 250.964844 277.238281 C 243.097656 277.238281 236.714844 270.859375 236.714844 262.988281 L 236.714844 216.75 C 236.714844 208.878906 243.097656 202.5 250.964844 202.5 Z M 250.964844 202.5 " clip-rule="nonzero"/></clipPath><clipPath id="0089c4e2f3"><path d="M 466 385 L 508 385 L 508 440 L 466 440 Z M 466 385 " clip-rule="nonzero"/></clipPath><clipPath id="c5d7a19db9"><path d="M 499.359375 382.503906 L 510.003906 389.78125 L 474.429688 441.785156 L 463.789062 434.507812 Z M 499.359375 382.503906 " clip-rule="nonzero"/></clipPath><clipPath id="27d6cce0bb"><path d="M 504.683594 386.140625 C 506.09375 387.105469 507.0625 388.59375 507.378906 390.273438 C 507.695312 391.953125 507.328125 393.691406 506.363281 395.101562 L 478.09375 436.429688 C 477.128906 437.84375 475.640625 438.8125 473.960938 439.128906 C 472.28125 439.445312 470.542969 439.078125 469.132812 438.113281 C 467.722656 437.148438 466.75 435.660156 466.4375 433.980469 C 466.121094 432.300781 466.484375 430.5625 467.453125 429.152344 L 495.722656 387.824219 C 496.6875 386.410156 498.171875 385.441406 499.851562 385.125 C 501.535156 384.8125 503.269531 385.175781 504.683594 386.140625 Z M 504.683594 386.140625 " clip-rule="nonzero"/></clipPath><clipPath id="43ee002c22"><path d="M 452 407 L 479 407 L 479 440 L 452 440 Z M 452 407 " clip-rule="nonzero"/></clipPath><clipPath id="4da5a26213"><path d="M 449.601562 412.394531 L 460.105469 404.910156 L 481.03125 434.28125 L 470.527344 441.761719 Z M 449.601562 412.394531 " clip-rule="nonzero"/></clipPath><clipPath id="d6ae154f53"><path d="M 454.855469 408.652344 C 456.246094 407.660156 457.976562 407.261719 459.660156 407.546875 C 461.347656 407.828125 462.851562 408.769531 463.84375 410.164062 L 477.28125 429.019531 C 478.273438 430.410156 478.671875 432.140625 478.386719 433.828125 C 478.105469 435.511719 477.164062 437.019531 475.769531 438.011719 C 474.378906 439.003906 472.648438 439.402344 470.960938 439.117188 C 469.277344 438.835938 467.773438 437.894531 466.78125 436.5 L 453.34375 417.644531 C 452.351562 416.25 451.953125 414.523438 452.238281 412.835938 C 452.519531 411.148438 453.460938 409.644531 454.855469 408.652344 Z M 454.855469 408.652344 " clip-rule="nonzero"/></clipPath></defs><g clip-path="url(#71167baff9)"><g clip-path="url(#b3a963b20f)"><path fill="#fff9b7" d="M 203.257812 322.699219 L 607.097656 322.699219 L 607.097656 607.5 L 203.257812 607.5 Z M 203.257812 322.699219 " fill-opacity="1" fill-rule="nonzero"/></g></g><g clip-path="url(#2a5cc0cc07)"><g clip-path="url(#3a42bafbbc)"><path fill="#dd2e44" d="M 204.019531 222.9375 L 607.699219 222.9375 L 607.699219 364.117188 L 204.019531 364.117188 Z M 204.019531 222.9375 " fill-opacity="1" fill-rule="nonzero"/></g></g><g clip-path="url(#1b9e131cf9)"><path fill="#fff9b7" d="M 204.019531 301.402344 L 607.476562 301.402344 L 607.476562 405 L 204.019531 405 Z M 204.019531 301.402344 " fill-opacity="1" fill-rule="nonzero"/></g><g clip-path="url(#6b5611b462)"><g clip-path="url(#c81366b30b)"><path fill="#2a81b9" d="M 223.328125 234.105469 L 280.421875 234.105469 L 280.421875 291.199219 L 223.328125 291.199219 Z M 223.328125 234.105469 " fill-opacity="1" fill-rule="nonzero"/></g></g><g clip-path="url(#3c4840c844)"><g clip-path="url(#a9b5c6d1d4)"><path stroke-linecap="butt" transform="matrix(0.75, 0, 0, 0.75, 223.327435, 234.104627)" fill="none" stroke-linejoin="miter" d="M 38.063422 0.00112284 C 17.042588 0.00112284 0.000920447 17.04279 0.000920447 38.063625 C 0.000920447 59.084459 17.042588 76.126127 38.063422 76.126127 C 59.084257 76.126127 76.125924 59.084459 76.125924 38.063625 C 76.125924 17.04279 59.084257 0.00112284 38.063422 0.00112284 Z M 38.063422 0.00112284 " stroke="#ffffff" stroke-width="38" stroke-opacity="1" stroke-miterlimit="4"/></g></g><g clip-path="url(#9dee958f42)"><g clip-path="url(#78c37b8117)"><path fill="#2a81b9" d="M 528.105469 234.105469 L 585.199219 234.105469 L 585.199219 291.199219 L 528.105469 291.199219 Z M 528.105469 234.105469 " fill-opacity="1" fill-rule="nonzero"/></g></g><g clip-path="url(#c695903af5)"><g clip-path="url(#7f03f93ff1)"><path stroke-linecap="butt" transform="matrix(0.75, 0, 0, 0.75, 528.107329, 234.104627)" fill="none" stroke-linejoin="miter" d="M 38.060022 0.00112284 C 17.039187 0.00112284 -0.00248024 17.04279 -0.00248024 38.063625 C -0.00248024 59.084459 17.039187 76.126127 38.060022 76.126127 C 59.086064 76.126127 76.122524 59.084459 76.122524 38.063625 C 76.122524 17.04279 59.086064 0.00112284 38.060022 0.00112284 Z M 38.060022 0.00112284 " stroke="#ffffff" stroke-width="38" stroke-opacity="1" stroke-miterlimit="4"/></g></g><g clip-path="url(#d0254e8906)"><g clip-path="url(#3e4aaf0d06)"><path fill="#fabe12" d="M 241.0625 344.011719 L 294.296875 344.011719 L 294.296875 386.863281 L 241.0625 386.863281 Z M 241.0625 344.011719 " fill-opacity="1" fill-rule="nonzero"/></g></g><g clip-path="url(#56bc4efa65)"><g clip-path="url(#5590e8167f)"><path fill="#fabe12" d="M 310.167969 344.011719 L 363.402344 344.011719 L 363.402344 386.863281 L 310.167969 386.863281 Z M 310.167969 344.011719 " fill-opacity="1" fill-rule="nonzero"/></g></g><g clip-path="url(#1d4750be8e)"><g clip-path="url(#fff58ccadb)"><path fill="#fabe12" d="M 379.144531 344.011719 L 432.378906 344.011719 L 432.378906 386.863281 L 379.144531 386.863281 Z M 379.144531 344.011719 " fill-opacity="1" fill-rule="nonzero"/></g></g><g clip-path="url(#4c015147ed)"><g clip-path="url(#74f6560299)"><path fill="#fabe12" d="M 448.121094 344.011719 L 501.355469 344.011719 L 501.355469 386.863281 L 448.121094 386.863281 Z M 448.121094 344.011719 " fill-opacity="1" fill-rule="nonzero"/></g></g><g clip-path="url(#bfa9eb1384)"><g clip-path="url(#f34cbc44df)"><path fill="#fabe12" d="M 517.101562 344.011719 L 570.332031 344.011719 L 570.332031 386.863281 L 517.101562 386.863281 Z M 517.101562 344.011719 " fill-opacity="1" fill-rule="nonzero"/></g></g><g clip-path="url(#64e415f280)"><g clip-path="url(#1cc82a3203)"><path fill="#fabe12" d="M 241.125 399.222656 L 294.359375 399.222656 L 294.359375 442.074219 L 241.125 442.074219 Z M 241.125 399.222656 " fill-opacity="1" fill-rule="nonzero"/></g></g><g clip-path="url(#2b9ec8e7e9)"><g clip-path="url(#f49265f881)"><path fill="#fabe12" d="M 310.234375 399.222656 L 363.464844 399.222656 L 363.464844 442.074219 L 310.234375 442.074219 Z M 310.234375 399.222656 " fill-opacity="1" fill-rule="nonzero"/></g></g><g clip-path="url(#a459b11639)"><g clip-path="url(#40f300f4a5)"><path fill="#fabe12" d="M 379.210938 399.222656 L 432.441406 399.222656 L 432.441406 442.074219 L 379.210938 442.074219 Z M 379.210938 399.222656 " fill-opacity="1" fill-rule="nonzero"/></g></g><g clip-path="url(#fb94f8aeb3)"><g clip-path="url(#183e9cdded)"><path fill="#fabe12" d="M 448.1875 399.222656 L 501.417969 399.222656 L 501.417969 442.074219 L 448.1875 442.074219 Z M 448.1875 399.222656 " fill-opacity="1" fill-rule="nonzero"/></g></g><g clip-path="url(#392aca17b8)"><g clip-path="url(#185aea111c)"><path fill="#fabe12" d="M 517.164062 399.222656 L 570.398438 399.222656 L 570.398438 442.074219 L 517.164062 442.074219 Z M 517.164062 399.222656 " fill-opacity="1" fill-rule="nonzero"/></g></g><g clip-path="url(#5adb6b7147)"><g clip-path="url(#eadfa1cb0d)"><path fill="#fabe12" d="M 241.0625 454.074219 L 294.296875 454.074219 L 294.296875 496.929688 L 241.0625 496.929688 Z M 241.0625 454.074219 " fill-opacity="1" fill-rule="nonzero"/></g></g><g clip-path="url(#8d974e75d6)"><g clip-path="url(#afc9dbc0da)"><path fill="#fabe12" d="M 310.167969 454.074219 L 363.402344 454.074219 L 363.402344 496.929688 L 310.167969 496.929688 Z M 310.167969 454.074219 " fill-opacity="1" fill-rule="nonzero"/></g></g><g clip-path="url(#41063944db)"><g clip-path="url(#f088efe48e)"><path fill="#fabe12" d="M 379.144531 454.074219 L 432.378906 454.074219 L 432.378906 496.929688 L 379.144531 496.929688 Z M 379.144531 454.074219 " fill-opacity="1" fill-rule="nonzero"/></g></g><g clip-path="url(#3793a2a00e)"><g clip-path="url(#2a52593f63)"><path fill="#fabe12" d="M 448.121094 454.074219 L 501.355469 454.074219 L 501.355469 496.929688 L 448.121094 496.929688 Z M 448.121094 454.074219 " fill-opacity="1" fill-rule="nonzero"/></g></g><g clip-path="url(#384810d46c)"><g clip-path="url(#2559f3c33c)"><path fill="#fabe12" d="M 517.101562 454.074219 L 570.332031 454.074219 L 570.332031 496.929688 L 517.101562 496.929688 Z M 517.101562 454.074219 " fill-opacity="1" fill-rule="nonzero"/></g></g><g clip-path="url(#2f3daa0dbd)"><g clip-path="url(#61a7fcf5e0)"><path fill="#fabe12" d="M 241.191406 508.929688 L 294.421875 508.929688 L 294.421875 551.78125 L 241.191406 551.78125 Z M 241.191406 508.929688 " fill-opacity="1" fill-rule="nonzero"/></g></g><g clip-path="url(#b9754af07c)"><g clip-path="url(#dd425eba90)"><path fill="#fabe12" d="M 310.296875 508.929688 L 363.53125 508.929688 L 363.53125 551.78125 L 310.296875 551.78125 Z M 310.296875 508.929688 " fill-opacity="1" fill-rule="nonzero"/></g></g><g clip-path="url(#955fad8dd0)"><g clip-path="url(#f63c65bc4d)"><path fill="#fabe12" d="M 379.273438 508.929688 L 432.507812 508.929688 L 432.507812 551.78125 L 379.273438 551.78125 Z M 379.273438 508.929688 " fill-opacity="1" fill-rule="nonzero"/></g></g><g clip-path="url(#a7c618384c)"><g clip-path="url(#1421303d35)"><path fill="#fabe12" d="M 448.25 508.929688 L 501.484375 508.929688 L 501.484375 551.78125 L 448.25 551.78125 Z M 448.25 508.929688 " fill-opacity="1" fill-rule="nonzero"/></g></g><g clip-path="url(#d88abfff85)"><g clip-path="url(#914546b7e3)"><path fill="#fabe12" d="M 517.230469 508.929688 L 570.460938 508.929688 L 570.460938 551.78125 L 517.230469 551.78125 Z M 517.230469 508.929688 " fill-opacity="1" fill-rule="nonzero"/></g></g><g clip-path="url(#563e868498)"><g clip-path="url(#be8e2d728b)"><path fill="#fabe12" d="M 541.496094 202.5 L 571.8125 202.5 L 571.8125 277.222656 L 541.496094 277.222656 Z M 541.496094 202.5 " fill-opacity="1" fill-rule="nonzero"/></g></g><g clip-path="url(#c5e39c5c44)"><g clip-path="url(#70228e52a8)"><path fill="#fabe12" d="M 236.714844 202.5 L 267.03125 202.5 L 267.03125 277.222656 L 236.714844 277.222656 Z M 236.714844 202.5 " fill-opacity="1" fill-rule="nonzero"/></g></g><g clip-path="url(#0089c4e2f3)"><g clip-path="url(#c5d7a19db9)"><g clip-path="url(#27d6cce0bb)"><path fill="#dd2e44" d="M 499.359375 382.503906 L 510.003906 389.78125 L 474.460938 441.746094 L 463.816406 434.464844 Z M 499.359375 382.503906 " fill-opacity="1" fill-rule="nonzero"/></g></g></g><g clip-path="url(#43ee002c22)"><g clip-path="url(#4da5a26213)"><g clip-path="url(#d6ae154f53)"><path fill="#dd2e44" d="M 449.601562 412.394531 L 460.105469 404.910156 L 481.03125 434.28125 L 470.527344 441.761719 Z M 449.601562 412.394531 " fill-opacity="1" fill-rule="nonzero"/></g></g></g></svg>