<svg xmlns="http://www.w3.org/2000/svg" xmlns:xlink="http://www.w3.org/1999/xlink" width="1080" zoomAndPan="magnify" viewBox="0 0 810 809.999993" height="1080" preserveAspectRatio="xMidYMid meet" version="1.0"><defs><filter x="0%" y="0%" width="100%" height="100%" id="bd56c1c067"><feColorMatrix values="0 0 0 0 1 0 0 0 0 1 0 0 0 0 1 0 0 0 1 0" color-interpolation-filters="sRGB"/></filter><clipPath id="4c187c756e"><path d="M 267.371094 321.121094 L 519 321.121094 L 519 562.140625 L 267.371094 562.140625 Z M 267.371094 321.121094 " clip-rule="nonzero"/></clipPath><clipPath id="b718aba1c6"><path d="M 393.292969 321.121094 C 323.75 321.121094 267.371094 375.074219 267.371094 441.628906 C 267.371094 508.1875 323.75 562.140625 393.292969 562.140625 C 462.839844 562.140625 519.21875 508.1875 519.21875 441.628906 C 519.21875 375.074219 462.839844 321.121094 393.292969 321.121094 Z M 393.292969 321.121094 " clip-rule="nonzero"/></clipPath><clipPath id="f1d98ebfb7"><path d="M 525 426 L 566 426 L 566 463 L 525 463 Z M 525 426 " clip-rule="nonzero"/></clipPath><clipPath id="7371549fa7"><path d="M 519.21875 438.460938 L 557.261719 420.296875 L 571.835938 450.828125 L 533.792969 468.988281 Z M 519.21875 438.460938 " clip-rule="nonzero"/></clipPath><clipPath id="2d5cd527ab"><path d="M 538.203125 429.394531 C 527.71875 434.402344 522.480469 445.292969 526.507812 453.722656 C 530.53125 462.15625 542.292969 464.929688 552.78125 459.925781 C 563.265625 454.917969 568.503906 444.027344 564.476562 435.597656 C 560.453125 427.167969 548.691406 424.390625 538.203125 429.394531 Z M 538.203125 429.394531 " clip-rule="nonzero"/></clipPath><clipPath id="3b315b208d"><path d="M 416 562 L 474 562 L 474 604 L 416 604 Z M 416 562 " clip-rule="nonzero"/></clipPath><clipPath id="44c9c98eec"><path d="M 478.269531 593.15625 L 422.3125 609.644531 L 411.320312 572.339844 L 467.277344 555.855469 Z M 478.269531 593.15625 " clip-rule="nonzero"/></clipPath><clipPath id="ec4225761d"><path d="M 450.351562 601.382812 C 465.769531 596.839844 475.808594 584.808594 472.773438 574.503906 C 469.738281 564.203125 454.78125 559.535156 439.363281 564.078125 C 423.945312 568.621094 413.910156 580.652344 416.945312 590.953125 C 419.976562 601.253906 434.9375 605.921875 450.351562 601.382812 Z M 450.351562 601.382812 " clip-rule="nonzero"/></clipPath><clipPath id="533266a186"><path d="M 431 562 L 489 562 L 489 603 L 431 603 Z M 431 562 " clip-rule="nonzero"/></clipPath><clipPath id="3959867019"><path d="M 484.085938 608.40625 L 427.34375 594.875 L 436.363281 557.046875 L 493.105469 570.578125 Z M 484.085938 608.40625 " clip-rule="nonzero"/></clipPath><clipPath id="f2c35804df"><path d="M 455.777344 601.65625 C 471.410156 605.382812 486.105469 599.9375 488.59375 589.492188 C 491.085938 579.046875 480.433594 567.554688 464.800781 563.828125 C 449.167969 560.097656 434.472656 565.542969 431.980469 575.992188 C 429.492188 586.4375 440.144531 597.925781 455.777344 601.65625 Z M 455.777344 601.65625 " clip-rule="nonzero"/></clipPath><clipPath id="c3d0282acd"><path d="M 302 563 L 360 563 L 360 604 L 302 604 Z M 302 563 " clip-rule="nonzero"/></clipPath><clipPath id="267e2b8c06"><path d="M 363.859375 594.445312 L 307.566406 609.75 L 297.367188 572.222656 L 353.65625 556.917969 Z M 363.859375 594.445312 " clip-rule="nonzero"/></clipPath><clipPath id="a5408dea03"><path d="M 335.777344 602.082031 C 351.285156 597.863281 361.574219 586.046875 358.757812 575.683594 C 355.941406 565.320312 341.082031 560.335938 325.574219 564.554688 C 310.066406 568.769531 299.777344 580.589844 302.59375 590.949219 C 305.410156 601.3125 320.269531 606.296875 335.777344 602.082031 Z M 335.777344 602.082031 " clip-rule="nonzero"/></clipPath><clipPath id="a7321ad3bd"><path d="M 317 563 L 375 563 L 375 604 L 317 604 Z M 317 563 " clip-rule="nonzero"/></clipPath><clipPath id="4866a1f071"><path d="M 369.351562 609.816406 L 312.90625 595.089844 L 322.726562 557.460938 L 379.167969 572.183594 Z M 369.351562 609.816406 " clip-rule="nonzero"/></clipPath><clipPath id="fe1f894a7c"><path d="M 341.195312 602.46875 C 356.746094 606.527344 371.550781 601.390625 374.261719 591 C 376.972656 580.609375 366.5625 568.894531 351.011719 564.839844 C 335.460938 560.78125 320.65625 565.917969 317.945312 576.308594 C 315.234375 586.699219 325.644531 598.410156 341.195312 602.46875 Z M 341.195312 602.46875 " clip-rule="nonzero"/></clipPath><clipPath id="31867213d8"><path d="M 309.078125 404.515625 L 481.839844 404.515625 L 481.839844 551.449219 L 309.078125 551.449219 Z M 309.078125 404.515625 " clip-rule="nonzero"/></clipPath><clipPath id="331fc9534f"><path d="M 395.273438 404.515625 C 347.667969 404.515625 309.078125 437.40625 309.078125 477.980469 C 309.078125 518.554688 347.667969 551.449219 395.273438 551.449219 C 442.882812 551.449219 481.472656 518.554688 481.472656 477.980469 C 481.472656 437.40625 442.882812 404.515625 395.273438 404.515625 Z M 395.273438 404.515625 " clip-rule="nonzero"/></clipPath><clipPath id="3451635812"><path d="M 329.105469 367.398438 L 387.019531 367.398438 L 387.019531 441.828125 L 329.105469 441.828125 Z M 329.105469 367.398438 " clip-rule="nonzero"/></clipPath><clipPath id="0ab7da524b"><path d="M 358.0625 367.398438 C 365.742188 367.398438 373.109375 370.449219 378.539062 375.878906 C 383.96875 381.3125 387.019531 388.675781 387.019531 396.355469 L 387.019531 412.671875 C 387.019531 420.351562 383.96875 427.71875 378.539062 433.148438 C 373.109375 438.578125 365.742188 441.628906 358.0625 441.628906 C 350.382812 441.628906 343.019531 438.578125 337.589844 433.148438 C 332.15625 427.71875 329.105469 420.351562 329.105469 412.671875 L 329.105469 396.355469 C 329.105469 388.675781 332.15625 381.3125 337.589844 375.878906 C 343.019531 370.449219 350.382812 367.398438 358.0625 367.398438 Z M 358.0625 367.398438 " clip-rule="nonzero"/></clipPath><clipPath id="7169cf4086"><path d="M 399.566406 367.398438 L 457.480469 367.398438 L 457.480469 441.828125 L 399.566406 441.828125 Z M 399.566406 367.398438 " clip-rule="nonzero"/></clipPath><clipPath id="a548bdc346"><path d="M 428.523438 367.398438 C 436.203125 367.398438 443.570312 370.449219 449 375.878906 C 454.429688 381.3125 457.480469 388.675781 457.480469 396.355469 L 457.480469 412.671875 C 457.480469 420.351562 454.429688 427.71875 449 433.148438 C 443.570312 438.578125 436.203125 441.628906 428.523438 441.628906 C 420.84375 441.628906 413.480469 438.578125 408.046875 433.148438 C 402.617188 427.71875 399.566406 420.351562 399.566406 412.671875 L 399.566406 396.355469 C 399.566406 388.675781 402.617188 381.3125 408.046875 375.878906 C 413.480469 370.449219 420.84375 367.398438 428.523438 367.398438 Z M 428.523438 367.398438 " clip-rule="nonzero"/></clipPath><clipPath id="b25ddc2a75"><path d="M 411.96875 382.496094 L 445.082031 382.496094 L 445.082031 428.285156 L 411.96875 428.285156 Z M 411.96875 382.496094 " clip-rule="nonzero"/></clipPath><clipPath id="b52530b44c"><path d="M 428.523438 382.496094 C 432.914062 382.496094 437.125 384.242188 440.230469 387.347656 C 443.335938 390.449219 445.082031 394.660156 445.082031 399.054688 L 445.082031 411.613281 C 445.082031 416.003906 443.335938 420.214844 440.230469 423.320312 C 437.125 426.425781 432.914062 428.167969 428.523438 428.167969 C 424.132812 428.167969 419.921875 426.425781 416.816406 423.320312 C 413.710938 420.214844 411.96875 416.003906 411.96875 411.613281 L 411.96875 399.054688 C 411.96875 394.660156 413.710938 390.449219 416.816406 387.347656 C 419.921875 384.242188 424.132812 382.496094 428.523438 382.496094 Z M 428.523438 382.496094 " clip-rule="nonzero"/></clipPath><clipPath id="608b075eeb"><path d="M 425.898438 382.496094 L 440.636719 382.496094 L 440.636719 399.363281 L 425.898438 399.363281 Z M 425.898438 382.496094 " clip-rule="nonzero"/></clipPath><clipPath id="2993f96ab5"><path d="M 433.269531 382.496094 C 437.339844 382.496094 440.636719 385.796875 440.636719 389.867188 L 440.636719 391.988281 C 440.636719 396.058594 437.339844 399.359375 433.269531 399.359375 C 429.199219 399.359375 425.898438 396.058594 425.898438 391.988281 L 425.898438 389.867188 C 425.898438 385.796875 429.199219 382.496094 433.269531 382.496094 Z M 433.269531 382.496094 " clip-rule="nonzero"/></clipPath><clipPath id="93acc467cb"><path d="M 340.449219 381.679688 L 373.558594 381.679688 L 373.558594 427.46875 L 340.449219 427.46875 Z M 340.449219 381.679688 " clip-rule="nonzero"/></clipPath><clipPath id="a2e9cd31cf"><path d="M 357.003906 381.679688 C 361.394531 381.679688 365.605469 383.421875 368.710938 386.527344 C 371.816406 389.632812 373.558594 393.84375 373.558594 398.234375 L 373.558594 410.792969 C 373.558594 415.1875 371.816406 419.398438 368.710938 422.5 C 365.605469 425.605469 361.394531 427.351562 357.003906 427.351562 C 352.613281 427.351562 348.402344 425.605469 345.296875 422.5 C 342.191406 419.398438 340.449219 415.1875 340.449219 410.792969 L 340.449219 398.234375 C 340.449219 393.84375 342.191406 389.632812 345.296875 386.527344 C 348.402344 383.421875 352.613281 381.679688 357.003906 381.679688 Z M 357.003906 381.679688 " clip-rule="nonzero"/></clipPath><clipPath id="5b5e44197b"><path d="M 355.828125 381.679688 L 370.566406 381.679688 L 370.566406 398.546875 L 355.828125 398.546875 Z M 355.828125 381.679688 " clip-rule="nonzero"/></clipPath><clipPath id="fe4cb52a69"><path d="M 363.199219 381.679688 C 367.269531 381.679688 370.566406 384.976562 370.566406 389.046875 L 370.566406 391.171875 C 370.566406 395.242188 367.269531 398.539062 363.199219 398.539062 C 359.128906 398.539062 355.828125 395.242188 355.828125 391.171875 L 355.828125 389.046875 C 355.828125 384.976562 359.128906 381.679688 363.199219 381.679688 Z M 363.199219 381.679688 " clip-rule="nonzero"/></clipPath><clipPath id="6de4b3bece"><path d="M 371.609375 443.628906 L 415.109375 443.628906 L 415.109375 462.796875 L 371.609375 462.796875 Z M 371.609375 443.628906 " clip-rule="nonzero"/></clipPath><clipPath id="86bc94ef45"><path d="M 365.644531 420.332031 L 421 420.332031 L 421 447.332031 L 365.644531 447.332031 Z M 365.644531 420.332031 " clip-rule="nonzero"/></clipPath><clipPath id="2aab6d05a2"><path d="M 400.472656 425.496094 L 411.078125 425.496094 L 411.078125 434.3125 L 400.472656 434.3125 Z M 400.472656 425.496094 " clip-rule="nonzero"/></clipPath><clipPath id="071a55781e"><path d="M 403.089844 425.589844 C 406.738281 427.214844 408.210938 428.214844 409.117188 429.058594 C 409.847656 429.738281 410.550781 430.609375 410.835938 431.132812 C 410.976562 431.402344 411.011719 431.582031 411.039062 431.8125 C 411.066406 432.042969 411.050781 432.285156 411 432.515625 C 410.949219 432.746094 410.871094 432.976562 410.757812 433.183594 C 410.640625 433.386719 410.488281 433.566406 410.308594 433.71875 C 410.128906 433.871094 409.925781 434 409.707031 434.089844 C 409.492188 434.179688 409.246094 434.242188 409.015625 434.257812 C 408.785156 434.269531 408.542969 434.257812 408.3125 434.191406 C 408.09375 434.128906 407.863281 434.039062 407.671875 433.910156 C 407.480469 433.785156 407.289062 433.605469 407.148438 433.425781 C 407.007812 433.246094 406.890625 433.027344 406.816406 432.808594 C 406.738281 432.59375 406.6875 432.351562 406.6875 432.121094 C 406.6875 431.890625 406.710938 431.632812 406.789062 431.414062 C 406.867188 431.199219 406.96875 430.96875 407.109375 430.789062 C 407.25 430.597656 407.429688 430.429688 407.621094 430.300781 C 407.8125 430.171875 408.03125 430.058594 408.25 429.996094 C 408.464844 429.929688 408.722656 429.890625 408.953125 429.90625 C 409.183594 429.917969 409.425781 429.96875 409.644531 430.046875 C 409.863281 430.136719 410.078125 430.25 410.257812 430.402344 C 410.4375 430.542969 410.605469 430.738281 410.71875 430.929688 C 410.847656 431.121094 410.9375 431.351562 410.988281 431.582031 C 411.039062 431.8125 411.066406 432.054688 411.039062 432.285156 C 411.011719 432.515625 410.949219 432.757812 410.859375 432.964844 C 410.769531 433.183594 410.628906 433.386719 410.476562 433.554688 C 410.320312 433.71875 410.128906 433.871094 409.925781 433.988281 C 409.71875 434.101562 409.492188 434.191406 409.261719 434.230469 C 409.03125 434.269531 408.785156 434.28125 408.554688 434.242188 C 408.324219 434.207031 408.082031 434.128906 407.878906 434.027344 C 407.671875 433.925781 407.519531 433.808594 407.3125 433.605469 C 406.980469 433.269531 406.675781 432.65625 406.136719 432.144531 C 405.332031 431.375 403.578125 430.136719 402.707031 429.6875 C 402.234375 429.445312 401.824219 429.429688 401.542969 429.277344 C 401.363281 429.1875 401.257812 429.097656 401.144531 428.984375 C 401.027344 428.867188 400.925781 428.777344 400.835938 428.613281 C 400.710938 428.382812 400.554688 428.011719 400.53125 427.703125 C 400.503906 427.394531 400.59375 426.984375 400.683594 426.742188 C 400.746094 426.5625 400.8125 426.460938 400.925781 426.320312 C 401.09375 426.117188 401.4375 425.847656 401.667969 425.71875 C 401.835938 425.628906 401.949219 425.578125 402.128906 425.554688 C 402.386719 425.515625 403.089844 425.589844 403.089844 425.589844 " clip-rule="nonzero"/></clipPath><clipPath id="9a9ed4e2e8"><path d="M 410.601562 436.839844 L 414.511719 436.839844 L 414.511719 440.863281 L 410.601562 440.863281 Z M 410.601562 436.839844 " clip-rule="nonzero"/></clipPath><clipPath id="6ef1d93614"><path d="M 414.507812 438.277344 C 414.507812 439.519531 414.367188 439.835938 414.175781 440.082031 C 413.984375 440.324219 413.714844 440.542969 413.433594 440.667969 C 413.152344 440.796875 412.804688 440.847656 412.5 440.835938 C 412.191406 440.824219 411.859375 440.707031 411.589844 440.554688 C 411.320312 440.402344 411.066406 440.144531 410.910156 439.890625 C 410.746094 439.621094 410.640625 439.289062 410.628906 438.980469 C 410.617188 438.671875 410.679688 438.328125 410.808594 438.046875 C 410.9375 437.765625 411.140625 437.496094 411.382812 437.304688 C 411.628906 437.109375 411.949219 436.957031 412.253906 436.90625 C 412.5625 436.855469 412.90625 436.882812 413.203125 436.96875 C 413.496094 437.058594 414.023438 437.457031 414.023438 437.457031 " clip-rule="nonzero"/></clipPath><clipPath id="0ce50234eb"><path d="M 390 284.386719 L 412 284.386719 L 412 306.886719 L 390 306.886719 Z M 390 284.386719 " clip-rule="nonzero"/></clipPath><clipPath id="1a0dd49e47"><path d="M 375 290 L 391 290 L 391 306.886719 L 375 306.886719 Z M 375 290 " clip-rule="nonzero"/></clipPath><clipPath id="93afa60353"><path d="M 220 427 L 262 427 L 262 463 L 220 463 Z M 220 427 " clip-rule="nonzero"/></clipPath><clipPath id="6aa4c72b06"><path d="M 227.75 421.203125 L 266.949219 436.710938 L 254.503906 468.171875 L 215.304688 452.660156 Z M 227.75 421.203125 " clip-rule="nonzero"/></clipPath><clipPath id="3271ddc2da"><path d="M 247.3125 428.945312 C 236.507812 424.667969 224.964844 428.246094 221.527344 436.933594 C 218.089844 445.621094 224.0625 456.125 234.867188 460.402344 C 245.671875 464.675781 257.214844 461.097656 260.652344 452.410156 C 264.089844 443.726562 258.117188 433.21875 247.3125 428.945312 Z M 247.3125 428.945312 " clip-rule="nonzero"/></clipPath><clipPath id="aa3db310d5"><path d="M 205 266.167969 L 275.488281 266.167969 L 275.488281 585 L 205 585 Z M 205 266.167969 " clip-rule="nonzero"/></clipPath><mask id="3b2b49c7e1"><g filter="url(#bd56c1c067)"><rect x="-81" width="972" fill="#000000" y="-80.999999" height="971.999992" fill-opacity="0.3"/></g></mask><clipPath id="b02df3caf2"><path d="M 0 1 L 25.441406 1 L 25.441406 70 L 0 70 Z M 0 1 " clip-rule="nonzero"/></clipPath><clipPath id="5de5d3ce62"><rect x="0" width="26" y="0" height="71"/></clipPath><mask id="a39ee30a83"><g filter="url(#bd56c1c067)"><rect x="-81" width="972" fill="#000000" y="-80.999999" height="971.999992" fill-opacity="0.3"/></g></mask><clipPath id="7dc3bfa248"><path d="M 0.558594 0.441406 L 2 0.441406 L 2 2.839844 L 0.558594 2.839844 Z M 0.558594 0.441406 " clip-rule="nonzero"/></clipPath><clipPath id="babe25b698"><rect x="0" width="2" y="0" height="3"/></clipPath><mask id="8247a5ea8d"><g filter="url(#bd56c1c067)"><rect x="-81" width="972" fill="#000000" y="-80.999999" height="971.999992" fill-opacity="0.3"/></g></mask><clipPath id="7ef65af039"><path d="M 0.238281 1 L 25.921875 1 L 25.921875 70 L 0.238281 70 Z M 0.238281 1 " clip-rule="nonzero"/></clipPath><clipPath id="3802486631"><rect x="0" width="26" y="0" height="71"/></clipPath><clipPath id="166c1e1c20"><path d="M 555 358 L 566 358 L 566 377 L 555 377 Z M 555 358 " clip-rule="nonzero"/></clipPath><clipPath id="446af94cb9"><path d="M 550.167969 363.832031 L 563.222656 358.054688 L 569.1875 371.53125 L 556.132812 377.308594 Z M 550.167969 363.832031 " clip-rule="nonzero"/></clipPath><clipPath id="649a99a144"><path d="M 550.167969 363.832031 L 563.222656 358.054688 L 569.1875 371.53125 L 556.132812 377.308594 Z M 550.167969 363.832031 " clip-rule="nonzero"/></clipPath><clipPath id="b324e4a757"><path d="M 560 345 L 566 345 L 566 351 L 560 351 Z M 560 345 " clip-rule="nonzero"/></clipPath><clipPath id="76e8880884"><path d="M 563.851562 344.1875 L 566.941406 348.367188 L 562.757812 351.457031 L 559.667969 347.273438 Z M 563.851562 344.1875 " clip-rule="nonzero"/></clipPath><clipPath id="bf6628a265"><path d="M 565.394531 346.277344 C 564.542969 345.121094 562.914062 344.878906 561.761719 345.730469 C 560.605469 346.582031 560.359375 348.210938 561.214844 349.367188 C 562.066406 350.519531 563.695312 350.765625 564.847656 349.914062 C 566.003906 349.058594 566.25 347.433594 565.394531 346.277344 Z M 565.394531 346.277344 " clip-rule="nonzero"/></clipPath><clipPath id="654cdf16fa"><path d="M 255 358 L 266 358 L 266 377 L 255 377 Z M 255 358 " clip-rule="nonzero"/></clipPath><clipPath id="0edc56e1fc"><path d="M 250.277344 363.832031 L 263.332031 358.054688 L 269.292969 371.53125 L 256.238281 377.308594 Z M 250.277344 363.832031 " clip-rule="nonzero"/></clipPath><clipPath id="8909fd3e65"><path d="M 250.277344 363.832031 L 263.332031 358.054688 L 269.292969 371.53125 L 256.238281 377.308594 Z M 250.277344 363.832031 " clip-rule="nonzero"/></clipPath><clipPath id="4550970090"><path d="M 260 345 L 267 345 L 267 351 L 260 351 Z M 260 345 " clip-rule="nonzero"/></clipPath><clipPath id="f54e736af9"><path d="M 263.957031 344.1875 L 267.046875 348.367188 L 262.863281 351.457031 L 259.777344 347.273438 Z M 263.957031 344.1875 " clip-rule="nonzero"/></clipPath><clipPath id="d8532a6477"><path d="M 265.503906 346.277344 C 264.648438 345.121094 263.023438 344.878906 261.867188 345.730469 C 260.710938 346.582031 260.46875 348.210938 261.320312 349.367188 C 262.171875 350.519531 263.800781 350.765625 264.957031 349.914062 C 266.109375 349.058594 266.355469 347.433594 265.503906 346.277344 Z M 265.503906 346.277344 " clip-rule="nonzero"/></clipPath></defs><g clip-path="url(#4c187c756e)"><g clip-path="url(#b718aba1c6)"><path fill="#f8c038" d="M 267.371094 321.121094 L 518.746094 321.121094 L 518.746094 562.140625 L 267.371094 562.140625 Z M 267.371094 321.121094 " fill-opacity="1" fill-rule="nonzero"/></g></g><g clip-path="url(#f1d98ebfb7)"><g clip-path="url(#7371549fa7)"><g clip-path="url(#2d5cd527ab)"><path fill="#f8c038" d="M 519.21875 438.460938 L 557.140625 420.355469 L 571.71875 450.882812 L 533.792969 468.988281 Z M 519.21875 438.460938 " fill-opacity="1" fill-rule="nonzero"/></g></g></g><g clip-path="url(#3b315b208d)"><g clip-path="url(#44c9c98eec)"><g clip-path="url(#ec4225761d)"><path fill="#f09020" d="M 478.269531 593.15625 L 422.457031 609.601562 L 411.46875 572.296875 L 467.277344 555.855469 Z M 478.269531 593.15625 " fill-opacity="1" fill-rule="nonzero"/></g></g></g><g clip-path="url(#533266a186)"><g clip-path="url(#3959867019)"><g clip-path="url(#f2c35804df)"><path fill="#f09020" d="M 484.085938 608.40625 L 427.488281 594.910156 L 436.511719 557.082031 L 493.105469 570.578125 Z M 484.085938 608.40625 " fill-opacity="1" fill-rule="nonzero"/></g></g></g><g clip-path="url(#c3d0282acd)"><g clip-path="url(#267e2b8c06)"><g clip-path="url(#a5408dea03)"><path fill="#f09020" d="M 363.859375 594.445312 L 307.714844 609.710938 L 297.511719 572.183594 L 353.65625 556.917969 Z M 363.859375 594.445312 " fill-opacity="1" fill-rule="nonzero"/></g></g></g><g clip-path="url(#a7321ad3bd)"><g clip-path="url(#4866a1f071)"><g clip-path="url(#fe1f894a7c)"><path fill="#f09020" d="M 369.351562 609.816406 L 313.054688 595.128906 L 322.871094 557.5 L 379.167969 572.183594 Z M 369.351562 609.816406 " fill-opacity="1" fill-rule="nonzero"/></g></g></g><g clip-path="url(#31867213d8)"><g clip-path="url(#331fc9534f)"><path fill="#fddc66" d="M 309.078125 404.515625 L 481.265625 404.515625 L 481.265625 551.449219 L 309.078125 551.449219 Z M 309.078125 404.515625 " fill-opacity="1" fill-rule="nonzero"/></g></g><g clip-path="url(#3451635812)"><g clip-path="url(#0ab7da524b)"><path fill="#ffffff" d="M 329.105469 367.398438 L 387.019531 367.398438 L 387.019531 441.601562 L 329.105469 441.601562 Z M 329.105469 367.398438 " fill-opacity="1" fill-rule="nonzero"/></g></g><g clip-path="url(#7169cf4086)"><g clip-path="url(#a548bdc346)"><path fill="#ffffff" d="M 399.566406 367.398438 L 457.480469 367.398438 L 457.480469 441.601562 L 399.566406 441.601562 Z M 399.566406 367.398438 " fill-opacity="1" fill-rule="nonzero"/></g></g><g clip-path="url(#b25ddc2a75)"><g clip-path="url(#b52530b44c)"><path fill="#4b4b4b" d="M 411.96875 382.496094 L 445.082031 382.496094 L 445.082031 428.15625 L 411.96875 428.15625 Z M 411.96875 382.496094 " fill-opacity="1" fill-rule="nonzero"/></g></g><g clip-path="url(#608b075eeb)"><g clip-path="url(#2993f96ab5)"><path fill="#ffffff" d="M 425.898438 382.496094 L 440.636719 382.496094 L 440.636719 399.363281 L 425.898438 399.363281 Z M 425.898438 382.496094 " fill-opacity="1" fill-rule="nonzero"/></g></g><g clip-path="url(#93acc467cb)"><g clip-path="url(#a2e9cd31cf)"><path fill="#4b4b4b" d="M 340.449219 381.679688 L 373.558594 381.679688 L 373.558594 427.335938 L 340.449219 427.335938 Z M 340.449219 381.679688 " fill-opacity="1" fill-rule="nonzero"/></g></g><g clip-path="url(#5b5e44197b)"><g clip-path="url(#fe4cb52a69)"><path fill="#ffffff" d="M 355.828125 381.679688 L 370.566406 381.679688 L 370.566406 398.546875 L 355.828125 398.546875 Z M 355.828125 381.679688 " fill-opacity="1" fill-rule="nonzero"/></g></g><g clip-path="url(#6de4b3bece)"><path fill="#f86018" d="M 415.226562 441.105469 C 415.226562 441.820312 415.191406 442.53125 415.121094 443.242188 C 415.050781 443.953125 414.945312 444.660156 414.808594 445.359375 C 414.667969 446.0625 414.496094 446.753906 414.289062 447.4375 C 414.078125 448.121094 413.839844 448.792969 413.566406 449.453125 C 413.292969 450.113281 412.988281 450.757812 412.652344 451.386719 C 412.316406 452.015625 411.949219 452.628906 411.550781 453.222656 C 411.152344 453.816406 410.730469 454.390625 410.277344 454.941406 C 409.824219 455.492188 409.34375 456.023438 408.839844 456.527344 C 408.332031 457.03125 407.804688 457.511719 407.253906 457.964844 C 406.699219 458.417969 406.128906 458.84375 405.535156 459.238281 C 404.941406 459.636719 404.328125 460.003906 403.699219 460.339844 C 403.066406 460.675781 402.421875 460.980469 401.761719 461.253906 C 401.105469 461.527344 400.433594 461.769531 399.75 461.976562 C 399.066406 462.183594 398.371094 462.355469 397.671875 462.496094 C 396.972656 462.636719 396.265625 462.738281 395.554688 462.808594 C 394.84375 462.878906 394.132812 462.914062 393.417969 462.914062 C 392.703125 462.914062 391.992188 462.878906 391.28125 462.808594 C 390.570312 462.738281 389.863281 462.636719 389.164062 462.496094 C 388.460938 462.355469 387.769531 462.183594 387.085938 461.976562 C 386.402344 461.769531 385.730469 461.527344 385.070312 461.253906 C 384.410156 460.980469 383.765625 460.675781 383.136719 460.339844 C 382.507812 460.003906 381.894531 459.636719 381.300781 459.238281 C 380.707031 458.84375 380.132812 458.417969 379.582031 457.964844 C 379.03125 457.511719 378.5 457.03125 377.996094 456.527344 C 377.492188 456.023438 377.011719 455.492188 376.558594 454.941406 C 376.105469 454.390625 375.679688 453.816406 375.285156 453.222656 C 374.886719 452.628906 374.519531 452.015625 374.183594 451.386719 C 373.847656 450.757812 373.542969 450.113281 373.269531 449.453125 C 372.996094 448.792969 372.753906 448.121094 372.546875 447.4375 C 372.339844 446.753906 372.167969 446.0625 372.027344 445.359375 C 371.890625 444.660156 371.785156 443.953125 371.714844 443.242188 C 371.644531 442.53125 371.609375 441.820312 371.609375 441.105469 C 371.609375 440.390625 371.644531 439.679688 371.714844 438.96875 C 371.785156 438.257812 371.890625 437.550781 372.027344 436.851562 C 372.167969 436.152344 372.339844 435.457031 372.546875 434.777344 C 372.753906 434.09375 372.996094 433.421875 373.269531 432.761719 C 373.542969 432.101562 373.847656 431.457031 374.183594 430.824219 C 374.519531 430.195312 374.886719 429.582031 375.285156 428.988281 C 375.679688 428.394531 376.105469 427.824219 376.558594 427.269531 C 377.011719 426.71875 377.492188 426.191406 377.996094 425.683594 C 378.5 425.179688 379.03125 424.699219 379.582031 424.246094 C 380.132812 423.792969 380.707031 423.371094 381.300781 422.972656 C 381.894531 422.574219 382.507812 422.210938 383.136719 421.871094 C 383.765625 421.535156 384.410156 421.230469 385.070312 420.957031 C 385.730469 420.683594 386.402344 420.445312 387.085938 420.238281 C 387.769531 420.03125 388.460938 419.855469 389.164062 419.714844 C 389.863281 419.578125 390.570312 419.472656 391.28125 419.402344 C 391.992188 419.332031 392.703125 419.296875 393.417969 419.296875 C 394.132812 419.296875 394.84375 419.332031 395.554688 419.402344 C 396.265625 419.472656 396.972656 419.578125 397.671875 419.714844 C 398.371094 419.855469 399.066406 420.03125 399.75 420.238281 C 400.433594 420.445312 401.105469 420.683594 401.761719 420.957031 C 402.421875 421.230469 403.066406 421.535156 403.699219 421.871094 C 404.328125 422.210938 404.941406 422.574219 405.535156 422.972656 C 406.128906 423.371094 406.699219 423.792969 407.253906 424.246094 C 407.804688 424.699219 408.332031 425.179688 408.839844 425.683594 C 409.34375 426.191406 409.824219 426.71875 410.277344 427.269531 C 410.730469 427.824219 411.152344 428.394531 411.550781 428.988281 C 411.949219 429.582031 412.316406 430.195312 412.652344 430.824219 C 412.988281 431.457031 413.292969 432.101562 413.566406 432.761719 C 413.839844 433.421875 414.078125 434.09375 414.289062 434.777344 C 414.496094 435.457031 414.667969 436.152344 414.808594 436.851562 C 414.945312 437.550781 415.050781 438.257812 415.121094 438.96875 C 415.191406 439.679688 415.226562 440.390625 415.226562 441.105469 Z M 415.226562 441.105469 " fill-opacity="1" fill-rule="nonzero"/></g><g clip-path="url(#86bc94ef45)"><path fill="#f09020" d="M 420.933594 447.976562 C 420.933594 448.882812 420.890625 449.785156 420.800781 450.6875 C 420.710938 451.589844 420.578125 452.484375 420.402344 453.371094 C 420.226562 454.257812 420.007812 455.136719 419.742188 456.003906 C 419.480469 456.871094 419.175781 457.722656 418.828125 458.558594 C 418.484375 459.394531 418.097656 460.210938 417.671875 461.011719 C 417.242188 461.808594 416.777344 462.582031 416.273438 463.335938 C 415.773438 464.089844 415.234375 464.816406 414.660156 465.515625 C 414.085938 466.214844 413.476562 466.886719 412.835938 467.527344 C 412.195312 468.167969 411.527344 468.773438 410.828125 469.347656 C 410.128906 469.921875 409.402344 470.460938 408.648438 470.964844 C 407.894531 471.46875 407.121094 471.933594 406.320312 472.359375 C 405.523438 472.785156 404.707031 473.171875 403.867188 473.519531 C 403.03125 473.863281 402.179688 474.167969 401.316406 474.433594 C 400.449219 474.695312 399.570312 474.914062 398.683594 475.089844 C 397.792969 475.269531 396.898438 475.402344 396 475.488281 C 395.097656 475.578125 394.195312 475.621094 393.289062 475.621094 C 392.382812 475.621094 391.480469 475.578125 390.578125 475.488281 C 389.679688 475.402344 388.785156 475.269531 387.898438 475.089844 C 387.007812 474.914062 386.132812 474.695312 385.265625 474.433594 C 384.398438 474.167969 383.546875 473.863281 382.710938 473.519531 C 381.875 473.171875 381.054688 472.785156 380.257812 472.359375 C 379.460938 471.933594 378.683594 471.46875 377.929688 470.964844 C 377.179688 470.460938 376.453125 469.921875 375.753906 469.347656 C 375.050781 468.773438 374.382812 468.167969 373.742188 467.527344 C 373.101562 466.886719 372.496094 466.214844 371.921875 465.515625 C 371.347656 464.816406 370.808594 464.089844 370.304688 463.335938 C 369.800781 462.582031 369.335938 461.808594 368.910156 461.011719 C 368.484375 460.210938 368.097656 459.394531 367.75 458.558594 C 367.402344 457.722656 367.097656 456.871094 366.835938 456.003906 C 366.574219 455.136719 366.351562 454.257812 366.175781 453.371094 C 366 452.484375 365.867188 451.589844 365.777344 450.6875 C 365.691406 449.785156 365.644531 448.882812 365.644531 447.976562 C 365.644531 447.074219 365.691406 446.167969 365.777344 445.269531 C 365.867188 444.367188 366 443.472656 366.175781 442.585938 C 366.351562 441.695312 366.574219 440.820312 366.835938 439.953125 C 367.097656 439.085938 367.402344 438.234375 367.75 437.398438 C 368.097656 436.5625 368.484375 435.746094 368.910156 434.945312 C 369.335938 434.148438 369.800781 433.371094 370.304688 432.621094 C 370.808594 431.867188 371.347656 431.140625 371.921875 430.441406 C 372.496094 429.742188 373.101562 429.070312 373.742188 428.429688 C 374.382812 427.789062 375.050781 427.183594 375.753906 426.609375 C 376.453125 426.035156 377.179688 425.496094 377.929688 424.992188 C 378.683594 424.488281 379.460938 424.023438 380.257812 423.597656 C 381.054688 423.171875 381.875 422.785156 382.710938 422.4375 C 383.546875 422.089844 384.398438 421.785156 385.265625 421.523438 C 386.132812 421.261719 387.007812 421.042969 387.898438 420.863281 C 388.785156 420.6875 389.679688 420.554688 390.578125 420.46875 C 391.480469 420.378906 392.382812 420.332031 393.289062 420.332031 C 394.195312 420.332031 395.097656 420.378906 396 420.46875 C 396.898438 420.554688 397.792969 420.6875 398.683594 420.863281 C 399.570312 421.042969 400.449219 421.261719 401.316406 421.523438 C 402.179688 421.785156 403.03125 422.089844 403.867188 422.4375 C 404.707031 422.785156 405.523438 423.171875 406.320312 423.597656 C 407.121094 424.023438 407.894531 424.488281 408.648438 424.992188 C 409.402344 425.496094 410.128906 426.035156 410.828125 426.609375 C 411.527344 427.183594 412.195312 427.789062 412.835938 428.429688 C 413.476562 429.070312 414.085938 429.742188 414.660156 430.441406 C 415.234375 431.140625 415.773438 431.867188 416.273438 432.621094 C 416.777344 433.371094 417.242188 434.148438 417.671875 434.945312 C 418.097656 435.746094 418.484375 436.5625 418.828125 437.398438 C 419.175781 438.234375 419.480469 439.085938 419.742188 439.953125 C 420.007812 440.820312 420.226562 441.695312 420.402344 442.585938 C 420.578125 443.472656 420.710938 444.367188 420.800781 445.269531 C 420.890625 446.167969 420.933594 447.074219 420.933594 447.976562 Z M 420.933594 447.976562 " fill-opacity="1" fill-rule="nonzero"/></g><g clip-path="url(#2aab6d05a2)"><g clip-path="url(#071a55781e)"><path fill="#ffffff" d="M 400.019531 425.039062 L 411.53125 425.039062 L 411.53125 434.769531 L 400.019531 434.769531 Z M 400.019531 425.039062 " fill-opacity="1" fill-rule="nonzero"/></g></g><g clip-path="url(#9a9ed4e2e8)"><g clip-path="url(#6ef1d93614)"><path fill="#ffffff" d="M 410.117188 436.394531 L 415.070312 436.394531 L 415.070312 441.347656 L 410.117188 441.347656 Z M 410.117188 436.394531 " fill-opacity="1" fill-rule="nonzero"/></g></g><path stroke-linecap="round" transform="matrix(-0.75, 0, 0, -0.75, 379.170013, 442.379878)" fill="none" stroke-linejoin="miter" d="M 0.997518 1.001295 L 11.440227 1.001295 " stroke="#c8831a" stroke-width="2" stroke-opacity="1" stroke-miterlimit="4"/><path stroke-linecap="round" transform="matrix(-0.75, 0, 0, -0.75, 379.167728, 437.166334)" fill="none" stroke-linejoin="miter" d="M 0.99968 0.99782 L 6.879888 0.99782 " stroke="#c8831a" stroke-width="2" stroke-opacity="1" stroke-miterlimit="4"/><path stroke-linecap="round" transform="matrix(-0.75, -0.000000001309, 0.000000001309, -0.75, 379.168667, 432.345238)" fill="none" stroke-linejoin="miter" d="M 1.000931 1.001984 L 3.568639 1.001984 " stroke="#c8831a" stroke-width="2" stroke-opacity="1" stroke-miterlimit="4"/><g clip-path="url(#0ce50234eb)"><path fill="#39b54a" d="M 392.042969 305.625 C 391.1875 303.675781 389.921875 299.875 391.167969 295.816406 C 393.210938 289.160156 401.226562 284.386719 410.875 285.003906 C 412.15625 293.125 408.996094 300.734375 403.046875 304.128906 C 399.042969 306.417969 394.890625 306.148438 392.925781 305.878906 C 394.9375 304.363281 397.199219 302.414062 399.457031 299.949219 C 402.941406 296.140625 405.269531 292.363281 406.808594 289.351562 C 404.597656 292.417969 401.9375 295.730469 398.761719 299.117188 C 396.46875 301.558594 394.207031 303.722656 392.042969 305.625 Z M 392.042969 305.625 " fill-opacity="1" fill-rule="nonzero"/></g><g clip-path="url(#1a0dd49e47)"><path fill="#39b54a" d="M 389.46875 305.839844 C 387.964844 306.292969 385.066406 306.886719 382.195312 305.636719 C 377.480469 303.589844 374.660156 297.371094 375.9375 290.429688 C 382.007812 290.195312 387.324219 293.132812 389.308594 297.734375 C 390.644531 300.832031 390.097656 303.816406 389.730469 305.21875 C 388.789062 303.632812 387.550781 301.828125 385.933594 299.980469 C 383.4375 297.128906 380.863281 295.121094 378.78125 293.746094 C 380.84375 295.613281 383.050781 297.824219 385.265625 300.414062 C 386.863281 302.285156 388.257812 304.109375 389.46875 305.839844 Z M 389.46875 305.839844 " fill-opacity="1" fill-rule="nonzero"/></g><g clip-path="url(#93afa60353)"><g clip-path="url(#6aa4c72b06)"><g clip-path="url(#3271ddc2da)"><path fill="#f8c038" d="M 227.75 421.203125 L 266.828125 436.664062 L 254.382812 468.121094 L 215.304688 452.660156 Z M 227.75 421.203125 " fill-opacity="1" fill-rule="nonzero"/></g></g></g><g clip-path="url(#aa3db310d5)"><path fill="#a6a6a6" d="M 233.394531 396.726562 C 233.394531 496.929688 217.292969 537.671875 226.542969 573.046875 C 230.953125 589.902344 249.8125 587.914062 253.0625 573.046875 C 260.554688 538.777344 246.535156 494.90625 246.535156 396.726562 C 246.535156 385.296875 275.101562 387.261719 275.101562 348.199219 C 275.101562 299.3125 256.925781 266.9375 239.597656 266.9375 C 223.429688 266.9375 205.878906 302.425781 205.878906 348.199219 C 205.878906 384.878906 233.394531 387.304688 233.394531 396.726562 Z M 233.394531 396.726562 " fill-opacity="1" fill-rule="nonzero"/></g><g mask="url(#3b2b49c7e1)"><g transform="matrix(1, 0, 0, 1, 228, 513)"><g clip-path="url(#5de5d3ce62)"><g clip-path="url(#b02df3caf2)"><path fill="#a6a6a6" d="M 0.890625 59.289062 C 2.488281 66.496094 9.269531 71.558594 16.269531 68.28125 C 24.03125 64.644531 25.144531 52.609375 25.199219 46.085938 C 25.292969 34.523438 24.082031 25.976562 22.6875 14.648438 C 22.253906 11.132812 21.550781 4.582031 20.84375 1.359375 C 20.820312 10.484375 22.246094 19.328125 20.539062 28.402344 C 18.011719 36.925781 20.824219 52.511719 12.664062 58.222656 C 8.617188 61.054688 1.339844 55.449219 0.890625 59.289062 Z M 0.890625 59.289062 " fill-opacity="1" fill-rule="nonzero"/></g></g></g></g><path fill="#a6a6a6" d="M 539.984375 400.25 C 539.984375 416.71875 524.1875 531.246094 533.136719 572.839844 C 536.875 590.214844 556.402344 587.949219 559.65625 572.839844 C 567.914062 534.457031 553.128906 499.132812 553.128906 399.351562 C 553.128906 385.6875 563.667969 385.335938 569.375 367.710938 C 574.464844 351.972656 567.277344 267.21875 564.960938 267.21875 C 562.316406 267.21875 563.609375 340.613281 558.597656 340.613281 C 553.542969 340.613281 556.101562 268.210938 552.902344 267.21875 C 549.707031 266.222656 552.050781 340.613281 546.136719 340.613281 C 540.160156 340.613281 544.042969 267.21875 540.847656 267.21875 C 537.648438 267.21875 538.546875 340.613281 533.671875 340.613281 C 528.300781 340.613281 531.1875 267.21875 528.789062 267.21875 C 524.714844 267.21875 519.9375 346.925781 522.472656 363.761719 C 525.007812 380.601562 539.984375 383.789062 539.984375 400.257812 Z M 539.984375 400.25 " fill-opacity="1" fill-rule="nonzero"/><g mask="url(#a39ee30a83)"><g transform="matrix(1, 0, 0, 1, 526, 331)"><g clip-path="url(#babe25b698)"><g clip-path="url(#7dc3bfa248)"><path fill="#a6a6a6" d="M 1.796875 1.765625 C 1.761719 2.28125 1.519531 2.648438 1.253906 2.585938 C 0.988281 2.523438 0.796875 2.050781 0.832031 1.535156 C 0.863281 1.019531 1.105469 0.652344 1.371094 0.71875 C 1.640625 0.78125 1.828125 1.25 1.796875 1.765625 Z M 1.796875 1.765625 " fill-opacity="0.777" fill-rule="nonzero"/></g></g></g></g><g mask="url(#8247a5ea8d)"><g transform="matrix(1, 0, 0, 1, 534, 513)"><g clip-path="url(#3802486631)"><g clip-path="url(#7ef65af039)"><path fill="#a6a6a6" d="M 0.957031 59.289062 C 2.554688 66.496094 9.335938 71.558594 16.335938 68.28125 C 24.097656 64.644531 25.210938 52.609375 25.261719 46.085938 C 25.359375 34.523438 24.144531 25.976562 22.753906 14.648438 C 22.320312 11.132812 21.617188 4.582031 20.910156 1.359375 C 20.886719 10.484375 22.3125 19.328125 20.605469 28.402344 C 18.078125 36.925781 20.890625 52.511719 12.730469 58.222656 C 8.683594 61.054688 1.40625 55.449219 0.957031 59.289062 Z M 0.957031 59.289062 " fill-opacity="1" fill-rule="nonzero"/></g></g></g></g><g clip-path="url(#166c1e1c20)"><g clip-path="url(#446af94cb9)"><g clip-path="url(#649a99a144)"><path fill="#ffffff" d="M 563.167969 359.042969 C 562.28125 358.636719 561.199219 358.949219 560.796875 359.863281 C 560.625 360.261719 560.570312 360.714844 560.496094 361.136719 C 560.410156 361.632812 560.328125 362.128906 560.242188 362.621094 C 560.078125 363.566406 559.917969 364.511719 559.695312 365.445312 C 559.640625 365.667969 559.59375 365.886719 559.546875 366.113281 L 559.46875 366.308594 C 559.15625 367.054688 558.84375 367.785156 558.398438 368.46875 C 557.949219 369.148438 557.398438 369.710938 556.832031 370.285156 C 555.691406 371.4375 554.632812 372.921875 555.164062 374.625 C 555.636719 376.132812 557.230469 376.492188 558.574219 376 C 560.015625 375.476562 561.148438 374.1875 562.0625 373.003906 C 563.0625 371.710938 563.828125 370.292969 564.367188 368.75 C 564.945312 367.132812 565.21875 365.460938 565.1875 363.742188 C 565.164062 362.808594 565.003906 361.898438 564.695312 361.015625 C 564.421875 360.214844 563.964844 359.410156 563.167969 359.042969 Z M 563.167969 359.042969 " fill-opacity="1" fill-rule="nonzero"/></g></g></g><g clip-path="url(#b324e4a757)"><g clip-path="url(#76e8880884)"><g clip-path="url(#bf6628a265)"><path fill="#ffffff" d="M 563.851562 344.1875 L 566.941406 348.367188 L 562.757812 351.457031 L 559.667969 347.273438 Z M 563.851562 344.1875 " fill-opacity="1" fill-rule="nonzero"/></g></g></g><g clip-path="url(#654cdf16fa)"><g clip-path="url(#0edc56e1fc)"><g clip-path="url(#8909fd3e65)"><path fill="#ffffff" d="M 263.273438 359.042969 C 262.390625 358.636719 261.308594 358.949219 260.90625 359.863281 C 260.730469 360.261719 260.679688 360.714844 260.605469 361.136719 C 260.519531 361.632812 260.4375 362.128906 260.351562 362.621094 C 260.183594 363.566406 260.023438 364.511719 259.800781 365.445312 C 259.75 365.667969 259.699219 365.886719 259.65625 366.113281 L 259.574219 366.308594 C 259.265625 367.054688 258.953125 367.785156 258.503906 368.46875 C 258.058594 369.148438 257.503906 369.710938 256.9375 370.285156 C 255.800781 371.4375 254.742188 372.921875 255.273438 374.625 C 255.742188 376.132812 257.335938 376.492188 258.683594 376 C 260.121094 375.476562 261.257812 374.1875 262.171875 373.003906 C 263.171875 371.710938 263.9375 370.292969 264.472656 368.75 C 265.050781 367.132812 265.324219 365.460938 265.292969 363.742188 C 265.273438 362.808594 265.109375 361.898438 264.804688 361.015625 C 264.527344 360.214844 264.074219 359.410156 263.273438 359.042969 Z M 263.273438 359.042969 " fill-opacity="1" fill-rule="nonzero"/></g></g></g><g clip-path="url(#4550970090)"><g clip-path="url(#f54e736af9)"><g clip-path="url(#d8532a6477)"><path fill="#ffffff" d="M 263.957031 344.1875 L 267.046875 348.367188 L 262.863281 351.457031 L 259.777344 347.273438 Z M 263.957031 344.1875 " fill-opacity="1" fill-rule="nonzero"/></g></g></g></svg>