<svg xmlns="http://www.w3.org/2000/svg" xmlns:xlink="http://www.w3.org/1999/xlink" width="200" zoomAndPan="magnify" viewBox="0 0 150 149.999998" height="200" preserveAspectRatio="xMidYMid meet" version="1.0"><defs><filter x="0%" y="0%" width="100%" height="100%" id="82305cb52e"><feColorMatrix values="0 0 0 0 1 0 0 0 0 1 0 0 0 0 1 0 0 0 1 0" color-interpolation-filters="sRGB"/></filter><clipPath id="3012767347"><path d="M 29.871094 32.03125 L 124.589844 32.03125 L 124.589844 122.507812 L 29.871094 122.507812 Z M 29.871094 32.03125 " clip-rule="nonzero"/></clipPath><clipPath id="f26c9851aa"><path d="M 77.140625 32.03125 C 51.035156 32.03125 29.871094 52.285156 29.871094 77.269531 C 29.871094 102.253906 51.035156 122.507812 77.140625 122.507812 C 103.25 122.507812 124.414062 102.253906 124.414062 77.269531 C 124.414062 52.285156 103.25 32.03125 77.140625 32.03125 Z M 77.140625 32.03125 " clip-rule="nonzero"/></clipPath><clipPath id="b172b17b20"><path d="M 126 71 L 142 71 L 142 86 L 126 86 Z M 126 71 " clip-rule="nonzero"/></clipPath><clipPath id="f9c639e3e2"><path d="M 124.414062 76.078125 L 138.695312 69.261719 L 144.167969 80.722656 L 129.886719 87.539062 Z M 124.414062 76.078125 " clip-rule="nonzero"/></clipPath><clipPath id="e5c6d360cb"><path d="M 131.542969 72.675781 C 127.605469 74.558594 125.640625 78.644531 127.148438 81.808594 C 128.660156 84.976562 133.078125 86.015625 137.011719 84.136719 C 140.949219 82.257812 142.914062 78.171875 141.402344 75.003906 C 139.894531 71.839844 135.476562 70.796875 131.542969 72.675781 Z M 131.542969 72.675781 " clip-rule="nonzero"/></clipPath><clipPath id="309a4f4d82"><path d="M 85 122 L 108 122 L 108 138 L 85 138 Z M 85 122 " clip-rule="nonzero"/></clipPath><clipPath id="ce4e1e06be"><path d="M 109.042969 134.152344 L 88.035156 140.34375 L 83.910156 126.339844 L 104.914062 120.148438 Z M 109.042969 134.152344 " clip-rule="nonzero"/></clipPath><clipPath id="f87ac9f0e2"><path d="M 98.5625 137.242188 C 104.347656 135.535156 108.117188 131.019531 106.976562 127.152344 C 105.839844 123.285156 100.222656 121.53125 94.4375 123.238281 C 88.648438 124.941406 84.878906 129.460938 86.019531 133.328125 C 87.160156 137.191406 92.773438 138.945312 98.5625 137.242188 Z M 98.5625 137.242188 " clip-rule="nonzero"/></clipPath><clipPath id="66be2f9208"><path d="M 91 122 L 114 122 L 114 138 L 91 138 Z M 91 122 " clip-rule="nonzero"/></clipPath><clipPath id="62a83cc8ad"><path d="M 111.226562 139.878906 L 89.921875 134.796875 L 93.3125 120.597656 L 114.613281 125.675781 Z M 111.226562 139.878906 " clip-rule="nonzero"/></clipPath><clipPath id="b6ecb995c1"><path d="M 100.597656 137.34375 C 106.46875 138.742188 111.984375 136.699219 112.917969 132.777344 C 113.855469 128.855469 109.855469 124.542969 103.984375 123.144531 C 98.117188 121.742188 92.601562 123.789062 91.664062 127.710938 C 90.730469 131.628906 94.730469 135.945312 100.597656 137.34375 Z M 100.597656 137.34375 " clip-rule="nonzero"/></clipPath><clipPath id="3c5eb94412"><path d="M 42 122 L 65 122 L 65 139 L 42 139 Z M 42 122 " clip-rule="nonzero"/></clipPath><clipPath id="b83b99baba"><path d="M 66.09375 134.636719 L 44.960938 140.382812 L 41.128906 126.292969 L 62.261719 120.550781 Z M 66.09375 134.636719 " clip-rule="nonzero"/></clipPath><clipPath id="68e427942e"><path d="M 55.550781 137.503906 C 61.371094 135.921875 65.234375 131.484375 64.175781 127.59375 C 63.121094 123.703125 57.542969 121.832031 51.71875 123.414062 C 45.898438 125 42.035156 129.433594 43.09375 133.324219 C 44.152344 137.214844 49.726562 139.085938 55.550781 137.503906 Z M 55.550781 137.503906 " clip-rule="nonzero"/></clipPath><clipPath id="76c5873500"><path d="M 48 123 L 71 123 L 71 139 L 48 139 Z M 48 123 " clip-rule="nonzero"/></clipPath><clipPath id="28fcf920dc"><path d="M 68.15625 140.40625 L 46.964844 134.878906 L 50.648438 120.753906 L 71.839844 126.28125 Z M 68.15625 140.40625 " clip-rule="nonzero"/></clipPath><clipPath id="9b84c36e2b"><path d="M 57.582031 137.648438 C 63.421875 139.171875 68.980469 137.246094 69.996094 133.34375 C 71.015625 129.441406 67.105469 125.046875 61.269531 123.523438 C 55.429688 122 49.875 123.925781 48.855469 127.828125 C 47.839844 131.730469 51.746094 136.125 57.582031 137.648438 Z M 57.582031 137.648438 " clip-rule="nonzero"/></clipPath><clipPath id="f9ad5833e1"><path d="M 45.527344 63.335938 L 110.382812 63.335938 L 110.382812 118.496094 L 45.527344 118.496094 Z M 45.527344 63.335938 " clip-rule="nonzero"/></clipPath><clipPath id="2d0e36f0b4"><path d="M 77.886719 63.335938 C 60.015625 63.335938 45.527344 75.683594 45.527344 90.917969 C 45.527344 106.148438 60.015625 118.496094 77.886719 118.496094 C 95.757812 118.496094 110.246094 106.148438 110.246094 90.917969 C 110.246094 75.683594 95.757812 63.335938 77.886719 63.335938 Z M 77.886719 63.335938 " clip-rule="nonzero"/></clipPath><clipPath id="2666b66cef"><path d="M 53.046875 49.402344 L 74.785156 49.402344 L 74.785156 77.34375 L 53.046875 77.34375 Z M 53.046875 49.402344 " clip-rule="nonzero"/></clipPath><clipPath id="d154b5adb1"><path d="M 63.917969 49.402344 C 66.800781 49.402344 69.566406 50.550781 71.601562 52.589844 C 73.640625 54.625 74.785156 57.390625 74.785156 60.273438 L 74.785156 66.398438 C 74.785156 69.28125 73.640625 72.046875 71.601562 74.085938 C 69.566406 76.125 66.800781 77.269531 63.917969 77.269531 C 61.035156 77.269531 58.269531 76.125 56.230469 74.085938 C 54.191406 72.046875 53.046875 69.28125 53.046875 66.398438 L 53.046875 60.273438 C 53.046875 57.390625 54.191406 54.625 56.230469 52.589844 C 58.269531 50.550781 61.035156 49.402344 63.917969 49.402344 Z M 63.917969 49.402344 " clip-rule="nonzero"/></clipPath><clipPath id="13fa561857"><path d="M 79.496094 49.402344 L 101.238281 49.402344 L 101.238281 77.34375 L 79.496094 77.34375 Z M 79.496094 49.402344 " clip-rule="nonzero"/></clipPath><clipPath id="192fefffed"><path d="M 90.367188 49.402344 C 93.25 49.402344 96.015625 50.550781 98.054688 52.589844 C 100.09375 54.625 101.238281 57.390625 101.238281 60.273438 L 101.238281 66.398438 C 101.238281 69.28125 100.09375 72.046875 98.054688 74.085938 C 96.015625 76.125 93.25 77.269531 90.367188 77.269531 C 87.484375 77.269531 84.71875 76.125 82.679688 74.085938 C 80.640625 72.046875 79.496094 69.28125 79.496094 66.398438 L 79.496094 60.273438 C 79.496094 57.390625 80.640625 54.625 82.679688 52.589844 C 84.71875 50.550781 87.484375 49.402344 90.367188 49.402344 Z M 90.367188 49.402344 " clip-rule="nonzero"/></clipPath><clipPath id="e4decaaef6"><path d="M 84.152344 55.070312 L 96.582031 55.070312 L 96.582031 72.261719 L 84.152344 72.261719 Z M 84.152344 55.070312 " clip-rule="nonzero"/></clipPath><clipPath id="a4257d4a42"><path d="M 90.367188 55.070312 C 92.015625 55.070312 93.597656 55.726562 94.761719 56.890625 C 95.929688 58.058594 96.582031 59.636719 96.582031 61.285156 L 96.582031 66 C 96.582031 67.648438 95.929688 69.230469 94.761719 70.398438 C 93.597656 71.5625 92.015625 72.21875 90.367188 72.21875 C 88.71875 72.21875 87.136719 71.5625 85.972656 70.398438 C 84.808594 69.230469 84.152344 67.648438 84.152344 66 L 84.152344 61.285156 C 84.152344 59.636719 84.808594 58.058594 85.972656 56.890625 C 87.136719 55.726562 88.71875 55.070312 90.367188 55.070312 Z M 90.367188 55.070312 " clip-rule="nonzero"/></clipPath><clipPath id="876acd5d06"><path d="M 89.382812 55.070312 L 94.914062 55.070312 L 94.914062 61.402344 L 89.382812 61.402344 Z M 89.382812 55.070312 " clip-rule="nonzero"/></clipPath><clipPath id="b7ece1f4d9"><path d="M 92.148438 55.070312 C 93.675781 55.070312 94.914062 56.308594 94.914062 57.839844 L 94.914062 58.636719 C 94.914062 60.164062 93.675781 61.402344 92.148438 61.402344 C 90.621094 61.402344 89.382812 60.164062 89.382812 58.636719 L 89.382812 57.839844 C 89.382812 56.308594 90.621094 55.070312 92.148438 55.070312 Z M 92.148438 55.070312 " clip-rule="nonzero"/></clipPath><clipPath id="8dd2e20aee"><path d="M 57.304688 54.765625 L 69.734375 54.765625 L 69.734375 71.953125 L 57.304688 71.953125 Z M 57.304688 54.765625 " clip-rule="nonzero"/></clipPath><clipPath id="3b9d0272f1"><path d="M 63.519531 54.765625 C 65.167969 54.765625 66.75 55.417969 67.914062 56.585938 C 69.078125 57.75 69.734375 59.332031 69.734375 60.980469 L 69.734375 65.695312 C 69.734375 67.34375 69.078125 68.925781 67.914062 70.089844 C 66.75 71.253906 65.167969 71.910156 63.519531 71.910156 C 61.871094 71.910156 60.289062 71.253906 59.125 70.089844 C 57.957031 68.925781 57.304688 67.34375 57.304688 65.695312 L 57.304688 60.980469 C 57.304688 59.332031 57.957031 57.75 59.125 56.585938 C 60.289062 55.417969 61.871094 54.765625 63.519531 54.765625 Z M 63.519531 54.765625 " clip-rule="nonzero"/></clipPath><clipPath id="dfb9fc7648"><path d="M 63.078125 54.765625 L 68.609375 54.765625 L 68.609375 61.097656 L 63.078125 61.097656 Z M 63.078125 54.765625 " clip-rule="nonzero"/></clipPath><clipPath id="b034274184"><path d="M 65.84375 54.765625 C 67.371094 54.765625 68.609375 56.003906 68.609375 57.53125 L 68.609375 58.328125 C 68.609375 59.855469 67.371094 61.09375 65.84375 61.09375 C 64.316406 61.09375 63.078125 59.855469 63.078125 58.328125 L 63.078125 57.53125 C 63.078125 56.003906 64.316406 54.765625 65.84375 54.765625 Z M 65.84375 54.765625 " clip-rule="nonzero"/></clipPath><clipPath id="955a70200f"><path d="M 69 78.019531 L 85.332031 78.019531 L 85.332031 85.214844 L 69 85.214844 Z M 69 78.019531 " clip-rule="nonzero"/></clipPath><clipPath id="089e0e21bc"><path d="M 66.761719 69.277344 L 87.597656 69.277344 L 87.597656 79.410156 L 66.761719 79.410156 Z M 66.761719 69.277344 " clip-rule="nonzero"/></clipPath><clipPath id="fabeac5bbb"><path d="M 79.835938 71.214844 L 83.816406 71.214844 L 83.816406 74.523438 L 79.835938 74.523438 Z M 79.835938 71.214844 " clip-rule="nonzero"/></clipPath><clipPath id="658ac295b0"><path d="M 80.820312 71.25 C 82.1875 71.859375 82.742188 72.234375 83.082031 72.550781 C 83.355469 72.804688 83.621094 73.132812 83.726562 73.328125 C 83.78125 73.429688 83.792969 73.496094 83.804688 73.585938 C 83.8125 73.671875 83.808594 73.761719 83.789062 73.847656 C 83.769531 73.933594 83.742188 74.023438 83.699219 74.097656 C 83.65625 74.175781 83.597656 74.242188 83.53125 74.300781 C 83.460938 74.359375 83.386719 74.40625 83.304688 74.441406 C 83.222656 74.472656 83.132812 74.496094 83.042969 74.503906 C 82.957031 74.507812 82.867188 74.503906 82.78125 74.476562 C 82.699219 74.453125 82.613281 74.421875 82.539062 74.371094 C 82.46875 74.324219 82.394531 74.257812 82.34375 74.191406 C 82.289062 74.121094 82.246094 74.039062 82.21875 73.960938 C 82.1875 73.878906 82.171875 73.785156 82.171875 73.699219 C 82.171875 73.613281 82.179688 73.515625 82.207031 73.433594 C 82.238281 73.355469 82.277344 73.265625 82.328125 73.199219 C 82.382812 73.128906 82.449219 73.066406 82.519531 73.015625 C 82.59375 72.96875 82.675781 72.925781 82.757812 72.902344 C 82.839844 72.878906 82.933594 72.863281 83.019531 72.867188 C 83.105469 72.875 83.199219 72.890625 83.28125 72.921875 C 83.363281 72.953125 83.445312 73 83.511719 73.054688 C 83.578125 73.109375 83.640625 73.179688 83.683594 73.253906 C 83.730469 73.324219 83.765625 73.410156 83.785156 73.496094 C 83.804688 73.585938 83.8125 73.675781 83.804688 73.761719 C 83.792969 73.847656 83.769531 73.941406 83.738281 74.015625 C 83.703125 74.097656 83.648438 74.175781 83.59375 74.238281 C 83.535156 74.300781 83.460938 74.359375 83.386719 74.402344 C 83.308594 74.445312 83.222656 74.476562 83.136719 74.492188 C 83.050781 74.507812 82.957031 74.511719 82.871094 74.496094 C 82.785156 74.484375 82.695312 74.453125 82.617188 74.414062 C 82.539062 74.378906 82.480469 74.332031 82.40625 74.257812 C 82.28125 74.132812 82.164062 73.902344 81.964844 73.710938 C 81.660156 73.421875 81.003906 72.953125 80.675781 72.785156 C 80.496094 72.695312 80.34375 72.691406 80.238281 72.632812 C 80.171875 72.597656 80.132812 72.566406 80.089844 72.523438 C 80.046875 72.480469 80.007812 72.445312 79.972656 72.382812 C 79.925781 72.296875 79.867188 72.15625 79.859375 72.042969 C 79.847656 71.925781 79.882812 71.773438 79.917969 71.679688 C 79.941406 71.613281 79.964844 71.574219 80.007812 71.523438 C 80.070312 71.445312 80.199219 71.34375 80.285156 71.296875 C 80.347656 71.261719 80.390625 71.246094 80.460938 71.234375 C 80.554688 71.21875 80.820312 71.25 80.820312 71.25 " clip-rule="nonzero"/></clipPath><clipPath id="4047df9085"><path d="M 83.640625 75.472656 L 85.105469 75.472656 L 85.105469 76.984375 L 83.640625 76.984375 Z M 83.640625 75.472656 " clip-rule="nonzero"/></clipPath><clipPath id="b4db3674ef"><path d="M 85.105469 76.011719 C 85.105469 76.476562 85.054688 76.597656 84.980469 76.6875 C 84.910156 76.78125 84.808594 76.863281 84.703125 76.910156 C 84.597656 76.957031 84.464844 76.976562 84.351562 76.972656 C 84.234375 76.96875 84.109375 76.925781 84.011719 76.867188 C 83.910156 76.808594 83.8125 76.710938 83.753906 76.617188 C 83.691406 76.515625 83.65625 76.390625 83.648438 76.277344 C 83.644531 76.160156 83.667969 76.03125 83.71875 75.925781 C 83.765625 75.820312 83.84375 75.71875 83.933594 75.644531 C 84.023438 75.574219 84.144531 75.515625 84.261719 75.496094 C 84.375 75.476562 84.503906 75.488281 84.617188 75.519531 C 84.726562 75.554688 84.921875 75.703125 84.921875 75.703125 " clip-rule="nonzero"/></clipPath><clipPath id="289cbc31b9"><path d="M 76 18.242188 L 84 18.242188 L 84 26.6875 L 76 26.6875 Z M 76 18.242188 " clip-rule="nonzero"/></clipPath><clipPath id="1f4357ea78"><path d="M 70.144531 20 L 76 20 L 76 26.6875 L 70.144531 26.6875 Z M 70.144531 20 " clip-rule="nonzero"/></clipPath><clipPath id="a9ddc7e7da"><path d="M 12 71 L 28 71 L 28 85 L 12 85 Z M 12 71 " clip-rule="nonzero"/></clipPath><clipPath id="8c8bc7adec"><path d="M 14.996094 69.601562 L 29.710938 75.425781 L 25.039062 87.234375 L 10.324219 81.410156 Z M 14.996094 69.601562 " clip-rule="nonzero"/></clipPath><clipPath id="04c14f6452"><path d="M 22.339844 72.507812 C 18.285156 70.902344 13.953125 72.246094 12.660156 75.507812 C 11.371094 78.769531 13.613281 82.710938 17.667969 84.316406 C 21.722656 85.921875 26.058594 84.578125 27.347656 81.316406 C 28.640625 78.058594 26.398438 74.113281 22.339844 72.507812 Z M 22.339844 72.507812 " clip-rule="nonzero"/></clipPath><clipPath id="116f0b80a3"><path d="M 6 11.402344 L 32.917969 11.402344 L 32.917969 132 L 6 132 Z M 6 11.402344 " clip-rule="nonzero"/></clipPath><mask id="b697958468"><g filter="url(#82305cb52e)"><rect x="-15" width="180" fill="#000000" y="-15" height="179.999997" fill-opacity="0.3"/></g></mask><clipPath id="46e6d5f8bb"><path d="M 1 0.398438 L 10.71875 0.398438 L 10.71875 26.558594 L 1 26.558594 Z M 1 0.398438 " clip-rule="nonzero"/></clipPath><clipPath id="f67d547419"><rect x="0" width="11" y="0" height="27"/></clipPath><clipPath id="de5e77fe0b"><path d="M 125 11.402344 L 144 11.402344 L 144 132 L 125 132 Z M 125 11.402344 " clip-rule="nonzero"/></clipPath><mask id="9c5ad627d6"><g filter="url(#82305cb52e)"><rect x="-15" width="180" fill="#000000" y="-15" height="179.999997" fill-opacity="0.3"/></g></mask><clipPath id="07f32f3a89"><path d="M 0.199219 1 L 0.679688 1 L 0.679688 1.960938 L 0.199219 1.960938 Z M 0.199219 1 " clip-rule="nonzero"/></clipPath><clipPath id="45941c620e"><rect x="0" width="1" y="0" height="2"/></clipPath><mask id="655abd6a48"><g filter="url(#82305cb52e)"><rect x="-15" width="180" fill="#000000" y="-15" height="179.999997" fill-opacity="0.3"/></g></mask><clipPath id="c578dadead"><path d="M 0.078125 0.398438 L 9.679688 0.398438 L 9.679688 26.558594 L 0.078125 26.558594 Z M 0.078125 0.398438 " clip-rule="nonzero"/></clipPath><clipPath id="0a40df9537"><rect x="0" width="10" y="0" height="27"/></clipPath><clipPath id="b7a4d394be"><path d="M 137 46 L 142 46 L 142 53 L 137 53 Z M 137 46 " clip-rule="nonzero"/></clipPath><clipPath id="1b53f96941"><path d="M 136.03125 48.066406 L 140.925781 45.898438 L 143.203125 51.050781 L 138.3125 53.214844 Z M 136.03125 48.066406 " clip-rule="nonzero"/></clipPath><clipPath id="dd49a1b2cf"><path d="M 136.03125 48.066406 L 140.925781 45.898438 L 143.203125 51.050781 L 138.3125 53.214844 Z M 136.03125 48.066406 " clip-rule="nonzero"/></clipPath><clipPath id="eb6884d856"><path d="M 139 41 L 142 41 L 142 44 L 139 44 Z M 139 41 " clip-rule="nonzero"/></clipPath><clipPath id="a777949a7e"><path d="M 141.167969 40.691406 L 142.328125 42.261719 L 140.757812 43.417969 L 139.597656 41.847656 Z M 141.167969 40.691406 " clip-rule="nonzero"/></clipPath><clipPath id="3f99a6a794"><path d="M 141.75 41.476562 C 141.429688 41.042969 140.816406 40.949219 140.382812 41.269531 C 139.949219 41.589844 139.859375 42.199219 140.179688 42.632812 C 140.5 43.066406 141.109375 43.160156 141.542969 42.839844 C 141.976562 42.519531 142.066406 41.910156 141.75 41.476562 Z M 141.75 41.476562 " clip-rule="nonzero"/></clipPath><clipPath id="f7213e3722"><path d="M 25 46 L 30 46 L 30 53 L 25 53 Z M 25 46 " clip-rule="nonzero"/></clipPath><clipPath id="8a55ff143e"><path d="M 23.453125 48.066406 L 28.34375 45.898438 L 30.625 51.050781 L 25.730469 53.214844 Z M 23.453125 48.066406 " clip-rule="nonzero"/></clipPath><clipPath id="1ea1023ae2"><path d="M 23.453125 48.066406 L 28.34375 45.898438 L 30.625 51.050781 L 25.730469 53.214844 Z M 23.453125 48.066406 " clip-rule="nonzero"/></clipPath><clipPath id="615b19e67b"><path d="M 27 41 L 30 41 L 30 44 L 27 44 Z M 27 41 " clip-rule="nonzero"/></clipPath><clipPath id="5483d86685"><path d="M 28.589844 40.691406 L 29.75 42.261719 L 28.179688 43.417969 L 27.019531 41.847656 Z M 28.589844 40.691406 " clip-rule="nonzero"/></clipPath><clipPath id="a7eb8414ab"><path d="M 29.167969 41.476562 C 28.847656 41.042969 28.238281 40.949219 27.804688 41.269531 C 27.371094 41.589844 27.277344 42.199219 27.597656 42.632812 C 27.917969 43.066406 28.53125 43.160156 28.964844 42.839844 C 29.398438 42.519531 29.488281 41.910156 29.167969 41.476562 Z M 29.167969 41.476562 " clip-rule="nonzero"/></clipPath></defs><g clip-path="url(#3012767347)"><g clip-path="url(#f26c9851aa)"><path fill="#f8c038" d="M 29.871094 32.03125 L 124.238281 32.03125 L 124.238281 122.507812 L 29.871094 122.507812 Z M 29.871094 32.03125 " fill-opacity="1" fill-rule="nonzero"/></g></g><g clip-path="url(#b172b17b20)"><g clip-path="url(#f9c639e3e2)"><g clip-path="url(#e5c6d360cb)"><path fill="#f8c038" d="M 124.414062 76.078125 L 138.652344 69.285156 L 144.121094 80.746094 L 129.886719 87.539062 Z M 124.414062 76.078125 " fill-opacity="1" fill-rule="nonzero"/></g></g></g><g clip-path="url(#309a4f4d82)"><g clip-path="url(#ce4e1e06be)"><g clip-path="url(#f87ac9f0e2)"><path fill="#f09020" d="M 109.042969 134.152344 L 88.089844 140.324219 L 83.964844 126.320312 L 104.914062 120.148438 Z M 109.042969 134.152344 " fill-opacity="1" fill-rule="nonzero"/></g></g></g><g clip-path="url(#66be2f9208)"><g clip-path="url(#62a83cc8ad)"><g clip-path="url(#b6ecb995c1)"><path fill="#f09020" d="M 111.226562 139.878906 L 89.980469 134.8125 L 93.367188 120.609375 L 114.613281 125.675781 Z M 111.226562 139.878906 " fill-opacity="1" fill-rule="nonzero"/></g></g></g><g clip-path="url(#3c5eb94412)"><g clip-path="url(#b83b99baba)"><g clip-path="url(#68e427942e)"><path fill="#f09020" d="M 66.09375 134.636719 L 45.015625 140.367188 L 41.1875 126.28125 L 62.261719 120.550781 Z M 66.09375 134.636719 " fill-opacity="1" fill-rule="nonzero"/></g></g></g><g clip-path="url(#76c5873500)"><g clip-path="url(#28fcf920dc)"><g clip-path="url(#9b84c36e2b)"><path fill="#f09020" d="M 68.15625 140.40625 L 47.019531 134.894531 L 50.707031 120.765625 L 71.839844 126.28125 Z M 68.15625 140.40625 " fill-opacity="1" fill-rule="nonzero"/></g></g></g><g clip-path="url(#f9ad5833e1)"><g clip-path="url(#2d0e36f0b4)"><path fill="#fddc66" d="M 45.527344 63.335938 L 110.167969 63.335938 L 110.167969 118.496094 L 45.527344 118.496094 Z M 45.527344 63.335938 " fill-opacity="1" fill-rule="nonzero"/></g></g><g clip-path="url(#2666b66cef)"><g clip-path="url(#d154b5adb1)"><path fill="#ffffff" d="M 53.046875 49.402344 L 74.785156 49.402344 L 74.785156 77.257812 L 53.046875 77.257812 Z M 53.046875 49.402344 " fill-opacity="1" fill-rule="nonzero"/></g></g><g clip-path="url(#13fa561857)"><g clip-path="url(#192fefffed)"><path fill="#ffffff" d="M 79.496094 49.402344 L 101.238281 49.402344 L 101.238281 77.257812 L 79.496094 77.257812 Z M 79.496094 49.402344 " fill-opacity="1" fill-rule="nonzero"/></g></g><g clip-path="url(#e4decaaef6)"><g clip-path="url(#a4257d4a42)"><path fill="#4b4b4b" d="M 84.152344 55.070312 L 96.582031 55.070312 L 96.582031 72.210938 L 84.152344 72.210938 Z M 84.152344 55.070312 " fill-opacity="1" fill-rule="nonzero"/></g></g><g clip-path="url(#876acd5d06)"><g clip-path="url(#b7ece1f4d9)"><path fill="#ffffff" d="M 89.382812 55.070312 L 94.914062 55.070312 L 94.914062 61.402344 L 89.382812 61.402344 Z M 89.382812 55.070312 " fill-opacity="1" fill-rule="nonzero"/></g></g><g clip-path="url(#8dd2e20aee)"><g clip-path="url(#3b9d0272f1)"><path fill="#4b4b4b" d="M 57.304688 54.765625 L 69.734375 54.765625 L 69.734375 71.90625 L 57.304688 71.90625 Z M 57.304688 54.765625 " fill-opacity="1" fill-rule="nonzero"/></g></g><g clip-path="url(#dfb9fc7648)"><g clip-path="url(#b034274184)"><path fill="#ffffff" d="M 63.078125 54.765625 L 68.609375 54.765625 L 68.609375 61.097656 L 63.078125 61.097656 Z M 63.078125 54.765625 " fill-opacity="1" fill-rule="nonzero"/></g></g><g clip-path="url(#955a70200f)"><path fill="#f86018" d="M 85.375 77.074219 C 85.375 77.613281 85.324219 78.144531 85.21875 78.671875 C 85.113281 79.199219 84.957031 79.710938 84.753906 80.207031 C 84.546875 80.703125 84.292969 81.175781 83.996094 81.621094 C 83.695312 82.070312 83.359375 82.484375 82.976562 82.863281 C 82.597656 83.242188 82.183594 83.582031 81.738281 83.882812 C 81.289062 84.179688 80.816406 84.433594 80.320312 84.636719 C 79.824219 84.84375 79.3125 85 78.785156 85.101562 C 78.257812 85.207031 77.726562 85.261719 77.1875 85.261719 C 76.652344 85.261719 76.117188 85.207031 75.589844 85.101562 C 75.0625 85 74.550781 84.84375 74.054688 84.636719 C 73.558594 84.433594 73.085938 84.179688 72.640625 83.882812 C 72.191406 83.582031 71.78125 83.242188 71.398438 82.863281 C 71.019531 82.484375 70.679688 82.070312 70.382812 81.621094 C 70.082031 81.175781 69.832031 80.703125 69.625 80.207031 C 69.417969 79.710938 69.265625 79.199219 69.160156 78.671875 C 69.054688 78.144531 69 77.613281 69 77.074219 C 69 76.535156 69.054688 76.003906 69.160156 75.476562 C 69.265625 74.949219 69.417969 74.4375 69.625 73.941406 C 69.832031 73.445312 70.082031 72.972656 70.382812 72.523438 C 70.679688 72.078125 71.019531 71.664062 71.398438 71.285156 C 71.78125 70.90625 72.191406 70.566406 72.640625 70.265625 C 73.085938 69.96875 73.558594 69.714844 74.054688 69.511719 C 74.550781 69.304688 75.0625 69.148438 75.589844 69.042969 C 76.117188 68.9375 76.652344 68.886719 77.1875 68.886719 C 77.726562 68.886719 78.257812 68.9375 78.785156 69.042969 C 79.3125 69.148438 79.824219 69.304688 80.320312 69.511719 C 80.816406 69.714844 81.289062 69.96875 81.738281 70.265625 C 82.183594 70.566406 82.597656 70.90625 82.976562 71.285156 C 83.359375 71.664062 83.695312 72.078125 83.996094 72.523438 C 84.292969 72.972656 84.546875 73.445312 84.753906 73.941406 C 84.957031 74.4375 85.113281 74.949219 85.21875 75.476562 C 85.324219 76.003906 85.375 76.535156 85.375 77.074219 Z M 85.375 77.074219 " fill-opacity="1" fill-rule="nonzero"/></g><g clip-path="url(#089e0e21bc)"><path fill="#f09020" d="M 87.519531 79.652344 C 87.519531 80.335938 87.453125 81.007812 87.320312 81.679688 C 87.1875 82.347656 86.988281 82.996094 86.726562 83.625 C 86.46875 84.253906 86.148438 84.851562 85.769531 85.417969 C 85.390625 85.984375 84.960938 86.511719 84.480469 86.992188 C 83.996094 87.472656 83.472656 87.902344 82.90625 88.28125 C 82.339844 88.660156 81.742188 88.980469 81.113281 89.242188 C 80.480469 89.503906 79.832031 89.699219 79.164062 89.832031 C 78.496094 89.964844 77.820312 90.03125 77.140625 90.03125 C 76.457031 90.03125 75.785156 89.964844 75.117188 89.832031 C 74.449219 89.699219 73.796875 89.503906 73.167969 89.242188 C 72.539062 88.980469 71.941406 88.660156 71.375 88.28125 C 70.808594 87.902344 70.285156 87.472656 69.800781 86.992188 C 69.320312 86.511719 68.890625 85.984375 68.511719 85.417969 C 68.132812 84.851562 67.8125 84.253906 67.550781 83.625 C 67.292969 82.996094 67.09375 82.347656 66.960938 81.679688 C 66.828125 81.007812 66.761719 80.335938 66.761719 79.652344 C 66.761719 78.972656 66.828125 78.296875 66.960938 77.628906 C 67.09375 76.960938 67.292969 76.3125 67.550781 75.683594 C 67.8125 75.050781 68.132812 74.453125 68.511719 73.886719 C 68.890625 73.320312 69.320312 72.796875 69.800781 72.316406 C 70.285156 71.832031 70.808594 71.402344 71.375 71.023438 C 71.941406 70.644531 72.539062 70.328125 73.167969 70.066406 C 73.796875 69.804688 74.449219 69.609375 75.117188 69.476562 C 75.785156 69.34375 76.457031 69.277344 77.140625 69.277344 C 77.820312 69.277344 78.496094 69.34375 79.164062 69.476562 C 79.832031 69.609375 80.480469 69.804688 81.113281 70.066406 C 81.742188 70.328125 82.339844 70.644531 82.90625 71.023438 C 83.472656 71.402344 83.996094 71.832031 84.480469 72.316406 C 84.960938 72.796875 85.390625 73.320312 85.769531 73.886719 C 86.148438 74.453125 86.46875 75.050781 86.726562 75.683594 C 86.988281 76.3125 87.1875 76.960938 87.320312 77.628906 C 87.453125 78.296875 87.519531 78.972656 87.519531 79.652344 Z M 87.519531 79.652344 " fill-opacity="1" fill-rule="nonzero"/></g><g clip-path="url(#fabeac5bbb)"><g clip-path="url(#658ac295b0)"><path fill="#ffffff" d="M 79.667969 71.042969 L 83.988281 71.042969 L 83.988281 74.695312 L 79.667969 74.695312 Z M 79.667969 71.042969 " fill-opacity="1" fill-rule="nonzero"/></g></g><g clip-path="url(#4047df9085)"><g clip-path="url(#b4db3674ef)"><path fill="#ffffff" d="M 83.457031 75.304688 L 85.316406 75.304688 L 85.316406 77.164062 L 83.457031 77.164062 Z M 83.457031 75.304688 " fill-opacity="1" fill-rule="nonzero"/></g></g><path stroke-linecap="round" transform="matrix(-0.28155, -0.000000000491397, 0.000000000491397, -0.28155, 71.840212, 77.551476)" fill="none" stroke-linejoin="miter" d="M 1.000244 1.001402 L 11.433563 1.001402 " stroke="#c8831a" stroke-width="2" stroke-opacity="1" stroke-miterlimit="4"/><path stroke-linecap="round" transform="matrix(-0.28155, -0.000000000491397, 0.000000000491397, -0.28155, 71.839377, 75.594394)" fill="none" stroke-linejoin="miter" d="M 0.997277 1.001221 L 6.879893 1.001221 " stroke="#c8831a" stroke-width="2" stroke-opacity="1" stroke-miterlimit="4"/><path stroke-linecap="round" transform="matrix(-0.28155, -0.000000000491397, 0.000000000491397, -0.28155, 71.839713, 73.784522)" fill="none" stroke-linejoin="miter" d="M 0.998471 0.996684 L 3.565178 0.996684 " stroke="#c8831a" stroke-width="2" stroke-opacity="1" stroke-miterlimit="4"/><g clip-path="url(#289cbc31b9)"><path fill="#39b54a" d="M 76.671875 26.214844 C 76.351562 25.480469 75.875 24.054688 76.34375 22.53125 C 77.109375 20.03125 80.121094 18.242188 83.742188 18.472656 C 84.222656 21.523438 83.039062 24.378906 80.804688 25.652344 C 79.300781 26.511719 77.742188 26.410156 77.003906 26.308594 C 77.757812 25.738281 78.609375 25.007812 79.457031 24.082031 C 80.765625 22.652344 81.636719 21.234375 82.214844 20.105469 C 81.386719 21.257812 80.386719 22.5 79.195312 23.769531 C 78.335938 24.6875 77.484375 25.5 76.671875 26.214844 Z M 76.671875 26.214844 " fill-opacity="1" fill-rule="nonzero"/></g><g clip-path="url(#1f4357ea78)"><path fill="#39b54a" d="M 75.707031 26.292969 C 75.140625 26.464844 74.054688 26.6875 72.976562 26.21875 C 71.207031 25.449219 70.148438 23.117188 70.625 20.511719 C 72.90625 20.421875 74.902344 21.523438 75.644531 23.25 C 76.148438 24.414062 75.941406 25.535156 75.804688 26.0625 C 75.449219 25.464844 74.988281 24.789062 74.378906 24.09375 C 73.441406 23.023438 72.476562 22.269531 71.695312 21.753906 C 72.46875 22.457031 73.296875 23.285156 74.128906 24.257812 C 74.726562 24.960938 75.25 25.644531 75.707031 26.292969 Z M 75.707031 26.292969 " fill-opacity="1" fill-rule="nonzero"/></g><g clip-path="url(#a9ddc7e7da)"><g clip-path="url(#8c8bc7adec)"><g clip-path="url(#04c14f6452)"><path fill="#f8c038" d="M 14.996094 69.601562 L 29.667969 75.40625 L 24.992188 87.214844 L 10.324219 81.410156 Z M 14.996094 69.601562 " fill-opacity="1" fill-rule="nonzero"/></g></g></g><g clip-path="url(#116f0b80a3)"><path fill="#a6a6a6" d="M 17.117188 60.414062 C 17.117188 98.03125 11.070312 113.324219 14.542969 126.605469 C 16.199219 132.933594 23.277344 132.1875 24.5 126.605469 C 27.3125 113.738281 22.050781 97.269531 22.050781 60.414062 C 22.050781 56.125 32.773438 56.859375 32.773438 42.195312 C 32.773438 23.84375 25.949219 11.691406 19.445312 11.691406 C 13.375 11.691406 6.785156 25.015625 6.785156 42.195312 C 6.785156 55.964844 17.117188 56.878906 17.117188 60.414062 Z M 17.117188 60.414062 " fill-opacity="1" fill-rule="nonzero"/></g><g mask="url(#b697958468)"><g transform="matrix(1, 0, 0, 1, 14, 104)"><g clip-path="url(#f67d547419)"><g clip-path="url(#46e6d5f8bb)"><path fill="#a6a6a6" d="M 1.425781 22.320312 C 2.023438 25.023438 4.570312 26.925781 7.199219 25.695312 C 10.113281 24.332031 10.53125 19.8125 10.550781 17.363281 C 10.585938 13.023438 10.128906 9.8125 9.609375 5.5625 C 9.445312 4.242188 9.183594 1.78125 8.914062 0.574219 C 8.90625 3.996094 9.441406 7.316406 8.800781 10.722656 C 7.851562 13.925781 8.910156 19.777344 5.84375 21.917969 C 4.328125 22.984375 1.59375 20.878906 1.425781 22.320312 Z M 1.425781 22.320312 " fill-opacity="1" fill-rule="nonzero"/></g></g></g></g><g clip-path="url(#de5e77fe0b)"><path fill="#a6a6a6" d="M 132.210938 61.734375 C 132.210938 67.917969 126.28125 110.910156 129.640625 126.527344 C 131.042969 133.046875 138.375 132.199219 139.59375 126.527344 C 142.695312 112.117188 137.144531 98.855469 137.144531 61.398438 C 137.144531 56.269531 141.101562 56.136719 143.242188 49.519531 C 145.15625 43.613281 142.457031 11.796875 141.585938 11.796875 C 140.59375 11.796875 141.078125 39.347656 139.199219 39.347656 C 137.300781 39.347656 138.261719 12.167969 137.058594 11.796875 C 135.859375 11.421875 136.738281 39.347656 134.519531 39.347656 C 132.277344 39.347656 133.734375 11.796875 132.535156 11.796875 C 131.332031 11.796875 131.671875 39.347656 129.839844 39.347656 C 127.824219 39.347656 128.90625 11.796875 128.007812 11.796875 C 126.476562 11.796875 124.683594 41.71875 125.636719 48.039062 C 126.589844 54.359375 132.210938 55.558594 132.210938 61.738281 Z M 132.210938 61.734375 " fill-opacity="1" fill-rule="nonzero"/></g><g mask="url(#9c5ad627d6)"><g transform="matrix(1, 0, 0, 1, 127, 35)"><g clip-path="url(#45941c620e)"><g clip-path="url(#07f32f3a89)"><path fill="#a6a6a6" d="M 0.632812 1.402344 C 0.621094 1.597656 0.53125 1.734375 0.429688 1.710938 C 0.332031 1.6875 0.261719 1.511719 0.273438 1.316406 C 0.285156 1.121094 0.375 0.984375 0.476562 1.007812 C 0.574219 1.03125 0.644531 1.210938 0.632812 1.402344 Z M 0.632812 1.402344 " fill-opacity="0.777" fill-rule="nonzero"/></g></g></g></g><g mask="url(#655abd6a48)"><g transform="matrix(1, 0, 0, 1, 130, 104)"><g clip-path="url(#0a40df9537)"><g clip-path="url(#c578dadead)"><path fill="#a6a6a6" d="M 0.320312 22.320312 C 0.921875 25.023438 3.46875 26.925781 6.097656 25.695312 C 9.011719 24.328125 9.425781 19.8125 9.449219 17.363281 C 9.484375 13.023438 9.027344 9.8125 8.503906 5.5625 C 8.34375 4.242188 8.078125 1.78125 7.8125 0.570312 C 7.804688 3.996094 8.339844 7.316406 7.699219 10.722656 C 6.75 13.925781 7.804688 19.773438 4.742188 21.917969 C 3.222656 22.984375 0.492188 20.878906 0.324219 22.320312 Z M 0.320312 22.320312 " fill-opacity="1" fill-rule="nonzero"/></g></g></g></g><g clip-path="url(#b7a4d394be)"><g clip-path="url(#1b53f96941)"><g clip-path="url(#dd49a1b2cf)"><path fill="#ffffff" d="M 140.910156 46.265625 C 140.578125 46.113281 140.171875 46.230469 140.023438 46.574219 C 139.957031 46.722656 139.9375 46.894531 139.910156 47.054688 C 139.875 47.238281 139.847656 47.425781 139.8125 47.609375 C 139.753906 47.964844 139.691406 48.320312 139.609375 48.671875 C 139.589844 48.753906 139.570312 48.835938 139.554688 48.921875 L 139.523438 48.992188 C 139.40625 49.273438 139.289062 49.546875 139.121094 49.804688 C 138.953125 50.058594 138.746094 50.269531 138.535156 50.484375 C 138.105469 50.917969 137.707031 51.476562 137.90625 52.117188 C 138.085938 52.683594 138.683594 52.816406 139.1875 52.632812 C 139.730469 52.433594 140.152344 51.949219 140.496094 51.507812 C 140.871094 51.023438 141.160156 50.488281 141.363281 49.910156 C 141.578125 49.304688 141.679688 48.675781 141.667969 48.03125 C 141.660156 47.679688 141.601562 47.339844 141.484375 47.007812 C 141.382812 46.707031 141.210938 46.40625 140.910156 46.265625 Z M 140.910156 46.265625 " fill-opacity="1" fill-rule="nonzero"/></g></g></g><g clip-path="url(#eb6884d856)"><g clip-path="url(#a777949a7e)"><g clip-path="url(#3f99a6a794)"><path fill="#ffffff" d="M 141.167969 40.691406 L 142.328125 42.261719 L 140.757812 43.417969 L 139.597656 41.847656 Z M 141.167969 40.691406 " fill-opacity="1" fill-rule="nonzero"/></g></g></g><g clip-path="url(#f7213e3722)"><g clip-path="url(#8a55ff143e)"><g clip-path="url(#1ea1023ae2)"><path fill="#ffffff" d="M 28.332031 46.265625 C 28 46.113281 27.59375 46.230469 27.441406 46.574219 C 27.378906 46.722656 27.359375 46.894531 27.332031 47.054688 C 27.296875 47.238281 27.265625 47.425781 27.234375 47.609375 C 27.171875 47.964844 27.113281 48.320312 27.027344 48.671875 C 27.007812 48.753906 26.992188 48.835938 26.972656 48.921875 L 26.945312 48.992188 C 26.828125 49.273438 26.710938 49.546875 26.542969 49.804688 C 26.375 50.058594 26.167969 50.269531 25.953125 50.484375 C 25.527344 50.917969 25.128906 51.476562 25.328125 52.117188 C 25.503906 52.683594 26.105469 52.816406 26.609375 52.632812 C 27.148438 52.433594 27.574219 51.949219 27.917969 51.507812 C 28.292969 51.023438 28.582031 50.488281 28.78125 49.910156 C 29 49.304688 29.101562 48.675781 29.089844 48.03125 C 29.082031 47.679688 29.019531 47.339844 28.90625 47.007812 C 28.800781 46.707031 28.632812 46.40625 28.332031 46.265625 Z M 28.332031 46.265625 " fill-opacity="1" fill-rule="nonzero"/></g></g></g><g clip-path="url(#615b19e67b)"><g clip-path="url(#5483d86685)"><g clip-path="url(#a7eb8414ab)"><path fill="#ffffff" d="M 28.589844 40.691406 L 29.75 42.261719 L 28.179688 43.417969 L 27.019531 41.847656 Z M 28.589844 40.691406 " fill-opacity="1" fill-rule="nonzero"/></g></g></g></svg>