<svg xmlns="http://www.w3.org/2000/svg" xmlns:xlink="http://www.w3.org/1999/xlink" width="200" zoomAndPan="magnify" viewBox="0 0 150 149.999998" height="200" preserveAspectRatio="xMidYMid meet" version="1.0"><defs><clipPath id="3e39c6f6b7"><path d="M 43.417969 4.347656 L 145.734375 4.347656 L 145.734375 106.664062 L 43.417969 106.664062 Z M 43.417969 4.347656 " clip-rule="nonzero"/></clipPath><clipPath id="1eab1b8568"><path d="M 4.347656 122.453125 L 145.726562 122.453125 L 145.726562 145.652344 L 4.347656 145.652344 Z M 4.347656 122.453125 " clip-rule="nonzero"/></clipPath><clipPath id="bbf0543128"><path d="M 15.949219 122.453125 L 134.050781 122.453125 C 140.457031 122.453125 145.652344 127.644531 145.652344 134.050781 C 145.652344 140.457031 140.457031 145.652344 134.050781 145.652344 L 15.949219 145.652344 C 9.542969 145.652344 4.347656 140.457031 4.347656 134.050781 C 4.347656 127.644531 9.542969 122.453125 15.949219 122.453125 Z M 15.949219 122.453125 " clip-rule="nonzero"/></clipPath><clipPath id="4db717c304"><path d="M 4.347656 4.347656 L 27.507812 4.347656 L 27.507812 145.664062 L 4.347656 145.664062 Z M 4.347656 4.347656 " clip-rule="nonzero"/></clipPath><clipPath id="465142ad2a"><path d="M 27.507812 15.925781 L 27.507812 134.070312 C 27.507812 140.464844 22.324219 145.652344 15.925781 145.652344 C 9.53125 145.652344 4.347656 140.464844 4.347656 134.070312 L 4.347656 15.925781 C 4.347656 9.53125 9.53125 4.347656 15.925781 4.347656 C 22.324219 4.347656 27.507812 9.53125 27.507812 15.925781 Z M 27.507812 15.925781 " clip-rule="nonzero"/></clipPath><clipPath id="004fb2ab32"><path d="M 4.347656 4.347656 L 75 4.347656 L 75 27.507812 L 4.347656 27.507812 Z M 4.347656 4.347656 " clip-rule="nonzero"/></clipPath><clipPath id="3314125db6"><path d="M 15.929688 4.347656 L 63.417969 4.347656 C 69.816406 4.347656 75 9.53125 75 15.929688 C 75 22.324219 69.816406 27.507812 63.417969 27.507812 L 15.929688 27.507812 C 9.53125 27.507812 4.347656 22.324219 4.347656 15.929688 C 4.347656 9.53125 9.53125 4.347656 15.929688 4.347656 Z M 15.929688 4.347656 " clip-rule="nonzero"/></clipPath><clipPath id="5b19610017"><path d="M 122.492188 75 L 145.652344 75 L 145.652344 145.652344 L 122.492188 145.652344 Z M 122.492188 75 " clip-rule="nonzero"/></clipPath><clipPath id="5e9d323b14"><path d="M 122.492188 134.070312 L 122.492188 86.578125 C 122.492188 80.183594 127.675781 75 134.074219 75 C 140.46875 75 145.652344 80.183594 145.652344 86.578125 L 145.652344 134.070312 C 145.652344 140.464844 140.46875 145.652344 134.074219 145.652344 C 127.675781 145.652344 122.492188 140.464844 122.492188 134.070312 Z M 122.492188 134.070312 " clip-rule="nonzero"/></clipPath></defs><g clip-path="url(#3e39c6f6b7)"><path fill="#f8c038" d="M 43.417969 85.398438 L 43.417969 106.582031 L 64.601562 106.582031 L 127.097656 44.082031 L 105.917969 22.902344 Z M 143.421875 27.757812 C 145.625 25.558594 145.625 21.96875 143.421875 19.765625 L 130.234375 6.578125 C 128.03125 4.375 124.441406 4.375 122.238281 6.578125 L 111.902344 16.914062 L 133.085938 38.097656 Z M 143.421875 27.757812 " fill-opacity="1" fill-rule="nonzero"/></g><g clip-path="url(#1eab1b8568)"><g clip-path="url(#bbf0543128)"><path fill="#f8c038" d="M 4.347656 122.453125 L 145.636719 122.453125 L 145.636719 145.652344 L 4.347656 145.652344 Z M 4.347656 122.453125 " fill-opacity="1" fill-rule="nonzero"/></g></g><g clip-path="url(#4db717c304)"><g clip-path="url(#465142ad2a)"><path fill="#f8c038" d="M 27.507812 4.347656 L 27.507812 145.664062 L 4.347656 145.664062 L 4.347656 4.347656 Z M 27.507812 4.347656 " fill-opacity="1" fill-rule="nonzero"/></g></g><g clip-path="url(#004fb2ab32)"><g clip-path="url(#3314125db6)"><path fill="#f8c038" d="M 4.347656 4.347656 L 75.007812 4.347656 L 75.007812 27.507812 L 4.347656 27.507812 Z M 4.347656 4.347656 " fill-opacity="1" fill-rule="nonzero"/></g></g><g clip-path="url(#5b19610017)"><g clip-path="url(#5e9d323b14)"><path fill="#f8c038" d="M 122.492188 145.652344 L 122.492188 74.992188 L 145.652344 74.992188 L 145.652344 145.652344 Z M 122.492188 145.652344 " fill-opacity="1" fill-rule="nonzero"/></g></g></svg>