<svg xmlns="http://www.w3.org/2000/svg" xmlns:xlink="http://www.w3.org/1999/xlink" width="1080" zoomAndPan="magnify" viewBox="0 0 810 809.999993" height="1080" preserveAspectRatio="xMidYMid meet" version="1.0"><defs><clipPath id="b9f2b236fe"><path d="M 202.5 204.519531 L 608 204.519531 L 608 607.5 L 202.5 607.5 Z M 202.5 204.519531 " clip-rule="nonzero"/></clipPath><clipPath id="781f9b9f8d"><path d="M 238.5 204.519531 L 571.5 204.519531 C 581.046875 204.519531 590.203125 208.3125 596.957031 215.066406 C 603.707031 221.816406 607.5 230.972656 607.5 240.519531 L 607.5 571.5 C 607.5 581.046875 603.707031 590.203125 596.957031 596.957031 C 590.203125 603.707031 581.046875 607.5 571.5 607.5 L 238.5 607.5 C 228.953125 607.5 219.796875 603.707031 213.042969 596.957031 C 206.292969 590.203125 202.5 581.046875 202.5 571.5 L 202.5 240.519531 C 202.5 230.972656 206.292969 221.816406 213.042969 215.066406 C 219.796875 208.3125 228.953125 204.519531 238.5 204.519531 Z M 238.5 204.519531 " clip-rule="nonzero"/></clipPath><clipPath id="f4c7034ce2"><path d="M 201 363 L 491 363 L 491 607.5 L 201 607.5 Z M 201 363 " clip-rule="nonzero"/></clipPath><clipPath id="a93357486a"><path d="M 381.222656 382.8125 L 484.914062 550.707031 C 492.007812 562.191406 492.328125 576.617188 485.753906 588.40625 C 479.179688 600.195312 466.738281 607.5 453.242188 607.5 L 239.054688 607.5 C 225.554688 607.5 213.113281 600.195312 206.539062 588.40625 C 199.964844 576.617188 200.285156 562.191406 207.378906 550.707031 L 311.070312 382.8125 C 318.582031 370.652344 331.855469 363.25 346.148438 363.25 C 360.4375 363.25 373.710938 370.652344 381.222656 382.8125 Z M 381.222656 382.8125 " clip-rule="nonzero"/></clipPath><clipPath id="9007ad8c2a"><path d="M 431 434 L 609 434 L 609 607.5 L 431 607.5 Z M 431 434 " clip-rule="nonzero"/></clipPath><clipPath id="9f7ba3eeab"><path d="M 551.691406 453.167969 L 603.28125 548.757812 C 609.941406 561.101562 609.617188 576.035156 602.433594 588.078125 C 595.246094 600.125 582.257812 607.5 568.230469 607.5 L 471.75 607.5 C 457.726562 607.5 444.734375 600.125 437.546875 588.078125 C 430.363281 576.035156 430.039062 561.101562 436.703125 548.757812 L 488.289062 453.167969 C 494.578125 441.519531 506.75 434.253906 519.992188 434.253906 C 533.230469 434.253906 545.402344 441.519531 551.691406 453.167969 Z M 551.691406 453.167969 " clip-rule="nonzero"/></clipPath><clipPath id="bf84b988a7"><path d="M 449.550781 286.65625 L 528.28125 286.65625 L 528.28125 365.382812 L 449.550781 365.382812 Z M 449.550781 286.65625 " clip-rule="nonzero"/></clipPath><clipPath id="290c09639c"><path d="M 488.917969 286.65625 C 467.175781 286.65625 449.550781 304.28125 449.550781 326.019531 C 449.550781 347.761719 467.175781 365.382812 488.917969 365.382812 C 510.65625 365.382812 528.28125 347.761719 528.28125 326.019531 C 528.28125 304.28125 510.65625 286.65625 488.917969 286.65625 Z M 488.917969 286.65625 " clip-rule="nonzero"/></clipPath></defs><g clip-path="url(#b9f2b236fe)"><g clip-path="url(#781f9b9f8d)"><path fill="#d5eafe" d="M 202.5 204.519531 L 607.054688 204.519531 L 607.054688 607.5 L 202.5 607.5 Z M 202.5 204.519531 " fill-opacity="1" fill-rule="nonzero"/></g></g><g clip-path="url(#f4c7034ce2)"><g clip-path="url(#a93357486a)"><path fill="#a0ecbc" d="M 172.304688 326.019531 L 519.753906 326.019531 L 519.753906 607.5 L 172.304688 607.5 Z M 172.304688 326.019531 " fill-opacity="1" fill-rule="nonzero"/></g></g><g clip-path="url(#9007ad8c2a)"><g clip-path="url(#9f7ba3eeab)"><path fill="#a0ecbc" d="M 405 394.429688 L 634.71875 394.429688 L 634.71875 607.5 L 405 607.5 Z M 405 394.429688 " fill-opacity="1" fill-rule="nonzero"/></g></g><g clip-path="url(#bf84b988a7)"><g clip-path="url(#290c09639c)"><path fill="#fcd98c" d="M 449.550781 286.65625 L 528.28125 286.65625 L 528.28125 365.382812 L 449.550781 365.382812 Z M 449.550781 286.65625 " fill-opacity="1" fill-rule="nonzero"/></g></g></svg>