<svg xmlns="http://www.w3.org/2000/svg" xmlns:xlink="http://www.w3.org/1999/xlink" width="200" zoomAndPan="magnify" viewBox="0 0 150 149.999998" height="200" preserveAspectRatio="xMidYMid meet" version="1.0"><defs><clipPath id="cb10c78786"><path d="M 8.9375 8.824219 L 142 8.824219 L 142 141.175781 L 8.9375 141.175781 Z M 8.9375 8.824219 " clip-rule="nonzero"/></clipPath><clipPath id="a16c934c16"><path d="M 27.6875 8.824219 L 123.203125 8.824219 C 133.558594 8.824219 141.953125 17.21875 141.953125 27.574219 L 141.953125 122.425781 C 141.953125 132.78125 133.558594 141.175781 123.203125 141.175781 L 27.6875 141.175781 C 17.332031 141.175781 8.9375 132.78125 8.9375 122.425781 L 8.9375 27.574219 C 8.9375 17.21875 17.332031 8.824219 27.6875 8.824219 Z M 27.6875 8.824219 " clip-rule="nonzero"/></clipPath><clipPath id="15e9ce8cd1"><path d="M 12 62.0625 L 100 62.0625 L 100 140.425781 L 12 140.425781 Z M 12 62.0625 " clip-rule="nonzero"/></clipPath><clipPath id="69070730b8"><path d="M 68.601562 69.300781 L 97.964844 119.105469 C 100.542969 123.476562 100.578125 128.894531 98.0625 133.300781 C 95.542969 137.707031 90.859375 140.425781 85.78125 140.425781 L 26.285156 140.425781 C 21.210938 140.425781 16.523438 137.707031 14.007812 133.300781 C 11.492188 128.894531 11.527344 123.476562 14.105469 119.105469 L 43.464844 69.300781 C 46.089844 64.851562 50.867188 62.117188 56.035156 62.117188 C 61.199219 62.117188 65.980469 64.851562 68.601562 69.300781 Z M 68.601562 69.300781 " clip-rule="nonzero"/></clipPath><clipPath id="1dd399c36c"><path d="M 79 81 L 137 81 L 137 140.425781 L 79 140.425781 Z M 79 81 " clip-rule="nonzero"/></clipPath><clipPath id="d5a007b303"><path d="M 115.886719 85.84375 L 135.675781 125.027344 C 137.335938 128.316406 137.171875 132.234375 135.242188 135.375 C 133.308594 138.511719 129.886719 140.425781 126.203125 140.425781 L 90.015625 140.425781 C 86.332031 140.425781 82.910156 138.511719 80.976562 135.375 C 79.046875 132.234375 78.882812 128.316406 80.542969 125.027344 L 100.332031 85.84375 C 101.816406 82.910156 104.824219 81.058594 108.109375 81.058594 C 111.398438 81.058594 114.40625 82.910156 115.886719 85.84375 Z M 115.886719 85.84375 " clip-rule="nonzero"/></clipPath><clipPath id="f71c97a406"><path d="M 90.078125 35.800781 L 115.933594 35.800781 L 115.933594 61.65625 L 90.078125 61.65625 Z M 90.078125 35.800781 " clip-rule="nonzero"/></clipPath><clipPath id="13177e5435"><path d="M 103.007812 35.800781 C 95.867188 35.800781 90.078125 41.589844 90.078125 48.730469 C 90.078125 55.871094 95.867188 61.65625 103.007812 61.65625 C 110.148438 61.65625 115.933594 55.871094 115.933594 48.730469 C 115.933594 41.589844 110.148438 35.800781 103.007812 35.800781 Z M 103.007812 35.800781 " clip-rule="nonzero"/></clipPath></defs><g clip-path="url(#cb10c78786)"><g clip-path="url(#a16c934c16)"><path fill="#d5eafe" d="M 8.9375 8.824219 L 141.804688 8.824219 L 141.804688 141.175781 L 8.9375 141.175781 Z M 8.9375 8.824219 " fill-opacity="1" fill-rule="nonzero"/></g></g><g clip-path="url(#15e9ce8cd1)"><g clip-path="url(#69070730b8)"><path fill="#a0ecbc" d="M 1.535156 47.980469 L 110.59375 47.980469 L 110.59375 140.425781 L 1.535156 140.425781 Z M 1.535156 47.980469 " fill-opacity="1" fill-rule="nonzero"/></g></g><g clip-path="url(#1dd399c36c)"><g clip-path="url(#d5a007b303)"><path fill="#a0ecbc" d="M 72.765625 70.445312 L 143.566406 70.445312 L 143.566406 140.425781 L 72.765625 140.425781 Z M 72.765625 70.445312 " fill-opacity="1" fill-rule="nonzero"/></g></g><g clip-path="url(#f71c97a406)"><g clip-path="url(#13177e5435)"><path fill="#fcd98c" d="M 90.078125 35.800781 L 115.933594 35.800781 L 115.933594 61.65625 L 90.078125 61.65625 Z M 90.078125 35.800781 " fill-opacity="1" fill-rule="nonzero"/></g></g></svg>