<svg xmlns="http://www.w3.org/2000/svg" xmlns:xlink="http://www.w3.org/1999/xlink" width="1080" zoomAndPan="magnify" viewBox="0 0 810 809.999993" height="1080" preserveAspectRatio="xMidYMid meet" version="1.0"><defs><clipPath id="3d31f90ede"><path d="M 213.175781 226.972656 L 597 226.972656 L 597 594.132812 L 213.175781 594.132812 Z M 213.175781 226.972656 " clip-rule="nonzero"/></clipPath><clipPath id="636794e7a9"><path d="M 405 226.972656 C 299.058594 226.972656 213.175781 309.164062 213.175781 410.554688 C 213.175781 511.941406 299.058594 594.132812 405 594.132812 C 510.941406 594.132812 596.824219 511.941406 596.824219 410.554688 C 596.824219 309.164062 510.941406 226.972656 405 226.972656 Z M 405 226.972656 " clip-rule="nonzero"/></clipPath><clipPath id="040c33527b"><path d="M 276.707031 354.011719 L 539.886719 354.011719 L 539.886719 577.847656 L 276.707031 577.847656 Z M 276.707031 354.011719 " clip-rule="nonzero"/></clipPath><clipPath id="e2f6753d31"><path d="M 408.019531 354.011719 C 335.496094 354.011719 276.707031 404.121094 276.707031 465.929688 C 276.707031 527.738281 335.496094 577.847656 408.019531 577.847656 C 480.539062 577.847656 539.328125 527.738281 539.328125 465.929688 C 539.328125 404.121094 480.539062 354.011719 408.019531 354.011719 Z M 408.019531 354.011719 " clip-rule="nonzero"/></clipPath><clipPath id="e1c3990ecd"><path d="M 371.964844 413.601562 L 438.714844 413.601562 L 438.714844 442.851562 L 371.964844 442.851562 Z M 371.964844 413.601562 " clip-rule="nonzero"/></clipPath><clipPath id="dbdb2fbc50"><path d="M 362.882812 378.113281 L 446.882812 378.113281 L 446.882812 419.363281 L 362.882812 419.363281 Z M 362.882812 378.113281 " clip-rule="nonzero"/></clipPath><clipPath id="80fc597ce1"><path d="M 416 386 L 432.089844 386 L 432.089844 399.40625 L 416 399.40625 Z M 416 386 " clip-rule="nonzero"/></clipPath><clipPath id="6a7662c13e"><path d="M 419.921875 386.121094 C 425.480469 388.597656 427.722656 390.117188 429.109375 391.40625 C 430.21875 392.4375 431.292969 393.765625 431.71875 394.5625 C 431.933594 394.972656 431.992188 395.246094 432.03125 395.597656 C 432.070312 395.949219 432.050781 396.316406 431.972656 396.667969 C 431.894531 397.019531 431.777344 397.371094 431.601562 397.683594 C 431.429688 397.996094 431.195312 398.269531 430.921875 398.503906 C 430.648438 398.734375 430.335938 398.929688 430.003906 399.066406 C 429.671875 399.203125 429.300781 399.300781 428.953125 399.320312 C 428.601562 399.339844 428.230469 399.320312 427.878906 399.222656 C 427.546875 399.125 427.195312 398.988281 426.902344 398.792969 C 426.613281 398.601562 426.320312 398.328125 426.105469 398.054688 C 425.890625 397.78125 425.714844 397.449219 425.597656 397.117188 C 425.480469 396.785156 425.402344 396.414062 425.402344 396.066406 C 425.402344 395.714844 425.441406 395.324219 425.558594 394.992188 C 425.675781 394.660156 425.832031 394.308594 426.046875 394.035156 C 426.261719 393.746094 426.535156 393.492188 426.824219 393.296875 C 427.117188 393.101562 427.449219 392.925781 427.78125 392.828125 C 428.113281 392.730469 428.503906 392.671875 428.855469 392.691406 C 429.203125 392.710938 429.574219 392.789062 429.90625 392.90625 C 430.238281 393.042969 430.570312 393.21875 430.84375 393.453125 C 431.117188 393.667969 431.371094 393.957031 431.542969 394.25 C 431.738281 394.542969 431.875 394.894531 431.953125 395.246094 C 432.03125 395.597656 432.070312 395.96875 432.03125 396.316406 C 431.992188 396.667969 431.894531 397.039062 431.757812 397.351562 C 431.621094 397.683594 431.410156 397.996094 431.175781 398.25 C 430.941406 398.503906 430.648438 398.734375 430.335938 398.910156 C 430.023438 399.085938 429.671875 399.222656 429.320312 399.28125 C 428.972656 399.339844 428.601562 399.359375 428.25 399.300781 C 427.898438 399.242188 427.527344 399.125 427.214844 398.96875 C 426.902344 398.8125 426.671875 398.640625 426.359375 398.328125 C 425.851562 397.820312 425.382812 396.882812 424.5625 396.105469 C 423.335938 394.933594 420.664062 393.042969 419.339844 392.359375 C 418.617188 391.988281 417.992188 391.96875 417.5625 391.734375 C 417.289062 391.597656 417.136719 391.464844 416.960938 391.289062 C 416.785156 391.113281 416.628906 390.976562 416.492188 390.722656 C 416.296875 390.371094 416.0625 389.804688 416.023438 389.335938 C 415.984375 388.871094 416.121094 388.246094 416.257812 387.875 C 416.355469 387.601562 416.453125 387.445312 416.628906 387.230469 C 416.882812 386.917969 417.40625 386.511719 417.757812 386.316406 C 418.011719 386.179688 418.1875 386.101562 418.460938 386.0625 C 418.851562 386.003906 419.921875 386.121094 419.921875 386.121094 " clip-rule="nonzero"/></clipPath><clipPath id="0ee5c22167"><path d="M 431.367188 403.253906 L 437.320312 403.253906 L 437.320312 409.386719 L 431.367188 409.386719 Z M 431.367188 403.253906 " clip-rule="nonzero"/></clipPath><clipPath id="3763bf02fe"><path d="M 437.316406 405.445312 C 437.316406 407.335938 437.101562 407.824219 436.808594 408.195312 C 436.515625 408.5625 436.109375 408.894531 435.679688 409.089844 C 435.25 409.285156 434.722656 409.363281 434.253906 409.34375 C 433.789062 409.324219 433.28125 409.148438 432.871094 408.914062 C 432.460938 408.679688 432.070312 408.289062 431.835938 407.902344 C 431.582031 407.492188 431.429688 406.984375 431.410156 406.515625 C 431.390625 406.046875 431.488281 405.523438 431.679688 405.09375 C 431.875 404.664062 432.1875 404.253906 432.558594 403.960938 C 432.929688 403.667969 433.417969 403.4375 433.886719 403.359375 C 434.351562 403.28125 434.878906 403.320312 435.328125 403.457031 C 435.777344 403.589844 436.574219 404.195312 436.574219 404.195312 " clip-rule="nonzero"/></clipPath><clipPath id="e83be199d7"><path d="M 232 236 L 399 236 L 399 394 L 232 394 Z M 232 236 " clip-rule="nonzero"/></clipPath><clipPath id="5f600654de"><path d="M 214.761719 248.871094 L 396.34375 216.195312 L 425.433594 377.847656 L 243.851562 410.523438 Z M 214.761719 248.871094 " clip-rule="nonzero"/></clipPath><clipPath id="6b22f44352"><path d="M 214.761719 248.871094 L 396.34375 216.195312 L 425.433594 377.847656 L 243.851562 410.523438 Z M 214.761719 248.871094 " clip-rule="nonzero"/></clipPath><clipPath id="ee5065dabc"><path d="M 214.761719 248.871094 L 396.34375 216.195312 L 425.433594 377.847656 L 243.851562 410.523438 Z M 214.761719 248.871094 " clip-rule="nonzero"/></clipPath><clipPath id="b03c3bfb0e"><path d="M 411 236 L 579 236 L 579 394 L 411 394 Z M 411 236 " clip-rule="nonzero"/></clipPath><clipPath id="d7f785b1eb"><path d="M 414.183594 215.867188 L 595.59375 249.476562 L 565.671875 410.980469 L 384.261719 377.371094 Z M 414.183594 215.867188 " clip-rule="nonzero"/></clipPath><clipPath id="0c9a384854"><path d="M 414.183594 215.867188 L 595.59375 249.476562 L 565.671875 410.980469 L 384.261719 377.371094 Z M 414.183594 215.867188 " clip-rule="nonzero"/></clipPath><clipPath id="8d67b4246f"><path d="M 414.183594 215.867188 L 595.59375 249.476562 L 565.671875 410.980469 L 384.261719 377.371094 Z M 414.183594 215.867188 " clip-rule="nonzero"/></clipPath></defs><g clip-path="url(#3d31f90ede)"><g clip-path="url(#636794e7a9)"><path fill="#f8c038" d="M 213.175781 226.972656 L 596.109375 226.972656 L 596.109375 594.132812 L 213.175781 594.132812 Z M 213.175781 226.972656 " fill-opacity="1" fill-rule="nonzero"/></g></g><g clip-path="url(#040c33527b)"><g clip-path="url(#e2f6753d31)"><path fill="#fddc66" d="M 276.707031 354.011719 L 539.011719 354.011719 L 539.011719 577.847656 L 276.707031 577.847656 Z M 276.707031 354.011719 " fill-opacity="1" fill-rule="nonzero"/></g></g><g clip-path="url(#e1c3990ecd)"><path fill="#f86018" d="M 438.421875 409.761719 C 438.421875 410.851562 438.371094 411.933594 438.261719 413.019531 C 438.15625 414.101562 437.996094 415.175781 437.785156 416.242188 C 437.574219 417.3125 437.308594 418.367188 436.992188 419.40625 C 436.675781 420.449219 436.3125 421.472656 435.894531 422.476562 C 435.476562 423.484375 435.011719 424.464844 434.5 425.425781 C 433.988281 426.386719 433.429688 427.316406 432.824219 428.222656 C 432.21875 429.128906 431.570312 430 430.882812 430.839844 C 430.191406 431.683594 429.460938 432.488281 428.691406 433.257812 C 427.921875 434.027344 427.117188 434.757812 426.273438 435.449219 C 425.433594 436.136719 424.5625 436.785156 423.65625 437.390625 C 422.75 437.996094 421.820312 438.554688 420.859375 439.066406 C 419.898438 439.578125 418.917969 440.042969 417.910156 440.460938 C 416.90625 440.875 415.882812 441.242188 414.839844 441.558594 C 413.800781 441.875 412.746094 442.140625 411.675781 442.351562 C 410.609375 442.5625 409.535156 442.722656 408.453125 442.828125 C 407.367188 442.9375 406.285156 442.988281 405.195312 442.988281 C 404.105469 442.988281 403.019531 442.9375 401.9375 442.828125 C 400.855469 442.722656 399.78125 442.5625 398.710938 442.351562 C 397.644531 442.140625 396.589844 441.875 395.550781 441.558594 C 394.507812 441.242188 393.484375 440.875 392.480469 440.460938 C 391.472656 440.042969 390.492188 439.578125 389.53125 439.066406 C 388.570312 438.554688 387.640625 437.996094 386.734375 437.390625 C 385.828125 436.785156 384.957031 436.136719 384.113281 435.449219 C 383.273438 434.757812 382.46875 434.027344 381.699219 433.257812 C 380.929688 432.488281 380.199219 431.683594 379.507812 430.839844 C 378.820312 430 378.171875 429.128906 377.566406 428.222656 C 376.960938 427.316406 376.402344 426.386719 375.890625 425.425781 C 375.378906 424.464844 374.914062 423.484375 374.496094 422.476562 C 374.078125 421.472656 373.714844 420.449219 373.398438 419.40625 C 373.082031 418.367188 372.816406 417.3125 372.605469 416.242188 C 372.394531 415.175781 372.234375 414.101562 372.125 413.019531 C 372.019531 411.933594 371.964844 410.851562 371.964844 409.761719 C 371.964844 408.671875 372.019531 407.585938 372.125 406.503906 C 372.234375 405.421875 372.394531 404.347656 372.605469 403.277344 C 372.816406 402.210938 373.082031 401.15625 373.398438 400.117188 C 373.714844 399.074219 374.078125 398.050781 374.496094 397.046875 C 374.914062 396.039062 375.378906 395.058594 375.890625 394.097656 C 376.402344 393.136719 376.960938 392.207031 377.566406 391.300781 C 378.171875 390.394531 378.820312 389.523438 379.507812 388.679688 C 380.199219 387.839844 380.929688 387.035156 381.699219 386.265625 C 382.46875 385.496094 383.273438 384.765625 384.113281 384.074219 C 384.957031 383.386719 385.828125 382.738281 386.734375 382.132812 C 387.640625 381.527344 388.570312 380.96875 389.53125 380.457031 C 390.492188 379.945312 391.472656 379.480469 392.480469 379.0625 C 393.484375 378.644531 394.507812 378.28125 395.550781 377.964844 C 396.589844 377.648438 397.644531 377.382812 398.710938 377.171875 C 399.78125 376.960938 400.855469 376.800781 401.9375 376.691406 C 403.019531 376.585938 404.105469 376.53125 405.195312 376.53125 C 406.285156 376.53125 407.367188 376.585938 408.453125 376.691406 C 409.535156 376.800781 410.609375 376.960938 411.675781 377.171875 C 412.746094 377.382812 413.800781 377.648438 414.839844 377.964844 C 415.882812 378.28125 416.90625 378.644531 417.910156 379.0625 C 418.917969 379.480469 419.898438 379.945312 420.859375 380.457031 C 421.820312 380.96875 422.75 381.527344 423.65625 382.132812 C 424.5625 382.738281 425.433594 383.386719 426.273438 384.074219 C 427.117188 384.765625 427.921875 385.496094 428.691406 386.265625 C 429.460938 387.035156 430.191406 387.839844 430.882812 388.679688 C 431.570312 389.523438 432.21875 390.394531 432.824219 391.300781 C 433.429688 392.207031 433.988281 393.136719 434.5 394.097656 C 435.011719 395.058594 435.476562 396.039062 435.894531 397.046875 C 436.3125 398.050781 436.675781 399.074219 436.992188 400.117188 C 437.308594 401.15625 437.574219 402.210938 437.785156 403.277344 C 437.996094 404.347656 438.15625 405.421875 438.261719 406.503906 C 438.371094 407.585938 438.421875 408.671875 438.421875 409.761719 Z M 438.421875 409.761719 " fill-opacity="1" fill-rule="nonzero"/></g><g clip-path="url(#dbdb2fbc50)"><path fill="#f09020" d="M 447.117188 420.230469 C 447.117188 421.609375 447.046875 422.984375 446.914062 424.355469 C 446.777344 425.730469 446.574219 427.09375 446.304688 428.445312 C 446.039062 429.796875 445.703125 431.132812 445.300781 432.453125 C 444.902344 433.773438 444.4375 435.070312 443.910156 436.347656 C 443.382812 437.621094 442.792969 438.867188 442.140625 440.082031 C 441.492188 441.300781 440.785156 442.480469 440.019531 443.628906 C 439.25 444.773438 438.429688 445.882812 437.554688 446.949219 C 436.679688 448.015625 435.753906 449.035156 434.78125 450.011719 C 433.804688 450.984375 432.785156 451.910156 431.71875 452.785156 C 430.652344 453.660156 429.542969 454.480469 428.398438 455.246094 C 427.25 456.015625 426.070312 456.722656 424.851562 457.371094 C 423.636719 458.023438 422.390625 458.613281 421.117188 459.140625 C 419.839844 459.667969 418.542969 460.132812 417.222656 460.53125 C 415.90625 460.933594 414.566406 461.265625 413.214844 461.535156 C 411.863281 461.804688 410.5 462.007812 409.125 462.144531 C 407.753906 462.277344 406.378906 462.347656 405 462.347656 C 403.617188 462.347656 402.242188 462.277344 400.871094 462.144531 C 399.496094 462.007812 398.132812 461.804688 396.78125 461.535156 C 395.429688 461.265625 394.09375 460.933594 392.773438 460.53125 C 391.453125 460.132812 390.15625 459.667969 388.882812 459.140625 C 387.605469 458.613281 386.359375 458.023438 385.144531 457.371094 C 383.929688 456.722656 382.746094 456.015625 381.597656 455.246094 C 380.453125 454.480469 379.347656 453.660156 378.28125 452.785156 C 377.214844 451.910156 376.191406 450.984375 375.21875 450.011719 C 374.242188 449.035156 373.316406 448.015625 372.441406 446.949219 C 371.566406 445.882812 370.746094 444.773438 369.980469 443.628906 C 369.214844 442.480469 368.503906 441.300781 367.855469 440.082031 C 367.203125 438.867188 366.613281 437.621094 366.085938 436.347656 C 365.558594 435.070312 365.09375 433.773438 364.695312 432.453125 C 364.292969 431.132812 363.960938 429.796875 363.691406 428.445312 C 363.421875 427.09375 363.21875 425.730469 363.085938 424.355469 C 362.949219 422.984375 362.882812 421.609375 362.882812 420.230469 C 362.882812 418.847656 362.949219 417.472656 363.085938 416.101562 C 363.21875 414.726562 363.421875 413.363281 363.691406 412.011719 C 363.960938 410.660156 364.292969 409.324219 364.695312 408.003906 C 365.09375 406.683594 365.558594 405.386719 366.085938 404.109375 C 366.613281 402.835938 367.203125 401.589844 367.855469 400.375 C 368.503906 399.15625 369.214844 397.976562 369.980469 396.828125 C 370.746094 395.683594 371.566406 394.574219 372.441406 393.507812 C 373.316406 392.445312 374.242188 391.421875 375.21875 390.445312 C 376.191406 389.472656 377.214844 388.546875 378.28125 387.671875 C 379.347656 386.796875 380.453125 385.976562 381.597656 385.210938 C 382.746094 384.441406 383.929688 383.734375 385.144531 383.085938 C 386.359375 382.433594 387.605469 381.84375 388.882812 381.316406 C 390.15625 380.789062 391.453125 380.324219 392.773438 379.925781 C 394.09375 379.523438 395.429688 379.191406 396.78125 378.921875 C 398.132812 378.652344 399.496094 378.449219 400.871094 378.3125 C 402.242188 378.179688 403.617188 378.113281 405 378.113281 C 406.378906 378.113281 407.753906 378.179688 409.125 378.3125 C 410.5 378.449219 411.863281 378.652344 413.214844 378.921875 C 414.566406 379.191406 415.90625 379.523438 417.222656 379.925781 C 418.542969 380.324219 419.839844 380.789062 421.117188 381.316406 C 422.390625 381.84375 423.636719 382.433594 424.851562 383.085938 C 426.070312 383.734375 427.25 384.441406 428.398438 385.210938 C 429.542969 385.976562 430.652344 386.796875 431.71875 387.671875 C 432.785156 388.546875 433.804688 389.472656 434.78125 390.445312 C 435.753906 391.421875 436.679688 392.445312 437.554688 393.507812 C 438.429688 394.574219 439.25 395.683594 440.019531 396.828125 C 440.785156 397.976562 441.492188 399.15625 442.140625 400.375 C 442.792969 401.589844 443.382812 402.835938 443.910156 404.109375 C 444.4375 405.386719 444.902344 406.683594 445.300781 408.003906 C 445.703125 409.324219 446.039062 410.660156 446.304688 412.011719 C 446.574219 413.363281 446.777344 414.726562 446.914062 416.101562 C 447.046875 417.472656 447.117188 418.847656 447.117188 420.230469 Z M 447.117188 420.230469 " fill-opacity="1" fill-rule="nonzero"/></g><g clip-path="url(#80fc597ce1)"><g clip-path="url(#6a7662c13e)"><path fill="#ffffff" d="M 415.242188 385.28125 L 432.785156 385.28125 L 432.785156 400.101562 L 415.242188 400.101562 Z M 415.242188 385.28125 " fill-opacity="1" fill-rule="nonzero"/></g></g><g clip-path="url(#0ee5c22167)"><g clip-path="url(#3763bf02fe)"><path fill="#ffffff" d="M 430.628906 402.578125 L 438.175781 402.578125 L 438.175781 410.125 L 430.628906 410.125 Z M 430.628906 402.578125 " fill-opacity="1" fill-rule="nonzero"/></g></g><path stroke-linecap="round" transform="matrix(-0.75, 0.000000001309, -0.000000001309, -0.75, 383.477533, 411.677903)" fill="none" stroke-linejoin="miter" d="M 1.501294 1.497621 L 17.449212 1.497621 " stroke="#c8831a" stroke-width="3" stroke-opacity="1" stroke-miterlimit="4"/><path stroke-linecap="round" transform="matrix(-0.75, -0.000000001309, 0.000000001309, -0.75, 383.483684, 403.735704)" fill="none" stroke-linejoin="miter" d="M 1.499079 1.501772 L 10.504288 1.501772 " stroke="#c8831a" stroke-width="3" stroke-opacity="1" stroke-miterlimit="4"/><path stroke-linecap="round" transform="matrix(-0.75, -0.000000001309, 0.000000001309, -0.75, 383.484505, 396.391524)" fill="none" stroke-linejoin="miter" d="M 1.500173 1.501199 L 5.458507 1.501199 " stroke="#c8831a" stroke-width="3" stroke-opacity="1" stroke-miterlimit="4"/><g clip-path="url(#e83be199d7)"><g clip-path="url(#5f600654de)"><g clip-path="url(#6b22f44352)"><g clip-path="url(#ee5065dabc)"><path fill="#c6302c" d="M 396.746094 266.792969 C 378.757812 220.417969 320.070312 230.148438 313.71875 277.671875 C 291.199219 235.347656 232.800781 246.683594 232.109375 296.421875 C 231.480469 341.546875 334.652344 393.996094 334.652344 393.996094 C 334.652344 393.996094 413.0625 308.867188 396.746094 266.792969 Z M 396.746094 266.792969 " fill-opacity="1" fill-rule="nonzero"/></g></g></g></g><g clip-path="url(#b03c3bfb0e)"><g clip-path="url(#d7f785b1eb)"><g clip-path="url(#0c9a384854)"><g clip-path="url(#8d67b4246f)"><path fill="#c6302c" d="M 578.085938 296.953125 C 577.648438 247.214844 519.308594 235.574219 496.574219 277.785156 C 490.464844 230.230469 431.828125 220.199219 413.605469 266.480469 C 397.066406 308.472656 475.042969 394 475.042969 394 C 475.042969 394 578.480469 342.082031 578.085938 296.953125 Z M 578.085938 296.953125 " fill-opacity="1" fill-rule="nonzero"/></g></g></g></g></svg>