<svg xmlns="http://www.w3.org/2000/svg" xmlns:xlink="http://www.w3.org/1999/xlink" width="200" zoomAndPan="magnify" viewBox="0 0 150 149.999998" height="200" preserveAspectRatio="xMidYMid meet" version="1.0"><defs><clipPath id="10bda8d7f3"><path d="M 2.878906 7.929688 L 147 7.929688 L 147 146.105469 L 2.878906 146.105469 Z M 2.878906 7.929688 " clip-rule="nonzero"/></clipPath><clipPath id="0b1176175e"><path d="M 75.070312 7.929688 C 35.203125 7.929688 2.878906 38.863281 2.878906 77.019531 C 2.878906 115.175781 35.203125 146.105469 75.070312 146.105469 C 114.941406 146.105469 147.265625 115.175781 147.265625 77.019531 C 147.265625 38.863281 114.941406 7.929688 75.070312 7.929688 Z M 75.070312 7.929688 " clip-rule="nonzero"/></clipPath><clipPath id="29e193f05e"><path d="M 26.789062 55.742188 L 125.835938 55.742188 L 125.835938 139.976562 L 26.789062 139.976562 Z M 26.789062 55.742188 " clip-rule="nonzero"/></clipPath><clipPath id="89dbde769a"><path d="M 76.207031 55.742188 C 48.914062 55.742188 26.789062 74.597656 26.789062 97.859375 C 26.789062 121.121094 48.914062 139.976562 76.207031 139.976562 C 103.5 139.976562 125.625 121.121094 125.625 97.859375 C 125.625 74.597656 103.5 55.742188 76.207031 55.742188 Z M 76.207031 55.742188 " clip-rule="nonzero"/></clipPath><clipPath id="bce12877e8"><path d="M 62.640625 78.164062 L 87.761719 78.164062 L 87.761719 89.171875 L 62.640625 89.171875 Z M 62.640625 78.164062 " clip-rule="nonzero"/></clipPath><clipPath id="4a3e659e09"><path d="M 59.222656 64.808594 L 90.832031 64.808594 L 90.832031 80.332031 L 59.222656 80.332031 Z M 59.222656 64.808594 " clip-rule="nonzero"/></clipPath><clipPath id="bdac020e12"><path d="M 79.1875 67.769531 L 85.265625 67.769531 L 85.265625 72.824219 L 79.1875 72.824219 Z M 79.1875 67.769531 " clip-rule="nonzero"/></clipPath><clipPath id="ace14d2d2c"><path d="M 80.6875 67.824219 C 82.78125 68.753906 83.625 69.328125 84.144531 69.8125 C 84.5625 70.203125 84.964844 70.699219 85.128906 71 C 85.207031 71.15625 85.230469 71.257812 85.246094 71.390625 C 85.261719 71.523438 85.253906 71.660156 85.222656 71.792969 C 85.195312 71.925781 85.148438 72.058594 85.085938 72.175781 C 85.019531 72.292969 84.929688 72.394531 84.828125 72.484375 C 84.722656 72.570312 84.605469 72.644531 84.480469 72.695312 C 84.359375 72.746094 84.21875 72.785156 84.085938 72.792969 C 83.953125 72.800781 83.8125 72.792969 83.683594 72.753906 C 83.558594 72.71875 83.425781 72.667969 83.316406 72.59375 C 83.207031 72.519531 83.09375 72.417969 83.015625 72.316406 C 82.933594 72.210938 82.867188 72.085938 82.824219 71.960938 C 82.78125 71.835938 82.75 71.699219 82.75 71.566406 C 82.75 71.433594 82.765625 71.289062 82.808594 71.164062 C 82.851562 71.039062 82.910156 70.90625 82.992188 70.804688 C 83.074219 70.691406 83.175781 70.597656 83.285156 70.523438 C 83.394531 70.449219 83.519531 70.386719 83.644531 70.347656 C 83.769531 70.3125 83.917969 70.289062 84.050781 70.296875 C 84.179688 70.304688 84.320312 70.332031 84.445312 70.378906 C 84.570312 70.429688 84.695312 70.496094 84.796875 70.582031 C 84.902344 70.664062 84.996094 70.773438 85.0625 70.882812 C 85.136719 70.992188 85.1875 71.125 85.214844 71.257812 C 85.246094 71.390625 85.261719 71.53125 85.246094 71.660156 C 85.230469 71.792969 85.195312 71.933594 85.144531 72.050781 C 85.089844 72.175781 85.011719 72.292969 84.921875 72.386719 C 84.835938 72.484375 84.722656 72.570312 84.605469 72.636719 C 84.488281 72.703125 84.359375 72.753906 84.226562 72.777344 C 84.09375 72.800781 83.953125 72.804688 83.820312 72.785156 C 83.691406 72.761719 83.550781 72.71875 83.433594 72.660156 C 83.316406 72.601562 83.226562 72.535156 83.109375 72.417969 C 82.917969 72.226562 82.742188 71.875 82.433594 71.582031 C 81.972656 71.140625 80.96875 70.429688 80.46875 70.171875 C 80.195312 70.03125 79.960938 70.023438 79.800781 69.9375 C 79.699219 69.886719 79.640625 69.835938 79.574219 69.769531 C 79.507812 69.703125 79.449219 69.652344 79.398438 69.554688 C 79.324219 69.421875 79.234375 69.210938 79.21875 69.035156 C 79.207031 68.859375 79.257812 68.625 79.308594 68.484375 C 79.34375 68.382812 79.382812 68.324219 79.449219 68.242188 C 79.542969 68.125 79.742188 67.96875 79.875 67.898438 C 79.96875 67.84375 80.035156 67.816406 80.136719 67.800781 C 80.285156 67.78125 80.6875 67.824219 80.6875 67.824219 " clip-rule="nonzero"/></clipPath><clipPath id="d90703c93a"><path d="M 85 74.273438 L 87.234375 74.273438 L 87.234375 76.578125 L 85 76.578125 Z M 85 74.273438 " clip-rule="nonzero"/></clipPath><clipPath id="41f0ded139"><path d="M 87.234375 75.097656 C 87.234375 75.808594 87.152344 75.992188 87.042969 76.128906 C 86.933594 76.269531 86.777344 76.394531 86.617188 76.46875 C 86.457031 76.542969 86.257812 76.570312 86.082031 76.5625 C 85.90625 76.554688 85.714844 76.492188 85.5625 76.402344 C 85.40625 76.3125 85.261719 76.167969 85.171875 76.019531 C 85.078125 75.867188 85.019531 75.675781 85.011719 75.5 C 85.003906 75.324219 85.039062 75.125 85.113281 74.964844 C 85.1875 74.800781 85.304688 74.648438 85.445312 74.539062 C 85.582031 74.429688 85.765625 74.339844 85.941406 74.3125 C 86.117188 74.28125 86.316406 74.296875 86.484375 74.347656 C 86.65625 74.398438 86.957031 74.625 86.957031 74.625 " clip-rule="nonzero"/></clipPath><clipPath id="32fc393dc6"><path d="M 10 11 L 73 11 L 73 71 L 10 71 Z M 10 11 " clip-rule="nonzero"/></clipPath><clipPath id="dd6e651d58"><path d="M 3.476562 16.171875 L 71.816406 3.875 L 82.761719 64.710938 L 14.425781 77.007812 Z M 3.476562 16.171875 " clip-rule="nonzero"/></clipPath><clipPath id="3475face02"><path d="M 3.476562 16.171875 L 71.816406 3.875 L 82.761719 64.710938 L 14.425781 77.007812 Z M 3.476562 16.171875 " clip-rule="nonzero"/></clipPath><clipPath id="174289ae6d"><path d="M 3.476562 16.171875 L 71.816406 3.875 L 82.761719 64.710938 L 14.425781 77.007812 Z M 3.476562 16.171875 " clip-rule="nonzero"/></clipPath><clipPath id="05da3a8e45"><path d="M 77 11 L 141 11 L 141 71 L 77 71 Z M 77 11 " clip-rule="nonzero"/></clipPath><clipPath id="a56f3561ae"><path d="M 78.527344 3.75 L 146.800781 16.398438 L 135.539062 77.179688 L 67.265625 64.53125 Z M 78.527344 3.75 " clip-rule="nonzero"/></clipPath><clipPath id="80d10bdca0"><path d="M 78.527344 3.75 L 146.800781 16.398438 L 135.539062 77.179688 L 67.265625 64.53125 Z M 78.527344 3.75 " clip-rule="nonzero"/></clipPath><clipPath id="bbd398c757"><path d="M 78.527344 3.75 L 146.800781 16.398438 L 135.539062 77.179688 L 67.265625 64.53125 Z M 78.527344 3.75 " clip-rule="nonzero"/></clipPath></defs><g clip-path="url(#10bda8d7f3)"><g clip-path="url(#0b1176175e)"><path fill="#f8c038" d="M 2.878906 7.929688 L 146.996094 7.929688 L 146.996094 146.105469 L 2.878906 146.105469 Z M 2.878906 7.929688 " fill-opacity="1" fill-rule="nonzero"/></g></g><g clip-path="url(#29e193f05e)"><g clip-path="url(#89dbde769a)"><path fill="#fddc66" d="M 26.789062 55.742188 L 125.507812 55.742188 L 125.507812 139.976562 L 26.789062 139.976562 Z M 26.789062 55.742188 " fill-opacity="1" fill-rule="nonzero"/></g></g><g clip-path="url(#bce12877e8)"><path fill="#f86018" d="M 87.652344 76.722656 C 87.652344 77.542969 87.570312 78.355469 87.410156 79.160156 C 87.25 79.964844 87.011719 80.746094 86.699219 81.507812 C 86.382812 82.265625 86 82.984375 85.542969 83.667969 C 85.085938 84.351562 84.570312 84.984375 83.988281 85.5625 C 83.40625 86.144531 82.777344 86.664062 82.09375 87.117188 C 81.410156 87.574219 80.691406 87.960938 79.929688 88.273438 C 79.171875 88.589844 78.390625 88.824219 77.585938 88.984375 C 76.78125 89.144531 75.964844 89.226562 75.144531 89.226562 C 74.324219 89.226562 73.511719 89.144531 72.707031 88.984375 C 71.902344 88.824219 71.117188 88.589844 70.359375 88.273438 C 69.601562 87.960938 68.878906 87.574219 68.199219 87.117188 C 67.515625 86.664062 66.882812 86.144531 66.304688 85.5625 C 65.722656 84.984375 65.203125 84.351562 64.746094 83.667969 C 64.292969 82.984375 63.90625 82.265625 63.59375 81.507812 C 63.277344 80.746094 63.039062 79.964844 62.878906 79.160156 C 62.71875 78.355469 62.640625 77.542969 62.640625 76.722656 C 62.640625 75.898438 62.71875 75.085938 62.878906 74.28125 C 63.039062 73.476562 63.277344 72.695312 63.59375 71.933594 C 63.90625 71.175781 64.292969 70.457031 64.746094 69.773438 C 65.203125 69.089844 65.722656 68.457031 66.304688 67.878906 C 66.882812 67.296875 67.515625 66.78125 68.199219 66.324219 C 68.878906 65.867188 69.601562 65.480469 70.359375 65.167969 C 71.117188 64.851562 71.902344 64.617188 72.707031 64.457031 C 73.511719 64.296875 74.324219 64.214844 75.144531 64.214844 C 75.964844 64.214844 76.78125 64.296875 77.585938 64.457031 C 78.390625 64.617188 79.171875 64.851562 79.929688 65.167969 C 80.691406 65.480469 81.410156 65.867188 82.09375 66.324219 C 82.777344 66.78125 83.40625 67.296875 83.988281 67.878906 C 84.570312 68.457031 85.085938 69.089844 85.542969 69.773438 C 86 70.457031 86.382812 71.175781 86.699219 71.933594 C 87.011719 72.695312 87.25 73.476562 87.410156 74.28125 C 87.570312 75.085938 87.652344 75.898438 87.652344 76.722656 Z M 87.652344 76.722656 " fill-opacity="1" fill-rule="nonzero"/></g><g clip-path="url(#4a3e659e09)"><path fill="#f09020" d="M 90.921875 80.660156 C 90.921875 81.179688 90.894531 81.695312 90.84375 82.214844 C 90.792969 82.730469 90.71875 83.242188 90.617188 83.753906 C 90.515625 84.261719 90.390625 84.765625 90.238281 85.261719 C 90.089844 85.757812 89.914062 86.246094 89.714844 86.726562 C 89.515625 87.207031 89.296875 87.675781 89.050781 88.132812 C 88.804688 88.589844 88.539062 89.035156 88.25 89.464844 C 87.960938 89.898438 87.652344 90.3125 87.324219 90.714844 C 86.996094 91.117188 86.648438 91.5 86.28125 91.867188 C 85.914062 92.234375 85.527344 92.582031 85.125 92.914062 C 84.726562 93.242188 84.308594 93.550781 83.878906 93.839844 C 83.445312 94.128906 83 94.394531 82.542969 94.640625 C 82.085938 94.882812 81.617188 95.105469 81.136719 95.304688 C 80.65625 95.503906 80.167969 95.675781 79.671875 95.828125 C 79.175781 95.980469 78.671875 96.105469 78.164062 96.207031 C 77.65625 96.308594 77.140625 96.382812 76.625 96.433594 C 76.109375 96.484375 75.589844 96.511719 75.070312 96.511719 C 74.550781 96.511719 74.035156 96.484375 73.519531 96.433594 C 73 96.382812 72.488281 96.308594 71.980469 96.207031 C 71.46875 96.105469 70.96875 95.980469 70.46875 95.828125 C 69.972656 95.675781 69.484375 95.503906 69.003906 95.304688 C 68.527344 95.105469 68.058594 94.882812 67.601562 94.640625 C 67.140625 94.394531 66.695312 94.128906 66.265625 93.839844 C 65.832031 93.550781 65.417969 93.242188 65.015625 92.914062 C 64.613281 92.582031 64.230469 92.234375 63.863281 91.867188 C 63.496094 91.5 63.148438 91.117188 62.820312 90.714844 C 62.488281 90.3125 62.179688 89.898438 61.890625 89.464844 C 61.605469 89.035156 61.335938 88.589844 61.09375 88.132812 C 60.847656 87.675781 60.625 87.207031 60.425781 86.726562 C 60.230469 86.246094 60.054688 85.757812 59.902344 85.261719 C 59.753906 84.765625 59.625 84.261719 59.527344 83.753906 C 59.425781 83.242188 59.347656 82.730469 59.296875 82.214844 C 59.246094 81.695312 59.222656 81.179688 59.222656 80.660156 C 59.222656 80.140625 59.246094 79.625 59.296875 79.105469 C 59.347656 78.589844 59.425781 78.078125 59.527344 77.566406 C 59.625 77.058594 59.753906 76.554688 59.902344 76.058594 C 60.054688 75.5625 60.230469 75.074219 60.425781 74.59375 C 60.625 74.113281 60.847656 73.644531 61.09375 73.1875 C 61.335938 72.730469 61.605469 72.285156 61.890625 71.855469 C 62.179688 71.421875 62.488281 71.007812 62.820312 70.605469 C 63.148438 70.203125 63.496094 69.820312 63.863281 69.453125 C 64.230469 69.085938 64.613281 68.738281 65.015625 68.40625 C 65.417969 68.078125 65.832031 67.769531 66.265625 67.480469 C 66.695312 67.191406 67.140625 66.925781 67.601562 66.679688 C 68.058594 66.4375 68.527344 66.214844 69.003906 66.015625 C 69.484375 65.816406 69.972656 65.644531 70.46875 65.492188 C 70.96875 65.339844 71.46875 65.214844 71.980469 65.113281 C 72.488281 65.011719 73 64.9375 73.519531 64.886719 C 74.035156 64.835938 74.550781 64.808594 75.070312 64.808594 C 75.589844 64.808594 76.109375 64.835938 76.625 64.886719 C 77.140625 64.9375 77.65625 65.011719 78.164062 65.113281 C 78.671875 65.214844 79.175781 65.339844 79.671875 65.492188 C 80.167969 65.644531 80.65625 65.816406 81.136719 66.015625 C 81.617188 66.214844 82.085938 66.4375 82.542969 66.679688 C 83 66.925781 83.445312 67.191406 83.878906 67.480469 C 84.308594 67.769531 84.726562 68.078125 85.125 68.40625 C 85.527344 68.738281 85.914062 69.085938 86.28125 69.453125 C 86.648438 69.820312 86.996094 70.203125 87.324219 70.605469 C 87.652344 71.007812 87.960938 71.421875 88.25 71.855469 C 88.539062 72.285156 88.804688 72.730469 89.050781 73.1875 C 89.296875 73.644531 89.515625 74.113281 89.714844 74.59375 C 89.914062 75.074219 90.089844 75.5625 90.238281 76.058594 C 90.390625 76.554688 90.515625 77.058594 90.617188 77.566406 C 90.71875 78.078125 90.792969 78.589844 90.84375 79.105469 C 90.894531 79.625 90.921875 80.140625 90.921875 80.660156 Z M 90.921875 80.660156 " fill-opacity="1" fill-rule="nonzero"/></g><g clip-path="url(#bdac020e12)"><g clip-path="url(#ace14d2d2c)"><path fill="#ffffff" d="M 78.925781 67.507812 L 85.527344 67.507812 L 85.527344 73.085938 L 78.925781 73.085938 Z M 78.925781 67.507812 " fill-opacity="1" fill-rule="nonzero"/></g></g><g clip-path="url(#d90703c93a)"><g clip-path="url(#41f0ded139)"><path fill="#ffffff" d="M 84.71875 74.015625 L 87.558594 74.015625 L 87.558594 76.855469 L 84.71875 76.855469 Z M 84.71875 74.015625 " fill-opacity="1" fill-rule="nonzero"/></g></g><path stroke-linecap="round" transform="matrix(-0.282256, 0.00000000049263, -0.00000000049263, -0.282256, 66.972245, 77.442141)" fill="none" stroke-linejoin="miter" d="M 1.493194 1.497258 L 17.449999 1.497258 " stroke="#c8831a" stroke-width="3" stroke-opacity="1" stroke-miterlimit="4"/><path stroke-linecap="round" transform="matrix(-0.282256, -0.00000000049263, 0.00000000049263, -0.282256, 66.974551, 74.453158)" fill="none" stroke-linejoin="miter" d="M 1.501366 1.494769 L 10.510802 1.494769 " stroke="#c8831a" stroke-width="3" stroke-opacity="1" stroke-miterlimit="4"/><path stroke-linecap="round" transform="matrix(-0.282256, -0.00000000049263, 0.00000000049263, -0.282256, 66.974865, 71.689246)" fill="none" stroke-linejoin="miter" d="M 1.50248 1.500838 L 5.460542 1.500838 " stroke="#c8831a" stroke-width="3" stroke-opacity="1" stroke-miterlimit="4"/><g clip-path="url(#32fc393dc6)"><g clip-path="url(#dd6e651d58)"><g clip-path="url(#3475face02)"><g clip-path="url(#174289ae6d)"><path fill="#c6302c" d="M 71.964844 22.917969 C 65.195312 5.464844 43.109375 9.125 40.71875 27.011719 C 32.242188 11.082031 10.265625 15.347656 10.003906 34.066406 C 9.769531 51.046875 48.597656 70.785156 48.597656 70.785156 C 48.597656 70.785156 78.105469 38.75 71.964844 22.917969 Z M 71.964844 22.917969 " fill-opacity="1" fill-rule="nonzero"/></g></g></g></g><g clip-path="url(#05da3a8e45)"><g clip-path="url(#a56f3561ae)"><g clip-path="url(#80d10bdca0)"><g clip-path="url(#bbd398c757)"><path fill="#c6302c" d="M 140.210938 34.265625 C 140.046875 15.546875 118.089844 11.167969 109.535156 27.054688 C 107.238281 9.15625 85.167969 5.378906 78.308594 22.796875 C 72.085938 38.601562 101.433594 70.789062 101.433594 70.789062 C 101.433594 70.789062 140.359375 51.25 140.210938 34.265625 Z M 140.210938 34.265625 " fill-opacity="1" fill-rule="nonzero"/></g></g></g></g></svg>