<svg xmlns="http://www.w3.org/2000/svg" xmlns:xlink="http://www.w3.org/1999/xlink" width="1080" zoomAndPan="magnify" viewBox="0 0 810 809.999993" height="1080" preserveAspectRatio="xMidYMid meet" version="1.0"><defs><clipPath id="25149bf221"><path d="M 203.421875 307.410156 L 459 307.410156 L 459 551.546875 L 203.421875 551.546875 Z M 203.421875 307.410156 " clip-rule="nonzero"/></clipPath><clipPath id="0faf3460b2"><path d="M 330.972656 307.410156 C 260.53125 307.410156 203.421875 362.0625 203.421875 429.476562 C 203.421875 496.894531 260.53125 551.546875 330.972656 551.546875 C 401.417969 551.546875 458.527344 496.894531 458.527344 429.476562 C 458.527344 362.0625 401.417969 307.410156 330.972656 307.410156 Z M 330.972656 307.410156 " clip-rule="nonzero"/></clipPath><clipPath id="39e9a7e48a"><path d="M 368 549 L 421 549 L 421 598 L 368 598 Z M 368 549 " clip-rule="nonzero"/></clipPath><clipPath id="c77043013f"><path d="M 429.632812 570.8125 L 383.378906 607.582031 L 358.867188 576.746094 L 405.121094 539.976562 Z M 429.632812 570.8125 " clip-rule="nonzero"/></clipPath><clipPath id="c13fe18549"><path d="M 406.558594 589.15625 C 419.300781 579.023438 424.144531 563.90625 417.375 555.394531 C 410.605469 546.878906 394.789062 548.1875 382.046875 558.320312 C 369.300781 568.449219 364.457031 583.566406 371.226562 592.082031 C 377.996094 600.59375 393.816406 599.285156 406.558594 589.15625 Z M 406.558594 589.15625 " clip-rule="nonzero"/></clipPath><clipPath id="f4201bda5c"><path d="M 379 547 L 439 547 L 439 588 L 379 588 Z M 379 547 " clip-rule="nonzero"/></clipPath><clipPath id="87eb901706"><path d="M 440.894531 582.910156 L 382.480469 591.800781 L 376.554688 552.859375 L 434.96875 543.96875 Z M 440.894531 582.910156 " clip-rule="nonzero"/></clipPath><clipPath id="b1221ab910"><path d="M 411.753906 587.347656 C 427.847656 584.898438 439.570312 574.195312 437.933594 563.441406 C 436.296875 552.6875 421.921875 545.953125 405.828125 548.402344 C 389.734375 550.851562 378.011719 561.554688 379.648438 572.3125 C 381.285156 583.066406 395.660156 589.796875 411.753906 587.347656 Z M 411.753906 587.347656 " clip-rule="nonzero"/></clipPath><clipPath id="5e79efde6c"><path d="M 238 550 L 298 550 L 298 590 L 238 590 Z M 238 550 " clip-rule="nonzero"/></clipPath><clipPath id="feb697754a"><path d="M 298.011719 589.589844 L 238.925781 590.375 L 238.402344 550.988281 L 297.484375 550.203125 Z M 298.011719 589.589844 " clip-rule="nonzero"/></clipPath><clipPath id="0da0a276cd"><path d="M 268.535156 589.980469 C 284.8125 589.765625 297.894531 580.773438 297.75 569.894531 C 297.601562 559.019531 284.289062 550.378906 268.011719 550.59375 C 251.734375 550.808594 238.65625 559.804688 238.800781 570.679688 C 238.945312 581.558594 252.257812 590.199219 268.535156 589.980469 Z M 268.535156 589.980469 " clip-rule="nonzero"/></clipPath><clipPath id="baab03f4c6"><path d="M 255 552 L 311 552 L 311 597 L 255 597 Z M 255 552 " clip-rule="nonzero"/></clipPath><clipPath id="742f068534"><path d="M 299.515625 606.054688 L 247.871094 577.34375 L 267.007812 542.914062 L 318.652344 571.621094 Z M 299.515625 606.054688 " clip-rule="nonzero"/></clipPath><clipPath id="daddf5075f"><path d="M 273.75 591.730469 C 287.980469 599.640625 303.800781 598.347656 309.085938 588.839844 C 314.371094 579.332031 307.117188 565.210938 292.890625 557.300781 C 278.660156 549.390625 262.839844 550.6875 257.554688 560.195312 C 252.269531 569.703125 259.523438 583.820312 273.75 591.730469 Z M 273.75 591.730469 " clip-rule="nonzero"/></clipPath><clipPath id="21b67b124a"><path d="M 277.183594 384.347656 L 452 384.347656 L 452 533.179688 L 277.183594 533.179688 Z M 277.183594 384.347656 " clip-rule="nonzero"/></clipPath><clipPath id="6dd703fdb3"><path d="M 364.496094 384.347656 C 316.277344 384.347656 277.183594 417.664062 277.183594 458.761719 C 277.183594 499.863281 316.277344 533.179688 364.496094 533.179688 C 412.71875 533.179688 451.8125 499.863281 451.8125 458.761719 C 451.8125 417.664062 412.71875 384.347656 364.496094 384.347656 Z M 364.496094 384.347656 " clip-rule="nonzero"/></clipPath><clipPath id="567086e578"><path d="M 297.472656 346.75 L 356.136719 346.75 L 356.136719 422 L 297.472656 422 Z M 297.472656 346.75 " clip-rule="nonzero"/></clipPath><clipPath id="14d49efa12"><path d="M 326.804688 346.75 C 334.582031 346.75 342.042969 349.839844 347.542969 355.339844 C 353.046875 360.84375 356.136719 368.300781 356.136719 376.082031 L 356.136719 392.609375 C 356.136719 400.390625 353.046875 407.851562 347.542969 413.351562 C 342.042969 418.851562 334.582031 421.941406 326.804688 421.941406 C 319.027344 421.941406 311.566406 418.851562 306.066406 413.351562 C 300.5625 407.851562 297.472656 400.390625 297.472656 392.609375 L 297.472656 376.082031 C 297.472656 368.300781 300.5625 360.84375 306.066406 355.339844 C 311.566406 349.839844 319.027344 346.75 326.804688 346.75 Z M 326.804688 346.75 " clip-rule="nonzero"/></clipPath><clipPath id="68adb1ccb7"><path d="M 368.84375 346.75 L 427.507812 346.75 L 427.507812 422 L 368.84375 422 Z M 368.84375 346.75 " clip-rule="nonzero"/></clipPath><clipPath id="da6400a91f"><path d="M 398.175781 346.75 C 405.957031 346.75 413.414062 349.839844 418.917969 355.339844 C 424.417969 360.84375 427.507812 368.300781 427.507812 376.082031 L 427.507812 392.609375 C 427.507812 400.390625 424.417969 407.851562 418.917969 413.351562 C 413.414062 418.851562 405.957031 421.941406 398.175781 421.941406 C 390.398438 421.941406 382.9375 418.851562 377.4375 413.351562 C 371.9375 407.851562 368.84375 400.390625 368.84375 392.609375 L 368.84375 376.082031 C 368.84375 368.300781 371.9375 360.84375 377.4375 355.339844 C 382.9375 349.839844 390.398438 346.75 398.175781 346.75 Z M 398.175781 346.75 " clip-rule="nonzero"/></clipPath><clipPath id="e1059f2cef"><path d="M 381.40625 362.042969 L 414.945312 362.042969 L 414.945312 408.425781 L 381.40625 408.425781 Z M 381.40625 362.042969 " clip-rule="nonzero"/></clipPath><clipPath id="e1663b0940"><path d="M 398.175781 362.042969 C 402.625 362.042969 406.890625 363.808594 410.035156 366.953125 C 413.179688 370.101562 414.945312 374.367188 414.945312 378.8125 L 414.945312 391.535156 C 414.945312 395.984375 413.179688 400.25 410.035156 403.394531 C 406.890625 406.539062 402.625 408.304688 398.175781 408.304688 C 393.726562 408.304688 389.460938 406.539062 386.316406 403.394531 C 383.171875 400.25 381.40625 395.984375 381.40625 391.535156 L 381.40625 378.8125 C 381.40625 374.367188 383.171875 370.101562 386.316406 366.953125 C 389.460938 363.808594 393.726562 362.042969 398.175781 362.042969 Z M 398.175781 362.042969 " clip-rule="nonzero"/></clipPath><clipPath id="343b371bf5"><path d="M 379 398 L 444 398 L 444 435 L 379 435 Z M 379 398 " clip-rule="nonzero"/></clipPath><clipPath id="f502c2e8c7"><path d="M 375.144531 409.570312 L 438.710938 392.140625 L 447.375 423.742188 L 383.808594 441.167969 Z M 375.144531 409.570312 " clip-rule="nonzero"/></clipPath><clipPath id="a218208691"><path d="M 406.914062 400.859375 C 389.367188 405.671875 377.082031 416.644531 379.476562 425.371094 C 381.867188 434.09375 398.03125 437.269531 415.578125 432.457031 C 433.125 427.648438 445.410156 416.675781 443.019531 407.949219 C 440.628906 399.222656 424.464844 396.050781 406.914062 400.859375 Z M 406.914062 400.859375 " clip-rule="nonzero"/></clipPath><clipPath id="28d69c6bb7"><path d="M 395.519531 362.042969 L 410.449219 362.042969 L 410.449219 379.128906 L 395.519531 379.128906 Z M 395.519531 362.042969 " clip-rule="nonzero"/></clipPath><clipPath id="6ecc2bfa54"><path d="M 402.984375 362.042969 C 407.105469 362.042969 410.449219 365.386719 410.449219 369.507812 L 410.449219 371.660156 C 410.449219 375.78125 407.105469 379.121094 402.984375 379.121094 C 398.859375 379.121094 395.519531 375.78125 395.519531 371.660156 L 395.519531 369.507812 C 395.519531 365.386719 398.859375 362.042969 402.984375 362.042969 Z M 402.984375 362.042969 " clip-rule="nonzero"/></clipPath><clipPath id="57b0372be6"><path d="M 308.960938 361.214844 L 342.503906 361.214844 L 342.503906 407.59375 L 308.960938 407.59375 Z M 308.960938 361.214844 " clip-rule="nonzero"/></clipPath><clipPath id="76cd11862b"><path d="M 325.730469 361.214844 C 330.179688 361.214844 334.445312 362.980469 337.589844 366.125 C 340.734375 369.269531 342.503906 373.535156 342.503906 377.984375 L 342.503906 390.707031 C 342.503906 395.15625 340.734375 399.421875 337.589844 402.566406 C 334.445312 405.710938 330.179688 407.476562 325.730469 407.476562 C 321.285156 407.476562 317.019531 405.710938 313.871094 402.566406 C 310.726562 399.421875 308.960938 395.15625 308.960938 390.707031 L 308.960938 377.984375 C 308.960938 373.535156 310.726562 369.269531 313.871094 366.125 C 317.019531 362.980469 321.285156 361.214844 325.730469 361.214844 Z M 325.730469 361.214844 " clip-rule="nonzero"/></clipPath><clipPath id="ed63d7a5e8"><path d="M 324.542969 361.214844 L 339.46875 361.214844 L 339.46875 378.300781 L 324.542969 378.300781 Z M 324.542969 361.214844 " clip-rule="nonzero"/></clipPath><clipPath id="23e0087056"><path d="M 332.003906 361.214844 C 336.128906 361.214844 339.46875 364.554688 339.46875 368.679688 L 339.46875 370.828125 C 339.46875 374.953125 336.128906 378.292969 332.003906 378.292969 C 327.882812 378.292969 324.542969 374.953125 324.542969 370.828125 L 324.542969 368.679688 C 324.542969 364.554688 327.882812 361.214844 332.003906 361.214844 Z M 332.003906 361.214844 " clip-rule="nonzero"/></clipPath><clipPath id="c7cf0ddd12"><path d="M 299 400 L 365 400 L 365 437 L 299 437 Z M 299 400 " clip-rule="nonzero"/></clipPath><clipPath id="8778e9a98e"><path d="M 304.359375 394.628906 L 368.117188 411.34375 L 359.8125 443.039062 L 296.050781 426.324219 Z M 304.359375 394.628906 " clip-rule="nonzero"/></clipPath><clipPath id="3147b15011"><path d="M 336.226562 402.984375 C 318.625 398.371094 302.5 401.726562 300.203125 410.476562 C 297.910156 419.230469 310.320312 430.066406 327.917969 434.679688 C 345.519531 439.292969 361.644531 435.9375 363.941406 427.183594 C 366.234375 418.433594 353.828125 407.597656 336.226562 402.984375 Z M 336.226562 402.984375 " clip-rule="nonzero"/></clipPath><clipPath id="a99ea68075"><path d="M 340.527344 423.96875 L 384.777344 423.96875 L 384.777344 443.46875 L 340.527344 443.46875 Z M 340.527344 423.96875 " clip-rule="nonzero"/></clipPath><clipPath id="67564607b3"><path d="M 334.484375 400.371094 L 390.734375 400.371094 L 390.734375 428.121094 L 334.484375 428.121094 Z M 334.484375 400.371094 " clip-rule="nonzero"/></clipPath><clipPath id="ba0d707dc8"><path d="M 369.761719 405.597656 L 380.503906 405.597656 L 380.503906 414.53125 L 369.761719 414.53125 Z M 369.761719 405.597656 " clip-rule="nonzero"/></clipPath><clipPath id="ae621b36c0"><path d="M 372.414062 405.695312 C 376.109375 407.339844 377.601562 408.351562 378.519531 409.207031 C 379.257812 409.894531 379.972656 410.777344 380.257812 411.308594 C 380.402344 411.582031 380.4375 411.761719 380.464844 411.996094 C 380.492188 412.230469 380.476562 412.476562 380.425781 412.710938 C 380.375 412.941406 380.296875 413.175781 380.179688 413.382812 C 380.0625 413.589844 379.90625 413.773438 379.726562 413.929688 C 379.542969 414.082031 379.335938 414.214844 379.117188 414.304688 C 378.894531 414.394531 378.648438 414.460938 378.417969 414.472656 C 378.183594 414.484375 377.9375 414.472656 377.703125 414.40625 C 377.484375 414.34375 377.25 414.253906 377.054688 414.121094 C 376.859375 413.992188 376.667969 413.8125 376.523438 413.628906 C 376.382812 413.449219 376.265625 413.226562 376.1875 413.007812 C 376.109375 412.789062 376.058594 412.539062 376.058594 412.308594 C 376.058594 412.074219 376.082031 411.816406 376.160156 411.59375 C 376.238281 411.375 376.34375 411.140625 376.484375 410.960938 C 376.628906 410.765625 376.808594 410.597656 377.003906 410.464844 C 377.199219 410.335938 377.417969 410.21875 377.640625 410.15625 C 377.859375 410.089844 378.117188 410.050781 378.351562 410.0625 C 378.585938 410.078125 378.832031 410.128906 379.050781 410.207031 C 379.273438 410.296875 379.492188 410.414062 379.675781 410.570312 C 379.855469 410.710938 380.023438 410.90625 380.140625 411.101562 C 380.269531 411.296875 380.363281 411.53125 380.414062 411.761719 C 380.464844 411.996094 380.492188 412.242188 380.464844 412.476562 C 380.4375 412.710938 380.375 412.957031 380.285156 413.164062 C 380.191406 413.382812 380.050781 413.589844 379.894531 413.757812 C 379.738281 413.929688 379.542969 414.082031 379.335938 414.199219 C 379.128906 414.316406 378.894531 414.40625 378.664062 414.445312 C 378.429688 414.484375 378.183594 414.5 377.949219 414.460938 C 377.714844 414.421875 377.46875 414.34375 377.261719 414.238281 C 377.054688 414.136719 376.898438 414.019531 376.691406 413.8125 C 376.355469 413.472656 376.042969 412.851562 375.5 412.332031 C 374.683594 411.554688 372.90625 410.296875 372.023438 409.84375 C 371.542969 409.597656 371.128906 409.585938 370.84375 409.429688 C 370.664062 409.339844 370.558594 409.246094 370.441406 409.128906 C 370.324219 409.015625 370.222656 408.921875 370.132812 408.753906 C 370 408.519531 369.847656 408.144531 369.820312 407.835938 C 369.792969 407.523438 369.886719 407.109375 369.976562 406.863281 C 370.039062 406.679688 370.105469 406.578125 370.222656 406.433594 C 370.390625 406.226562 370.742188 405.953125 370.972656 405.824219 C 371.144531 405.734375 371.257812 405.683594 371.441406 405.65625 C 371.699219 405.617188 372.414062 405.695312 372.414062 405.695312 " clip-rule="nonzero"/></clipPath><clipPath id="ade08a9b53"><path d="M 380.023438 417.089844 L 383.980469 417.089844 L 383.980469 421.164062 L 380.023438 421.164062 Z M 380.023438 417.089844 " clip-rule="nonzero"/></clipPath><clipPath id="4e5a142d51"><path d="M 383.980469 418.542969 C 383.980469 419.800781 383.835938 420.125 383.640625 420.371094 C 383.449219 420.617188 383.175781 420.839844 382.890625 420.96875 C 382.605469 421.097656 382.253906 421.148438 381.945312 421.136719 C 381.632812 421.125 381.296875 421.007812 381.023438 420.851562 C 380.75 420.695312 380.492188 420.4375 380.335938 420.179688 C 380.167969 419.90625 380.0625 419.570312 380.050781 419.257812 C 380.039062 418.945312 380.101562 418.597656 380.230469 418.3125 C 380.363281 418.027344 380.570312 417.753906 380.816406 417.558594 C 381.0625 417.363281 381.386719 417.207031 381.695312 417.15625 C 382.007812 417.105469 382.359375 417.128906 382.65625 417.222656 C 382.953125 417.3125 383.484375 417.714844 383.484375 417.714844 " clip-rule="nonzero"/></clipPath><clipPath id="6516cdc687"><path d="M 315 260 L 335 260 L 335 283 L 315 283 Z M 315 260 " clip-rule="nonzero"/></clipPath><clipPath id="e422099969"><path d="M 298.019531 262.941406 L 335.394531 259.890625 L 337.226562 282.316406 L 299.847656 285.367188 Z M 298.019531 262.941406 " clip-rule="nonzero"/></clipPath><clipPath id="9775a7d32a"><path d="M 298.019531 262.941406 L 335.394531 259.890625 L 337.226562 282.316406 L 299.847656 285.367188 Z M 298.019531 262.941406 " clip-rule="nonzero"/></clipPath><clipPath id="9762bca62b"><path d="M 298.019531 262.941406 L 335.394531 259.890625 L 337.226562 282.316406 L 299.847656 285.367188 Z M 298.019531 262.941406 " clip-rule="nonzero"/></clipPath><clipPath id="3efa11dc14"><path d="M 299 268 L 315 268 L 315 284 L 299 284 Z M 299 268 " clip-rule="nonzero"/></clipPath><clipPath id="e7772dbcdd"><path d="M 298.019531 262.941406 L 335.394531 259.890625 L 337.226562 282.316406 L 299.847656 285.367188 Z M 298.019531 262.941406 " clip-rule="nonzero"/></clipPath><clipPath id="888f898033"><path d="M 298.019531 262.941406 L 335.394531 259.890625 L 337.226562 282.316406 L 299.847656 285.367188 Z M 298.019531 262.941406 " clip-rule="nonzero"/></clipPath><clipPath id="d071c53171"><path d="M 298.019531 262.941406 L 335.394531 259.890625 L 337.226562 282.316406 L 299.847656 285.367188 Z M 298.019531 262.941406 " clip-rule="nonzero"/></clipPath><clipPath id="d5e94e37a8"><path d="M 447 493 L 485 493 L 485 581 L 447 581 Z M 447 493 " clip-rule="nonzero"/></clipPath><clipPath id="f4f548dfe8"><path d="M 459.476562 493.539062 L 484.96875 497.121094 L 473.175781 581.070312 L 447.679688 577.488281 Z M 459.476562 493.539062 " clip-rule="nonzero"/></clipPath><clipPath id="1b36026e71"><path d="M 459.476562 493.539062 L 484.96875 497.121094 L 473.183594 581 L 447.691406 577.417969 Z M 459.476562 493.539062 " clip-rule="nonzero"/></clipPath><clipPath id="5d651969aa"><path d="M 425 563 L 465 563 L 465 603 L 425 603 Z M 425 563 " clip-rule="nonzero"/></clipPath><clipPath id="a40de2c0d0"><path d="M 437.992188 555.9375 L 472.117188 577.40625 L 451.761719 609.761719 L 417.636719 588.292969 Z M 437.992188 555.9375 " clip-rule="nonzero"/></clipPath><clipPath id="2b4633dc48"><path d="M 455.042969 566.664062 C 445.625 560.742188 433.433594 563.179688 427.816406 572.117188 C 422.195312 581.050781 425.269531 593.097656 434.6875 599.019531 C 444.105469 604.945312 456.292969 602.503906 461.914062 593.566406 C 467.535156 584.632812 464.457031 572.585938 455.042969 566.664062 Z M 455.042969 566.664062 " clip-rule="nonzero"/></clipPath><clipPath id="818169b48f"><path d="M 453 566 L 497 566 L 497 607 L 453 607 Z M 453 566 " clip-rule="nonzero"/></clipPath><clipPath id="78d955154f"><path d="M 466.648438 558.226562 L 504.3125 581.917969 L 483.957031 614.273438 L 446.292969 590.582031 Z M 466.648438 558.226562 " clip-rule="nonzero"/></clipPath><clipPath id="18da2a83bf"><path d="M 485.433594 570.042969 C 475.058594 563.515625 462.09375 565.46875 456.472656 574.402344 C 450.851562 583.339844 454.707031 595.871094 465.082031 602.398438 C 475.457031 608.925781 488.425781 606.976562 494.046875 598.039062 C 499.667969 589.105469 495.8125 576.570312 485.433594 570.042969 Z M 485.433594 570.042969 " clip-rule="nonzero"/></clipPath><clipPath id="07bfb1b8cd"><path d="M 433 557 L 457 557 L 457 575 L 433 575 Z M 433 557 " clip-rule="nonzero"/></clipPath><clipPath id="9318b84934"><path d="M 433.507812 566.378906 L 452.488281 557.039062 L 456.242188 564.667969 L 437.261719 574.003906 Z M 433.507812 566.378906 " clip-rule="nonzero"/></clipPath><clipPath id="f1d6c79e7b"><path d="M 433.507812 566.378906 L 452.476562 557.042969 L 456.230469 564.671875 L 437.261719 574.003906 Z M 433.507812 566.378906 " clip-rule="nonzero"/></clipPath><clipPath id="7807c227eb"><path d="M 469 558 L 491 558 L 491 581 L 469 581 Z M 469 558 " clip-rule="nonzero"/></clipPath><clipPath id="3d352dbfef"><path d="M 476.277344 558.976562 L 490.496094 574.636719 L 484.203125 580.351562 L 469.984375 564.691406 Z M 476.277344 558.976562 " clip-rule="nonzero"/></clipPath><clipPath id="fdc679aa33"><path d="M 476.277344 558.976562 L 490.488281 574.628906 L 484.195312 580.339844 L 469.984375 564.691406 Z M 476.277344 558.976562 " clip-rule="nonzero"/></clipPath><clipPath id="8408cee4c3"><path d="M 399.214844 226.441406 L 597.429688 226.441406 L 597.429688 424.652344 L 399.214844 424.652344 Z M 399.214844 226.441406 " clip-rule="nonzero"/></clipPath><clipPath id="ec66310cc0"><path d="M 498.320312 226.441406 C 443.585938 226.441406 399.214844 270.8125 399.214844 325.546875 C 399.214844 380.28125 443.585938 424.652344 498.320312 424.652344 C 553.054688 424.652344 597.429688 380.28125 597.429688 325.546875 C 597.429688 270.8125 553.054688 226.441406 498.320312 226.441406 Z M 498.320312 226.441406 " clip-rule="nonzero"/></clipPath><clipPath id="acd5f5d801"><path d="M 397 260 L 518 260 L 518 457 L 397 457 Z M 397 260 " clip-rule="nonzero"/></clipPath><clipPath id="95df6c133e"><path d="M 382.042969 271.933594 L 495.859375 249.941406 L 533.484375 444.675781 L 419.667969 466.664062 Z M 382.042969 271.933594 " clip-rule="nonzero"/></clipPath><clipPath id="dc974d99bb"><path d="M 438.949219 260.9375 C 407.519531 267.007812 390.460938 315.5 400.84375 369.238281 C 411.226562 422.980469 445.121094 461.625 476.550781 455.550781 C 507.980469 449.480469 525.042969 400.992188 514.660156 347.25 C 504.277344 293.507812 470.378906 254.863281 438.949219 260.9375 Z M 438.949219 260.9375 " clip-rule="nonzero"/></clipPath><clipPath id="785aab70ae"><path d="M 450 281 L 595 281 L 595 461 L 450 461 Z M 450 281 " clip-rule="nonzero"/></clipPath><clipPath id="8dbe3a1842"><path d="M 526.554688 256.101562 L 624.675781 317.824219 L 519.066406 485.703125 L 420.945312 423.980469 Z M 526.554688 256.101562 " clip-rule="nonzero"/></clipPath><clipPath id="a2d837879c"><path d="M 575.613281 286.960938 C 548.519531 269.917969 502.925781 293.660156 473.78125 339.988281 C 444.636719 386.320312 442.976562 437.695312 470.070312 454.742188 C 497.167969 471.785156 542.757812 448.042969 571.902344 401.714844 C 601.046875 355.382812 602.710938 304.007812 575.613281 286.960938 Z M 575.613281 286.960938 " clip-rule="nonzero"/></clipPath><clipPath id="a3689c2ba3"><path d="M 433 490 L 462 490 L 462 518 L 433 518 Z M 433 490 " clip-rule="nonzero"/></clipPath><clipPath id="b8e8a66920"><path d="M 442.988281 484.785156 L 466.960938 499.863281 L 452.449219 522.933594 L 428.476562 507.855469 Z M 442.988281 484.785156 " clip-rule="nonzero"/></clipPath><clipPath id="c942cc5bc9"><path d="M 454.945312 492.304688 C 448.34375 488.152344 439.742188 489.949219 435.734375 496.320312 C 431.726562 502.691406 433.828125 511.222656 440.429688 515.375 C 447.035156 519.53125 455.636719 517.730469 459.644531 511.359375 C 463.652344 504.992188 461.546875 496.457031 454.945312 492.304688 Z M 454.945312 492.304688 " clip-rule="nonzero"/></clipPath><clipPath id="9e78b88c0d"><path d="M 491 492 L 512 492 L 512 513 L 491 513 Z M 491 492 " clip-rule="nonzero"/></clipPath><clipPath id="2d960c8f36"><path d="M 498.351562 488.46875 L 515.6875 499.371094 L 505.074219 516.246094 L 487.738281 505.339844 Z M 498.351562 488.46875 " clip-rule="nonzero"/></clipPath><clipPath id="21dbe3cee3"><path d="M 506.992188 493.902344 C 502.222656 490.902344 495.976562 492.246094 493.046875 496.902344 C 490.113281 501.5625 491.605469 507.773438 496.378906 510.777344 C 501.152344 513.777344 507.394531 512.433594 510.328125 507.773438 C 513.257812 503.117188 511.765625 496.90625 506.992188 493.902344 Z M 506.992188 493.902344 " clip-rule="nonzero"/></clipPath><clipPath id="4ee5a78d77"><path d="M 514 410 L 564 410 L 564 460 L 514 460 Z M 514 410 " clip-rule="nonzero"/></clipPath><clipPath id="ef3145c1a8"><path d="M 558.761719 407.039062 L 567.101562 415.382812 L 519.03125 463.453125 L 510.691406 455.109375 Z M 558.761719 407.039062 " clip-rule="nonzero"/></clipPath><clipPath id="6f718c0b79"><path d="M 562.929688 411.210938 C 560.628906 408.90625 548 417.796875 534.730469 431.070312 C 521.460938 444.339844 512.570312 456.964844 514.871094 459.269531 C 517.175781 461.574219 529.800781 452.683594 543.074219 439.410156 C 556.34375 426.140625 565.234375 413.515625 562.929688 411.210938 Z M 562.929688 411.210938 " clip-rule="nonzero"/></clipPath><clipPath id="5df4a5b2da"><path d="M 404 280 L 525 280 L 525 477 L 404 477 Z M 404 280 " clip-rule="nonzero"/></clipPath><clipPath id="930f064559"><path d="M 388.988281 291.976562 L 502.804688 269.984375 L 540.429688 464.71875 L 426.613281 486.707031 Z M 388.988281 291.976562 " clip-rule="nonzero"/></clipPath><clipPath id="f7b44aad22"><path d="M 445.898438 280.980469 C 414.46875 287.054688 397.40625 335.542969 407.789062 389.28125 C 418.171875 443.023438 452.070312 481.667969 483.5 475.59375 C 514.929688 469.523438 531.988281 421.035156 521.605469 367.292969 C 511.222656 313.550781 477.328125 274.90625 445.898438 280.980469 Z M 445.898438 280.980469 " clip-rule="nonzero"/></clipPath><clipPath id="dddc26f92f"><path d="M 417 357 L 492 357 L 492 470 L 417 470 Z M 417 357 " clip-rule="nonzero"/></clipPath><clipPath id="256bd3d40d"><path d="M 408.140625 365.941406 L 478.1875 351.027344 L 501.726562 461.566406 L 431.679688 476.480469 Z M 408.140625 365.941406 " clip-rule="nonzero"/></clipPath><clipPath id="f83dc9f47c"><path d="M 443.164062 358.484375 C 423.824219 362.605469 413.402344 390.648438 419.890625 421.125 C 426.382812 451.597656 447.324219 472.964844 466.664062 468.847656 C 486.007812 464.726562 496.425781 436.683594 489.9375 406.207031 C 483.449219 375.734375 462.507812 354.367188 443.164062 358.484375 Z M 443.164062 358.484375 " clip-rule="nonzero"/></clipPath><clipPath id="157c3c9a8e"><path d="M 428 436 L 453 436 L 453 502 L 428 502 Z M 428 436 " clip-rule="nonzero"/></clipPath><clipPath id="9b80006d46"><path d="M 448.03125 435.695312 L 456.210938 500.429688 L 436.121094 502.96875 L 427.941406 438.234375 Z M 448.03125 435.695312 " clip-rule="nonzero"/></clipPath><clipPath id="5f989fdac6"><path d="M 448.03125 435.695312 L 456.210938 500.429688 L 436.121094 502.96875 L 427.941406 438.234375 Z M 448.03125 435.695312 " clip-rule="nonzero"/></clipPath><clipPath id="c5e26e7b8a"><path d="M 450 499 L 468 499 L 468 561 L 450 561 Z M 450 499 " clip-rule="nonzero"/></clipPath><clipPath id="a2a7c29bee"><path d="M 458.714844 499.101562 L 467.070312 500.273438 L 458.585938 560.648438 L 450.230469 559.472656 Z M 458.714844 499.101562 " clip-rule="nonzero"/></clipPath><clipPath id="b2bef6eebe"><path d="M 458.714844 499.101562 L 467.070312 500.273438 L 458.585938 560.636719 L 450.234375 559.460938 Z M 458.714844 499.101562 " clip-rule="nonzero"/></clipPath><clipPath id="739affc946"><path d="M 467.070312 499.097656 L 497.820312 499.097656 L 497.820312 508.847656 L 467.070312 508.847656 Z M 467.070312 499.097656 " clip-rule="nonzero"/></clipPath><clipPath id="475d213de2"><path d="M 445 488 L 479 488 L 479 517 L 445 517 Z M 445 488 " clip-rule="nonzero"/></clipPath><clipPath id="749a75fab7"><path d="M 471.667969 488.292969 L 478.925781 505.128906 L 452.746094 516.414062 L 445.488281 499.574219 Z M 471.667969 488.292969 " clip-rule="nonzero"/></clipPath><clipPath id="d66e84c1e2"><path d="M 471.667969 488.292969 L 478.925781 505.128906 L 452.800781 516.390625 L 445.542969 499.550781 Z M 471.667969 488.292969 " clip-rule="nonzero"/></clipPath><clipPath id="7f87efc4eb"><path d="M 497 443 L 532 443 L 532 505 L 497 505 Z M 497 443 " clip-rule="nonzero"/></clipPath><clipPath id="e5aec04c67"><path d="M 490.496094 501.125 L 514.394531 440.410156 L 533.238281 447.828125 L 509.339844 508.542969 Z M 490.496094 501.125 " clip-rule="nonzero"/></clipPath><clipPath id="2474a13d0e"><path d="M 490.496094 501.125 L 514.394531 440.410156 L 533.238281 447.828125 L 509.339844 508.542969 Z M 490.496094 501.125 " clip-rule="nonzero"/></clipPath><clipPath id="894860c9bc"><path d="M 505 422 L 555 422 L 555 472 L 505 472 Z M 505 422 " clip-rule="nonzero"/></clipPath><clipPath id="e44d9d3d66"><path d="M 549.742188 418.796875 L 558.082031 427.140625 L 510.015625 475.210938 L 501.671875 466.867188 Z M 549.742188 418.796875 " clip-rule="nonzero"/></clipPath><clipPath id="00fff03b45"><path d="M 553.910156 422.96875 C 551.609375 420.664062 538.980469 429.554688 525.710938 442.828125 C 512.441406 456.097656 503.550781 468.722656 505.851562 471.027344 C 508.15625 473.332031 520.78125 464.441406 534.054688 451.171875 C 547.324219 437.898438 556.214844 425.273438 553.910156 422.96875 Z M 553.910156 422.96875 " clip-rule="nonzero"/></clipPath><clipPath id="f9df31a8fe"><path d="M 445 450 L 511 450 L 511 506 L 445 506 Z M 445 450 " clip-rule="nonzero"/></clipPath><clipPath id="3d55626f75"><path d="M 440.371094 457.90625 L 504.25 444.304688 L 515.554688 497.398438 L 451.675781 511 Z M 440.371094 457.90625 " clip-rule="nonzero"/></clipPath><clipPath id="de7325bbee"><path d="M 472.300781 451.109375 C 454.664062 454.863281 442.902344 469.792969 446.023438 484.453125 C 449.144531 499.113281 465.972656 507.953125 483.605469 504.199219 C 501.238281 500.445312 513 485.515625 509.878906 470.855469 C 506.757812 456.195312 489.933594 447.351562 472.300781 451.109375 Z M 472.300781 451.109375 " clip-rule="nonzero"/></clipPath><clipPath id="b804bfd66c"><path d="M 450 424 L 516 424 L 516 480 L 450 480 Z M 450 424 " clip-rule="nonzero"/></clipPath><clipPath id="6e5190c9dc"><path d="M 445.546875 432.390625 L 509.425781 418.789062 L 520.730469 471.882812 L 456.851562 485.484375 Z M 445.546875 432.390625 " clip-rule="nonzero"/></clipPath><clipPath id="1dece1eff3"><path d="M 477.476562 425.59375 C 459.84375 429.347656 448.078125 444.277344 451.199219 458.9375 C 454.324219 473.597656 471.148438 482.441406 488.78125 478.6875 C 506.414062 474.929688 518.175781 460.003906 515.054688 445.339844 C 511.933594 430.679688 495.109375 421.839844 477.476562 425.59375 Z M 477.476562 425.59375 " clip-rule="nonzero"/></clipPath><clipPath id="c68b164b34"><path d="M 429 227 L 585 227 L 585 449 L 429 449 Z M 429 227 " clip-rule="nonzero"/></clipPath><clipPath id="d6e7f5b24d"><path d="M 424.316406 231.039062 L 579.316406 223.445312 L 590.148438 444.441406 L 435.148438 452.039062 Z M 424.316406 231.039062 " clip-rule="nonzero"/></clipPath><clipPath id="681bc2f107"><path d="M 501.816406 227.242188 C 459.015625 229.339844 426.738281 280.457031 429.726562 341.410156 C 432.714844 402.367188 469.832031 450.082031 512.636719 447.984375 C 555.4375 445.886719 587.714844 394.773438 584.726562 333.816406 C 581.738281 272.859375 544.621094 225.144531 501.816406 227.242188 Z M 501.816406 227.242188 " clip-rule="nonzero"/></clipPath><clipPath id="771107baf1"><path d="M 430 228 L 599 228 L 599 430 L 430 430 Z M 430 228 " clip-rule="nonzero"/></clipPath><clipPath id="af646afb59"><path d="M 426.207031 232.675781 L 593.5 224.480469 L 603.367188 425.753906 L 436.074219 433.953125 Z M 426.207031 232.675781 " clip-rule="nonzero"/></clipPath><clipPath id="04297db873"><path d="M 509.855469 228.578125 C 463.660156 230.84375 428.414062 277.6875 431.136719 333.207031 C 433.855469 388.730469 473.511719 431.902344 519.707031 429.636719 C 565.90625 427.375 601.148438 380.53125 598.429688 325.007812 C 595.707031 269.488281 556.050781 226.3125 509.855469 228.578125 Z M 509.855469 228.578125 " clip-rule="nonzero"/></clipPath><clipPath id="ffcaaf9923"><path d="M 557 270 L 578 270 L 578 298 L 557 298 Z M 557 270 " clip-rule="nonzero"/></clipPath><clipPath id="c73001ecb8"><path d="M 552.910156 293.03125 L 557.96875 270.339844 L 581.394531 275.5625 L 576.335938 298.253906 Z M 552.910156 293.03125 " clip-rule="nonzero"/></clipPath><clipPath id="4bc78bcc12"><path d="M 552.910156 293.03125 L 557.96875 270.339844 L 581.394531 275.5625 L 576.335938 298.253906 Z M 552.910156 293.03125 " clip-rule="nonzero"/></clipPath><clipPath id="0342221e5d"><path d="M 540.40625 256.097656 L 548.875 256.097656 L 548.875 264.566406 L 540.40625 264.566406 Z M 540.40625 256.097656 " clip-rule="nonzero"/></clipPath><clipPath id="5a172c9f25"><path d="M 544.640625 256.097656 C 542.300781 256.097656 540.40625 257.992188 540.40625 260.332031 C 540.40625 262.667969 542.300781 264.566406 544.640625 264.566406 C 546.976562 264.566406 548.875 262.667969 548.875 260.332031 C 548.875 257.992188 546.976562 256.097656 544.640625 256.097656 Z M 544.640625 256.097656 " clip-rule="nonzero"/></clipPath><clipPath id="4ff4b28829"><path d="M 426 420 L 483 420 L 483 494 L 426 494 Z M 426 420 " clip-rule="nonzero"/></clipPath><clipPath id="9453e4ec59"><path d="M 451.1875 413.96875 L 488.523438 483.8125 L 458.117188 500.066406 L 420.777344 430.222656 Z M 451.1875 413.96875 " clip-rule="nonzero"/></clipPath><clipPath id="59bb1a8871"><path d="M 459.3125 429.171875 L 480.375 468.566406 C 482.53125 472.597656 482.996094 477.320312 481.667969 481.699219 C 480.339844 486.074219 477.332031 489.742188 473.296875 491.898438 C 469.265625 494.054688 464.542969 494.519531 460.167969 493.191406 C 455.789062 491.867188 452.121094 488.855469 449.964844 484.820312 L 428.90625 445.429688 C 426.75 441.394531 426.285156 436.671875 427.613281 432.296875 C 428.9375 427.921875 431.949219 424.25 435.980469 422.097656 C 440.015625 419.941406 444.738281 419.476562 449.113281 420.800781 C 453.488281 422.128906 457.160156 425.140625 459.3125 429.171875 Z M 459.3125 429.171875 " clip-rule="nonzero"/></clipPath><clipPath id="0eaca4d13c"><path d="M 431 429 L 482 429 L 482 506 L 431 506 Z M 431 429 " clip-rule="nonzero"/></clipPath><clipPath id="477ac22166"><path d="M 458.539062 423.96875 L 486.976562 497.882812 L 454.796875 510.261719 L 426.359375 436.347656 Z M 458.539062 423.96875 " clip-rule="nonzero"/></clipPath><clipPath id="dea475ad5a"><path d="M 464.730469 440.058594 L 480.769531 481.75 C 482.410156 486.015625 482.289062 490.761719 480.433594 494.9375 C 478.578125 499.117188 475.136719 502.386719 470.871094 504.03125 C 466.601562 505.671875 461.855469 505.550781 457.679688 503.695312 C 453.5 501.835938 450.230469 498.398438 448.589844 494.128906 L 432.546875 452.4375 C 430.90625 448.171875 431.027344 443.425781 432.882812 439.246094 C 434.742188 435.070312 438.179688 431.800781 442.449219 430.15625 C 446.714844 428.515625 451.460938 428.636719 455.640625 430.492188 C 459.816406 432.351562 463.085938 435.789062 464.730469 440.058594 Z M 464.730469 440.058594 " clip-rule="nonzero"/></clipPath><clipPath id="975678ca0d"><path d="M 434 431 L 478 431 L 478 510 L 434 510 Z M 434 431 " clip-rule="nonzero"/></clipPath><clipPath id="544e6c7b1d"><path d="M 464.902344 428.210938 L 480.710938 505.8125 L 446.921875 512.695312 L 431.117188 435.09375 Z M 464.902344 428.210938 " clip-rule="nonzero"/></clipPath><clipPath id="33046dbff8"><path d="M 468.34375 445.105469 L 477.261719 488.875 C 478.171875 493.355469 477.269531 498.015625 474.746094 501.828125 C 472.222656 505.640625 468.289062 508.296875 463.808594 509.210938 C 459.328125 510.121094 454.667969 509.21875 450.855469 506.695312 C 447.042969 504.171875 444.386719 500.238281 443.472656 495.757812 L 434.558594 451.988281 C 433.644531 447.507812 434.550781 442.847656 437.070312 439.035156 C 439.59375 435.21875 443.527344 432.566406 448.007812 431.652344 C 452.488281 430.738281 457.148438 431.644531 460.960938 434.167969 C 464.777344 436.691406 467.429688 440.625 468.34375 445.105469 Z M 468.34375 445.105469 " clip-rule="nonzero"/></clipPath><clipPath id="b3240317e6"><path d="M 450 416 L 491 416 L 491 454 L 450 454 Z M 450 416 " clip-rule="nonzero"/></clipPath><clipPath id="5cbdc847f5"><path d="M 443.542969 431.515625 L 480.203125 409.621094 L 497.773438 439.039062 L 461.113281 460.933594 Z M 443.542969 431.515625 " clip-rule="nonzero"/></clipPath><clipPath id="ec4b66815c"><path d="M 461.839844 420.585938 C 451.734375 426.621094 447.476562 438.101562 452.328125 446.222656 C 457.183594 454.347656 469.304688 456.042969 479.410156 450.007812 C 489.515625 443.972656 493.773438 432.496094 488.921875 424.371094 C 484.070312 416.246094 471.945312 414.554688 461.839844 420.585938 Z M 461.839844 420.585938 " clip-rule="nonzero"/></clipPath></defs><g clip-path="url(#25149bf221)"><g clip-path="url(#0faf3460b2)"><path fill="#f8c038" d="M 203.421875 307.410156 L 458.050781 307.410156 L 458.050781 551.546875 L 203.421875 551.546875 Z M 203.421875 307.410156 " fill-opacity="1" fill-rule="nonzero"/></g></g><g clip-path="url(#39e9a7e48a)"><g clip-path="url(#c77043013f)"><g clip-path="url(#c13fe18549)"><path fill="#f09020" d="M 429.632812 570.8125 L 383.5 607.484375 L 358.988281 576.648438 L 405.121094 539.976562 Z M 429.632812 570.8125 " fill-opacity="1" fill-rule="nonzero"/></g></g></g><g clip-path="url(#f4201bda5c)"><g clip-path="url(#87eb901706)"><g clip-path="url(#b1221ab910)"><path fill="#f09020" d="M 440.894531 582.910156 L 382.632812 591.78125 L 376.707031 552.835938 L 434.96875 543.96875 Z M 440.894531 582.910156 " fill-opacity="1" fill-rule="nonzero"/></g></g></g><g clip-path="url(#5e79efde6c)"><g clip-path="url(#feb697754a)"><g clip-path="url(#0da0a276cd)"><path fill="#f09020" d="M 298.011719 589.589844 L 239.082031 590.375 L 238.558594 550.984375 L 297.484375 550.203125 Z M 298.011719 589.589844 " fill-opacity="1" fill-rule="nonzero"/></g></g></g><g clip-path="url(#baab03f4c6)"><g clip-path="url(#742f068534)"><g clip-path="url(#daddf5075f)"><path fill="#f09020" d="M 299.515625 606.054688 L 248.003906 577.421875 L 267.144531 542.988281 L 318.652344 571.621094 Z M 299.515625 606.054688 " fill-opacity="1" fill-rule="nonzero"/></g></g></g><g clip-path="url(#21b67b124a)"><g clip-path="url(#6dd703fdb3)"><path fill="#fddc66" d="M 277.183594 384.347656 L 451.601562 384.347656 L 451.601562 533.179688 L 277.183594 533.179688 Z M 277.183594 384.347656 " fill-opacity="1" fill-rule="nonzero"/></g></g><g clip-path="url(#567086e578)"><g clip-path="url(#14d49efa12)"><path fill="#ffffff" d="M 297.472656 346.75 L 356.136719 346.75 L 356.136719 421.910156 L 297.472656 421.910156 Z M 297.472656 346.75 " fill-opacity="1" fill-rule="nonzero"/></g></g><g clip-path="url(#68adb1ccb7)"><g clip-path="url(#da6400a91f)"><path fill="#ffffff" d="M 368.84375 346.75 L 427.507812 346.75 L 427.507812 421.910156 L 368.84375 421.910156 Z M 368.84375 346.75 " fill-opacity="1" fill-rule="nonzero"/></g></g><g clip-path="url(#e1059f2cef)"><g clip-path="url(#e1663b0940)"><path fill="#4b4b4b" d="M 381.40625 362.042969 L 414.945312 362.042969 L 414.945312 408.292969 L 381.40625 408.292969 Z M 381.40625 362.042969 " fill-opacity="1" fill-rule="nonzero"/></g></g><g clip-path="url(#343b371bf5)"><g clip-path="url(#f502c2e8c7)"><g clip-path="url(#a218208691)"><path fill="#fddc66" d="M 375.144531 409.570312 L 438.710938 392.140625 L 447.375 423.742188 L 383.808594 441.167969 Z M 375.144531 409.570312 " fill-opacity="1" fill-rule="nonzero"/></g></g></g><g clip-path="url(#28d69c6bb7)"><g clip-path="url(#6ecc2bfa54)"><path fill="#ffffff" d="M 395.519531 362.042969 L 410.449219 362.042969 L 410.449219 379.128906 L 395.519531 379.128906 Z M 395.519531 362.042969 " fill-opacity="1" fill-rule="nonzero"/></g></g><g clip-path="url(#57b0372be6)"><g clip-path="url(#76cd11862b)"><path fill="#4b4b4b" d="M 308.960938 361.214844 L 342.5 361.214844 L 342.5 407.464844 L 308.960938 407.464844 Z M 308.960938 361.214844 " fill-opacity="1" fill-rule="nonzero"/></g></g><g clip-path="url(#ed63d7a5e8)"><g clip-path="url(#23e0087056)"><path fill="#ffffff" d="M 324.542969 361.214844 L 339.46875 361.214844 L 339.46875 378.300781 L 324.542969 378.300781 Z M 324.542969 361.214844 " fill-opacity="1" fill-rule="nonzero"/></g></g><g clip-path="url(#c7cf0ddd12)"><g clip-path="url(#8778e9a98e)"><g clip-path="url(#3147b15011)"><path fill="#fddc66" d="M 304.359375 394.628906 L 368.117188 411.34375 L 359.8125 443.039062 L 296.050781 426.324219 Z M 304.359375 394.628906 " fill-opacity="1" fill-rule="nonzero"/></g></g></g><g clip-path="url(#a99ea68075)"><path fill="#f86018" d="M 384.71875 421.414062 C 384.71875 422.140625 384.679688 422.859375 384.609375 423.582031 C 384.539062 424.300781 384.433594 425.015625 384.292969 425.726562 C 384.152344 426.4375 383.976562 427.136719 383.765625 427.828125 C 383.554688 428.523438 383.3125 429.203125 383.035156 429.871094 C 382.757812 430.539062 382.449219 431.195312 382.109375 431.832031 C 381.765625 432.46875 381.394531 433.089844 380.992188 433.691406 C 380.589844 434.292969 380.160156 434.875 379.703125 435.433594 C 379.242188 435.992188 378.757812 436.527344 378.246094 437.039062 C 377.734375 437.550781 377.199219 438.035156 376.636719 438.496094 C 376.078125 438.953125 375.5 439.386719 374.898438 439.789062 C 374.296875 440.191406 373.675781 440.5625 373.035156 440.902344 C 372.398438 441.242188 371.746094 441.550781 371.078125 441.828125 C 370.40625 442.105469 369.726562 442.351562 369.035156 442.558594 C 368.34375 442.769531 367.640625 442.945312 366.933594 443.085938 C 366.222656 443.226562 365.507812 443.335938 364.785156 443.40625 C 364.066406 443.476562 363.34375 443.511719 362.621094 443.511719 C 361.898438 443.511719 361.175781 443.476562 360.457031 443.40625 C 359.734375 443.335938 359.019531 443.226562 358.308594 443.085938 C 357.601562 442.945312 356.898438 442.769531 356.207031 442.558594 C 355.515625 442.351562 354.835938 442.105469 354.164062 441.828125 C 353.496094 441.550781 352.84375 441.242188 352.207031 440.902344 C 351.566406 440.5625 350.945312 440.191406 350.34375 439.789062 C 349.742188 439.386719 349.164062 438.953125 348.605469 438.496094 C 348.042969 438.035156 347.507812 437.550781 346.996094 437.039062 C 346.484375 436.527344 346 435.992188 345.539062 435.433594 C 345.082031 434.875 344.652344 434.292969 344.25 433.691406 C 343.847656 433.089844 343.476562 432.46875 343.132812 431.832031 C 342.792969 431.195312 342.484375 430.539062 342.207031 429.871094 C 341.929688 429.203125 341.6875 428.523438 341.476562 427.828125 C 341.265625 427.136719 341.089844 426.4375 340.949219 425.726562 C 340.808594 425.015625 340.703125 424.300781 340.632812 423.582031 C 340.5625 422.859375 340.527344 422.140625 340.527344 421.414062 C 340.527344 420.691406 340.5625 419.96875 340.632812 419.25 C 340.703125 418.53125 340.808594 417.816406 340.949219 417.105469 C 341.089844 416.394531 341.265625 415.695312 341.476562 415 C 341.6875 414.308594 341.929688 413.628906 342.207031 412.960938 C 342.484375 412.292969 342.792969 411.636719 343.132812 411 C 343.476562 410.363281 343.847656 409.742188 344.25 409.140625 C 344.652344 408.539062 345.082031 407.957031 345.539062 407.398438 C 346 406.839844 346.484375 406.304688 346.996094 405.792969 C 347.507812 405.28125 348.042969 404.792969 348.605469 404.335938 C 349.164062 403.875 349.742188 403.445312 350.34375 403.042969 C 350.945312 402.640625 351.566406 402.269531 352.207031 401.929688 C 352.84375 401.589844 353.496094 401.277344 354.164062 401.003906 C 354.835938 400.726562 355.515625 400.480469 356.207031 400.269531 C 356.898438 400.0625 357.601562 399.886719 358.308594 399.746094 C 359.019531 399.601562 359.734375 399.496094 360.457031 399.425781 C 361.175781 399.355469 361.898438 399.320312 362.621094 399.320312 C 363.34375 399.320312 364.066406 399.355469 364.785156 399.425781 C 365.507812 399.496094 366.222656 399.601562 366.933594 399.746094 C 367.640625 399.886719 368.34375 400.0625 369.035156 400.269531 C 369.726562 400.480469 370.40625 400.726562 371.078125 401.003906 C 371.746094 401.277344 372.398438 401.589844 373.035156 401.929688 C 373.675781 402.269531 374.296875 402.640625 374.898438 403.042969 C 375.5 403.445312 376.078125 403.875 376.636719 404.335938 C 377.199219 404.792969 377.734375 405.28125 378.246094 405.792969 C 378.757812 406.304688 379.242188 406.839844 379.703125 407.398438 C 380.160156 407.957031 380.589844 408.539062 380.992188 409.140625 C 381.394531 409.742188 381.765625 410.363281 382.109375 411 C 382.449219 411.636719 382.757812 412.292969 383.035156 412.960938 C 383.3125 413.628906 383.554688 414.308594 383.765625 415 C 383.976562 415.695312 384.152344 416.394531 384.292969 417.105469 C 384.433594 417.816406 384.539062 418.53125 384.609375 419.25 C 384.679688 419.96875 384.71875 420.691406 384.71875 421.414062 Z M 384.71875 421.414062 " fill-opacity="1" fill-rule="nonzero"/></g><g clip-path="url(#67564607b3)"><path fill="#f09020" d="M 390.488281 428.371094 C 390.488281 429.289062 390.441406 430.203125 390.351562 431.117188 C 390.261719 432.027344 390.128906 432.933594 389.949219 433.835938 C 389.769531 434.734375 389.546875 435.621094 389.28125 436.5 C 389.015625 437.378906 388.707031 438.238281 388.355469 439.085938 C 388.003906 439.933594 387.613281 440.761719 387.183594 441.570312 C 386.75 442.378906 386.277344 443.167969 385.769531 443.929688 C 385.257812 444.691406 384.714844 445.425781 384.132812 446.136719 C 383.550781 446.84375 382.933594 447.523438 382.285156 448.171875 C 381.636719 448.820312 380.960938 449.4375 380.25 450.015625 C 379.542969 450.597656 378.804688 451.144531 378.042969 451.65625 C 377.28125 452.164062 376.496094 452.636719 375.6875 453.066406 C 374.878906 453.5 374.050781 453.890625 373.203125 454.242188 C 372.355469 454.59375 371.492188 454.902344 370.613281 455.167969 C 369.738281 455.433594 368.847656 455.65625 367.949219 455.835938 C 367.050781 456.015625 366.144531 456.148438 365.230469 456.238281 C 364.316406 456.328125 363.402344 456.375 362.484375 456.375 C 361.570312 456.375 360.652344 456.328125 359.742188 456.238281 C 358.828125 456.148438 357.921875 456.015625 357.023438 455.835938 C 356.125 455.65625 355.234375 455.433594 354.359375 455.167969 C 353.480469 454.902344 352.617188 454.59375 351.769531 454.242188 C 350.921875 453.890625 350.09375 453.5 349.285156 453.066406 C 348.476562 452.636719 347.691406 452.164062 346.929688 451.65625 C 346.167969 451.144531 345.429688 450.597656 344.722656 450.015625 C 344.011719 449.4375 343.335938 448.820312 342.6875 448.171875 C 342.039062 447.523438 341.421875 446.84375 340.839844 446.136719 C 340.257812 445.425781 339.714844 444.691406 339.203125 443.929688 C 338.695312 443.167969 338.222656 442.378906 337.789062 441.570312 C 337.359375 440.761719 336.964844 439.933594 336.617188 439.085938 C 336.265625 438.238281 335.957031 437.378906 335.691406 436.5 C 335.421875 435.621094 335.203125 434.734375 335.023438 433.835938 C 334.84375 432.933594 334.707031 432.027344 334.617188 431.117188 C 334.527344 430.203125 334.484375 429.289062 334.484375 428.371094 C 334.484375 427.453125 334.527344 426.539062 334.617188 425.628906 C 334.707031 424.714844 334.84375 423.808594 335.023438 422.910156 C 335.203125 422.007812 335.421875 421.121094 335.691406 420.242188 C 335.957031 419.367188 336.265625 418.503906 336.617188 417.65625 C 336.964844 416.808594 337.359375 415.980469 337.789062 415.171875 C 338.222656 414.363281 338.695312 413.578125 339.203125 412.816406 C 339.714844 412.050781 340.257812 411.316406 340.839844 410.605469 C 341.421875 409.898438 342.039062 409.21875 342.6875 408.570312 C 343.335938 407.921875 344.011719 407.308594 344.722656 406.726562 C 345.429688 406.144531 346.167969 405.597656 346.929688 405.089844 C 347.691406 404.578125 348.476562 404.109375 349.285156 403.675781 C 350.09375 403.242188 350.921875 402.851562 351.769531 402.5 C 352.617188 402.148438 353.480469 401.839844 354.359375 401.574219 C 355.234375 401.308594 356.125 401.085938 357.023438 400.90625 C 357.921875 400.730469 358.828125 400.59375 359.742188 400.503906 C 360.652344 400.414062 361.570312 400.371094 362.484375 400.371094 C 363.402344 400.371094 364.316406 400.414062 365.230469 400.503906 C 366.144531 400.59375 367.050781 400.730469 367.949219 400.90625 C 368.847656 401.085938 369.738281 401.308594 370.613281 401.574219 C 371.492188 401.839844 372.355469 402.148438 373.203125 402.5 C 374.050781 402.851562 374.878906 403.242188 375.6875 403.675781 C 376.496094 404.109375 377.28125 404.578125 378.042969 405.089844 C 378.804688 405.597656 379.542969 406.144531 380.25 406.726562 C 380.960938 407.308594 381.636719 407.921875 382.285156 408.570312 C 382.933594 409.21875 383.550781 409.898438 384.132812 410.605469 C 384.714844 411.316406 385.257812 412.050781 385.769531 412.816406 C 386.277344 413.578125 386.75 414.363281 387.183594 415.171875 C 387.613281 415.980469 388.003906 416.808594 388.355469 417.65625 C 388.707031 418.503906 389.015625 419.367188 389.28125 420.242188 C 389.546875 421.121094 389.769531 422.007812 389.949219 422.910156 C 390.128906 423.808594 390.261719 424.714844 390.351562 425.628906 C 390.441406 426.539062 390.488281 427.453125 390.488281 428.371094 Z M 390.488281 428.371094 " fill-opacity="1" fill-rule="nonzero"/></g><g clip-path="url(#ba0d707dc8)"><g clip-path="url(#ae621b36c0)"><path fill="#ffffff" d="M 369.300781 405.136719 L 380.964844 405.136719 L 380.964844 414.992188 L 369.300781 414.992188 Z M 369.300781 405.136719 " fill-opacity="1" fill-rule="nonzero"/></g></g><g clip-path="url(#ade08a9b53)"><g clip-path="url(#4e5a142d51)"><path fill="#ffffff" d="M 379.53125 416.636719 L 384.550781 416.636719 L 384.550781 421.65625 L 379.53125 421.65625 Z M 379.53125 416.636719 " fill-opacity="1" fill-rule="nonzero"/></g></g><path stroke-linecap="round" transform="matrix(-0.75, 0.000000001309, -0.000000001309, -0.75, 348.1806, 422.691335)" fill="none" stroke-linejoin="miter" d="M 1.001217 0.999905 L 11.600176 0.999905 " stroke="#c8831a" stroke-width="2" stroke-opacity="1" stroke-miterlimit="4"/><path stroke-linecap="round" transform="matrix(-0.75, 0, 0, -0.75, 348.17568, 417.410159)" fill="none" stroke-linejoin="miter" d="M 0.999866 1.000004 L 6.984241 1.000004 " stroke="#c8831a" stroke-width="2" stroke-opacity="1" stroke-miterlimit="4"/><path stroke-linecap="round" transform="matrix(-0.75, -0.000000001309, 0.000000001309, -0.75, 348.185319, 412.526711)" fill="none" stroke-linejoin="miter" d="M 1.0023 0.999157 L 3.6273 0.999157 " stroke="#c8831a" stroke-width="2" stroke-opacity="1" stroke-miterlimit="4"/><g clip-path="url(#6516cdc687)"><g clip-path="url(#e422099969)"><g clip-path="url(#9775a7d32a)"><g clip-path="url(#9762bca62b)"><path fill="#39b54a" d="M 317.074219 282.695312 C 316.0625 280.820312 314.492188 277.136719 315.402344 272.992188 C 316.898438 266.191406 324.5 260.78125 334.167969 260.613281 C 336.105469 268.601562 333.574219 276.441406 327.921875 280.308594 C 324.113281 282.914062 319.953125 282.988281 317.972656 282.875 C 319.855469 281.199219 321.949219 279.074219 324 276.433594 C 327.167969 272.355469 329.179688 268.402344 330.46875 265.273438 C 328.511719 268.511719 326.132812 272.027344 323.242188 275.660156 C 321.15625 278.28125 319.074219 280.621094 317.074219 282.695312 Z M 317.074219 282.695312 " fill-opacity="1" fill-rule="nonzero"/></g></g></g></g><g clip-path="url(#3efa11dc14)"><g clip-path="url(#e7772dbcdd)"><g clip-path="url(#888f898033)"><g clip-path="url(#d071c53171)"><path fill="#39b54a" d="M 314.527344 283.117188 C 313.0625 283.691406 310.222656 284.519531 307.257812 283.507812 C 302.394531 281.851562 299.074219 275.882812 299.785156 268.863281 C 305.816406 268.132812 311.355469 270.625 313.707031 275.050781 C 315.292969 278.03125 314.988281 281.050781 314.734375 282.480469 C 313.667969 280.972656 312.285156 279.277344 310.523438 277.566406 C 307.804688 274.925781 305.074219 273.136719 302.886719 271.9375 C 305.097656 273.625 307.472656 275.648438 309.890625 278.050781 C 311.636719 279.785156 313.175781 281.492188 314.527344 283.117188 Z M 314.527344 283.117188 " fill-opacity="1" fill-rule="nonzero"/></g></g></g></g><g clip-path="url(#d5e94e37a8)"><g clip-path="url(#f4f548dfe8)"><g clip-path="url(#1b36026e71)"><path fill="#f7eee1" d="M 459.476562 493.539062 L 484.96875 497.121094 L 473.1875 580.972656 L 447.695312 577.390625 Z M 459.476562 493.539062 " fill-opacity="1" fill-rule="nonzero"/></g></g></g><g clip-path="url(#5d651969aa)"><g clip-path="url(#a40de2c0d0)"><g clip-path="url(#2b4633dc48)"><path fill="#f7eee1" d="M 437.992188 555.9375 L 472.117188 577.40625 L 451.761719 609.761719 L 417.636719 588.292969 Z M 437.992188 555.9375 " fill-opacity="1" fill-rule="nonzero"/></g></g></g><g clip-path="url(#818169b48f)"><g clip-path="url(#78d955154f)"><g clip-path="url(#18da2a83bf)"><path fill="#f7eee1" d="M 466.648438 558.226562 L 504.1875 581.839844 L 483.832031 614.195312 L 446.292969 590.582031 Z M 466.648438 558.226562 " fill-opacity="1" fill-rule="nonzero"/></g></g></g><g clip-path="url(#07bfb1b8cd)"><g clip-path="url(#9318b84934)"><g clip-path="url(#f1d6c79e7b)"><path fill="#f7eee1" d="M 433.507812 566.378906 L 452.488281 557.039062 L 456.242188 564.667969 L 437.261719 574.003906 Z M 433.507812 566.378906 " fill-opacity="1" fill-rule="nonzero"/></g></g></g><g clip-path="url(#7807c227eb)"><g clip-path="url(#3d352dbfef)"><g clip-path="url(#fdc679aa33)"><path fill="#f7eee1" d="M 476.277344 558.976562 L 490.496094 574.636719 L 484.203125 580.351562 L 469.984375 564.691406 Z M 476.277344 558.976562 " fill-opacity="1" fill-rule="nonzero"/></g></g></g><g clip-path="url(#8408cee4c3)"><g clip-path="url(#ec66310cc0)"><path fill="#de773c" d="M 399.214844 226.441406 L 597.429688 226.441406 L 597.429688 424.652344 L 399.214844 424.652344 Z M 399.214844 226.441406 " fill-opacity="1" fill-rule="nonzero"/></g></g><g clip-path="url(#acd5f5d801)"><g clip-path="url(#95df6c133e)"><g clip-path="url(#dc974d99bb)"><path fill="#de773c" d="M 382.042969 271.933594 L 495.859375 249.941406 L 533.484375 444.675781 L 419.667969 466.664062 Z M 382.042969 271.933594 " fill-opacity="1" fill-rule="nonzero"/></g></g></g><g clip-path="url(#785aab70ae)"><g clip-path="url(#8dbe3a1842)"><g clip-path="url(#a2d837879c)"><path fill="#de773c" d="M 526.554688 256.101562 L 624.675781 317.824219 L 519.066406 485.703125 L 420.945312 423.980469 Z M 526.554688 256.101562 " fill-opacity="1" fill-rule="nonzero"/></g></g></g><g clip-path="url(#a3689c2ba3)"><g clip-path="url(#b8e8a66920)"><g clip-path="url(#c942cc5bc9)"><path fill="#de773c" d="M 442.988281 484.785156 L 466.871094 499.808594 L 452.359375 522.878906 L 428.476562 507.855469 Z M 442.988281 484.785156 " fill-opacity="1" fill-rule="nonzero"/></g></g></g><g clip-path="url(#9e78b88c0d)"><g clip-path="url(#2d960c8f36)"><g clip-path="url(#21dbe3cee3)"><path fill="#de773c" d="M 498.351562 488.46875 L 515.621094 499.332031 L 505.007812 516.203125 L 487.738281 505.339844 Z M 498.351562 488.46875 " fill-opacity="1" fill-rule="nonzero"/></g></g></g><g clip-path="url(#4ee5a78d77)"><g clip-path="url(#ef3145c1a8)"><g clip-path="url(#6f718c0b79)"><path fill="#de773c" d="M 558.761719 407.039062 L 567.101562 415.382812 L 519.035156 463.453125 L 510.691406 455.109375 Z M 558.761719 407.039062 " fill-opacity="1" fill-rule="nonzero"/></g></g></g><g clip-path="url(#5df4a5b2da)"><g clip-path="url(#930f064559)"><g clip-path="url(#f7b44aad22)"><path fill="#de773c" d="M 388.988281 291.976562 L 502.804688 269.984375 L 540.429688 464.71875 L 426.613281 486.707031 Z M 388.988281 291.976562 " fill-opacity="1" fill-rule="nonzero"/></g></g></g><g clip-path="url(#dddc26f92f)"><g clip-path="url(#256bd3d40d)"><g clip-path="url(#f83dc9f47c)"><path fill="#de773c" d="M 408.140625 365.941406 L 478.1875 351.027344 L 501.667969 461.292969 L 431.621094 476.207031 Z M 408.140625 365.941406 " fill-opacity="1" fill-rule="nonzero"/></g></g></g><g clip-path="url(#157c3c9a8e)"><g clip-path="url(#9b80006d46)"><g clip-path="url(#5f989fdac6)"><path fill="#de773c" d="M 428.957031 443.90625 C 428.804688 444.007812 428.714844 444.152344 428.695312 444.335938 C 428.671875 444.523438 428.722656 444.683594 428.847656 444.820312 C 433.496094 449.949219 437.277344 459.09375 438.632812 469.828125 C 439.988281 480.5625 438.601562 490.363281 435.375 496.484375 C 435.289062 496.648438 435.277344 496.816406 435.347656 496.992188 C 435.414062 497.164062 435.535156 497.28125 435.710938 497.34375 L 447.429688 501.511719 C 447.578125 501.566406 447.726562 501.5625 447.871094 501.5 C 448.015625 501.441406 448.121094 501.339844 448.1875 501.195312 C 448.859375 499.746094 449.445312 498.261719 449.945312 496.746094 C 452.640625 488.605469 453.40625 478.441406 452.105469 468.125 C 450.800781 457.8125 447.53125 448.160156 442.894531 440.945312 C 442.035156 439.597656 441.097656 438.308594 440.085938 437.070312 C 439.988281 436.949219 439.859375 436.875 439.703125 436.851562 C 439.546875 436.828125 439.402344 436.863281 439.273438 436.949219 Z M 428.957031 443.90625 " fill-opacity="1" fill-rule="nonzero"/></g></g></g><g clip-path="url(#c5e26e7b8a)"><g clip-path="url(#a2a7c29bee)"><g clip-path="url(#b2bef6eebe)"><path fill="#e4d3c8" d="M 458.714844 499.101562 L 467.070312 500.273438 L 458.585938 560.648438 L 450.230469 559.472656 Z M 458.714844 499.101562 " fill-opacity="1" fill-rule="nonzero"/></g></g></g><g clip-path="url(#739affc946)"><path fill="#de773c" d="M 469.75 508.398438 C 469.789062 508.476562 469.851562 508.527344 469.9375 508.546875 C 470.019531 508.570312 470.097656 508.554688 470.167969 508.503906 C 472.808594 506.65625 477.257812 505.441406 482.300781 505.441406 C 487.34375 505.441406 491.792969 506.65625 494.4375 508.503906 C 494.507812 508.554688 494.585938 508.570312 494.667969 508.546875 C 494.753906 508.527344 494.8125 508.476562 494.851562 508.398438 L 497.464844 503.222656 C 497.542969 503.070312 497.507812 502.945312 497.363281 502.855469 C 496.730469 502.460938 496.078125 502.101562 495.40625 501.78125 C 491.800781 500.0625 487.148438 499.113281 482.300781 499.113281 C 477.457031 499.113281 472.804688 500.0625 469.195312 501.78125 C 468.523438 502.101562 467.871094 502.460938 467.242188 502.855469 C 467.09375 502.945312 467.0625 503.070312 467.140625 503.226562 Z M 469.75 508.398438 " fill-opacity="1" fill-rule="nonzero"/></g><g clip-path="url(#475d213de2)"><g clip-path="url(#749a75fab7)"><g clip-path="url(#d66e84c1e2)"><path fill="#de773c" d="M 471.667969 488.292969 L 478.925781 505.128906 L 452.8125 516.386719 L 445.554688 499.546875 Z M 471.667969 488.292969 " fill-opacity="1" fill-rule="nonzero"/></g></g></g><g clip-path="url(#7f87efc4eb)"><g clip-path="url(#e5aec04c67)"><g clip-path="url(#2474a13d0e)"><path fill="#de773c" d="M 511.167969 503.078125 C 511.355469 503.0625 511.5 502.976562 511.609375 502.824219 C 511.71875 502.675781 511.75 502.507812 511.707031 502.328125 C 510.089844 495.597656 511.164062 485.761719 515.125 475.691406 C 519.089844 465.625 525.011719 457.695312 530.78125 453.875 C 530.933594 453.769531 531.023438 453.625 531.046875 453.441406 C 531.070312 453.257812 531.023438 453.097656 530.898438 452.957031 L 522.617188 443.675781 C 522.515625 443.554688 522.382812 443.488281 522.226562 443.472656 C 522.070312 443.457031 521.925781 443.496094 521.800781 443.589844 C 520.515625 444.539062 519.289062 445.558594 518.121094 446.648438 C 511.851562 452.496094 506.296875 461.046875 502.492188 470.71875 C 498.683594 480.394531 496.917969 490.429688 497.523438 498.984375 C 497.632812 500.578125 497.832031 502.160156 498.125 503.730469 C 498.15625 503.886719 498.234375 504.011719 498.359375 504.105469 C 498.484375 504.203125 498.625 504.242188 498.785156 504.226562 Z M 511.167969 503.078125 " fill-opacity="1" fill-rule="nonzero"/></g></g></g><g clip-path="url(#894860c9bc)"><g clip-path="url(#e44d9d3d66)"><g clip-path="url(#00fff03b45)"><path fill="#de773c" d="M 549.742188 418.796875 L 558.082031 427.140625 L 510.015625 475.210938 L 501.671875 466.867188 Z M 549.742188 418.796875 " fill-opacity="1" fill-rule="nonzero"/></g></g></g><g clip-path="url(#f9df31a8fe)"><g clip-path="url(#3d55626f75)"><g clip-path="url(#de7325bbee)"><path fill="#de773c" d="M 440.371094 457.90625 L 504.25 444.304688 L 515.554688 497.398438 L 451.675781 511 Z M 440.371094 457.90625 " fill-opacity="1" fill-rule="nonzero"/></g></g></g><g clip-path="url(#b804bfd66c)"><g clip-path="url(#6e5190c9dc)"><g clip-path="url(#1dece1eff3)"><path fill="#de773c" d="M 445.546875 432.390625 L 509.425781 418.789062 L 520.730469 471.882812 L 456.851562 485.484375 Z M 445.546875 432.390625 " fill-opacity="1" fill-rule="nonzero"/></g></g></g><g clip-path="url(#c68b164b34)"><g clip-path="url(#d6e7f5b24d)"><g clip-path="url(#681bc2f107)"><path fill="#f4a043" d="M 424.316406 231.039062 L 579.316406 223.445312 L 590.148438 444.441406 L 435.148438 452.039062 Z M 424.316406 231.039062 " fill-opacity="1" fill-rule="nonzero"/></g></g></g><g clip-path="url(#771107baf1)"><g clip-path="url(#af646afb59)"><g clip-path="url(#04297db873)"><path fill="#f4a043" d="M 426.207031 232.675781 L 593.5 224.480469 L 603.367188 425.753906 L 436.074219 433.953125 Z M 426.207031 232.675781 " fill-opacity="1" fill-rule="nonzero"/></g></g></g><g clip-path="url(#ffcaaf9923)"><g clip-path="url(#c73001ecb8)"><g clip-path="url(#4bc78bcc12)"><path fill="#ffffff" d="M 559.210938 271.367188 C 557.824219 272.132812 557.1875 273.855469 557.992188 275.265625 C 558.347656 275.878906 558.890625 276.382812 559.371094 276.890625 C 559.933594 277.484375 560.503906 278.070312 561.070312 278.664062 C 562.148438 279.792969 563.230469 280.917969 564.238281 282.113281 C 564.480469 282.394531 564.71875 282.671875 564.96875 282.949219 L 565.152344 283.242188 C 565.828125 284.375 566.484375 285.492188 566.945312 286.734375 C 567.40625 287.980469 567.605469 289.246094 567.808594 290.546875 C 568.21875 293.152344 569.136719 295.976562 571.882812 296.929688 C 574.316406 297.773438 576.332031 296.03125 576.988281 293.792969 C 577.691406 291.394531 577.097656 288.664062 576.433594 286.320312 C 575.707031 283.761719 574.59375 281.386719 573.089844 279.191406 C 571.527344 276.867188 569.605469 274.890625 567.324219 273.269531 C 566.078125 272.390625 564.726562 271.726562 563.273438 271.269531 C 561.960938 270.859375 560.460938 270.675781 559.210938 271.367188 Z M 559.210938 271.367188 " fill-opacity="1" fill-rule="nonzero"/></g></g></g><g clip-path="url(#0342221e5d)"><g clip-path="url(#5a172c9f25)"><path fill="#ffffff" d="M 540.40625 256.097656 L 548.875 256.097656 L 548.875 264.566406 L 540.40625 264.566406 Z M 540.40625 256.097656 " fill-opacity="1" fill-rule="nonzero"/></g></g><g clip-path="url(#4ff4b28829)"><g clip-path="url(#9453e4ec59)"><g clip-path="url(#59bb1a8871)"><path fill="#de773c" d="M 451.1875 413.96875 L 488.523438 483.8125 L 458.117188 500.066406 L 420.777344 430.222656 Z M 451.1875 413.96875 " fill-opacity="1" fill-rule="nonzero"/></g></g></g><g clip-path="url(#0eaca4d13c)"><g clip-path="url(#477ac22166)"><g clip-path="url(#dea475ad5a)"><path fill="#de773c" d="M 458.539062 423.96875 L 486.976562 497.882812 L 454.796875 510.261719 L 426.359375 436.347656 Z M 458.539062 423.96875 " fill-opacity="1" fill-rule="nonzero"/></g></g></g><g clip-path="url(#975678ca0d)"><g clip-path="url(#544e6c7b1d)"><g clip-path="url(#33046dbff8)"><path fill="#de773c" d="M 464.902344 428.210938 L 480.710938 505.8125 L 446.921875 512.695312 L 431.117188 435.09375 Z M 464.902344 428.210938 " fill-opacity="1" fill-rule="nonzero"/></g></g></g><g clip-path="url(#b3240317e6)"><g clip-path="url(#5cbdc847f5)"><g clip-path="url(#ec4b66815c)"><path fill="#f8c038" d="M 443.542969 431.515625 L 480.089844 409.6875 L 497.660156 439.109375 L 461.113281 460.933594 Z M 443.542969 431.515625 " fill-opacity="1" fill-rule="nonzero"/></g></g></g></svg>