<svg xmlns="http://www.w3.org/2000/svg" xmlns:xlink="http://www.w3.org/1999/xlink" width="200" zoomAndPan="magnify" viewBox="0 0 150 149.999998" height="200" preserveAspectRatio="xMidYMid meet" version="1.0"><defs><clipPath id="2e1aade8f5"><path d="M 3.382812 34.710938 L 95.796875 34.710938 L 95.796875 122.988281 L 3.382812 122.988281 Z M 3.382812 34.710938 " clip-rule="nonzero"/></clipPath><clipPath id="cb40de9dad"><path d="M 49.503906 34.710938 C 24.03125 34.710938 3.382812 54.472656 3.382812 78.851562 C 3.382812 103.226562 24.03125 122.988281 49.503906 122.988281 C 74.976562 122.988281 95.625 103.226562 95.625 78.851562 C 95.625 54.472656 74.976562 34.710938 49.503906 34.710938 Z M 49.503906 34.710938 " clip-rule="nonzero"/></clipPath><clipPath id="e8335cdc68"><path d="M 62 122 L 82 122 L 82 140 L 62 140 Z M 62 122 " clip-rule="nonzero"/></clipPath><clipPath id="deb93a972d"><path d="M 85.175781 129.953125 L 68.453125 143.25 L 59.589844 132.101562 L 76.3125 118.804688 Z M 85.175781 129.953125 " clip-rule="nonzero"/></clipPath><clipPath id="9a2611fb98"><path d="M 76.832031 136.585938 C 81.441406 132.921875 83.191406 127.457031 80.746094 124.378906 C 78.296875 121.300781 72.578125 121.773438 67.96875 125.4375 C 63.363281 129.101562 61.609375 134.566406 64.058594 137.644531 C 66.507812 140.722656 72.226562 140.25 76.832031 136.585938 Z M 76.832031 136.585938 " clip-rule="nonzero"/></clipPath><clipPath id="83c60cfd5e"><path d="M 67 121 L 89 121 L 89 137 L 67 137 Z M 67 121 " clip-rule="nonzero"/></clipPath><clipPath id="e6a87cbdd6"><path d="M 89.25 134.328125 L 68.128906 137.542969 L 65.984375 123.464844 L 87.105469 120.25 Z M 89.25 134.328125 " clip-rule="nonzero"/></clipPath><clipPath id="f4ae9b226e"><path d="M 78.710938 135.933594 C 84.53125 135.046875 88.769531 131.175781 88.179688 127.289062 C 87.585938 123.398438 82.386719 120.964844 76.570312 121.851562 C 70.75 122.738281 66.511719 126.609375 67.101562 130.496094 C 67.695312 134.386719 72.894531 136.820312 78.710938 135.933594 Z M 78.710938 135.933594 " clip-rule="nonzero"/></clipPath><clipPath id="2b0474bb1d"><path d="M 16 122 L 38 122 L 38 137 L 16 137 Z M 16 122 " clip-rule="nonzero"/></clipPath><clipPath id="c002eb590c"><path d="M 37.582031 136.746094 L 16.21875 137.027344 L 16.03125 122.785156 L 37.394531 122.503906 Z M 37.582031 136.746094 " clip-rule="nonzero"/></clipPath><clipPath id="8607dc83d7"><path d="M 26.925781 136.886719 C 32.8125 136.808594 37.542969 133.554688 37.488281 129.625 C 37.4375 125.691406 32.621094 122.566406 26.738281 122.644531 C 20.851562 122.722656 16.121094 125.972656 16.175781 129.90625 C 16.226562 133.839844 21.039062 136.964844 26.925781 136.886719 Z M 26.925781 136.886719 " clip-rule="nonzero"/></clipPath><clipPath id="860fe8a5d1"><path d="M 22 123 L 43 123 L 43 140 L 22 140 Z M 22 123 " clip-rule="nonzero"/></clipPath><clipPath id="441f7f1715"><path d="M 38.128906 142.695312 L 19.453125 132.316406 L 26.375 119.867188 L 45.046875 130.246094 Z M 38.128906 142.695312 " clip-rule="nonzero"/></clipPath><clipPath id="282a2c0ae6"><path d="M 28.8125 137.519531 C 33.957031 140.378906 39.675781 139.910156 41.589844 136.472656 C 43.5 133.035156 40.878906 127.929688 35.734375 125.070312 C 30.585938 122.210938 24.867188 122.675781 22.957031 126.117188 C 21.046875 129.554688 23.667969 134.660156 28.8125 137.519531 Z M 28.8125 137.519531 " clip-rule="nonzero"/></clipPath><clipPath id="d21e1f93ca"><path d="M 30.054688 62.53125 L 93.328125 62.53125 L 93.328125 116.347656 L 30.054688 116.347656 Z M 30.054688 62.53125 " clip-rule="nonzero"/></clipPath><clipPath id="f69ba9fc3e"><path d="M 61.625 62.53125 C 44.1875 62.53125 30.054688 74.578125 30.054688 89.4375 C 30.054688 104.300781 44.1875 116.347656 61.625 116.347656 C 79.0625 116.347656 93.195312 104.300781 93.195312 89.4375 C 93.195312 74.578125 79.0625 62.53125 61.625 62.53125 Z M 61.625 62.53125 " clip-rule="nonzero"/></clipPath><clipPath id="49aa0d354f"><path d="M 37.390625 48.9375 L 58.601562 48.9375 L 58.601562 76.195312 L 37.390625 76.195312 Z M 37.390625 48.9375 " clip-rule="nonzero"/></clipPath><clipPath id="db69ed4036"><path d="M 47.996094 48.9375 C 50.808594 48.9375 53.507812 50.054688 55.496094 52.042969 C 57.484375 54.03125 58.601562 56.730469 58.601562 59.542969 L 58.601562 65.519531 C 58.601562 68.332031 57.484375 71.03125 55.496094 73.019531 C 53.507812 75.007812 50.808594 76.125 47.996094 76.125 C 45.183594 76.125 42.484375 75.007812 40.496094 73.019531 C 38.507812 71.03125 37.390625 68.332031 37.390625 65.519531 L 37.390625 59.542969 C 37.390625 56.730469 38.507812 54.03125 40.496094 52.042969 C 42.484375 50.054688 45.183594 48.9375 47.996094 48.9375 Z M 47.996094 48.9375 " clip-rule="nonzero"/></clipPath><clipPath id="2e5e027404"><path d="M 63.195312 48.9375 L 84.410156 48.9375 L 84.410156 76.195312 L 63.195312 76.195312 Z M 63.195312 48.9375 " clip-rule="nonzero"/></clipPath><clipPath id="2c3ca31ba4"><path d="M 73.800781 48.9375 C 76.617188 48.9375 79.3125 50.054688 81.300781 52.042969 C 83.289062 54.03125 84.410156 56.730469 84.410156 59.542969 L 84.410156 65.519531 C 84.410156 68.332031 83.289062 71.03125 81.300781 73.019531 C 79.3125 75.007812 76.617188 76.125 73.800781 76.125 C 70.988281 76.125 68.292969 75.007812 66.304688 73.019531 C 64.3125 71.03125 63.195312 68.332031 63.195312 65.519531 L 63.195312 59.542969 C 63.195312 56.730469 64.3125 54.03125 66.304688 52.042969 C 68.292969 50.054688 70.988281 48.9375 73.800781 48.9375 Z M 73.800781 48.9375 " clip-rule="nonzero"/></clipPath><clipPath id="7a9a5be93c"><path d="M 67.738281 54.464844 L 79.867188 54.464844 L 79.867188 71.238281 L 67.738281 71.238281 Z M 67.738281 54.464844 " clip-rule="nonzero"/></clipPath><clipPath id="cb25699382"><path d="M 73.800781 54.464844 C 75.410156 54.464844 76.953125 55.105469 78.089844 56.242188 C 79.226562 57.378906 79.867188 58.921875 79.867188 60.53125 L 79.867188 65.128906 C 79.867188 66.738281 79.226562 68.28125 78.089844 69.417969 C 76.953125 70.554688 75.410156 71.195312 73.800781 71.195312 C 72.195312 71.195312 70.652344 70.554688 69.515625 69.417969 C 68.378906 68.28125 67.738281 66.738281 67.738281 65.128906 L 67.738281 60.53125 C 67.738281 58.921875 68.378906 57.378906 69.515625 56.242188 C 70.652344 55.105469 72.195312 54.464844 73.800781 54.464844 Z M 73.800781 54.464844 " clip-rule="nonzero"/></clipPath><clipPath id="5f67366351"><path d="M 66 67 L 91 67 L 91 81 L 66 81 Z M 66 67 " clip-rule="nonzero"/></clipPath><clipPath id="94ae9ea579"><path d="M 65.472656 71.652344 L 88.460938 65.351562 L 91.59375 76.777344 L 68.605469 83.078125 Z M 65.472656 71.652344 " clip-rule="nonzero"/></clipPath><clipPath id="b1f33e6133"><path d="M 76.960938 68.503906 C 70.617188 70.242188 66.175781 74.210938 67.039062 77.363281 C 67.90625 80.519531 73.75 81.667969 80.09375 79.929688 C 86.441406 78.1875 90.882812 74.21875 90.015625 71.066406 C 89.152344 67.910156 83.308594 66.761719 76.960938 68.503906 Z M 76.960938 68.503906 " clip-rule="nonzero"/></clipPath><clipPath id="c527e3fe39"><path d="M 72.839844 54.464844 L 78.238281 54.464844 L 78.238281 60.644531 L 72.839844 60.644531 Z M 72.839844 54.464844 " clip-rule="nonzero"/></clipPath><clipPath id="e56ac3e8b4"><path d="M 75.539062 54.464844 C 77.03125 54.464844 78.238281 55.675781 78.238281 57.164062 L 78.238281 57.941406 C 78.238281 59.433594 77.03125 60.640625 75.539062 60.640625 C 74.050781 60.640625 72.839844 59.433594 72.839844 57.941406 L 72.839844 57.164062 C 72.839844 55.675781 74.050781 54.464844 75.539062 54.464844 Z M 75.539062 54.464844 " clip-rule="nonzero"/></clipPath><clipPath id="99991d38a3"><path d="M 41.542969 54.167969 L 53.671875 54.167969 L 53.671875 70.9375 L 41.542969 70.9375 Z M 41.542969 54.167969 " clip-rule="nonzero"/></clipPath><clipPath id="430c656668"><path d="M 47.609375 54.167969 C 49.214844 54.167969 50.757812 54.804688 51.894531 55.941406 C 53.03125 57.082031 53.671875 58.621094 53.671875 60.230469 L 53.671875 64.832031 C 53.671875 66.4375 53.03125 67.980469 51.894531 69.117188 C 50.757812 70.257812 49.214844 70.894531 47.609375 70.894531 C 46 70.894531 44.457031 70.257812 43.320312 69.117188 C 42.183594 67.980469 41.542969 66.4375 41.542969 64.832031 L 41.542969 60.230469 C 41.542969 58.621094 42.183594 57.082031 43.320312 55.941406 C 44.457031 54.804688 46 54.167969 47.609375 54.167969 Z M 47.609375 54.167969 " clip-rule="nonzero"/></clipPath><clipPath id="21aae48184"><path d="M 47.175781 54.167969 L 52.574219 54.167969 L 52.574219 60.34375 L 47.175781 60.34375 Z M 47.175781 54.167969 " clip-rule="nonzero"/></clipPath><clipPath id="a75697adef"><path d="M 49.875 54.167969 C 51.367188 54.167969 52.574219 55.375 52.574219 56.867188 L 52.574219 57.644531 C 52.574219 59.132812 51.367188 60.34375 49.875 60.34375 C 48.386719 60.34375 47.175781 59.132812 47.175781 57.644531 L 47.175781 56.867188 C 47.175781 55.375 48.386719 54.167969 49.875 54.167969 Z M 49.875 54.167969 " clip-rule="nonzero"/></clipPath><clipPath id="14373fae66"><path d="M 38 68 L 62 68 L 62 82 L 38 82 Z M 38 68 " clip-rule="nonzero"/></clipPath><clipPath id="efba12b9db"><path d="M 39.878906 66.25 L 62.933594 72.292969 L 59.929688 83.753906 L 36.875 77.710938 Z M 39.878906 66.25 " clip-rule="nonzero"/></clipPath><clipPath id="f62c48a359"><path d="M 51.402344 69.269531 C 45.039062 67.601562 39.207031 68.816406 38.378906 71.980469 C 37.546875 75.144531 42.035156 79.0625 48.398438 80.730469 C 54.761719 82.398438 60.59375 81.183594 61.421875 78.019531 C 62.253906 74.855469 57.765625 70.9375 51.402344 69.269531 Z M 51.402344 69.269531 " clip-rule="nonzero"/></clipPath><clipPath id="853f8dda7d"><path d="M 52.957031 76.859375 L 68.957031 76.859375 L 68.957031 83.910156 L 52.957031 83.910156 Z M 52.957031 76.859375 " clip-rule="nonzero"/></clipPath><clipPath id="2ffa20cfe6"><path d="M 50.773438 68.324219 L 71.113281 68.324219 L 71.113281 78.359375 L 50.773438 78.359375 Z M 50.773438 68.324219 " clip-rule="nonzero"/></clipPath><clipPath id="4bc78cc3a7"><path d="M 63.527344 70.214844 L 67.414062 70.214844 L 67.414062 73.445312 L 63.527344 73.445312 Z M 63.527344 70.214844 " clip-rule="nonzero"/></clipPath><clipPath id="ac7528d942"><path d="M 64.488281 70.25 C 65.824219 70.847656 66.363281 71.210938 66.695312 71.519531 C 66.960938 71.769531 67.21875 72.089844 67.324219 72.28125 C 67.375 72.378906 67.390625 72.445312 67.398438 72.527344 C 67.40625 72.613281 67.402344 72.703125 67.382812 72.785156 C 67.367188 72.871094 67.335938 72.957031 67.296875 73.03125 C 67.253906 73.105469 67.195312 73.171875 67.132812 73.226562 C 67.066406 73.285156 66.992188 73.332031 66.910156 73.363281 C 66.832031 73.394531 66.742188 73.417969 66.65625 73.425781 C 66.574219 73.429688 66.484375 73.425781 66.398438 73.402344 C 66.320312 73.378906 66.234375 73.34375 66.164062 73.296875 C 66.09375 73.25 66.023438 73.183594 65.972656 73.121094 C 65.921875 73.054688 65.878906 72.972656 65.851562 72.894531 C 65.824219 72.816406 65.804688 72.726562 65.804688 72.640625 C 65.804688 72.558594 65.8125 72.464844 65.84375 72.382812 C 65.871094 72.304688 65.90625 72.21875 65.960938 72.152344 C 66.011719 72.082031 66.078125 72.023438 66.148438 71.976562 C 66.21875 71.929688 66.296875 71.886719 66.375 71.863281 C 66.457031 71.839844 66.550781 71.824219 66.632812 71.832031 C 66.71875 71.835938 66.808594 71.855469 66.886719 71.882812 C 66.96875 71.914062 67.046875 71.957031 67.113281 72.011719 C 67.179688 72.066406 67.238281 72.136719 67.28125 72.207031 C 67.328125 72.277344 67.359375 72.359375 67.378906 72.445312 C 67.398438 72.527344 67.40625 72.617188 67.398438 72.703125 C 67.390625 72.785156 67.367188 72.875 67.332031 72.949219 C 67.300781 73.03125 67.25 73.105469 67.191406 73.167969 C 67.136719 73.226562 67.066406 73.285156 66.992188 73.324219 C 66.914062 73.367188 66.832031 73.402344 66.746094 73.414062 C 66.664062 73.429688 66.574219 73.433594 66.488281 73.417969 C 66.40625 73.40625 66.316406 73.378906 66.242188 73.339844 C 66.164062 73.300781 66.109375 73.261719 66.035156 73.183594 C 65.914062 73.0625 65.800781 72.839844 65.601562 72.652344 C 65.308594 72.371094 64.664062 71.914062 64.347656 71.75 C 64.171875 71.660156 64.023438 71.65625 63.917969 71.601562 C 63.855469 71.566406 63.816406 71.535156 63.773438 71.492188 C 63.730469 71.449219 63.695312 71.417969 63.660156 71.355469 C 63.613281 71.273438 63.558594 71.136719 63.550781 71.023438 C 63.539062 70.910156 63.574219 70.761719 63.605469 70.671875 C 63.628906 70.605469 63.652344 70.570312 63.695312 70.519531 C 63.753906 70.441406 63.882812 70.34375 63.964844 70.296875 C 64.027344 70.265625 64.070312 70.246094 64.136719 70.238281 C 64.230469 70.222656 64.488281 70.25 64.488281 70.25 " clip-rule="nonzero"/></clipPath><clipPath id="a326ab0030"><path d="M 67.238281 74.371094 L 68.667969 74.371094 L 68.667969 75.84375 L 67.238281 75.84375 Z M 67.238281 74.371094 " clip-rule="nonzero"/></clipPath><clipPath id="f5827a9823"><path d="M 68.667969 74.898438 C 68.667969 75.351562 68.617188 75.46875 68.546875 75.558594 C 68.476562 75.648438 68.378906 75.726562 68.273438 75.773438 C 68.171875 75.820312 68.046875 75.839844 67.933594 75.835938 C 67.820312 75.828125 67.699219 75.789062 67.601562 75.730469 C 67.5 75.675781 67.40625 75.582031 67.351562 75.488281 C 67.289062 75.390625 67.253906 75.265625 67.25 75.15625 C 67.242188 75.042969 67.265625 74.914062 67.3125 74.8125 C 67.359375 74.710938 67.4375 74.609375 67.523438 74.539062 C 67.613281 74.46875 67.730469 74.414062 67.84375 74.394531 C 67.957031 74.375 68.082031 74.386719 68.191406 74.417969 C 68.296875 74.449219 68.492188 74.597656 68.492188 74.597656 " clip-rule="nonzero"/></clipPath><clipPath id="6534d3e4c5"><path d="M 43 17 L 51 17 L 51 26 L 43 26 Z M 43 17 " clip-rule="nonzero"/></clipPath><clipPath id="ed35d9459b"><path d="M 37.585938 18.632812 L 51.101562 17.53125 L 51.761719 25.636719 L 38.25 26.742188 Z M 37.585938 18.632812 " clip-rule="nonzero"/></clipPath><clipPath id="5eab2f458a"><path d="M 37.585938 18.632812 L 51.101562 17.53125 L 51.761719 25.636719 L 38.25 26.742188 Z M 37.585938 18.632812 " clip-rule="nonzero"/></clipPath><clipPath id="5e91c4e2d3"><path d="M 37.585938 18.632812 L 51.101562 17.53125 L 51.761719 25.636719 L 38.25 26.742188 Z M 37.585938 18.632812 " clip-rule="nonzero"/></clipPath><clipPath id="191dca985f"><path d="M 38 20 L 44 20 L 44 27 L 38 27 Z M 38 20 " clip-rule="nonzero"/></clipPath><clipPath id="dce3284556"><path d="M 37.585938 18.632812 L 51.101562 17.53125 L 51.761719 25.636719 L 38.25 26.742188 Z M 37.585938 18.632812 " clip-rule="nonzero"/></clipPath><clipPath id="d5c4054777"><path d="M 37.585938 18.632812 L 51.101562 17.53125 L 51.761719 25.636719 L 38.25 26.742188 Z M 37.585938 18.632812 " clip-rule="nonzero"/></clipPath><clipPath id="d997d0f425"><path d="M 37.585938 18.632812 L 51.101562 17.53125 L 51.761719 25.636719 L 38.25 26.742188 Z M 37.585938 18.632812 " clip-rule="nonzero"/></clipPath><clipPath id="70cc78934b"><path d="M 91 102 L 106 102 L 106 134 L 91 134 Z M 91 102 " clip-rule="nonzero"/></clipPath><clipPath id="713ea159a6"><path d="M 95.96875 102.011719 L 105.1875 103.308594 L 100.921875 133.664062 L 91.703125 132.367188 Z M 95.96875 102.011719 " clip-rule="nonzero"/></clipPath><clipPath id="218a55273f"><path d="M 95.96875 102.011719 L 105.1875 103.308594 L 100.925781 133.636719 L 91.707031 132.34375 Z M 95.96875 102.011719 " clip-rule="nonzero"/></clipPath><clipPath id="a24bec80e1"><path d="M 83 127 L 98 127 L 98 142 L 83 142 Z M 83 127 " clip-rule="nonzero"/></clipPath><clipPath id="ec63587a48"><path d="M 88.199219 124.578125 L 100.539062 132.339844 L 93.179688 144.039062 L 80.839844 136.277344 Z M 88.199219 124.578125 " clip-rule="nonzero"/></clipPath><clipPath id="8f962f4131"><path d="M 94.363281 128.453125 C 90.960938 126.3125 86.550781 127.195312 84.519531 130.425781 C 82.488281 133.65625 83.601562 138.011719 87.003906 140.152344 C 90.410156 142.296875 94.816406 141.414062 96.847656 138.183594 C 98.882812 134.953125 97.769531 130.597656 94.363281 128.453125 Z M 94.363281 128.453125 " clip-rule="nonzero"/></clipPath><clipPath id="2fdf2d5928"><path d="M 93 128 L 110 128 L 110 143 L 93 143 Z M 93 128 " clip-rule="nonzero"/></clipPath><clipPath id="62cd19b7d1"><path d="M 98.5625 125.402344 L 112.179688 133.96875 L 104.820312 145.671875 L 91.203125 137.101562 Z M 98.5625 125.402344 " clip-rule="nonzero"/></clipPath><clipPath id="f635bc6e8b"><path d="M 105.355469 129.675781 C 101.601562 127.316406 96.914062 128.023438 94.882812 131.253906 C 92.847656 134.484375 94.242188 139.015625 97.996094 141.375 C 101.746094 143.734375 106.433594 143.03125 108.46875 139.800781 C 110.5 136.570312 109.105469 132.035156 105.355469 129.675781 Z M 105.355469 129.675781 " clip-rule="nonzero"/></clipPath><clipPath id="46687c4d90"><path d="M 86 124 L 95 124 L 95 132 L 86 132 Z M 86 124 " clip-rule="nonzero"/></clipPath><clipPath id="ce4e8bb8b4"><path d="M 86.578125 128.351562 L 93.441406 124.972656 L 94.796875 127.730469 L 87.933594 131.109375 Z M 86.578125 128.351562 " clip-rule="nonzero"/></clipPath><clipPath id="8727491e55"><path d="M 86.578125 128.351562 L 93.4375 124.976562 L 94.792969 127.734375 L 87.933594 131.109375 Z M 86.578125 128.351562 " clip-rule="nonzero"/></clipPath><clipPath id="9c8a2a21e6"><path d="M 99 125 L 108 125 L 108 134 L 99 134 Z M 99 125 " clip-rule="nonzero"/></clipPath><clipPath id="33932784c4"><path d="M 102.042969 125.675781 L 107.183594 131.335938 L 104.910156 133.402344 L 99.765625 127.742188 Z M 102.042969 125.675781 " clip-rule="nonzero"/></clipPath><clipPath id="5ff8cb386b"><path d="M 102.042969 125.675781 L 107.179688 131.335938 L 104.90625 133.398438 L 99.765625 127.742188 Z M 102.042969 125.675781 " clip-rule="nonzero"/></clipPath><clipPath id="28940ffbe8"><path d="M 74.179688 5.433594 L 145.847656 5.433594 L 145.847656 77.105469 L 74.179688 77.105469 Z M 74.179688 5.433594 " clip-rule="nonzero"/></clipPath><clipPath id="684f526a87"><path d="M 110.011719 5.433594 C 90.222656 5.433594 74.179688 21.476562 74.179688 41.269531 C 74.179688 61.0625 90.222656 77.105469 110.011719 77.105469 C 129.804688 77.105469 145.847656 61.0625 145.847656 41.269531 C 145.847656 21.476562 129.804688 5.433594 110.011719 5.433594 Z M 110.011719 5.433594 " clip-rule="nonzero"/></clipPath><clipPath id="b63503234a"><path d="M 73 17 L 118 17 L 118 89 L 73 89 Z M 73 17 " clip-rule="nonzero"/></clipPath><clipPath id="32f5661225"><path d="M 67.96875 21.882812 L 109.125 13.933594 L 122.726562 84.34375 L 81.574219 92.296875 Z M 67.96875 21.882812 " clip-rule="nonzero"/></clipPath><clipPath id="bfdf0cfb6d"><path d="M 88.546875 17.90625 C 77.179688 20.105469 71.011719 37.636719 74.765625 57.070312 C 78.519531 76.5 90.777344 90.472656 102.140625 88.277344 C 113.507812 86.082031 119.675781 68.550781 115.921875 49.117188 C 112.167969 29.683594 99.910156 15.710938 88.546875 17.90625 Z M 88.546875 17.90625 " clip-rule="nonzero"/></clipPath><clipPath id="73aab6679a"><path d="M 92 25 L 145 25 L 145 90 L 92 90 Z M 92 25 " clip-rule="nonzero"/></clipPath><clipPath id="5cf020cc51"><path d="M 120.222656 16.160156 L 155.703125 38.476562 L 117.515625 99.179688 L 82.035156 76.863281 Z M 120.222656 16.160156 " clip-rule="nonzero"/></clipPath><clipPath id="44c97335b1"><path d="M 137.960938 27.320312 C 128.164062 21.15625 111.679688 29.738281 101.140625 46.492188 C 90.601562 63.246094 90 81.820312 99.796875 87.984375 C 109.597656 94.148438 126.082031 85.5625 136.621094 68.8125 C 147.160156 52.058594 147.757812 33.480469 137.960938 27.320312 Z M 137.960938 27.320312 " clip-rule="nonzero"/></clipPath><clipPath id="8942fd1239"><path d="M 86 100 L 97 100 L 97 111 L 86 111 Z M 86 100 " clip-rule="nonzero"/></clipPath><clipPath id="bc4fa65db8"><path d="M 90.007812 98.847656 L 98.675781 104.300781 L 93.425781 112.644531 L 84.757812 107.191406 Z M 90.007812 98.847656 " clip-rule="nonzero"/></clipPath><clipPath id="a7a2b01e27"><path d="M 94.328125 101.566406 C 91.941406 100.066406 88.832031 100.714844 87.382812 103.019531 C 85.933594 105.324219 86.695312 108.40625 89.082031 109.910156 C 91.46875 111.410156 94.578125 110.761719 96.027344 108.457031 C 97.476562 106.152344 96.71875 103.070312 94.328125 101.566406 Z M 94.328125 101.566406 " clip-rule="nonzero"/></clipPath><clipPath id="de52edb9fe"><path d="M 107 101 L 115 101 L 115 109 L 107 109 Z M 107 101 " clip-rule="nonzero"/></clipPath><clipPath id="dd6bd7a939"><path d="M 110.023438 100.179688 L 116.292969 104.121094 L 112.453125 110.222656 L 106.1875 106.28125 Z M 110.023438 100.179688 " clip-rule="nonzero"/></clipPath><clipPath id="ba47e01457"><path d="M 113.148438 102.144531 C 111.421875 101.058594 109.164062 101.546875 108.105469 103.230469 C 107.046875 104.914062 107.585938 107.160156 109.3125 108.246094 C 111.035156 109.332031 113.292969 108.847656 114.355469 107.160156 C 115.414062 105.476562 114.875 103.230469 113.148438 102.144531 Z M 113.148438 102.144531 " clip-rule="nonzero"/></clipPath><clipPath id="1464946382"><path d="M 115 72 L 134 72 L 134 90 L 115 90 Z M 115 72 " clip-rule="nonzero"/></clipPath><clipPath id="17f683105c"><path d="M 131.867188 70.738281 L 134.882812 73.753906 L 117.503906 91.132812 L 114.484375 88.117188 Z M 131.867188 70.738281 " clip-rule="nonzero"/></clipPath><clipPath id="616a36c6c7"><path d="M 133.375 72.246094 C 132.542969 71.410156 127.976562 74.625 123.179688 79.425781 C 118.378906 84.222656 115.164062 88.789062 116 89.621094 C 116.832031 90.457031 121.398438 87.242188 126.195312 82.441406 C 130.992188 77.644531 134.207031 73.078125 133.375 72.246094 Z M 133.375 72.246094 " clip-rule="nonzero"/></clipPath><clipPath id="21ddc4407a"><path d="M 76 24 L 120 24 L 120 96 L 76 96 Z M 76 24 " clip-rule="nonzero"/></clipPath><clipPath id="7653de09fd"><path d="M 70.480469 29.132812 L 111.636719 21.179688 L 125.238281 91.59375 L 84.085938 99.542969 Z M 70.480469 29.132812 " clip-rule="nonzero"/></clipPath><clipPath id="5856fbf93a"><path d="M 91.058594 25.15625 C 79.691406 27.351562 73.523438 44.882812 77.277344 64.316406 C 81.03125 83.75 93.289062 97.722656 104.652344 95.527344 C 116.019531 93.328125 122.1875 75.796875 118.433594 56.363281 C 114.679688 36.933594 102.421875 22.960938 91.058594 25.15625 Z M 91.058594 25.15625 " clip-rule="nonzero"/></clipPath><clipPath id="d9d3046d11"><path d="M 80 52 L 108 52 L 108 94 L 80 94 Z M 80 52 " clip-rule="nonzero"/></clipPath><clipPath id="9d5075ac71"><path d="M 77.40625 55.875 L 102.734375 50.484375 L 111.246094 90.453125 L 85.917969 95.847656 Z M 77.40625 55.875 " clip-rule="nonzero"/></clipPath><clipPath id="c4a46ea39a"><path d="M 90.070312 53.179688 C 83.074219 54.667969 79.308594 64.808594 81.65625 75.828125 C 84 86.847656 91.574219 94.574219 98.566406 93.085938 C 105.5625 91.597656 109.328125 81.457031 106.980469 70.4375 C 104.636719 59.417969 97.0625 51.691406 90.070312 53.179688 Z M 90.070312 53.179688 " clip-rule="nonzero"/></clipPath><clipPath id="ec63d90d74"><path d="M 84 81 L 94 81 L 94 105 L 84 105 Z M 84 81 " clip-rule="nonzero"/></clipPath><clipPath id="6d8b129179"><path d="M 91.828125 81.097656 L 94.785156 104.503906 L 87.523438 105.421875 L 84.566406 82.015625 Z M 91.828125 81.097656 " clip-rule="nonzero"/></clipPath><clipPath id="355eddfd24"><path d="M 91.828125 81.097656 L 94.785156 104.503906 L 87.523438 105.421875 L 84.566406 82.015625 Z M 91.828125 81.097656 " clip-rule="nonzero"/></clipPath><clipPath id="fbdeb7257a"><path d="M 92 104 L 99 104 L 99 127 L 92 127 Z M 92 104 " clip-rule="nonzero"/></clipPath><clipPath id="ad2c4812a4"><path d="M 95.691406 104.023438 L 98.714844 104.449219 L 95.644531 126.277344 L 92.625 125.855469 Z M 95.691406 104.023438 " clip-rule="nonzero"/></clipPath><clipPath id="ee4abc3585"><path d="M 95.691406 104.023438 L 98.714844 104.449219 L 95.648438 126.273438 L 92.625 125.851562 Z M 95.691406 104.023438 " clip-rule="nonzero"/></clipPath><clipPath id="a9922df7c3"><path d="M 98.714844 104.023438 L 109.832031 104.023438 L 109.832031 107.550781 L 98.714844 107.550781 Z M 98.714844 104.023438 " clip-rule="nonzero"/></clipPath><clipPath id="1238e5c785"><path d="M 90 100 L 103 100 L 103 111 L 90 111 Z M 90 100 " clip-rule="nonzero"/></clipPath><clipPath id="d2a5f40c42"><path d="M 100.375 100.117188 L 103 106.203125 L 93.535156 110.285156 L 90.910156 104.195312 Z M 100.375 100.117188 " clip-rule="nonzero"/></clipPath><clipPath id="1392d53ffd"><path d="M 100.375 100.117188 L 103 106.203125 L 93.554688 110.277344 L 90.929688 104.1875 Z M 100.375 100.117188 " clip-rule="nonzero"/></clipPath><clipPath id="2dcd75f1e5"><path d="M 109 83 L 122 83 L 122 106 L 109 106 Z M 109 83 " clip-rule="nonzero"/></clipPath><clipPath id="52efcd9813"><path d="M 107.183594 104.757812 L 115.824219 82.804688 L 122.640625 85.484375 L 113.996094 107.4375 Z M 107.183594 104.757812 " clip-rule="nonzero"/></clipPath><clipPath id="3e9550ff01"><path d="M 107.183594 104.757812 L 115.824219 82.804688 L 122.640625 85.484375 L 113.996094 107.4375 Z M 107.183594 104.757812 " clip-rule="nonzero"/></clipPath><clipPath id="551bb14c4c"><path d="M 112 76 L 131 76 L 131 95 L 112 95 Z M 112 76 " clip-rule="nonzero"/></clipPath><clipPath id="3b9608aa73"><path d="M 128.605469 74.988281 L 131.621094 78.003906 L 114.242188 95.386719 L 111.226562 92.371094 Z M 128.605469 74.988281 " clip-rule="nonzero"/></clipPath><clipPath id="fc5e412cc2"><path d="M 130.113281 76.496094 C 129.28125 75.664062 124.714844 78.878906 119.917969 83.675781 C 115.117188 88.476562 111.902344 93.039062 112.738281 93.875 C 113.570312 94.707031 118.136719 91.492188 122.933594 86.695312 C 127.734375 81.894531 130.949219 77.328125 130.113281 76.496094 Z M 130.113281 76.496094 " clip-rule="nonzero"/></clipPath><clipPath id="c8c487bf2d"><path d="M 90 86 L 115 86 L 115 107 L 90 107 Z M 90 86 " clip-rule="nonzero"/></clipPath><clipPath id="f42934c597"><path d="M 89.058594 89.128906 L 112.15625 84.210938 L 116.246094 103.410156 L 93.148438 108.328125 Z M 89.058594 89.128906 " clip-rule="nonzero"/></clipPath><clipPath id="3599d00007"><path d="M 100.605469 86.671875 C 94.226562 88.027344 89.976562 93.425781 91.105469 98.726562 C 92.234375 104.03125 98.316406 107.226562 104.691406 105.867188 C 111.066406 104.511719 115.320312 99.113281 114.191406 93.8125 C 113.0625 88.511719 106.980469 85.3125 100.605469 86.671875 Z M 100.605469 86.671875 " clip-rule="nonzero"/></clipPath><clipPath id="e72dca5b34"><path d="M 92 77 L 117 77 L 117 97 L 92 97 Z M 92 77 " clip-rule="nonzero"/></clipPath><clipPath id="3671a08b93"><path d="M 90.929688 79.902344 L 114.027344 74.984375 L 118.117188 94.183594 L 95.019531 99.101562 Z M 90.929688 79.902344 " clip-rule="nonzero"/></clipPath><clipPath id="56a8549dfb"><path d="M 102.476562 77.445312 C 96.101562 78.804688 91.847656 84.203125 92.976562 89.503906 C 94.105469 94.804688 100.1875 98 106.5625 96.644531 C 112.941406 95.285156 117.195312 89.886719 116.066406 84.585938 C 114.9375 79.285156 108.851562 76.085938 102.476562 77.445312 Z M 102.476562 77.445312 " clip-rule="nonzero"/></clipPath><clipPath id="cf00a67ede"><path d="M 85 5 L 142 5 L 142 86 L 85 86 Z M 85 5 " clip-rule="nonzero"/></clipPath><clipPath id="26549b0b12"><path d="M 83.253906 7.097656 L 139.300781 4.351562 L 143.21875 84.261719 L 87.171875 87.007812 Z M 83.253906 7.097656 " clip-rule="nonzero"/></clipPath><clipPath id="dbc3b0ba96"><path d="M 111.277344 5.722656 C 95.800781 6.484375 84.128906 24.964844 85.210938 47.007812 C 86.289062 69.046875 99.710938 86.300781 115.1875 85.542969 C 130.667969 84.785156 142.335938 66.300781 141.257812 44.257812 C 140.175781 22.21875 126.753906 4.964844 111.277344 5.722656 Z M 111.277344 5.722656 " clip-rule="nonzero"/></clipPath><clipPath id="53bdf327c2"><path d="M 85 6 L 147 6 L 147 79 L 85 79 Z M 85 6 " clip-rule="nonzero"/></clipPath><clipPath id="869d2d2900"><path d="M 83.9375 7.691406 L 144.429688 4.726562 L 147.996094 77.503906 L 87.503906 80.46875 Z M 83.9375 7.691406 " clip-rule="nonzero"/></clipPath><clipPath id="304070525e"><path d="M 114.183594 6.207031 C 97.480469 7.027344 84.734375 23.964844 85.71875 44.039062 C 86.703125 64.117188 101.042969 79.726562 117.746094 78.90625 C 134.449219 78.089844 147.195312 61.152344 146.210938 41.074219 C 145.226562 21 130.886719 5.390625 114.183594 6.207031 Z M 114.183594 6.207031 " clip-rule="nonzero"/></clipPath><clipPath id="0a825a0972"><path d="M 131 21 L 139 21 L 139 31 L 131 31 Z M 131 21 " clip-rule="nonzero"/></clipPath><clipPath id="8d16420ff5"><path d="M 129.753906 29.511719 L 131.582031 21.308594 L 140.050781 23.195312 L 138.222656 31.402344 Z M 129.753906 29.511719 " clip-rule="nonzero"/></clipPath><clipPath id="49e4dd0ae6"><path d="M 129.753906 29.511719 L 131.582031 21.308594 L 140.050781 23.195312 L 138.222656 31.402344 Z M 129.753906 29.511719 " clip-rule="nonzero"/></clipPath><clipPath id="c98873a11a"><path d="M 125.230469 16.15625 L 128.292969 16.15625 L 128.292969 19.21875 L 125.230469 19.21875 Z M 125.230469 16.15625 " clip-rule="nonzero"/></clipPath><clipPath id="7dc514d55a"><path d="M 126.761719 16.15625 C 125.917969 16.15625 125.230469 16.84375 125.230469 17.6875 C 125.230469 18.535156 125.917969 19.21875 126.761719 19.21875 C 127.605469 19.21875 128.292969 18.535156 128.292969 17.6875 C 128.292969 16.84375 127.605469 16.15625 126.761719 16.15625 Z M 126.761719 16.15625 " clip-rule="nonzero"/></clipPath><clipPath id="205435c008"><path d="M 84 75 L 105 75 L 105 103 L 84 103 Z M 84 75 " clip-rule="nonzero"/></clipPath><clipPath id="2e1a65fc20"><path d="M 92.96875 73.242188 L 106.472656 98.496094 L 95.476562 104.375 L 81.976562 79.121094 Z M 92.96875 73.242188 " clip-rule="nonzero"/></clipPath><clipPath id="eb0f24af96"><path d="M 95.910156 78.738281 L 103.523438 92.984375 C 104.304688 94.441406 104.472656 96.148438 103.992188 97.730469 C 103.511719 99.3125 102.421875 100.640625 100.964844 101.421875 C 99.507812 102.199219 97.800781 102.367188 96.21875 101.886719 C 94.636719 101.410156 93.308594 100.320312 92.527344 98.863281 L 84.914062 84.617188 C 84.132812 83.160156 83.964844 81.453125 84.445312 79.871094 C 84.925781 78.285156 86.015625 76.960938 87.472656 76.179688 C 88.929688 75.402344 90.640625 75.234375 92.222656 75.710938 C 93.804688 76.191406 95.128906 77.28125 95.910156 78.738281 Z M 95.910156 78.738281 " clip-rule="nonzero"/></clipPath><clipPath id="7918332b19"><path d="M 85 78 L 105 78 L 105 107 L 85 107 Z M 85 78 " clip-rule="nonzero"/></clipPath><clipPath id="0b83da4c73"><path d="M 95.628906 76.855469 L 105.910156 103.585938 L 94.277344 108.0625 L 83.992188 81.335938 Z M 95.628906 76.855469 " clip-rule="nonzero"/></clipPath><clipPath id="2bdcbf09db"><path d="M 97.867188 82.675781 L 103.667969 97.75 C 104.261719 99.292969 104.21875 101.007812 103.546875 102.519531 C 102.875 104.03125 101.628906 105.214844 100.085938 105.808594 C 98.542969 106.402344 96.828125 106.355469 95.316406 105.6875 C 93.808594 105.015625 92.625 103.769531 92.03125 102.226562 L 86.230469 87.152344 C 85.636719 85.609375 85.679688 83.894531 86.351562 82.382812 C 87.023438 80.871094 88.269531 79.691406 89.8125 79.097656 C 91.355469 78.503906 93.070312 78.546875 94.582031 79.21875 C 96.089844 79.886719 97.273438 81.132812 97.867188 82.675781 Z M 97.867188 82.675781 " clip-rule="nonzero"/></clipPath><clipPath id="47ad8a02c8"><path d="M 86 79 L 103 79 L 103 108 L 86 108 Z M 86 79 " clip-rule="nonzero"/></clipPath><clipPath id="80b436212b"><path d="M 97.929688 78.390625 L 103.644531 106.453125 L 91.429688 108.941406 L 85.714844 80.878906 Z M 97.929688 78.390625 " clip-rule="nonzero"/></clipPath><clipPath id="4377bd5e57"><path d="M 99.175781 84.5 L 102.398438 100.328125 C 102.726562 101.949219 102.402344 103.632812 101.488281 105.011719 C 100.578125 106.390625 99.152344 107.351562 97.535156 107.679688 C 95.914062 108.011719 94.230469 107.683594 92.851562 106.769531 C 91.472656 105.859375 90.511719 104.4375 90.179688 102.816406 L 86.957031 86.988281 C 86.628906 85.367188 86.953125 83.683594 87.867188 82.304688 C 88.777344 80.925781 90.203125 79.964844 91.820312 79.636719 C 93.441406 79.304688 95.125 79.632812 96.503906 80.546875 C 97.882812 81.457031 98.84375 82.878906 99.175781 84.5 Z M 99.175781 84.5 " clip-rule="nonzero"/></clipPath><clipPath id="3be91e2339"><path d="M 92 74 L 108 74 L 108 88 L 92 88 Z M 92 74 " clip-rule="nonzero"/></clipPath><clipPath id="e19b19e07f"><path d="M 90.207031 79.585938 L 103.460938 71.667969 L 109.816406 82.308594 L 96.558594 90.222656 Z M 90.207031 79.585938 " clip-rule="nonzero"/></clipPath><clipPath id="cf6dfe0ff9"><path d="M 96.824219 75.636719 C 93.167969 77.816406 91.628906 81.96875 93.382812 84.90625 C 95.136719 87.84375 99.523438 88.457031 103.175781 86.273438 C 106.828125 84.089844 108.367188 79.941406 106.613281 77.003906 C 104.859375 74.066406 100.476562 73.453125 96.824219 75.636719 Z M 96.824219 75.636719 " clip-rule="nonzero"/></clipPath></defs><g clip-path="url(#2e1aade8f5)"><g clip-path="url(#cb40de9dad)"><path fill="#f8c038" d="M 3.382812 34.710938 L 95.453125 34.710938 L 95.453125 122.988281 L 3.382812 122.988281 Z M 3.382812 34.710938 " fill-opacity="1" fill-rule="nonzero"/></g></g><g clip-path="url(#e8335cdc68)"><g clip-path="url(#deb93a972d)"><g clip-path="url(#9a2611fb98)"><path fill="#f09020" d="M 85.175781 129.953125 L 68.496094 143.214844 L 59.632812 132.066406 L 76.3125 118.804688 Z M 85.175781 129.953125 " fill-opacity="1" fill-rule="nonzero"/></g></g></g><g clip-path="url(#83c60cfd5e)"><g clip-path="url(#e6a87cbdd6)"><g clip-path="url(#f4ae9b226e)"><path fill="#f09020" d="M 89.25 134.328125 L 68.183594 137.535156 L 66.039062 123.453125 L 87.105469 120.25 Z M 89.25 134.328125 " fill-opacity="1" fill-rule="nonzero"/></g></g></g><g clip-path="url(#2b0474bb1d)"><g clip-path="url(#c002eb590c)"><g clip-path="url(#8607dc83d7)"><path fill="#f09020" d="M 37.582031 136.746094 L 16.277344 137.027344 L 16.085938 122.785156 L 37.394531 122.503906 Z M 37.582031 136.746094 " fill-opacity="1" fill-rule="nonzero"/></g></g></g><g clip-path="url(#860fe8a5d1)"><g clip-path="url(#441f7f1715)"><g clip-path="url(#282a2c0ae6)"><path fill="#f09020" d="M 38.128906 142.695312 L 19.503906 132.34375 L 26.421875 119.894531 L 45.046875 130.246094 Z M 38.128906 142.695312 " fill-opacity="1" fill-rule="nonzero"/></g></g></g><g clip-path="url(#d21e1f93ca)"><g clip-path="url(#f69ba9fc3e)"><path fill="#fddc66" d="M 30.054688 62.53125 L 93.121094 62.53125 L 93.121094 116.347656 L 30.054688 116.347656 Z M 30.054688 62.53125 " fill-opacity="1" fill-rule="nonzero"/></g></g><g clip-path="url(#49aa0d354f)"><g clip-path="url(#db69ed4036)"><path fill="#ffffff" d="M 37.390625 48.9375 L 58.601562 48.9375 L 58.601562 76.113281 L 37.390625 76.113281 Z M 37.390625 48.9375 " fill-opacity="1" fill-rule="nonzero"/></g></g><g clip-path="url(#2e5e027404)"><g clip-path="url(#2c3ca31ba4)"><path fill="#ffffff" d="M 63.195312 48.9375 L 84.410156 48.9375 L 84.410156 76.113281 L 63.195312 76.113281 Z M 63.195312 48.9375 " fill-opacity="1" fill-rule="nonzero"/></g></g><g clip-path="url(#7a9a5be93c)"><g clip-path="url(#cb25699382)"><path fill="#4b4b4b" d="M 67.738281 54.464844 L 79.867188 54.464844 L 79.867188 71.191406 L 67.738281 71.191406 Z M 67.738281 54.464844 " fill-opacity="1" fill-rule="nonzero"/></g></g><g clip-path="url(#5f67366351)"><g clip-path="url(#94ae9ea579)"><g clip-path="url(#b1f33e6133)"><path fill="#fddc66" d="M 65.472656 71.652344 L 88.460938 65.351562 L 91.59375 76.777344 L 68.605469 83.078125 Z M 65.472656 71.652344 " fill-opacity="1" fill-rule="nonzero"/></g></g></g><g clip-path="url(#c527e3fe39)"><g clip-path="url(#e56ac3e8b4)"><path fill="#ffffff" d="M 72.839844 54.464844 L 78.238281 54.464844 L 78.238281 60.644531 L 72.839844 60.644531 Z M 72.839844 54.464844 " fill-opacity="1" fill-rule="nonzero"/></g></g><g clip-path="url(#99991d38a3)"><g clip-path="url(#430c656668)"><path fill="#4b4b4b" d="M 41.542969 54.167969 L 53.671875 54.167969 L 53.671875 70.890625 L 41.542969 70.890625 Z M 41.542969 54.167969 " fill-opacity="1" fill-rule="nonzero"/></g></g><g clip-path="url(#21aae48184)"><g clip-path="url(#a75697adef)"><path fill="#ffffff" d="M 47.175781 54.167969 L 52.574219 54.167969 L 52.574219 60.34375 L 47.175781 60.34375 Z M 47.175781 54.167969 " fill-opacity="1" fill-rule="nonzero"/></g></g><g clip-path="url(#14373fae66)"><g clip-path="url(#efba12b9db)"><g clip-path="url(#f62c48a359)"><path fill="#fddc66" d="M 39.878906 66.25 L 62.933594 72.292969 L 59.929688 83.753906 L 36.875 77.710938 Z M 39.878906 66.25 " fill-opacity="1" fill-rule="nonzero"/></g></g></g><g clip-path="url(#853f8dda7d)"><path fill="#f86018" d="M 68.9375 75.933594 C 68.9375 76.460938 68.882812 76.980469 68.78125 77.492188 C 68.679688 78.007812 68.527344 78.507812 68.328125 78.992188 C 68.125 79.476562 67.878906 79.9375 67.589844 80.375 C 67.296875 80.808594 66.964844 81.214844 66.597656 81.585938 C 66.226562 81.957031 65.820312 82.285156 65.386719 82.578125 C 64.949219 82.871094 64.488281 83.117188 64.003906 83.316406 C 63.519531 83.515625 63.019531 83.667969 62.503906 83.769531 C 61.992188 83.875 61.472656 83.925781 60.945312 83.925781 C 60.421875 83.925781 59.902344 83.875 59.386719 83.769531 C 58.875 83.667969 58.375 83.515625 57.890625 83.316406 C 57.402344 83.117188 56.945312 82.871094 56.507812 82.578125 C 56.070312 82.285156 55.667969 81.957031 55.296875 81.585938 C 54.925781 81.214844 54.59375 80.808594 54.304688 80.375 C 54.011719 79.9375 53.765625 79.476562 53.566406 78.992188 C 53.363281 78.507812 53.210938 78.007812 53.109375 77.492188 C 53.007812 76.980469 52.957031 76.460938 52.957031 75.933594 C 52.957031 75.410156 53.007812 74.890625 53.109375 74.375 C 53.210938 73.863281 53.363281 73.363281 53.566406 72.878906 C 53.765625 72.394531 54.011719 71.933594 54.304688 71.496094 C 54.59375 71.058594 54.925781 70.65625 55.296875 70.285156 C 55.667969 69.914062 56.070312 69.582031 56.507812 69.292969 C 56.945312 69 57.402344 68.753906 57.890625 68.554688 C 58.375 68.351562 58.875 68.203125 59.386719 68.097656 C 59.902344 67.996094 60.421875 67.945312 60.945312 67.945312 C 61.472656 67.945312 61.992188 67.996094 62.503906 68.097656 C 63.019531 68.203125 63.519531 68.351562 64.003906 68.554688 C 64.488281 68.753906 64.949219 69 65.386719 69.292969 C 65.820312 69.582031 66.226562 69.914062 66.597656 70.285156 C 66.964844 70.65625 67.296875 71.058594 67.589844 71.496094 C 67.878906 71.933594 68.125 72.394531 68.328125 72.878906 C 68.527344 73.363281 68.679688 73.863281 68.78125 74.375 C 68.882812 74.890625 68.9375 75.410156 68.9375 75.933594 Z M 68.9375 75.933594 " fill-opacity="1" fill-rule="nonzero"/></g><g clip-path="url(#2ffa20cfe6)"><path fill="#f09020" d="M 71.023438 78.449219 C 71.023438 79.113281 70.957031 79.773438 70.828125 80.425781 C 70.699219 81.078125 70.507812 81.710938 70.25 82.324219 C 69.996094 82.9375 69.6875 83.523438 69.316406 84.074219 C 68.945312 84.628906 68.527344 85.140625 68.058594 85.609375 C 67.585938 86.078125 67.074219 86.5 66.523438 86.867188 C 65.96875 87.238281 65.386719 87.550781 64.773438 87.804688 C 64.15625 88.058594 63.523438 88.25 62.871094 88.378906 C 62.222656 88.511719 61.5625 88.574219 60.898438 88.574219 C 60.234375 88.574219 59.574219 88.511719 58.921875 88.378906 C 58.269531 88.25 57.636719 88.058594 57.023438 87.804688 C 56.410156 87.550781 55.824219 87.238281 55.273438 86.867188 C 54.71875 86.5 54.207031 86.078125 53.738281 85.609375 C 53.269531 85.140625 52.847656 84.628906 52.480469 84.074219 C 52.109375 83.523438 51.796875 82.9375 51.542969 82.324219 C 51.289062 81.710938 51.097656 81.078125 50.96875 80.425781 C 50.835938 79.773438 50.773438 79.113281 50.773438 78.449219 C 50.773438 77.785156 50.835938 77.125 50.96875 76.476562 C 51.097656 75.824219 51.289062 75.191406 51.542969 74.574219 C 51.796875 73.960938 52.109375 73.378906 52.480469 72.824219 C 52.847656 72.273438 53.269531 71.761719 53.738281 71.289062 C 54.207031 70.820312 54.71875 70.402344 55.273438 70.03125 C 55.824219 69.660156 56.410156 69.351562 57.023438 69.09375 C 57.636719 68.839844 58.269531 68.648438 58.921875 68.519531 C 59.574219 68.390625 60.234375 68.324219 60.898438 68.324219 C 61.5625 68.324219 62.222656 68.390625 62.871094 68.519531 C 63.523438 68.648438 64.15625 68.839844 64.773438 69.09375 C 65.386719 69.351562 65.96875 69.660156 66.523438 70.03125 C 67.074219 70.402344 67.585938 70.820312 68.058594 71.289062 C 68.527344 71.761719 68.945312 72.273438 69.316406 72.824219 C 69.6875 73.378906 69.996094 73.960938 70.25 74.574219 C 70.507812 75.191406 70.699219 75.824219 70.828125 76.476562 C 70.957031 77.125 71.023438 77.785156 71.023438 78.449219 Z M 71.023438 78.449219 " fill-opacity="1" fill-rule="nonzero"/></g><g clip-path="url(#4bc78cc3a7)"><g clip-path="url(#ac7528d942)"><path fill="#ffffff" d="M 63.363281 70.046875 L 67.578125 70.046875 L 67.578125 73.613281 L 63.363281 73.613281 Z M 63.363281 70.046875 " fill-opacity="1" fill-rule="nonzero"/></g></g><g clip-path="url(#a326ab0030)"><g clip-path="url(#f5827a9823)"><path fill="#ffffff" d="M 67.0625 74.207031 L 68.875 74.207031 L 68.875 76.023438 L 67.0625 76.023438 Z M 67.0625 74.207031 " fill-opacity="1" fill-rule="nonzero"/></g></g><path stroke-linecap="round" transform="matrix(-0.27119, 0.000000000473315, -0.000000000473315, -0.27119, 55.724808, 76.396051)" fill="none" stroke-linejoin="miter" d="M 1.001821 0.999489 L 11.603256 0.999489 " stroke="#c8831a" stroke-width="2" stroke-opacity="1" stroke-miterlimit="4"/><path stroke-linecap="round" transform="matrix(-0.27119, 0, 0, -0.27119, 55.72302, 74.486482)" fill="none" stroke-linejoin="miter" d="M 0.995227 1.001653 L 6.987343 1.001653 " stroke="#c8831a" stroke-width="2" stroke-opacity="1" stroke-miterlimit="4"/><path stroke-linecap="round" transform="matrix(-0.27119, -0.000000000473315, 0.000000000473315, -0.27119, 55.726508, 72.720701)" fill="none" stroke-linejoin="miter" d="M 0.993682 1.001079 L 3.629637 1.001079 " stroke="#c8831a" stroke-width="2" stroke-opacity="1" stroke-miterlimit="4"/><g clip-path="url(#6534d3e4c5)"><g clip-path="url(#ed35d9459b)"><g clip-path="url(#5eab2f458a)"><g clip-path="url(#5e91c4e2d3)"><path fill="#39b54a" d="M 44.476562 25.777344 C 44.113281 25.097656 43.542969 23.765625 43.871094 22.265625 C 44.414062 19.808594 47.160156 17.851562 50.65625 17.789062 C 51.359375 20.679688 50.445312 23.515625 48.398438 24.914062 C 47.023438 25.855469 45.519531 25.878906 44.800781 25.839844 C 45.484375 25.234375 46.238281 24.464844 46.980469 23.511719 C 48.125 22.035156 48.855469 20.605469 49.320312 19.476562 C 48.613281 20.644531 47.753906 21.917969 46.707031 23.230469 C 45.953125 24.179688 45.199219 25.027344 44.476562 25.777344 Z M 44.476562 25.777344 " fill-opacity="1" fill-rule="nonzero"/></g></g></g></g><g clip-path="url(#191dca985f)"><g clip-path="url(#dce3284556)"><g clip-path="url(#d5c4054777)"><g clip-path="url(#d997d0f425)"><path fill="#39b54a" d="M 43.554688 25.929688 C 43.027344 26.136719 42 26.433594 40.925781 26.070312 C 39.167969 25.46875 37.96875 23.3125 38.226562 20.773438 C 40.40625 20.507812 42.410156 21.410156 43.257812 23.011719 C 43.832031 24.089844 43.722656 25.179688 43.632812 25.699219 C 43.246094 25.152344 42.746094 24.539062 42.109375 23.921875 C 41.125 22.964844 40.136719 22.320312 39.347656 21.886719 C 40.144531 22.496094 41.003906 23.226562 41.878906 24.097656 C 42.511719 24.722656 43.066406 25.339844 43.554688 25.929688 Z M 43.554688 25.929688 " fill-opacity="1" fill-rule="nonzero"/></g></g></g></g><g clip-path="url(#70cc78934b)"><g clip-path="url(#713ea159a6)"><g clip-path="url(#218a55273f)"><path fill="#f7eee1" d="M 95.96875 102.011719 L 105.1875 103.308594 L 100.925781 133.628906 L 91.707031 132.332031 Z M 95.96875 102.011719 " fill-opacity="1" fill-rule="nonzero"/></g></g></g><g clip-path="url(#a24bec80e1)"><g clip-path="url(#ec63587a48)"><g clip-path="url(#8f962f4131)"><path fill="#f7eee1" d="M 88.199219 124.578125 L 100.539062 132.339844 L 93.179688 144.039062 L 80.839844 136.277344 Z M 88.199219 124.578125 " fill-opacity="1" fill-rule="nonzero"/></g></g></g><g clip-path="url(#2fdf2d5928)"><g clip-path="url(#62cd19b7d1)"><g clip-path="url(#f635bc6e8b)"><path fill="#f7eee1" d="M 98.5625 125.402344 L 112.132812 133.941406 L 104.773438 145.640625 L 91.203125 137.101562 Z M 98.5625 125.402344 " fill-opacity="1" fill-rule="nonzero"/></g></g></g><g clip-path="url(#46687c4d90)"><g clip-path="url(#ce4e8bb8b4)"><g clip-path="url(#8727491e55)"><path fill="#f7eee1" d="M 86.578125 128.351562 L 93.441406 124.972656 L 94.796875 127.730469 L 87.933594 131.109375 Z M 86.578125 128.351562 " fill-opacity="1" fill-rule="nonzero"/></g></g></g><g clip-path="url(#9c8a2a21e6)"><g clip-path="url(#33932784c4)"><g clip-path="url(#5ff8cb386b)"><path fill="#f7eee1" d="M 102.042969 125.675781 L 107.183594 131.335938 L 104.910156 133.402344 L 99.765625 127.742188 Z M 102.042969 125.675781 " fill-opacity="1" fill-rule="nonzero"/></g></g></g><g clip-path="url(#28940ffbe8)"><g clip-path="url(#684f526a87)"><path fill="#de773c" d="M 74.179688 5.433594 L 145.847656 5.433594 L 145.847656 77.105469 L 74.179688 77.105469 Z M 74.179688 5.433594 " fill-opacity="1" fill-rule="nonzero"/></g></g><g clip-path="url(#b63503234a)"><g clip-path="url(#32f5661225)"><g clip-path="url(#bfdf0cfb6d)"><path fill="#de773c" d="M 67.96875 21.882812 L 109.125 13.933594 L 122.726562 84.34375 L 81.574219 92.296875 Z M 67.96875 21.882812 " fill-opacity="1" fill-rule="nonzero"/></g></g></g><g clip-path="url(#73aab6679a)"><g clip-path="url(#5cf020cc51)"><g clip-path="url(#44c97335b1)"><path fill="#de773c" d="M 120.222656 16.160156 L 155.703125 38.476562 L 117.515625 99.179688 L 82.035156 76.863281 Z M 120.222656 16.160156 " fill-opacity="1" fill-rule="nonzero"/></g></g></g><g clip-path="url(#8942fd1239)"><g clip-path="url(#bc4fa65db8)"><g clip-path="url(#a7a2b01e27)"><path fill="#de773c" d="M 90.007812 98.847656 L 98.640625 104.28125 L 93.394531 112.621094 L 84.757812 107.191406 Z M 90.007812 98.847656 " fill-opacity="1" fill-rule="nonzero"/></g></g></g><g clip-path="url(#de52edb9fe)"><g clip-path="url(#dd6bd7a939)"><g clip-path="url(#ba47e01457)"><path fill="#de773c" d="M 110.023438 100.179688 L 116.269531 104.109375 L 112.429688 110.210938 L 106.1875 106.28125 Z M 110.023438 100.179688 " fill-opacity="1" fill-rule="nonzero"/></g></g></g><g clip-path="url(#1464946382)"><g clip-path="url(#17f683105c)"><g clip-path="url(#616a36c6c7)"><path fill="#de773c" d="M 131.867188 70.738281 L 134.882812 73.753906 L 117.503906 91.132812 L 114.484375 88.117188 Z M 131.867188 70.738281 " fill-opacity="1" fill-rule="nonzero"/></g></g></g><g clip-path="url(#21ddc4407a)"><g clip-path="url(#7653de09fd)"><g clip-path="url(#5856fbf93a)"><path fill="#de773c" d="M 70.480469 29.132812 L 111.636719 21.179688 L 125.238281 91.59375 L 84.085938 99.542969 Z M 70.480469 29.132812 " fill-opacity="1" fill-rule="nonzero"/></g></g></g><g clip-path="url(#d9d3046d11)"><g clip-path="url(#9d5075ac71)"><g clip-path="url(#c4a46ea39a)"><path fill="#de773c" d="M 77.40625 55.875 L 102.734375 50.484375 L 111.222656 90.355469 L 85.894531 95.746094 Z M 77.40625 55.875 " fill-opacity="1" fill-rule="nonzero"/></g></g></g><g clip-path="url(#ec63d90d74)"><g clip-path="url(#6d8b129179)"><g clip-path="url(#355eddfd24)"><path fill="#de773c" d="M 84.933594 84.066406 C 84.878906 84.105469 84.84375 84.15625 84.835938 84.222656 C 84.828125 84.289062 84.847656 84.347656 84.894531 84.398438 C 86.574219 86.25 87.941406 89.558594 88.429688 93.441406 C 88.921875 97.320312 88.417969 100.863281 87.253906 103.078125 C 87.222656 103.136719 87.21875 103.199219 87.242188 103.261719 C 87.265625 103.324219 87.3125 103.367188 87.375 103.390625 L 91.613281 104.898438 C 91.738281 104.941406 91.828125 104.902344 91.886719 104.78125 C 92.128906 104.257812 92.339844 103.722656 92.523438 103.171875 C 93.496094 100.230469 93.773438 96.554688 93.300781 92.824219 C 92.832031 89.09375 91.648438 85.605469 89.972656 82.996094 C 89.660156 82.507812 89.324219 82.042969 88.957031 81.59375 C 88.871094 81.492188 88.773438 81.476562 88.664062 81.550781 Z M 84.933594 84.066406 " fill-opacity="1" fill-rule="nonzero"/></g></g></g><g clip-path="url(#fbdeb7257a)"><g clip-path="url(#ad2c4812a4)"><g clip-path="url(#ee4abc3585)"><path fill="#e4d3c8" d="M 95.691406 104.023438 L 98.714844 104.449219 L 95.644531 126.277344 L 92.625 125.855469 Z M 95.691406 104.023438 " fill-opacity="1" fill-rule="nonzero"/></g></g></g><g clip-path="url(#a9922df7c3)"><path fill="#de773c" d="M 99.683594 107.386719 C 99.71875 107.457031 99.769531 107.46875 99.832031 107.425781 C 100.789062 106.757812 102.398438 106.316406 104.222656 106.316406 C 106.042969 106.316406 107.652344 106.757812 108.609375 107.425781 C 108.671875 107.46875 108.722656 107.457031 108.757812 107.386719 L 109.703125 105.515625 C 109.730469 105.460938 109.71875 105.414062 109.667969 105.382812 C 109.4375 105.238281 109.203125 105.109375 108.960938 104.996094 C 107.65625 104.371094 105.972656 104.027344 104.222656 104.027344 C 102.46875 104.027344 100.785156 104.371094 99.484375 104.996094 C 99.238281 105.109375 99.003906 105.238281 98.777344 105.382812 C 98.722656 105.414062 98.710938 105.460938 98.738281 105.515625 Z M 99.683594 107.386719 " fill-opacity="1" fill-rule="nonzero"/></g><g clip-path="url(#1238e5c785)"><g clip-path="url(#d2a5f40c42)"><g clip-path="url(#1392d53ffd)"><path fill="#de773c" d="M 100.375 100.117188 L 103 106.203125 L 93.558594 110.273438 L 90.933594 104.1875 Z M 100.375 100.117188 " fill-opacity="1" fill-rule="nonzero"/></g></g></g><g clip-path="url(#2dcd75f1e5)"><g clip-path="url(#52efcd9813)"><g clip-path="url(#3e9550ff01)"><path fill="#de773c" d="M 114.660156 105.460938 C 114.726562 105.457031 114.777344 105.425781 114.816406 105.371094 C 114.859375 105.316406 114.871094 105.257812 114.855469 105.191406 C 114.269531 102.757812 114.65625 99.203125 116.089844 95.5625 C 117.523438 91.917969 119.664062 89.054688 121.75 87.671875 C 121.804688 87.632812 121.839844 87.582031 121.847656 87.515625 C 121.855469 87.449219 121.835938 87.390625 121.792969 87.339844 L 118.800781 83.984375 C 118.710938 83.882812 118.613281 83.871094 118.503906 83.953125 C 118.039062 84.296875 117.59375 84.664062 117.171875 85.058594 C 114.90625 87.171875 112.898438 90.265625 111.519531 93.761719 C 110.144531 97.261719 109.507812 100.890625 109.722656 103.984375 C 109.765625 104.558594 109.835938 105.132812 109.941406 105.699219 C 109.96875 105.832031 110.046875 105.890625 110.179688 105.878906 Z M 114.660156 105.460938 " fill-opacity="1" fill-rule="nonzero"/></g></g></g><g clip-path="url(#551bb14c4c)"><g clip-path="url(#3b9608aa73)"><g clip-path="url(#fc5e412cc2)"><path fill="#de773c" d="M 128.605469 74.988281 L 131.621094 78.003906 L 114.242188 95.386719 L 111.226562 92.371094 Z M 128.605469 74.988281 " fill-opacity="1" fill-rule="nonzero"/></g></g></g><g clip-path="url(#c8c487bf2d)"><g clip-path="url(#f42934c597)"><g clip-path="url(#3599d00007)"><path fill="#de773c" d="M 89.058594 89.128906 L 112.15625 84.210938 L 116.246094 103.410156 L 93.148438 108.328125 Z M 89.058594 89.128906 " fill-opacity="1" fill-rule="nonzero"/></g></g></g><g clip-path="url(#e72dca5b34)"><g clip-path="url(#3671a08b93)"><g clip-path="url(#56a8549dfb)"><path fill="#de773c" d="M 90.929688 79.902344 L 114.027344 74.984375 L 118.117188 94.183594 L 95.019531 99.101562 Z M 90.929688 79.902344 " fill-opacity="1" fill-rule="nonzero"/></g></g></g><g clip-path="url(#cf00a67ede)"><g clip-path="url(#26549b0b12)"><g clip-path="url(#dbc3b0ba96)"><path fill="#f4a043" d="M 83.253906 7.097656 L 139.300781 4.351562 L 143.21875 84.261719 L 87.171875 87.007812 Z M 83.253906 7.097656 " fill-opacity="1" fill-rule="nonzero"/></g></g></g><g clip-path="url(#53bdf327c2)"><g clip-path="url(#869d2d2900)"><g clip-path="url(#304070525e)"><path fill="#f4a043" d="M 83.9375 7.691406 L 144.429688 4.726562 L 147.996094 77.503906 L 87.503906 80.46875 Z M 83.9375 7.691406 " fill-opacity="1" fill-rule="nonzero"/></g></g></g><g clip-path="url(#0a825a0972)"><g clip-path="url(#8d16420ff5)"><g clip-path="url(#49e4dd0ae6)"><path fill="#ffffff" d="M 132.03125 21.679688 C 131.527344 21.957031 131.296875 22.578125 131.589844 23.089844 C 131.71875 23.3125 131.914062 23.492188 132.089844 23.675781 C 132.292969 23.890625 132.5 24.101562 132.703125 24.316406 C 133.09375 24.726562 133.484375 25.132812 133.847656 25.566406 C 133.933594 25.667969 134.023438 25.765625 134.113281 25.867188 L 134.179688 25.972656 C 134.421875 26.382812 134.660156 26.785156 134.828125 27.234375 C 134.992188 27.6875 135.066406 28.144531 135.140625 28.613281 C 135.289062 29.558594 135.621094 30.578125 136.613281 30.921875 C 137.492188 31.226562 138.21875 30.597656 138.457031 29.789062 C 138.710938 28.921875 138.5 27.933594 138.257812 27.085938 C 137.996094 26.160156 137.59375 25.300781 137.046875 24.507812 C 136.484375 23.667969 135.789062 22.953125 134.964844 22.367188 C 134.511719 22.050781 134.023438 21.808594 133.5 21.644531 C 133.023438 21.496094 132.484375 21.429688 132.03125 21.679688 Z M 132.03125 21.679688 " fill-opacity="1" fill-rule="nonzero"/></g></g></g><g clip-path="url(#c98873a11a)"><g clip-path="url(#7dc514d55a)"><path fill="#ffffff" d="M 125.230469 16.15625 L 128.292969 16.15625 L 128.292969 19.21875 L 125.230469 19.21875 Z M 125.230469 16.15625 " fill-opacity="1" fill-rule="nonzero"/></g></g><g clip-path="url(#205435c008)"><g clip-path="url(#2e1a65fc20)"><g clip-path="url(#eb0f24af96)"><path fill="#de773c" d="M 92.96875 73.242188 L 106.472656 98.496094 L 95.476562 104.375 L 81.976562 79.121094 Z M 92.96875 73.242188 " fill-opacity="1" fill-rule="nonzero"/></g></g></g><g clip-path="url(#7918332b19)"><g clip-path="url(#0b83da4c73)"><g clip-path="url(#2bdcbf09db)"><path fill="#de773c" d="M 95.628906 76.855469 L 105.910156 103.585938 L 94.277344 108.0625 L 83.992188 81.335938 Z M 95.628906 76.855469 " fill-opacity="1" fill-rule="nonzero"/></g></g></g><g clip-path="url(#47ad8a02c8)"><g clip-path="url(#80b436212b)"><g clip-path="url(#4377bd5e57)"><path fill="#de773c" d="M 97.929688 78.390625 L 103.644531 106.453125 L 91.429688 108.941406 L 85.714844 80.878906 Z M 97.929688 78.390625 " fill-opacity="1" fill-rule="nonzero"/></g></g></g><g clip-path="url(#3be91e2339)"><g clip-path="url(#e19b19e07f)"><g clip-path="url(#cf6dfe0ff9)"><path fill="#f8c038" d="M 90.207031 79.585938 L 103.421875 71.695312 L 109.773438 82.332031 L 96.558594 90.222656 Z M 90.207031 79.585938 " fill-opacity="1" fill-rule="nonzero"/></g></g></g></svg>