<svg xmlns="http://www.w3.org/2000/svg" xmlns:xlink="http://www.w3.org/1999/xlink" width="200" zoomAndPan="magnify" viewBox="0 0 150 149.999998" height="200" preserveAspectRatio="xMidYMid meet" version="1.0"><defs><clipPath id="4ac90f19f9"><path d="M 3.070312 16.398438 L 147.070312 16.398438 L 147.070312 127.398438 L 3.070312 127.398438 Z M 3.070312 16.398438 " clip-rule="nonzero"/></clipPath></defs><path fill="#f8c038" d="M 144.867188 39.605469 C 144.867188 39.441406 144.867188 39.285156 144.816406 39.125 C 144.785156 38.4375 144.71875 37.753906 144.617188 37.070312 C 144.519531 36.390625 144.390625 35.714844 144.226562 35.046875 C 144.0625 34.375 143.867188 33.714844 143.644531 33.066406 C 143.417969 32.414062 143.160156 31.777344 142.875 31.152344 C 142.589844 30.523438 142.273438 29.914062 141.929688 29.316406 C 141.585938 28.722656 141.214844 28.144531 140.8125 27.582031 C 140.414062 27.019531 139.988281 26.480469 139.539062 25.960938 C 139.089844 25.4375 138.613281 24.941406 138.117188 24.464844 C 137.617188 23.992188 137.097656 23.539062 136.558594 23.113281 C 136.015625 22.6875 135.457031 22.289062 134.878906 21.914062 C 134.300781 21.542969 133.703125 21.199219 133.09375 20.882812 C 132.480469 20.566406 131.855469 20.277344 131.21875 20.019531 C 130.578125 19.765625 129.929688 19.539062 129.269531 19.34375 C 128.609375 19.148438 127.941406 18.984375 127.265625 18.851562 C 126.589844 18.71875 125.910156 18.621094 125.222656 18.554688 C 124.539062 18.488281 123.851562 18.453125 123.164062 18.449219 L 26.523438 18.449219 C 25.835938 18.453125 25.148438 18.488281 24.464844 18.554688 C 23.777344 18.621094 23.097656 18.71875 22.421875 18.851562 C 21.746094 18.984375 21.078125 19.148438 20.417969 19.34375 C 19.757812 19.539062 19.109375 19.765625 18.46875 20.019531 C 17.832031 20.277344 17.207031 20.566406 16.59375 20.882812 C 15.984375 21.199219 15.386719 21.542969 14.808594 21.914062 C 14.230469 22.289062 13.671875 22.6875 13.128906 23.113281 C 12.589844 23.539062 12.070312 23.992188 11.570312 24.464844 C 11.074219 24.941406 10.597656 25.4375 10.148438 25.960938 C 9.699219 26.480469 9.273438 27.019531 8.875 27.582031 C 8.472656 28.144531 8.101562 28.722656 7.757812 29.316406 C 7.414062 29.914062 7.097656 30.523438 6.8125 31.152344 C 6.527344 31.777344 6.269531 32.414062 6.042969 33.066406 C 5.816406 33.714844 5.625 34.375 5.460938 35.046875 C 5.296875 35.714844 5.167969 36.390625 5.066406 37.070312 C 4.96875 37.753906 4.902344 38.4375 4.871094 39.125 C 4.871094 39.292969 4.835938 39.441406 4.820312 39.609375 C 4.804688 39.777344 4.761719 40.015625 4.761719 40.214844 L 4.761719 104.503906 C 4.761719 105.21875 4.796875 105.929688 4.867188 106.636719 C 4.9375 107.347656 5.042969 108.050781 5.183594 108.75 C 5.324219 109.449219 5.496094 110.136719 5.703125 110.820312 C 5.910156 111.5 6.152344 112.171875 6.425781 112.828125 C 6.699219 113.488281 7.003906 114.132812 7.339844 114.757812 C 7.675781 115.386719 8.042969 115.996094 8.4375 116.589844 C 8.832031 117.183594 9.257812 117.753906 9.710938 118.304688 C 10.160156 118.855469 10.640625 119.382812 11.144531 119.886719 C 11.648438 120.390625 12.175781 120.867188 12.726562 121.320312 C 13.277344 121.773438 13.847656 122.195312 14.441406 122.59375 C 15.03125 122.988281 15.644531 123.355469 16.269531 123.691406 C 16.898438 124.027344 17.542969 124.332031 18.199219 124.605469 C 18.859375 124.878906 19.527344 125.117188 20.210938 125.324219 C 20.890625 125.53125 21.582031 125.707031 22.28125 125.847656 C 22.980469 125.984375 23.683594 126.089844 24.390625 126.160156 C 25.101562 126.230469 25.8125 126.269531 26.523438 126.269531 L 123.164062 126.269531 C 123.875 126.269531 124.585938 126.230469 125.292969 126.160156 C 126.003906 126.089844 126.707031 125.984375 127.40625 125.84375 C 128.105469 125.707031 128.792969 125.53125 129.476562 125.324219 C 130.15625 125.117188 130.828125 124.875 131.484375 124.601562 C 132.144531 124.332031 132.789062 124.027344 133.414062 123.691406 C 134.042969 123.351562 134.652344 122.988281 135.246094 122.589844 C 135.839844 122.195312 136.410156 121.769531 136.960938 121.320312 C 137.511719 120.867188 138.039062 120.390625 138.542969 119.886719 C 139.046875 119.382812 139.523438 118.855469 139.976562 118.304688 C 140.429688 117.753906 140.851562 117.179688 141.25 116.589844 C 141.644531 115.996094 142.011719 115.386719 142.347656 114.757812 C 142.683594 114.128906 142.988281 113.488281 143.261719 112.828125 C 143.535156 112.171875 143.773438 111.5 143.980469 110.820312 C 144.1875 110.136719 144.363281 109.449219 144.503906 108.75 C 144.640625 108.050781 144.746094 107.347656 144.816406 106.636719 C 144.890625 105.929688 144.925781 105.21875 144.925781 104.503906 L 144.925781 40.214844 C 144.925781 40.015625 144.871094 39.8125 144.867188 39.605469 Z M 26.523438 29.230469 L 123.164062 29.230469 C 123.753906 29.234375 124.339844 29.285156 124.921875 29.378906 C 125.503906 29.476562 126.074219 29.621094 126.636719 29.808594 C 127.195312 30 127.734375 30.230469 128.257812 30.507812 C 128.78125 30.785156 129.277344 31.101562 129.746094 31.457031 C 130.21875 31.816406 130.65625 32.207031 131.0625 32.632812 C 131.46875 33.0625 131.839844 33.519531 132.175781 34.007812 C 132.507812 34.496094 132.800781 35.003906 133.050781 35.539062 C 133.300781 36.074219 133.507812 36.625 133.667969 37.195312 L 74.84375 71.507812 L 16.019531 37.195312 C 16.179688 36.625 16.386719 36.074219 16.636719 35.539062 C 16.886719 35.003906 17.179688 34.496094 17.511719 34.007812 C 17.847656 33.519531 18.214844 33.0625 18.625 32.632812 C 19.03125 32.207031 19.46875 31.816406 19.941406 31.457031 C 20.410156 31.101562 20.90625 30.785156 21.429688 30.507812 C 21.953125 30.230469 22.492188 30 23.050781 29.808594 C 23.613281 29.621094 24.183594 29.476562 24.765625 29.378906 C 25.347656 29.285156 25.933594 29.234375 26.523438 29.230469 Z M 123.164062 115.488281 L 26.523438 115.488281 C 25.804688 115.484375 25.089844 115.414062 24.382812 115.273438 C 23.675781 115.132812 22.992188 114.921875 22.324219 114.648438 C 21.660156 114.371094 21.027344 114.03125 20.425781 113.632812 C 19.828125 113.230469 19.273438 112.777344 18.765625 112.265625 C 18.253906 111.757812 17.800781 111.203125 17.398438 110.601562 C 17 110.003906 16.660156 109.371094 16.382812 108.707031 C 16.105469 108.039062 15.898438 107.355469 15.757812 106.648438 C 15.617188 105.941406 15.542969 105.226562 15.542969 104.503906 L 15.542969 49.398438 L 72.148438 82.40625 C 72.988281 82.898438 73.894531 83.144531 74.863281 83.144531 C 75.835938 83.144531 76.742188 82.898438 77.582031 82.40625 L 134.144531 49.398438 L 134.144531 104.503906 C 134.144531 105.226562 134.070312 105.941406 133.929688 106.648438 C 133.789062 107.355469 133.578125 108.039062 133.304688 108.707031 C 133.027344 109.371094 132.6875 110.003906 132.289062 110.601562 C 131.886719 111.203125 131.433594 111.757812 130.921875 112.265625 C 130.414062 112.777344 129.859375 113.230469 129.257812 113.632812 C 128.660156 114.03125 128.027344 114.371094 127.363281 114.648438 C 126.695312 114.921875 126.011719 115.132812 125.304688 115.273438 C 124.597656 115.414062 123.882812 115.484375 123.164062 115.488281 Z M 123.164062 115.488281 " fill-opacity="1" fill-rule="nonzero"/><g clip-path="url(#4ac90f19f9)"><path fill="#f8c038" d="M 74.84375 -30.066406 C 73.167969 -30.066406 71.492188 -30.027344 69.816406 -29.945312 C 68.144531 -29.863281 66.472656 -29.738281 64.804688 -29.574219 C 63.136719 -29.410156 61.472656 -29.207031 59.8125 -28.960938 C 58.15625 -28.714844 56.503906 -28.425781 54.859375 -28.101562 C 53.21875 -27.773438 51.582031 -27.40625 49.957031 -27 C 48.328125 -26.589844 46.714844 -26.144531 45.109375 -25.65625 C 43.507812 -25.171875 41.914062 -24.644531 40.335938 -24.082031 C 38.757812 -23.515625 37.195312 -22.914062 35.644531 -22.269531 C 34.097656 -21.628906 32.566406 -20.949219 31.050781 -20.234375 C 29.535156 -19.515625 28.039062 -18.765625 26.558594 -17.972656 C 25.082031 -17.183594 23.625 -16.359375 22.183594 -15.496094 C 20.746094 -14.632812 19.332031 -13.738281 17.9375 -12.804688 C 16.542969 -11.875 15.175781 -10.910156 13.828125 -9.910156 C 12.480469 -8.914062 11.160156 -7.882812 9.863281 -6.816406 C 8.570312 -5.753906 7.300781 -4.660156 6.058594 -3.535156 C 4.816406 -2.410156 3.601562 -1.253906 2.417969 -0.0664062 C 1.230469 1.117188 0.0742188 2.332031 -1.050781 3.574219 C -2.175781 4.816406 -3.269531 6.085938 -4.335938 7.378906 C -5.398438 8.675781 -6.429688 9.996094 -7.425781 11.34375 C -8.425781 12.691406 -9.390625 14.058594 -10.320312 15.453125 C -11.253906 16.847656 -12.148438 18.261719 -13.011719 19.699219 C -13.875 21.140625 -14.699219 22.597656 -15.488281 24.074219 C -16.28125 25.554688 -17.03125 27.050781 -17.75 28.566406 C -18.464844 30.082031 -19.144531 31.613281 -19.789062 33.160156 C -20.429688 34.710938 -21.03125 36.273438 -21.597656 37.851562 C -22.160156 39.429688 -22.6875 41.023438 -23.171875 42.625 C -23.660156 44.230469 -24.105469 45.84375 -24.515625 47.472656 C -24.921875 49.097656 -25.289062 50.734375 -25.617188 52.375 C -25.941406 54.019531 -26.230469 55.671875 -26.476562 57.332031 C -26.722656 58.988281 -26.925781 60.652344 -27.089844 62.320312 C -27.253906 63.988281 -27.378906 65.660156 -27.460938 67.332031 C -27.542969 69.007812 -27.585938 70.683594 -27.585938 72.359375 C -27.585938 74.035156 -27.542969 75.710938 -27.460938 77.386719 C -27.378906 79.058594 -27.253906 80.730469 -27.089844 82.398438 C -26.925781 84.066406 -26.722656 85.730469 -26.476562 87.390625 C -26.230469 89.046875 -25.941406 90.699219 -25.617188 92.34375 C -25.289062 93.984375 -24.921875 95.621094 -24.515625 97.246094 C -24.105469 98.875 -23.660156 100.488281 -23.171875 102.09375 C -22.6875 103.695312 -22.160156 105.289062 -21.597656 106.867188 C -21.03125 108.445312 -20.429688 110.007812 -19.789062 111.558594 C -19.144531 113.105469 -18.464844 114.636719 -17.75 116.152344 C -17.03125 117.667969 -16.28125 119.164062 -15.488281 120.644531 C -14.699219 122.121094 -13.875 123.578125 -13.011719 125.019531 C -12.148438 126.457031 -11.253906 127.871094 -10.320312 129.265625 C -9.390625 130.660156 -8.425781 132.027344 -7.425781 133.375 C -6.429688 134.722656 -5.398438 136.042969 -4.335938 137.339844 C -3.269531 138.632812 -2.175781 139.902344 -1.050781 141.144531 C 0.0742188 142.386719 1.230469 143.601562 2.417969 144.785156 C 3.601562 145.972656 4.816406 147.128906 6.058594 148.253906 C 7.300781 149.378906 8.570312 150.472656 9.863281 151.539062 C 11.160156 152.601562 12.480469 153.632812 13.828125 154.628906 C 15.175781 155.628906 16.542969 156.59375 17.9375 157.523438 C 19.332031 158.457031 20.746094 159.351562 22.183594 160.214844 C 23.625 161.078125 25.082031 161.902344 26.558594 162.691406 C 28.039062 163.484375 29.535156 164.234375 31.050781 164.953125 C 32.566406 165.667969 34.097656 166.347656 35.644531 166.992188 C 37.195312 167.632812 38.757812 168.234375 40.335938 168.800781 C 41.914062 169.363281 43.507812 169.890625 45.109375 170.375 C 46.714844 170.863281 48.328125 171.308594 49.957031 171.71875 C 51.582031 172.125 53.21875 172.492188 54.859375 172.820312 C 56.503906 173.144531 58.15625 173.433594 59.8125 173.679688 C 61.472656 173.925781 63.136719 174.128906 64.804688 174.292969 C 66.472656 174.457031 68.144531 174.582031 69.816406 174.664062 C 71.492188 174.746094 73.167969 174.789062 74.84375 174.789062 C 76.519531 174.789062 78.195312 174.746094 79.871094 174.664062 C 81.542969 174.582031 83.214844 174.457031 84.882812 174.292969 C 86.550781 174.128906 88.214844 173.925781 89.871094 173.679688 C 91.53125 173.433594 93.183594 173.144531 94.828125 172.820312 C 96.46875 172.492188 98.105469 172.125 99.730469 171.71875 C 101.359375 171.308594 102.972656 170.863281 104.578125 170.375 C 106.179688 169.890625 107.773438 169.363281 109.351562 168.800781 C 110.929688 168.234375 112.492188 167.632812 114.042969 166.992188 C 115.589844 166.347656 117.121094 165.667969 118.636719 164.953125 C 120.152344 164.234375 121.648438 163.484375 123.128906 162.691406 C 124.605469 161.902344 126.0625 161.078125 127.503906 160.214844 C 128.941406 159.351562 130.355469 158.457031 131.75 157.523438 C 133.144531 156.59375 134.511719 155.628906 135.859375 154.628906 C 137.207031 153.632812 138.527344 152.601562 139.824219 151.539062 C 141.117188 150.472656 142.386719 149.378906 143.628906 148.253906 C 144.871094 147.128906 146.085938 145.972656 147.269531 144.785156 C 148.457031 143.601562 149.613281 142.386719 150.738281 141.144531 C 151.863281 139.902344 152.957031 138.632812 154.019531 137.339844 C 155.085938 136.042969 156.117188 134.722656 157.113281 133.375 C 158.113281 132.027344 159.078125 130.660156 160.007812 129.265625 C 160.941406 127.871094 161.835938 126.457031 162.699219 125.019531 C 163.5625 123.578125 164.386719 122.121094 165.175781 120.644531 C 165.96875 119.164062 166.71875 117.667969 167.4375 116.152344 C 168.152344 114.636719 168.832031 113.105469 169.472656 111.558594 C 170.117188 110.007812 170.71875 108.445312 171.285156 106.867188 C 171.847656 105.289062 172.375 103.695312 172.859375 102.09375 C 173.347656 100.488281 173.792969 98.875 174.203125 97.246094 C 174.609375 95.621094 174.976562 93.984375 175.304688 92.34375 C 175.628906 90.699219 175.917969 89.046875 176.164062 87.390625 C 176.410156 85.730469 176.613281 84.066406 176.777344 82.398438 C 176.941406 80.730469 177.066406 79.058594 177.148438 77.386719 C 177.230469 75.710938 177.269531 74.035156 177.269531 72.359375 C 177.269531 70.683594 177.226562 69.007812 177.144531 67.335938 C 177.058594 65.660156 176.933594 63.992188 176.769531 62.324219 C 176.601562 60.65625 176.394531 58.992188 176.148438 57.335938 C 175.902344 55.679688 175.613281 54.027344 175.285156 52.382812 C 174.957031 50.742188 174.589844 49.105469 174.179688 47.480469 C 173.769531 45.855469 173.324219 44.242188 172.835938 42.640625 C 172.347656 41.035156 171.820312 39.445312 171.253906 37.867188 C 170.691406 36.289062 170.085938 34.726562 169.445312 33.179688 C 168.800781 31.632812 168.121094 30.101562 167.40625 28.585938 C 166.6875 27.070312 165.933594 25.574219 165.144531 24.097656 C 164.351562 22.621094 163.527344 21.164062 162.664062 19.726562 C 161.800781 18.289062 160.90625 16.875 159.972656 15.480469 C 159.042969 14.085938 158.078125 12.71875 157.078125 11.371094 C 156.082031 10.027344 155.050781 8.707031 153.988281 7.410156 C 152.921875 6.113281 151.828125 4.847656 150.703125 3.605469 C 149.578125 2.363281 148.421875 1.148438 147.238281 -0.0351562 C 146.054688 -1.21875 144.839844 -2.375 143.597656 -3.5 C 142.355469 -4.625 141.089844 -5.71875 139.792969 -6.785156 C 138.496094 -7.847656 137.175781 -8.878906 135.832031 -9.875 C 134.484375 -10.875 133.117188 -11.839844 131.722656 -12.769531 C 130.328125 -13.703125 128.914062 -14.597656 127.476562 -15.460938 C 126.039062 -16.324219 124.582031 -17.148438 123.105469 -17.941406 C 121.628906 -18.730469 120.132812 -19.484375 118.617188 -20.203125 C 117.101562 -20.917969 115.570312 -21.597656 114.023438 -22.242188 C 112.476562 -22.882812 110.914062 -23.488281 109.335938 -24.054688 C 107.757812 -24.617188 106.167969 -25.144531 104.5625 -25.632812 C 102.960938 -26.121094 101.347656 -26.566406 99.722656 -26.976562 C 98.097656 -27.386719 96.460938 -27.753906 94.820312 -28.082031 C 93.175781 -28.410156 91.523438 -28.699219 89.867188 -28.945312 C 88.210938 -29.191406 86.546875 -29.398438 84.878906 -29.566406 C 83.210938 -29.730469 81.542969 -29.855469 79.867188 -29.941406 C 78.195312 -30.023438 76.519531 -30.066406 74.84375 -30.066406 Z M 74.84375 164.003906 C 73.34375 164.003906 71.84375 163.96875 70.347656 163.894531 C 68.847656 163.820312 67.351562 163.710938 65.859375 163.5625 C 64.367188 163.417969 62.878906 163.234375 61.394531 163.011719 C 59.914062 162.792969 58.433594 162.535156 56.964844 162.246094 C 55.492188 161.953125 54.03125 161.625 52.574219 161.257812 C 51.121094 160.894531 49.675781 160.496094 48.242188 160.058594 C 46.804688 159.625 45.382812 159.152344 43.96875 158.648438 C 42.558594 158.144531 41.15625 157.601562 39.773438 157.027344 C 38.386719 156.457031 37.015625 155.847656 35.660156 155.207031 C 34.304688 154.566406 32.964844 153.890625 31.640625 153.183594 C 30.320312 152.476562 29.015625 151.738281 27.726562 150.964844 C 26.441406 150.195312 25.175781 149.394531 23.929688 148.558594 C 22.679688 147.726562 21.453125 146.863281 20.25 145.96875 C 19.046875 145.078125 17.863281 144.152344 16.703125 143.203125 C 15.542969 142.25 14.410156 141.273438 13.296875 140.265625 C 12.1875 139.257812 11.101562 138.222656 10.039062 137.164062 C 8.980469 136.101562 7.945312 135.015625 6.9375 133.90625 C 5.929688 132.792969 4.953125 131.660156 4 130.5 C 3.050781 129.339844 2.125 128.15625 1.234375 126.953125 C 0.339844 125.75 -0.523438 124.523438 -1.355469 123.273438 C -2.191406 122.027344 -2.992188 120.761719 -3.761719 119.476562 C -4.535156 118.1875 -5.273438 116.882812 -5.980469 115.5625 C -6.6875 114.238281 -7.363281 112.898438 -8.003906 111.542969 C -8.644531 110.1875 -9.253906 108.816406 -9.824219 107.429688 C -10.398438 106.046875 -10.941406 104.644531 -11.445312 103.234375 C -11.949219 101.820312 -12.421875 100.398438 -12.855469 98.960938 C -13.292969 97.527344 -13.691406 96.082031 -14.054688 94.628906 C -14.421875 93.171875 -14.75 91.710938 -15.042969 90.238281 C -15.332031 88.769531 -15.589844 87.289062 -15.808594 85.808594 C -16.03125 84.324219 -16.214844 82.835938 -16.359375 81.34375 C -16.507812 79.851562 -16.617188 78.355469 -16.691406 76.855469 C -16.765625 75.359375 -16.800781 73.859375 -16.800781 72.359375 C -16.800781 70.859375 -16.765625 69.359375 -16.691406 67.863281 C -16.617188 66.363281 -16.507812 64.871094 -16.359375 63.375 C -16.214844 61.882812 -16.03125 60.394531 -15.808594 58.914062 C -15.589844 57.429688 -15.332031 55.953125 -15.042969 54.480469 C -14.75 53.007812 -14.421875 51.546875 -14.054688 50.089844 C -13.691406 48.636719 -13.292969 47.191406 -12.855469 45.757812 C -12.421875 44.320312 -11.949219 42.898438 -11.445312 41.484375 C -10.941406 40.074219 -10.398438 38.671875 -9.824219 37.289062 C -9.253906 35.902344 -8.644531 34.53125 -8.003906 33.175781 C -7.363281 31.820312 -6.6875 30.480469 -5.980469 29.15625 C -5.273438 27.835938 -4.535156 26.53125 -3.761719 25.242188 C -2.992188 23.957031 -2.191406 22.691406 -1.355469 21.445312 C -0.523438 20.195312 0.339844 18.972656 1.234375 17.765625 C 2.125 16.5625 3.050781 15.378906 4 14.21875 C 4.953125 13.058594 5.929688 11.925781 6.9375 10.8125 C 7.945312 9.703125 8.980469 8.617188 10.039062 7.554688 C 11.101562 6.496094 12.1875 5.460938 13.296875 4.453125 C 14.410156 3.445312 15.542969 2.46875 16.703125 1.515625 C 17.863281 0.566406 19.046875 -0.359375 20.25 -1.25 C 21.453125 -2.144531 22.679688 -3.007812 23.929688 -3.839844 C 25.175781 -4.675781 26.441406 -5.476562 27.726562 -6.246094 C 29.015625 -7.019531 30.320312 -7.757812 31.640625 -8.464844 C 32.964844 -9.171875 34.304688 -9.847656 35.660156 -10.488281 C 37.015625 -11.128906 38.386719 -11.734375 39.773438 -12.308594 C 41.15625 -12.882812 42.558594 -13.425781 43.96875 -13.929688 C 45.382812 -14.433594 46.804688 -14.90625 48.242188 -15.339844 C 49.675781 -15.777344 51.121094 -16.175781 52.574219 -16.539062 C 54.03125 -16.90625 55.492188 -17.234375 56.964844 -17.527344 C 58.433594 -17.816406 59.914062 -18.074219 61.394531 -18.292969 C 62.878906 -18.515625 64.367188 -18.699219 65.859375 -18.84375 C 67.351562 -18.992188 68.847656 -19.101562 70.347656 -19.175781 C 71.84375 -19.25 73.34375 -19.285156 74.84375 -19.285156 C 76.34375 -19.285156 77.84375 -19.25 79.339844 -19.175781 C 80.839844 -19.101562 82.332031 -18.992188 83.828125 -18.84375 C 85.320312 -18.699219 86.808594 -18.515625 88.289062 -18.292969 C 89.773438 -18.074219 91.25 -17.816406 92.722656 -17.527344 C 94.195312 -17.234375 95.65625 -16.90625 97.113281 -16.539062 C 98.566406 -16.175781 100.011719 -15.777344 101.445312 -15.339844 C 102.882812 -14.90625 104.304688 -14.433594 105.71875 -13.929688 C 107.128906 -13.425781 108.53125 -12.882812 109.914062 -12.308594 C 111.300781 -11.734375 112.671875 -11.128906 114.027344 -10.488281 C 115.382812 -9.847656 116.722656 -9.171875 118.046875 -8.464844 C 119.367188 -7.757812 120.671875 -7.019531 121.960938 -6.246094 C 123.246094 -5.476562 124.511719 -4.675781 125.757812 -3.839844 C 127.007812 -3.007812 128.230469 -2.144531 129.4375 -1.25 C 130.640625 -0.359375 131.824219 0.566406 132.984375 1.515625 C 134.144531 2.46875 135.277344 3.445312 136.390625 4.453125 C 137.5 5.460938 138.585938 6.496094 139.648438 7.554688 C 140.707031 8.617188 141.742188 9.703125 142.75 10.8125 C 143.757812 11.925781 144.734375 13.058594 145.6875 14.21875 C 146.636719 15.378906 147.5625 16.5625 148.453125 17.765625 C 149.347656 18.972656 150.210938 20.195312 151.042969 21.445312 C 151.878906 22.691406 152.679688 23.957031 153.449219 25.242188 C 154.222656 26.53125 154.960938 27.835938 155.667969 29.15625 C 156.375 30.480469 157.050781 31.820312 157.691406 33.175781 C 158.332031 34.53125 158.9375 35.902344 159.511719 37.289062 C 160.085938 38.671875 160.628906 40.074219 161.132812 41.484375 C 161.636719 42.898438 162.109375 44.320312 162.542969 45.757812 C 162.980469 47.191406 163.378906 48.636719 163.742188 50.089844 C 164.105469 51.546875 164.4375 53.007812 164.730469 54.480469 C 165.019531 55.953125 165.277344 57.429688 165.496094 58.914062 C 165.71875 60.394531 165.902344 61.882812 166.046875 63.375 C 166.195312 64.871094 166.304688 66.363281 166.378906 67.863281 C 166.453125 69.359375 166.488281 70.859375 166.488281 72.359375 C 166.488281 73.859375 166.449219 75.355469 166.375 76.855469 C 166.300781 78.351562 166.1875 79.847656 166.039062 81.339844 C 165.890625 82.832031 165.707031 84.320312 165.484375 85.800781 C 165.261719 87.285156 165.003906 88.761719 164.710938 90.230469 C 164.417969 91.703125 164.089844 93.164062 163.722656 94.617188 C 163.355469 96.074219 162.957031 97.515625 162.519531 98.953125 C 162.085938 100.386719 161.613281 101.808594 161.105469 103.21875 C 160.601562 104.632812 160.0625 106.03125 159.484375 107.414062 C 158.910156 108.800781 158.304688 110.167969 157.660156 111.523438 C 157.019531 112.878906 156.34375 114.21875 155.636719 115.539062 C 154.929688 116.863281 154.191406 118.167969 153.421875 119.453125 C 152.648438 120.738281 151.847656 122.003906 151.011719 123.25 C 150.179688 124.496094 149.316406 125.722656 148.421875 126.925781 C 147.53125 128.132812 146.605469 129.3125 145.65625 130.472656 C 144.703125 131.628906 143.726562 132.765625 142.71875 133.875 C 141.710938 134.988281 140.675781 136.074219 139.617188 137.132812 C 138.558594 138.191406 137.472656 139.226562 136.359375 140.234375 C 135.25 141.242188 134.113281 142.21875 132.957031 143.171875 C 131.796875 144.121094 130.613281 145.046875 129.410156 145.9375 C 128.207031 146.832031 126.980469 147.695312 125.734375 148.527344 C 124.488281 149.363281 123.222656 150.164062 121.9375 150.9375 C 120.652344 151.707031 119.347656 152.445312 118.023438 153.152344 C 116.703125 153.859375 115.363281 154.535156 114.007812 155.175781 C 112.652344 155.820312 111.285156 156.425781 109.898438 157 C 108.515625 157.578125 107.117188 158.117188 105.703125 158.621094 C 104.292969 159.128906 102.871094 159.601562 101.4375 160.035156 C 100 160.472656 98.558594 160.875 97.101562 161.238281 C 95.648438 161.605469 94.1875 161.933594 92.714844 162.226562 C 91.246094 162.519531 89.769531 162.777344 88.285156 163 C 86.804688 163.222656 85.316406 163.40625 83.824219 163.554688 C 82.332031 163.703125 80.835938 163.816406 79.339844 163.890625 C 77.839844 163.964844 76.34375 164.003906 74.84375 164.003906 Z M 74.84375 164.003906 " fill-opacity="1" fill-rule="nonzero"/></g></svg>