<svg xmlns="http://www.w3.org/2000/svg" xmlns:xlink="http://www.w3.org/1999/xlink" width="200" zoomAndPan="magnify" viewBox="0 0 150 149.999998" height="200" preserveAspectRatio="xMidYMid meet" version="1.0"><defs><clipPath id="db4aaf44eb"><path d="M 80 79 L 147 79 L 147 146 L 80 146 Z M 80 79 " clip-rule="nonzero"/></clipPath><clipPath id="322b323bdc"><path d="M 95.234375 73.644531 L 152.679688 131.089844 L 132.082031 151.683594 L 74.636719 94.238281 Z M 95.234375 73.644531 " clip-rule="nonzero"/></clipPath><clipPath id="2d1e850041"><path d="M 105.53125 83.941406 L 142.363281 120.773438 C 148.050781 126.460938 148.050781 135.683594 142.363281 141.371094 C 136.675781 147.058594 127.453125 147.058594 121.765625 141.371094 L 84.9375 104.539062 C 79.25 98.851562 79.25 89.628906 84.9375 83.941406 C 90.625 78.253906 99.84375 78.253906 105.53125 83.941406 Z M 105.53125 83.941406 " clip-rule="nonzero"/></clipPath><clipPath id="5a46bc4c8b"><path d="M 91 90 L 120 90 L 120 119 L 91 119 Z M 91 90 " clip-rule="nonzero"/></clipPath><clipPath id="3f162b3f52"><path d="M 112.222656 90.648438 L 119.929688 98.355469 L 99.304688 118.980469 L 91.597656 111.269531 Z M 112.222656 90.648438 " clip-rule="nonzero"/></clipPath><clipPath id="3860054da1"><path d="M 112.222656 90.648438 L 119.929688 98.355469 L 99.335938 118.949219 L 91.625 111.242188 Z M 112.222656 90.648438 " clip-rule="nonzero"/></clipPath><clipPath id="ebc7f4720a"><path d="M 2.398438 1.667969 L 112.480469 1.667969 L 112.480469 111.75 L 2.398438 111.75 Z M 2.398438 1.667969 " clip-rule="nonzero"/></clipPath><clipPath id="0298d14a8a"><path d="M 57.4375 1.667969 C 53.824219 1.667969 50.246094 2.019531 46.699219 2.722656 C 43.15625 3.429688 39.714844 4.472656 36.375 5.855469 C 33.035156 7.238281 29.863281 8.933594 26.859375 10.941406 C 23.855469 12.949219 21.074219 15.230469 18.519531 17.789062 C 15.964844 20.34375 13.679688 23.125 11.671875 26.128906 C 9.664062 29.132812 7.96875 32.304688 6.585938 35.644531 C 5.203125 38.984375 4.160156 42.425781 3.457031 45.96875 C 2.75 49.515625 2.398438 53.09375 2.398438 56.707031 C 2.398438 60.320312 2.75 63.902344 3.457031 67.445312 C 4.160156 70.988281 5.203125 74.433594 6.585938 77.769531 C 7.96875 81.109375 9.664062 84.28125 11.671875 87.285156 C 13.679688 90.292969 15.964844 93.070312 18.519531 95.628906 C 21.074219 98.183594 23.855469 100.464844 26.859375 102.472656 C 29.863281 104.480469 33.035156 106.175781 36.375 107.558594 C 39.714844 108.941406 43.15625 109.984375 46.699219 110.691406 C 50.246094 111.394531 53.824219 111.75 57.4375 111.75 C 61.050781 111.75 64.632812 111.394531 68.175781 110.691406 C 71.722656 109.984375 75.164062 108.941406 78.5 107.558594 C 81.839844 106.175781 85.011719 104.480469 88.015625 102.472656 C 91.023438 100.464844 93.800781 98.183594 96.359375 95.628906 C 98.914062 93.070312 101.195312 90.292969 103.203125 87.285156 C 105.210938 84.28125 106.90625 81.109375 108.289062 77.769531 C 109.671875 74.433594 110.714844 70.988281 111.421875 67.445312 C 112.125 63.902344 112.480469 60.320312 112.480469 56.707031 C 112.480469 53.09375 112.125 49.515625 111.421875 45.96875 C 110.714844 42.425781 109.671875 38.984375 108.289062 35.644531 C 106.90625 32.304688 105.210938 29.132812 103.203125 26.128906 C 101.195312 23.125 98.914062 20.34375 96.359375 17.789062 C 93.800781 15.230469 91.023438 12.949219 88.015625 10.941406 C 85.011719 8.933594 81.839844 7.238281 78.5 5.855469 C 75.164062 4.472656 71.722656 3.429688 68.175781 2.722656 C 64.632812 2.019531 61.050781 1.667969 57.4375 1.667969 Z M 57.4375 1.667969 " clip-rule="nonzero"/></clipPath><clipPath id="986a07121d"><path d="M 11.425781 10.695312 L 103.453125 10.695312 L 103.453125 102.722656 L 11.425781 102.722656 Z M 11.425781 10.695312 " clip-rule="nonzero"/></clipPath><clipPath id="c541c87da8"><path d="M 57.4375 10.871094 C 54.429688 10.871094 51.449219 11.164062 48.496094 11.75 C 45.542969 12.335938 42.675781 13.207031 39.898438 14.359375 C 37.117188 15.511719 34.472656 16.921875 31.972656 18.59375 C 29.46875 20.265625 27.152344 22.167969 25.027344 24.296875 C 22.898438 26.421875 20.996094 28.738281 19.324219 31.242188 C 17.652344 33.742188 16.242188 36.386719 15.089844 39.167969 C 13.9375 41.945312 13.066406 44.8125 12.480469 47.765625 C 11.894531 50.71875 11.601562 53.699219 11.601562 56.707031 C 11.601562 59.71875 11.894531 62.699219 12.480469 65.648438 C 13.066406 68.601562 13.9375 71.46875 15.089844 74.25 C 16.242188 77.03125 17.652344 79.671875 19.324219 82.171875 C 20.996094 84.675781 22.898438 86.992188 25.027344 89.121094 C 27.152344 91.246094 29.46875 93.148438 31.972656 94.820312 C 34.472656 96.492188 37.117188 97.90625 39.898438 99.054688 C 42.675781 100.207031 45.542969 101.078125 48.496094 101.664062 C 51.449219 102.25 54.429688 102.546875 57.4375 102.546875 C 60.449219 102.546875 63.429688 102.25 66.378906 101.664062 C 69.332031 101.078125 72.199219 100.207031 74.980469 99.054688 C 77.761719 97.90625 80.402344 96.492188 82.90625 94.820312 C 85.40625 93.148438 87.722656 91.246094 89.851562 89.121094 C 91.980469 86.992188 93.878906 84.675781 95.550781 82.171875 C 97.222656 79.671875 98.636719 77.03125 99.785156 74.25 C 100.9375 71.46875 101.808594 68.601562 102.394531 65.648438 C 102.984375 62.699219 103.277344 59.71875 103.277344 56.707031 C 103.277344 53.699219 102.984375 50.71875 102.394531 47.765625 C 101.808594 44.8125 100.9375 41.945312 99.785156 39.167969 C 98.636719 36.386719 97.222656 33.742188 95.550781 31.242188 C 93.878906 28.738281 91.980469 26.421875 89.851562 24.296875 C 87.722656 22.167969 85.40625 20.265625 82.90625 18.59375 C 80.402344 16.921875 77.761719 15.511719 74.980469 14.359375 C 72.199219 13.207031 69.332031 12.335938 66.378906 11.75 C 63.429688 11.164062 60.449219 10.871094 57.4375 10.871094 Z M 57.4375 10.871094 " clip-rule="nonzero"/></clipPath></defs><g clip-path="url(#db4aaf44eb)"><g clip-path="url(#322b323bdc)"><g clip-path="url(#2d1e850041)"><path fill="#a6a6a6" d="M 95.234375 73.644531 L 152.679688 131.089844 L 132.082031 151.683594 L 74.636719 94.238281 Z M 95.234375 73.644531 " fill-opacity="1" fill-rule="nonzero"/></g></g></g><g clip-path="url(#5a46bc4c8b)"><g clip-path="url(#3f162b3f52)"><g clip-path="url(#3860054da1)"><path fill="#dd2e44" d="M 112.222656 90.648438 L 119.929688 98.355469 L 99.335938 118.949219 L 91.628906 111.242188 Z M 112.222656 90.648438 " fill-opacity="1" fill-rule="nonzero"/></g></g></g><g clip-path="url(#ebc7f4720a)"><g clip-path="url(#0298d14a8a)"><path fill="#a6a6a6" d="M 2.398438 1.667969 L 112.480469 1.667969 L 112.480469 111.75 L 2.398438 111.75 Z M 2.398438 1.667969 " fill-opacity="1" fill-rule="nonzero"/></g></g><g clip-path="url(#986a07121d)"><g clip-path="url(#c541c87da8)"><path fill="#cdecfd" d="M 2.398438 1.667969 L 112.480469 1.667969 L 112.480469 111.75 L 2.398438 111.75 Z M 2.398438 1.667969 " fill-opacity="1" fill-rule="nonzero"/></g></g></svg>