<svg xmlns="http://www.w3.org/2000/svg" xmlns:xlink="http://www.w3.org/1999/xlink" width="1080" zoomAndPan="magnify" viewBox="0 0 810 809.999993" height="1080" preserveAspectRatio="xMidYMid meet" version="1.0"><defs><clipPath id="ccc145a8bc"><path d="M 422 421 L 609 421 L 609 608 L 422 608 Z M 422 421 " clip-rule="nonzero"/></clipPath><clipPath id="6c35d28152"><path d="M 463.691406 405.003906 L 625.308594 566.617188 L 567.359375 624.566406 L 405.746094 462.949219 Z M 463.691406 405.003906 " clip-rule="nonzero"/></clipPath><clipPath id="374d17bede"><path d="M 492.664062 433.976562 L 596.285156 537.597656 C 612.289062 553.597656 612.289062 579.542969 596.285156 595.542969 C 580.285156 611.546875 554.339844 611.546875 538.339844 595.542969 L 434.71875 491.921875 C 418.714844 475.921875 418.714844 449.976562 434.71875 433.976562 C 450.71875 417.972656 476.664062 417.972656 492.664062 433.976562 Z M 492.664062 433.976562 " clip-rule="nonzero"/></clipPath><clipPath id="08d33ddbc2"><path d="M 453 452 L 534 452 L 534 533 L 453 533 Z M 453 452 " clip-rule="nonzero"/></clipPath><clipPath id="a99d4c5ea5"><path d="M 511.488281 452.839844 L 533.171875 474.527344 L 475.148438 532.550781 L 453.460938 510.863281 Z M 511.488281 452.839844 " clip-rule="nonzero"/></clipPath><clipPath id="17749b4ec2"><path d="M 511.488281 452.839844 L 533.171875 474.527344 L 475.226562 532.472656 L 453.539062 510.785156 Z M 511.488281 452.839844 " clip-rule="nonzero"/></clipPath><clipPath id="d4a9741b01"><path d="M 202.5 202.5 L 512.207031 202.5 L 512.207031 512.207031 L 202.5 512.207031 Z M 202.5 202.5 " clip-rule="nonzero"/></clipPath><clipPath id="c74da0301d"><path d="M 357.355469 202.5 C 352.28125 202.5 347.222656 202.75 342.175781 203.246094 C 337.128906 203.742188 332.117188 204.484375 327.144531 205.476562 C 322.167969 206.464844 317.253906 207.695312 312.402344 209.167969 C 307.546875 210.640625 302.777344 212.347656 298.09375 214.289062 C 293.40625 216.226562 288.828125 218.394531 284.355469 220.785156 C 279.882812 223.175781 275.539062 225.78125 271.320312 228.597656 C 267.105469 231.414062 263.035156 234.433594 259.117188 237.648438 C 255.195312 240.867188 251.441406 244.269531 247.855469 247.855469 C 244.269531 251.441406 240.867188 255.195312 237.648438 259.117188 C 234.433594 263.035156 231.414062 267.105469 228.597656 271.320312 C 225.78125 275.539062 223.175781 279.882812 220.785156 284.355469 C 218.394531 288.828125 216.226562 293.40625 214.289062 298.09375 C 212.347656 302.777344 210.640625 307.546875 209.167969 312.402344 C 207.695312 317.253906 206.464844 322.167969 205.476562 327.144531 C 204.484375 332.117188 203.742188 337.128906 203.246094 342.175781 C 202.75 347.222656 202.5 352.28125 202.5 357.355469 C 202.5 362.425781 202.75 367.484375 203.246094 372.53125 C 203.742188 377.578125 204.484375 382.589844 205.476562 387.5625 C 206.464844 392.539062 207.695312 397.453125 209.167969 402.304688 C 210.640625 407.160156 212.347656 411.929688 214.289062 416.613281 C 216.226562 421.300781 218.394531 425.878906 220.785156 430.351562 C 223.175781 434.824219 225.78125 439.167969 228.597656 443.386719 C 231.414062 447.601562 234.433594 451.671875 237.648438 455.589844 C 240.867188 459.511719 244.269531 463.265625 247.855469 466.851562 C 251.441406 470.4375 255.195312 473.839844 259.117188 477.058594 C 263.035156 480.273438 267.105469 483.292969 271.320312 486.109375 C 275.539062 488.925781 279.882812 491.53125 284.355469 493.921875 C 288.828125 496.3125 293.40625 498.480469 298.09375 500.417969 C 302.777344 502.359375 307.546875 504.066406 312.402344 505.539062 C 317.253906 507.011719 322.167969 508.242188 327.144531 509.230469 C 332.117188 510.222656 337.128906 510.964844 342.175781 511.460938 C 347.222656 511.957031 352.28125 512.207031 357.355469 512.207031 C 362.425781 512.207031 367.484375 511.957031 372.53125 511.460938 C 377.578125 510.964844 382.589844 510.222656 387.5625 509.230469 C 392.539062 508.242188 397.453125 507.011719 402.304688 505.539062 C 407.160156 504.066406 411.929688 502.359375 416.613281 500.417969 C 421.300781 498.480469 425.878906 496.3125 430.351562 493.921875 C 434.824219 491.53125 439.167969 488.925781 443.386719 486.109375 C 447.601562 483.292969 451.671875 480.273438 455.589844 477.058594 C 459.511719 473.839844 463.265625 470.4375 466.851562 466.851562 C 470.4375 463.265625 473.839844 459.511719 477.058594 455.589844 C 480.273438 451.671875 483.292969 447.601562 486.109375 443.386719 C 488.925781 439.167969 491.53125 434.824219 493.921875 430.351562 C 496.3125 425.878906 498.480469 421.300781 500.417969 416.613281 C 502.359375 411.929688 504.066406 407.160156 505.539062 402.304688 C 507.011719 397.453125 508.242188 392.539062 509.230469 387.5625 C 510.222656 382.589844 510.964844 377.578125 511.460938 372.53125 C 511.957031 367.484375 512.207031 362.425781 512.207031 357.355469 C 512.207031 352.28125 511.957031 347.222656 511.460938 342.175781 C 510.964844 337.128906 510.222656 332.117188 509.230469 327.144531 C 508.242188 322.167969 507.011719 317.253906 505.539062 312.402344 C 504.066406 307.546875 502.359375 302.777344 500.417969 298.09375 C 498.480469 293.40625 496.3125 288.828125 493.921875 284.355469 C 491.53125 279.882812 488.925781 275.539062 486.109375 271.320312 C 483.292969 267.105469 480.273438 263.035156 477.058594 259.117188 C 473.839844 255.195312 470.4375 251.441406 466.851562 247.855469 C 463.265625 244.269531 459.511719 240.867188 455.589844 237.648438 C 451.671875 234.433594 447.601562 231.414062 443.386719 228.597656 C 439.167969 225.78125 434.824219 223.175781 430.351562 220.785156 C 425.878906 218.394531 421.300781 216.226562 416.613281 214.289062 C 411.929688 212.347656 407.160156 210.640625 402.304688 209.167969 C 397.453125 207.695312 392.539062 206.464844 387.5625 205.476562 C 382.589844 204.484375 377.578125 203.742188 372.53125 203.246094 C 367.484375 202.75 362.425781 202.5 357.355469 202.5 Z M 357.355469 202.5 " clip-rule="nonzero"/></clipPath><clipPath id="fec64e0031"><path d="M 228 228 L 486.8125 228 L 486.8125 486.8125 L 228 486.8125 Z M 228 228 " clip-rule="nonzero"/></clipPath><clipPath id="122de7161d"><path d="M 357.355469 228.390625 C 353.128906 228.390625 348.917969 228.597656 344.714844 229.011719 C 340.507812 229.425781 336.335938 230.046875 332.195312 230.871094 C 328.050781 231.695312 323.960938 232.71875 319.917969 233.945312 C 315.875 235.171875 311.902344 236.59375 308 238.207031 C 304.101562 239.824219 300.285156 241.628906 296.5625 243.621094 C 292.835938 245.609375 289.21875 247.777344 285.707031 250.125 C 282.195312 252.472656 278.804688 254.984375 275.539062 257.664062 C 272.277344 260.34375 269.148438 263.175781 266.164062 266.164062 C 263.175781 269.148438 260.34375 272.277344 257.664062 275.539062 C 254.984375 278.804688 252.472656 282.195312 250.125 285.707031 C 247.777344 289.21875 245.609375 292.835938 243.621094 296.5625 C 241.628906 300.285156 239.824219 304.101562 238.207031 308 C 236.59375 311.902344 235.171875 315.875 233.945312 319.917969 C 232.71875 323.960938 231.695312 328.050781 230.871094 332.195312 C 230.046875 336.335938 229.425781 340.507812 229.011719 344.714844 C 228.597656 348.917969 228.390625 353.128906 228.390625 357.355469 C 228.390625 361.578125 228.597656 365.789062 229.011719 369.992188 C 229.425781 374.199219 230.046875 378.371094 230.871094 382.511719 C 231.695312 386.65625 232.71875 390.746094 233.945312 394.789062 C 235.171875 398.832031 236.589844 402.804688 238.207031 406.707031 C 239.824219 410.605469 241.628906 414.421875 243.617188 418.144531 C 245.609375 421.871094 247.777344 425.488281 250.125 429 C 252.472656 432.511719 254.984375 435.902344 257.664062 439.167969 C 260.34375 442.429688 263.175781 445.558594 266.164062 448.542969 C 269.148438 451.53125 272.277344 454.363281 275.539062 457.042969 C 278.804688 459.722656 282.195312 462.234375 285.707031 464.582031 C 289.21875 466.929688 292.835938 469.097656 296.5625 471.085938 C 300.285156 473.078125 304.101562 474.882812 308 476.5 C 311.902344 478.113281 315.875 479.535156 319.917969 480.761719 C 323.960938 481.988281 328.050781 483.011719 332.195312 483.835938 C 336.335938 484.660156 340.507812 485.28125 344.714844 485.695312 C 348.917969 486.109375 353.128906 486.316406 357.355469 486.316406 C 361.578125 486.316406 365.789062 486.109375 369.992188 485.695312 C 374.199219 485.28125 378.371094 484.660156 382.511719 483.835938 C 386.65625 483.011719 390.746094 481.988281 394.789062 480.761719 C 398.832031 479.535156 402.804688 478.113281 406.707031 476.5 C 410.605469 474.882812 414.421875 473.078125 418.144531 471.085938 C 421.871094 469.097656 425.488281 466.929688 429 464.582031 C 432.511719 462.234375 435.902344 459.722656 439.167969 457.042969 C 442.429688 454.363281 445.558594 451.53125 448.542969 448.542969 C 451.53125 445.558594 454.363281 442.429688 457.042969 439.167969 C 459.722656 435.902344 462.234375 432.511719 464.582031 429 C 466.929688 425.488281 469.097656 421.871094 471.085938 418.144531 C 473.078125 414.421875 474.882812 410.605469 476.5 406.707031 C 478.113281 402.804688 479.535156 398.832031 480.761719 394.789062 C 481.988281 390.746094 483.011719 386.65625 483.835938 382.511719 C 484.660156 378.371094 485.28125 374.199219 485.695312 369.992188 C 486.109375 365.789062 486.316406 361.578125 486.316406 357.355469 C 486.316406 353.128906 486.109375 348.917969 485.695312 344.714844 C 485.28125 340.507812 484.660156 336.335938 483.835938 332.195312 C 483.011719 328.050781 481.988281 323.960938 480.761719 319.917969 C 479.535156 315.875 478.113281 311.902344 476.5 308 C 474.882812 304.101562 473.078125 300.285156 471.085938 296.5625 C 469.097656 292.835938 466.929688 289.21875 464.582031 285.707031 C 462.234375 282.195312 459.722656 278.804688 457.042969 275.539062 C 454.363281 272.277344 451.53125 269.148438 448.542969 266.164062 C 445.558594 263.175781 442.429688 260.34375 439.167969 257.664062 C 435.902344 254.984375 432.511719 252.472656 429 250.125 C 425.488281 247.777344 421.871094 245.609375 418.144531 243.621094 C 414.421875 241.628906 410.605469 239.824219 406.707031 238.207031 C 402.804688 236.59375 398.832031 235.171875 394.789062 233.945312 C 390.746094 232.71875 386.65625 231.695312 382.511719 230.871094 C 378.371094 230.046875 374.199219 229.425781 369.992188 229.011719 C 365.789062 228.597656 361.578125 228.390625 357.355469 228.390625 Z M 357.355469 228.390625 " clip-rule="nonzero"/></clipPath></defs><g clip-path="url(#ccc145a8bc)"><g clip-path="url(#6c35d28152)"><g clip-path="url(#374d17bede)"><path fill="#a6a6a6" d="M 463.691406 405.003906 L 625.308594 566.617188 L 567.359375 624.566406 L 405.746094 462.949219 Z M 463.691406 405.003906 " fill-opacity="1" fill-rule="nonzero"/></g></g></g><g clip-path="url(#08d33ddbc2)"><g clip-path="url(#a99d4c5ea5)"><g clip-path="url(#17749b4ec2)"><path fill="#dd2e44" d="M 511.488281 452.839844 L 533.171875 474.523438 L 475.230469 532.464844 L 453.546875 510.78125 Z M 511.488281 452.839844 " fill-opacity="1" fill-rule="nonzero"/></g></g></g><g clip-path="url(#d4a9741b01)"><g clip-path="url(#c74da0301d)"><path fill="#a6a6a6" d="M 202.5 202.5 L 512.207031 202.5 L 512.207031 512.207031 L 202.5 512.207031 Z M 202.5 202.5 " fill-opacity="1" fill-rule="nonzero"/></g></g><g clip-path="url(#fec64e0031)"><g clip-path="url(#122de7161d)"><path fill="#cdecfd" d="M 202.5 202.5 L 512.207031 202.5 L 512.207031 512.207031 L 202.5 512.207031 Z M 202.5 202.5 " fill-opacity="1" fill-rule="nonzero"/></g></g></svg>