<svg xmlns="http://www.w3.org/2000/svg" xmlns:xlink="http://www.w3.org/1999/xlink" width="200" zoomAndPan="magnify" viewBox="0 0 150 149.999998" height="200" preserveAspectRatio="xMidYMid meet" version="1.0"><defs><clipPath id="206ffbb203"><path d="M 4.261719 4.261719 L 146 4.261719 L 146 146 L 4.261719 146 Z M 4.261719 4.261719 " clip-rule="nonzero"/></clipPath></defs><g clip-path="url(#206ffbb203)"><path fill="#f8c038" d="M 140.578125 86.0625 C 143.355469 86.0625 145.625 83.789062 145.625 81.015625 L 145.625 68.8125 C 145.625 66.039062 143.355469 63.765625 140.578125 63.765625 L 135.339844 63.765625 C 132.566406 63.765625 129.628906 61.59375 128.808594 58.941406 L 124.339844 48.085938 C 123.027344 45.640625 123.558594 42.035156 125.519531 40.074219 L 129.230469 36.363281 C 131.191406 34.402344 131.191406 31.191406 129.230469 29.226562 L 120.601562 20.597656 C 118.636719 18.636719 115.425781 18.636719 113.464844 20.597656 L 109.753906 24.308594 C 107.792969 26.269531 104.183594 26.800781 101.738281 25.488281 L 90.882812 21.019531 C 88.230469 20.203125 86.0625 17.261719 86.0625 14.488281 L 86.0625 9.246094 C 86.0625 6.472656 83.789062 4.203125 81.015625 4.203125 L 68.8125 4.203125 C 66.039062 4.203125 63.765625 6.472656 63.765625 9.246094 L 63.765625 14.488281 C 63.765625 17.261719 61.59375 20.203125 58.945312 21.019531 L 48.089844 25.488281 C 45.644531 26.800781 42.035156 26.269531 40.074219 24.304688 L 36.367188 20.597656 C 34.402344 18.632812 31.191406 18.632812 29.226562 20.597656 L 20.601562 29.226562 C 18.636719 31.1875 18.636719 34.398438 20.601562 36.363281 L 24.3125 40.070312 C 26.273438 42.035156 26.804688 45.640625 25.492188 48.085938 L 21.019531 58.941406 C 20.207031 61.59375 17.265625 63.765625 14.492188 63.765625 L 9.253906 63.765625 C 6.476562 63.765625 4.207031 66.035156 4.207031 68.8125 L 4.207031 81.015625 C 4.207031 83.789062 6.476562 86.0625 9.253906 86.0625 L 14.492188 86.0625 C 17.265625 86.0625 20.207031 88.230469 21.019531 90.882812 L 25.492188 101.742188 C 26.808594 104.183594 26.277344 107.792969 24.3125 109.753906 L 20.601562 113.464844 C 18.640625 115.425781 18.640625 118.636719 20.601562 120.601562 L 29.226562 129.230469 C 31.191406 131.191406 34.402344 131.191406 36.367188 129.230469 L 40.078125 125.519531 C 42.039062 123.554688 45.644531 123.023438 48.089844 124.339844 L 58.945312 128.808594 C 61.597656 129.625 63.769531 132.5625 63.769531 135.339844 L 63.769531 140.578125 C 63.769531 143.355469 66.039062 145.625 68.816406 145.625 L 81.015625 145.625 C 83.792969 145.625 86.0625 143.355469 86.0625 140.578125 L 86.0625 135.339844 C 86.0625 132.5625 88.234375 129.625 90.886719 128.808594 L 101.742188 124.339844 C 104.183594 123.023438 107.792969 123.554688 109.753906 125.519531 L 113.46875 129.230469 C 115.429688 131.191406 118.640625 131.191406 120.601562 129.230469 L 129.230469 120.601562 C 131.191406 118.640625 131.195312 115.425781 129.230469 113.464844 L 125.519531 109.753906 C 123.558594 107.792969 123.027344 104.183594 124.339844 101.738281 L 128.808594 90.882812 C 129.625 88.230469 132.566406 86.0625 135.34375 86.0625 Z M 74.914062 104.003906 C 58.847656 104.003906 45.824219 90.980469 45.824219 74.914062 C 45.824219 58.847656 58.847656 45.820312 74.914062 45.820312 C 90.980469 45.820312 104.007812 58.847656 104.007812 74.914062 C 104.007812 90.980469 90.980469 104.003906 74.914062 104.003906 Z M 74.914062 104.003906 " fill-opacity="1" fill-rule="nonzero"/></g></svg>