<svg xmlns="http://www.w3.org/2000/svg" xmlns:xlink="http://www.w3.org/1999/xlink" width="1080" zoomAndPan="magnify" viewBox="0 0 810 809.999993" height="1080" preserveAspectRatio="xMidYMid meet" version="1.0"><defs><clipPath id="450ab0da81"><path d="M 260.683594 265.890625 L 548 265.890625 L 548 540.5 L 260.683594 540.5 Z M 260.683594 265.890625 " clip-rule="nonzero"/></clipPath><clipPath id="5f808abc25"><path d="M 404.15625 265.890625 C 324.917969 265.890625 260.683594 327.363281 260.683594 403.195312 C 260.683594 479.027344 324.917969 540.5 404.15625 540.5 C 483.394531 540.5 547.628906 479.027344 547.628906 403.195312 C 547.628906 327.363281 483.394531 265.890625 404.15625 265.890625 Z M 404.15625 265.890625 " clip-rule="nonzero"/></clipPath><clipPath id="4c6fa1f60f"><path d="M 554 386 L 601 386 L 601 427 L 554 427 Z M 554 386 " clip-rule="nonzero"/></clipPath><clipPath id="f88fc24f87"><path d="M 547.632812 399.585938 L 590.976562 378.890625 L 607.582031 413.675781 L 564.238281 434.367188 Z M 547.632812 399.585938 " clip-rule="nonzero"/></clipPath><clipPath id="3a9df1fd98"><path d="M 569.261719 389.257812 C 557.316406 394.960938 551.351562 407.371094 555.933594 416.976562 C 560.519531 426.582031 573.921875 429.746094 585.871094 424.042969 C 597.816406 418.339844 603.785156 405.929688 599.199219 396.324219 C 594.613281 386.71875 581.210938 383.554688 569.261719 389.257812 Z M 569.261719 389.257812 " clip-rule="nonzero"/></clipPath><clipPath id="8b57a3c436"><path d="M 417 538 L 460 538 L 460 578 L 417 578 Z M 417 538 " clip-rule="nonzero"/></clipPath><clipPath id="aaad1fab61"><path d="M 467.53125 555.867188 L 429.585938 586.035156 L 409.476562 560.738281 L 447.421875 530.570312 Z M 467.53125 555.867188 " clip-rule="nonzero"/></clipPath><clipPath id="bc88a9dc09"><path d="M 448.601562 570.917969 C 459.054688 562.605469 463.027344 550.203125 457.476562 543.21875 C 451.921875 536.234375 438.945312 537.308594 428.492188 545.621094 C 418.035156 553.929688 414.0625 566.332031 419.617188 573.316406 C 425.167969 580.300781 438.148438 579.226562 448.601562 570.917969 Z M 448.601562 570.917969 " clip-rule="nonzero"/></clipPath><clipPath id="36e3b21618"><path d="M 426 537 L 475 537 L 475 570 L 426 570 Z M 426 537 " clip-rule="nonzero"/></clipPath><clipPath id="2681ceebe7"><path d="M 476.769531 565.796875 L 428.847656 573.089844 L 423.984375 541.140625 L 471.90625 533.847656 Z M 476.769531 565.796875 " clip-rule="nonzero"/></clipPath><clipPath id="e3cd106c2a"><path d="M 452.863281 569.433594 C 466.066406 567.425781 475.679688 558.644531 474.339844 549.820312 C 472.996094 541 461.203125 535.476562 448 537.484375 C 434.796875 539.496094 425.179688 548.277344 426.523438 557.097656 C 427.867188 565.921875 439.660156 571.445312 452.863281 569.433594 Z M 452.863281 569.433594 " clip-rule="nonzero"/></clipPath><clipPath id="e538fb7728"><path d="M 316 523 L 383 523 L 383 568 L 316 568 Z M 316 523 " clip-rule="nonzero"/></clipPath><clipPath id="4aa85ddda1"><path d="M 383.191406 567.441406 L 316.730469 568.324219 L 316.144531 524.019531 L 382.601562 523.136719 Z M 383.191406 567.441406 " clip-rule="nonzero"/></clipPath><clipPath id="895983fdaa"><path d="M 350.035156 567.882812 C 368.347656 567.640625 383.058594 557.523438 382.894531 545.289062 C 382.734375 533.054688 367.757812 523.335938 349.449219 523.578125 C 331.136719 523.820312 316.425781 533.9375 316.589844 546.171875 C 316.75 558.40625 331.726562 568.125 350.035156 567.882812 Z M 350.035156 567.882812 " clip-rule="nonzero"/></clipPath><clipPath id="f5e1b998d4"><path d="M 335 525 L 398 525 L 398 576 L 335 576 Z M 335 525 " clip-rule="nonzero"/></clipPath><clipPath id="3bd522736b"><path d="M 384.882812 585.960938 L 326.789062 553.667969 L 348.316406 514.941406 L 406.410156 547.234375 Z M 384.882812 585.960938 " clip-rule="nonzero"/></clipPath><clipPath id="ddf4ae8182"><path d="M 355.902344 569.851562 C 371.90625 578.75 389.703125 577.292969 395.644531 566.597656 C 401.589844 555.902344 393.433594 540.019531 377.429688 531.125 C 361.425781 522.226562 343.628906 523.683594 337.6875 534.378906 C 331.742188 545.074219 339.898438 560.953125 355.902344 569.851562 Z M 355.902344 569.851562 " clip-rule="nonzero"/></clipPath><clipPath id="092ba0f4e4"><path d="M 308.203125 360.90625 L 505 360.90625 L 505 528.320312 L 308.203125 528.320312 Z M 308.203125 360.90625 " clip-rule="nonzero"/></clipPath><clipPath id="fbb48e5970"><path d="M 406.414062 360.90625 C 352.175781 360.90625 308.203125 398.382812 308.203125 444.613281 C 308.203125 490.84375 352.175781 528.320312 406.414062 528.320312 C 460.65625 528.320312 504.625 490.84375 504.625 444.613281 C 504.625 398.382812 460.65625 360.90625 406.414062 360.90625 Z M 406.414062 360.90625 " clip-rule="nonzero"/></clipPath><clipPath id="ff71e60355"><path d="M 379.449219 405.472656 L 429.226562 405.472656 L 429.226562 427.355469 L 379.449219 427.355469 Z M 379.449219 405.472656 " clip-rule="nonzero"/></clipPath><clipPath id="122b872bc8"><path d="M 372.65625 378.929688 L 435.5625 378.929688 L 435.5625 409.5625 L 372.65625 409.5625 Z M 372.65625 378.929688 " clip-rule="nonzero"/></clipPath><clipPath id="1c8dab93ae"><path d="M 412.339844 384.8125 L 424.417969 384.8125 L 424.417969 394.859375 L 412.339844 394.859375 Z M 412.339844 384.8125 " clip-rule="nonzero"/></clipPath><clipPath id="578ca8f40c"><path d="M 415.320312 384.921875 C 419.476562 386.773438 421.152344 387.910156 422.1875 388.871094 C 423.019531 389.644531 423.820312 390.636719 424.140625 391.234375 C 424.304688 391.542969 424.347656 391.746094 424.375 392.007812 C 424.40625 392.269531 424.390625 392.546875 424.332031 392.8125 C 424.273438 393.074219 424.1875 393.335938 424.054688 393.570312 C 423.921875 393.800781 423.75 394.007812 423.542969 394.179688 C 423.339844 394.355469 423.105469 394.503906 422.859375 394.605469 C 422.609375 394.707031 422.332031 394.78125 422.070312 394.792969 C 421.808594 394.808594 421.53125 394.792969 421.269531 394.722656 C 421.019531 394.648438 420.757812 394.546875 420.539062 394.398438 C 420.320312 394.253906 420.101562 394.050781 419.941406 393.847656 C 419.78125 393.640625 419.648438 393.394531 419.5625 393.144531 C 419.476562 392.898438 419.417969 392.621094 419.417969 392.359375 C 419.417969 392.097656 419.445312 391.804688 419.535156 391.554688 C 419.621094 391.308594 419.738281 391.046875 419.898438 390.839844 C 420.058594 390.621094 420.261719 390.433594 420.480469 390.289062 C 420.699219 390.140625 420.949219 390.011719 421.195312 389.9375 C 421.445312 389.863281 421.734375 389.820312 422 389.835938 C 422.261719 389.851562 422.539062 389.910156 422.785156 389.996094 C 423.035156 390.097656 423.28125 390.230469 423.484375 390.402344 C 423.691406 390.566406 423.878906 390.785156 424.011719 391.003906 C 424.15625 391.222656 424.257812 391.484375 424.316406 391.746094 C 424.375 392.007812 424.40625 392.285156 424.375 392.546875 C 424.347656 392.8125 424.273438 393.085938 424.171875 393.320312 C 424.070312 393.570312 423.910156 393.800781 423.734375 393.992188 C 423.558594 394.179688 423.339844 394.355469 423.105469 394.488281 C 422.875 394.617188 422.609375 394.722656 422.347656 394.765625 C 422.085938 394.808594 421.808594 394.824219 421.546875 394.78125 C 421.285156 394.734375 421.007812 394.648438 420.773438 394.53125 C 420.539062 394.414062 420.363281 394.285156 420.132812 394.050781 C 419.753906 393.671875 419.402344 392.972656 418.789062 392.386719 C 417.871094 391.511719 415.871094 390.097656 414.882812 389.585938 C 414.339844 389.308594 413.875 389.296875 413.554688 389.121094 C 413.351562 389.019531 413.234375 388.917969 413.101562 388.785156 C 412.972656 388.652344 412.855469 388.550781 412.753906 388.363281 C 412.605469 388.101562 412.429688 387.675781 412.402344 387.328125 C 412.371094 386.976562 412.476562 386.511719 412.578125 386.234375 C 412.648438 386.027344 412.722656 385.914062 412.855469 385.75 C 413.042969 385.519531 413.4375 385.210938 413.699219 385.066406 C 413.890625 384.964844 414.019531 384.90625 414.226562 384.875 C 414.515625 384.832031 415.320312 384.921875 415.320312 384.921875 " clip-rule="nonzero"/></clipPath><clipPath id="d6de63771d"><path d="M 423.875 397.738281 L 428.332031 397.738281 L 428.332031 402.324219 L 423.875 402.324219 Z M 423.875 397.738281 " clip-rule="nonzero"/></clipPath><clipPath id="3a21fe06a3"><path d="M 428.328125 399.375 C 428.328125 400.789062 428.167969 401.152344 427.949219 401.429688 C 427.730469 401.707031 427.425781 401.957031 427.101562 402.101562 C 426.78125 402.246094 426.386719 402.304688 426.039062 402.289062 C 425.6875 402.277344 425.308594 402.144531 425.003906 401.96875 C 424.695312 401.792969 424.40625 401.503906 424.230469 401.210938 C 424.039062 400.90625 423.921875 400.527344 423.910156 400.175781 C 423.894531 399.824219 423.96875 399.433594 424.113281 399.109375 C 424.257812 398.789062 424.492188 398.484375 424.769531 398.265625 C 425.046875 398.046875 425.410156 397.871094 425.761719 397.8125 C 426.109375 397.753906 426.503906 397.785156 426.839844 397.886719 C 427.175781 397.988281 427.773438 398.441406 427.773438 398.441406 " clip-rule="nonzero"/></clipPath><clipPath id="bb027de15e"><path d="M 401 224.035156 L 425 224.035156 L 425 249 L 401 249 Z M 401 224.035156 " clip-rule="nonzero"/></clipPath><clipPath id="36e8c993b7"><path d="M 384 230 L 401 230 L 401 249.746094 L 384 249.746094 Z M 384 230 " clip-rule="nonzero"/></clipPath><clipPath id="c6d91bfe7d"><path d="M 209 407 L 256 407 L 256 448 L 209 448 Z M 209 407 " clip-rule="nonzero"/></clipPath><clipPath id="c0db3fc6bc"><path d="M 219.132812 399.730469 L 262.460938 420.457031 L 245.828125 455.226562 L 202.5 434.5 Z M 219.132812 399.730469 " clip-rule="nonzero"/></clipPath><clipPath id="f505a01275"><path d="M 240.753906 410.074219 C 228.8125 404.359375 215.410156 407.511719 210.816406 417.113281 C 206.222656 426.714844 212.179688 439.132812 224.121094 444.84375 C 236.0625 450.558594 249.46875 447.40625 254.0625 437.804688 C 258.65625 428.199219 252.699219 415.785156 240.753906 410.074219 Z M 240.753906 410.074219 " clip-rule="nonzero"/></clipPath><clipPath id="32dcb91a9f"><path d="M 333 314 L 396 314 L 396 387.050781 L 333 387.050781 Z M 333 314 " clip-rule="nonzero"/></clipPath><clipPath id="c4f12a3a14"><path d="M 344 339 L 388 339 L 388 387.050781 L 344 387.050781 Z M 344 339 " clip-rule="nonzero"/></clipPath><clipPath id="e410686103"><path d="M 329.285156 287.496094 L 398.757812 287.496094 L 398.757812 385 L 329.285156 385 Z M 329.285156 287.496094 " clip-rule="nonzero"/></clipPath><clipPath id="3697d2edf6"><path d="M 413 314 L 476 314 L 476 387.050781 L 413 387.050781 Z M 413 314 " clip-rule="nonzero"/></clipPath><clipPath id="dabffdcbc9"><path d="M 424 339 L 468 339 L 468 387.050781 L 424 387.050781 Z M 424 339 " clip-rule="nonzero"/></clipPath><clipPath id="68d0a041de"><path d="M 410 287.496094 L 479 287.496094 L 479 385 L 410 385 Z M 410 287.496094 " clip-rule="nonzero"/></clipPath><clipPath id="3d0a4d6d28"><path d="M 220 409 L 246 409 L 246 447 L 220 447 Z M 220 409 " clip-rule="nonzero"/></clipPath><clipPath id="cd8b80bb49"><path d="M 219.917969 443.0625 L 238.164062 408.023438 L 246.753906 412.496094 L 228.511719 447.535156 Z M 219.917969 443.0625 " clip-rule="nonzero"/></clipPath><clipPath id="9da8274498"><path d="M 221.304688 440.402344 L 236.761719 410.714844 C 237.527344 409.242188 239.339844 408.671875 240.808594 409.4375 L 244.078125 411.140625 C 245.546875 411.90625 246.117188 413.71875 245.355469 415.1875 L 229.898438 444.875 C 229.132812 446.34375 227.320312 446.914062 225.851562 446.152344 L 222.578125 444.449219 C 221.109375 443.683594 220.539062 441.871094 221.304688 440.402344 Z M 221.304688 440.402344 " clip-rule="nonzero"/></clipPath><clipPath id="fa78aadcea"><path d="M 565 387 L 591 387 L 591 425 L 565 425 Z M 565 387 " clip-rule="nonzero"/></clipPath><clipPath id="7d591a37bd"><path d="M 572.472656 386.511719 L 591.203125 421.292969 L 582.671875 425.886719 L 563.941406 391.105469 Z M 572.472656 386.511719 " clip-rule="nonzero"/></clipPath><clipPath id="dd1b7b0214"><path d="M 573.894531 389.152344 L 589.761719 418.621094 C 590.546875 420.082031 590.003906 421.902344 588.542969 422.6875 L 585.296875 424.433594 C 583.839844 425.21875 582.019531 424.675781 581.234375 423.214844 L 565.363281 393.746094 C 564.578125 392.285156 565.125 390.46875 566.582031 389.679688 L 569.828125 387.933594 C 571.289062 387.148438 573.109375 387.695312 573.894531 389.152344 Z M 573.894531 389.152344 " clip-rule="nonzero"/></clipPath></defs><g clip-path="url(#450ab0da81)"><g clip-path="url(#5f808abc25)"><path fill="#f8c038" d="M 260.683594 265.890625 L 547.09375 265.890625 L 547.09375 540.5 L 260.683594 540.5 Z M 260.683594 265.890625 " fill-opacity="1" fill-rule="nonzero"/></g></g><g clip-path="url(#4c6fa1f60f)"><g clip-path="url(#f88fc24f87)"><g clip-path="url(#3a9df1fd98)"><path fill="#f8c038" d="M 547.632812 399.585938 L 590.839844 378.957031 L 607.445312 413.742188 L 564.238281 434.367188 Z M 547.632812 399.585938 " fill-opacity="1" fill-rule="nonzero"/></g></g></g><g clip-path="url(#8b57a3c436)"><g clip-path="url(#aaad1fab61)"><g clip-path="url(#bc88a9dc09)"><path fill="#f09020" d="M 467.53125 555.867188 L 429.683594 585.953125 L 409.574219 560.65625 L 447.421875 530.570312 Z M 467.53125 555.867188 " fill-opacity="1" fill-rule="nonzero"/></g></g></g><g clip-path="url(#36e3b21618)"><g clip-path="url(#2681ceebe7)"><g clip-path="url(#e3cd106c2a)"><path fill="#f09020" d="M 476.769531 565.796875 L 428.972656 573.070312 L 424.109375 541.121094 L 471.90625 533.847656 Z M 476.769531 565.796875 " fill-opacity="1" fill-rule="nonzero"/></g></g></g><g clip-path="url(#e538fb7728)"><g clip-path="url(#4aa85ddda1)"><g clip-path="url(#895983fdaa)"><path fill="#f09020" d="M 383.191406 567.441406 L 316.90625 568.324219 L 316.316406 524.019531 L 382.601562 523.136719 Z M 383.191406 567.441406 " fill-opacity="1" fill-rule="nonzero"/></g></g></g><g clip-path="url(#f5e1b998d4)"><g clip-path="url(#3bd522736b)"><g clip-path="url(#ddf4ae8182)"><path fill="#f09020" d="M 384.882812 585.960938 L 326.941406 553.753906 L 348.46875 515.023438 L 406.410156 547.234375 Z M 384.882812 585.960938 " fill-opacity="1" fill-rule="nonzero"/></g></g></g><g clip-path="url(#092ba0f4e4)"><g clip-path="url(#fbb48e5970)"><path fill="#fddc66" d="M 308.203125 360.90625 L 504.390625 360.90625 L 504.390625 528.320312 L 308.203125 528.320312 Z M 308.203125 360.90625 " fill-opacity="1" fill-rule="nonzero"/></g></g><g clip-path="url(#ff71e60355)"><path fill="#f86018" d="M 429.152344 402.601562 C 429.152344 403.414062 429.109375 404.226562 429.03125 405.035156 C 428.953125 405.847656 428.832031 406.648438 428.671875 407.449219 C 428.515625 408.246094 428.316406 409.035156 428.082031 409.8125 C 427.84375 410.59375 427.570312 411.359375 427.257812 412.109375 C 426.949219 412.863281 426.601562 413.597656 426.214844 414.316406 C 425.832031 415.03125 425.414062 415.730469 424.964844 416.40625 C 424.511719 417.082031 424.027344 417.734375 423.511719 418.363281 C 422.992188 418.996094 422.449219 419.597656 421.871094 420.171875 C 421.296875 420.746094 420.695312 421.292969 420.066406 421.808594 C 419.4375 422.324219 418.785156 422.808594 418.105469 423.261719 C 417.429688 423.714844 416.734375 424.132812 416.015625 424.515625 C 415.296875 424.898438 414.5625 425.246094 413.808594 425.558594 C 413.058594 425.871094 412.292969 426.144531 411.515625 426.378906 C 410.734375 426.617188 409.945312 426.8125 409.148438 426.972656 C 408.351562 427.132812 407.546875 427.25 406.738281 427.332031 C 405.925781 427.410156 405.113281 427.449219 404.300781 427.449219 C 403.488281 427.449219 402.675781 427.410156 401.863281 427.332031 C 401.054688 427.25 400.25 427.132812 399.453125 426.972656 C 398.65625 426.8125 397.867188 426.617188 397.085938 426.378906 C 396.308594 426.144531 395.542969 425.871094 394.789062 425.558594 C 394.039062 425.246094 393.304688 424.898438 392.585938 424.515625 C 391.867188 424.132812 391.171875 423.714844 390.496094 423.261719 C 389.816406 422.808594 389.164062 422.324219 388.535156 421.808594 C 387.90625 421.292969 387.304688 420.746094 386.730469 420.171875 C 386.152344 419.597656 385.605469 418.996094 385.089844 418.363281 C 384.574219 417.734375 384.089844 417.082031 383.636719 416.40625 C 383.1875 415.730469 382.769531 415.03125 382.382812 414.316406 C 382 413.597656 381.652344 412.863281 381.34375 412.109375 C 381.03125 411.359375 380.757812 410.59375 380.519531 409.8125 C 380.285156 409.035156 380.085938 408.246094 379.929688 407.449219 C 379.769531 406.648438 379.648438 405.847656 379.570312 405.035156 C 379.488281 404.226562 379.449219 403.414062 379.449219 402.601562 C 379.449219 401.785156 379.488281 400.972656 379.570312 400.164062 C 379.648438 399.355469 379.769531 398.550781 379.929688 397.753906 C 380.085938 396.953125 380.285156 396.164062 380.519531 395.386719 C 380.757812 394.609375 381.03125 393.84375 381.34375 393.089844 C 381.652344 392.339844 382 391.605469 382.382812 390.886719 C 382.769531 390.167969 383.1875 389.472656 383.636719 388.792969 C 384.089844 388.117188 384.574219 387.464844 385.089844 386.835938 C 385.605469 386.207031 386.152344 385.605469 386.730469 385.027344 C 387.304688 384.453125 387.90625 383.90625 388.535156 383.390625 C 389.164062 382.875 389.816406 382.390625 390.496094 381.9375 C 391.171875 381.484375 391.867188 381.066406 392.585938 380.683594 C 393.304688 380.300781 394.039062 379.953125 394.789062 379.640625 C 395.542969 379.328125 396.308594 379.054688 397.085938 378.820312 C 397.867188 378.582031 398.65625 378.386719 399.453125 378.226562 C 400.25 378.070312 401.054688 377.949219 401.863281 377.871094 C 402.675781 377.789062 403.488281 377.75 404.300781 377.75 C 405.113281 377.75 405.925781 377.789062 406.738281 377.871094 C 407.546875 377.949219 408.351562 378.070312 409.148438 378.226562 C 409.945312 378.386719 410.734375 378.582031 411.515625 378.820312 C 412.292969 379.054688 413.058594 379.328125 413.808594 379.640625 C 414.5625 379.953125 415.296875 380.300781 416.015625 380.683594 C 416.734375 381.066406 417.429688 381.484375 418.105469 381.9375 C 418.785156 382.390625 419.4375 382.875 420.066406 383.390625 C 420.695312 383.90625 421.296875 384.453125 421.871094 385.027344 C 422.449219 385.605469 422.992188 386.207031 423.511719 386.835938 C 424.027344 387.464844 424.511719 388.117188 424.964844 388.792969 C 425.414062 389.472656 425.832031 390.167969 426.214844 390.886719 C 426.601562 391.605469 426.949219 392.339844 427.257812 393.089844 C 427.570312 393.84375 427.84375 394.609375 428.082031 395.386719 C 428.316406 396.164062 428.515625 396.953125 428.671875 397.753906 C 428.832031 398.550781 428.953125 399.355469 429.03125 400.164062 C 429.109375 400.972656 429.152344 401.785156 429.152344 402.601562 Z M 429.152344 402.601562 " fill-opacity="1" fill-rule="nonzero"/></g><g clip-path="url(#122b872bc8)"><path fill="#f09020" d="M 435.65625 410.429688 C 435.65625 411.460938 435.605469 412.492188 435.503906 413.519531 C 435.402344 414.542969 435.25 415.5625 435.050781 416.574219 C 434.847656 417.585938 434.597656 418.585938 434.296875 419.574219 C 434 420.5625 433.652344 421.53125 433.257812 422.484375 C 432.863281 423.4375 432.421875 424.371094 431.933594 425.28125 C 431.449219 426.1875 430.917969 427.074219 430.347656 427.929688 C 429.773438 428.789062 429.160156 429.617188 428.503906 430.414062 C 427.851562 431.210938 427.160156 431.976562 426.429688 432.703125 C 425.699219 433.433594 424.9375 434.125 424.136719 434.78125 C 423.339844 435.433594 422.511719 436.046875 421.65625 436.621094 C 420.796875 437.195312 419.914062 437.722656 419.003906 438.210938 C 418.09375 438.695312 417.164062 439.136719 416.210938 439.53125 C 415.257812 439.925781 414.285156 440.273438 413.300781 440.574219 C 412.3125 440.875 411.3125 441.125 410.300781 441.324219 C 409.289062 441.527344 408.269531 441.675781 407.242188 441.777344 C 406.214844 441.878906 405.1875 441.929688 404.15625 441.929688 C 403.125 441.929688 402.09375 441.878906 401.066406 441.777344 C 400.039062 441.675781 399.019531 441.527344 398.007812 441.324219 C 396.996094 441.125 396 440.875 395.011719 440.574219 C 394.023438 440.273438 393.054688 439.925781 392.101562 439.53125 C 391.148438 439.136719 390.214844 438.695312 389.304688 438.210938 C 388.394531 437.722656 387.511719 437.195312 386.65625 436.621094 C 385.796875 436.046875 384.96875 435.433594 384.171875 434.78125 C 383.375 434.125 382.609375 433.433594 381.882812 432.703125 C 381.152344 431.976562 380.460938 431.210938 379.804688 430.414062 C 379.152344 429.617188 378.535156 428.789062 377.964844 427.929688 C 377.390625 427.074219 376.859375 426.1875 376.375 425.28125 C 375.886719 424.371094 375.449219 423.4375 375.054688 422.484375 C 374.65625 421.53125 374.3125 420.5625 374.011719 419.574219 C 373.710938 418.585938 373.460938 417.585938 373.261719 416.574219 C 373.058594 415.5625 372.90625 414.542969 372.808594 413.519531 C 372.707031 412.492188 372.65625 411.460938 372.65625 410.429688 C 372.65625 409.398438 372.707031 408.371094 372.808594 407.34375 C 372.90625 406.316406 373.058594 405.296875 373.261719 404.285156 C 373.460938 403.273438 373.710938 402.273438 374.011719 401.285156 C 374.3125 400.300781 374.65625 399.328125 375.054688 398.375 C 375.449219 397.421875 375.886719 396.492188 376.375 395.582031 C 376.859375 394.671875 377.390625 393.789062 377.964844 392.929688 C 378.535156 392.070312 379.152344 391.246094 379.804688 390.445312 C 380.460938 389.648438 381.152344 388.886719 381.882812 388.15625 C 382.609375 387.425781 383.375 386.734375 384.171875 386.082031 C 384.96875 385.425781 385.796875 384.8125 386.65625 384.238281 C 387.511719 383.667969 388.394531 383.136719 389.304688 382.648438 C 390.214844 382.164062 391.148438 381.722656 392.101562 381.328125 C 393.054688 380.933594 394.023438 380.585938 395.011719 380.285156 C 396 379.988281 396.996094 379.738281 398.007812 379.535156 C 399.019531 379.335938 400.039062 379.183594 401.066406 379.082031 C 402.09375 378.980469 403.125 378.929688 404.15625 378.929688 C 405.1875 378.929688 406.214844 378.980469 407.242188 379.082031 C 408.269531 379.183594 409.289062 379.335938 410.300781 379.535156 C 411.3125 379.738281 412.3125 379.988281 413.300781 380.285156 C 414.285156 380.585938 415.257812 380.933594 416.210938 381.328125 C 417.164062 381.722656 418.09375 382.164062 419.003906 382.648438 C 419.914062 383.136719 420.796875 383.667969 421.65625 384.238281 C 422.511719 384.8125 423.339844 385.425781 424.136719 386.082031 C 424.9375 386.734375 425.699219 387.425781 426.429688 388.15625 C 427.160156 388.886719 427.851562 389.648438 428.503906 390.445312 C 429.160156 391.246094 429.773438 392.070312 430.347656 392.929688 C 430.917969 393.789062 431.449219 394.671875 431.933594 395.582031 C 432.421875 396.492188 432.863281 397.421875 433.257812 398.375 C 433.652344 399.328125 434 400.300781 434.296875 401.285156 C 434.597656 402.273438 434.847656 403.273438 435.050781 404.285156 C 435.25 405.296875 435.402344 406.316406 435.503906 407.34375 C 435.605469 408.371094 435.65625 409.398438 435.65625 410.429688 Z M 435.65625 410.429688 " fill-opacity="1" fill-rule="nonzero"/></g><g clip-path="url(#1c8dab93ae)"><g clip-path="url(#578ca8f40c)"><path fill="#ffffff" d="M 411.820312 384.292969 L 424.9375 384.292969 L 424.9375 395.378906 L 411.820312 395.378906 Z M 411.820312 384.292969 " fill-opacity="1" fill-rule="nonzero"/></g></g><g clip-path="url(#d6de63771d)"><g clip-path="url(#3a21fe06a3)"><path fill="#ffffff" d="M 423.324219 397.230469 L 428.96875 397.230469 L 428.96875 402.875 L 423.324219 402.875 Z M 423.324219 397.230469 " fill-opacity="1" fill-rule="nonzero"/></g></g><path stroke-linecap="round" transform="matrix(-0.547007, 0.000000000954708, -0.000000000954708, -0.547007, 388.060618, 404.01528)" fill="none" stroke-linejoin="miter" d="M 1.503338 1.499006 L 17.935078 1.499006 " stroke="#c8831a" stroke-width="3" stroke-opacity="1" stroke-miterlimit="4"/><path stroke-linecap="round" transform="matrix(-0.547007, 0, 0, -0.547007, 388.059387, 398.074922)" fill="none" stroke-linejoin="miter" d="M 1.501088 1.500924 L 10.813121 1.500924 " stroke="#c8831a" stroke-width="3" stroke-opacity="1" stroke-miterlimit="4"/><path stroke-linecap="round" transform="matrix(-0.547007, -0.000000000954708, 0.000000000954708, -0.547007, 388.062054, 392.581992)" fill="none" stroke-linejoin="miter" d="M 1.498821 1.499566 L 5.633535 1.499566 " stroke="#c8831a" stroke-width="3" stroke-opacity="1" stroke-miterlimit="4"/><g clip-path="url(#bb027de15e)"><path fill="#39b54a" d="M 402.703125 248.304688 C 401.734375 246.074219 400.289062 241.734375 401.707031 237.097656 C 404.03125 229.488281 413.152344 224.035156 424.125 224.742188 C 425.582031 234.023438 421.992188 242.714844 415.222656 246.59375 C 410.667969 249.207031 405.945312 248.902344 403.707031 248.59375 C 405.996094 246.859375 408.566406 244.632812 411.136719 241.816406 C 415.101562 237.46875 417.75 233.152344 419.503906 229.707031 C 416.984375 233.210938 413.960938 237 410.347656 240.867188 C 407.738281 243.65625 405.164062 246.128906 402.703125 248.304688 Z M 402.703125 248.304688 " fill-opacity="1" fill-rule="nonzero"/></g><g clip-path="url(#36e8c993b7)"><path fill="#39b54a" d="M 399.777344 248.546875 C 398.066406 249.066406 394.769531 249.746094 391.5 248.320312 C 386.140625 245.976562 382.933594 238.875 384.382812 230.941406 C 391.289062 230.671875 397.335938 234.027344 399.59375 239.285156 C 401.117188 242.828125 400.492188 246.238281 400.074219 247.839844 C 399.003906 246.027344 397.59375 243.964844 395.753906 241.855469 C 392.914062 238.597656 389.984375 236.300781 387.617188 234.730469 C 389.964844 236.863281 392.472656 239.386719 394.992188 242.347656 C 396.808594 244.484375 398.398438 246.570312 399.777344 248.546875 Z M 399.777344 248.546875 " fill-opacity="1" fill-rule="nonzero"/></g><g clip-path="url(#c6d91bfe7d)"><g clip-path="url(#c0db3fc6bc)"><g clip-path="url(#f505a01275)"><path fill="#f8c038" d="M 219.132812 399.730469 L 262.324219 420.390625 L 245.691406 455.164062 L 202.5 434.5 Z M 219.132812 399.730469 " fill-opacity="1" fill-rule="nonzero"/></g></g></g><g clip-path="url(#32dcb91a9f)"><path stroke-linecap="butt" transform="matrix(0.547075, 0, 0, 0.545883, 298.937712, 272.304587)" fill="none" stroke-linejoin="miter" d="M 147.610023 203.519509 C 149.823501 201.007809 152.015558 198.56051 154.186194 196.163303 C 157.070856 192.971797 159.134388 190.2812 160.369652 188.084357 C 163.382838 182.738942 165.896206 175.862177 165.232163 169.700996 C 164.439595 162.423504 162.226117 155.711324 158.591729 149.557299 C 157.363606 147.482104 157.013734 147.618065 157.542112 149.972338 C 158.413223 153.786402 157.842003 157.528908 155.828452 161.214167 C 155.699928 161.464621 155.500001 161.571959 155.221531 161.550491 C 154.943061 161.529024 154.757414 161.378751 154.657451 161.113985 C 152.336869 154.53061 149.138037 149.57161 145.068094 146.229832 C 140.376949 142.365677 135.357352 140.269015 133.486606 134.043432 C 132.615496 131.159627 132.222782 127.867939 132.322745 124.161213 C 132.679758 110.264566 131.03036 96.496724 117.878017 88.890063 C 117.742353 88.818505 117.599548 88.797037 117.449602 88.839972 C 117.071169 88.94731 117.028327 89.133362 117.335358 89.390972 C 121.276777 92.811465 123.097541 97.05488 122.77623 102.135528 C 122.040784 113.985604 107.15336 120.547512 99.684658 127.739134 C 88.860037 138.165197 84.725831 151.596714 87.274901 168.033685 C 87.296322 168.176802 87.24634 168.284139 87.124956 168.362854 C 87.003572 168.441568 86.882187 168.434412 86.760803 168.355698 C 80.191772 163.96201 77.771227 157.807986 75.557749 150.666454 C 75.122194 149.285377 74.836584 149.314 74.700919 150.745169 C 73.565619 161.858193 74.800882 172.420217 78.392429 182.438397 C 79.720515 186.152279 81.869731 189.844694 84.832935 193.529953 C 88.08889 197.558692 91.7804 201.344133 95.921745 204.87912 " stroke="#f57621" stroke-width="2" stroke-opacity="1" stroke-miterlimit="4"/></g><g clip-path="url(#c4f12a3a14)"><path stroke-linecap="butt" transform="matrix(0.547075, 0, 0, 0.545883, 298.937712, 272.304587)" fill="none" stroke-linejoin="miter" d="M 135.628682 207.51247 C 143.390135 202.496224 148.09556 195.941472 149.752098 187.85537 C 150.794575 182.738942 150.965941 177.701229 150.244776 172.756541 C 149.837781 169.972918 149.352244 169.958607 148.788164 172.713606 C 148.109841 175.998138 146.524705 178.932034 144.032757 181.529604 C 143.133086 182.46702 142.733232 182.288124 142.818915 180.992916 C 143.454397 171.389775 140.284125 163.539816 133.3081 157.457349 C 127.417393 152.312298 118.149347 150.165545 116.906943 141.156339 C 116.614193 139.088301 117.442462 137.020262 118.592042 135.352951 C 119.813025 133.599769 119.570257 133.356471 117.849456 134.623055 C 113.451062 137.85034 111.801664 144.698482 112.058713 149.900779 C 112.244359 153.757779 112.301481 157.478817 112.230079 161.063894 C 112.094414 167.368192 106.175146 169.014035 103.190521 173.651022 C 101.919556 175.63319 100.948482 177.694073 100.263018 179.847981 C 99.670377 181.765747 99.034895 181.780059 98.356571 179.883761 C 97.685387 178.016086 97.335515 176.112631 97.299814 174.166242 C 97.285533 173.364788 97.114167 173.336164 96.785716 174.06606 C 93.408377 181.558228 92.265937 189.751668 96.9071 197.100718 C 99.527572 201.258263 103.954528 205.208288 110.187967 208.950794 " stroke="#fcc021" stroke-width="2" stroke-opacity="1" stroke-miterlimit="4"/></g><g clip-path="url(#e410686103)"><path fill="#ef5922" d="M 379.691406 383.402344 C 380.902344 382.03125 382.101562 380.695312 383.289062 379.386719 C 384.867188 377.644531 385.996094 376.175781 386.671875 374.976562 C 388.320312 372.058594 389.695312 368.304688 389.332031 364.941406 C 388.898438 360.96875 387.6875 357.304688 385.699219 353.945312 C 385.027344 352.8125 384.835938 352.886719 385.125 354.171875 C 385.601562 356.253906 385.289062 358.296875 384.1875 360.308594 C 384.117188 360.445312 384.007812 360.503906 383.855469 360.492188 C 383.703125 360.480469 383.601562 360.398438 383.546875 360.253906 C 382.277344 356.660156 380.527344 353.953125 378.300781 352.128906 C 375.734375 350.019531 372.988281 348.875 371.964844 345.476562 C 371.488281 343.902344 371.273438 342.105469 371.328125 340.082031 C 371.523438 332.496094 370.621094 324.980469 363.425781 320.828125 C 363.351562 320.789062 363.273438 320.777344 363.191406 320.800781 C 362.984375 320.859375 362.960938 320.960938 363.128906 321.101562 C 365.285156 322.96875 366.28125 325.285156 366.105469 328.058594 C 365.703125 334.527344 357.558594 338.109375 353.472656 342.035156 C 347.550781 347.726562 345.289062 355.058594 346.683594 364.03125 C 346.695312 364.109375 346.667969 364.167969 346.601562 364.210938 C 346.535156 364.253906 346.46875 364.25 346.402344 364.207031 C 342.808594 361.808594 341.484375 358.449219 340.273438 354.550781 C 340.035156 353.796875 339.878906 353.8125 339.804688 354.59375 C 339.183594 360.660156 339.859375 366.425781 341.824219 371.894531 C 342.550781 373.921875 343.726562 375.9375 345.347656 377.949219 C 347.128906 380.148438 349.148438 382.214844 351.414062 384.144531 C 349.113281 383.320312 347.050781 382.261719 345.222656 380.972656 C 338.847656 376.496094 334.449219 370.722656 332.027344 363.65625 C 330.996094 360.640625 330.3125 357.046875 329.988281 352.871094 C 329.5 346.71875 329.835938 340.621094 330.996094 334.582031 C 331.183594 333.589844 331.359375 333.59375 331.527344 334.59375 C 331.699219 335.65625 331.878906 336.75 332.0625 337.867188 C 332.75 342.117188 334.890625 347.570312 338.5625 350.222656 C 338.683594 350.3125 338.816406 350.324219 338.953125 350.257812 C 339.09375 350.191406 339.164062 350.085938 339.175781 349.929688 C 339.242188 348.304688 339.285156 346.640625 339.296875 344.9375 C 339.367188 332.664062 346.277344 320.960938 357.265625 314.648438 C 362.289062 311.765625 367.457031 308.632812 370.558594 303.792969 C 373.914062 298.554688 372.753906 293.222656 369.28125 288.484375 C 368.804688 287.84375 368.90625 287.738281 369.582031 288.167969 C 373.28125 290.519531 375.875 295.351562 376.867188 299.332031 C 378.054688 304.113281 378.285156 309.0625 377.554688 314.183594 C 377.003906 318.058594 376.699219 321.941406 377.011719 325.6875 C 377.214844 328.121094 378.273438 330.523438 380.027344 332.289062 C 383.085938 335.363281 386.324219 337.796875 388.253906 341.84375 C 389.449219 344.34375 390.441406 347.257812 391.222656 350.59375 C 391.242188 350.671875 391.277344 350.746094 391.332031 350.808594 C 391.382812 350.875 391.449219 350.925781 391.523438 350.957031 C 391.597656 350.992188 391.679688 351.007812 391.761719 351.003906 C 391.84375 351 391.921875 350.980469 391.996094 350.9375 C 392.089844 350.890625 392.160156 350.824219 392.210938 350.742188 C 394.390625 347.296875 395.195312 343.703125 394.628906 339.960938 C 394.511719 339.199219 394.601562 339.175781 394.898438 339.882812 C 397.46875 346.027344 398.589844 352.460938 398.253906 359.1875 C 398.195312 360.375 397.980469 361.546875 397.613281 362.703125 C 394.613281 372.140625 388.636719 379.039062 379.691406 383.402344 Z M 379.691406 383.402344 " fill-opacity="1" fill-rule="nonzero"/></g><path fill="#fa921f" d="M 379.691406 383.402344 C 377.835938 384.449219 375.648438 385.175781 373.136719 385.582031 C 377.382812 382.84375 379.957031 379.265625 380.863281 374.851562 C 381.433594 372.058594 381.527344 369.308594 381.132812 366.609375 C 380.910156 365.089844 380.644531 365.082031 380.335938 366.585938 C 379.964844 368.378906 379.097656 369.980469 377.734375 371.398438 C 377.242188 371.910156 377.023438 371.8125 377.070312 371.105469 C 377.417969 365.863281 375.683594 361.578125 371.867188 358.257812 C 368.644531 355.449219 363.574219 354.277344 362.894531 349.359375 C 362.734375 348.230469 363.1875 347.101562 363.816406 346.191406 C 364.484375 345.234375 364.351562 345.101562 363.410156 345.792969 C 361.003906 347.554688 360.101562 351.292969 360.242188 354.132812 C 360.34375 356.238281 360.375 358.269531 360.335938 360.226562 C 360.261719 363.667969 357.023438 364.566406 355.390625 367.097656 C 354.695312 368.179688 354.164062 369.304688 353.789062 370.480469 C 353.464844 371.527344 353.117188 371.535156 352.746094 370.5 C 352.378906 369.480469 352.1875 368.441406 352.167969 367.378906 C 352.160156 366.941406 352.066406 366.925781 351.886719 367.324219 C 350.039062 371.414062 349.414062 375.886719 351.953125 379.898438 C 353.386719 382.167969 355.808594 384.324219 359.21875 386.367188 C 356.191406 385.964844 353.589844 385.222656 351.414062 384.144531 C 349.148438 382.214844 347.128906 380.148438 345.347656 377.949219 C 343.726562 375.9375 342.550781 373.921875 341.824219 371.894531 C 339.859375 366.425781 339.183594 360.660156 339.804688 354.59375 C 339.878906 353.8125 340.035156 353.796875 340.273438 354.550781 C 341.484375 358.449219 342.808594 361.808594 346.402344 364.207031 C 346.46875 364.25 346.535156 364.253906 346.601562 364.210938 C 346.667969 364.167969 346.695312 364.109375 346.683594 364.03125 C 345.289062 355.058594 347.550781 347.726562 353.472656 342.035156 C 357.558594 338.109375 365.703125 334.527344 366.105469 328.058594 C 366.28125 325.285156 365.285156 322.96875 363.128906 321.101562 C 362.960938 320.960938 362.984375 320.859375 363.191406 320.800781 C 363.273438 320.777344 363.351562 320.789062 363.425781 320.828125 C 370.621094 324.980469 371.523438 332.496094 371.328125 340.082031 C 371.273438 342.105469 371.488281 343.902344 371.964844 345.476562 C 372.988281 348.875 375.734375 350.019531 378.300781 352.128906 C 380.527344 353.953125 382.277344 356.660156 383.546875 360.253906 C 383.601562 360.398438 383.703125 360.480469 383.855469 360.492188 C 384.007812 360.503906 384.117188 360.445312 384.1875 360.308594 C 385.289062 358.296875 385.601562 356.253906 385.125 354.171875 C 384.835938 352.886719 385.027344 352.8125 385.699219 353.945312 C 387.6875 357.304688 388.898438 360.96875 389.332031 364.941406 C 389.695312 368.304688 388.320312 372.058594 386.671875 374.976562 C 385.996094 376.175781 384.867188 377.644531 383.289062 379.386719 C 382.101562 380.695312 380.902344 382.03125 379.691406 383.402344 Z M 379.691406 383.402344 " fill-opacity="1" fill-rule="nonzero"/><path fill="#fdee23" d="M 373.136719 385.582031 C 371.910156 386.164062 370.214844 386.539062 368.050781 386.699219 C 364.628906 386.953125 361.683594 386.84375 359.21875 386.367188 C 355.808594 384.324219 353.386719 382.167969 351.953125 379.898438 C 349.414062 375.886719 350.039062 371.414062 351.886719 367.324219 C 352.066406 366.925781 352.160156 366.941406 352.167969 367.378906 C 352.1875 368.441406 352.378906 369.480469 352.746094 370.5 C 353.117188 371.535156 353.464844 371.527344 353.789062 370.480469 C 354.164062 369.304688 354.695312 368.179688 355.390625 367.097656 C 357.023438 364.566406 360.261719 363.667969 360.335938 360.226562 C 360.375 358.269531 360.34375 356.238281 360.242188 354.132812 C 360.101562 351.292969 361.003906 347.554688 363.410156 345.792969 C 364.351562 345.101562 364.484375 345.234375 363.816406 346.191406 C 363.1875 347.101562 362.734375 348.230469 362.894531 349.359375 C 363.574219 354.277344 368.644531 355.449219 371.867188 358.257812 C 375.683594 361.578125 377.417969 365.863281 377.070312 371.105469 C 377.023438 371.8125 377.242188 371.910156 377.734375 371.398438 C 379.097656 369.980469 379.964844 368.378906 380.335938 366.585938 C 380.644531 365.082031 380.910156 365.089844 381.132812 366.609375 C 381.527344 369.308594 381.433594 372.058594 380.863281 374.851562 C 379.957031 379.265625 377.382812 382.84375 373.136719 385.582031 Z M 373.136719 385.582031 " fill-opacity="1" fill-rule="nonzero"/><g clip-path="url(#3697d2edf6)"><path stroke-linecap="butt" transform="matrix(0.547075, 0, 0, 0.545883, 379.218325, 272.304587)" fill="none" stroke-linejoin="miter" d="M 147.611188 203.519509 C 149.824666 201.007809 152.016723 198.56051 154.187359 196.163303 C 157.072021 192.971797 159.135553 190.2812 160.370817 188.084357 C 163.384003 182.738942 165.897371 175.862177 165.233328 169.700996 C 164.44076 162.423504 162.227282 155.711324 158.592894 149.557299 C 157.364771 147.482104 157.014899 147.618065 157.543277 149.972338 C 158.414388 153.786402 157.843168 157.528908 155.829617 161.214167 C 155.701092 161.464621 155.494025 161.571959 155.215555 161.550491 C 154.937085 161.529024 154.751439 161.378751 154.658616 161.113985 C 152.330894 154.53061 149.139202 149.57161 145.069258 146.229832 C 140.378113 142.365677 135.358517 140.269015 133.487771 134.043432 C 132.61666 131.159627 132.223947 127.867939 132.31677 124.161213 C 132.680923 110.264566 131.031525 96.496724 117.879182 88.890063 C 117.743517 88.818505 117.600712 88.797037 117.450767 88.839972 C 117.072334 88.94731 117.029492 89.133362 117.329383 89.390972 C 121.277942 92.811465 123.091566 97.05488 122.777394 102.135528 C 122.041949 113.985604 107.154525 120.547512 99.678682 127.739134 C 88.861202 138.165197 84.726996 151.596714 87.276066 168.033685 C 87.297487 168.176802 87.247505 168.284139 87.11898 168.362854 C 86.997596 168.441568 86.883352 168.434412 86.761968 168.355698 C 80.192937 163.96201 77.772392 157.807986 75.551774 150.666454 C 75.123358 149.285377 74.837748 149.314 74.694943 150.745169 C 73.566784 161.858193 74.802047 172.420217 78.386453 182.438397 C 79.72168 186.152279 81.870896 189.844694 84.8341 193.529953 C 88.090055 197.558692 91.781564 201.344133 95.91577 204.87912 " stroke="#f57621" stroke-width="2" stroke-opacity="1" stroke-miterlimit="4"/></g><g clip-path="url(#dabffdcbc9)"><path stroke-linecap="butt" transform="matrix(0.547075, 0, 0, 0.545883, 379.218325, 272.304587)" fill="none" stroke-linejoin="miter" d="M 135.629846 207.51247 C 143.391299 202.496224 148.096725 195.941472 149.746123 187.85537 C 150.79574 182.738942 150.959966 177.701229 150.245941 172.756541 C 149.838946 169.972918 149.353409 169.958607 148.789329 172.713606 C 148.111005 175.998138 146.52587 178.932034 144.026782 181.529604 C 143.13425 182.46702 142.734396 182.288124 142.820079 180.992916 C 143.448421 171.389775 140.27815 163.539816 133.309265 157.457349 C 127.418558 152.312298 118.150512 150.165545 116.908108 141.156339 C 116.615358 139.088301 117.443627 137.020262 118.593207 135.352951 C 119.81419 133.599769 119.564281 133.356471 117.843481 134.623055 C 113.452226 137.85034 111.802828 144.698482 112.059878 149.900779 C 112.245524 153.757779 112.302646 157.478817 112.231244 161.063894 C 112.095579 167.368192 106.176311 169.014035 103.191686 173.651022 C 101.920721 175.63319 100.942507 177.694073 100.264183 179.847981 C 99.664402 181.765747 99.028919 181.780059 98.357736 179.883761 C 97.686552 178.016086 97.33668 176.112631 97.300978 174.166242 C 97.286698 173.364788 97.115332 173.336164 96.78688 174.06606 C 93.409542 181.558228 92.267101 189.751668 96.908265 197.100718 C 99.528737 201.258263 103.955693 205.208288 110.189132 208.950794 " stroke="#fcc021" stroke-width="2" stroke-opacity="1" stroke-miterlimit="4"/></g><g clip-path="url(#68d0a041de)"><path fill="#ef5922" d="M 459.972656 383.402344 C 461.183594 382.03125 462.382812 380.695312 463.570312 379.386719 C 465.148438 377.644531 466.277344 376.175781 466.953125 374.976562 C 468.601562 372.058594 469.976562 368.304688 469.613281 364.941406 C 469.179688 360.96875 467.96875 357.304688 465.980469 353.945312 C 465.308594 352.8125 465.117188 352.886719 465.40625 354.171875 C 465.882812 356.253906 465.570312 358.296875 464.46875 360.308594 C 464.398438 360.445312 464.285156 360.503906 464.132812 360.492188 C 463.980469 360.480469 463.878906 360.398438 463.828125 360.253906 C 462.554688 356.660156 460.808594 353.953125 458.582031 352.128906 C 456.015625 350.019531 453.269531 348.875 452.246094 345.476562 C 451.769531 343.902344 451.554688 342.105469 451.605469 340.082031 C 451.804688 332.496094 450.902344 324.980469 443.707031 320.828125 C 443.632812 320.789062 443.554688 320.777344 443.472656 320.800781 C 443.265625 320.859375 443.242188 320.960938 443.40625 321.101562 C 445.566406 322.96875 446.558594 325.285156 446.386719 328.058594 C 445.984375 334.527344 437.839844 338.109375 433.75 342.035156 C 427.832031 347.726562 425.570312 355.058594 426.964844 364.03125 C 426.976562 364.109375 426.949219 364.167969 426.878906 364.210938 C 426.8125 364.253906 426.75 364.25 426.683594 364.207031 C 423.089844 361.808594 421.765625 358.449219 420.550781 354.550781 C 420.316406 353.796875 420.160156 353.8125 420.082031 354.59375 C 419.464844 360.660156 420.140625 366.425781 422.101562 371.894531 C 422.832031 373.921875 424.007812 375.9375 425.628906 377.949219 C 427.410156 380.148438 429.429688 382.214844 431.691406 384.144531 C 429.394531 383.320312 427.332031 382.261719 425.503906 380.972656 C 419.128906 376.496094 414.730469 370.722656 412.308594 363.65625 C 411.273438 360.640625 410.59375 357.046875 410.265625 352.871094 C 409.78125 346.71875 410.117188 340.621094 411.277344 334.582031 C 411.464844 333.589844 411.640625 333.59375 411.808594 334.59375 C 411.980469 335.65625 412.15625 336.75 412.34375 337.867188 C 413.03125 342.117188 415.171875 347.570312 418.84375 350.222656 C 418.964844 350.3125 419.097656 350.324219 419.234375 350.257812 C 419.375 350.191406 419.445312 350.085938 419.453125 349.929688 C 419.523438 348.304688 419.566406 346.640625 419.574219 344.9375 C 419.648438 332.664062 426.554688 320.960938 437.546875 314.648438 C 442.570312 311.765625 447.738281 308.632812 450.839844 303.792969 C 454.195312 298.554688 453.035156 293.222656 449.558594 288.484375 C 449.085938 287.84375 449.1875 287.738281 449.863281 288.167969 C 453.558594 290.519531 456.152344 295.351562 457.148438 299.332031 C 458.335938 304.113281 458.566406 309.0625 457.835938 314.183594 C 457.285156 318.058594 456.980469 321.941406 457.289062 325.6875 C 457.496094 328.121094 458.554688 330.523438 460.308594 332.289062 C 463.367188 335.363281 466.605469 337.796875 468.535156 341.84375 C 469.730469 344.34375 470.722656 347.257812 471.503906 350.59375 C 471.523438 350.671875 471.558594 350.746094 471.609375 350.808594 C 471.664062 350.875 471.726562 350.925781 471.804688 350.957031 C 471.878906 350.992188 471.960938 351.007812 472.042969 351.003906 C 472.125 351 472.203125 350.980469 472.277344 350.9375 C 472.367188 350.890625 472.441406 350.824219 472.492188 350.742188 C 474.671875 347.296875 475.476562 343.703125 474.910156 339.960938 C 474.792969 339.199219 474.882812 339.175781 475.179688 339.882812 C 477.75 346.027344 478.867188 352.460938 478.535156 359.1875 C 478.476562 360.375 478.261719 361.546875 477.894531 362.703125 C 474.894531 372.140625 468.917969 379.039062 459.972656 383.402344 Z M 459.972656 383.402344 " fill-opacity="1" fill-rule="nonzero"/></g><path fill="#fa921f" d="M 459.972656 383.402344 C 458.113281 384.449219 455.929688 385.175781 453.417969 385.582031 C 457.664062 382.84375 460.238281 379.265625 461.140625 374.851562 C 461.714844 372.058594 461.804688 369.308594 461.414062 366.609375 C 461.191406 365.089844 460.925781 365.082031 460.617188 366.585938 C 460.246094 368.378906 459.378906 369.980469 458.011719 371.398438 C 457.523438 371.910156 457.304688 371.8125 457.351562 371.105469 C 457.695312 365.863281 455.960938 361.578125 452.148438 358.257812 C 448.925781 355.449219 443.855469 354.277344 443.175781 349.359375 C 443.015625 348.230469 443.46875 347.101562 444.097656 346.191406 C 444.765625 345.234375 444.628906 345.101562 443.6875 345.792969 C 441.285156 347.554688 440.382812 351.292969 440.523438 354.132812 C 440.625 356.238281 440.65625 358.269531 440.617188 360.226562 C 440.542969 363.667969 437.304688 364.566406 435.671875 367.097656 C 434.976562 368.179688 434.441406 369.304688 434.070312 370.480469 C 433.742188 371.527344 433.394531 371.535156 433.027344 370.5 C 432.660156 369.480469 432.46875 368.441406 432.449219 367.378906 C 432.441406 366.941406 432.347656 366.925781 432.167969 367.324219 C 430.320312 371.414062 429.695312 375.886719 432.234375 379.898438 C 433.667969 382.167969 436.089844 384.324219 439.5 386.367188 C 436.472656 385.964844 433.871094 385.222656 431.691406 384.144531 C 429.429688 382.214844 427.410156 380.148438 425.628906 377.949219 C 424.007812 375.9375 422.832031 373.921875 422.101562 371.894531 C 420.140625 366.425781 419.464844 360.660156 420.082031 354.59375 C 420.160156 353.8125 420.316406 353.796875 420.550781 354.550781 C 421.765625 358.449219 423.089844 361.808594 426.683594 364.207031 C 426.75 364.25 426.8125 364.253906 426.878906 364.210938 C 426.949219 364.167969 426.976562 364.109375 426.964844 364.03125 C 425.570312 355.058594 427.832031 347.726562 433.75 342.035156 C 437.839844 338.109375 445.984375 334.527344 446.386719 328.058594 C 446.558594 325.285156 445.566406 322.96875 443.40625 321.101562 C 443.242188 320.960938 443.265625 320.859375 443.472656 320.800781 C 443.554688 320.777344 443.632812 320.789062 443.707031 320.828125 C 450.902344 324.980469 451.804688 332.496094 451.605469 340.082031 C 451.554688 342.105469 451.769531 343.902344 452.246094 345.476562 C 453.269531 348.875 456.015625 350.019531 458.582031 352.128906 C 460.808594 353.953125 462.554688 356.660156 463.828125 360.253906 C 463.878906 360.398438 463.980469 360.480469 464.132812 360.492188 C 464.285156 360.503906 464.398438 360.445312 464.46875 360.308594 C 465.570312 358.296875 465.882812 356.253906 465.40625 354.171875 C 465.117188 352.886719 465.308594 352.8125 465.980469 353.945312 C 467.96875 357.304688 469.179688 360.96875 469.613281 364.941406 C 469.976562 368.304688 468.601562 372.058594 466.953125 374.976562 C 466.277344 376.175781 465.148438 377.644531 463.570312 379.386719 C 462.382812 380.695312 461.183594 382.03125 459.972656 383.402344 Z M 459.972656 383.402344 " fill-opacity="1" fill-rule="nonzero"/><path fill="#fdee23" d="M 453.417969 385.582031 C 452.191406 386.164062 450.496094 386.539062 448.328125 386.699219 C 444.910156 386.953125 441.964844 386.84375 439.5 386.367188 C 436.089844 384.324219 433.667969 382.167969 432.234375 379.898438 C 429.695312 375.886719 430.320312 371.414062 432.167969 367.324219 C 432.347656 366.925781 432.441406 366.941406 432.449219 367.378906 C 432.46875 368.441406 432.660156 369.480469 433.027344 370.5 C 433.394531 371.535156 433.742188 371.527344 434.070312 370.480469 C 434.441406 369.304688 434.976562 368.179688 435.671875 367.097656 C 437.304688 364.566406 440.542969 363.667969 440.617188 360.226562 C 440.65625 358.269531 440.625 356.238281 440.523438 354.132812 C 440.382812 351.292969 441.285156 347.554688 443.6875 345.792969 C 444.628906 345.101562 444.765625 345.234375 444.097656 346.191406 C 443.46875 347.101562 443.015625 348.230469 443.175781 349.359375 C 443.855469 354.277344 448.925781 355.449219 452.148438 358.257812 C 455.960938 361.578125 457.695312 365.863281 457.351562 371.105469 C 457.304688 371.8125 457.523438 371.910156 458.011719 371.398438 C 459.378906 369.980469 460.246094 368.378906 460.617188 366.585938 C 460.925781 365.082031 461.191406 365.089844 461.414062 366.609375 C 461.804688 369.308594 461.714844 372.058594 461.140625 374.851562 C 460.238281 379.265625 457.664062 382.84375 453.417969 385.582031 Z M 453.417969 385.582031 " fill-opacity="1" fill-rule="nonzero"/><g clip-path="url(#3d0a4d6d28)"><g clip-path="url(#cd8b80bb49)"><g clip-path="url(#9da8274498)"><path fill="#ff430e" d="M 219.917969 443.0625 L 238.144531 408.054688 L 246.738281 412.53125 L 228.511719 447.535156 Z M 219.917969 443.0625 " fill-opacity="1" fill-rule="nonzero"/></g></g></g><g clip-path="url(#fa78aadcea)"><g clip-path="url(#7d591a37bd)"><g clip-path="url(#dd1b7b0214)"><path fill="#ff430e" d="M 572.472656 386.511719 L 591.183594 421.261719 L 582.65625 425.851562 L 563.941406 391.105469 Z M 572.472656 386.511719 " fill-opacity="1" fill-rule="nonzero"/></g></g></g></svg>