<svg xmlns="http://www.w3.org/2000/svg" xmlns:xlink="http://www.w3.org/1999/xlink" width="1080" zoomAndPan="magnify" viewBox="0 0 810 809.999993" height="1080" preserveAspectRatio="xMidYMid meet" version="1.0"><defs><clipPath id="f7407e883b"><path d="M 203.257812 322.699219 L 607 322.699219 L 607 607.5 L 203.257812 607.5 Z M 203.257812 322.699219 " clip-rule="nonzero"/></clipPath><clipPath id="ab1f0a6a61"><path d="M 233.257812 322.699219 L 576.742188 322.699219 C 593.308594 322.699219 606.742188 336.128906 606.742188 352.699219 L 606.742188 577.5 C 606.742188 594.070312 593.308594 607.5 576.742188 607.5 L 233.257812 607.5 C 216.691406 607.5 203.257812 594.070312 203.257812 577.5 L 203.257812 352.699219 C 203.257812 336.128906 216.691406 322.699219 233.257812 322.699219 Z M 233.257812 322.699219 " clip-rule="nonzero"/></clipPath><clipPath id="732c6ec826"><path d="M 204.019531 222.9375 L 607.699219 222.9375 L 607.699219 364.117188 L 204.019531 364.117188 Z M 204.019531 222.9375 " clip-rule="nonzero"/></clipPath><clipPath id="691001c6f1"><path d="M 234.019531 222.9375 L 577.5 222.9375 C 594.070312 222.9375 607.5 236.367188 607.5 252.9375 L 607.5 334.117188 C 607.5 350.683594 594.070312 364.117188 577.5 364.117188 L 234.019531 364.117188 C 217.449219 364.117188 204.019531 350.683594 204.019531 334.117188 L 204.019531 252.9375 C 204.019531 236.367188 217.449219 222.9375 234.019531 222.9375 Z M 234.019531 222.9375 " clip-rule="nonzero"/></clipPath><clipPath id="859adfca93"><path d="M 204.019531 301.402344 L 607.5 301.402344 L 607.5 405 L 204.019531 405 Z M 204.019531 301.402344 " clip-rule="nonzero"/></clipPath><clipPath id="6797e2a779"><path d="M 223.328125 234.105469 L 280.421875 234.105469 L 280.421875 291.199219 L 223.328125 291.199219 Z M 223.328125 234.105469 " clip-rule="nonzero"/></clipPath><clipPath id="ea7e127aa0"><path d="M 251.875 234.105469 C 236.109375 234.105469 223.328125 246.886719 223.328125 262.652344 C 223.328125 278.417969 236.109375 291.199219 251.875 291.199219 C 267.640625 291.199219 280.421875 278.417969 280.421875 262.652344 C 280.421875 246.886719 267.640625 234.105469 251.875 234.105469 Z M 251.875 234.105469 " clip-rule="nonzero"/></clipPath><clipPath id="633663b297"><path d="M 223.328125 234.105469 L 280.328125 234.105469 L 280.328125 291.105469 L 223.328125 291.105469 Z M 223.328125 234.105469 " clip-rule="nonzero"/></clipPath><clipPath id="46fa49ab52"><path d="M 251.875 234.105469 C 236.109375 234.105469 223.328125 246.886719 223.328125 262.652344 C 223.328125 278.417969 236.109375 291.199219 251.875 291.199219 C 267.640625 291.199219 280.421875 278.417969 280.421875 262.652344 C 280.421875 246.886719 267.640625 234.105469 251.875 234.105469 Z M 251.875 234.105469 " clip-rule="nonzero"/></clipPath><clipPath id="a1e3722286"><path d="M 528.105469 234.105469 L 585.199219 234.105469 L 585.199219 291.199219 L 528.105469 291.199219 Z M 528.105469 234.105469 " clip-rule="nonzero"/></clipPath><clipPath id="925bb4f92e"><path d="M 556.652344 234.105469 C 540.886719 234.105469 528.105469 246.886719 528.105469 262.652344 C 528.105469 278.417969 540.886719 291.199219 556.652344 291.199219 C 572.421875 291.199219 585.199219 278.417969 585.199219 262.652344 C 585.199219 246.886719 572.421875 234.105469 556.652344 234.105469 Z M 556.652344 234.105469 " clip-rule="nonzero"/></clipPath><clipPath id="4bd13829c5"><path d="M 528.105469 234.105469 L 585.105469 234.105469 L 585.105469 291.105469 L 528.105469 291.105469 Z M 528.105469 234.105469 " clip-rule="nonzero"/></clipPath><clipPath id="fef72076ac"><path d="M 556.652344 234.105469 C 540.886719 234.105469 528.105469 246.886719 528.105469 262.652344 C 528.105469 278.417969 540.886719 291.199219 556.652344 291.199219 C 572.421875 291.199219 585.199219 278.417969 585.199219 262.652344 C 585.199219 246.886719 572.421875 234.105469 556.652344 234.105469 Z M 556.652344 234.105469 " clip-rule="nonzero"/></clipPath><clipPath id="6f463d9d7f"><path d="M 241.0625 344.011719 L 294.296875 344.011719 L 294.296875 386.863281 L 241.0625 386.863281 Z M 241.0625 344.011719 " clip-rule="nonzero"/></clipPath><clipPath id="3444ffc0e5"><path d="M 247.0625 344.011719 L 288.289062 344.011719 C 289.882812 344.011719 291.40625 344.644531 292.53125 345.769531 C 293.65625 346.894531 294.289062 348.417969 294.289062 350.011719 L 294.289062 380.863281 C 294.289062 382.457031 293.65625 383.984375 292.53125 385.109375 C 291.40625 386.234375 289.882812 386.863281 288.289062 386.863281 L 247.0625 386.863281 C 245.472656 386.863281 243.945312 386.234375 242.820312 385.109375 C 241.695312 383.984375 241.0625 382.457031 241.0625 380.863281 L 241.0625 350.011719 C 241.0625 348.417969 241.695312 346.894531 242.820312 345.769531 C 243.945312 344.644531 245.472656 344.011719 247.0625 344.011719 Z M 247.0625 344.011719 " clip-rule="nonzero"/></clipPath><clipPath id="899eb298c9"><path d="M 310.167969 344.011719 L 363.402344 344.011719 L 363.402344 386.863281 L 310.167969 386.863281 Z M 310.167969 344.011719 " clip-rule="nonzero"/></clipPath><clipPath id="92113e1522"><path d="M 316.167969 344.011719 L 357.394531 344.011719 C 358.988281 344.011719 360.511719 344.644531 361.636719 345.769531 C 362.761719 346.894531 363.394531 348.417969 363.394531 350.011719 L 363.394531 380.863281 C 363.394531 382.457031 362.761719 383.984375 361.636719 385.109375 C 360.511719 386.234375 358.988281 386.863281 357.394531 386.863281 L 316.167969 386.863281 C 314.578125 386.863281 313.050781 386.234375 311.925781 385.109375 C 310.800781 383.984375 310.167969 382.457031 310.167969 380.863281 L 310.167969 350.011719 C 310.167969 348.417969 310.800781 346.894531 311.925781 345.769531 C 313.050781 344.644531 314.578125 344.011719 316.167969 344.011719 Z M 316.167969 344.011719 " clip-rule="nonzero"/></clipPath><clipPath id="8005e2370d"><path d="M 379.144531 344.011719 L 432.378906 344.011719 L 432.378906 386.863281 L 379.144531 386.863281 Z M 379.144531 344.011719 " clip-rule="nonzero"/></clipPath><clipPath id="7ec6c13e32"><path d="M 385.144531 344.011719 L 426.371094 344.011719 C 427.964844 344.011719 429.492188 344.644531 430.617188 345.769531 C 431.742188 346.894531 432.371094 348.417969 432.371094 350.011719 L 432.371094 380.863281 C 432.371094 382.457031 431.742188 383.984375 430.617188 385.109375 C 429.492188 386.234375 427.964844 386.863281 426.371094 386.863281 L 385.144531 386.863281 C 383.554688 386.863281 382.027344 386.234375 380.902344 385.109375 C 379.777344 383.984375 379.144531 382.457031 379.144531 380.863281 L 379.144531 350.011719 C 379.144531 348.417969 379.777344 346.894531 380.902344 345.769531 C 382.027344 344.644531 383.554688 344.011719 385.144531 344.011719 Z M 385.144531 344.011719 " clip-rule="nonzero"/></clipPath><clipPath id="986bfe4d03"><path d="M 448.121094 344.011719 L 501.355469 344.011719 L 501.355469 386.863281 L 448.121094 386.863281 Z M 448.121094 344.011719 " clip-rule="nonzero"/></clipPath><clipPath id="a11561c8c5"><path d="M 454.121094 344.011719 L 495.351562 344.011719 C 496.941406 344.011719 498.46875 344.644531 499.59375 345.769531 C 500.71875 346.894531 501.351562 348.417969 501.351562 350.011719 L 501.351562 380.863281 C 501.351562 382.457031 500.71875 383.984375 499.59375 385.109375 C 498.46875 386.234375 496.941406 386.863281 495.351562 386.863281 L 454.121094 386.863281 C 452.53125 386.863281 451.003906 386.234375 449.878906 385.109375 C 448.753906 383.984375 448.121094 382.457031 448.121094 380.863281 L 448.121094 350.011719 C 448.121094 348.417969 448.753906 346.894531 449.878906 345.769531 C 451.003906 344.644531 452.53125 344.011719 454.121094 344.011719 Z M 454.121094 344.011719 " clip-rule="nonzero"/></clipPath><clipPath id="f9aa02c614"><path d="M 517.101562 344.011719 L 570.332031 344.011719 L 570.332031 386.863281 L 517.101562 386.863281 Z M 517.101562 344.011719 " clip-rule="nonzero"/></clipPath><clipPath id="c3c2f8fcb3"><path d="M 523.101562 344.011719 L 564.328125 344.011719 C 565.917969 344.011719 567.445312 344.644531 568.570312 345.769531 C 569.695312 346.894531 570.328125 348.417969 570.328125 350.011719 L 570.328125 380.863281 C 570.328125 382.457031 569.695312 383.984375 568.570312 385.109375 C 567.445312 386.234375 565.917969 386.863281 564.328125 386.863281 L 523.101562 386.863281 C 521.507812 386.863281 519.984375 386.234375 518.859375 385.109375 C 517.734375 383.984375 517.101562 382.457031 517.101562 380.863281 L 517.101562 350.011719 C 517.101562 348.417969 517.734375 346.894531 518.859375 345.769531 C 519.984375 344.644531 521.507812 344.011719 523.101562 344.011719 Z M 523.101562 344.011719 " clip-rule="nonzero"/></clipPath><clipPath id="1990dbd464"><path d="M 241.125 399.222656 L 294.359375 399.222656 L 294.359375 442.074219 L 241.125 442.074219 Z M 241.125 399.222656 " clip-rule="nonzero"/></clipPath><clipPath id="bb769fca22"><path d="M 247.125 399.222656 L 288.355469 399.222656 C 289.945312 399.222656 291.472656 399.851562 292.597656 400.976562 C 293.722656 402.101562 294.355469 403.628906 294.355469 405.222656 L 294.355469 436.074219 C 294.355469 437.667969 293.722656 439.191406 292.597656 440.316406 C 291.472656 441.441406 289.945312 442.074219 288.355469 442.074219 L 247.125 442.074219 C 245.535156 442.074219 244.007812 441.441406 242.882812 440.316406 C 241.757812 439.191406 241.125 437.667969 241.125 436.074219 L 241.125 405.222656 C 241.125 403.628906 241.757812 402.101562 242.882812 400.976562 C 244.007812 399.851562 245.535156 399.222656 247.125 399.222656 Z M 247.125 399.222656 " clip-rule="nonzero"/></clipPath><clipPath id="f67b13af64"><path d="M 310.234375 399.222656 L 363.464844 399.222656 L 363.464844 442.074219 L 310.234375 442.074219 Z M 310.234375 399.222656 " clip-rule="nonzero"/></clipPath><clipPath id="826a6d4f5c"><path d="M 316.234375 399.222656 L 357.460938 399.222656 C 359.050781 399.222656 360.578125 399.851562 361.703125 400.976562 C 362.828125 402.101562 363.460938 403.628906 363.460938 405.222656 L 363.460938 436.074219 C 363.460938 437.667969 362.828125 439.191406 361.703125 440.316406 C 360.578125 441.441406 359.050781 442.074219 357.460938 442.074219 L 316.234375 442.074219 C 314.640625 442.074219 313.113281 441.441406 311.988281 440.316406 C 310.863281 439.191406 310.234375 437.667969 310.234375 436.074219 L 310.234375 405.222656 C 310.234375 403.628906 310.863281 402.101562 311.988281 400.976562 C 313.113281 399.851562 314.640625 399.222656 316.234375 399.222656 Z M 316.234375 399.222656 " clip-rule="nonzero"/></clipPath><clipPath id="b10bd22ab0"><path d="M 379.210938 399.222656 L 432.441406 399.222656 L 432.441406 442.074219 L 379.210938 442.074219 Z M 379.210938 399.222656 " clip-rule="nonzero"/></clipPath><clipPath id="fa32d13fbc"><path d="M 385.210938 399.222656 L 426.4375 399.222656 C 428.027344 399.222656 429.554688 399.851562 430.679688 400.976562 C 431.804688 402.101562 432.4375 403.628906 432.4375 405.222656 L 432.4375 436.074219 C 432.4375 437.667969 431.804688 439.191406 430.679688 440.316406 C 429.554688 441.441406 428.027344 442.074219 426.4375 442.074219 L 385.210938 442.074219 C 383.617188 442.074219 382.09375 441.441406 380.96875 440.316406 C 379.84375 439.191406 379.210938 437.667969 379.210938 436.074219 L 379.210938 405.222656 C 379.210938 403.628906 379.84375 402.101562 380.96875 400.976562 C 382.09375 399.851562 383.617188 399.222656 385.210938 399.222656 Z M 385.210938 399.222656 " clip-rule="nonzero"/></clipPath><clipPath id="59b89c4628"><path d="M 448.1875 399.222656 L 501.417969 399.222656 L 501.417969 442.074219 L 448.1875 442.074219 Z M 448.1875 399.222656 " clip-rule="nonzero"/></clipPath><clipPath id="0d2eb65375"><path d="M 454.1875 399.222656 L 495.414062 399.222656 C 497.003906 399.222656 498.53125 399.851562 499.65625 400.976562 C 500.78125 402.101562 501.414062 403.628906 501.414062 405.222656 L 501.414062 436.074219 C 501.414062 437.667969 500.78125 439.191406 499.65625 440.316406 C 498.53125 441.441406 497.003906 442.074219 495.414062 442.074219 L 454.1875 442.074219 C 452.597656 442.074219 451.070312 441.441406 449.945312 440.316406 C 448.820312 439.191406 448.1875 437.667969 448.1875 436.074219 L 448.1875 405.222656 C 448.1875 403.628906 448.820312 402.101562 449.945312 400.976562 C 451.070312 399.851562 452.597656 399.222656 454.1875 399.222656 Z M 454.1875 399.222656 " clip-rule="nonzero"/></clipPath><clipPath id="a7342cc2bf"><path d="M 517.164062 399.222656 L 570.398438 399.222656 L 570.398438 442.074219 L 517.164062 442.074219 Z M 517.164062 399.222656 " clip-rule="nonzero"/></clipPath><clipPath id="28be416a99"><path d="M 523.164062 399.222656 L 564.390625 399.222656 C 565.984375 399.222656 567.507812 399.851562 568.632812 400.976562 C 569.757812 402.101562 570.390625 403.628906 570.390625 405.222656 L 570.390625 436.074219 C 570.390625 437.667969 569.757812 439.191406 568.632812 440.316406 C 567.507812 441.441406 565.984375 442.074219 564.390625 442.074219 L 523.164062 442.074219 C 521.574219 442.074219 520.046875 441.441406 518.921875 440.316406 C 517.796875 439.191406 517.164062 437.667969 517.164062 436.074219 L 517.164062 405.222656 C 517.164062 403.628906 517.796875 402.101562 518.921875 400.976562 C 520.046875 399.851562 521.574219 399.222656 523.164062 399.222656 Z M 523.164062 399.222656 " clip-rule="nonzero"/></clipPath><clipPath id="402ecb5cb9"><path d="M 241.0625 454.074219 L 294.296875 454.074219 L 294.296875 496.929688 L 241.0625 496.929688 Z M 241.0625 454.074219 " clip-rule="nonzero"/></clipPath><clipPath id="33959fff86"><path d="M 247.0625 454.074219 L 288.289062 454.074219 C 289.882812 454.074219 291.40625 454.707031 292.53125 455.832031 C 293.65625 456.957031 294.289062 458.484375 294.289062 460.074219 L 294.289062 490.929688 C 294.289062 492.519531 293.65625 494.046875 292.53125 495.171875 C 291.40625 496.296875 289.882812 496.929688 288.289062 496.929688 L 247.0625 496.929688 C 245.472656 496.929688 243.945312 496.296875 242.820312 495.171875 C 241.695312 494.046875 241.0625 492.519531 241.0625 490.929688 L 241.0625 460.074219 C 241.0625 458.484375 241.695312 456.957031 242.820312 455.832031 C 243.945312 454.707031 245.472656 454.074219 247.0625 454.074219 Z M 247.0625 454.074219 " clip-rule="nonzero"/></clipPath><clipPath id="5b6fa71bb5"><path d="M 310.167969 454.074219 L 363.402344 454.074219 L 363.402344 496.929688 L 310.167969 496.929688 Z M 310.167969 454.074219 " clip-rule="nonzero"/></clipPath><clipPath id="5d032a1b3e"><path d="M 316.167969 454.074219 L 357.394531 454.074219 C 358.988281 454.074219 360.511719 454.707031 361.636719 455.832031 C 362.761719 456.957031 363.394531 458.484375 363.394531 460.074219 L 363.394531 490.929688 C 363.394531 492.519531 362.761719 494.046875 361.636719 495.171875 C 360.511719 496.296875 358.988281 496.929688 357.394531 496.929688 L 316.167969 496.929688 C 314.578125 496.929688 313.050781 496.296875 311.925781 495.171875 C 310.800781 494.046875 310.167969 492.519531 310.167969 490.929688 L 310.167969 460.074219 C 310.167969 458.484375 310.800781 456.957031 311.925781 455.832031 C 313.050781 454.707031 314.578125 454.074219 316.167969 454.074219 Z M 316.167969 454.074219 " clip-rule="nonzero"/></clipPath><clipPath id="35121655a9"><path d="M 379.144531 454.074219 L 432.378906 454.074219 L 432.378906 496.929688 L 379.144531 496.929688 Z M 379.144531 454.074219 " clip-rule="nonzero"/></clipPath><clipPath id="4c5d537829"><path d="M 385.144531 454.074219 L 426.371094 454.074219 C 427.964844 454.074219 429.492188 454.707031 430.617188 455.832031 C 431.742188 456.957031 432.371094 458.484375 432.371094 460.074219 L 432.371094 490.929688 C 432.371094 492.519531 431.742188 494.046875 430.617188 495.171875 C 429.492188 496.296875 427.964844 496.929688 426.371094 496.929688 L 385.144531 496.929688 C 383.554688 496.929688 382.027344 496.296875 380.902344 495.171875 C 379.777344 494.046875 379.144531 492.519531 379.144531 490.929688 L 379.144531 460.074219 C 379.144531 458.484375 379.777344 456.957031 380.902344 455.832031 C 382.027344 454.707031 383.554688 454.074219 385.144531 454.074219 Z M 385.144531 454.074219 " clip-rule="nonzero"/></clipPath><clipPath id="68ad6b10bb"><path d="M 448.121094 454.074219 L 501.355469 454.074219 L 501.355469 496.929688 L 448.121094 496.929688 Z M 448.121094 454.074219 " clip-rule="nonzero"/></clipPath><clipPath id="56dfa561ec"><path d="M 454.121094 454.074219 L 495.351562 454.074219 C 496.941406 454.074219 498.46875 454.707031 499.59375 455.832031 C 500.71875 456.957031 501.351562 458.484375 501.351562 460.074219 L 501.351562 490.929688 C 501.351562 492.519531 500.71875 494.046875 499.59375 495.171875 C 498.46875 496.296875 496.941406 496.929688 495.351562 496.929688 L 454.121094 496.929688 C 452.53125 496.929688 451.003906 496.296875 449.878906 495.171875 C 448.753906 494.046875 448.121094 492.519531 448.121094 490.929688 L 448.121094 460.074219 C 448.121094 458.484375 448.753906 456.957031 449.878906 455.832031 C 451.003906 454.707031 452.53125 454.074219 454.121094 454.074219 Z M 454.121094 454.074219 " clip-rule="nonzero"/></clipPath><clipPath id="af2e8e3730"><path d="M 517.101562 454.074219 L 570.332031 454.074219 L 570.332031 496.929688 L 517.101562 496.929688 Z M 517.101562 454.074219 " clip-rule="nonzero"/></clipPath><clipPath id="ddb4a8fd17"><path d="M 523.101562 454.074219 L 564.328125 454.074219 C 565.917969 454.074219 567.445312 454.707031 568.570312 455.832031 C 569.695312 456.957031 570.328125 458.484375 570.328125 460.074219 L 570.328125 490.929688 C 570.328125 492.519531 569.695312 494.046875 568.570312 495.171875 C 567.445312 496.296875 565.917969 496.929688 564.328125 496.929688 L 523.101562 496.929688 C 521.507812 496.929688 519.984375 496.296875 518.859375 495.171875 C 517.734375 494.046875 517.101562 492.519531 517.101562 490.929688 L 517.101562 460.074219 C 517.101562 458.484375 517.734375 456.957031 518.859375 455.832031 C 519.984375 454.707031 521.507812 454.074219 523.101562 454.074219 Z M 523.101562 454.074219 " clip-rule="nonzero"/></clipPath><clipPath id="2f826a046c"><path d="M 241.191406 508.929688 L 294.421875 508.929688 L 294.421875 551.78125 L 241.191406 551.78125 Z M 241.191406 508.929688 " clip-rule="nonzero"/></clipPath><clipPath id="b0704b5098"><path d="M 247.191406 508.929688 L 288.417969 508.929688 C 290.007812 508.929688 291.535156 509.5625 292.660156 510.6875 C 293.785156 511.8125 294.417969 513.335938 294.417969 514.929688 L 294.417969 545.78125 C 294.417969 547.375 293.785156 548.898438 292.660156 550.023438 C 291.535156 551.152344 290.007812 551.78125 288.417969 551.78125 L 247.191406 551.78125 C 245.601562 551.78125 244.074219 551.152344 242.949219 550.023438 C 241.824219 548.898438 241.191406 547.375 241.191406 545.78125 L 241.191406 514.929688 C 241.191406 513.335938 241.824219 511.8125 242.949219 510.6875 C 244.074219 509.5625 245.601562 508.929688 247.191406 508.929688 Z M 247.191406 508.929688 " clip-rule="nonzero"/></clipPath><clipPath id="0e688b2277"><path d="M 310.296875 508.929688 L 363.53125 508.929688 L 363.53125 551.78125 L 310.296875 551.78125 Z M 310.296875 508.929688 " clip-rule="nonzero"/></clipPath><clipPath id="ac096f7494"><path d="M 316.296875 508.929688 L 357.523438 508.929688 C 359.117188 508.929688 360.640625 509.5625 361.765625 510.6875 C 362.890625 511.8125 363.523438 513.335938 363.523438 514.929688 L 363.523438 545.78125 C 363.523438 547.375 362.890625 548.898438 361.765625 550.023438 C 360.640625 551.152344 359.117188 551.78125 357.523438 551.78125 L 316.296875 551.78125 C 314.707031 551.78125 313.179688 551.152344 312.054688 550.023438 C 310.929688 548.898438 310.296875 547.375 310.296875 545.78125 L 310.296875 514.929688 C 310.296875 513.335938 310.929688 511.8125 312.054688 510.6875 C 313.179688 509.5625 314.707031 508.929688 316.296875 508.929688 Z M 316.296875 508.929688 " clip-rule="nonzero"/></clipPath><clipPath id="184b40a5d9"><path d="M 379.273438 508.929688 L 432.507812 508.929688 L 432.507812 551.78125 L 379.273438 551.78125 Z M 379.273438 508.929688 " clip-rule="nonzero"/></clipPath><clipPath id="1700fa3abc"><path d="M 385.273438 508.929688 L 426.5 508.929688 C 428.09375 508.929688 429.617188 509.5625 430.742188 510.6875 C 431.871094 511.8125 432.5 513.335938 432.5 514.929688 L 432.5 545.78125 C 432.5 547.375 431.871094 548.898438 430.742188 550.023438 C 429.617188 551.152344 428.09375 551.78125 426.5 551.78125 L 385.273438 551.78125 C 383.683594 551.78125 382.15625 551.152344 381.03125 550.023438 C 379.90625 548.898438 379.273438 547.375 379.273438 545.78125 L 379.273438 514.929688 C 379.273438 513.335938 379.90625 511.8125 381.03125 510.6875 C 382.15625 509.5625 383.683594 508.929688 385.273438 508.929688 Z M 385.273438 508.929688 " clip-rule="nonzero"/></clipPath><clipPath id="8d9f2a48ee"><path d="M 448.25 508.929688 L 501.484375 508.929688 L 501.484375 551.78125 L 448.25 551.78125 Z M 448.25 508.929688 " clip-rule="nonzero"/></clipPath><clipPath id="3cf0d11bd7"><path d="M 454.25 508.929688 L 495.480469 508.929688 C 497.070312 508.929688 498.597656 509.5625 499.722656 510.6875 C 500.847656 511.8125 501.480469 513.335938 501.480469 514.929688 L 501.480469 545.78125 C 501.480469 547.375 500.847656 548.898438 499.722656 550.023438 C 498.597656 551.152344 497.070312 551.78125 495.480469 551.78125 L 454.25 551.78125 C 452.660156 551.78125 451.132812 551.152344 450.007812 550.023438 C 448.882812 548.898438 448.25 547.375 448.25 545.78125 L 448.25 514.929688 C 448.25 513.335938 448.882812 511.8125 450.007812 510.6875 C 451.132812 509.5625 452.660156 508.929688 454.25 508.929688 Z M 454.25 508.929688 " clip-rule="nonzero"/></clipPath><clipPath id="58b5dbfd54"><path d="M 517.230469 508.929688 L 570.460938 508.929688 L 570.460938 551.78125 L 517.230469 551.78125 Z M 517.230469 508.929688 " clip-rule="nonzero"/></clipPath><clipPath id="4817954e0b"><path d="M 523.230469 508.929688 L 564.457031 508.929688 C 566.046875 508.929688 567.574219 509.5625 568.699219 510.6875 C 569.824219 511.8125 570.457031 513.335938 570.457031 514.929688 L 570.457031 545.78125 C 570.457031 547.375 569.824219 548.898438 568.699219 550.023438 C 567.574219 551.152344 566.046875 551.78125 564.457031 551.78125 L 523.230469 551.78125 C 521.636719 551.78125 520.113281 551.152344 518.984375 550.023438 C 517.859375 548.898438 517.230469 547.375 517.230469 545.78125 L 517.230469 514.929688 C 517.230469 513.335938 517.859375 511.8125 518.984375 510.6875 C 520.113281 509.5625 521.636719 508.929688 523.230469 508.929688 Z M 523.230469 508.929688 " clip-rule="nonzero"/></clipPath><clipPath id="8670c95191"><path d="M 541.496094 202.5 L 571.8125 202.5 L 571.8125 277.339844 L 541.496094 277.339844 Z M 541.496094 202.5 " clip-rule="nonzero"/></clipPath><clipPath id="4c598ae5b6"><path d="M 555.746094 202.5 L 557.5625 202.5 C 565.433594 202.5 571.8125 208.878906 571.8125 216.75 L 571.8125 262.988281 C 571.8125 270.859375 565.433594 277.238281 557.5625 277.238281 L 555.746094 277.238281 C 547.875 277.238281 541.496094 270.859375 541.496094 262.988281 L 541.496094 216.75 C 541.496094 208.878906 547.875 202.5 555.746094 202.5 Z M 555.746094 202.5 " clip-rule="nonzero"/></clipPath><clipPath id="4406c1d2b6"><path d="M 236.714844 202.5 L 267.03125 202.5 L 267.03125 277.339844 L 236.714844 277.339844 Z M 236.714844 202.5 " clip-rule="nonzero"/></clipPath><clipPath id="64f927d42a"><path d="M 250.964844 202.5 L 252.78125 202.5 C 260.652344 202.5 267.03125 208.878906 267.03125 216.75 L 267.03125 262.988281 C 267.03125 270.859375 260.652344 277.238281 252.78125 277.238281 L 250.964844 277.238281 C 243.097656 277.238281 236.714844 270.859375 236.714844 262.988281 L 236.714844 216.75 C 236.714844 208.878906 243.097656 202.5 250.964844 202.5 Z M 250.964844 202.5 " clip-rule="nonzero"/></clipPath><clipPath id="9feb71767c"><path d="M 466 385 L 508 385 L 508 440 L 466 440 Z M 466 385 " clip-rule="nonzero"/></clipPath><clipPath id="70b582e039"><path d="M 499.359375 382.503906 L 510.003906 389.78125 L 474.429688 441.785156 L 463.789062 434.507812 Z M 499.359375 382.503906 " clip-rule="nonzero"/></clipPath><clipPath id="e1f24715ef"><path d="M 504.683594 386.140625 C 506.09375 387.105469 507.0625 388.59375 507.378906 390.273438 C 507.695312 391.953125 507.328125 393.691406 506.363281 395.101562 L 478.09375 436.433594 C 477.128906 437.84375 475.640625 438.8125 473.960938 439.128906 C 472.28125 439.445312 470.542969 439.078125 469.132812 438.113281 C 467.722656 437.148438 466.75 435.660156 466.4375 433.980469 C 466.121094 432.300781 466.484375 430.5625 467.453125 429.152344 L 495.722656 387.824219 C 496.6875 386.410156 498.171875 385.441406 499.851562 385.125 C 501.535156 384.8125 503.269531 385.175781 504.683594 386.140625 Z M 504.683594 386.140625 " clip-rule="nonzero"/></clipPath><clipPath id="3a04b23a20"><path d="M 452 407 L 479 407 L 479 440 L 452 440 Z M 452 407 " clip-rule="nonzero"/></clipPath><clipPath id="33bfd7c34e"><path d="M 449.601562 412.394531 L 460.105469 404.910156 L 481.03125 434.28125 L 470.527344 441.761719 Z M 449.601562 412.394531 " clip-rule="nonzero"/></clipPath><clipPath id="9009be9721"><path d="M 454.855469 408.652344 C 456.246094 407.660156 457.976562 407.261719 459.660156 407.546875 C 461.347656 407.828125 462.851562 408.769531 463.84375 410.164062 L 477.28125 429.019531 C 478.273438 430.410156 478.671875 432.140625 478.386719 433.828125 C 478.105469 435.511719 477.164062 437.019531 475.769531 438.011719 C 474.378906 439.003906 472.648438 439.402344 470.960938 439.117188 C 469.277344 438.835938 467.773438 437.894531 466.78125 436.5 L 453.34375 417.644531 C 452.351562 416.25 451.953125 414.523438 452.238281 412.835938 C 452.519531 411.148438 453.460938 409.644531 454.855469 408.652344 Z M 454.855469 408.652344 " clip-rule="nonzero"/></clipPath><clipPath id="b55705a6c7"><path d="M 187.667969 208.328125 L 505.503906 208.328125 L 505.503906 526.328125 L 187.667969 526.328125 Z M 187.667969 208.328125 " clip-rule="nonzero"/></clipPath><clipPath id="5af2de9270"><path d="M 187.667969 208.328125 L 492 208.328125 L 492 513 L 187.667969 513 Z M 187.667969 208.328125 " clip-rule="nonzero"/></clipPath><clipPath id="09a1f30ff6"><path d="M 246.3125 327 L 326 327 L 326 415.578125 L 246.3125 415.578125 Z M 246.3125 327 " clip-rule="nonzero"/></clipPath><clipPath id="af3a448911"><path d="M 287 326 L 366.3125 326 L 366.3125 415 L 287 415 Z M 287 326 " clip-rule="nonzero"/></clipPath><clipPath id="107cc2415e"><path d="M 260 272.328125 L 353 272.328125 L 353 364 L 260 364 Z M 260 272.328125 " clip-rule="nonzero"/></clipPath></defs><g clip-path="url(#f7407e883b)"><g clip-path="url(#ab1f0a6a61)"><path fill="#fff9b7" d="M 203.257812 322.699219 L 607.097656 322.699219 L 607.097656 607.5 L 203.257812 607.5 Z M 203.257812 322.699219 " fill-opacity="1" fill-rule="nonzero"/></g></g><g clip-path="url(#732c6ec826)"><g clip-path="url(#691001c6f1)"><path fill="#dd2e44" d="M 204.019531 222.9375 L 607.699219 222.9375 L 607.699219 364.117188 L 204.019531 364.117188 Z M 204.019531 222.9375 " fill-opacity="1" fill-rule="nonzero"/></g></g><g clip-path="url(#859adfca93)"><path fill="#fff9b7" d="M 204.019531 301.402344 L 607.476562 301.402344 L 607.476562 405 L 204.019531 405 Z M 204.019531 301.402344 " fill-opacity="1" fill-rule="nonzero"/></g><g clip-path="url(#6797e2a779)"><g clip-path="url(#ea7e127aa0)"><path fill="#2a81b9" d="M 223.328125 234.105469 L 280.421875 234.105469 L 280.421875 291.199219 L 223.328125 291.199219 Z M 223.328125 234.105469 " fill-opacity="1" fill-rule="nonzero"/></g></g><g clip-path="url(#633663b297)"><g clip-path="url(#46fa49ab52)"><path stroke-linecap="butt" transform="matrix(0.75, 0, 0, 0.75, 223.327435, 234.104658)" fill="none" stroke-linejoin="miter" d="M 38.063422 0.00108124 C 17.042588 0.00108124 0.000920447 17.042749 0.000920447 38.063583 C 0.000920447 59.084418 17.042588 76.126085 38.063422 76.126085 C 59.084257 76.126085 76.125924 59.084418 76.125924 38.063583 C 76.125924 17.042749 59.084257 0.00108124 38.063422 0.00108124 Z M 38.063422 0.00108124 " stroke="#ffffff" stroke-width="38" stroke-opacity="1" stroke-miterlimit="4"/></g></g><g clip-path="url(#a1e3722286)"><g clip-path="url(#925bb4f92e)"><path fill="#2a81b9" d="M 528.105469 234.105469 L 585.199219 234.105469 L 585.199219 291.199219 L 528.105469 291.199219 Z M 528.105469 234.105469 " fill-opacity="1" fill-rule="nonzero"/></g></g><g clip-path="url(#4bd13829c5)"><g clip-path="url(#fef72076ac)"><path stroke-linecap="butt" transform="matrix(0.75, 0, 0, 0.75, 528.107329, 234.104658)" fill="none" stroke-linejoin="miter" d="M 38.060022 0.00108124 C 17.039187 0.00108124 -0.00248024 17.042749 -0.00248024 38.063583 C -0.00248024 59.084418 17.039187 76.126085 38.060022 76.126085 C 59.086064 76.126085 76.122524 59.084418 76.122524 38.063583 C 76.122524 17.042749 59.086064 0.00108124 38.060022 0.00108124 Z M 38.060022 0.00108124 " stroke="#ffffff" stroke-width="38" stroke-opacity="1" stroke-miterlimit="4"/></g></g><g clip-path="url(#6f463d9d7f)"><g clip-path="url(#3444ffc0e5)"><path fill="#fabe12" d="M 241.0625 344.011719 L 294.296875 344.011719 L 294.296875 386.863281 L 241.0625 386.863281 Z M 241.0625 344.011719 " fill-opacity="1" fill-rule="nonzero"/></g></g><g clip-path="url(#899eb298c9)"><g clip-path="url(#92113e1522)"><path fill="#fabe12" d="M 310.167969 344.011719 L 363.402344 344.011719 L 363.402344 386.863281 L 310.167969 386.863281 Z M 310.167969 344.011719 " fill-opacity="1" fill-rule="nonzero"/></g></g><g clip-path="url(#8005e2370d)"><g clip-path="url(#7ec6c13e32)"><path fill="#fabe12" d="M 379.144531 344.011719 L 432.378906 344.011719 L 432.378906 386.863281 L 379.144531 386.863281 Z M 379.144531 344.011719 " fill-opacity="1" fill-rule="nonzero"/></g></g><g clip-path="url(#986bfe4d03)"><g clip-path="url(#a11561c8c5)"><path fill="#fabe12" d="M 448.121094 344.011719 L 501.355469 344.011719 L 501.355469 386.863281 L 448.121094 386.863281 Z M 448.121094 344.011719 " fill-opacity="1" fill-rule="nonzero"/></g></g><g clip-path="url(#f9aa02c614)"><g clip-path="url(#c3c2f8fcb3)"><path fill="#fabe12" d="M 517.101562 344.011719 L 570.332031 344.011719 L 570.332031 386.863281 L 517.101562 386.863281 Z M 517.101562 344.011719 " fill-opacity="1" fill-rule="nonzero"/></g></g><g clip-path="url(#1990dbd464)"><g clip-path="url(#bb769fca22)"><path fill="#fabe12" d="M 241.125 399.222656 L 294.359375 399.222656 L 294.359375 442.074219 L 241.125 442.074219 Z M 241.125 399.222656 " fill-opacity="1" fill-rule="nonzero"/></g></g><g clip-path="url(#f67b13af64)"><g clip-path="url(#826a6d4f5c)"><path fill="#fabe12" d="M 310.234375 399.222656 L 363.464844 399.222656 L 363.464844 442.074219 L 310.234375 442.074219 Z M 310.234375 399.222656 " fill-opacity="1" fill-rule="nonzero"/></g></g><g clip-path="url(#b10bd22ab0)"><g clip-path="url(#fa32d13fbc)"><path fill="#fabe12" d="M 379.210938 399.222656 L 432.441406 399.222656 L 432.441406 442.074219 L 379.210938 442.074219 Z M 379.210938 399.222656 " fill-opacity="1" fill-rule="nonzero"/></g></g><g clip-path="url(#59b89c4628)"><g clip-path="url(#0d2eb65375)"><path fill="#fabe12" d="M 448.1875 399.222656 L 501.417969 399.222656 L 501.417969 442.074219 L 448.1875 442.074219 Z M 448.1875 399.222656 " fill-opacity="1" fill-rule="nonzero"/></g></g><g clip-path="url(#a7342cc2bf)"><g clip-path="url(#28be416a99)"><path fill="#fabe12" d="M 517.164062 399.222656 L 570.398438 399.222656 L 570.398438 442.074219 L 517.164062 442.074219 Z M 517.164062 399.222656 " fill-opacity="1" fill-rule="nonzero"/></g></g><g clip-path="url(#402ecb5cb9)"><g clip-path="url(#33959fff86)"><path fill="#fabe12" d="M 241.0625 454.074219 L 294.296875 454.074219 L 294.296875 496.929688 L 241.0625 496.929688 Z M 241.0625 454.074219 " fill-opacity="1" fill-rule="nonzero"/></g></g><g clip-path="url(#5b6fa71bb5)"><g clip-path="url(#5d032a1b3e)"><path fill="#fabe12" d="M 310.167969 454.074219 L 363.402344 454.074219 L 363.402344 496.929688 L 310.167969 496.929688 Z M 310.167969 454.074219 " fill-opacity="1" fill-rule="nonzero"/></g></g><g clip-path="url(#35121655a9)"><g clip-path="url(#4c5d537829)"><path fill="#fabe12" d="M 379.144531 454.074219 L 432.378906 454.074219 L 432.378906 496.929688 L 379.144531 496.929688 Z M 379.144531 454.074219 " fill-opacity="1" fill-rule="nonzero"/></g></g><g clip-path="url(#68ad6b10bb)"><g clip-path="url(#56dfa561ec)"><path fill="#fabe12" d="M 448.121094 454.074219 L 501.355469 454.074219 L 501.355469 496.929688 L 448.121094 496.929688 Z M 448.121094 454.074219 " fill-opacity="1" fill-rule="nonzero"/></g></g><g clip-path="url(#af2e8e3730)"><g clip-path="url(#ddb4a8fd17)"><path fill="#fabe12" d="M 517.101562 454.074219 L 570.332031 454.074219 L 570.332031 496.929688 L 517.101562 496.929688 Z M 517.101562 454.074219 " fill-opacity="1" fill-rule="nonzero"/></g></g><g clip-path="url(#2f826a046c)"><g clip-path="url(#b0704b5098)"><path fill="#fabe12" d="M 241.191406 508.929688 L 294.421875 508.929688 L 294.421875 551.78125 L 241.191406 551.78125 Z M 241.191406 508.929688 " fill-opacity="1" fill-rule="nonzero"/></g></g><g clip-path="url(#0e688b2277)"><g clip-path="url(#ac096f7494)"><path fill="#fabe12" d="M 310.296875 508.929688 L 363.53125 508.929688 L 363.53125 551.78125 L 310.296875 551.78125 Z M 310.296875 508.929688 " fill-opacity="1" fill-rule="nonzero"/></g></g><g clip-path="url(#184b40a5d9)"><g clip-path="url(#1700fa3abc)"><path fill="#fabe12" d="M 379.273438 508.929688 L 432.507812 508.929688 L 432.507812 551.78125 L 379.273438 551.78125 Z M 379.273438 508.929688 " fill-opacity="1" fill-rule="nonzero"/></g></g><g clip-path="url(#8d9f2a48ee)"><g clip-path="url(#3cf0d11bd7)"><path fill="#fabe12" d="M 448.25 508.929688 L 501.484375 508.929688 L 501.484375 551.78125 L 448.25 551.78125 Z M 448.25 508.929688 " fill-opacity="1" fill-rule="nonzero"/></g></g><g clip-path="url(#58b5dbfd54)"><g clip-path="url(#4817954e0b)"><path fill="#fabe12" d="M 517.230469 508.929688 L 570.460938 508.929688 L 570.460938 551.78125 L 517.230469 551.78125 Z M 517.230469 508.929688 " fill-opacity="1" fill-rule="nonzero"/></g></g><g clip-path="url(#8670c95191)"><g clip-path="url(#4c598ae5b6)"><path fill="#fabe12" d="M 541.496094 202.5 L 571.8125 202.5 L 571.8125 277.222656 L 541.496094 277.222656 Z M 541.496094 202.5 " fill-opacity="1" fill-rule="nonzero"/></g></g><g clip-path="url(#4406c1d2b6)"><g clip-path="url(#64f927d42a)"><path fill="#fabe12" d="M 236.714844 202.5 L 267.03125 202.5 L 267.03125 277.222656 L 236.714844 277.222656 Z M 236.714844 202.5 " fill-opacity="1" fill-rule="nonzero"/></g></g><g clip-path="url(#9feb71767c)"><g clip-path="url(#70b582e039)"><g clip-path="url(#e1f24715ef)"><path fill="#dd2e44" d="M 499.359375 382.503906 L 510.003906 389.78125 L 474.460938 441.746094 L 463.816406 434.464844 Z M 499.359375 382.503906 " fill-opacity="1" fill-rule="nonzero"/></g></g></g><g clip-path="url(#3a04b23a20)"><g clip-path="url(#33bfd7c34e)"><g clip-path="url(#9009be9721)"><path fill="#dd2e44" d="M 449.601562 412.394531 L 460.105469 404.910156 L 481.03125 434.28125 L 470.527344 441.761719 Z M 449.601562 412.394531 " fill-opacity="1" fill-rule="nonzero"/></g></g></g><g clip-path="url(#b55705a6c7)"><path fill="#a6a6a6" d="M 187.503906 512.65625 L 202.589844 526.351562 L 202.589844 485.625 Z M 505.667969 223.542969 L 464.941406 223.542969 L 491.96875 208.453125 Z M 505.667969 223.542969 " fill-opacity="1" fill-rule="nonzero"/></g><g clip-path="url(#5af2de9270)"><path fill="#d9d9d9" d="M 187.503906 363.660156 L 187.503906 512.65625 L 491.707031 208.453125 L 342.710938 208.453125 Z M 187.503906 363.660156 " fill-opacity="1" fill-rule="nonzero"/></g><path fill="#d9d9d9" d="M 377.089844 222.960938 C 372.585938 227.46875 372.960938 232.507812 377.683594 237.195312 L 378.605469 238.125 L 382.988281 233.746094 L 381.769531 232.527344 C 379.660156 230.417969 379.699219 228.773438 381.175781 227.300781 C 382.652344 225.832031 384.292969 225.78125 386.402344 227.886719 C 392.464844 233.957031 384.550781 244.152344 392.972656 252.578125 C 397.6875 257.292969 402.746094 257.628906 407.296875 253.078125 C 411.847656 248.53125 411.492188 243.453125 406.789062 238.753906 L 404.980469 236.949219 L 400.597656 241.328125 L 402.703125 243.453125 C 404.808594 245.558594 404.644531 247.269531 403.167969 248.71875 C 401.691406 250.171875 399.984375 250.363281 397.898438 248.257812 C 391.835938 242.191406 399.757812 231.996094 391.332031 223.566406 C 386.609375 218.832031 381.582031 218.449219 377.089844 222.960938 Z M 361.460938 253.835938 L 365.28125 257.65625 C 370.003906 262.371094 374.824219 262.667969 379.476562 258.03125 L 381.671875 255.839844 L 392.765625 266.9375 L 397.394531 262.304688 L 367.910156 232.820312 L 361.082031 239.632812 C 356.449219 244.277344 356.765625 249.121094 361.460938 253.835938 Z M 367.488281 241.664062 L 377.464844 251.648438 L 375.277344 253.835938 C 373.808594 255.3125 372.332031 255.441406 370.226562 253.332031 L 365.769531 248.878906 C 363.664062 246.773438 363.792969 245.296875 365.261719 243.820312 Z M 359.851562 265.761719 L 353.488281 272.125 L 357.703125 276.335938 L 364.066406 269.972656 L 372.675781 278.609375 L 364.671875 286.613281 L 368.855469 290.828125 L 381.496094 278.1875 L 352.007812 248.703125 L 339.371094 261.339844 L 343.582031 265.550781 L 351.605469 257.546875 Z M 341.609375 296.132812 L 345.496094 300.085938 C 350.210938 304.800781 355.269531 305.136719 359.820312 300.585938 C 364.371094 296.039062 364.035156 290.984375 359.3125 286.265625 L 343.976562 270.933594 C 339.261719 266.214844 334.207031 265.84375 329.660156 270.425781 C 325.109375 275.007812 325.445312 280.035156 330.160156 284.75 L 333.023438 287.613281 L 337.410156 283.234375 L 334.226562 280.054688 C 332.121094 277.945312 332.25 276.234375 333.726562 274.746094 C 335.203125 273.257812 336.90625 273.144531 339.03125 275.253906 L 354.941406 291.164062 C 357.046875 293.269531 356.847656 294.980469 355.40625 296.425781 C 353.960938 297.871094 352.222656 298.074219 350.140625 295.96875 L 345.929688 291.753906 Z M 320.292969 280.460938 L 315.660156 285.097656 L 345.148438 314.585938 L 349.765625 309.953125 Z M 326.78125 332.953125 L 331.460938 328.273438 L 326.910156 322.128906 L 332.585938 316.4375 L 338.738281 320.988281 L 342.996094 316.730469 L 308.789062 291.964844 L 302.003906 298.742188 Z M 328.003906 313.027344 L 323.550781 317.480469 L 310.867188 300.339844 Z M 295.144531 305.613281 L 290.511719 310.246094 L 315.789062 335.523438 L 308.152344 343.15625 L 312.363281 347.371094 L 324.601562 335.082031 Z M 281.78125 333.125 C 277.066406 328.402344 271.886719 328.191406 267.335938 332.742188 C 262.789062 337.292969 262.972656 342.472656 267.679688 347.171875 L 283.015625 362.503906 C 287.738281 367.222656 292.917969 367.433594 297.46875 362.882812 C 302.015625 358.335938 301.808594 353.15625 297.085938 348.433594 Z M 292.753906 353.382812 C 294.859375 355.488281 294.730469 357.203125 293.261719 358.691406 C 291.792969 360.179688 290.078125 360.292969 287.953125 358.1875 L 272.046875 342.28125 C 269.941406 340.171875 270.066406 338.460938 271.542969 336.972656 C 273.019531 335.484375 274.726562 335.371094 276.851562 337.476562 Z M 266.089844 360.839844 L 260.109375 366.824219 L 264.320312 371.035156 L 270.300781 365.054688 L 282.476562 377.226562 L 287.109375 372.625 L 257.621094 343.140625 L 245.363281 355.394531 L 249.578125 359.605469 L 257.214844 351.972656 Z M 251.59375 375.332031 L 245.613281 381.3125 L 249.824219 385.523438 L 255.808594 379.542969 L 267.984375 391.714844 L 272.617188 387.082031 L 243.132812 357.597656 L 230.871094 369.851562 L 235.082031 374.066406 L 242.71875 366.429688 Z M 236.429688 389.171875 L 230.066406 395.535156 L 234.285156 399.746094 L 240.648438 393.382812 L 249.285156 402.019531 L 241.28125 410.015625 L 245.492188 414.230469 L 258.136719 401.574219 L 228.648438 372.085938 L 216 384.714844 L 220.210938 388.929688 L 228.226562 380.9375 Z M 232.9375 426.789062 C 232.429688 425.777344 232.136719 425.148438 229.753906 422.75 L 225.117188 418.117188 C 222.378906 415.375 222.296875 413.441406 224.402344 411.335938 L 226 409.730469 L 238.007812 421.738281 L 242.640625 417.105469 L 213.152344 387.617188 L 206.152344 394.617188 C 201.351562 399.421875 201.523438 403.71875 206.070312 408.265625 L 208.386719 410.589844 C 211.421875 413.617188 214.371094 414.628906 217.40625 413.535156 C 216.054688 416.820312 217.53125 419.808594 220.585938 422.890625 L 225.136719 427.441406 C 226.566406 428.871094 227.578125 429.984375 228.210938 431.523438 Z M 212.714844 396.464844 L 221.769531 405.519531 L 219.957031 407.304688 C 218.226562 409.03125 216.410156 409.328125 214.058594 406.96875 L 211.148438 404.0625 C 209.042969 401.953125 208.832031 400.3125 210.476562 398.671875 Z M 212.714844 396.464844 " fill-opacity="1" fill-rule="nonzero"/><g clip-path="url(#09a1f30ff6)"><path fill="#db2f14" d="M 278.082031 327.6875 L 325.035156 350.4375 L 293.28125 415.566406 L 278.976562 384.75 L 246.324219 392.816406 L 278.082031 327.6875 " fill-opacity="1" fill-rule="evenodd"/></g><path fill="#ff430e" d="M 284.957031 331.660156 L 317.691406 346.890625 L 293.703125 396.925781 L 284.421875 374.855469 L 260.382812 381.347656 L 284.957031 331.660156 " fill-opacity="1" fill-rule="evenodd"/><g clip-path="url(#af3a448911)"><path fill="#db2f14" d="M 334.316406 326.671875 L 287.445312 349.589844 L 319.441406 414.605469 L 333.628906 383.738281 L 366.308594 391.683594 L 334.316406 326.671875 " fill-opacity="1" fill-rule="evenodd"/></g><path fill="#ff430e" d="M 327.453125 330.667969 L 294.777344 346.019531 L 318.949219 395.964844 L 328.152344 373.863281 L 352.210938 380.265625 L 327.453125 330.667969 " fill-opacity="1" fill-rule="evenodd"/><g clip-path="url(#107cc2415e)"><path fill="#ffc50d" d="M 306.316406 272.320312 C 331.691406 272.320312 352.289062 292.851562 352.289062 318.144531 C 352.289062 343.433594 331.691406 363.96875 306.316406 363.96875 C 280.945312 363.96875 260.347656 343.433594 260.347656 318.144531 C 260.347656 292.851562 280.945312 272.320312 306.316406 272.320312 " fill-opacity="1" fill-rule="evenodd"/></g><path fill="#f59f0a" d="M 306.316406 282.1875 C 325.886719 282.1875 341.773438 298.296875 341.773438 318.144531 C 341.773438 337.988281 325.886719 354.101562 306.316406 354.101562 C 286.75 354.101562 270.863281 337.988281 270.863281 318.144531 C 270.863281 298.296875 286.75 282.1875 306.316406 282.1875 " fill-opacity="1" fill-rule="evenodd"/><path fill="#faf29f" d="M 303.601562 297.589844 C 304.003906 296.4375 305.09375 295.667969 306.316406 295.667969 C 307.542969 295.667969 308.632812 296.4375 309.035156 297.589844 L 313.234375 309.636719 L 326.023438 309.894531 C 327.246094 309.921875 328.320312 310.714844 328.699219 311.875 C 329.074219 313.035156 328.675781 314.308594 327.699219 315.042969 L 317.507812 322.746094 L 321.210938 334.953125 C 321.566406 336.121094 321.140625 337.382812 320.148438 338.101562 C 319.160156 338.816406 317.824219 338.832031 316.816406 338.132812 L 306.316406 330.851562 L 295.816406 338.132812 C 294.8125 338.832031 293.476562 338.816406 292.488281 338.101562 C 291.496094 337.382812 291.070312 336.121094 291.425781 334.953125 L 295.128906 322.746094 L 284.9375 315.042969 C 283.960938 314.308594 283.5625 313.035156 283.9375 311.875 C 284.316406 310.714844 285.390625 309.921875 286.613281 309.894531 L 299.402344 309.636719 L 303.601562 297.589844 " fill-opacity="1" fill-rule="evenodd"/><path fill="#faf29f" d="M 276.332031 297.351562 C 276.382812 297.195312 276.539062 297.09375 276.710938 297.09375 C 276.886719 297.09375 277.039062 297.195312 277.09375 297.351562 L 278.554688 301.710938 L 283.292969 303.058594 C 283.457031 303.105469 283.570312 303.246094 283.570312 303.40625 C 283.570312 303.566406 283.457031 303.707031 283.292969 303.757812 L 278.554688 305.101562 L 277.09375 309.460938 C 277.039062 309.613281 276.886719 309.71875 276.710938 309.71875 C 276.539062 309.71875 276.382812 309.613281 276.332031 309.460938 L 274.871094 305.101562 L 270.132812 303.757812 C 269.96875 303.707031 269.851562 303.566406 269.851562 303.40625 C 269.851562 303.246094 269.96875 303.105469 270.132812 303.058594 L 274.871094 301.710938 L 276.332031 297.351562 " fill-opacity="1" fill-rule="evenodd"/><path fill="#faf29f" d="M 334.421875 332.414062 C 334.476562 332.257812 334.632812 332.152344 334.808594 332.152344 C 334.984375 332.152344 335.140625 332.257812 335.195312 332.414062 L 336.679688 336.839844 L 341.484375 338.207031 C 341.652344 338.253906 341.769531 338.398438 341.769531 338.558594 C 341.769531 338.722656 341.652344 338.867188 341.484375 338.914062 L 336.679688 340.28125 L 335.195312 344.707031 C 335.140625 344.859375 334.984375 344.96875 334.808594 344.96875 C 334.632812 344.96875 334.476562 344.859375 334.421875 344.707031 L 332.9375 340.28125 L 328.132812 338.914062 C 327.960938 338.867188 327.847656 338.722656 327.847656 338.558594 C 327.847656 338.398438 327.960938 338.253906 328.132812 338.207031 L 332.9375 336.839844 L 334.421875 332.414062 " fill-opacity="1" fill-rule="evenodd"/><path fill="#faf29f" d="M 269.46875 306.3125 C 269.503906 306.207031 269.605469 306.140625 269.722656 306.140625 C 269.839844 306.140625 269.945312 306.207031 269.980469 306.3125 L 270.960938 309.238281 L 274.136719 310.140625 C 274.25 310.171875 274.328125 310.265625 274.328125 310.375 C 274.328125 310.484375 274.25 310.578125 274.136719 310.609375 L 270.960938 311.511719 L 269.980469 314.4375 C 269.945312 314.542969 269.839844 314.613281 269.722656 314.613281 C 269.605469 314.613281 269.503906 314.542969 269.46875 314.4375 L 268.488281 311.511719 L 265.308594 310.609375 C 265.195312 310.578125 265.121094 310.484375 265.121094 310.375 C 265.121094 310.265625 265.195312 310.171875 265.308594 310.140625 L 268.488281 309.238281 L 269.46875 306.3125 " fill-opacity="1" fill-rule="evenodd"/><path fill="#faf29f" d="M 341.285156 325.132812 C 341.320312 325.019531 341.433594 324.941406 341.5625 324.941406 C 341.691406 324.941406 341.804688 325.019531 341.84375 325.132812 L 342.921875 328.339844 L 346.40625 329.332031 C 346.527344 329.367188 346.609375 329.46875 346.609375 329.589844 C 346.609375 329.707031 346.527344 329.8125 346.40625 329.847656 L 342.921875 330.835938 L 341.84375 334.042969 C 341.804688 334.15625 341.691406 334.234375 341.5625 334.234375 C 341.433594 334.234375 341.320312 334.15625 341.285156 334.042969 L 340.207031 330.835938 L 336.722656 329.847656 C 336.601562 329.8125 336.515625 329.707031 336.515625 329.589844 C 336.515625 329.46875 336.601562 329.367188 336.722656 329.332031 L 340.207031 328.339844 L 341.285156 325.132812 " fill-opacity="1" fill-rule="evenodd"/></svg>