<svg xmlns="http://www.w3.org/2000/svg" xmlns:xlink="http://www.w3.org/1999/xlink" width="1080" zoomAndPan="magnify" viewBox="0 0 810 809.999993" height="1080" preserveAspectRatio="xMidYMid meet" version="1.0"><defs><clipPath id="5a8fe546a2"><path d="M 184.554688 194.042969 L 568 194.042969 L 568 561.203125 L 184.554688 561.203125 Z M 184.554688 194.042969 " clip-rule="nonzero"/></clipPath><clipPath id="1b73156c28"><path d="M 376.382812 194.042969 C 270.4375 194.042969 184.554688 276.234375 184.554688 377.625 C 184.554688 479.011719 270.4375 561.203125 376.382812 561.203125 C 482.324219 561.203125 568.207031 479.011719 568.207031 377.625 C 568.207031 276.234375 482.324219 194.042969 376.382812 194.042969 Z M 376.382812 194.042969 " clip-rule="nonzero"/></clipPath><clipPath id="cd4f8e3ca7"><path d="M 384 565 L 471 565 L 471 629 L 384 629 Z M 384 565 " clip-rule="nonzero"/></clipPath><clipPath id="d3089001c1"><path d="M 478.738281 611.074219 L 394.320312 638.832031 L 375.816406 582.554688 L 460.230469 554.796875 Z M 478.738281 611.074219 " clip-rule="nonzero"/></clipPath><clipPath id="d5c85c3c94"><path d="M 436.625 624.921875 C 459.882812 617.273438 474.59375 598.476562 469.484375 582.933594 C 464.375 567.394531 441.378906 560.996094 418.121094 568.644531 C 394.859375 576.289062 380.148438 595.089844 385.257812 610.628906 C 390.371094 626.167969 413.367188 632.566406 436.625 624.921875 Z M 436.625 624.921875 " clip-rule="nonzero"/></clipPath><clipPath id="adbb21a9b9"><path d="M 407 565 L 495 565 L 495 627 L 407 627 Z M 407 565 " clip-rule="nonzero"/></clipPath><clipPath id="94bd3dede7"><path d="M 488.316406 634.015625 L 401.277344 616.105469 L 413.21875 558.078125 L 500.257812 575.988281 Z M 488.316406 634.015625 " clip-rule="nonzero"/></clipPath><clipPath id="cd8424d1b2"><path d="M 444.894531 625.082031 C 468.875 630.015625 490.988281 621.027344 494.285156 605.003906 C 497.585938 588.980469 480.816406 571.988281 456.835938 567.054688 C 432.855469 562.121094 410.742188 571.109375 407.445312 587.132812 C 404.148438 603.15625 420.914062 620.144531 444.894531 625.082031 Z M 444.894531 625.082031 " clip-rule="nonzero"/></clipPath><clipPath id="257c03be4c"><path d="M 259 566 L 347 566 L 347 629 L 259 629 Z M 259 566 " clip-rule="nonzero"/></clipPath><clipPath id="8caec9d5d9"><path d="M 353.15625 614.335938 L 267.4375 637.765625 L 251.816406 580.621094 L 337.535156 557.191406 Z M 353.15625 614.335938 " clip-rule="nonzero"/></clipPath><clipPath id="bf25cf139b"><path d="M 310.394531 626.023438 C 334.011719 619.570312 349.660156 601.542969 345.34375 585.761719 C 341.03125 569.984375 318.390625 562.421875 294.773438 568.878906 C 271.15625 575.332031 255.507812 593.359375 259.820312 609.140625 C 264.132812 624.917969 286.777344 632.480469 310.394531 626.023438 Z M 310.394531 626.023438 " clip-rule="nonzero"/></clipPath><clipPath id="ff3008e00f"><path d="M 282 567 L 370 567 L 370 629 L 282 629 Z M 282 567 " clip-rule="nonzero"/></clipPath><clipPath id="5595619cdd"><path d="M 361.554688 637.734375 L 275.539062 615.421875 L 290.414062 558.078125 L 376.429688 580.390625 Z M 361.554688 637.734375 " clip-rule="nonzero"/></clipPath><clipPath id="1472870da9"><path d="M 318.644531 626.605469 C 342.34375 632.753906 364.886719 624.898438 368.992188 609.0625 C 373.101562 593.230469 357.21875 575.410156 333.519531 569.261719 C 309.820312 563.113281 287.28125 570.964844 283.171875 586.800781 C 279.066406 602.636719 294.945312 620.457031 318.644531 626.605469 Z M 318.644531 626.605469 " clip-rule="nonzero"/></clipPath><clipPath id="29280dab79"><path d="M 248.089844 321.082031 L 511 321.082031 L 511 544.917969 L 248.089844 544.917969 Z M 248.089844 321.082031 " clip-rule="nonzero"/></clipPath><clipPath id="b723fd74cd"><path d="M 379.398438 321.082031 C 306.878906 321.082031 248.089844 371.191406 248.089844 433 C 248.089844 494.808594 306.878906 544.917969 379.398438 544.917969 C 451.921875 544.917969 510.710938 494.808594 510.710938 433 C 510.710938 371.191406 451.921875 321.082031 379.398438 321.082031 Z M 379.398438 321.082031 " clip-rule="nonzero"/></clipPath><clipPath id="717c9dd43a"><path d="M 278.601562 264.542969 L 366.824219 264.542969 L 366.824219 377.921875 L 278.601562 377.921875 Z M 278.601562 264.542969 " clip-rule="nonzero"/></clipPath><clipPath id="085d92c12a"><path d="M 322.710938 264.542969 C 334.410156 264.542969 345.632812 269.191406 353.902344 277.464844 C 362.175781 285.738281 366.824219 296.957031 366.824219 308.65625 L 366.824219 333.511719 C 366.824219 345.210938 362.175781 356.429688 353.902344 364.703125 C 345.632812 372.976562 334.410156 377.625 322.710938 377.625 C 311.015625 377.625 299.792969 372.976562 291.523438 364.703125 C 283.25 356.429688 278.601562 345.210938 278.601562 333.511719 L 278.601562 308.65625 C 278.601562 296.957031 283.25 285.738281 291.523438 277.464844 C 299.792969 269.191406 311.015625 264.542969 322.710938 264.542969 Z M 322.710938 264.542969 " clip-rule="nonzero"/></clipPath><clipPath id="b66794b9ed"><path d="M 385.9375 264.542969 L 474.160156 264.542969 L 474.160156 377.921875 L 385.9375 377.921875 Z M 385.9375 264.542969 " clip-rule="nonzero"/></clipPath><clipPath id="bbc088ddbc"><path d="M 430.050781 264.542969 C 441.746094 264.542969 452.96875 269.191406 461.238281 277.464844 C 469.511719 285.738281 474.160156 296.957031 474.160156 308.65625 L 474.160156 333.511719 C 474.160156 345.210938 469.511719 356.429688 461.238281 364.703125 C 452.96875 372.976562 441.746094 377.625 430.050781 377.625 C 418.351562 377.625 407.128906 372.976562 398.859375 364.703125 C 390.585938 356.429688 385.9375 345.210938 385.9375 333.511719 L 385.9375 308.65625 C 385.9375 296.957031 390.585938 285.738281 398.859375 277.464844 C 407.128906 269.191406 418.351562 264.542969 430.050781 264.542969 Z M 430.050781 264.542969 " clip-rule="nonzero"/></clipPath><clipPath id="0ae8384f00"><path d="M 404.828125 287.542969 L 455.269531 287.542969 L 455.269531 357.292969 L 404.828125 357.292969 Z M 404.828125 287.542969 " clip-rule="nonzero"/></clipPath><clipPath id="c353a7ccb2"><path d="M 430.046875 287.542969 C 436.738281 287.542969 443.152344 290.199219 447.882812 294.929688 C 452.613281 299.660156 455.269531 306.074219 455.269531 312.761719 L 455.269531 331.898438 C 455.269531 338.585938 452.613281 345 447.882812 349.730469 C 443.152344 354.460938 436.738281 357.117188 430.046875 357.117188 C 423.359375 357.117188 416.945312 354.460938 412.214844 349.730469 C 407.484375 345 404.828125 338.585938 404.828125 331.898438 L 404.828125 312.761719 C 404.828125 306.074219 407.484375 299.660156 412.214844 294.929688 C 416.945312 290.199219 423.359375 287.542969 430.046875 287.542969 Z M 430.046875 287.542969 " clip-rule="nonzero"/></clipPath><clipPath id="db346ab0bc"><path d="M 426.054688 287.542969 L 448.503906 287.542969 L 448.503906 313.238281 L 426.054688 313.238281 Z M 426.054688 287.542969 " clip-rule="nonzero"/></clipPath><clipPath id="244ae87d1e"><path d="M 437.277344 287.542969 C 443.480469 287.542969 448.503906 292.566406 448.503906 298.765625 L 448.503906 302 C 448.503906 308.203125 443.480469 313.226562 437.277344 313.226562 C 431.078125 313.226562 426.054688 308.203125 426.054688 302 L 426.054688 298.765625 C 426.054688 292.566406 431.078125 287.542969 437.277344 287.542969 Z M 437.277344 287.542969 " clip-rule="nonzero"/></clipPath><clipPath id="a62fba9663"><path d="M 295.875 286.296875 L 346.320312 286.296875 L 346.320312 356 L 295.875 356 Z M 295.875 286.296875 " clip-rule="nonzero"/></clipPath><clipPath id="d96373b856"><path d="M 321.097656 286.296875 C 327.789062 286.296875 334.203125 288.953125 338.933594 293.683594 C 343.664062 298.414062 346.320312 304.828125 346.320312 311.515625 L 346.320312 330.648438 C 346.320312 337.339844 343.664062 343.753906 338.933594 348.484375 C 334.203125 353.214844 327.789062 355.871094 321.097656 355.871094 C 314.410156 355.871094 307.992188 353.214844 303.265625 348.484375 C 298.535156 343.753906 295.875 337.339844 295.875 330.648438 L 295.875 311.515625 C 295.875 304.828125 298.535156 298.414062 303.265625 293.683594 C 307.992188 288.953125 314.410156 286.296875 321.097656 286.296875 Z M 321.097656 286.296875 " clip-rule="nonzero"/></clipPath><clipPath id="199bfaa81e"><path d="M 319.308594 286.292969 L 341.761719 286.292969 L 341.761719 311.992188 L 319.308594 311.992188 Z M 319.308594 286.292969 " clip-rule="nonzero"/></clipPath><clipPath id="a08472e79c"><path d="M 330.535156 286.292969 C 336.734375 286.292969 341.761719 291.320312 341.761719 297.519531 L 341.761719 300.753906 C 341.761719 306.957031 336.734375 311.980469 330.535156 311.980469 C 324.335938 311.980469 319.308594 306.957031 319.308594 300.753906 L 319.308594 297.519531 C 319.308594 291.320312 324.335938 286.292969 330.535156 286.292969 Z M 330.535156 286.292969 " clip-rule="nonzero"/></clipPath><clipPath id="fa93aa94b6"><path d="M 345.371094 374.117188 L 426.371094 374.117188 L 426.371094 409.789062 L 345.371094 409.789062 Z M 345.371094 374.117188 " clip-rule="nonzero"/></clipPath><clipPath id="db140f8fb7"><path d="M 334.261719 330.71875 L 437.011719 330.71875 L 437.011719 380.96875 L 334.261719 380.96875 Z M 334.261719 330.71875 " clip-rule="nonzero"/></clipPath><clipPath id="9fe29ecc21"><path d="M 399.144531 340.335938 L 418.898438 340.335938 L 418.898438 356.761719 L 399.144531 356.761719 Z M 399.144531 340.335938 " clip-rule="nonzero"/></clipPath><clipPath id="00e9a6b7a3"><path d="M 404.019531 340.511719 C 410.816406 343.539062 413.558594 345.402344 415.25 346.972656 C 416.609375 348.238281 417.921875 349.859375 418.445312 350.835938 C 418.710938 351.339844 418.78125 351.671875 418.828125 352.101562 C 418.875 352.53125 418.851562 352.984375 418.757812 353.414062 C 418.660156 353.84375 418.519531 354.269531 418.304688 354.652344 C 418.089844 355.035156 417.804688 355.367188 417.46875 355.65625 C 417.136719 355.941406 416.753906 356.179688 416.347656 356.347656 C 415.941406 356.511719 415.488281 356.632812 415.0625 356.65625 C 414.632812 356.679688 414.179688 356.65625 413.75 356.535156 C 413.34375 356.417969 412.914062 356.25 412.558594 356.011719 C 412.199219 355.773438 411.839844 355.441406 411.578125 355.105469 C 411.316406 354.773438 411.101562 354.367188 410.960938 353.960938 C 410.816406 353.554688 410.71875 353.101562 410.71875 352.671875 C 410.71875 352.246094 410.769531 351.765625 410.910156 351.363281 C 411.054688 350.957031 411.246094 350.527344 411.507812 350.195312 C 411.769531 349.835938 412.105469 349.527344 412.460938 349.289062 C 412.820312 349.050781 413.222656 348.835938 413.628906 348.714844 C 414.035156 348.597656 414.511719 348.523438 414.941406 348.546875 C 415.371094 348.570312 415.824219 348.667969 416.230469 348.8125 C 416.632812 348.976562 417.039062 349.191406 417.375 349.476562 C 417.707031 349.742188 418.019531 350.097656 418.230469 350.457031 C 418.46875 350.8125 418.636719 351.242188 418.734375 351.671875 C 418.828125 352.101562 418.875 352.554688 418.828125 352.984375 C 418.78125 353.414062 418.660156 353.867188 418.496094 354.246094 C 418.328125 354.652344 418.066406 355.035156 417.777344 355.34375 C 417.492188 355.65625 417.136719 355.941406 416.753906 356.15625 C 416.371094 356.371094 415.941406 356.535156 415.515625 356.609375 C 415.085938 356.679688 414.632812 356.703125 414.203125 356.632812 C 413.773438 356.5625 413.320312 356.417969 412.9375 356.226562 C 412.558594 356.035156 412.269531 355.820312 411.890625 355.441406 C 411.269531 354.820312 410.695312 353.675781 409.695312 352.722656 C 408.191406 351.289062 404.925781 348.976562 403.304688 348.144531 C 402.421875 347.691406 401.660156 347.667969 401.132812 347.378906 C 400.800781 347.214844 400.609375 347.046875 400.394531 346.832031 C 400.179688 346.617188 399.988281 346.449219 399.824219 346.140625 C 399.585938 345.710938 399.296875 345.019531 399.25 344.445312 C 399.203125 343.875 399.371094 343.113281 399.535156 342.660156 C 399.65625 342.324219 399.773438 342.132812 399.988281 341.871094 C 400.300781 341.488281 400.945312 340.988281 401.371094 340.75 C 401.683594 340.582031 401.898438 340.488281 402.230469 340.441406 C 402.707031 340.367188 404.019531 340.511719 404.019531 340.511719 " clip-rule="nonzero"/></clipPath><clipPath id="92863ffd20"><path d="M 418.011719 361.46875 L 425.292969 361.46875 L 425.292969 368.964844 L 418.011719 368.964844 Z M 418.011719 361.46875 " clip-rule="nonzero"/></clipPath><clipPath id="def24600e2"><path d="M 425.289062 364.144531 C 425.289062 366.457031 425.027344 367.050781 424.671875 367.503906 C 424.3125 367.957031 423.8125 368.363281 423.289062 368.601562 C 422.761719 368.839844 422.121094 368.9375 421.546875 368.914062 C 420.972656 368.890625 420.355469 368.675781 419.855469 368.386719 C 419.351562 368.101562 418.875 367.625 418.589844 367.148438 C 418.28125 366.648438 418.089844 366.027344 418.066406 365.453125 C 418.042969 364.882812 418.160156 364.238281 418.398438 363.714844 C 418.636719 363.191406 419.019531 362.6875 419.472656 362.332031 C 419.925781 361.972656 420.523438 361.6875 421.09375 361.59375 C 421.667969 361.496094 422.308594 361.542969 422.859375 361.710938 C 423.40625 361.878906 424.382812 362.617188 424.382812 362.617188 " clip-rule="nonzero"/></clipPath><clipPath id="f818f46c52"><path d="M 372 138.085938 L 404 138.085938 L 404 172 L 372 172 Z M 372 138.085938 " clip-rule="nonzero"/></clipPath><clipPath id="2889fdc53d"><path d="M 127 399 L 180 399 L 180 464 L 127 464 Z M 127 399 " clip-rule="nonzero"/></clipPath><clipPath id="867c36de86"><path d="M 122.6875 458.488281 L 133.824219 395.242188 L 184.578125 404.175781 L 173.441406 467.421875 Z M 122.6875 458.488281 " clip-rule="nonzero"/></clipPath><clipPath id="d5fa366c35"><path d="M 128.246094 426.921875 C 125.175781 444.355469 134.050781 460.488281 148.066406 462.953125 C 162.082031 465.421875 175.929688 453.289062 179 435.859375 C 182.070312 418.425781 173.195312 402.296875 159.179688 399.828125 C 145.164062 397.359375 131.3125 409.492188 128.246094 426.921875 Z M 128.246094 426.921875 " clip-rule="nonzero"/></clipPath><clipPath id="f70ae59d57"><path d="M 429 179 L 579 179 L 579 371 L 429 371 Z M 429 179 " clip-rule="nonzero"/></clipPath><clipPath id="47487d8b37"><path d="M 484.214844 394.601562 L 400.59375 211.367188 L 523.710938 155.179688 L 607.332031 338.414062 Z M 484.214844 394.601562 " clip-rule="nonzero"/></clipPath><clipPath id="fd7921be2d"><path d="M 442.414062 303.003906 C 465.5 353.589844 511.777344 382.023438 545.773438 366.507812 C 579.773438 350.992188 588.617188 297.402344 565.53125 246.816406 C 542.445312 196.230469 496.167969 167.796875 462.171875 183.3125 C 428.171875 198.828125 419.328125 252.417969 442.414062 303.003906 Z M 442.414062 303.003906 " clip-rule="nonzero"/></clipPath><clipPath id="b54b8fb5a3"><path d="M 510 397 L 678 397 L 678 599 L 510 599 Z M 510 397 " clip-rule="nonzero"/></clipPath><clipPath id="c242803944"><path d="M 561.238281 381.304688 L 693.644531 567.609375 L 626.847656 615.082031 L 494.441406 428.777344 Z M 561.238281 381.304688 " clip-rule="nonzero"/></clipPath><clipPath id="f42ddf4128"><path d="M 584.976562 414.703125 L 669.867188 534.152344 C 682.976562 552.597656 678.652344 578.179688 660.207031 591.289062 C 641.761719 604.398438 616.179688 600.074219 603.070312 581.628906 L 518.179688 462.175781 C 505.070312 443.730469 509.394531 418.152344 527.839844 405.042969 C 546.285156 391.933594 571.867188 396.257812 584.976562 414.703125 Z M 584.976562 414.703125 " clip-rule="nonzero"/></clipPath><clipPath id="74ba8fe66c"><path d="M 533 436 L 619 436 L 619 509 L 533 509 Z M 533 436 " clip-rule="nonzero"/></clipPath><clipPath id="a9d17bbed7"><path d="M 600.390625 436.445312 L 618.15625 461.441406 L 551.269531 508.976562 L 533.503906 483.980469 Z M 600.390625 436.445312 " clip-rule="nonzero"/></clipPath><clipPath id="69e5d4f532"><path d="M 600.390625 436.445312 L 618.15625 461.441406 L 551.359375 508.914062 L 533.59375 483.917969 Z M 600.390625 436.445312 " clip-rule="nonzero"/></clipPath><clipPath id="faeff2cde7"><path d="M 309 161 L 615 161 L 615 466 L 309 466 Z M 309 161 " clip-rule="nonzero"/></clipPath><clipPath id="c9251e506d"><path d="M 337.472656 138.085938 L 636.96875 188.734375 L 586.320312 488.234375 L 286.824219 437.582031 Z M 337.472656 138.085938 " clip-rule="nonzero"/></clipPath><clipPath id="6e4407120c"><path d="M 337.472656 138.085938 L 637.292969 188.789062 L 586.589844 488.609375 L 286.769531 437.90625 Z M 337.472656 138.085938 " clip-rule="nonzero"/></clipPath><clipPath id="f0fd4a0092"><path d="M 487.382812 163.4375 C 404.589844 149.4375 326.121094 205.203125 312.121094 287.996094 C 298.117188 370.789062 353.886719 449.257812 436.679688 463.257812 C 519.472656 477.261719 597.941406 421.492188 611.941406 338.699219 C 625.941406 255.90625 570.175781 177.4375 487.382812 163.4375 Z M 487.382812 163.4375 " clip-rule="nonzero"/></clipPath><clipPath id="0c4fc17977"><path d="M 565 379 L 628 379 L 628 435 L 565 435 Z M 565 379 " clip-rule="nonzero"/></clipPath><clipPath id="4f42d4d3fd"><path d="M 556.023438 397.523438 L 613.976562 369.855469 L 636.179688 416.363281 L 578.226562 444.027344 Z M 556.023438 397.523438 " clip-rule="nonzero"/></clipPath><clipPath id="4f678e8833"><path d="M 584.945312 383.714844 C 568.972656 391.339844 560.992188 407.933594 567.125 420.773438 C 573.257812 433.617188 591.175781 437.847656 607.148438 430.222656 C 623.121094 422.597656 631.097656 406.003906 624.96875 393.160156 C 618.835938 380.316406 600.917969 376.089844 584.945312 383.714844 Z M 584.945312 383.714844 " clip-rule="nonzero"/></clipPath><clipPath id="65532f92de"><path d="M 373.789062 231.851562 L 500.765625 231.851562 L 500.765625 395 L 373.789062 395 Z M 373.789062 231.851562 " clip-rule="nonzero"/></clipPath><clipPath id="02508a2ca4"><path d="M 437.277344 231.851562 C 454.117188 231.851562 470.265625 238.539062 482.171875 250.445312 C 494.078125 262.351562 500.765625 278.5 500.765625 295.339844 L 500.765625 331.117188 C 500.765625 347.957031 494.078125 364.105469 482.171875 376.011719 C 470.265625 387.917969 454.117188 394.605469 437.277344 394.605469 C 420.4375 394.605469 404.289062 387.917969 392.382812 376.011719 C 380.476562 364.105469 373.789062 347.957031 373.789062 331.117188 L 373.789062 295.339844 C 373.789062 278.5 380.476562 262.351562 392.382812 250.445312 C 404.289062 238.539062 420.4375 231.851562 437.277344 231.851562 Z M 437.277344 231.851562 " clip-rule="nonzero"/></clipPath><clipPath id="8bfaef12d8"><path d="M 400.976562 264.953125 L 473.578125 264.953125 L 473.578125 365.347656 L 400.976562 365.347656 Z M 400.976562 264.953125 " clip-rule="nonzero"/></clipPath><clipPath id="3d6cc54ffa"><path d="M 437.277344 264.953125 C 446.90625 264.953125 456.136719 268.777344 462.945312 275.585938 C 469.753906 282.390625 473.578125 291.625 473.578125 301.253906 L 473.578125 328.792969 C 473.578125 338.417969 469.753906 347.652344 462.945312 354.460938 C 456.136719 361.269531 446.90625 365.09375 437.277344 365.09375 C 427.648438 365.09375 418.417969 361.269531 411.609375 354.460938 C 404.800781 347.652344 400.976562 338.417969 400.976562 328.792969 L 400.976562 301.253906 C 400.976562 291.625 404.800781 282.390625 411.609375 275.585938 C 418.417969 268.777344 427.648438 264.953125 437.277344 264.953125 Z M 437.277344 264.953125 " clip-rule="nonzero"/></clipPath><clipPath id="b551d9b1c8"><path d="M 431.523438 264.953125 L 463.839844 264.953125 L 463.839844 301.9375 L 431.523438 301.9375 Z M 431.523438 264.953125 " clip-rule="nonzero"/></clipPath><clipPath id="f83d6a7e70"><path d="M 447.683594 264.953125 C 456.605469 264.953125 463.839844 272.1875 463.839844 281.109375 L 463.839844 285.765625 C 463.839844 294.6875 456.605469 301.921875 447.683594 301.921875 C 438.757812 301.921875 431.523438 294.6875 431.523438 285.765625 L 431.523438 281.109375 C 431.523438 272.1875 438.757812 264.953125 447.683594 264.953125 Z M 447.683594 264.953125 " clip-rule="nonzero"/></clipPath></defs><g clip-path="url(#5a8fe546a2)"><g clip-path="url(#1b73156c28)"><path fill="#f8c038" d="M 184.554688 194.042969 L 567.492188 194.042969 L 567.492188 561.203125 L 184.554688 561.203125 Z M 184.554688 194.042969 " fill-opacity="1" fill-rule="nonzero"/></g></g><g clip-path="url(#cd4f8e3ca7)"><g clip-path="url(#d3089001c1)"><g clip-path="url(#d5c85c3c94)"><path fill="#f09020" d="M 478.738281 611.074219 L 394.539062 638.757812 L 376.035156 582.480469 L 460.230469 554.796875 Z M 478.738281 611.074219 " fill-opacity="1" fill-rule="nonzero"/></g></g></g><g clip-path="url(#adbb21a9b9)"><g clip-path="url(#94bd3dede7)"><g clip-path="url(#cd8424d1b2)"><path fill="#f09020" d="M 488.316406 634.015625 L 401.503906 616.152344 L 413.445312 558.125 L 500.257812 575.988281 Z M 488.316406 634.015625 " fill-opacity="1" fill-rule="nonzero"/></g></g></g><g clip-path="url(#257c03be4c)"><g clip-path="url(#8caec9d5d9)"><g clip-path="url(#bf25cf139b)"><path fill="#f09020" d="M 353.15625 614.335938 L 267.660156 637.703125 L 252.039062 580.558594 L 337.535156 557.191406 Z M 353.15625 614.335938 " fill-opacity="1" fill-rule="nonzero"/></g></g></g><g clip-path="url(#ff3008e00f)"><g clip-path="url(#5595619cdd)"><g clip-path="url(#1472870da9)"><path fill="#f09020" d="M 361.554688 637.734375 L 275.761719 615.480469 L 290.640625 558.136719 L 376.429688 580.390625 Z M 361.554688 637.734375 " fill-opacity="1" fill-rule="nonzero"/></g></g></g><g clip-path="url(#29280dab79)"><g clip-path="url(#b723fd74cd)"><path fill="#fddc66" d="M 248.089844 321.082031 L 510.394531 321.082031 L 510.394531 544.917969 L 248.089844 544.917969 Z M 248.089844 321.082031 " fill-opacity="1" fill-rule="nonzero"/></g></g><g clip-path="url(#717c9dd43a)"><g clip-path="url(#085d92c12a)"><path fill="#ffffff" d="M 278.601562 264.542969 L 366.824219 264.542969 L 366.824219 377.578125 L 278.601562 377.578125 Z M 278.601562 264.542969 " fill-opacity="1" fill-rule="nonzero"/></g></g><g clip-path="url(#b66794b9ed)"><g clip-path="url(#bbc088ddbc)"><path fill="#ffffff" d="M 385.9375 264.542969 L 474.160156 264.542969 L 474.160156 377.578125 L 385.9375 377.578125 Z M 385.9375 264.542969 " fill-opacity="1" fill-rule="nonzero"/></g></g><g clip-path="url(#0ae8384f00)"><g clip-path="url(#c353a7ccb2)"><path fill="#4b4b4b" d="M 404.828125 287.542969 L 455.269531 287.542969 L 455.269531 357.097656 L 404.828125 357.097656 Z M 404.828125 287.542969 " fill-opacity="1" fill-rule="nonzero"/></g></g><g clip-path="url(#db346ab0bc)"><g clip-path="url(#244ae87d1e)"><path fill="#ffffff" d="M 426.054688 287.542969 L 448.503906 287.542969 L 448.503906 313.238281 L 426.054688 313.238281 Z M 426.054688 287.542969 " fill-opacity="1" fill-rule="nonzero"/></g></g><g clip-path="url(#a62fba9663)"><g clip-path="url(#d96373b856)"><path fill="#4b4b4b" d="M 295.875 286.296875 L 346.320312 286.296875 L 346.320312 355.851562 L 295.875 355.851562 Z M 295.875 286.296875 " fill-opacity="1" fill-rule="nonzero"/></g></g><g clip-path="url(#199bfaa81e)"><g clip-path="url(#a08472e79c)"><path fill="#ffffff" d="M 319.308594 286.292969 L 341.761719 286.292969 L 341.761719 311.992188 L 319.308594 311.992188 Z M 319.308594 286.292969 " fill-opacity="1" fill-rule="nonzero"/></g></g><g clip-path="url(#fa93aa94b6)"><path fill="#f86018" d="M 426.640625 369.421875 C 426.640625 370.753906 426.578125 372.082031 426.445312 373.40625 C 426.316406 374.730469 426.121094 376.042969 425.863281 377.347656 C 425.601562 378.65625 425.277344 379.945312 424.894531 381.21875 C 424.507812 382.492188 424.058594 383.742188 423.550781 384.972656 C 423.039062 386.203125 422.472656 387.402344 421.84375 388.578125 C 421.21875 389.75 420.535156 390.890625 419.792969 391.996094 C 419.054688 393.105469 418.261719 394.171875 417.417969 395.199219 C 416.574219 396.230469 415.683594 397.214844 414.742188 398.15625 C 413.800781 399.097656 412.816406 399.988281 411.785156 400.832031 C 410.757812 401.675781 409.691406 402.46875 408.582031 403.207031 C 407.476562 403.949219 406.335938 404.632812 405.164062 405.257812 C 403.988281 405.886719 402.789062 406.453125 401.558594 406.964844 C 400.328125 407.472656 399.078125 407.921875 397.804688 408.308594 C 396.53125 408.695312 395.242188 409.015625 393.933594 409.277344 C 392.628906 409.535156 391.316406 409.730469 389.992188 409.859375 C 388.667969 409.992188 387.339844 410.058594 386.007812 410.058594 C 384.675781 410.058594 383.347656 409.992188 382.023438 409.859375 C 380.699219 409.730469 379.386719 409.535156 378.082031 409.277344 C 376.773438 409.015625 375.484375 408.695312 374.210938 408.308594 C 372.9375 407.921875 371.6875 407.472656 370.457031 406.964844 C 369.226562 406.453125 368.027344 405.886719 366.851562 405.257812 C 365.679688 404.632812 364.539062 403.949219 363.433594 403.207031 C 362.324219 402.46875 361.257812 401.675781 360.230469 400.832031 C 359.199219 399.988281 358.214844 399.097656 357.273438 398.15625 C 356.332031 397.214844 355.441406 396.230469 354.597656 395.199219 C 353.753906 394.171875 352.960938 393.105469 352.222656 391.996094 C 351.480469 390.890625 350.796875 389.75 350.171875 388.578125 C 349.542969 387.402344 348.976562 386.203125 348.464844 384.972656 C 347.957031 383.742188 347.507812 382.492188 347.121094 381.21875 C 346.738281 379.945312 346.414062 378.65625 346.152344 377.347656 C 345.894531 376.042969 345.699219 374.730469 345.570312 373.40625 C 345.4375 372.082031 345.371094 370.753906 345.371094 369.421875 C 345.371094 368.089844 345.4375 366.761719 345.570312 365.4375 C 345.699219 364.113281 345.894531 362.800781 346.152344 361.496094 C 346.414062 360.1875 346.738281 358.898438 347.121094 357.625 C 347.507812 356.351562 347.957031 355.101562 348.464844 353.871094 C 348.976562 352.640625 349.542969 351.441406 350.171875 350.265625 C 350.796875 349.09375 351.480469 347.953125 352.222656 346.847656 C 352.960938 345.738281 353.753906 344.671875 354.597656 343.644531 C 355.441406 342.613281 356.332031 341.628906 357.273438 340.6875 C 358.214844 339.746094 359.199219 338.855469 360.230469 338.011719 C 361.257812 337.167969 362.324219 336.375 363.433594 335.636719 C 364.539062 334.894531 365.679688 334.210938 366.851562 333.585938 C 368.027344 332.957031 369.226562 332.390625 370.457031 331.878906 C 371.6875 331.371094 372.9375 330.921875 374.210938 330.535156 C 375.484375 330.152344 376.773438 329.828125 378.082031 329.566406 C 379.386719 329.308594 380.699219 329.113281 382.023438 328.984375 C 383.347656 328.851562 384.675781 328.789062 386.007812 328.789062 C 387.339844 328.789062 388.667969 328.851562 389.992188 328.984375 C 391.316406 329.113281 392.628906 329.308594 393.933594 329.566406 C 395.242188 329.828125 396.53125 330.152344 397.804688 330.535156 C 399.078125 330.921875 400.328125 331.371094 401.558594 331.878906 C 402.789062 332.390625 403.988281 332.957031 405.164062 333.585938 C 406.335938 334.210938 407.476562 334.894531 408.582031 335.636719 C 409.691406 336.375 410.757812 337.167969 411.785156 338.011719 C 412.816406 338.855469 413.800781 339.746094 414.742188 340.6875 C 415.683594 341.628906 416.574219 342.613281 417.417969 343.644531 C 418.261719 344.671875 419.054688 345.738281 419.792969 346.847656 C 420.535156 347.953125 421.21875 349.09375 421.84375 350.265625 C 422.472656 351.441406 423.039062 352.640625 423.550781 353.871094 C 424.058594 355.101562 424.507812 356.351562 424.894531 357.625 C 425.277344 358.898438 425.601562 360.1875 425.863281 361.496094 C 426.121094 362.800781 426.316406 364.113281 426.445312 365.4375 C 426.578125 366.761719 426.640625 368.089844 426.640625 369.421875 Z M 426.640625 369.421875 " fill-opacity="1" fill-rule="nonzero"/></g><g clip-path="url(#db140f8fb7)"><path fill="#f09020" d="M 437.269531 382.222656 C 437.269531 383.910156 437.1875 385.589844 437.023438 387.269531 C 436.855469 388.949219 436.609375 390.613281 436.28125 392.269531 C 435.949219 393.921875 435.542969 395.558594 435.050781 397.171875 C 434.5625 398.785156 433.996094 400.371094 433.347656 401.929688 C 432.703125 403.488281 431.984375 405.011719 431.1875 406.5 C 430.394531 407.988281 429.527344 409.433594 428.589844 410.835938 C 427.652344 412.238281 426.648438 413.589844 425.578125 414.894531 C 424.507812 416.199219 423.378906 417.449219 422.183594 418.640625 C 420.992188 419.832031 419.742188 420.964844 418.441406 422.035156 C 417.136719 423.105469 415.78125 424.109375 414.378906 425.046875 C 412.976562 425.984375 411.53125 426.847656 410.042969 427.644531 C 408.558594 428.4375 407.035156 429.160156 405.476562 429.804688 C 403.917969 430.449219 402.332031 431.019531 400.714844 431.507812 C 399.101562 431.996094 397.46875 432.40625 395.8125 432.734375 C 394.160156 433.066406 392.492188 433.3125 390.8125 433.476562 C 389.136719 433.644531 387.453125 433.726562 385.765625 433.726562 C 384.078125 433.726562 382.394531 433.644531 380.71875 433.476562 C 379.039062 433.3125 377.371094 433.066406 375.71875 432.734375 C 374.0625 432.40625 372.429688 431.996094 370.816406 431.507812 C 369.199219 431.019531 367.613281 430.449219 366.054688 429.804688 C 364.496094 429.160156 362.976562 428.4375 361.488281 427.644531 C 360 426.847656 358.554688 425.984375 357.152344 425.046875 C 355.75 424.109375 354.394531 423.105469 353.09375 422.035156 C 351.789062 420.964844 350.539062 419.832031 349.347656 418.640625 C 348.15625 417.449219 347.023438 416.199219 345.953125 414.894531 C 344.882812 413.589844 343.878906 412.238281 342.941406 410.835938 C 342.003906 409.433594 341.140625 407.988281 340.34375 406.5 C 339.546875 405.011719 338.828125 403.488281 338.183594 401.929688 C 337.535156 400.371094 336.96875 398.785156 336.480469 397.171875 C 335.988281 395.558594 335.582031 393.921875 335.25 392.269531 C 334.921875 390.613281 334.675781 388.949219 334.511719 387.269531 C 334.34375 385.589844 334.261719 383.910156 334.261719 382.222656 C 334.261719 380.535156 334.34375 378.851562 334.511719 377.171875 C 334.675781 375.496094 334.921875 373.828125 335.25 372.171875 C 335.582031 370.519531 335.988281 368.886719 336.480469 367.269531 C 336.96875 365.65625 337.535156 364.070312 338.183594 362.511719 C 338.828125 360.953125 339.546875 359.429688 340.34375 357.941406 C 341.140625 356.453125 342.003906 355.011719 342.941406 353.605469 C 343.878906 352.203125 344.882812 350.851562 345.953125 349.546875 C 347.023438 348.242188 348.15625 346.996094 349.347656 345.800781 C 350.539062 344.609375 351.789062 343.476562 353.09375 342.410156 C 354.394531 341.339844 355.75 340.335938 357.152344 339.398438 C 358.554688 338.460938 360 337.59375 361.488281 336.800781 C 362.976562 336.003906 364.496094 335.285156 366.054688 334.636719 C 367.613281 333.992188 369.199219 333.425781 370.816406 332.933594 C 372.429688 332.445312 374.0625 332.035156 375.71875 331.707031 C 377.371094 331.378906 379.039062 331.132812 380.71875 330.964844 C 382.394531 330.800781 384.078125 330.71875 385.765625 330.71875 C 387.453125 330.71875 389.136719 330.800781 390.8125 330.964844 C 392.492188 331.132812 394.160156 331.378906 395.8125 331.707031 C 397.46875 332.035156 399.101562 332.445312 400.714844 332.933594 C 402.332031 333.425781 403.917969 333.992188 405.476562 334.636719 C 407.035156 335.285156 408.558594 336.003906 410.042969 336.800781 C 411.53125 337.59375 412.976562 338.460938 414.378906 339.398438 C 415.78125 340.335938 417.136719 341.339844 418.441406 342.410156 C 419.742188 343.476562 420.992188 344.609375 422.183594 345.800781 C 423.378906 346.996094 424.507812 348.242188 425.578125 349.546875 C 426.648438 350.851562 427.652344 352.203125 428.589844 353.605469 C 429.527344 355.011719 430.394531 356.453125 431.1875 357.941406 C 431.984375 359.429688 432.703125 360.953125 433.347656 362.511719 C 433.996094 364.070312 434.5625 365.65625 435.050781 367.269531 C 435.542969 368.886719 435.949219 370.519531 436.28125 372.171875 C 436.609375 373.828125 436.855469 375.496094 437.023438 377.171875 C 437.1875 378.851562 437.269531 380.535156 437.269531 382.222656 Z M 437.269531 382.222656 " fill-opacity="1" fill-rule="nonzero"/></g><g clip-path="url(#9fe29ecc21)"><g clip-path="url(#00e9a6b7a3)"><path fill="#ffffff" d="M 398.296875 339.488281 L 419.746094 339.488281 L 419.746094 357.609375 L 398.296875 357.609375 Z M 398.296875 339.488281 " fill-opacity="1" fill-rule="nonzero"/></g></g><g clip-path="url(#92863ffd20)"><g clip-path="url(#def24600e2)"><path fill="#ffffff" d="M 417.113281 360.636719 L 426.339844 360.636719 L 426.339844 369.867188 L 417.113281 369.867188 Z M 417.113281 360.636719 " fill-opacity="1" fill-rule="nonzero"/></g></g><path stroke-linecap="round" transform="matrix(-0.75, 0.000000001309, -0.000000001309, -0.75, 359.458461, 371.89172)" fill="none" stroke-linejoin="miter" d="M 2.001907 2.001461 L 21.173783 2.001461 " stroke="#c8831a" stroke-width="4" stroke-opacity="1" stroke-miterlimit="4"/><path stroke-linecap="round" transform="matrix(-0.75, 0.000000001309, -0.000000001309, -0.75, 359.454096, 362.178283)" fill="none" stroke-linejoin="miter" d="M 2.001295 1.998127 L 12.683587 1.998127 " stroke="#c8831a" stroke-width="4" stroke-opacity="1" stroke-miterlimit="4"/><path stroke-linecap="round" transform="matrix(-0.75, 0.000000001309, -0.000000001309, -0.75, 359.455092, 353.197034)" fill="none" stroke-linejoin="miter" d="M 1.997414 2.002296 L 6.507831 2.002296 " stroke="#c8831a" stroke-width="4" stroke-opacity="1" stroke-miterlimit="4"/><g clip-path="url(#f818f46c52)"><path fill="#39b54a" d="M 374.414062 170.652344 C 373.117188 167.660156 371.191406 161.832031 373.085938 155.609375 C 376.191406 145.402344 388.375 138.085938 403.042969 139.03125 C 404.988281 151.484375 400.191406 163.152344 391.148438 168.355469 C 385.054688 171.863281 378.746094 171.457031 375.757812 171.039062 C 378.816406 168.710938 382.253906 165.726562 385.683594 161.945312 C 390.984375 156.109375 394.523438 150.316406 396.863281 145.695312 C 393.5 150.398438 389.457031 155.480469 384.628906 160.667969 C 381.144531 164.414062 377.703125 167.730469 374.414062 170.652344 Z M 374.414062 170.652344 " fill-opacity="1" fill-rule="nonzero"/></g><path fill="#39b54a" d="M 370.503906 170.976562 C 368.21875 171.671875 363.8125 172.585938 359.445312 170.667969 C 352.28125 167.527344 347.992188 157.996094 349.933594 147.351562 C 359.164062 146.988281 367.242188 151.492188 370.261719 158.546875 C 372.292969 163.300781 371.457031 167.878906 370.898438 170.03125 C 369.46875 167.59375 367.589844 164.828125 365.128906 161.996094 C 361.332031 157.625 357.421875 154.542969 354.257812 152.4375 C 357.394531 155.296875 360.746094 158.6875 364.109375 162.660156 C 366.539062 165.527344 368.660156 168.324219 370.503906 170.976562 Z M 370.503906 170.976562 " fill-opacity="1" fill-rule="nonzero"/><g clip-path="url(#2889fdc53d)"><g clip-path="url(#867c36de86)"><g clip-path="url(#d5fa366c35)"><path fill="#f8c038" d="M 122.6875 458.488281 L 133.789062 395.441406 L 184.542969 404.375 L 173.441406 467.421875 Z M 122.6875 458.488281 " fill-opacity="1" fill-rule="nonzero"/></g></g></g><g clip-path="url(#f70ae59d57)"><g clip-path="url(#47487d8b37)"><g clip-path="url(#fd7921be2d)"><path fill="#f8c038" d="M 484.214844 394.601562 L 400.59375 211.367188 L 523.710938 155.179688 L 607.332031 338.414062 Z M 484.214844 394.601562 " fill-opacity="1" fill-rule="nonzero"/></g></g></g><g clip-path="url(#b54b8fb5a3)"><g clip-path="url(#c242803944)"><g clip-path="url(#f42ddf4128)"><path fill="#a6a6a6" d="M 561.238281 381.304688 L 693.644531 567.609375 L 626.847656 615.082031 L 494.441406 428.777344 Z M 561.238281 381.304688 " fill-opacity="1" fill-rule="nonzero"/></g></g></g><g clip-path="url(#74ba8fe66c)"><g clip-path="url(#a9d17bbed7)"><g clip-path="url(#69e5d4f532)"><path fill="#dd2e44" d="M 600.390625 436.445312 L 618.15625 461.441406 L 551.367188 508.910156 L 533.601562 483.910156 Z M 600.390625 436.445312 " fill-opacity="1" fill-rule="nonzero"/></g></g></g><g clip-path="url(#faeff2cde7)"><g clip-path="url(#c9251e506d)"><g clip-path="url(#6e4407120c)"><g clip-path="url(#f0fd4a0092)"><path stroke-linecap="butt" transform="matrix(0.7395, 0.125058, -0.125058, 0.7395, 337.471275, 138.086439)" fill="none" stroke-linejoin="miter" d="M 202.719964 -0.000892306 C 90.762209 0.000723386 0.000013562 90.759538 0.00162925 202.717294 C -0.00189047 314.675917 90.76206 405.437244 202.719815 405.435629 C 314.678439 405.439148 405.439766 314.675198 405.43815 202.717443 C 405.436535 90.759687 314.67772 -0.002508 202.719964 -0.000892306 Z M 202.719964 -0.000892306 " stroke="#a6a6a6" stroke-width="120" stroke-opacity="1" stroke-miterlimit="4"/></g></g></g></g><g clip-path="url(#0c4fc17977)"><g clip-path="url(#4f42d4d3fd)"><g clip-path="url(#4f678e8833)"><path fill="#f8c038" d="M 556.023438 397.523438 L 613.792969 369.941406 L 635.996094 416.449219 L 578.226562 444.027344 Z M 556.023438 397.523438 " fill-opacity="1" fill-rule="nonzero"/></g></g></g><g clip-path="url(#65532f92de)"><g clip-path="url(#02508a2ca4)"><path fill="#ffffff" d="M 373.789062 231.851562 L 500.765625 231.851562 L 500.765625 394.542969 L 373.789062 394.542969 Z M 373.789062 231.851562 " fill-opacity="1" fill-rule="nonzero"/></g></g><g clip-path="url(#8bfaef12d8)"><g clip-path="url(#3d6cc54ffa)"><path fill="#4b4b4b" d="M 400.976562 264.953125 L 473.578125 264.953125 L 473.578125 365.0625 L 400.976562 365.0625 Z M 400.976562 264.953125 " fill-opacity="1" fill-rule="nonzero"/></g></g><g clip-path="url(#b551d9b1c8)"><g clip-path="url(#f83d6a7e70)"><path fill="#ffffff" d="M 431.523438 264.953125 L 463.839844 264.953125 L 463.839844 301.9375 L 431.523438 301.9375 Z M 431.523438 264.953125 " fill-opacity="1" fill-rule="nonzero"/></g></g></svg>