<svg xmlns="http://www.w3.org/2000/svg" xmlns:xlink="http://www.w3.org/1999/xlink" width="200" zoomAndPan="magnify" viewBox="0 0 150 149.999998" height="200" preserveAspectRatio="xMidYMid meet" version="1.0"><defs><clipPath id="ba5a6d84b3"><path d="M 17.726562 25.207031 L 116 25.207031 L 116 119.257812 L 17.726562 119.257812 Z M 17.726562 25.207031 " clip-rule="nonzero"/></clipPath><clipPath id="bb43537088"><path d="M 66.863281 25.207031 C 39.726562 25.207031 17.726562 46.261719 17.726562 72.230469 C 17.726562 98.203125 39.726562 119.257812 66.863281 119.257812 C 94 119.257812 116 98.203125 116 72.230469 C 116 46.261719 94 25.207031 66.863281 25.207031 Z M 66.863281 25.207031 " clip-rule="nonzero"/></clipPath><clipPath id="01c55b6f67"><path d="M 34 57.75 L 101.414062 57.75 L 101.414062 115.085938 L 34 115.085938 Z M 34 57.75 " clip-rule="nonzero"/></clipPath><clipPath id="54aad1b13e"><path d="M 67.636719 57.75 C 49.058594 57.75 34 70.585938 34 86.417969 C 34 102.25 49.058594 115.085938 67.636719 115.085938 C 86.210938 115.085938 101.269531 102.25 101.269531 86.417969 C 101.269531 70.585938 86.210938 57.75 67.636719 57.75 Z M 67.636719 57.75 " clip-rule="nonzero"/></clipPath><clipPath id="ac85876b43"><path d="M 68 120 L 91 120 L 91 137 L 68 137 Z M 68 120 " clip-rule="nonzero"/></clipPath><clipPath id="42feff14a6"><path d="M 93.070312 132.023438 L 71.445312 139.132812 L 66.707031 124.71875 L 88.332031 117.605469 Z M 93.070312 132.023438 " clip-rule="nonzero"/></clipPath><clipPath id="f65dd40f59"><path d="M 82.285156 135.570312 C 88.242188 133.609375 92.007812 128.796875 90.699219 124.816406 C 89.390625 120.835938 83.5 119.195312 77.542969 121.152344 C 71.585938 123.113281 67.816406 127.929688 69.125 131.910156 C 70.433594 135.890625 76.324219 137.527344 82.285156 135.570312 Z M 82.285156 135.570312 " clip-rule="nonzero"/></clipPath><clipPath id="97082eebb0"><path d="M 74 120 L 98 120 L 98 136 L 74 136 Z M 74 120 " clip-rule="nonzero"/></clipPath><clipPath id="7d52223efa"><path d="M 95.527344 137.898438 L 73.230469 133.308594 L 76.289062 118.445312 L 98.585938 123.035156 Z M 95.527344 137.898438 " clip-rule="nonzero"/></clipPath><clipPath id="3b0b722a4a"><path d="M 84.40625 135.609375 C 90.546875 136.871094 96.210938 134.570312 97.054688 130.464844 C 97.902344 126.359375 93.605469 122.007812 87.464844 120.746094 C 81.320312 119.480469 75.65625 121.785156 74.8125 125.886719 C 73.96875 129.992188 78.261719 134.34375 84.40625 135.609375 Z M 84.40625 135.609375 " clip-rule="nonzero"/></clipPath><clipPath id="6b565d8cb1"><path d="M 36 120 L 60 120 L 60 137 L 36 137 Z M 36 120 " clip-rule="nonzero"/></clipPath><clipPath id="c82afbd5cb"><path d="M 60.902344 132.859375 L 38.945312 138.859375 L 34.945312 124.222656 L 56.902344 118.21875 Z M 60.902344 132.859375 " clip-rule="nonzero"/></clipPath><clipPath id="5512cde760"><path d="M 49.949219 135.851562 C 56 134.199219 60.007812 129.582031 58.902344 125.539062 C 57.796875 121.496094 51.996094 119.5625 45.949219 121.214844 C 39.898438 122.867188 35.890625 127.484375 36.996094 131.527344 C 38.101562 135.570312 43.898438 137.503906 49.949219 135.851562 Z M 49.949219 135.851562 " clip-rule="nonzero"/></clipPath><clipPath id="54080f04b0"><path d="M 42 120 L 66 120 L 66 137 L 42 137 Z M 42 120 " clip-rule="nonzero"/></clipPath><clipPath id="9416ca8bd7"><path d="M 63.058594 138.851562 L 41.023438 133.132812 L 44.835938 118.445312 L 66.867188 124.160156 Z M 63.058594 138.851562 " clip-rule="nonzero"/></clipPath><clipPath id="e5bf96f87b"><path d="M 52.066406 136 C 58.136719 137.574219 63.910156 135.5625 64.960938 131.503906 C 66.015625 127.449219 61.945312 122.882812 55.875 121.308594 C 49.804688 119.734375 44.03125 121.746094 42.980469 125.804688 C 41.925781 129.859375 45.996094 134.421875 52.066406 136 Z M 52.066406 136 " clip-rule="nonzero"/></clipPath><clipPath id="9d141bef6a"><path d="M 41.816406 43.265625 L 64.414062 43.265625 L 64.414062 72.308594 L 41.816406 72.308594 Z M 41.816406 43.265625 " clip-rule="nonzero"/></clipPath><clipPath id="d78490f059"><path d="M 53.117188 43.265625 C 56.113281 43.265625 58.984375 44.457031 61.105469 46.574219 C 63.222656 48.695312 64.414062 51.570312 64.414062 54.566406 L 64.414062 60.933594 C 64.414062 63.929688 63.222656 66.804688 61.105469 68.921875 C 58.984375 71.042969 56.113281 72.230469 53.117188 72.230469 C 50.117188 72.230469 47.246094 71.042969 45.125 68.921875 C 43.007812 66.804688 41.816406 63.929688 41.816406 60.933594 L 41.816406 54.566406 C 41.816406 51.570312 43.007812 48.695312 45.125 46.574219 C 47.246094 44.457031 50.117188 43.265625 53.117188 43.265625 Z M 53.117188 43.265625 " clip-rule="nonzero"/></clipPath><clipPath id="1b2bad78d7"><path d="M 69.3125 43.265625 L 91.910156 43.265625 L 91.910156 72.308594 L 69.3125 72.308594 Z M 69.3125 43.265625 " clip-rule="nonzero"/></clipPath><clipPath id="c932be8277"><path d="M 80.609375 43.265625 C 83.605469 43.265625 86.480469 44.457031 88.597656 46.574219 C 90.71875 48.695312 91.910156 51.570312 91.910156 54.566406 L 91.910156 60.933594 C 91.910156 63.929688 90.71875 66.804688 88.597656 68.921875 C 86.480469 71.042969 83.605469 72.230469 80.609375 72.230469 C 77.613281 72.230469 74.738281 71.042969 72.621094 68.921875 C 70.5 66.804688 69.3125 63.929688 69.3125 60.933594 L 69.3125 54.566406 C 69.3125 51.570312 70.5 48.695312 72.621094 46.574219 C 74.738281 44.457031 77.613281 43.265625 80.609375 43.265625 Z M 80.609375 43.265625 " clip-rule="nonzero"/></clipPath><clipPath id="3baba8da85"><path d="M 74.148438 49.15625 L 87.070312 49.15625 L 87.070312 67 L 74.148438 67 Z M 74.148438 49.15625 " clip-rule="nonzero"/></clipPath><clipPath id="530a4fc779"><path d="M 80.609375 49.15625 C 82.324219 49.15625 83.964844 49.839844 85.179688 51.050781 C 86.390625 52.261719 87.070312 53.90625 87.070312 55.617188 L 87.070312 60.519531 C 87.070312 62.234375 86.390625 63.875 85.179688 65.085938 C 83.964844 66.300781 82.324219 66.980469 80.609375 66.980469 C 78.894531 66.980469 77.253906 66.300781 76.042969 65.085938 C 74.828125 63.875 74.148438 62.234375 74.148438 60.519531 L 74.148438 55.617188 C 74.148438 53.90625 74.828125 52.261719 76.042969 51.050781 C 77.253906 49.839844 78.894531 49.15625 80.609375 49.15625 Z M 80.609375 49.15625 " clip-rule="nonzero"/></clipPath><clipPath id="4fd459c031"><path d="M 79.585938 49.15625 L 85.335938 49.15625 L 85.335938 55.738281 L 79.585938 55.738281 Z M 79.585938 49.15625 " clip-rule="nonzero"/></clipPath><clipPath id="eb55ebe94d"><path d="M 82.460938 49.15625 C 84.050781 49.15625 85.335938 50.445312 85.335938 52.035156 L 85.335938 52.863281 C 85.335938 54.449219 84.050781 55.738281 82.460938 55.738281 C 80.875 55.738281 79.585938 54.449219 79.585938 52.863281 L 79.585938 52.035156 C 79.585938 50.445312 80.875 49.15625 82.460938 49.15625 Z M 82.460938 49.15625 " clip-rule="nonzero"/></clipPath><clipPath id="6530f07360"><path d="M 46.242188 48.839844 L 59.164062 48.839844 L 59.164062 66.707031 L 46.242188 66.707031 Z M 46.242188 48.839844 " clip-rule="nonzero"/></clipPath><clipPath id="294dac4ca8"><path d="M 52.703125 48.839844 C 54.414062 48.839844 56.058594 49.519531 57.269531 50.730469 C 58.480469 51.941406 59.164062 53.585938 59.164062 55.300781 L 59.164062 60.199219 C 59.164062 61.914062 58.480469 63.558594 57.269531 64.769531 C 56.058594 65.980469 54.414062 66.660156 52.703125 66.660156 C 50.988281 66.660156 49.34375 65.980469 48.132812 64.769531 C 46.921875 63.558594 46.242188 61.914062 46.242188 60.199219 L 46.242188 55.300781 C 46.242188 53.585938 46.921875 51.941406 48.132812 50.730469 C 49.34375 49.519531 50.988281 48.839844 52.703125 48.839844 Z M 52.703125 48.839844 " clip-rule="nonzero"/></clipPath><clipPath id="11ccfde06f"><path d="M 52.242188 48.839844 L 57.996094 48.839844 L 57.996094 55.421875 L 52.242188 55.421875 Z M 52.242188 48.839844 " clip-rule="nonzero"/></clipPath><clipPath id="9a30c0ed5b"><path d="M 55.117188 48.839844 C 56.707031 48.839844 57.996094 50.125 57.996094 51.714844 L 57.996094 52.542969 C 57.996094 54.128906 56.707031 55.417969 55.117188 55.417969 C 53.53125 55.417969 52.242188 54.128906 52.242188 52.542969 L 52.242188 51.714844 C 52.242188 50.125 53.53125 48.839844 55.117188 48.839844 Z M 55.117188 48.839844 " clip-rule="nonzero"/></clipPath><clipPath id="fb294076e3"><path d="M 58.917969 71.335938 L 79.917969 71.335938 L 79.917969 80.335938 L 58.917969 80.335938 Z M 58.917969 71.335938 " clip-rule="nonzero"/></clipPath><clipPath id="a0c95627bb"><path d="M 56.074219 60.21875 L 82.324219 60.21875 L 82.324219 72.96875 L 56.074219 72.96875 Z M 56.074219 60.21875 " clip-rule="nonzero"/></clipPath><clipPath id="baab2ee3ea"><path d="M 72.695312 62.679688 L 77.753906 62.679688 L 77.753906 66.886719 L 72.695312 66.886719 Z M 72.695312 62.679688 " clip-rule="nonzero"/></clipPath><clipPath id="005adb9871"><path d="M 73.941406 62.726562 C 75.683594 63.5 76.386719 63.976562 76.820312 64.382812 C 77.167969 64.707031 77.503906 65.121094 77.636719 65.371094 C 77.703125 65.5 77.722656 65.585938 77.734375 65.695312 C 77.746094 65.804688 77.742188 65.921875 77.71875 66.03125 C 77.691406 66.140625 77.65625 66.25 77.601562 66.347656 C 77.546875 66.445312 77.472656 66.53125 77.386719 66.605469 C 77.300781 66.679688 77.203125 66.738281 77.101562 66.78125 C 76.996094 66.824219 76.878906 66.855469 76.769531 66.863281 C 76.660156 66.867188 76.542969 66.863281 76.433594 66.832031 C 76.332031 66.800781 76.21875 66.757812 76.128906 66.695312 C 76.039062 66.636719 75.945312 66.550781 75.878906 66.464844 C 75.8125 66.378906 75.757812 66.273438 75.71875 66.171875 C 75.683594 66.066406 75.660156 65.953125 75.660156 65.839844 C 75.660156 65.730469 75.671875 65.609375 75.707031 65.503906 C 75.746094 65.402344 75.792969 65.292969 75.859375 65.207031 C 75.925781 65.113281 76.011719 65.035156 76.105469 64.972656 C 76.195312 64.914062 76.300781 64.859375 76.402344 64.828125 C 76.507812 64.796875 76.628906 64.777344 76.738281 64.785156 C 76.851562 64.789062 76.964844 64.816406 77.070312 64.851562 C 77.171875 64.894531 77.277344 64.949219 77.363281 65.023438 C 77.449219 65.089844 77.527344 65.179688 77.582031 65.273438 C 77.644531 65.363281 77.6875 65.476562 77.710938 65.585938 C 77.734375 65.695312 77.746094 65.8125 77.734375 65.921875 C 77.722656 66.03125 77.691406 66.148438 77.648438 66.246094 C 77.605469 66.347656 77.539062 66.445312 77.464844 66.527344 C 77.394531 66.605469 77.300781 66.679688 77.203125 66.734375 C 77.105469 66.789062 76.996094 66.832031 76.886719 66.847656 C 76.777344 66.867188 76.660156 66.875 76.550781 66.855469 C 76.441406 66.835938 76.324219 66.800781 76.226562 66.75 C 76.128906 66.703125 76.054688 66.648438 75.957031 66.550781 C 75.800781 66.390625 75.652344 66.097656 75.394531 65.855469 C 75.011719 65.488281 74.175781 64.894531 73.757812 64.679688 C 73.53125 64.566406 73.335938 64.558594 73.203125 64.484375 C 73.117188 64.441406 73.070312 64.398438 73.015625 64.34375 C 72.957031 64.289062 72.910156 64.246094 72.867188 64.167969 C 72.804688 64.058594 72.734375 63.878906 72.71875 63.734375 C 72.707031 63.585938 72.75 63.390625 72.792969 63.277344 C 72.824219 63.191406 72.855469 63.140625 72.910156 63.074219 C 72.988281 62.976562 73.15625 62.847656 73.265625 62.789062 C 73.34375 62.746094 73.398438 62.71875 73.484375 62.707031 C 73.605469 62.691406 73.941406 62.726562 73.941406 62.726562 " clip-rule="nonzero"/></clipPath><clipPath id="104efeea6f"><path d="M 77.527344 68.09375 L 79.390625 68.09375 L 79.390625 70 L 77.527344 70 Z M 77.527344 68.09375 " clip-rule="nonzero"/></clipPath><clipPath id="a32fd878b7"><path d="M 79.390625 68.78125 C 79.390625 69.371094 79.324219 69.523438 79.230469 69.640625 C 79.140625 69.757812 79.011719 69.859375 78.878906 69.921875 C 78.742188 69.984375 78.578125 70.007812 78.433594 70 C 78.285156 69.996094 78.125 69.941406 78 69.867188 C 77.871094 69.792969 77.746094 69.671875 77.675781 69.550781 C 77.59375 69.421875 77.546875 69.261719 77.539062 69.117188 C 77.535156 68.96875 77.566406 68.804688 77.625 68.667969 C 77.6875 68.535156 77.785156 68.40625 77.902344 68.316406 C 78.015625 68.222656 78.167969 68.148438 78.316406 68.125 C 78.460938 68.101562 78.628906 68.113281 78.769531 68.15625 C 78.910156 68.199219 79.160156 68.386719 79.160156 68.386719 " clip-rule="nonzero"/></clipPath><clipPath id="b4bb6c5287"><path d="M 65 11 L 73.839844 11 L 73.839844 19.875 L 65 19.875 Z M 65 11 " clip-rule="nonzero"/></clipPath><clipPath id="c022e3939e"><path d="M 59.589844 13 L 66 13 L 66 19.875 L 59.589844 19.875 Z M 59.589844 13 " clip-rule="nonzero"/></clipPath><clipPath id="32ec19699d"><path d="M 3 77 L 17 77 L 17 95 L 3 95 Z M 3 77 " clip-rule="nonzero"/></clipPath><clipPath id="3b696fe5e4"><path d="M 1.878906 92.945312 L 4.734375 76.746094 L 17.734375 79.035156 L 14.882812 95.234375 Z M 1.878906 92.945312 " clip-rule="nonzero"/></clipPath><clipPath id="b889c29b59"><path d="M 3.304688 84.859375 C 2.519531 89.324219 4.792969 93.457031 8.382812 94.089844 C 11.972656 94.722656 15.519531 91.613281 16.304688 87.148438 C 17.089844 82.683594 14.816406 78.550781 11.226562 77.917969 C 7.636719 77.289062 4.089844 80.394531 3.304688 84.859375 Z M 3.304688 84.859375 " clip-rule="nonzero"/></clipPath><clipPath id="4eb0bffc0a"><path d="M 70 19 L 120 19 L 120 80 L 70 80 Z M 70 19 " clip-rule="nonzero"/></clipPath><clipPath id="f1a9a22a09"><path d="M 86.722656 87.460938 L 60.917969 30.917969 L 102.996094 11.714844 L 128.800781 68.257812 Z M 86.722656 87.460938 " clip-rule="nonzero"/></clipPath><clipPath id="db7b7671b0"><path d="M 73.820312 59.195312 C 80.945312 74.804688 96.140625 83.164062 107.761719 77.859375 C 119.378906 72.558594 123.023438 55.601562 115.898438 39.992188 C 108.773438 24.378906 93.578125 16.019531 81.957031 21.324219 C 70.339844 26.625 66.695312 43.582031 73.820312 59.195312 Z M 73.820312 59.195312 " clip-rule="nonzero"/></clipPath><clipPath id="e402cc8c94"><path d="M 101 77 L 144 77 L 144 129 L 101 129 Z M 101 77 " clip-rule="nonzero"/></clipPath><clipPath id="78ce2cb1c8"><path d="M 114.214844 73.175781 L 148.128906 120.898438 L 131.019531 133.058594 L 97.101562 85.335938 Z M 114.214844 73.175781 " clip-rule="nonzero"/></clipPath><clipPath id="f688d76f3f"><path d="M 120.292969 81.730469 L 142.039062 112.328125 C 145.398438 117.054688 144.289062 123.605469 139.5625 126.964844 C 134.839844 130.324219 128.285156 129.214844 124.929688 124.488281 L 103.183594 93.890625 C 99.824219 89.167969 100.933594 82.613281 105.660156 79.257812 C 110.382812 75.898438 116.9375 77.007812 120.292969 81.730469 Z M 120.292969 81.730469 " clip-rule="nonzero"/></clipPath><clipPath id="745bf46de9"><path d="M 107 87 L 129 87 L 129 106 L 107 106 Z M 107 87 " clip-rule="nonzero"/></clipPath><clipPath id="77aae8000a"><path d="M 124.242188 87.300781 L 128.792969 93.703125 L 111.660156 105.878906 L 107.109375 99.476562 Z M 124.242188 87.300781 " clip-rule="nonzero"/></clipPath><clipPath id="f8bc0db833"><path d="M 124.242188 87.300781 L 128.792969 93.703125 L 111.683594 105.863281 L 107.132812 99.460938 Z M 124.242188 87.300781 " clip-rule="nonzero"/></clipPath><clipPath id="0e3cf32651"><path d="M 49 16 L 128 16 L 128 95 L 49 95 Z M 49 16 " clip-rule="nonzero"/></clipPath><clipPath id="3cde7057ec"><path d="M 56.894531 10.875 L 133.804688 23.882812 L 120.796875 100.789062 L 43.890625 87.78125 Z M 56.894531 10.875 " clip-rule="nonzero"/></clipPath><clipPath id="c2d4fbf34c"><path d="M 56.894531 10.875 L 133.6875 23.863281 L 120.699219 100.652344 L 43.910156 87.667969 Z M 56.894531 10.875 " clip-rule="nonzero"/></clipPath><clipPath id="23db8ff38b"><path d="M 95.289062 17.367188 C 74.085938 13.78125 53.988281 28.066406 50.402344 49.269531 C 46.816406 70.476562 61.097656 90.574219 82.304688 94.160156 C 103.511719 97.746094 123.609375 83.464844 127.195312 62.257812 C 130.78125 41.050781 116.496094 20.953125 95.289062 17.367188 Z M 95.289062 17.367188 " clip-rule="nonzero"/></clipPath><clipPath id="b595514365"><path d="M 115 72 L 132 72 L 132 87 L 115 87 Z M 115 72 " clip-rule="nonzero"/></clipPath><clipPath id="514e827918"><path d="M 112.878906 77.328125 L 127.722656 70.242188 L 133.410156 82.15625 L 118.566406 89.242188 Z M 112.878906 77.328125 " clip-rule="nonzero"/></clipPath><clipPath id="a088bd6669"><path d="M 120.289062 73.792969 C 116.195312 75.746094 114.152344 79.996094 115.722656 83.285156 C 117.292969 86.574219 121.882812 87.660156 125.976562 85.707031 C 130.066406 83.753906 132.109375 79.5 130.539062 76.210938 C 128.96875 72.921875 124.378906 71.839844 120.289062 73.792969 Z M 120.289062 73.792969 " clip-rule="nonzero"/></clipPath><clipPath id="c3041c94e1"><path d="M 66.199219 34.890625 L 98.722656 34.890625 L 98.722656 76.691406 L 66.199219 76.691406 Z M 66.199219 34.890625 " clip-rule="nonzero"/></clipPath><clipPath id="026497443b"><path d="M 82.460938 34.890625 C 86.773438 34.890625 90.910156 36.605469 93.960938 39.65625 C 97.011719 42.707031 98.722656 46.84375 98.722656 51.15625 L 98.722656 60.320312 C 98.722656 64.632812 97.011719 68.769531 93.960938 71.820312 C 90.910156 74.867188 86.773438 76.582031 82.460938 76.582031 C 78.148438 76.582031 74.011719 74.867188 70.960938 71.820312 C 67.910156 68.769531 66.199219 64.632812 66.199219 60.320312 L 66.199219 51.15625 C 66.199219 46.84375 67.910156 42.707031 70.960938 39.65625 C 74.011719 36.605469 78.148438 34.890625 82.460938 34.890625 Z M 82.460938 34.890625 " clip-rule="nonzero"/></clipPath><clipPath id="532f22ed39"><path d="M 73.164062 43.371094 L 91.761719 43.371094 L 91.761719 69.085938 L 73.164062 69.085938 Z M 73.164062 43.371094 " clip-rule="nonzero"/></clipPath><clipPath id="f9cbe4a4fe"><path d="M 82.460938 43.371094 C 84.925781 43.371094 87.292969 44.351562 89.035156 46.09375 C 90.78125 47.839844 91.761719 50.203125 91.761719 52.667969 L 91.761719 59.722656 C 91.761719 62.191406 90.78125 64.554688 89.035156 66.300781 C 87.292969 68.042969 84.925781 69.023438 82.460938 69.023438 C 79.996094 69.023438 77.628906 68.042969 75.886719 66.300781 C 74.140625 64.554688 73.164062 62.191406 73.164062 59.722656 L 73.164062 52.667969 C 73.164062 50.203125 74.140625 47.839844 75.886719 46.09375 C 77.628906 44.351562 79.996094 43.371094 82.460938 43.371094 Z M 82.460938 43.371094 " clip-rule="nonzero"/></clipPath><clipPath id="ce6415f476"><path d="M 80.988281 43.371094 L 89.265625 43.371094 L 89.265625 52.84375 L 80.988281 52.84375 Z M 80.988281 43.371094 " clip-rule="nonzero"/></clipPath><clipPath id="b4244d79e1"><path d="M 85.125 43.371094 C 87.414062 43.371094 89.265625 45.222656 89.265625 47.511719 L 89.265625 48.703125 C 89.265625 50.988281 87.414062 52.839844 85.125 52.839844 C 82.839844 52.839844 80.988281 50.988281 80.988281 48.703125 L 80.988281 47.511719 C 80.988281 45.222656 82.839844 43.371094 85.125 43.371094 Z M 85.125 43.371094 " clip-rule="nonzero"/></clipPath></defs><g clip-path="url(#ba5a6d84b3)"><g clip-path="url(#bb43537088)"><path fill="#f8c038" d="M 17.726562 25.207031 L 115.816406 25.207031 L 115.816406 119.257812 L 17.726562 119.257812 Z M 17.726562 25.207031 " fill-opacity="1" fill-rule="nonzero"/></g></g><g clip-path="url(#01c55b6f67)"><g clip-path="url(#54aad1b13e)"><path fill="#fddc66" d="M 34 57.75 L 101.191406 57.75 L 101.191406 115.085938 L 34 115.085938 Z M 34 57.75 " fill-opacity="1" fill-rule="nonzero"/></g></g><g clip-path="url(#ac85876b43)"><g clip-path="url(#42feff14a6)"><g clip-path="url(#f65dd40f59)"><path fill="#f09020" d="M 93.070312 132.023438 L 71.503906 139.113281 L 66.761719 124.699219 L 88.332031 117.605469 Z M 93.070312 132.023438 " fill-opacity="1" fill-rule="nonzero"/></g></g></g><g clip-path="url(#97082eebb0)"><g clip-path="url(#7d52223efa)"><g clip-path="url(#3b0b722a4a)"><path fill="#f09020" d="M 95.527344 137.898438 L 73.289062 133.320312 L 76.347656 118.457031 L 98.585938 123.035156 Z M 95.527344 137.898438 " fill-opacity="1" fill-rule="nonzero"/></g></g></g><g clip-path="url(#6b565d8cb1)"><g clip-path="url(#c82afbd5cb)"><g clip-path="url(#5512cde760)"><path fill="#f09020" d="M 60.902344 132.859375 L 39.003906 138.84375 L 35 124.207031 L 56.902344 118.21875 Z M 60.902344 132.859375 " fill-opacity="1" fill-rule="nonzero"/></g></g></g><g clip-path="url(#54080f04b0)"><g clip-path="url(#9416ca8bd7)"><g clip-path="url(#e5bf96f87b)"><path fill="#f09020" d="M 63.058594 138.851562 L 41.082031 133.148438 L 44.890625 118.460938 L 66.867188 124.160156 Z M 63.058594 138.851562 " fill-opacity="1" fill-rule="nonzero"/></g></g></g><g clip-path="url(#9d141bef6a)"><g clip-path="url(#d78490f059)"><path fill="#ffffff" d="M 41.816406 43.265625 L 64.414062 43.265625 L 64.414062 72.21875 L 41.816406 72.21875 Z M 41.816406 43.265625 " fill-opacity="1" fill-rule="nonzero"/></g></g><g clip-path="url(#1b2bad78d7)"><g clip-path="url(#c932be8277)"><path fill="#ffffff" d="M 69.3125 43.265625 L 91.910156 43.265625 L 91.910156 72.21875 L 69.3125 72.21875 Z M 69.3125 43.265625 " fill-opacity="1" fill-rule="nonzero"/></g></g><g clip-path="url(#3baba8da85)"><g clip-path="url(#530a4fc779)"><path fill="#4b4b4b" d="M 74.148438 49.15625 L 87.070312 49.15625 L 87.070312 66.972656 L 74.148438 66.972656 Z M 74.148438 49.15625 " fill-opacity="1" fill-rule="nonzero"/></g></g><g clip-path="url(#4fd459c031)"><g clip-path="url(#eb55ebe94d)"><path fill="#ffffff" d="M 79.585938 49.15625 L 85.335938 49.15625 L 85.335938 55.738281 L 79.585938 55.738281 Z M 79.585938 49.15625 " fill-opacity="1" fill-rule="nonzero"/></g></g><g clip-path="url(#6530f07360)"><g clip-path="url(#294dac4ca8)"><path fill="#4b4b4b" d="M 46.242188 48.839844 L 59.164062 48.839844 L 59.164062 66.65625 L 46.242188 66.65625 Z M 46.242188 48.839844 " fill-opacity="1" fill-rule="nonzero"/></g></g><g clip-path="url(#11ccfde06f)"><g clip-path="url(#9a30c0ed5b)"><path fill="#ffffff" d="M 52.242188 48.839844 L 57.996094 48.839844 L 57.996094 55.421875 L 52.242188 55.421875 Z M 52.242188 48.839844 " fill-opacity="1" fill-rule="nonzero"/></g></g><g clip-path="url(#fb294076e3)"><path fill="#f86018" d="M 79.730469 70.128906 C 79.730469 70.8125 79.664062 71.488281 79.53125 72.160156 C 79.398438 72.828125 79.203125 73.480469 78.941406 74.113281 C 78.679688 74.742188 78.359375 75.34375 77.976562 75.910156 C 77.597656 76.480469 77.167969 77.003906 76.683594 77.488281 C 76.199219 77.96875 75.675781 78.402344 75.105469 78.78125 C 74.539062 79.160156 73.941406 79.480469 73.308594 79.742188 C 72.675781 80.003906 72.027344 80.203125 71.355469 80.335938 C 70.6875 80.46875 70.007812 80.535156 69.324219 80.535156 C 68.644531 80.535156 67.964844 80.46875 67.296875 80.335938 C 66.625 80.203125 65.976562 80.003906 65.34375 79.742188 C 64.710938 79.480469 64.113281 79.160156 63.542969 78.78125 C 62.976562 78.402344 62.449219 77.96875 61.96875 77.488281 C 61.484375 77.003906 61.054688 76.480469 60.671875 75.910156 C 60.292969 75.34375 59.972656 74.742188 59.710938 74.113281 C 59.449219 73.480469 59.253906 72.828125 59.121094 72.160156 C 58.988281 71.488281 58.917969 70.8125 58.917969 70.128906 C 58.917969 69.445312 58.988281 68.769531 59.121094 68.097656 C 59.253906 67.429688 59.449219 66.777344 59.710938 66.148438 C 59.972656 65.515625 60.292969 64.914062 60.671875 64.347656 C 61.054688 63.78125 61.484375 63.253906 61.96875 62.769531 C 62.449219 62.289062 62.976562 61.855469 63.542969 61.476562 C 64.113281 61.097656 64.710938 60.777344 65.34375 60.515625 C 65.976562 60.253906 66.625 60.054688 67.296875 59.921875 C 67.964844 59.789062 68.644531 59.722656 69.324219 59.722656 C 70.007812 59.722656 70.6875 59.789062 71.355469 59.921875 C 72.027344 60.054688 72.675781 60.253906 73.308594 60.515625 C 73.941406 60.777344 74.539062 61.097656 75.105469 61.476562 C 75.675781 61.855469 76.199219 62.289062 76.683594 62.769531 C 77.167969 63.253906 77.597656 63.78125 77.976562 64.347656 C 78.359375 64.914062 78.679688 65.515625 78.941406 66.148438 C 79.203125 66.777344 79.398438 67.429688 79.53125 68.097656 C 79.664062 68.769531 79.730469 69.445312 79.730469 70.128906 Z M 79.730469 70.128906 " fill-opacity="1" fill-rule="nonzero"/></g><g clip-path="url(#a0c95627bb)"><path fill="#f09020" d="M 82.453125 73.40625 C 82.453125 74.273438 82.367188 75.128906 82.199219 75.980469 C 82.03125 76.828125 81.78125 77.652344 81.449219 78.453125 C 81.117188 79.253906 80.710938 80.015625 80.230469 80.734375 C 79.75 81.453125 79.203125 82.121094 78.589844 82.734375 C 77.976562 83.34375 77.3125 83.890625 76.589844 84.375 C 75.871094 84.855469 75.109375 85.261719 74.3125 85.59375 C 73.511719 85.921875 72.6875 86.175781 71.835938 86.34375 C 70.988281 86.511719 70.128906 86.597656 69.261719 86.597656 C 68.398438 86.597656 67.539062 86.511719 66.691406 86.34375 C 65.839844 86.175781 65.015625 85.921875 64.214844 85.59375 C 63.414062 85.261719 62.65625 84.855469 61.933594 84.375 C 61.214844 83.890625 60.550781 83.34375 59.9375 82.734375 C 59.324219 82.121094 58.777344 81.453125 58.296875 80.734375 C 57.816406 80.015625 57.410156 79.253906 57.078125 78.453125 C 56.746094 77.652344 56.496094 76.828125 56.328125 75.980469 C 56.160156 75.128906 56.074219 74.273438 56.074219 73.40625 C 56.074219 72.539062 56.160156 71.683594 56.328125 70.832031 C 56.496094 69.984375 56.746094 69.160156 57.078125 68.359375 C 57.410156 67.558594 57.816406 66.800781 58.296875 66.078125 C 58.777344 65.359375 59.324219 64.691406 59.9375 64.082031 C 60.550781 63.46875 61.214844 62.921875 61.933594 62.441406 C 62.65625 61.960938 63.414062 61.554688 64.214844 61.222656 C 65.015625 60.890625 65.839844 60.640625 66.691406 60.472656 C 67.539062 60.300781 68.398438 60.21875 69.261719 60.21875 C 70.128906 60.21875 70.988281 60.300781 71.835938 60.472656 C 72.6875 60.640625 73.511719 60.890625 74.3125 61.222656 C 75.109375 61.554688 75.871094 61.960938 76.589844 62.441406 C 77.3125 62.921875 77.976562 63.46875 78.589844 64.082031 C 79.203125 64.691406 79.75 65.359375 80.230469 66.078125 C 80.710938 66.800781 81.117188 67.558594 81.449219 68.359375 C 81.78125 69.160156 82.03125 69.984375 82.199219 70.832031 C 82.367188 71.683594 82.453125 72.539062 82.453125 73.40625 Z M 82.453125 73.40625 " fill-opacity="1" fill-rule="nonzero"/></g><g clip-path="url(#baab2ee3ea)"><g clip-path="url(#005adb9871)"><path fill="#ffffff" d="M 72.476562 62.464844 L 77.972656 62.464844 L 77.972656 67.105469 L 72.476562 67.105469 Z M 72.476562 62.464844 " fill-opacity="1" fill-rule="nonzero"/></g></g><g clip-path="url(#104efeea6f)"><g clip-path="url(#a32fd878b7)"><path fill="#ffffff" d="M 77.296875 67.882812 L 79.660156 67.882812 L 79.660156 70.246094 L 77.296875 70.246094 Z M 77.296875 67.882812 " fill-opacity="1" fill-rule="nonzero"/></g></g><path stroke-linecap="round" transform="matrix(-0.75, 0, 0, -0.75, 62.517799, 70.754734)" fill="none" stroke-linejoin="miter" d="M 0.497691 0.501104 L 5.435191 0.501104 " stroke="#c8831a" stroke-width="1" stroke-opacity="1" stroke-miterlimit="4"/><path stroke-linecap="round" transform="matrix(-0.75, -0.000000001309, 0.000000001309, -0.75, 62.520715, 68.266844)" fill="none" stroke-linejoin="miter" d="M 0.501579 0.501625 L 3.261995 0.501625 " stroke="#c8831a" stroke-width="1" stroke-opacity="1" stroke-miterlimit="4"/><path stroke-linecap="round" transform="matrix(-0.75, -0.000000001309, 0.000000001309, -0.75, 62.523089, 65.966249)" fill="none" stroke-linejoin="miter" d="M 0.499535 0.501874 L 1.681827 0.501874 " stroke="#c8831a" stroke-width="1" stroke-opacity="1" stroke-miterlimit="4"/><g clip-path="url(#b4bb6c5287)"><path fill="#39b54a" d="M 66.195312 19.371094 C 65.871094 18.589844 65.390625 17.070312 65.863281 15.445312 C 66.640625 12.785156 69.683594 10.875 73.351562 11.121094 C 73.835938 14.371094 72.636719 17.414062 70.378906 18.769531 C 68.855469 19.6875 67.277344 19.578125 66.53125 19.46875 C 67.296875 18.863281 68.15625 18.085938 69.011719 17.097656 C 70.335938 15.574219 71.222656 14.066406 71.804688 12.859375 C 70.964844 14.085938 69.957031 15.410156 68.75 16.765625 C 67.878906 17.742188 67.019531 18.609375 66.195312 19.371094 Z M 66.195312 19.371094 " fill-opacity="1" fill-rule="nonzero"/></g><g clip-path="url(#c022e3939e)"><path fill="#39b54a" d="M 65.21875 19.453125 C 64.648438 19.636719 63.546875 19.875 62.457031 19.375 C 60.667969 18.554688 59.59375 16.066406 60.078125 13.292969 C 62.386719 13.199219 64.40625 14.371094 65.160156 16.210938 C 65.667969 17.453125 65.457031 18.648438 65.320312 19.207031 C 64.960938 18.574219 64.492188 17.851562 63.875 17.113281 C 62.929688 15.972656 61.949219 15.167969 61.160156 14.617188 C 61.941406 15.363281 62.78125 16.25 63.621094 17.285156 C 64.230469 18.03125 64.757812 18.761719 65.21875 19.453125 Z M 65.21875 19.453125 " fill-opacity="1" fill-rule="nonzero"/></g><g clip-path="url(#32ec19699d)"><g clip-path="url(#3b696fe5e4)"><g clip-path="url(#b889c29b59)"><path fill="#f8c038" d="M 1.878906 92.945312 L 4.722656 76.796875 L 17.726562 79.085938 L 14.882812 95.234375 Z M 1.878906 92.945312 " fill-opacity="1" fill-rule="nonzero"/></g></g></g><g clip-path="url(#4eb0bffc0a)"><g clip-path="url(#f1a9a22a09)"><g clip-path="url(#db7b7671b0)"><path fill="#f8c038" d="M 86.722656 87.460938 L 60.917969 30.917969 L 102.996094 11.714844 L 128.800781 68.257812 Z M 86.722656 87.460938 " fill-opacity="1" fill-rule="nonzero"/></g></g></g><g clip-path="url(#e402cc8c94)"><g clip-path="url(#78ce2cb1c8)"><g clip-path="url(#f688d76f3f)"><path fill="#a6a6a6" d="M 114.214844 73.175781 L 148.128906 120.898438 L 131.019531 133.058594 L 97.101562 85.335938 Z M 114.214844 73.175781 " fill-opacity="1" fill-rule="nonzero"/></g></g></g><g clip-path="url(#745bf46de9)"><g clip-path="url(#77aae8000a)"><g clip-path="url(#f8bc0db833)"><path fill="#dd2e44" d="M 124.242188 87.300781 L 128.792969 93.703125 L 111.683594 105.863281 L 107.132812 99.457031 Z M 124.242188 87.300781 " fill-opacity="1" fill-rule="nonzero"/></g></g></g><g clip-path="url(#0e3cf32651)"><g clip-path="url(#3cde7057ec)"><g clip-path="url(#c2d4fbf34c)"><g clip-path="url(#23db8ff38b)"><path stroke-linecap="butt" transform="matrix(0.7395, 0.125058, -0.125058, 0.7395, 56.894782, 10.875118)" fill="none" stroke-linejoin="miter" d="M 51.919049 -0.00110109 C 23.246753 -0.00142916 0.000973218 23.247009 0.000645148 51.919304 C 0.00118553 80.596735 23.244488 103.843384 51.921919 103.842843 C 80.59935 103.842303 103.845998 80.599 103.845458 51.921569 C 103.844918 23.244138 80.596479 -0.00164148 51.919049 -0.00110109 Z M 51.919049 -0.00110109 " stroke="#a6a6a6" stroke-width="26" stroke-opacity="1" stroke-miterlimit="4"/></g></g></g></g><g clip-path="url(#b595514365)"><g clip-path="url(#514e827918)"><g clip-path="url(#a088bd6669)"><path fill="#f8c038" d="M 112.878906 77.328125 L 127.675781 70.265625 L 133.363281 82.175781 L 118.566406 89.242188 Z M 112.878906 77.328125 " fill-opacity="1" fill-rule="nonzero"/></g></g></g><g clip-path="url(#c3041c94e1)"><g clip-path="url(#026497443b)"><path fill="#ffffff" d="M 66.199219 34.890625 L 98.722656 34.890625 L 98.722656 76.566406 L 66.199219 76.566406 Z M 66.199219 34.890625 " fill-opacity="1" fill-rule="nonzero"/></g></g><g clip-path="url(#532f22ed39)"><g clip-path="url(#f9cbe4a4fe)"><path fill="#4b4b4b" d="M 73.164062 43.371094 L 91.761719 43.371094 L 91.761719 69.015625 L 73.164062 69.015625 Z M 73.164062 43.371094 " fill-opacity="1" fill-rule="nonzero"/></g></g><g clip-path="url(#ce6415f476)"><g clip-path="url(#b4244d79e1)"><path fill="#ffffff" d="M 80.988281 43.371094 L 89.265625 43.371094 L 89.265625 52.84375 L 80.988281 52.84375 Z M 80.988281 43.371094 " fill-opacity="1" fill-rule="nonzero"/></g></g></svg>