<svg xmlns="http://www.w3.org/2000/svg" xmlns:xlink="http://www.w3.org/1999/xlink" width="1080" zoomAndPan="magnify" viewBox="0 0 810 809.999993" height="1080" preserveAspectRatio="xMidYMid meet" version="1.0"><defs><clipPath id="05159fed95"><path d="M 272.109375 268.386719 L 538 268.386719 L 538 522.746094 L 272.109375 522.746094 Z M 272.109375 268.386719 " clip-rule="nonzero"/></clipPath><clipPath id="72d182eb84"><path d="M 405 268.386719 C 331.605469 268.386719 272.109375 325.328125 272.109375 395.566406 C 272.109375 465.804688 331.605469 522.746094 405 522.746094 C 478.394531 522.746094 537.890625 465.804688 537.890625 395.566406 C 537.890625 325.328125 478.394531 268.386719 405 268.386719 Z M 405 268.386719 " clip-rule="nonzero"/></clipPath><clipPath id="7fb1eb6ac1"><path d="M 316.121094 356.398438 L 498 356.398438 L 498 511.464844 L 316.121094 511.464844 Z M 316.121094 356.398438 " clip-rule="nonzero"/></clipPath><clipPath id="7979916886"><path d="M 407.089844 356.398438 C 356.851562 356.398438 316.121094 391.109375 316.121094 433.929688 C 316.121094 476.75 356.851562 511.464844 407.089844 511.464844 C 457.332031 511.464844 498.058594 476.75 498.058594 433.929688 C 498.058594 391.109375 457.332031 356.398438 407.089844 356.398438 Z M 407.089844 356.398438 " clip-rule="nonzero"/></clipPath><clipPath id="2f9d974964"><path d="M 337.261719 317.226562 L 398.378906 317.226562 L 398.378906 395.773438 L 337.261719 395.773438 Z M 337.261719 317.226562 " clip-rule="nonzero"/></clipPath><clipPath id="7e1f2dcf72"><path d="M 367.820312 317.226562 C 375.925781 317.226562 383.699219 320.449219 389.429688 326.179688 C 395.160156 331.910156 398.378906 339.683594 398.378906 347.785156 L 398.378906 365.007812 C 398.378906 373.113281 395.160156 380.886719 389.429688 386.617188 C 383.699219 392.347656 375.925781 395.566406 367.820312 395.566406 C 359.714844 395.566406 351.941406 392.347656 346.210938 386.617188 C 340.480469 380.886719 337.261719 373.113281 337.261719 365.007812 L 337.261719 347.785156 C 337.261719 339.683594 340.480469 331.910156 346.210938 326.179688 C 351.941406 320.449219 359.714844 317.226562 367.820312 317.226562 Z M 367.820312 317.226562 " clip-rule="nonzero"/></clipPath><clipPath id="9020ee1588"><path d="M 411.621094 317.226562 L 472.738281 317.226562 L 472.738281 395.773438 L 411.621094 395.773438 Z M 411.621094 317.226562 " clip-rule="nonzero"/></clipPath><clipPath id="3603e8990f"><path d="M 442.179688 317.226562 C 450.285156 317.226562 458.058594 320.449219 463.789062 326.179688 C 469.519531 331.910156 472.738281 339.683594 472.738281 347.785156 L 472.738281 365.007812 C 472.738281 373.113281 469.519531 380.886719 463.789062 386.617188 C 458.058594 392.347656 450.285156 395.566406 442.179688 395.566406 C 434.074219 395.566406 426.300781 392.347656 420.570312 386.617188 C 414.839844 380.886719 411.621094 373.113281 411.621094 365.007812 L 411.621094 347.785156 C 411.621094 339.683594 414.839844 331.910156 420.570312 326.179688 C 426.300781 320.449219 434.074219 317.226562 442.179688 317.226562 Z M 442.179688 317.226562 " clip-rule="nonzero"/></clipPath><clipPath id="3b3b7154bf"><path d="M 424.707031 333.160156 L 459.652344 333.160156 L 459.652344 381.484375 L 424.707031 381.484375 Z M 424.707031 333.160156 " clip-rule="nonzero"/></clipPath><clipPath id="b5d375abe8"><path d="M 442.179688 333.160156 C 446.8125 333.160156 451.257812 335 454.535156 338.277344 C 457.8125 341.554688 459.652344 346 459.652344 350.632812 L 459.652344 363.886719 C 459.652344 368.523438 457.8125 372.964844 454.535156 376.242188 C 451.257812 379.519531 446.8125 381.359375 442.179688 381.359375 C 437.546875 381.359375 433.101562 379.519531 429.824219 376.242188 C 426.546875 372.964844 424.707031 368.523438 424.707031 363.886719 L 424.707031 350.632812 C 424.707031 346 426.546875 341.554688 429.824219 338.277344 C 433.101562 335 437.546875 333.160156 442.179688 333.160156 Z M 442.179688 333.160156 " clip-rule="nonzero"/></clipPath><clipPath id="9aea788df6"><path d="M 430.972656 361.203125 L 446.523438 361.203125 L 446.523438 379 L 430.972656 379 Z M 430.972656 361.203125 " clip-rule="nonzero"/></clipPath><clipPath id="86e3891c2b"><path d="M 438.746094 361.203125 C 443.042969 361.203125 446.523438 364.683594 446.523438 368.980469 L 446.523438 371.21875 C 446.523438 375.515625 443.042969 378.996094 438.746094 378.996094 C 434.453125 378.996094 430.972656 375.515625 430.972656 371.21875 L 430.972656 368.980469 C 430.972656 364.683594 434.453125 361.203125 438.746094 361.203125 Z M 438.746094 361.203125 " clip-rule="nonzero"/></clipPath><clipPath id="e8514473ff"><path d="M 349.230469 332.296875 L 384.175781 332.296875 L 384.175781 380.621094 L 349.230469 380.621094 Z M 349.230469 332.296875 " clip-rule="nonzero"/></clipPath><clipPath id="fa15e97c2b"><path d="M 366.703125 332.296875 C 371.335938 332.296875 375.78125 334.136719 379.058594 337.414062 C 382.332031 340.691406 384.175781 345.136719 384.175781 349.769531 L 384.175781 363.023438 C 384.175781 367.660156 382.332031 372.101562 379.058594 375.378906 C 375.78125 378.65625 371.335938 380.496094 366.703125 380.496094 C 362.066406 380.496094 357.625 378.65625 354.347656 375.378906 C 351.070312 372.101562 349.230469 367.660156 349.230469 363.023438 L 349.230469 349.769531 C 349.230469 345.136719 351.070312 340.691406 354.347656 337.414062 C 357.625 334.136719 362.066406 332.296875 366.703125 332.296875 Z M 366.703125 332.296875 " clip-rule="nonzero"/></clipPath><clipPath id="96dacf1877"><path d="M 360.945312 361.203125 L 376.5 361.203125 L 376.5 379 L 360.945312 379 Z M 360.945312 361.203125 " clip-rule="nonzero"/></clipPath><clipPath id="4e2843e5e2"><path d="M 368.722656 361.203125 C 373.019531 361.203125 376.5 364.683594 376.5 368.980469 L 376.5 371.21875 C 376.5 375.515625 373.019531 378.996094 368.722656 378.996094 C 364.429688 378.996094 360.945312 375.515625 360.945312 371.21875 L 360.945312 368.980469 C 360.945312 364.683594 364.429688 361.203125 368.722656 361.203125 Z M 368.722656 361.203125 " clip-rule="nonzero"/></clipPath><clipPath id="1e5f1a508a"><path d="M 385 371 L 471 371 L 471 406 L 385 406 Z M 385 371 " clip-rule="nonzero"/></clipPath><clipPath id="eaec4fdb39"><path d="M 382.292969 385.5 L 466.832031 364.050781 L 473.707031 391.140625 L 389.164062 412.585938 Z M 382.292969 385.5 " clip-rule="nonzero"/></clipPath><clipPath id="858046505a"><path d="M 424.546875 374.78125 C 401.210938 380.699219 383.832031 391.5625 385.730469 399.042969 C 387.628906 406.523438 408.082031 407.789062 431.417969 401.867188 C 454.757812 395.945312 472.136719 385.082031 470.238281 377.605469 C 468.339844 370.125 447.882812 368.859375 424.546875 374.78125 Z M 424.546875 374.78125 " clip-rule="nonzero"/></clipPath><clipPath id="ab26e1f9b3"><path d="M 340 372 L 425 372 L 425 408 L 340 408 Z M 340 372 " clip-rule="nonzero"/></clipPath><clipPath id="177b31d2e9"><path d="M 343.503906 366.070312 L 428.1875 386.9375 L 421.503906 414.070312 L 336.816406 393.203125 Z M 343.503906 366.070312 " clip-rule="nonzero"/></clipPath><clipPath id="855d871b1e"><path d="M 385.832031 376.5 C 362.453125 370.738281 342.007812 372.144531 340.160156 379.636719 C 338.316406 387.128906 355.769531 397.871094 379.144531 403.632812 C 402.519531 409.390625 422.96875 407.988281 424.8125 400.496094 C 426.660156 393 409.207031 382.257812 385.832031 376.5 Z M 385.832031 376.5 " clip-rule="nonzero"/></clipPath><clipPath id="eccf2d0d61"><path d="M 382.113281 397.675781 L 428.050781 397.675781 L 428.050781 417.933594 L 382.113281 417.933594 Z M 382.113281 397.675781 " clip-rule="nonzero"/></clipPath><clipPath id="3d6aa3d00a"><path d="M 375.820312 373.089844 L 433.945312 373.089844 L 433.945312 401.214844 L 375.820312 401.214844 Z M 375.820312 373.089844 " clip-rule="nonzero"/></clipPath><clipPath id="701b987e78"><path d="M 412.578125 378.539062 L 423.765625 378.539062 L 423.765625 387.84375 L 412.578125 387.84375 Z M 412.578125 378.539062 " clip-rule="nonzero"/></clipPath><clipPath id="45f106b409"><path d="M 415.339844 378.640625 C 419.1875 380.355469 420.742188 381.410156 421.699219 382.300781 C 422.472656 383.015625 423.214844 383.933594 423.511719 384.488281 C 423.660156 384.773438 423.699219 384.960938 423.726562 385.207031 C 423.753906 385.449219 423.742188 385.703125 423.6875 385.949219 C 423.632812 386.191406 423.550781 386.433594 423.429688 386.652344 C 423.308594 386.867188 423.144531 387.054688 422.957031 387.21875 C 422.769531 387.378906 422.550781 387.515625 422.324219 387.609375 C 422.09375 387.703125 421.835938 387.773438 421.59375 387.785156 C 421.351562 387.800781 421.09375 387.785156 420.851562 387.71875 C 420.621094 387.648438 420.378906 387.554688 420.175781 387.421875 C 419.972656 387.285156 419.769531 387.097656 419.621094 386.90625 C 419.472656 386.71875 419.351562 386.488281 419.269531 386.257812 C 419.1875 386.027344 419.132812 385.773438 419.132812 385.53125 C 419.132812 385.285156 419.160156 385.015625 419.242188 384.785156 C 419.324219 384.558594 419.429688 384.3125 419.582031 384.125 C 419.730469 383.921875 419.917969 383.746094 420.121094 383.609375 C 420.324219 383.476562 420.554688 383.355469 420.78125 383.285156 C 421.011719 383.21875 421.28125 383.179688 421.527344 383.191406 C 421.769531 383.207031 422.023438 383.261719 422.253906 383.339844 C 422.484375 383.433594 422.714844 383.558594 422.902344 383.71875 C 423.09375 383.867188 423.269531 384.070312 423.390625 384.273438 C 423.523438 384.476562 423.621094 384.71875 423.671875 384.960938 C 423.726562 385.207031 423.753906 385.460938 423.726562 385.703125 C 423.699219 385.949219 423.632812 386.203125 423.539062 386.421875 C 423.445312 386.652344 423.296875 386.867188 423.132812 387.042969 C 422.972656 387.21875 422.769531 387.378906 422.550781 387.5 C 422.335938 387.625 422.09375 387.71875 421.851562 387.757812 C 421.605469 387.800781 421.351562 387.8125 421.105469 387.773438 C 420.863281 387.730469 420.605469 387.648438 420.390625 387.542969 C 420.175781 387.433594 420.011719 387.3125 419.796875 387.097656 C 419.445312 386.746094 419.121094 386.097656 418.554688 385.554688 C 417.703125 384.746094 415.851562 383.433594 414.933594 382.960938 C 414.433594 382.707031 414 382.691406 413.703125 382.53125 C 413.515625 382.4375 413.40625 382.339844 413.285156 382.21875 C 413.164062 382.097656 413.054688 382.003906 412.960938 381.828125 C 412.824219 381.585938 412.664062 381.191406 412.636719 380.867188 C 412.609375 380.542969 412.703125 380.113281 412.796875 379.855469 C 412.867188 379.667969 412.933594 379.558594 413.054688 379.410156 C 413.230469 379.195312 413.597656 378.910156 413.839844 378.773438 C 414.015625 378.679688 414.136719 378.625 414.324219 378.597656 C 414.59375 378.558594 415.339844 378.640625 415.339844 378.640625 " clip-rule="nonzero"/></clipPath><clipPath id="858fd6bbcc"><path d="M 423.265625 390.511719 L 427.390625 390.511719 L 427.390625 394.757812 L 423.265625 394.757812 Z M 423.265625 390.511719 " clip-rule="nonzero"/></clipPath><clipPath id="1ec250b549"><path d="M 427.386719 392.027344 C 427.386719 393.335938 427.238281 393.675781 427.035156 393.933594 C 426.835938 394.1875 426.550781 394.417969 426.253906 394.554688 C 425.957031 394.6875 425.589844 394.742188 425.265625 394.730469 C 424.941406 394.714844 424.59375 394.59375 424.308594 394.433594 C 424.023438 394.269531 423.753906 394 423.59375 393.730469 C 423.417969 393.445312 423.308594 393.09375 423.296875 392.769531 C 423.28125 392.445312 423.347656 392.082031 423.484375 391.785156 C 423.621094 391.488281 423.835938 391.203125 424.09375 391 C 424.347656 390.796875 424.6875 390.636719 425.011719 390.582031 C 425.335938 390.527344 425.699219 390.554688 426.011719 390.648438 C 426.320312 390.742188 426.875 391.164062 426.875 391.164062 " clip-rule="nonzero"/></clipPath><clipPath id="8b14a8168d"><path d="M 232 434 L 607.5 434 L 607.5 580.386719 L 232 580.386719 Z M 232 434 " clip-rule="nonzero"/></clipPath><clipPath id="a20235fe3d"><path d="M 232 388 L 607.5 388 L 607.5 474 L 232 474 Z M 232 388 " clip-rule="nonzero"/></clipPath></defs><g clip-path="url(#05159fed95)"><g clip-path="url(#72d182eb84)"><path fill="#f8c038" d="M 272.109375 268.386719 L 537.394531 268.386719 L 537.394531 522.746094 L 272.109375 522.746094 Z M 272.109375 268.386719 " fill-opacity="1" fill-rule="nonzero"/></g></g><g clip-path="url(#7fb1eb6ac1)"><g clip-path="url(#7979916886)"><path fill="#fddc66" d="M 316.121094 356.398438 L 497.839844 356.398438 L 497.839844 511.464844 L 316.121094 511.464844 Z M 316.121094 356.398438 " fill-opacity="1" fill-rule="nonzero"/></g></g><g clip-path="url(#2f9d974964)"><g clip-path="url(#7e1f2dcf72)"><path fill="#ffffff" d="M 337.261719 317.226562 L 398.378906 317.226562 L 398.378906 395.535156 L 337.261719 395.535156 Z M 337.261719 317.226562 " fill-opacity="1" fill-rule="nonzero"/></g></g><g clip-path="url(#9020ee1588)"><g clip-path="url(#3603e8990f)"><path fill="#ffffff" d="M 411.621094 317.226562 L 472.738281 317.226562 L 472.738281 395.535156 L 411.621094 395.535156 Z M 411.621094 317.226562 " fill-opacity="1" fill-rule="nonzero"/></g></g><g clip-path="url(#3b3b7154bf)"><g clip-path="url(#b5d375abe8)"><path fill="#4b4b4b" d="M 424.707031 333.160156 L 459.652344 333.160156 L 459.652344 381.347656 L 424.707031 381.347656 Z M 424.707031 333.160156 " fill-opacity="1" fill-rule="nonzero"/></g></g><g clip-path="url(#9aea788df6)"><g clip-path="url(#86e3891c2b)"><path fill="#ffffff" d="M 430.972656 361.203125 L 446.523438 361.203125 L 446.523438 379.003906 L 430.972656 379.003906 Z M 430.972656 361.203125 " fill-opacity="1" fill-rule="nonzero"/></g></g><g clip-path="url(#e8514473ff)"><g clip-path="url(#fa15e97c2b)"><path fill="#4b4b4b" d="M 349.230469 332.296875 L 384.175781 332.296875 L 384.175781 380.484375 L 349.230469 380.484375 Z M 349.230469 332.296875 " fill-opacity="1" fill-rule="nonzero"/></g></g><g clip-path="url(#96dacf1877)"><g clip-path="url(#4e2843e5e2)"><path fill="#ffffff" d="M 360.945312 361.203125 L 376.5 361.203125 L 376.5 379.003906 L 360.945312 379.003906 Z M 360.945312 361.203125 " fill-opacity="1" fill-rule="nonzero"/></g></g><g clip-path="url(#1e5f1a508a)"><g clip-path="url(#eaec4fdb39)"><g clip-path="url(#858046505a)"><path fill="#fddc66" d="M 382.292969 385.5 L 466.832031 364.050781 L 473.707031 391.140625 L 389.164062 412.585938 Z M 382.292969 385.5 " fill-opacity="1" fill-rule="nonzero"/></g></g></g><g clip-path="url(#ab26e1f9b3)"><g clip-path="url(#177b31d2e9)"><g clip-path="url(#855d871b1e)"><path fill="#fddc66" d="M 343.503906 366.070312 L 428.1875 386.9375 L 421.503906 414.070312 L 336.816406 393.203125 Z M 343.503906 366.070312 " fill-opacity="1" fill-rule="nonzero"/></g></g></g><g clip-path="url(#eccf2d0d61)"><path fill="#f86018" d="M 428.15625 395.015625 C 428.15625 395.769531 428.117188 396.523438 428.042969 397.273438 C 427.96875 398.023438 427.859375 398.769531 427.714844 399.507812 C 427.566406 400.246094 427.382812 400.976562 427.164062 401.699219 C 426.945312 402.421875 426.691406 403.128906 426.402344 403.828125 C 426.113281 404.523438 425.792969 405.203125 425.4375 405.867188 C 425.082031 406.535156 424.695312 407.179688 424.277344 407.808594 C 423.855469 408.433594 423.410156 409.039062 422.929688 409.621094 C 422.453125 410.203125 421.945312 410.761719 421.414062 411.296875 C 420.878906 411.828125 420.320312 412.332031 419.738281 412.8125 C 419.15625 413.289062 418.550781 413.738281 417.925781 414.15625 C 417.296875 414.578125 416.652344 414.964844 415.988281 415.320312 C 415.320312 415.675781 414.640625 415.996094 413.945312 416.285156 C 413.25 416.574219 412.539062 416.828125 411.816406 417.046875 C 411.097656 417.265625 410.367188 417.449219 409.625 417.59375 C 408.886719 417.742188 408.140625 417.851562 407.390625 417.925781 C 406.640625 418 405.890625 418.039062 405.136719 418.039062 C 404.382812 418.039062 403.628906 418 402.878906 417.925781 C 402.128906 417.851562 401.382812 417.742188 400.644531 417.59375 C 399.90625 417.449219 399.175781 417.265625 398.453125 417.046875 C 397.730469 416.828125 397.023438 416.574219 396.324219 416.285156 C 395.628906 415.996094 394.949219 415.675781 394.285156 415.320312 C 393.617188 414.964844 392.972656 414.578125 392.347656 414.15625 C 391.71875 413.738281 391.113281 413.289062 390.53125 412.8125 C 389.949219 412.332031 389.390625 411.828125 388.859375 411.296875 C 388.324219 410.761719 387.820312 410.203125 387.339844 409.621094 C 386.863281 409.039062 386.414062 408.433594 385.996094 407.808594 C 385.574219 407.179688 385.1875 406.535156 384.832031 405.867188 C 384.476562 405.203125 384.15625 404.523438 383.867188 403.828125 C 383.578125 403.128906 383.324219 402.421875 383.105469 401.699219 C 382.886719 400.976562 382.703125 400.246094 382.558594 399.507812 C 382.410156 398.769531 382.300781 398.023438 382.226562 397.273438 C 382.152344 396.523438 382.117188 395.769531 382.117188 395.015625 C 382.117188 394.261719 382.152344 393.511719 382.226562 392.761719 C 382.300781 392.011719 382.410156 391.265625 382.558594 390.527344 C 382.703125 389.785156 382.886719 389.054688 383.105469 388.335938 C 383.324219 387.613281 383.578125 386.90625 383.867188 386.207031 C 384.15625 385.511719 384.476562 384.832031 384.832031 384.164062 C 385.1875 383.5 385.574219 382.855469 385.996094 382.226562 C 386.414062 381.601562 386.863281 380.996094 387.339844 380.414062 C 387.820312 379.832031 388.324219 379.273438 388.859375 378.738281 C 389.390625 378.207031 389.949219 377.699219 390.53125 377.222656 C 391.113281 376.746094 391.71875 376.296875 392.347656 375.878906 C 392.972656 375.457031 393.617188 375.070312 394.285156 374.714844 C 394.949219 374.359375 395.628906 374.039062 396.324219 373.75 C 397.023438 373.460938 397.730469 373.207031 398.453125 372.988281 C 399.175781 372.769531 399.90625 372.585938 400.644531 372.441406 C 401.382812 372.292969 402.128906 372.183594 402.878906 372.109375 C 403.628906 372.035156 404.382812 371.996094 405.136719 371.996094 C 405.890625 371.996094 406.640625 372.035156 407.390625 372.109375 C 408.140625 372.183594 408.886719 372.292969 409.625 372.441406 C 410.367188 372.585938 411.097656 372.769531 411.816406 372.988281 C 412.539062 373.207031 413.25 373.460938 413.945312 373.75 C 414.640625 374.039062 415.320312 374.359375 415.988281 374.714844 C 416.652344 375.070312 417.296875 375.457031 417.925781 375.878906 C 418.550781 376.296875 419.15625 376.746094 419.738281 377.222656 C 420.320312 377.699219 420.878906 378.207031 421.414062 378.738281 C 421.945312 379.273438 422.453125 379.832031 422.929688 380.414062 C 423.410156 380.996094 423.855469 381.601562 424.277344 382.226562 C 424.695312 382.855469 425.082031 383.5 425.4375 384.164062 C 425.792969 384.832031 426.113281 385.511719 426.402344 386.207031 C 426.691406 386.90625 426.945312 387.613281 427.164062 388.335938 C 427.382812 389.054688 427.566406 389.785156 427.714844 390.527344 C 427.859375 391.265625 427.96875 392.011719 428.042969 392.761719 C 428.117188 393.511719 428.15625 394.261719 428.15625 395.015625 Z M 428.15625 395.015625 " fill-opacity="1" fill-rule="nonzero"/></g><g clip-path="url(#3d6aa3d00a)"><path fill="#f09020" d="M 434.164062 402.265625 C 434.164062 403.21875 434.117188 404.171875 434.027344 405.125 C 433.933594 406.074219 433.792969 407.019531 433.605469 407.957031 C 433.417969 408.890625 433.1875 409.816406 432.910156 410.730469 C 432.632812 411.648438 432.3125 412.546875 431.945312 413.429688 C 431.578125 414.308594 431.171875 415.171875 430.722656 416.015625 C 430.269531 416.859375 429.78125 417.675781 429.25 418.472656 C 428.71875 419.265625 428.148438 420.03125 427.542969 420.769531 C 426.9375 421.507812 426.296875 422.214844 425.621094 422.890625 C 424.945312 423.566406 424.238281 424.207031 423.5 424.816406 C 422.761719 425.421875 421.996094 425.988281 421.199219 426.519531 C 420.40625 427.050781 419.589844 427.542969 418.746094 427.992188 C 417.902344 428.441406 417.039062 428.851562 416.15625 429.214844 C 415.273438 429.582031 414.375 429.902344 413.460938 430.179688 C 412.546875 430.457031 411.621094 430.6875 410.683594 430.875 C 409.746094 431.0625 408.804688 431.203125 407.851562 431.296875 C 406.902344 431.390625 405.949219 431.4375 404.992188 431.4375 C 404.039062 431.4375 403.085938 431.390625 402.132812 431.296875 C 401.183594 431.203125 400.238281 431.0625 399.300781 430.875 C 398.367188 430.6875 397.441406 430.457031 396.523438 430.179688 C 395.609375 429.902344 394.710938 429.582031 393.828125 429.214844 C 392.945312 428.851562 392.085938 428.441406 391.242188 427.992188 C 390.398438 427.542969 389.582031 427.050781 388.785156 426.519531 C 387.992188 425.988281 387.226562 425.421875 386.488281 424.816406 C 385.75 424.207031 385.042969 423.566406 384.367188 422.890625 C 383.691406 422.214844 383.050781 421.507812 382.441406 420.769531 C 381.835938 420.03125 381.269531 419.265625 380.738281 418.472656 C 380.207031 417.675781 379.714844 416.859375 379.265625 416.015625 C 378.816406 415.171875 378.40625 414.308594 378.042969 413.429688 C 377.675781 412.546875 377.355469 411.648438 377.078125 410.730469 C 376.800781 409.816406 376.566406 408.890625 376.382812 407.957031 C 376.195312 407.019531 376.054688 406.074219 375.960938 405.125 C 375.867188 404.171875 375.820312 403.21875 375.820312 402.265625 C 375.820312 401.308594 375.867188 400.355469 375.960938 399.40625 C 376.054688 398.453125 376.195312 397.511719 376.382812 396.574219 C 376.566406 395.636719 376.800781 394.710938 377.078125 393.796875 C 377.355469 392.882812 377.675781 391.984375 378.042969 391.101562 C 378.40625 390.21875 378.816406 389.355469 379.265625 388.511719 C 379.714844 387.667969 380.207031 386.851562 380.738281 386.058594 C 381.269531 385.261719 381.835938 384.496094 382.441406 383.757812 C 383.050781 383.019531 383.691406 382.3125 384.367188 381.636719 C 385.042969 380.960938 385.75 380.320312 386.488281 379.714844 C 387.226562 379.105469 387.992188 378.539062 388.785156 378.007812 C 389.582031 377.476562 390.398438 376.988281 391.242188 376.535156 C 392.085938 376.085938 392.945312 375.679688 393.828125 375.3125 C 394.710938 374.945312 395.609375 374.625 396.523438 374.347656 C 397.441406 374.070312 398.367188 373.839844 399.300781 373.652344 C 400.238281 373.464844 401.183594 373.324219 402.132812 373.230469 C 403.085938 373.136719 404.039062 373.089844 404.992188 373.089844 C 405.949219 373.089844 406.902344 373.136719 407.851562 373.230469 C 408.804688 373.324219 409.746094 373.464844 410.683594 373.652344 C 411.621094 373.839844 412.546875 374.070312 413.460938 374.347656 C 414.375 374.625 415.273438 374.945312 416.15625 375.3125 C 417.039062 375.679688 417.902344 376.085938 418.746094 376.535156 C 419.589844 376.988281 420.40625 377.476562 421.199219 378.007812 C 421.996094 378.539062 422.761719 379.105469 423.5 379.714844 C 424.238281 380.320312 424.945312 380.960938 425.621094 381.636719 C 426.296875 382.3125 426.9375 383.019531 427.542969 383.757812 C 428.148438 384.496094 428.71875 385.261719 429.25 386.058594 C 429.78125 386.851562 430.269531 387.667969 430.722656 388.511719 C 431.171875 389.355469 431.578125 390.21875 431.945312 391.101562 C 432.3125 391.984375 432.632812 392.882812 432.910156 393.796875 C 433.1875 394.710938 433.417969 395.636719 433.605469 396.574219 C 433.792969 397.511719 433.933594 398.453125 434.027344 399.40625 C 434.117188 400.355469 434.164062 401.308594 434.164062 402.265625 Z M 434.164062 402.265625 " fill-opacity="1" fill-rule="nonzero"/></g><g clip-path="url(#701b987e78)"><g clip-path="url(#45f106b409)"><path fill="#ffffff" d="M 412.097656 378.058594 L 424.246094 378.058594 L 424.246094 388.324219 L 412.097656 388.324219 Z M 412.097656 378.058594 " fill-opacity="1" fill-rule="nonzero"/></g></g><g clip-path="url(#858fd6bbcc)"><g clip-path="url(#1ec250b549)"><path fill="#ffffff" d="M 422.753906 390.042969 L 427.984375 390.042969 L 427.984375 395.269531 L 422.753906 395.269531 Z M 422.753906 390.042969 " fill-opacity="1" fill-rule="nonzero"/></g></g><path stroke-linecap="round" transform="matrix(-0.9375, 0.00000000163625, -0.00000000163625, -0.9375, 390.09391, 396.503906)" fill="none" stroke-linejoin="miter" d="M 1.000171 1 L 9.504338 1 " stroke="#c8831a" stroke-width="2" stroke-opacity="1" stroke-miterlimit="4"/><path stroke-linecap="round" transform="matrix(-0.9375, -0.00000000163625, 0.00000000163625, -0.9375, 390.084622, 391.001484)" fill="none" stroke-linejoin="miter" d="M 0.998597 1.001583 L 5.652764 1.001583 " stroke="#c8831a" stroke-width="2" stroke-opacity="1" stroke-miterlimit="4"/><path stroke-linecap="round" transform="matrix(-0.9375, -0.00000000163625, 0.00000000163625, -0.9375, 390.085414, 385.913907)" fill="none" stroke-linejoin="miter" d="M 0.999442 0.999834 L 2.853609 0.999834 " stroke="#c8831a" stroke-width="2" stroke-opacity="1" stroke-miterlimit="4"/><path fill="#39b54a" d="M 403.585938 251.746094 C 402.691406 249.710938 401.359375 245.753906 402.667969 241.527344 C 404.8125 234.59375 413.230469 229.621094 423.359375 230.265625 C 424.703125 238.726562 421.386719 246.648438 415.140625 250.1875 C 410.933594 252.570312 406.578125 252.292969 404.511719 252.007812 C 406.625 250.429688 409 248.398438 411.371094 245.828125 C 415.03125 241.867188 417.472656 237.929688 419.089844 234.792969 C 416.765625 237.988281 413.976562 241.4375 410.640625 244.964844 C 408.234375 247.507812 405.855469 249.761719 403.585938 251.746094 Z M 403.585938 251.746094 " fill-opacity="1" fill-rule="nonzero"/><path fill="#39b54a" d="M 400.886719 251.964844 C 399.304688 252.4375 396.261719 253.058594 393.246094 251.757812 C 388.300781 249.625 385.339844 243.148438 386.679688 235.917969 C 393.050781 235.671875 398.632812 238.730469 400.71875 243.523438 C 402.121094 246.75 401.542969 249.863281 401.160156 251.324219 C 400.171875 249.667969 398.871094 247.789062 397.171875 245.863281 C 394.550781 242.894531 391.847656 240.800781 389.664062 239.371094 C 391.828125 241.316406 394.144531 243.617188 396.46875 246.316406 C 398.148438 248.261719 399.609375 250.164062 400.886719 251.964844 Z M 400.886719 251.964844 " fill-opacity="1" fill-rule="nonzero"/><path fill="#0c9146" d="M 332.25 400.40625 C 330.160156 375.980469 315.457031 357.261719 299.550781 358.625 C 286.855469 359.75 277.214844 373.089844 274.804688 390.765625 C 265.085938 370.277344 249.660156 357.582031 239.292969 362 C 228.289062 366.660156 227.164062 388.757812 236.722656 411.335938 C 237.6875 413.664062 238.8125 415.914062 239.9375 418.082031 C 224.832031 410.933594 209.96875 410.933594 206.355469 418.246094 C 202.738281 425.714844 212.136719 437.769531 227.402344 445.320312 C 242.667969 452.875 258.09375 452.875 261.710938 445.480469 C 262.113281 444.679688 262.273438 443.792969 262.433594 442.910156 C 266.53125 444.839844 270.46875 445.242188 273.921875 443.792969 C 278.261719 441.945312 281.070312 437.285156 282.277344 430.9375 C 288.464844 441.464844 297.621094 447.972656 307.183594 447.089844 C 323.089844 445.804688 334.339844 424.832031 332.25 400.40625 Z M 332.25 400.40625 " fill-opacity="1" fill-rule="nonzero"/><path fill="#127d3f" d="M 247.808594 407.15625 C 249.496094 387.792969 261.148438 372.929688 273.761719 373.972656 C 283.804688 374.855469 291.4375 385.460938 293.363281 399.523438 C 301.078125 383.292969 313.371094 373.167969 321.566406 376.703125 C 330.242188 380.402344 331.207031 397.917969 323.574219 415.832031 C 322.769531 417.683594 321.964844 419.449219 321.003906 421.136719 C 332.972656 415.433594 344.785156 415.511719 347.59375 421.296875 C 350.488281 427.164062 343.015625 436.804688 330.882812 442.75 C 318.753906 448.695312 306.539062 448.777344 303.648438 442.832031 C 303.328125 442.1875 303.167969 441.546875 303.085938 440.820312 C 299.792969 442.347656 296.660156 442.671875 294.007812 441.546875 C 290.550781 440.097656 288.304688 436.402344 287.339844 431.339844 C 282.4375 439.695312 275.207031 444.839844 267.574219 444.195312 C 255.042969 443.234375 246.125 426.601562 247.808594 407.15625 Z M 247.808594 407.15625 " fill-opacity="1" fill-rule="nonzero"/><g clip-path="url(#8b14a8168d)"><path fill="#eecfba" d="M 607.261719 446.929688 C 607.261719 520.605469 523.382812 580.386719 419.902344 580.386719 C 316.421875 580.386719 232.546875 520.6875 232.546875 446.929688 C 232.546875 442.832031 232.785156 438.8125 233.347656 434.875 C 242.667969 456.410156 322.609375 473.121094 419.824219 473.121094 C 517.4375 473.121094 597.699219 456.167969 606.457031 434.554688 C 607.019531 438.652344 607.261719 442.75 607.261719 446.929688 Z M 607.261719 446.929688 " fill-opacity="1" fill-rule="nonzero"/></g><g clip-path="url(#a20235fe3d)"><path fill="#fff6dc" d="M 607.261719 430.617188 C 607.261719 431.984375 607.019531 433.269531 606.457031 434.554688 C 597.699219 456.167969 517.4375 473.121094 419.824219 473.121094 C 322.609375 473.121094 242.589844 456.328125 233.347656 434.875 C 232.707031 433.511719 232.382812 432.0625 232.382812 430.617188 C 232.382812 427.964844 233.507812 425.316406 235.597656 422.742188 C 251.828125 403.058594 328.152344 388.113281 419.824219 388.113281 C 511.894531 388.113281 588.460938 403.140625 604.289062 422.984375 C 606.21875 425.476562 607.261719 428.046875 607.261719 430.617188 Z M 607.261719 430.617188 " fill-opacity="1" fill-rule="nonzero"/></g><path fill="#eabeac" d="M 597.378906 431.101562 C 597.378906 435.277344 594.246094 439.214844 588.382812 442.910156 C 564.921875 429.332031 498.316406 419.609375 419.824219 419.609375 C 341.328125 419.609375 274.726562 429.332031 251.265625 442.910156 C 245.398438 439.214844 242.265625 435.277344 242.265625 431.101562 C 242.265625 410.371094 321.804688 393.65625 419.824219 393.65625 C 517.839844 393.65625 597.378906 410.371094 597.378906 431.101562 Z M 597.378906 431.101562 " fill-opacity="1" fill-rule="nonzero"/><path fill="#f69320" d="M 588.382812 442.910156 C 564.921875 457.855469 498.316406 468.621094 419.824219 468.621094 C 341.328125 468.621094 274.726562 457.855469 251.265625 442.910156 C 274.726562 429.332031 341.328125 419.609375 419.824219 419.609375 C 498.316406 419.609375 564.921875 429.332031 588.382812 442.910156 Z M 588.382812 442.910156 " fill-opacity="1" fill-rule="nonzero"/><path fill="#ffffff" d="M 361.171875 436.886719 C 357.71875 439.695312 357.238281 444.757812 359.96875 448.132812 L 372.421875 438.011719 C 369.691406 434.636719 364.628906 434.152344 361.171875 436.886719 Z M 456.78125 439.375 C 452.523438 438.332031 448.105469 440.902344 447.058594 445.242188 L 462.644531 449.179688 C 463.691406 444.757812 461.039062 440.421875 456.78125 439.375 Z M 514.464844 423.867188 C 510.851562 426.441406 509.96875 431.421875 512.539062 435.035156 L 525.632812 425.796875 C 523.0625 422.179688 518.082031 421.296875 514.464844 423.867188 Z M 302.203125 434.714844 C 298.425781 433.914062 294.730469 436.324219 293.925781 440.019531 L 307.503906 442.910156 C 308.308594 439.214844 305.976562 435.519531 302.203125 434.714844 Z M 302.203125 434.714844 " fill-opacity="1" fill-rule="nonzero"/><path fill="#2c5f2f" d="M 558.332031 434.152344 C 558.253906 434.152344 558.253906 434.152344 558.171875 434.152344 C 558.734375 433.589844 559.136719 432.867188 559.21875 432.0625 C 559.539062 430.136719 558.332031 428.449219 556.644531 428.289062 C 556.40625 428.289062 556.164062 428.289062 555.921875 428.289062 C 556.246094 427.804688 556.40625 427.324219 556.484375 426.761719 C 556.804688 424.832031 555.601562 423.144531 553.914062 422.984375 C 553.511719 422.90625 553.03125 422.984375 552.628906 423.144531 C 552.710938 422.90625 552.789062 422.664062 552.789062 422.421875 C 553.109375 420.492188 551.90625 418.808594 550.21875 418.644531 C 549.574219 418.566406 549.011719 418.726562 548.449219 419.046875 C 548.613281 417.28125 547.488281 415.671875 545.878906 415.511719 C 545.078125 415.433594 544.191406 415.671875 543.550781 416.234375 C 543.308594 414.871094 542.34375 413.824219 540.980469 413.664062 C 539.933594 413.503906 538.890625 414.066406 538.167969 414.871094 C 537.925781 414.46875 537.683594 414.148438 537.363281 413.824219 C 536.722656 412.859375 535.757812 412.136719 534.550781 412.058594 C 533.75 411.976562 532.945312 412.136719 532.222656 412.539062 C 532.460938 410.210938 530.9375 408.121094 528.847656 407.878906 C 527.722656 407.71875 526.679688 408.121094 525.792969 408.84375 C 525.472656 407.074219 524.1875 405.710938 522.421875 405.550781 C 521.054688 405.390625 519.6875 406.03125 518.722656 407.15625 C 518.160156 405.953125 517.117188 405.148438 515.75 404.988281 C 513.984375 404.828125 512.378906 405.789062 511.492188 407.476562 C 510.929688 406.835938 510.128906 406.351562 509.164062 406.273438 C 507.074219 406.03125 505.066406 407.558594 504.503906 409.808594 C 504.023438 409.488281 503.539062 409.324219 502.976562 409.246094 C 500.726562 409.003906 498.558594 410.773438 498.15625 413.261719 C 498.15625 413.421875 498.078125 413.664062 498.078125 413.824219 C 497.835938 413.746094 497.59375 413.664062 497.273438 413.664062 C 496.390625 413.585938 495.425781 413.824219 494.703125 414.308594 C 494.378906 414.148438 493.980469 413.984375 493.578125 413.90625 C 492.292969 413.746094 491.007812 414.546875 490.363281 415.753906 C 489.882812 415.273438 489.320312 414.949219 488.597656 414.871094 C 487.070312 414.710938 485.542969 415.832031 485.140625 417.519531 C 484.820312 417.28125 484.417969 417.121094 484.015625 417.121094 C 482.328125 416.957031 480.722656 418.324219 480.480469 420.171875 C 480.480469 420.332031 480.480469 420.414062 480.402344 420.574219 C 480.242188 420.492188 480 420.492188 479.839844 420.414062 C 478.152344 420.253906 476.542969 421.617188 476.304688 423.46875 C 476.222656 423.867188 476.222656 424.269531 476.304688 424.671875 C 474.617188 424.511719 473.007812 425.878906 472.769531 427.726562 C 472.6875 428.449219 472.769531 429.089844 473.007812 429.734375 C 471.484375 429.8125 470.199219 431.101562 469.875 432.789062 C 469.714844 433.75 469.957031 434.714844 470.519531 435.4375 C 469.234375 435.679688 468.109375 436.886719 467.867188 438.410156 C 467.789062 439.054688 467.867188 439.695312 468.027344 440.257812 L 483.132812 440.257812 C 482.972656 440.019531 482.972656 439.777344 483.050781 439.535156 C 483.214844 438.894531 483.777344 438.410156 484.578125 438.332031 C 484.257812 438.089844 484.175781 437.6875 484.257812 437.285156 C 484.417969 436.644531 485.140625 436.082031 486.023438 436.082031 C 485.863281 435.839844 485.863281 435.597656 485.863281 435.277344 C 486.023438 434.554688 486.910156 433.992188 487.871094 434.074219 C 487.871094 433.914062 487.792969 433.75 487.871094 433.589844 C 488.035156 432.867188 488.917969 432.304688 489.882812 432.386719 C 489.960938 432.386719 490.121094 432.386719 490.203125 432.464844 C 490.203125 432.386719 490.203125 432.386719 490.203125 432.304688 L 490.28125 432.304688 C 490.28125 432.304688 490.363281 432.304688 490.363281 432.304688 L 490.523438 432.304688 C 490.523438 432.386719 490.445312 432.386719 490.445312 432.464844 L 491.328125 432.464844 C 491.570312 431.824219 492.371094 431.339844 493.253906 431.421875 C 493.417969 431.421875 493.496094 431.421875 493.578125 431.5 C 493.496094 431.582031 493.335938 431.664062 493.253906 431.824219 L 494.140625 431.824219 C 494.460938 431.339844 495.183594 431.019531 495.90625 431.101562 C 496.230469 431.101562 496.550781 431.261719 496.789062 431.421875 C 496.550781 431.5 496.390625 431.582031 496.230469 431.742188 L 497.113281 431.742188 C 497.515625 431.421875 498.078125 431.179688 498.640625 431.261719 C 499.203125 431.339844 499.683594 431.582031 499.925781 431.984375 C 499.601562 431.984375 499.363281 432.144531 499.121094 432.226562 L 500.003906 432.226562 C 500.324219 431.984375 500.808594 431.902344 501.289062 431.902344 C 502.175781 431.984375 502.816406 432.625 502.734375 433.269531 C 503.058594 433.1875 503.378906 433.109375 503.699219 433.109375 C 503.699219 432.949219 503.699219 432.707031 503.699219 432.464844 C 503.859375 431.421875 504.746094 430.699219 505.628906 430.859375 C 505.707031 430.859375 505.871094 430.859375 505.949219 430.9375 C 505.949219 430.859375 505.949219 430.777344 505.949219 430.699219 C 506.109375 429.652344 506.996094 428.929688 507.878906 429.089844 C 508.121094 429.089844 508.359375 429.171875 508.519531 429.332031 C 508.761719 428.449219 509.566406 427.804688 510.367188 427.886719 C 510.769531 427.964844 511.09375 428.128906 511.332031 428.367188 C 511.332031 428.367188 511.414062 428.367188 511.414062 428.289062 C 511.414062 428.289062 511.414062 428.289062 511.492188 428.289062 C 511.816406 428.128906 512.136719 428.046875 512.457031 428.046875 C 512.539062 428.046875 512.617188 428.046875 512.617188 428.046875 C 513.019531 427.566406 513.503906 427.324219 514.144531 427.402344 C 514.867188 427.484375 515.351562 428.046875 515.511719 428.769531 C 515.832031 428.449219 516.3125 428.367188 516.714844 428.367188 C 517.597656 428.449219 518.160156 429.332031 518.082031 430.214844 C 518.402344 430.054688 518.722656 429.976562 519.046875 430.054688 C 519.449219 430.136719 519.769531 430.296875 520.011719 430.539062 C 520.089844 430.539062 520.171875 430.539062 520.25 430.539062 C 520.652344 430.617188 520.972656 430.859375 521.132812 431.179688 C 521.457031 430.859375 521.859375 430.617188 522.257812 430.699219 C 522.820312 430.777344 523.222656 431.179688 523.304688 431.742188 C 523.542969 431.5 523.867188 431.421875 524.269531 431.421875 C 524.910156 431.5 525.394531 432.144531 525.3125 432.867188 C 525.554688 432.789062 525.792969 432.707031 526.035156 432.707031 C 526.757812 432.789062 527.160156 433.429688 527.078125 434.234375 C 527.078125 434.3125 527 434.394531 527 434.554688 C 527.160156 434.472656 527.320312 434.472656 527.480469 434.472656 C 528.203125 434.554688 528.605469 435.199219 528.527344 436 C 528.527344 436.242188 528.445312 436.402344 528.285156 436.644531 C 528.367188 436.644531 528.445312 436.644531 528.605469 436.644531 C 529.328125 436.722656 529.730469 437.367188 529.652344 438.171875 C 529.570312 438.492188 529.410156 438.8125 529.25 439.054688 C 529.25 439.054688 529.328125 439.054688 529.328125 439.054688 C 530.050781 439.132812 530.453125 439.777344 530.375 440.582031 L 557.128906 440.582031 C 557.609375 440.019531 557.929688 439.375 558.09375 438.574219 C 561.226562 436.082031 560.101562 434.394531 558.332031 434.152344 Z M 558.332031 434.152344 " fill-opacity="1" fill-rule="evenodd"/><path fill="#2e7a3d" d="M 551.585938 434.152344 C 551.503906 434.152344 551.503906 434.152344 551.421875 434.152344 C 551.984375 433.589844 552.386719 432.867188 552.46875 432.0625 C 552.789062 430.136719 551.585938 428.449219 549.898438 428.289062 C 549.65625 428.289062 549.414062 428.289062 549.175781 428.289062 C 549.496094 427.804688 549.65625 427.324219 549.738281 426.761719 C 550.058594 424.832031 548.851562 423.144531 547.164062 422.984375 C 546.765625 422.90625 546.28125 422.984375 545.878906 423.144531 C 545.960938 422.90625 546.039062 422.664062 546.039062 422.421875 C 546.363281 420.492188 545.15625 418.808594 543.46875 418.644531 C 542.828125 418.566406 542.265625 418.726562 541.703125 419.046875 C 541.863281 417.28125 540.738281 415.671875 539.132812 415.511719 C 538.328125 415.433594 537.445312 415.671875 536.800781 416.234375 C 536.558594 414.871094 535.597656 413.824219 534.230469 413.664062 C 533.1875 413.503906 532.140625 414.066406 531.417969 414.871094 C 531.257812 414.46875 530.9375 414.148438 530.613281 413.824219 C 529.972656 412.859375 529.007812 412.136719 527.804688 412.058594 C 527 411.976562 526.195312 412.136719 525.472656 412.539062 C 525.714844 410.210938 524.1875 408.121094 522.097656 407.878906 C 520.972656 407.71875 519.929688 408.121094 519.046875 408.84375 C 518.722656 407.074219 517.4375 405.710938 515.671875 405.550781 C 514.304688 405.390625 512.941406 406.03125 511.976562 407.15625 C 511.414062 405.953125 510.367188 405.148438 509.003906 404.988281 C 507.234375 404.828125 505.628906 405.789062 504.746094 407.476562 C 504.183594 406.835938 503.378906 406.351562 502.414062 406.273438 C 500.324219 406.03125 498.316406 407.558594 497.753906 409.808594 C 497.273438 409.488281 496.789062 409.324219 496.230469 409.246094 C 493.980469 409.003906 491.808594 410.773438 491.40625 413.261719 C 491.40625 413.421875 491.328125 413.664062 491.328125 413.824219 C 491.085938 413.746094 490.84375 413.664062 490.523438 413.664062 C 489.640625 413.585938 488.675781 413.824219 487.953125 414.308594 C 487.632812 414.148438 487.230469 413.984375 486.828125 413.90625 C 485.542969 413.746094 484.257812 414.546875 483.613281 415.753906 C 483.132812 415.273438 482.570312 414.949219 481.847656 414.871094 C 480.320312 414.710938 478.792969 415.832031 478.390625 417.519531 C 478.070312 417.28125 477.667969 417.121094 477.269531 417.121094 C 475.582031 416.957031 473.972656 418.324219 473.734375 420.171875 C 473.734375 420.332031 473.734375 420.414062 473.652344 420.574219 C 473.492188 420.492188 473.25 420.492188 473.089844 420.414062 C 471.402344 420.253906 469.796875 421.617188 469.554688 423.46875 C 469.472656 423.867188 469.472656 424.269531 469.554688 424.671875 C 467.867188 424.511719 466.261719 425.878906 466.019531 427.726562 C 465.941406 428.449219 466.019531 429.089844 466.261719 429.734375 C 464.734375 429.8125 463.449219 431.101562 463.128906 432.789062 C 462.96875 433.75 463.207031 434.714844 463.769531 435.4375 C 462.484375 435.679688 461.359375 436.886719 461.117188 438.410156 C 461.039062 439.054688 461.117188 439.695312 461.359375 440.257812 L 482.328125 440.257812 C 482.488281 439.617188 483.050781 439.132812 483.855469 439.054688 C 483.535156 438.8125 483.453125 438.410156 483.535156 438.011719 C 483.695312 437.367188 484.417969 436.804688 485.300781 436.804688 C 485.140625 436.5625 485.140625 436.324219 485.140625 436 C 485.300781 435.277344 486.1875 434.714844 487.148438 434.796875 C 487.148438 434.636719 487.070312 434.472656 487.148438 434.3125 C 487.308594 433.589844 488.195312 433.027344 489.160156 433.109375 C 489.238281 433.109375 489.398438 433.109375 489.480469 433.1875 C 489.480469 433.109375 489.480469 433.109375 489.480469 433.027344 C 489.640625 432.304688 490.523438 431.742188 491.488281 431.824219 C 491.730469 431.824219 491.96875 431.902344 492.132812 431.984375 C 492.371094 431.339844 493.175781 430.859375 494.058594 430.9375 C 494.460938 430.9375 494.78125 431.101562 495.023438 431.261719 C 495.34375 430.777344 496.066406 430.457031 496.789062 430.539062 C 497.351562 430.617188 497.753906 430.859375 497.996094 431.179688 C 498.398438 430.859375 498.960938 430.617188 499.523438 430.699219 C 500.246094 430.777344 500.808594 431.179688 500.886719 431.664062 C 501.210938 431.421875 501.691406 431.339844 502.175781 431.339844 C 503.058594 431.421875 504.585938 432.0625 504.503906 432.707031 C 504.824219 432.625 505.148438 432.546875 505.46875 432.546875 L 505.148438 432.546875 C 504.824219 432.546875 504.746094 432.625 504.585938 432.625 C 504.585938 432.625 504.503906 432.304688 504.503906 431.902344 C 504.664062 430.859375 505.546875 430.136719 506.433594 430.296875 C 506.511719 430.296875 506.671875 430.296875 506.753906 430.375 C 506.753906 430.296875 506.753906 430.214844 506.753906 430.136719 C 506.753906 429.894531 506.832031 429.652344 506.996094 429.492188 C 507.316406 429.332031 507.636719 429.253906 508.039062 429.253906 C 508.28125 429.253906 508.519531 429.332031 508.679688 429.492188 C 508.921875 428.609375 509.726562 427.964844 510.53125 428.046875 C 510.929688 428.128906 511.253906 428.289062 511.492188 428.527344 C 511.816406 427.886719 512.539062 427.484375 513.179688 427.566406 C 513.742188 427.644531 514.144531 427.964844 514.386719 428.449219 C 514.789062 427.964844 515.269531 427.726562 515.914062 427.804688 C 516.636719 427.886719 517.117188 428.449219 517.277344 429.171875 C 517.597656 428.851562 518.082031 428.769531 518.484375 428.769531 C 519.367188 428.851562 519.929688 429.734375 519.847656 430.617188 C 520.171875 430.457031 520.492188 430.375 520.8125 430.457031 C 521.214844 430.539062 521.535156 430.699219 521.777344 430.9375 L 521.859375 430.9375 C 522.257812 431.019531 522.582031 431.261719 522.742188 431.582031 C 523.0625 431.261719 523.464844 431.019531 523.867188 431.101562 C 524.429688 431.179688 524.832031 431.582031 524.910156 432.144531 C 525.152344 431.902344 525.472656 431.824219 525.875 431.824219 C 526.515625 431.902344 527 432.546875 526.917969 433.269531 C 527.160156 433.1875 527.402344 433.109375 527.640625 433.109375 C 528.367188 433.1875 528.765625 433.832031 528.6875 434.636719 C 528.6875 434.714844 528.6875 434.796875 528.605469 434.957031 C 528.765625 434.875 528.929688 434.875 529.089844 434.875 C 529.8125 434.957031 530.214844 435.597656 530.132812 436.402344 C 530.132812 436.644531 530.050781 436.804688 529.890625 437.046875 C 529.972656 437.046875 530.050781 437.046875 530.214844 437.046875 C 530.9375 437.125 531.339844 437.769531 531.257812 438.574219 C 531.175781 438.894531 531.015625 439.214844 530.855469 439.457031 C 530.855469 439.457031 530.9375 439.457031 530.9375 439.457031 C 531.660156 439.535156 532.0625 440.179688 531.980469 440.984375 L 552.871094 440.984375 C 553.351562 440.421875 553.671875 439.777344 553.832031 438.972656 C 554.476562 436.082031 553.351562 434.394531 551.585938 434.152344 Z M 551.585938 434.152344 " fill-opacity="1" fill-rule="evenodd"/><path fill="#2e7a3d" d="M 402.871094 415.996094 C 383.507812 423.867188 370.652344 437.367188 374.269531 446.125 C 377.804688 454.882812 396.445312 455.6875 415.804688 447.8125 C 435.167969 439.9375 448.023438 426.441406 444.40625 417.683594 C 440.871094 408.925781 422.234375 408.121094 402.871094 415.996094 Z M 413.476562 442.109375 C 401.023438 447.167969 389.050781 446.6875 386.800781 440.984375 C 384.472656 435.359375 392.746094 426.679688 405.199219 421.617188 C 417.652344 416.558594 429.625 417.039062 431.875 422.742188 C 434.203125 428.449219 425.929688 437.125 413.476562 442.109375 Z M 413.476562 442.109375 " fill-opacity="1" fill-rule="evenodd"/><path fill="#2e7a3d" d="M 338.4375 436.644531 C 349.363281 441.0625 356.511719 448.617188 354.503906 453.597656 C 352.496094 458.578125 342.050781 458.980469 331.125 454.5625 C 320.199219 450.140625 313.046875 442.589844 315.058594 437.609375 C 317.144531 432.707031 327.589844 432.226562 338.4375 436.644531 Z M 332.492188 451.347656 C 339.480469 454.160156 346.230469 453.917969 347.515625 450.703125 C 348.800781 447.492188 344.140625 442.671875 337.152344 439.777344 C 330.160156 436.886719 323.414062 437.207031 322.128906 440.421875 C 320.839844 443.632812 325.5 448.535156 332.492188 451.347656 Z M 332.492188 451.347656 " fill-opacity="1" fill-rule="evenodd"/><path fill="#2c5f2f" d="M 345.585938 429.171875 C 345.425781 428.128906 344.621094 427.242188 343.738281 427.082031 C 344.140625 426.601562 344.300781 425.957031 344.140625 425.234375 C 343.980469 424.03125 343.015625 423.144531 341.972656 423.066406 C 342.132812 422.664062 342.210938 422.179688 342.132812 421.699219 C 341.890625 420.414062 340.847656 419.449219 339.640625 419.609375 C 339.722656 419.371094 339.722656 419.046875 339.640625 418.726562 C 339.402344 417.441406 338.355469 416.476562 337.152344 416.636719 C 336.992188 416.636719 336.910156 416.71875 336.75 416.71875 C 336.75 416.636719 336.75 416.558594 336.75 416.394531 C 336.507812 415.109375 335.464844 414.148438 334.257812 414.308594 C 333.9375 414.308594 333.695312 414.46875 333.457031 414.628906 C 333.132812 413.503906 332.089844 412.699219 331.046875 412.78125 C 330.5625 412.859375 330.160156 413.101562 329.839844 413.421875 C 329.359375 412.539062 328.554688 412.058594 327.589844 412.136719 C 327.347656 412.136719 327.027344 412.296875 326.867188 412.378906 C 326.304688 412.058594 325.660156 411.898438 325.019531 411.898438 C 324.859375 411.898438 324.617188 411.976562 324.457031 412.058594 C 324.457031 411.898438 324.457031 411.816406 324.457031 411.65625 C 324.214844 409.886719 322.6875 408.601562 321.082031 408.84375 C 320.679688 408.925781 320.277344 409.003906 319.957031 409.246094 C 319.554688 407.71875 318.109375 406.59375 316.664062 406.753906 C 316.019531 406.835938 315.457031 407.15625 315.058594 407.558594 C 314.496094 406.433594 313.289062 405.710938 312.085938 405.789062 C 311.121094 405.871094 310.398438 406.511719 309.996094 407.316406 C 309.351562 406.511719 308.386719 406.113281 307.425781 406.191406 C 306.21875 406.351562 305.335938 407.316406 305.09375 408.523438 C 304.53125 408.039062 303.730469 407.800781 303.003906 407.878906 C 301.480469 408.039062 300.433594 409.488281 300.59375 411.171875 C 300.113281 410.933594 299.550781 410.773438 298.988281 410.851562 C 298.183594 410.933594 297.460938 411.414062 297.058594 412.136719 C 296.820312 412.296875 296.660156 412.539062 296.496094 412.859375 C 296.015625 412.296875 295.292969 411.898438 294.488281 411.976562 C 293.523438 412.058594 292.882812 412.78125 292.722656 413.746094 C 292.238281 413.34375 291.675781 413.183594 291.113281 413.261719 C 289.988281 413.421875 289.1875 414.46875 289.265625 415.753906 C 288.867188 415.511719 288.464844 415.433594 287.980469 415.511719 C 286.777344 415.671875 285.972656 416.878906 286.214844 418.164062 C 286.214844 418.324219 286.292969 418.484375 286.375 418.644531 C 286.054688 418.566406 285.8125 418.484375 285.492188 418.566406 C 284.285156 418.726562 283.480469 419.929688 283.722656 421.21875 C 283.804688 421.617188 283.964844 421.941406 284.125 422.261719 C 283.964844 422.261719 283.804688 422.261719 283.644531 422.261719 C 282.4375 422.421875 281.632812 423.628906 281.875 424.914062 C 281.957031 425.476562 282.277344 426.039062 282.597656 426.441406 C 282.519531 426.441406 282.519531 426.441406 282.4375 426.441406 C 281.234375 426.601562 280.429688 427.804688 280.671875 429.089844 C 280.75 429.652344 280.992188 430.136719 281.3125 430.539062 L 300.03125 430.539062 C 299.953125 429.976562 300.273438 429.492188 300.757812 429.492188 C 300.757812 429.492188 300.757812 429.492188 300.835938 429.492188 C 300.675781 429.332031 300.59375 429.089844 300.515625 428.929688 C 300.433594 428.367188 300.757812 427.886719 301.238281 427.886719 C 301.316406 427.886719 301.398438 427.886719 301.480469 427.886719 C 301.398438 427.726562 301.316406 427.644531 301.316406 427.484375 C 301.238281 426.921875 301.558594 426.441406 302.042969 426.441406 C 302.203125 426.441406 302.28125 426.441406 302.363281 426.441406 C 302.363281 426.359375 302.363281 426.277344 302.28125 426.199219 C 302.203125 425.636719 302.523438 425.152344 303.003906 425.152344 C 303.167969 425.152344 303.328125 425.152344 303.488281 425.234375 C 303.40625 424.753906 303.730469 424.269531 304.210938 424.269531 C 304.453125 424.269531 304.691406 424.351562 304.851562 424.511719 C 304.933594 424.109375 305.175781 423.867188 305.578125 423.789062 C 305.898438 423.789062 306.140625 423.867188 306.378906 424.109375 C 306.539062 423.867188 306.703125 423.707031 307.023438 423.628906 C 307.101562 423.628906 307.101562 423.628906 307.183594 423.628906 C 307.34375 423.46875 307.585938 423.304688 307.824219 423.304688 C 308.066406 423.304688 308.308594 423.304688 308.46875 423.46875 C 308.386719 422.824219 308.789062 422.179688 309.433594 422.179688 C 309.753906 422.179688 310.074219 422.261719 310.316406 422.421875 C 310.398438 421.941406 310.796875 421.539062 311.28125 421.457031 C 311.683594 421.378906 312.085938 421.617188 312.324219 421.941406 C 312.40625 421.941406 312.40625 421.941406 312.484375 421.941406 C 312.726562 421.941406 312.96875 421.941406 313.128906 422.101562 C 313.128906 422.101562 313.128906 422.101562 313.210938 422.101562 C 313.371094 421.941406 313.609375 421.78125 313.851562 421.78125 C 314.414062 421.699219 314.976562 422.179688 315.136719 422.742188 C 315.296875 422.664062 315.378906 422.582031 315.539062 422.582031 C 316.183594 422.503906 316.742188 422.984375 316.90625 423.707031 C 316.90625 423.789062 316.90625 423.789062 316.90625 423.867188 C 316.984375 423.867188 317.066406 423.789062 317.144531 423.789062 C 317.789062 423.707031 318.351562 424.269531 318.511719 424.914062 C 318.511719 425.074219 318.511719 425.234375 318.511719 425.394531 C 318.753906 425.394531 318.992188 425.394531 319.234375 425.476562 C 319.15625 424.992188 319.636719 424.511719 320.199219 424.511719 C 320.519531 424.511719 320.839844 424.589844 321.082031 424.671875 L 321.726562 424.671875 C 321.566406 424.589844 321.402344 424.511719 321.164062 424.511719 C 321.324219 424.269531 321.644531 424.03125 322.046875 424.03125 C 322.449219 424.03125 322.851562 424.109375 323.089844 424.351562 L 323.734375 424.351562 C 323.652344 424.269531 323.492188 424.191406 323.332031 424.109375 C 323.492188 424.03125 323.734375 423.949219 323.976562 423.867188 C 324.457031 423.789062 324.9375 424.03125 325.261719 424.351562 L 325.902344 424.351562 C 325.824219 424.269531 325.742188 424.191406 325.660156 424.109375 C 325.742188 424.109375 325.824219 424.109375 325.902344 424.03125 C 326.546875 423.949219 327.109375 424.269531 327.269531 424.753906 L 327.910156 424.753906 C 327.910156 424.671875 327.910156 424.671875 327.832031 424.589844 C 327.832031 424.589844 327.832031 424.589844 327.910156 424.589844 L 327.992188 424.589844 C 327.992188 424.589844 327.992188 424.671875 327.992188 424.671875 C 328.074219 424.671875 328.152344 424.671875 328.234375 424.671875 C 328.875 424.589844 329.519531 424.992188 329.597656 425.554688 C 329.597656 425.636719 329.597656 425.796875 329.597656 425.878906 C 330.242188 425.796875 330.882812 426.199219 330.964844 426.761719 C 331.046875 427.003906 330.964844 427.164062 330.882812 427.324219 C 331.445312 427.324219 332.007812 427.726562 332.089844 428.207031 C 332.167969 428.527344 332.089844 428.769531 331.847656 428.929688 C 332.332031 429.011719 332.8125 429.332031 332.894531 429.734375 C 332.972656 429.894531 332.894531 430.136719 332.8125 430.296875 L 343.417969 430.296875 C 345.585938 430.136719 345.667969 429.652344 345.585938 429.171875 Z M 345.585938 429.171875 " fill-opacity="1" fill-rule="evenodd"/><path fill="#2e7a3d" d="M 350.328125 429.171875 C 350.167969 428.128906 349.363281 427.242188 348.480469 427.082031 C 348.882812 426.601562 349.042969 425.957031 348.882812 425.234375 C 348.71875 424.03125 347.757812 423.144531 346.710938 423.066406 C 346.871094 422.664062 346.953125 422.179688 346.871094 421.699219 C 346.632812 420.414062 345.585938 419.449219 344.382812 419.609375 C 344.460938 419.371094 344.460938 419.046875 344.382812 418.726562 C 344.140625 417.441406 343.015625 416.476562 341.890625 416.636719 C 341.730469 416.636719 341.648438 416.71875 341.488281 416.71875 C 341.488281 416.636719 341.488281 416.558594 341.488281 416.394531 C 341.25 415.109375 340.203125 414.148438 339 414.308594 C 338.675781 414.308594 338.4375 414.46875 338.195312 414.628906 C 337.875 413.503906 336.828125 412.699219 335.785156 412.78125 C 335.304688 412.859375 334.902344 413.101562 334.578125 413.421875 C 334.097656 412.539062 333.292969 412.058594 332.332031 412.136719 C 332.089844 412.136719 331.769531 412.296875 331.605469 412.378906 C 331.046875 412.058594 330.402344 411.898438 329.757812 411.898438 C 329.597656 411.898438 329.359375 411.976562 329.195312 412.058594 C 329.195312 411.898438 329.195312 411.816406 329.195312 411.65625 C 328.957031 409.886719 327.429688 408.601562 325.824219 408.84375 C 325.421875 408.925781 325.019531 409.003906 324.699219 409.246094 C 324.296875 407.71875 322.851562 406.59375 321.402344 406.753906 C 320.761719 406.835938 320.199219 407.15625 319.796875 407.558594 C 319.234375 406.433594 318.03125 405.710938 316.824219 405.789062 C 315.859375 405.871094 315.136719 406.511719 314.734375 407.316406 C 314.09375 406.511719 313.128906 406.113281 312.164062 406.191406 C 310.960938 406.351562 310.074219 407.316406 309.835938 408.523438 C 309.273438 408.039062 308.46875 407.800781 307.746094 407.878906 C 306.21875 408.039062 305.175781 409.488281 305.335938 411.171875 C 304.851562 410.933594 304.289062 410.773438 303.730469 410.851562 C 302.925781 410.933594 302.203125 411.414062 301.800781 412.136719 C 301.558594 412.296875 301.398438 412.539062 301.238281 412.859375 C 300.757812 412.296875 300.03125 411.898438 299.230469 411.976562 C 298.265625 412.058594 297.621094 412.78125 297.460938 413.746094 C 296.980469 413.34375 296.417969 413.183594 295.855469 413.261719 C 294.730469 413.421875 293.925781 414.46875 294.007812 415.753906 C 293.605469 415.511719 293.203125 415.433594 292.722656 415.511719 C 291.515625 415.671875 290.714844 416.878906 290.953125 418.164062 C 290.953125 418.324219 291.035156 418.484375 291.113281 418.644531 C 290.792969 418.566406 290.550781 418.484375 290.230469 418.566406 C 289.027344 418.726562 288.222656 419.929688 288.464844 421.21875 C 288.542969 421.617188 288.703125 421.941406 288.867188 422.261719 C 288.703125 422.261719 288.542969 422.261719 288.382812 422.261719 C 287.179688 422.421875 286.375 423.628906 286.617188 424.914062 C 286.695312 425.476562 287.015625 426.039062 287.339844 426.441406 C 287.257812 426.441406 287.257812 426.441406 287.179688 426.441406 C 285.972656 426.601562 285.167969 427.804688 285.410156 429.089844 C 285.492188 429.652344 285.730469 430.136719 286.054688 430.539062 L 300.675781 430.539062 C 300.59375 429.976562 300.917969 429.492188 301.398438 429.492188 C 301.398438 429.492188 301.398438 429.492188 301.480469 429.492188 C 301.316406 429.332031 301.238281 429.089844 301.15625 428.929688 C 301.078125 428.367188 301.398438 427.886719 301.878906 427.886719 C 301.960938 427.886719 302.042969 427.886719 302.121094 427.886719 C 302.042969 427.726562 301.960938 427.644531 301.960938 427.484375 C 301.878906 426.921875 302.203125 426.441406 302.683594 426.441406 C 302.84375 426.441406 302.925781 426.441406 303.003906 426.441406 C 303.003906 426.359375 303.003906 426.277344 302.925781 426.199219 C 302.84375 425.636719 303.167969 425.152344 303.648438 425.152344 C 303.808594 425.152344 303.96875 425.152344 304.128906 425.234375 C 304.050781 424.753906 304.371094 424.269531 304.851562 424.269531 C 305.09375 424.269531 305.335938 424.351562 305.496094 424.511719 C 305.578125 424.109375 305.816406 423.867188 306.21875 423.789062 C 306.539062 423.789062 306.78125 423.867188 307.023438 424.109375 C 307.183594 423.867188 307.34375 423.707031 307.664062 423.628906 C 307.824219 423.46875 308.066406 423.304688 308.308594 423.304688 C 308.550781 423.304688 308.789062 423.304688 308.949219 423.46875 C 308.871094 422.824219 309.273438 422.179688 309.914062 422.179688 C 310.238281 422.179688 310.558594 422.261719 310.796875 422.421875 C 310.878906 421.941406 311.28125 421.539062 311.761719 421.457031 C 312.164062 421.378906 312.566406 421.617188 312.808594 421.941406 C 312.96875 421.617188 313.289062 421.378906 313.609375 421.296875 C 314.09375 421.21875 314.574219 421.539062 314.816406 422.019531 C 314.976562 421.859375 315.21875 421.699219 315.457031 421.699219 C 316.019531 421.617188 316.582031 422.101562 316.742188 422.664062 C 316.90625 422.582031 316.984375 422.503906 317.144531 422.503906 C 317.386719 422.503906 317.628906 422.503906 317.867188 422.664062 C 317.949219 422.824219 318.03125 422.984375 318.03125 423.144531 C 318.03125 423.226562 318.03125 423.226562 318.03125 423.304688 C 318.109375 423.304688 318.191406 423.226562 318.269531 423.226562 C 318.914062 423.144531 319.476562 423.707031 319.636719 424.351562 C 319.636719 424.671875 319.636719 424.832031 319.554688 424.832031 C 319.476562 424.832031 319.394531 424.753906 319.15625 424.753906 L 318.914062 424.753906 C 319.15625 424.753906 319.394531 424.753906 319.636719 424.832031 C 319.554688 424.351562 320.601562 423.867188 321.242188 423.867188 C 321.566406 423.867188 321.886719 423.949219 322.128906 424.03125 C 322.207031 423.628906 322.609375 423.386719 323.089844 423.304688 C 323.492188 423.304688 323.894531 423.386719 324.136719 423.628906 C 324.296875 423.386719 324.617188 423.226562 325.019531 423.144531 C 325.5 423.066406 325.984375 423.304688 326.304688 423.628906 C 326.464844 423.46875 326.707031 423.386719 326.949219 423.386719 C 327.589844 423.304688 328.152344 423.628906 328.3125 424.109375 C 328.472656 424.03125 328.632812 424.03125 328.796875 424.03125 C 329.4375 423.949219 330.082031 424.351562 330.160156 424.914062 C 330.160156 424.914062 330.160156 424.992188 330.160156 424.992188 C 330.242188 424.992188 330.320312 424.992188 330.402344 424.992188 C 331.046875 424.914062 331.6875 425.316406 331.769531 425.878906 C 331.769531 425.957031 331.769531 426.117188 331.769531 426.199219 C 332.410156 426.117188 333.054688 426.519531 333.132812 427.082031 C 333.214844 427.324219 333.132812 427.484375 333.054688 427.644531 C 333.617188 427.644531 334.179688 428.046875 334.257812 428.527344 C 334.339844 428.851562 334.257812 429.089844 334.019531 429.25 C 334.5 429.332031 334.980469 429.652344 335.0625 430.054688 L 350.167969 430.054688 C 350.328125 430.136719 350.40625 429.652344 350.328125 429.171875 Z M 350.328125 429.171875 " fill-opacity="1" fill-rule="evenodd"/></svg>