<svg xmlns="http://www.w3.org/2000/svg" xmlns:xlink="http://www.w3.org/1999/xlink" width="200" zoomAndPan="magnify" viewBox="0 0 150 149.999998" height="200" preserveAspectRatio="xMidYMid meet" version="1.0"><defs><clipPath id="25d91689d0"><path d="M 26.964844 25.792969 L 123 25.792969 L 123 117.558594 L 26.964844 117.558594 Z M 26.964844 25.792969 " clip-rule="nonzero"/></clipPath><clipPath id="3ec92d456d"><path d="M 74.90625 25.792969 C 48.429688 25.792969 26.964844 46.335938 26.964844 71.675781 C 26.964844 97.015625 48.429688 117.558594 74.90625 117.558594 C 101.386719 117.558594 122.851562 97.015625 122.851562 71.675781 C 122.851562 46.335938 101.386719 25.792969 74.90625 25.792969 Z M 74.90625 25.792969 " clip-rule="nonzero"/></clipPath><clipPath id="a60ab62942"><path d="M 42.84375 57.546875 L 108.621094 57.546875 L 108.621094 113.488281 L 42.84375 113.488281 Z M 42.84375 57.546875 " clip-rule="nonzero"/></clipPath><clipPath id="f3d2ad8049"><path d="M 75.660156 57.546875 C 57.535156 57.546875 42.84375 70.070312 42.84375 85.515625 C 42.84375 100.964844 57.535156 113.488281 75.660156 113.488281 C 93.789062 113.488281 108.480469 100.964844 108.480469 85.515625 C 108.480469 70.070312 93.789062 57.546875 75.660156 57.546875 Z M 75.660156 57.546875 " clip-rule="nonzero"/></clipPath><clipPath id="ceb14dbf3b"><path d="M 50.46875 43.414062 L 72.519531 43.414062 L 72.519531 71.75 L 50.46875 71.75 Z M 50.46875 43.414062 " clip-rule="nonzero"/></clipPath><clipPath id="07e2758f0d"><path d="M 61.492188 43.414062 C 64.417969 43.414062 67.222656 44.574219 69.289062 46.644531 C 71.355469 48.710938 72.519531 51.515625 72.519531 54.4375 L 72.519531 60.652344 C 72.519531 63.574219 71.355469 66.378906 69.289062 68.449219 C 67.222656 70.515625 64.417969 71.675781 61.492188 71.675781 C 58.570312 71.675781 55.765625 70.515625 53.699219 68.449219 C 51.628906 66.378906 50.46875 63.574219 50.46875 60.652344 L 50.46875 54.4375 C 50.46875 51.515625 51.628906 48.710938 53.699219 46.644531 C 55.765625 44.574219 58.570312 43.414062 61.492188 43.414062 Z M 61.492188 43.414062 " clip-rule="nonzero"/></clipPath><clipPath id="2c16ca0dff"><path d="M 77.296875 43.414062 L 99.347656 43.414062 L 99.347656 71.75 L 77.296875 71.75 Z M 77.296875 43.414062 " clip-rule="nonzero"/></clipPath><clipPath id="674c8a9346"><path d="M 88.320312 43.414062 C 91.246094 43.414062 94.050781 44.574219 96.117188 46.644531 C 98.183594 48.710938 99.347656 51.515625 99.347656 54.4375 L 99.347656 60.652344 C 99.347656 63.574219 98.183594 66.378906 96.117188 68.449219 C 94.050781 70.515625 91.246094 71.675781 88.320312 71.675781 C 85.398438 71.675781 82.59375 70.515625 80.523438 68.449219 C 78.457031 66.378906 77.296875 63.574219 77.296875 60.652344 L 77.296875 54.4375 C 77.296875 51.515625 78.457031 48.710938 80.523438 46.644531 C 82.59375 44.574219 85.398438 43.414062 88.320312 43.414062 Z M 88.320312 43.414062 " clip-rule="nonzero"/></clipPath><clipPath id="2896ab03b4"><path d="M 82.015625 49.164062 L 94.625 49.164062 L 94.625 66.597656 L 82.015625 66.597656 Z M 82.015625 49.164062 " clip-rule="nonzero"/></clipPath><clipPath id="57ef139ece"><path d="M 88.320312 49.164062 C 89.992188 49.164062 91.597656 49.828125 92.777344 51.007812 C 93.960938 52.191406 94.625 53.792969 94.625 55.464844 L 94.625 60.25 C 94.625 61.917969 93.960938 63.523438 92.777344 64.707031 C 91.597656 65.886719 89.992188 66.550781 88.320312 66.550781 C 86.648438 66.550781 85.046875 65.886719 83.863281 64.707031 C 82.679688 63.523438 82.015625 61.917969 82.015625 60.25 L 82.015625 55.464844 C 82.015625 53.792969 82.679688 52.191406 83.863281 51.007812 C 85.046875 49.828125 86.648438 49.164062 88.320312 49.164062 Z M 88.320312 49.164062 " clip-rule="nonzero"/></clipPath><clipPath id="31f90561f7"><path d="M 84.277344 59.277344 L 89.886719 59.277344 L 89.886719 65.703125 L 84.277344 65.703125 Z M 84.277344 59.277344 " clip-rule="nonzero"/></clipPath><clipPath id="eeabeeec1f"><path d="M 87.082031 59.277344 C 88.632812 59.277344 89.886719 60.535156 89.886719 62.085938 L 89.886719 62.894531 C 89.886719 64.441406 88.632812 65.699219 87.082031 65.699219 C 85.53125 65.699219 84.277344 64.441406 84.277344 62.894531 L 84.277344 62.085938 C 84.277344 60.535156 85.53125 59.277344 87.082031 59.277344 Z M 87.082031 59.277344 " clip-rule="nonzero"/></clipPath><clipPath id="ec76449b3c"><path d="M 54.785156 48.851562 L 67.394531 48.851562 L 67.394531 66.285156 L 54.785156 66.285156 Z M 54.785156 48.851562 " clip-rule="nonzero"/></clipPath><clipPath id="271c4675b9"><path d="M 61.089844 48.851562 C 62.761719 48.851562 64.367188 49.515625 65.546875 50.695312 C 66.730469 51.878906 67.394531 53.484375 67.394531 55.15625 L 67.394531 59.9375 C 67.394531 61.609375 66.730469 63.210938 65.546875 64.394531 C 64.367188 65.574219 62.761719 66.238281 61.089844 66.238281 C 59.417969 66.238281 57.816406 65.574219 56.632812 64.394531 C 55.449219 63.210938 54.785156 61.609375 54.785156 59.9375 L 54.785156 55.15625 C 54.785156 53.484375 55.449219 51.878906 56.632812 50.695312 C 57.816406 49.515625 59.417969 48.851562 61.089844 48.851562 Z M 61.089844 48.851562 " clip-rule="nonzero"/></clipPath><clipPath id="b3dcc5301f"><path d="M 59.015625 59.277344 L 64.625 59.277344 L 64.625 65.703125 L 59.015625 65.703125 Z M 59.015625 59.277344 " clip-rule="nonzero"/></clipPath><clipPath id="6d2a45e72d"><path d="M 61.820312 59.277344 C 63.371094 59.277344 64.625 60.535156 64.625 62.085938 L 64.625 62.894531 C 64.625 64.441406 63.371094 65.699219 61.820312 65.699219 C 60.269531 65.699219 59.015625 64.441406 59.015625 62.894531 L 59.015625 62.085938 C 59.015625 60.535156 60.269531 59.277344 61.820312 59.277344 Z M 61.820312 59.277344 " clip-rule="nonzero"/></clipPath><clipPath id="02edd5b96c"><path d="M 67 62 L 99 62 L 99 76 L 67 76 Z M 67 62 " clip-rule="nonzero"/></clipPath><clipPath id="f5284114ff"><path d="M 66.714844 68.046875 L 97.214844 60.308594 L 99.695312 70.078125 L 69.195312 77.816406 Z M 66.714844 68.046875 " clip-rule="nonzero"/></clipPath><clipPath id="f9262c12f7"><path d="M 81.960938 64.179688 C 73.539062 66.3125 67.269531 70.234375 67.957031 72.929688 C 68.640625 75.628906 76.019531 76.085938 84.4375 73.949219 C 92.859375 71.8125 99.128906 67.894531 98.445312 65.195312 C 97.757812 62.496094 90.378906 62.042969 81.960938 64.179688 Z M 81.960938 64.179688 " clip-rule="nonzero"/></clipPath><clipPath id="e947ca4b24"><path d="M 51 63 L 83 63 L 83 76 L 51 76 Z M 51 63 " clip-rule="nonzero"/></clipPath><clipPath id="c0ce2c54a4"><path d="M 52.722656 61.035156 L 83.273438 68.5625 L 80.863281 78.351562 L 50.308594 70.824219 Z M 52.722656 61.035156 " clip-rule="nonzero"/></clipPath><clipPath id="f9a0cbc8f3"><path d="M 67.992188 64.796875 C 59.558594 62.71875 52.179688 63.226562 51.515625 65.929688 C 50.847656 68.632812 57.144531 72.507812 65.578125 74.585938 C 74.011719 76.664062 81.390625 76.15625 82.054688 73.453125 C 82.722656 70.75 76.425781 66.875 67.992188 64.796875 Z M 67.992188 64.796875 " clip-rule="nonzero"/></clipPath><clipPath id="9d174a4ec9"><path d="M 66.652344 72.4375 L 83.222656 72.4375 L 83.222656 79.746094 L 66.652344 79.746094 Z M 66.652344 72.4375 " clip-rule="nonzero"/></clipPath><clipPath id="92e6a5ed6d"><path d="M 64.378906 63.570312 L 85.351562 63.570312 L 85.351562 73.714844 L 64.378906 73.714844 Z M 64.378906 63.570312 " clip-rule="nonzero"/></clipPath><clipPath id="2ceab3bd8e"><path d="M 77.640625 65.535156 L 81.679688 65.535156 L 81.679688 68.890625 L 77.640625 68.890625 Z M 77.640625 65.535156 " clip-rule="nonzero"/></clipPath><clipPath id="7f429395f4"><path d="M 78.636719 65.570312 C 80.027344 66.1875 80.585938 66.570312 80.933594 66.890625 C 81.210938 67.148438 81.480469 67.480469 81.585938 67.679688 C 81.640625 67.78125 81.652344 67.851562 81.664062 67.9375 C 81.671875 68.027344 81.667969 68.117188 81.648438 68.207031 C 81.628906 68.292969 81.601562 68.382812 81.554688 68.460938 C 81.511719 68.539062 81.453125 68.605469 81.386719 68.664062 C 81.316406 68.722656 81.238281 68.773438 81.15625 68.804688 C 81.074219 68.839844 80.980469 68.863281 80.894531 68.871094 C 80.804688 68.875 80.714844 68.871094 80.625 68.84375 C 80.542969 68.820312 80.457031 68.785156 80.382812 68.738281 C 80.308594 68.6875 80.234375 68.621094 80.183594 68.550781 C 80.128906 68.484375 80.085938 68.402344 80.054688 68.320312 C 80.027344 68.234375 80.007812 68.144531 80.007812 68.054688 C 80.007812 67.96875 80.015625 67.871094 80.046875 67.789062 C 80.074219 67.703125 80.113281 67.617188 80.167969 67.546875 C 80.222656 67.476562 80.289062 67.414062 80.363281 67.363281 C 80.4375 67.316406 80.519531 67.269531 80.601562 67.246094 C 80.683594 67.222656 80.78125 67.207031 80.871094 67.210938 C 80.957031 67.21875 81.050781 67.238281 81.132812 67.265625 C 81.214844 67.300781 81.296875 67.34375 81.367188 67.402344 C 81.433594 67.457031 81.5 67.527344 81.542969 67.601562 C 81.589844 67.675781 81.625 67.761719 81.644531 67.851562 C 81.664062 67.9375 81.671875 68.03125 81.664062 68.117188 C 81.652344 68.207031 81.628906 68.300781 81.59375 68.378906 C 81.5625 68.460938 81.507812 68.539062 81.449219 68.601562 C 81.390625 68.664062 81.316406 68.722656 81.238281 68.765625 C 81.160156 68.8125 81.074219 68.84375 80.988281 68.859375 C 80.898438 68.875 80.804688 68.878906 80.71875 68.863281 C 80.628906 68.851562 80.539062 68.820312 80.460938 68.78125 C 80.382812 68.742188 80.324219 68.699219 80.246094 68.621094 C 80.117188 68.496094 80 68.261719 79.796875 68.066406 C 79.488281 67.773438 78.824219 67.300781 78.492188 67.128906 C 78.3125 67.035156 78.15625 67.03125 78.046875 66.972656 C 77.980469 66.941406 77.941406 66.90625 77.898438 66.863281 C 77.851562 66.816406 77.8125 66.785156 77.78125 66.71875 C 77.730469 66.632812 77.671875 66.492188 77.664062 66.375 C 77.652344 66.257812 77.6875 66.101562 77.722656 66.007812 C 77.746094 65.941406 77.769531 65.902344 77.8125 65.847656 C 77.878906 65.769531 78.007812 65.667969 78.097656 65.617188 C 78.160156 65.585938 78.203125 65.566406 78.273438 65.554688 C 78.371094 65.539062 78.636719 65.570312 78.636719 65.570312 " clip-rule="nonzero"/></clipPath><clipPath id="4c4f4ef20d"><path d="M 81.496094 69.851562 L 82.984375 69.851562 L 82.984375 71.386719 L 81.496094 71.386719 Z M 81.496094 69.851562 " clip-rule="nonzero"/></clipPath><clipPath id="0854d75e86"><path d="M 82.984375 70.398438 C 82.984375 70.871094 82.929688 70.996094 82.859375 71.085938 C 82.785156 71.179688 82.683594 71.261719 82.574219 71.3125 C 82.46875 71.359375 82.335938 71.378906 82.21875 71.375 C 82.101562 71.371094 81.976562 71.324219 81.875 71.265625 C 81.769531 71.207031 81.671875 71.113281 81.613281 71.015625 C 81.550781 70.910156 81.511719 70.785156 81.507812 70.667969 C 81.503906 70.550781 81.527344 70.417969 81.574219 70.3125 C 81.625 70.203125 81.703125 70.101562 81.796875 70.03125 C 81.886719 69.957031 82.011719 69.898438 82.125 69.878906 C 82.242188 69.859375 82.375 69.867188 82.488281 69.902344 C 82.597656 69.9375 82.800781 70.089844 82.800781 70.089844 " clip-rule="nonzero"/></clipPath><clipPath id="cc5cf5068b"><path d="M 68 14 L 74 14 L 74 20.265625 L 68 20.265625 Z M 68 14 " clip-rule="nonzero"/></clipPath><clipPath id="18d98103df"><path d="M 12 85 L 147.964844 85 L 147.964844 138.355469 L 12 138.355469 Z M 12 85 " clip-rule="nonzero"/></clipPath><clipPath id="0b7eae58ad"><path d="M 12 68 L 147.964844 68 L 147.964844 100 L 12 100 Z M 12 68 " clip-rule="nonzero"/></clipPath></defs><g clip-path="url(#25d91689d0)"><g clip-path="url(#3ec92d456d)"><path fill="#f8c038" d="M 26.964844 25.792969 L 122.671875 25.792969 L 122.671875 117.558594 L 26.964844 117.558594 Z M 26.964844 25.792969 " fill-opacity="1" fill-rule="nonzero"/></g></g><g clip-path="url(#a60ab62942)"><g clip-path="url(#f3d2ad8049)"><path fill="#fddc66" d="M 42.84375 57.546875 L 108.402344 57.546875 L 108.402344 113.488281 L 42.84375 113.488281 Z M 42.84375 57.546875 " fill-opacity="1" fill-rule="nonzero"/></g></g><g clip-path="url(#ceb14dbf3b)"><g clip-path="url(#07e2758f0d)"><path fill="#ffffff" d="M 50.46875 43.414062 L 72.519531 43.414062 L 72.519531 71.664062 L 50.46875 71.664062 Z M 50.46875 43.414062 " fill-opacity="1" fill-rule="nonzero"/></g></g><g clip-path="url(#2c16ca0dff)"><g clip-path="url(#674c8a9346)"><path fill="#ffffff" d="M 77.296875 43.414062 L 99.347656 43.414062 L 99.347656 71.664062 L 77.296875 71.664062 Z M 77.296875 43.414062 " fill-opacity="1" fill-rule="nonzero"/></g></g><g clip-path="url(#2896ab03b4)"><g clip-path="url(#57ef139ece)"><path fill="#4b4b4b" d="M 82.015625 49.164062 L 94.625 49.164062 L 94.625 66.546875 L 82.015625 66.546875 Z M 82.015625 49.164062 " fill-opacity="1" fill-rule="nonzero"/></g></g><g clip-path="url(#31f90561f7)"><g clip-path="url(#eeabeeec1f)"><path fill="#ffffff" d="M 84.277344 59.277344 L 89.886719 59.277344 L 89.886719 65.703125 L 84.277344 65.703125 Z M 84.277344 59.277344 " fill-opacity="1" fill-rule="nonzero"/></g></g><g clip-path="url(#ec76449b3c)"><g clip-path="url(#271c4675b9)"><path fill="#4b4b4b" d="M 54.785156 48.851562 L 67.394531 48.851562 L 67.394531 66.234375 L 54.785156 66.234375 Z M 54.785156 48.851562 " fill-opacity="1" fill-rule="nonzero"/></g></g><g clip-path="url(#b3dcc5301f)"><g clip-path="url(#6d2a45e72d)"><path fill="#ffffff" d="M 59.015625 59.277344 L 64.625 59.277344 L 64.625 65.703125 L 59.015625 65.703125 Z M 59.015625 59.277344 " fill-opacity="1" fill-rule="nonzero"/></g></g><g clip-path="url(#02edd5b96c)"><g clip-path="url(#f5284114ff)"><g clip-path="url(#f9262c12f7)"><path fill="#fddc66" d="M 66.714844 68.046875 L 97.214844 60.308594 L 99.695312 70.078125 L 69.195312 77.816406 Z M 66.714844 68.046875 " fill-opacity="1" fill-rule="nonzero"/></g></g></g><g clip-path="url(#e947ca4b24)"><g clip-path="url(#c0ce2c54a4)"><g clip-path="url(#f9a0cbc8f3)"><path fill="#fddc66" d="M 52.722656 61.035156 L 83.273438 68.5625 L 80.863281 78.351562 L 50.308594 70.824219 Z M 52.722656 61.035156 " fill-opacity="1" fill-rule="nonzero"/></g></g></g><g clip-path="url(#9d174a4ec9)"><path fill="#f86018" d="M 83.261719 71.480469 C 83.261719 72.023438 83.207031 72.5625 83.101562 73.097656 C 82.996094 73.632812 82.835938 74.152344 82.628906 74.65625 C 82.421875 75.160156 82.164062 75.640625 81.863281 76.09375 C 81.558594 76.546875 81.214844 76.964844 80.828125 77.351562 C 80.441406 77.738281 80.023438 78.082031 79.570312 78.382812 C 79.117188 78.6875 78.636719 78.941406 78.132812 79.152344 C 77.628906 79.359375 77.113281 79.519531 76.578125 79.625 C 76.042969 79.730469 75.5 79.785156 74.957031 79.785156 C 74.410156 79.785156 73.871094 79.730469 73.335938 79.625 C 72.800781 79.519531 72.28125 79.359375 71.777344 79.152344 C 71.273438 78.941406 70.796875 78.6875 70.34375 78.382812 C 69.890625 78.082031 69.46875 77.738281 69.082031 77.351562 C 68.699219 76.964844 68.355469 76.546875 68.050781 76.09375 C 67.746094 75.640625 67.492188 75.160156 67.285156 74.65625 C 67.074219 74.152344 66.917969 73.632812 66.8125 73.097656 C 66.703125 72.5625 66.652344 72.023438 66.652344 71.480469 C 66.652344 70.933594 66.703125 70.394531 66.8125 69.859375 C 66.917969 69.324219 67.074219 68.804688 67.285156 68.300781 C 67.492188 67.796875 67.746094 67.316406 68.050781 66.863281 C 68.355469 66.410156 68.699219 65.992188 69.082031 65.605469 C 69.46875 65.222656 69.890625 64.875 70.34375 64.574219 C 70.796875 64.269531 71.273438 64.015625 71.777344 63.804688 C 72.28125 63.597656 72.800781 63.441406 73.335938 63.332031 C 73.871094 63.226562 74.410156 63.175781 74.957031 63.175781 C 75.5 63.175781 76.042969 63.226562 76.578125 63.332031 C 77.113281 63.441406 77.628906 63.597656 78.132812 63.804688 C 78.636719 64.015625 79.117188 64.269531 79.570312 64.574219 C 80.023438 64.875 80.441406 65.222656 80.828125 65.605469 C 81.214844 65.992188 81.558594 66.410156 81.863281 66.863281 C 82.164062 67.316406 82.421875 67.796875 82.628906 68.300781 C 82.835938 68.804688 82.996094 69.324219 83.101562 69.859375 C 83.207031 70.394531 83.261719 70.933594 83.261719 71.480469 Z M 83.261719 71.480469 " fill-opacity="1" fill-rule="nonzero"/></g><g clip-path="url(#92e6a5ed6d)"><path fill="#f09020" d="M 85.429688 74.09375 C 85.429688 74.785156 85.363281 75.46875 85.226562 76.144531 C 85.09375 76.824219 84.894531 77.480469 84.628906 78.121094 C 84.363281 78.757812 84.039062 79.367188 83.65625 79.941406 C 83.273438 80.515625 82.835938 81.046875 82.347656 81.535156 C 81.859375 82.023438 81.328125 82.460938 80.753906 82.84375 C 80.175781 83.226562 79.570312 83.550781 78.933594 83.816406 C 78.292969 84.082031 77.636719 84.28125 76.957031 84.414062 C 76.28125 84.550781 75.597656 84.617188 74.90625 84.617188 C 74.214844 84.617188 73.53125 84.550781 72.851562 84.414062 C 72.175781 84.28125 71.515625 84.082031 70.878906 83.816406 C 70.238281 83.550781 69.632812 83.226562 69.058594 82.84375 C 68.484375 82.460938 67.953125 82.023438 67.464844 81.535156 C 66.972656 81.046875 66.539062 80.515625 66.152344 79.941406 C 65.769531 79.367188 65.445312 78.757812 65.183594 78.121094 C 64.917969 77.480469 64.71875 76.824219 64.582031 76.144531 C 64.449219 75.46875 64.378906 74.785156 64.378906 74.09375 C 64.378906 73.402344 64.449219 72.71875 64.582031 72.039062 C 64.71875 71.363281 64.917969 70.703125 65.183594 70.066406 C 65.445312 69.425781 65.769531 68.820312 66.152344 68.246094 C 66.539062 67.671875 66.972656 67.140625 67.464844 66.652344 C 67.953125 66.164062 68.484375 65.726562 69.058594 65.34375 C 69.632812 64.957031 70.238281 64.632812 70.878906 64.371094 C 71.515625 64.105469 72.175781 63.90625 72.851562 63.769531 C 73.53125 63.636719 74.214844 63.570312 74.90625 63.570312 C 75.597656 63.570312 76.28125 63.636719 76.957031 63.769531 C 77.636719 63.90625 78.292969 64.105469 78.933594 64.371094 C 79.570312 64.632812 80.175781 64.957031 80.753906 65.34375 C 81.328125 65.726562 81.859375 66.164062 82.347656 66.652344 C 82.835938 67.140625 83.273438 67.671875 83.65625 68.246094 C 84.039062 68.820312 84.363281 69.425781 84.628906 70.066406 C 84.894531 70.703125 85.09375 71.363281 85.226562 72.039062 C 85.363281 72.71875 85.429688 73.402344 85.429688 74.09375 Z M 85.429688 74.09375 " fill-opacity="1" fill-rule="nonzero"/></g><g clip-path="url(#2ceab3bd8e)"><g clip-path="url(#7f429395f4)"><path fill="#ffffff" d="M 77.46875 65.359375 L 81.851562 65.359375 L 81.851562 69.066406 L 77.46875 69.066406 Z M 77.46875 65.359375 " fill-opacity="1" fill-rule="nonzero"/></g></g><g clip-path="url(#4c4f4ef20d)"><g clip-path="url(#0854d75e86)"><path fill="#ffffff" d="M 81.3125 69.683594 L 83.199219 69.683594 L 83.199219 71.570312 L 81.3125 71.570312 Z M 81.3125 69.683594 " fill-opacity="1" fill-rule="nonzero"/></g></g><path stroke-linecap="round" transform="matrix(-0.338225, 0.000000000590314, -0.000000000590314, -0.338225, 69.529773, 72.01494)" fill="none" stroke-linejoin="miter" d="M 1.00042 1.002761 L 9.500679 1.002761 " stroke="#c8831a" stroke-width="2" stroke-opacity="1" stroke-miterlimit="4"/><path stroke-linecap="round" transform="matrix(-0.338225, -0.000000000590314, 0.000000000590314, -0.338225, 69.526411, 70.029908)" fill="none" stroke-linejoin="miter" d="M 1.002028 1.000817 L 5.656382 1.000817 " stroke="#c8831a" stroke-width="2" stroke-opacity="1" stroke-miterlimit="4"/><path stroke-linecap="round" transform="matrix(-0.338225, -0.000000000590314, 0.000000000590314, -0.338225, 69.526696, 68.194335)" fill="none" stroke-linejoin="miter" d="M 1.002872 1.001896 L 2.850755 1.001896 " stroke="#c8831a" stroke-width="2" stroke-opacity="1" stroke-miterlimit="4"/><path fill="#39b54a" d="M 74.398438 19.789062 C 74.074219 19.054688 73.59375 17.628906 74.066406 16.105469 C 74.839844 13.601562 77.875 11.808594 81.53125 12.039062 C 82.015625 15.09375 80.820312 17.953125 78.566406 19.226562 C 77.050781 20.085938 75.476562 19.988281 74.730469 19.882812 C 75.496094 19.316406 76.351562 18.582031 77.207031 17.65625 C 78.527344 16.226562 79.40625 14.804688 79.992188 13.671875 C 79.152344 14.824219 78.144531 16.070312 76.941406 17.34375 C 76.074219 18.261719 75.214844 19.074219 74.398438 19.789062 Z M 74.398438 19.789062 " fill-opacity="1" fill-rule="nonzero"/><g clip-path="url(#cc5cf5068b)"><path fill="#39b54a" d="M 73.421875 19.871094 C 72.851562 20.039062 71.753906 20.261719 70.667969 19.792969 C 68.882812 19.023438 67.8125 16.6875 68.296875 14.078125 C 70.597656 13.992188 72.609375 15.09375 73.363281 16.824219 C 73.867188 17.988281 73.660156 19.109375 73.523438 19.636719 C 73.164062 19.039062 72.695312 18.363281 72.082031 17.667969 C 71.136719 16.597656 70.164062 15.84375 69.375 15.324219 C 70.15625 16.027344 70.992188 16.855469 71.828125 17.832031 C 72.433594 18.535156 72.964844 19.21875 73.421875 19.871094 Z M 73.421875 19.871094 " fill-opacity="1" fill-rule="nonzero"/></g><path fill="#0c9146" d="M 48.660156 73.421875 C 47.90625 64.609375 42.601562 57.855469 36.863281 58.351562 C 32.285156 58.753906 28.804688 63.566406 27.9375 69.945312 C 24.429688 62.554688 18.863281 57.972656 15.125 59.566406 C 11.152344 61.25 10.75 69.21875 14.199219 77.367188 C 14.546875 78.207031 14.953125 79.019531 15.355469 79.800781 C 9.90625 77.21875 4.546875 77.21875 3.242188 79.859375 C 1.9375 82.554688 5.328125 86.902344 10.835938 89.628906 C 16.34375 92.351562 21.90625 92.351562 23.210938 89.683594 C 23.355469 89.394531 23.414062 89.078125 23.472656 88.757812 C 24.953125 89.453125 26.371094 89.597656 27.617188 89.078125 C 29.183594 88.410156 30.199219 86.726562 30.632812 84.4375 C 32.863281 88.234375 36.167969 90.582031 39.617188 90.265625 C 45.355469 89.800781 49.414062 82.234375 48.660156 73.421875 Z M 48.660156 73.421875 " fill-opacity="1" fill-rule="nonzero"/><path fill="#127d3f" d="M 18.199219 75.859375 C 18.804688 68.871094 23.007812 63.507812 27.558594 63.886719 C 31.183594 64.207031 33.9375 68.03125 34.632812 73.105469 C 37.414062 67.25 41.851562 63.597656 44.804688 64.871094 C 47.9375 66.207031 48.285156 72.523438 45.53125 78.988281 C 45.242188 79.65625 44.949219 80.292969 44.601562 80.902344 C 48.921875 78.84375 53.183594 78.871094 54.199219 80.960938 C 55.242188 83.074219 52.546875 86.554688 48.167969 88.699219 C 43.792969 90.84375 39.386719 90.875 38.34375 88.726562 C 38.226562 88.496094 38.167969 88.265625 38.140625 88.003906 C 36.953125 88.554688 35.820312 88.671875 34.863281 88.265625 C 33.617188 87.742188 32.804688 86.410156 32.457031 84.582031 C 30.691406 87.597656 28.082031 89.453125 25.328125 89.222656 C 20.804688 88.875 17.589844 82.871094 18.199219 75.859375 Z M 18.199219 75.859375 " fill-opacity="1" fill-rule="nonzero"/><g clip-path="url(#18d98103df)"><path fill="#eecfba" d="M 147.878906 90.207031 C 147.878906 116.789062 117.617188 138.355469 80.285156 138.355469 C 42.949219 138.355469 12.691406 116.816406 12.691406 90.207031 C 12.691406 88.726562 12.777344 87.277344 12.980469 85.859375 C 16.34375 93.628906 45.183594 99.65625 80.253906 99.65625 C 115.472656 99.65625 144.429688 93.539062 147.589844 85.742188 C 147.792969 87.222656 147.878906 88.699219 147.878906 90.207031 Z M 147.878906 90.207031 " fill-opacity="1" fill-rule="nonzero"/></g><g clip-path="url(#0b7eae58ad)"><path fill="#fff6dc" d="M 147.878906 84.324219 C 147.878906 84.816406 147.792969 85.277344 147.589844 85.742188 C 144.429688 93.539062 115.472656 99.65625 80.253906 99.65625 C 45.183594 99.65625 16.3125 93.597656 12.980469 85.859375 C 12.75 85.367188 12.632812 84.84375 12.632812 84.324219 C 12.632812 83.367188 13.039062 82.410156 13.792969 81.480469 C 19.648438 74.378906 47.183594 68.988281 80.253906 68.988281 C 113.472656 68.988281 141.09375 74.410156 146.804688 81.570312 C 147.5 82.46875 147.878906 83.394531 147.878906 84.324219 Z M 147.878906 84.324219 " fill-opacity="1" fill-rule="nonzero"/></g><path fill="#eabeac" d="M 144.3125 84.496094 C 144.3125 86.003906 143.183594 87.425781 141.066406 88.757812 C 132.601562 83.859375 108.574219 80.351562 80.253906 80.351562 C 51.9375 80.351562 27.90625 83.859375 19.445312 88.757812 C 17.328125 87.425781 16.199219 86.003906 16.199219 84.496094 C 16.199219 77.019531 44.894531 70.988281 80.253906 70.988281 C 115.617188 70.988281 144.3125 77.019531 144.3125 84.496094 Z M 144.3125 84.496094 " fill-opacity="1" fill-rule="nonzero"/><path fill="#f69320" d="M 141.066406 88.757812 C 132.601562 94.148438 108.574219 98.035156 80.253906 98.035156 C 51.9375 98.035156 27.90625 94.148438 19.445312 88.757812 C 27.90625 83.859375 51.9375 80.351562 80.253906 80.351562 C 108.574219 80.351562 132.601562 83.859375 141.066406 88.757812 Z M 141.066406 88.757812 " fill-opacity="1" fill-rule="nonzero"/><path fill="#ffffff" d="M 59.097656 86.582031 C 57.851562 87.597656 57.675781 89.425781 58.660156 90.640625 L 63.152344 86.988281 C 62.167969 85.773438 60.34375 85.597656 59.097656 86.582031 Z M 93.589844 87.480469 C 92.050781 87.105469 90.457031 88.03125 90.082031 89.597656 L 95.703125 91.019531 C 96.082031 89.425781 95.125 87.859375 93.589844 87.480469 Z M 114.398438 81.886719 C 113.09375 82.816406 112.777344 84.613281 113.703125 85.917969 L 118.429688 82.582031 C 117.5 81.277344 115.703125 80.960938 114.398438 81.886719 Z M 37.820312 85.800781 C 36.457031 85.511719 35.125 86.378906 34.835938 87.714844 L 39.734375 88.757812 C 40.023438 87.425781 39.183594 86.089844 37.820312 85.800781 Z M 37.820312 85.800781 " fill-opacity="1" fill-rule="nonzero"/><path fill="#2c5f2f" d="M 130.226562 85.597656 C 130.195312 85.597656 130.195312 85.597656 130.167969 85.597656 C 130.371094 85.394531 130.515625 85.132812 130.542969 84.84375 C 130.660156 84.148438 130.226562 83.539062 129.617188 83.480469 C 129.53125 83.480469 129.445312 83.480469 129.355469 83.480469 C 129.472656 83.308594 129.53125 83.132812 129.558594 82.929688 C 129.675781 82.234375 129.242188 81.625 128.632812 81.570312 C 128.488281 81.539062 128.3125 81.570312 128.167969 81.625 C 128.195312 81.539062 128.226562 81.453125 128.226562 81.367188 C 128.34375 80.671875 127.90625 80.0625 127.296875 80.003906 C 127.066406 79.972656 126.863281 80.03125 126.660156 80.148438 C 126.71875 79.511719 126.3125 78.929688 125.734375 78.871094 C 125.445312 78.84375 125.125 78.929688 124.894531 79.132812 C 124.804688 78.640625 124.457031 78.265625 123.964844 78.207031 C 123.589844 78.148438 123.210938 78.351562 122.949219 78.640625 C 122.863281 78.496094 122.777344 78.378906 122.660156 78.265625 C 122.429688 77.917969 122.082031 77.65625 121.644531 77.625 C 121.355469 77.597656 121.066406 77.65625 120.804688 77.800781 C 120.894531 76.960938 120.34375 76.207031 119.589844 76.117188 C 119.183594 76.0625 118.804688 76.207031 118.488281 76.46875 C 118.371094 75.828125 117.90625 75.335938 117.269531 75.277344 C 116.777344 75.21875 116.285156 75.453125 115.9375 75.859375 C 115.734375 75.421875 115.355469 75.132812 114.863281 75.074219 C 114.226562 75.015625 113.644531 75.367188 113.328125 75.972656 C 113.125 75.742188 112.835938 75.566406 112.488281 75.539062 C 111.734375 75.453125 111.007812 76.003906 110.804688 76.816406 C 110.632812 76.699219 110.457031 76.640625 110.253906 76.613281 C 109.445312 76.523438 108.660156 77.164062 108.515625 78.0625 C 108.515625 78.117188 108.488281 78.207031 108.488281 78.265625 C 108.398438 78.234375 108.3125 78.207031 108.195312 78.207031 C 107.878906 78.175781 107.53125 78.265625 107.269531 78.4375 C 107.152344 78.378906 107.007812 78.320312 106.863281 78.292969 C 106.398438 78.234375 105.9375 78.523438 105.703125 78.960938 C 105.53125 78.785156 105.328125 78.667969 105.066406 78.640625 C 104.515625 78.582031 103.964844 78.988281 103.820312 79.597656 C 103.703125 79.511719 103.558594 79.453125 103.414062 79.453125 C 102.804688 79.394531 102.226562 79.886719 102.140625 80.554688 C 102.140625 80.613281 102.140625 80.640625 102.109375 80.699219 C 102.050781 80.671875 101.964844 80.671875 101.90625 80.640625 C 101.296875 80.582031 100.71875 81.074219 100.632812 81.742188 C 100.601562 81.886719 100.601562 82.03125 100.632812 82.175781 C 100.023438 82.121094 99.445312 82.613281 99.355469 83.277344 C 99.328125 83.539062 99.355469 83.773438 99.445312 84.003906 C 98.894531 84.03125 98.429688 84.496094 98.3125 85.105469 C 98.253906 85.453125 98.34375 85.800781 98.546875 86.0625 C 98.082031 86.148438 97.675781 86.582031 97.589844 87.132812 C 97.558594 87.367188 97.589844 87.597656 97.644531 87.800781 L 103.09375 87.800781 C 103.039062 87.714844 103.039062 87.625 103.066406 87.539062 C 103.125 87.308594 103.328125 87.132812 103.617188 87.105469 C 103.5 87.019531 103.472656 86.875 103.5 86.726562 C 103.558594 86.496094 103.820312 86.292969 104.140625 86.292969 C 104.082031 86.207031 104.082031 86.121094 104.082031 86.003906 C 104.140625 85.742188 104.457031 85.539062 104.804688 85.570312 C 104.804688 85.511719 104.777344 85.453125 104.804688 85.394531 C 104.863281 85.132812 105.183594 84.929688 105.53125 84.960938 C 105.558594 84.960938 105.617188 84.960938 105.644531 84.988281 C 105.644531 84.960938 105.644531 84.960938 105.644531 84.929688 L 105.675781 84.929688 C 105.675781 84.929688 105.703125 84.929688 105.703125 84.929688 L 105.761719 84.929688 C 105.761719 84.960938 105.734375 84.960938 105.734375 84.988281 L 106.050781 84.988281 C 106.140625 84.757812 106.429688 84.582031 106.746094 84.613281 C 106.804688 84.613281 106.835938 84.613281 106.863281 84.640625 C 106.835938 84.671875 106.777344 84.699219 106.746094 84.757812 L 107.066406 84.757812 C 107.183594 84.582031 107.445312 84.46875 107.703125 84.496094 C 107.820312 84.496094 107.9375 84.554688 108.023438 84.613281 C 107.9375 84.640625 107.878906 84.671875 107.820312 84.726562 L 108.140625 84.726562 C 108.285156 84.613281 108.488281 84.523438 108.691406 84.554688 C 108.894531 84.582031 109.066406 84.671875 109.152344 84.816406 C 109.039062 84.816406 108.949219 84.875 108.863281 84.902344 L 109.183594 84.902344 C 109.296875 84.816406 109.472656 84.785156 109.644531 84.785156 C 109.964844 84.816406 110.195312 85.046875 110.167969 85.277344 C 110.285156 85.25 110.398438 85.222656 110.515625 85.222656 C 110.515625 85.164062 110.515625 85.074219 110.515625 84.988281 C 110.574219 84.613281 110.894531 84.351562 111.210938 84.410156 C 111.242188 84.410156 111.296875 84.410156 111.328125 84.4375 C 111.328125 84.410156 111.328125 84.378906 111.328125 84.351562 C 111.386719 83.972656 111.703125 83.714844 112.023438 83.773438 C 112.109375 83.773438 112.195312 83.800781 112.253906 83.859375 C 112.34375 83.539062 112.632812 83.308594 112.921875 83.335938 C 113.066406 83.367188 113.183594 83.421875 113.269531 83.511719 C 113.269531 83.511719 113.296875 83.511719 113.296875 83.480469 C 113.296875 83.480469 113.296875 83.480469 113.328125 83.480469 C 113.445312 83.421875 113.558594 83.394531 113.675781 83.394531 C 113.703125 83.394531 113.734375 83.394531 113.734375 83.394531 C 113.878906 83.222656 114.050781 83.132812 114.285156 83.164062 C 114.542969 83.191406 114.71875 83.394531 114.777344 83.65625 C 114.894531 83.539062 115.066406 83.511719 115.210938 83.511719 C 115.53125 83.539062 115.734375 83.859375 115.703125 84.175781 C 115.820312 84.121094 115.9375 84.089844 116.050781 84.121094 C 116.195312 84.148438 116.3125 84.207031 116.398438 84.292969 C 116.429688 84.292969 116.457031 84.292969 116.488281 84.292969 C 116.632812 84.324219 116.746094 84.410156 116.804688 84.523438 C 116.921875 84.410156 117.066406 84.324219 117.210938 84.351562 C 117.414062 84.378906 117.558594 84.523438 117.589844 84.726562 C 117.675781 84.640625 117.792969 84.613281 117.9375 84.613281 C 118.167969 84.640625 118.34375 84.875 118.3125 85.132812 C 118.398438 85.105469 118.488281 85.074219 118.574219 85.074219 C 118.835938 85.105469 118.980469 85.335938 118.949219 85.625 C 118.949219 85.65625 118.921875 85.683594 118.921875 85.742188 C 118.980469 85.714844 119.039062 85.714844 119.09375 85.714844 C 119.355469 85.742188 119.5 85.976562 119.472656 86.265625 C 119.472656 86.351562 119.445312 86.410156 119.386719 86.496094 C 119.414062 86.496094 119.445312 86.496094 119.5 86.496094 C 119.761719 86.527344 119.90625 86.757812 119.878906 87.046875 C 119.847656 87.164062 119.792969 87.277344 119.734375 87.367188 C 119.734375 87.367188 119.761719 87.367188 119.761719 87.367188 C 120.023438 87.394531 120.167969 87.625 120.140625 87.917969 L 129.792969 87.917969 C 129.964844 87.714844 130.082031 87.480469 130.140625 87.191406 C 131.269531 86.292969 130.863281 85.683594 130.226562 85.597656 Z M 130.226562 85.597656 " fill-opacity="1" fill-rule="evenodd"/><path fill="#2e7a3d" d="M 127.792969 85.597656 C 127.761719 85.597656 127.761719 85.597656 127.734375 85.597656 C 127.9375 85.394531 128.082031 85.132812 128.109375 84.84375 C 128.226562 84.148438 127.792969 83.539062 127.183594 83.480469 C 127.09375 83.480469 127.007812 83.480469 126.921875 83.480469 C 127.039062 83.308594 127.09375 83.132812 127.125 82.929688 C 127.242188 82.234375 126.804688 81.625 126.195312 81.570312 C 126.050781 81.539062 125.878906 81.570312 125.734375 81.625 C 125.761719 81.539062 125.792969 81.453125 125.792969 81.367188 C 125.90625 80.671875 125.472656 80.0625 124.863281 80.003906 C 124.632812 79.972656 124.429688 80.03125 124.226562 80.148438 C 124.285156 79.511719 123.878906 78.929688 123.296875 78.871094 C 123.007812 78.84375 122.691406 78.929688 122.457031 79.132812 C 122.371094 78.640625 122.023438 78.265625 121.53125 78.207031 C 121.152344 78.148438 120.777344 78.351562 120.515625 78.640625 C 120.457031 78.496094 120.34375 78.378906 120.226562 78.265625 C 119.996094 77.917969 119.644531 77.65625 119.210938 77.625 C 118.921875 77.597656 118.632812 77.65625 118.371094 77.800781 C 118.457031 76.960938 117.90625 76.207031 117.152344 76.117188 C 116.746094 76.0625 116.371094 76.207031 116.050781 76.46875 C 115.9375 75.828125 115.472656 75.335938 114.835938 75.277344 C 114.34375 75.21875 113.847656 75.453125 113.5 75.859375 C 113.296875 75.421875 112.921875 75.132812 112.429688 75.074219 C 111.792969 75.015625 111.210938 75.367188 110.894531 75.972656 C 110.691406 75.742188 110.398438 75.566406 110.050781 75.539062 C 109.296875 75.453125 108.574219 76.003906 108.371094 76.816406 C 108.195312 76.699219 108.023438 76.640625 107.820312 76.613281 C 107.007812 76.523438 106.226562 77.164062 106.082031 78.0625 C 106.082031 78.117188 106.050781 78.207031 106.050781 78.265625 C 105.964844 78.234375 105.878906 78.207031 105.761719 78.207031 C 105.445312 78.175781 105.09375 78.265625 104.835938 78.4375 C 104.71875 78.378906 104.574219 78.320312 104.429688 78.292969 C 103.964844 78.234375 103.5 78.523438 103.269531 78.960938 C 103.09375 78.785156 102.894531 78.667969 102.632812 78.640625 C 102.082031 78.582031 101.53125 78.988281 101.386719 79.597656 C 101.269531 79.511719 101.125 79.453125 100.980469 79.453125 C 100.371094 79.394531 99.792969 79.886719 99.703125 80.554688 C 99.703125 80.613281 99.703125 80.640625 99.675781 80.699219 C 99.617188 80.671875 99.53125 80.671875 99.472656 80.640625 C 98.863281 80.582031 98.285156 81.074219 98.195312 81.742188 C 98.167969 81.886719 98.167969 82.03125 98.195312 82.175781 C 97.589844 82.121094 97.007812 82.613281 96.921875 83.277344 C 96.894531 83.539062 96.921875 83.773438 97.007812 84.003906 C 96.457031 84.03125 95.996094 84.496094 95.878906 85.105469 C 95.820312 85.453125 95.90625 85.800781 96.109375 86.0625 C 95.644531 86.148438 95.242188 86.582031 95.152344 87.132812 C 95.125 87.367188 95.152344 87.597656 95.242188 87.800781 L 102.804688 87.800781 C 102.863281 87.570312 103.066406 87.394531 103.355469 87.367188 C 103.242188 87.277344 103.210938 87.132812 103.242188 86.988281 C 103.296875 86.757812 103.558594 86.554688 103.878906 86.554688 C 103.820312 86.46875 103.820312 86.378906 103.820312 86.265625 C 103.878906 86.003906 104.195312 85.800781 104.546875 85.828125 C 104.546875 85.773438 104.515625 85.714844 104.546875 85.65625 C 104.601562 85.394531 104.921875 85.191406 105.269531 85.222656 C 105.296875 85.222656 105.355469 85.222656 105.386719 85.25 C 105.386719 85.222656 105.386719 85.222656 105.386719 85.191406 C 105.445312 84.929688 105.761719 84.726562 106.109375 84.757812 C 106.195312 84.757812 106.285156 84.785156 106.34375 84.816406 C 106.429688 84.582031 106.71875 84.410156 107.039062 84.4375 C 107.183594 84.4375 107.296875 84.496094 107.386719 84.554688 C 107.5 84.378906 107.761719 84.265625 108.023438 84.292969 C 108.226562 84.324219 108.371094 84.410156 108.457031 84.523438 C 108.601562 84.410156 108.804688 84.324219 109.007812 84.351562 C 109.269531 84.378906 109.472656 84.523438 109.5 84.699219 C 109.617188 84.613281 109.792969 84.582031 109.964844 84.582031 C 110.285156 84.613281 110.835938 84.84375 110.804688 85.074219 C 110.921875 85.046875 111.039062 85.019531 111.152344 85.019531 L 111.039062 85.019531 C 110.921875 85.019531 110.894531 85.046875 110.835938 85.046875 C 110.835938 85.046875 110.804688 84.929688 110.804688 84.785156 C 110.863281 84.410156 111.183594 84.148438 111.5 84.207031 C 111.53125 84.207031 111.589844 84.207031 111.617188 84.234375 C 111.617188 84.207031 111.617188 84.175781 111.617188 84.148438 C 111.617188 84.0625 111.644531 83.972656 111.703125 83.917969 C 111.820312 83.859375 111.9375 83.828125 112.082031 83.828125 C 112.167969 83.828125 112.253906 83.859375 112.3125 83.917969 C 112.398438 83.597656 112.691406 83.367188 112.980469 83.394531 C 113.125 83.421875 113.242188 83.480469 113.328125 83.570312 C 113.445312 83.335938 113.703125 83.191406 113.9375 83.222656 C 114.140625 83.25 114.285156 83.367188 114.371094 83.539062 C 114.515625 83.367188 114.691406 83.277344 114.921875 83.308594 C 115.183594 83.335938 115.355469 83.539062 115.414062 83.800781 C 115.53125 83.683594 115.703125 83.65625 115.847656 83.65625 C 116.167969 83.683594 116.371094 84.003906 116.34375 84.324219 C 116.457031 84.265625 116.574219 84.234375 116.691406 84.265625 C 116.835938 84.292969 116.949219 84.351562 117.039062 84.4375 L 117.066406 84.4375 C 117.210938 84.46875 117.328125 84.554688 117.386719 84.671875 C 117.5 84.554688 117.644531 84.46875 117.792969 84.496094 C 117.996094 84.523438 118.140625 84.671875 118.167969 84.875 C 118.253906 84.785156 118.371094 84.757812 118.515625 84.757812 C 118.746094 84.785156 118.921875 85.019531 118.894531 85.277344 C 118.980469 85.25 119.066406 85.222656 119.152344 85.222656 C 119.414062 85.25 119.558594 85.480469 119.53125 85.773438 C 119.53125 85.800781 119.53125 85.828125 119.5 85.886719 C 119.558594 85.859375 119.617188 85.859375 119.675781 85.859375 C 119.9375 85.886719 120.082031 86.121094 120.050781 86.410156 C 120.050781 86.496094 120.023438 86.554688 119.964844 86.640625 C 119.992188 86.640625 120.023438 86.640625 120.082031 86.640625 C 120.34375 86.671875 120.488281 86.902344 120.457031 87.191406 C 120.429688 87.308594 120.371094 87.425781 120.3125 87.511719 C 120.3125 87.511719 120.34375 87.511719 120.34375 87.511719 C 120.601562 87.539062 120.746094 87.773438 120.71875 88.0625 L 128.253906 88.0625 C 128.429688 87.859375 128.542969 87.625 128.601562 87.335938 C 128.835938 86.292969 128.429688 85.683594 127.792969 85.597656 Z M 127.792969 85.597656 " fill-opacity="1" fill-rule="evenodd"/><path fill="#2e7a3d" d="M 74.140625 79.046875 C 67.152344 81.886719 62.515625 86.757812 63.820312 89.917969 C 65.097656 93.078125 71.820312 93.367188 78.804688 90.527344 C 85.792969 87.683594 90.429688 82.816406 89.125 79.65625 C 87.847656 76.496094 81.125 76.207031 74.140625 79.046875 Z M 77.964844 88.46875 C 73.472656 90.292969 69.152344 90.121094 68.34375 88.0625 C 67.5 86.03125 70.488281 82.902344 74.980469 81.074219 C 79.472656 79.25 83.792969 79.421875 84.601562 81.480469 C 85.445312 83.539062 82.457031 86.671875 77.964844 88.46875 Z M 77.964844 88.46875 " fill-opacity="1" fill-rule="evenodd"/><path fill="#2e7a3d" d="M 50.894531 86.496094 C 54.835938 88.089844 57.414062 90.816406 56.691406 92.613281 C 55.964844 94.410156 52.199219 94.554688 48.253906 92.960938 C 44.3125 91.367188 41.734375 88.640625 42.457031 86.84375 C 43.210938 85.074219 46.980469 84.902344 50.894531 86.496094 Z M 48.75 91.800781 C 51.269531 92.816406 53.703125 92.730469 54.167969 91.570312 C 54.632812 90.410156 52.949219 88.671875 50.429688 87.625 C 47.90625 86.582031 45.472656 86.699219 45.007812 87.859375 C 44.546875 89.019531 46.226562 90.785156 48.75 91.800781 Z M 48.75 91.800781 " fill-opacity="1" fill-rule="evenodd"/><path fill="#2c5f2f" d="M 53.472656 83.800781 C 53.414062 83.421875 53.125 83.105469 52.804688 83.046875 C 52.949219 82.871094 53.007812 82.640625 52.949219 82.378906 C 52.894531 81.945312 52.546875 81.625 52.167969 81.597656 C 52.226562 81.453125 52.253906 81.277344 52.226562 81.105469 C 52.140625 80.640625 51.761719 80.292969 51.328125 80.351562 C 51.355469 80.265625 51.355469 80.148438 51.328125 80.03125 C 51.242188 79.570312 50.863281 79.21875 50.429688 79.277344 C 50.371094 79.277344 50.34375 79.308594 50.285156 79.308594 C 50.285156 79.277344 50.285156 79.25 50.285156 79.191406 C 50.199219 78.726562 49.820312 78.378906 49.386719 78.4375 C 49.269531 78.4375 49.183594 78.496094 49.097656 78.554688 C 48.980469 78.148438 48.601562 77.859375 48.226562 77.886719 C 48.050781 77.917969 47.90625 78.003906 47.792969 78.117188 C 47.617188 77.800781 47.328125 77.625 46.980469 77.65625 C 46.894531 77.65625 46.777344 77.714844 46.71875 77.742188 C 46.515625 77.625 46.285156 77.566406 46.050781 77.566406 C 45.996094 77.566406 45.90625 77.597656 45.851562 77.625 C 45.851562 77.566406 45.851562 77.539062 45.851562 77.480469 C 45.761719 76.84375 45.210938 76.378906 44.632812 76.46875 C 44.488281 76.496094 44.34375 76.523438 44.226562 76.613281 C 44.082031 76.0625 43.558594 75.65625 43.039062 75.714844 C 42.804688 75.742188 42.601562 75.859375 42.457031 76.003906 C 42.253906 75.597656 41.820312 75.335938 41.386719 75.367188 C 41.039062 75.394531 40.777344 75.625 40.632812 75.917969 C 40.402344 75.625 40.050781 75.480469 39.703125 75.511719 C 39.269531 75.566406 38.953125 75.917969 38.863281 76.351562 C 38.660156 76.175781 38.371094 76.089844 38.109375 76.117188 C 37.558594 76.175781 37.183594 76.699219 37.242188 77.308594 C 37.066406 77.21875 36.863281 77.164062 36.660156 77.191406 C 36.371094 77.21875 36.109375 77.394531 35.964844 77.65625 C 35.878906 77.714844 35.820312 77.800781 35.761719 77.917969 C 35.589844 77.714844 35.328125 77.566406 35.039062 77.597656 C 34.691406 77.625 34.457031 77.886719 34.402344 78.234375 C 34.226562 78.089844 34.023438 78.03125 33.820312 78.0625 C 33.414062 78.117188 33.125 78.496094 33.152344 78.960938 C 33.007812 78.871094 32.863281 78.84375 32.691406 78.871094 C 32.253906 78.929688 31.964844 79.367188 32.050781 79.828125 C 32.050781 79.886719 32.082031 79.945312 32.109375 80.003906 C 31.996094 79.972656 31.90625 79.945312 31.792969 79.972656 C 31.355469 80.03125 31.066406 80.46875 31.152344 80.929688 C 31.183594 81.074219 31.242188 81.191406 31.300781 81.308594 C 31.242188 81.308594 31.183594 81.308594 31.125 81.308594 C 30.691406 81.367188 30.402344 81.800781 30.488281 82.265625 C 30.515625 82.46875 30.632812 82.671875 30.75 82.816406 C 30.71875 82.816406 30.71875 82.816406 30.691406 82.816406 C 30.253906 82.871094 29.964844 83.308594 30.050781 83.773438 C 30.082031 83.972656 30.167969 84.148438 30.285156 84.292969 L 37.039062 84.292969 C 37.007812 84.089844 37.125 83.917969 37.300781 83.917969 C 37.300781 83.917969 37.300781 83.917969 37.328125 83.917969 C 37.269531 83.859375 37.242188 83.773438 37.210938 83.714844 C 37.183594 83.511719 37.300781 83.335938 37.472656 83.335938 C 37.5 83.335938 37.53125 83.335938 37.558594 83.335938 C 37.53125 83.277344 37.5 83.25 37.5 83.191406 C 37.472656 82.988281 37.589844 82.816406 37.761719 82.816406 C 37.820312 82.816406 37.851562 82.816406 37.878906 82.816406 C 37.878906 82.785156 37.878906 82.757812 37.851562 82.726562 C 37.820312 82.523438 37.9375 82.351562 38.109375 82.351562 C 38.167969 82.351562 38.226562 82.351562 38.285156 82.378906 C 38.253906 82.207031 38.371094 82.03125 38.546875 82.03125 C 38.632812 82.03125 38.71875 82.0625 38.777344 82.121094 C 38.804688 81.972656 38.894531 81.886719 39.039062 81.859375 C 39.152344 81.859375 39.242188 81.886719 39.328125 81.972656 C 39.386719 81.886719 39.445312 81.828125 39.558594 81.800781 C 39.589844 81.800781 39.589844 81.800781 39.617188 81.800781 C 39.675781 81.742188 39.761719 81.683594 39.851562 81.683594 C 39.9375 81.683594 40.023438 81.683594 40.082031 81.742188 C 40.050781 81.511719 40.199219 81.277344 40.429688 81.277344 C 40.546875 81.277344 40.660156 81.308594 40.75 81.367188 C 40.777344 81.191406 40.921875 81.046875 41.097656 81.019531 C 41.242188 80.988281 41.386719 81.074219 41.472656 81.191406 C 41.5 81.191406 41.5 81.191406 41.53125 81.191406 C 41.617188 81.191406 41.703125 81.191406 41.761719 81.25 C 41.761719 81.25 41.761719 81.25 41.792969 81.25 C 41.851562 81.191406 41.9375 81.132812 42.023438 81.132812 C 42.226562 81.105469 42.429688 81.277344 42.488281 81.480469 C 42.546875 81.453125 42.574219 81.421875 42.632812 81.421875 C 42.863281 81.394531 43.066406 81.570312 43.125 81.828125 C 43.125 81.859375 43.125 81.859375 43.125 81.886719 C 43.152344 81.886719 43.183594 81.859375 43.210938 81.859375 C 43.445312 81.828125 43.648438 82.03125 43.703125 82.265625 C 43.703125 82.320312 43.703125 82.378906 43.703125 82.4375 C 43.792969 82.4375 43.878906 82.4375 43.964844 82.46875 C 43.9375 82.292969 44.109375 82.121094 44.3125 82.121094 C 44.429688 82.121094 44.546875 82.148438 44.632812 82.175781 L 44.863281 82.175781 C 44.804688 82.148438 44.75 82.121094 44.660156 82.121094 C 44.71875 82.03125 44.835938 81.945312 44.980469 81.945312 C 45.125 81.945312 45.269531 81.972656 45.355469 82.0625 L 45.589844 82.0625 C 45.558594 82.03125 45.5 82.003906 45.445312 81.972656 C 45.5 81.945312 45.589844 81.917969 45.675781 81.886719 C 45.851562 81.859375 46.023438 81.945312 46.140625 82.0625 L 46.371094 82.0625 C 46.34375 82.03125 46.3125 82.003906 46.285156 81.972656 C 46.3125 81.972656 46.34375 81.972656 46.371094 81.945312 C 46.601562 81.917969 46.804688 82.03125 46.863281 82.207031 L 47.097656 82.207031 C 47.097656 82.175781 47.097656 82.175781 47.066406 82.148438 C 47.066406 82.148438 47.066406 82.148438 47.097656 82.148438 L 47.125 82.148438 C 47.125 82.148438 47.125 82.175781 47.125 82.175781 C 47.152344 82.175781 47.183594 82.175781 47.210938 82.175781 C 47.445312 82.148438 47.675781 82.292969 47.703125 82.496094 C 47.703125 82.523438 47.703125 82.582031 47.703125 82.613281 C 47.9375 82.582031 48.167969 82.726562 48.199219 82.929688 C 48.226562 83.019531 48.199219 83.074219 48.167969 83.132812 C 48.371094 83.132812 48.574219 83.277344 48.601562 83.453125 C 48.632812 83.570312 48.601562 83.65625 48.515625 83.714844 C 48.691406 83.742188 48.863281 83.859375 48.894531 84.003906 C 48.921875 84.0625 48.894531 84.148438 48.863281 84.207031 L 52.691406 84.207031 C 53.472656 84.148438 53.5 83.972656 53.472656 83.800781 Z M 53.472656 83.800781 " fill-opacity="1" fill-rule="evenodd"/><path fill="#2e7a3d" d="M 55.183594 83.800781 C 55.125 83.421875 54.835938 83.105469 54.515625 83.046875 C 54.660156 82.871094 54.71875 82.640625 54.660156 82.378906 C 54.601562 81.945312 54.253906 81.625 53.878906 81.597656 C 53.9375 81.453125 53.964844 81.277344 53.9375 81.105469 C 53.851562 80.640625 53.472656 80.292969 53.039062 80.351562 C 53.066406 80.265625 53.066406 80.148438 53.039062 80.03125 C 52.949219 79.570312 52.546875 79.21875 52.140625 79.277344 C 52.082031 79.277344 52.050781 79.308594 51.996094 79.308594 C 51.996094 79.277344 51.996094 79.25 51.996094 79.191406 C 51.90625 78.726562 51.53125 78.378906 51.097656 78.4375 C 50.980469 78.4375 50.894531 78.496094 50.804688 78.554688 C 50.691406 78.148438 50.3125 77.859375 49.9375 77.886719 C 49.761719 77.917969 49.617188 78.003906 49.5 78.117188 C 49.328125 77.800781 49.039062 77.625 48.691406 77.65625 C 48.601562 77.65625 48.488281 77.714844 48.429688 77.742188 C 48.226562 77.625 47.996094 77.566406 47.761719 77.566406 C 47.703125 77.566406 47.617188 77.597656 47.558594 77.625 C 47.558594 77.566406 47.558594 77.539062 47.558594 77.480469 C 47.472656 76.84375 46.921875 76.378906 46.34375 76.46875 C 46.199219 76.496094 46.050781 76.523438 45.9375 76.613281 C 45.792969 76.0625 45.269531 75.65625 44.75 75.714844 C 44.515625 75.742188 44.3125 75.859375 44.167969 76.003906 C 43.964844 75.597656 43.53125 75.335938 43.097656 75.367188 C 42.75 75.394531 42.488281 75.625 42.34375 75.917969 C 42.109375 75.625 41.761719 75.480469 41.414062 75.511719 C 40.980469 75.566406 40.660156 75.917969 40.574219 76.351562 C 40.371094 76.175781 40.082031 76.089844 39.820312 76.117188 C 39.269531 76.175781 38.894531 76.699219 38.953125 77.308594 C 38.777344 77.21875 38.574219 77.164062 38.371094 77.191406 C 38.082031 77.21875 37.820312 77.394531 37.675781 77.65625 C 37.589844 77.714844 37.53125 77.800781 37.472656 77.917969 C 37.300781 77.714844 37.039062 77.566406 36.75 77.597656 C 36.402344 77.625 36.167969 77.886719 36.109375 78.234375 C 35.9375 78.089844 35.734375 78.03125 35.53125 78.0625 C 35.125 78.117188 34.835938 78.496094 34.863281 78.960938 C 34.71875 78.871094 34.574219 78.84375 34.402344 78.871094 C 33.964844 78.929688 33.675781 79.367188 33.761719 79.828125 C 33.761719 79.886719 33.792969 79.945312 33.820312 80.003906 C 33.703125 79.972656 33.617188 79.945312 33.5 79.972656 C 33.066406 80.03125 32.777344 80.46875 32.863281 80.929688 C 32.894531 81.074219 32.953125 81.191406 33.007812 81.308594 C 32.953125 81.308594 32.894531 81.308594 32.835938 81.308594 C 32.402344 81.367188 32.109375 81.800781 32.199219 82.265625 C 32.226562 82.46875 32.34375 82.671875 32.457031 82.816406 C 32.429688 82.816406 32.429688 82.816406 32.402344 82.816406 C 31.964844 82.871094 31.675781 83.308594 31.761719 83.773438 C 31.792969 83.972656 31.878906 84.148438 31.996094 84.292969 L 37.269531 84.292969 C 37.242188 84.089844 37.355469 83.917969 37.53125 83.917969 C 37.53125 83.917969 37.53125 83.917969 37.558594 83.917969 C 37.5 83.859375 37.472656 83.773438 37.445312 83.714844 C 37.414062 83.511719 37.53125 83.335938 37.703125 83.335938 C 37.734375 83.335938 37.761719 83.335938 37.792969 83.335938 C 37.761719 83.277344 37.734375 83.25 37.734375 83.191406 C 37.703125 82.988281 37.820312 82.816406 37.996094 82.816406 C 38.050781 82.816406 38.082031 82.816406 38.109375 82.816406 C 38.109375 82.785156 38.109375 82.757812 38.082031 82.726562 C 38.050781 82.523438 38.167969 82.351562 38.34375 82.351562 C 38.402344 82.351562 38.457031 82.351562 38.515625 82.378906 C 38.488281 82.207031 38.601562 82.03125 38.777344 82.03125 C 38.863281 82.03125 38.953125 82.0625 39.007812 82.121094 C 39.039062 81.972656 39.125 81.886719 39.269531 81.859375 C 39.386719 81.859375 39.472656 81.886719 39.558594 81.972656 C 39.617188 81.886719 39.675781 81.828125 39.792969 81.800781 C 39.851562 81.742188 39.9375 81.683594 40.023438 81.683594 C 40.109375 81.683594 40.199219 81.683594 40.253906 81.742188 C 40.226562 81.511719 40.371094 81.277344 40.601562 81.277344 C 40.71875 81.277344 40.835938 81.308594 40.921875 81.367188 C 40.953125 81.191406 41.097656 81.046875 41.269531 81.019531 C 41.414062 80.988281 41.558594 81.074219 41.648438 81.191406 C 41.703125 81.074219 41.820312 80.988281 41.9375 80.960938 C 42.109375 80.929688 42.285156 81.046875 42.371094 81.222656 C 42.429688 81.164062 42.515625 81.105469 42.601562 81.105469 C 42.804688 81.074219 43.007812 81.25 43.066406 81.453125 C 43.125 81.421875 43.152344 81.394531 43.210938 81.394531 C 43.300781 81.394531 43.386719 81.394531 43.472656 81.453125 C 43.5 81.511719 43.53125 81.570312 43.53125 81.625 C 43.53125 81.65625 43.53125 81.65625 43.53125 81.683594 C 43.558594 81.683594 43.589844 81.65625 43.617188 81.65625 C 43.851562 81.625 44.050781 81.828125 44.109375 82.0625 C 44.109375 82.175781 44.109375 82.234375 44.082031 82.234375 C 44.050781 82.234375 44.023438 82.207031 43.9375 82.207031 L 43.851562 82.207031 C 43.9375 82.207031 44.023438 82.207031 44.109375 82.234375 C 44.082031 82.0625 44.457031 81.886719 44.691406 81.886719 C 44.804688 81.886719 44.921875 81.917969 45.007812 81.945312 C 45.039062 81.800781 45.183594 81.714844 45.355469 81.683594 C 45.5 81.683594 45.648438 81.714844 45.734375 81.800781 C 45.792969 81.714844 45.90625 81.65625 46.050781 81.625 C 46.226562 81.597656 46.402344 81.683594 46.515625 81.800781 C 46.574219 81.742188 46.660156 81.714844 46.75 81.714844 C 46.980469 81.683594 47.183594 81.800781 47.242188 81.972656 C 47.300781 81.945312 47.355469 81.945312 47.414062 81.945312 C 47.648438 81.917969 47.878906 82.0625 47.90625 82.265625 C 47.90625 82.265625 47.90625 82.292969 47.90625 82.292969 C 47.9375 82.292969 47.964844 82.292969 47.996094 82.292969 C 48.226562 82.265625 48.457031 82.410156 48.488281 82.613281 C 48.488281 82.640625 48.488281 82.699219 48.488281 82.726562 C 48.71875 82.699219 48.949219 82.84375 48.980469 83.046875 C 49.007812 83.132812 48.980469 83.191406 48.949219 83.25 C 49.152344 83.25 49.355469 83.394531 49.386719 83.570312 C 49.414062 83.683594 49.386719 83.773438 49.300781 83.828125 C 49.472656 83.859375 49.648438 83.972656 49.675781 84.121094 L 55.125 84.121094 C 55.183594 84.148438 55.210938 83.972656 55.183594 83.800781 Z M 55.183594 83.800781 " fill-opacity="1" fill-rule="evenodd"/></svg>