<svg xmlns="http://www.w3.org/2000/svg" xmlns:xlink="http://www.w3.org/1999/xlink" width="200" zoomAndPan="magnify" viewBox="0 0 150 149.999998" height="200" preserveAspectRatio="xMidYMid meet" version="1.0"><defs><clipPath id="ef9b63ae39"><path d="M 20.335938 20.949219 L 123 20.949219 L 123 119.363281 L 20.335938 119.363281 Z M 20.335938 20.949219 " clip-rule="nonzero"/></clipPath><clipPath id="e412b8699f"><path d="M 71.753906 20.949219 C 43.355469 20.949219 20.335938 42.980469 20.335938 70.15625 C 20.335938 97.332031 43.355469 119.363281 71.753906 119.363281 C 100.148438 119.363281 123.171875 97.332031 123.171875 70.15625 C 123.171875 42.980469 100.148438 20.949219 71.753906 20.949219 Z M 71.753906 20.949219 " clip-rule="nonzero"/></clipPath><clipPath id="e627566264"><path d="M 126 56 L 143 56 L 143 72 L 126 72 Z M 126 56 " clip-rule="nonzero"/></clipPath><clipPath id="ea395253b6"><path d="M 123.371094 63.65625 L 137.398438 53.679688 L 145.40625 64.933594 L 131.378906 74.914062 Z M 123.371094 63.65625 " clip-rule="nonzero"/></clipPath><clipPath id="d79f8e5d8f"><path d="M 130.371094 58.675781 C 126.503906 61.425781 125.164062 66.175781 127.375 69.285156 C 129.585938 72.394531 134.511719 72.683594 138.378906 69.933594 C 142.246094 67.183594 143.585938 62.433594 141.375 59.324219 C 139.164062 56.21875 134.238281 55.925781 130.371094 58.675781 Z M 130.371094 58.675781 " clip-rule="nonzero"/></clipPath><clipPath id="9d04849a1c"><path d="M 95 116 L 114 116 L 114 139 L 95 139 Z M 95 116 " clip-rule="nonzero"/></clipPath><clipPath id="2798765ea9"><path d="M 117.734375 122.234375 L 104.34375 141.933594 L 91.210938 133.003906 L 104.605469 113.308594 Z M 117.734375 122.234375 " clip-rule="nonzero"/></clipPath><clipPath id="23b9559613"><path d="M 111.054688 132.0625 C 114.742188 126.636719 114.796875 120.238281 111.167969 117.769531 C 107.542969 115.304688 101.613281 117.707031 97.921875 123.132812 C 94.230469 128.558594 94.179688 134.957031 97.804688 137.421875 C 101.433594 139.890625 107.363281 137.488281 111.054688 132.0625 Z M 111.054688 132.0625 " clip-rule="nonzero"/></clipPath><clipPath id="41b867e38c"><path d="M 98 114 L 121 114 L 121 133 L 98 133 Z M 98 114 " clip-rule="nonzero"/></clipPath><clipPath id="4d031eaff1"><path d="M 123.519531 125.542969 L 102.105469 135.96875 L 95.152344 121.691406 L 116.570312 111.265625 Z M 123.519531 125.542969 " clip-rule="nonzero"/></clipPath><clipPath id="3785fba14e"><path d="M 112.835938 130.742188 C 118.738281 127.871094 121.964844 122.347656 120.046875 118.402344 C 118.125 114.460938 111.789062 113.59375 105.886719 116.464844 C 99.984375 119.339844 96.757812 124.863281 98.675781 128.804688 C 100.597656 132.75 106.9375 133.617188 112.835938 130.742188 Z M 112.835938 130.742188 " clip-rule="nonzero"/></clipPath><clipPath id="e08b822143"><path d="M 40 122 L 65 122 L 65 140 L 40 140 Z M 40 122 " clip-rule="nonzero"/></clipPath><clipPath id="2eda50aedb"><path d="M 66.09375 135.324219 L 43.21875 141.972656 L 38.789062 126.722656 L 61.664062 120.074219 Z M 66.09375 135.324219 " clip-rule="nonzero"/></clipPath><clipPath id="a62f9caa06"><path d="M 54.683594 138.640625 C 60.984375 136.808594 65.101562 131.910156 63.878906 127.699219 C 62.652344 123.488281 56.554688 121.558594 50.25 123.390625 C 43.949219 125.222656 39.832031 130.121094 41.054688 134.332031 C 42.28125 138.542969 48.378906 140.472656 54.683594 138.640625 Z M 54.683594 138.640625 " clip-rule="nonzero"/></clipPath><clipPath id="f06558a6c5"><path d="M 47 122 L 71 122 L 71 140 L 47 140 Z M 47 122 " clip-rule="nonzero"/></clipPath><clipPath id="8129519f7d"><path d="M 68.445312 141.558594 L 45.296875 135.949219 L 49.039062 120.515625 L 72.1875 126.128906 Z M 68.445312 141.558594 " clip-rule="nonzero"/></clipPath><clipPath id="9c4be3a291"><path d="M 56.898438 138.761719 C 63.273438 140.308594 69.28125 138.105469 70.316406 133.84375 C 71.347656 129.582031 67.015625 124.875 60.636719 123.328125 C 54.261719 121.78125 48.253906 123.984375 47.21875 128.246094 C 46.1875 132.507812 50.519531 137.214844 56.898438 138.761719 Z M 56.898438 138.761719 " clip-rule="nonzero"/></clipPath><clipPath id="bb319ded18"><path d="M 37.363281 55 L 107.90625 55 L 107.90625 115 L 37.363281 115 Z M 37.363281 55 " clip-rule="nonzero"/></clipPath><clipPath id="d8aa3a1dba"><path d="M 72.5625 55 C 53.121094 55 37.363281 68.433594 37.363281 85 C 37.363281 101.566406 53.121094 115 72.5625 115 C 92 115 107.757812 101.566406 107.757812 85 C 107.757812 68.433594 92 55 72.5625 55 Z M 72.5625 55 " clip-rule="nonzero"/></clipPath><clipPath id="604433814c"><path d="M 45.542969 39.847656 L 69.191406 39.847656 L 69.191406 70.238281 L 45.542969 70.238281 Z M 45.542969 39.847656 " clip-rule="nonzero"/></clipPath><clipPath id="4eba77e274"><path d="M 57.367188 39.847656 C 60.503906 39.847656 63.511719 41.09375 65.726562 43.308594 C 67.945312 45.527344 69.191406 48.535156 69.191406 51.671875 L 69.191406 58.332031 C 69.191406 61.46875 67.945312 64.476562 65.726562 66.695312 C 63.511719 68.910156 60.503906 70.15625 57.367188 70.15625 C 54.230469 70.15625 51.222656 68.910156 49.007812 66.695312 C 46.789062 64.476562 45.542969 61.46875 45.542969 58.332031 L 45.542969 51.671875 C 45.542969 48.535156 46.789062 45.527344 49.007812 43.308594 C 51.222656 41.09375 54.230469 39.847656 57.367188 39.847656 Z M 57.367188 39.847656 " clip-rule="nonzero"/></clipPath><clipPath id="edf24f8129"><path d="M 74.3125 39.847656 L 97.960938 39.847656 L 97.960938 70.238281 L 74.3125 70.238281 Z M 74.3125 39.847656 " clip-rule="nonzero"/></clipPath><clipPath id="ac5150fb72"><path d="M 86.136719 39.847656 C 89.273438 39.847656 92.28125 41.09375 94.5 43.308594 C 96.714844 45.527344 97.960938 48.535156 97.960938 51.671875 L 97.960938 58.332031 C 97.960938 61.46875 96.714844 64.476562 94.5 66.695312 C 92.28125 68.910156 89.273438 70.15625 86.136719 70.15625 C 83 70.15625 79.996094 68.910156 77.777344 66.695312 C 75.558594 64.476562 74.3125 61.46875 74.3125 58.332031 L 74.3125 51.671875 C 74.3125 48.535156 75.558594 45.527344 77.777344 43.308594 C 79.996094 41.09375 83 39.847656 86.136719 39.847656 Z M 86.136719 39.847656 " clip-rule="nonzero"/></clipPath><clipPath id="4e6b4a86ab"><path d="M 79.378906 46.011719 L 92.898438 46.011719 L 92.898438 64.707031 L 79.378906 64.707031 Z M 79.378906 46.011719 " clip-rule="nonzero"/></clipPath><clipPath id="eb783de094"><path d="M 86.136719 46.011719 C 87.929688 46.011719 89.648438 46.722656 90.917969 47.992188 C 92.1875 49.257812 92.898438 50.980469 92.898438 52.773438 L 92.898438 57.898438 C 92.898438 59.691406 92.1875 61.414062 90.917969 62.679688 C 89.648438 63.949219 87.929688 64.660156 86.136719 64.660156 C 84.34375 64.660156 82.625 63.949219 81.355469 62.679688 C 80.089844 61.414062 79.378906 59.691406 79.378906 57.898438 L 79.378906 52.773438 C 79.378906 50.980469 80.089844 49.257812 81.355469 47.992188 C 82.625 46.722656 84.34375 46.011719 86.136719 46.011719 Z M 86.136719 46.011719 " clip-rule="nonzero"/></clipPath><clipPath id="9b0c5fa1ab"><path d="M 85.066406 46.011719 L 91.085938 46.011719 L 91.085938 52.898438 L 85.066406 52.898438 Z M 85.066406 46.011719 " clip-rule="nonzero"/></clipPath><clipPath id="dea0319036"><path d="M 88.074219 46.011719 C 89.738281 46.011719 91.085938 47.359375 91.085938 49.019531 L 91.085938 49.886719 C 91.085938 51.550781 89.738281 52.898438 88.074219 52.898438 C 86.414062 52.898438 85.066406 51.550781 85.066406 49.886719 L 85.066406 49.019531 C 85.066406 47.359375 86.414062 46.011719 88.074219 46.011719 Z M 88.074219 46.011719 " clip-rule="nonzero"/></clipPath><clipPath id="c0e9ccc3ed"><path d="M 50.171875 45.675781 L 63.695312 45.675781 L 63.695312 64.375 L 50.171875 64.375 Z M 50.171875 45.675781 " clip-rule="nonzero"/></clipPath><clipPath id="f98ed85ff2"><path d="M 56.933594 45.675781 C 58.726562 45.675781 60.445312 46.390625 61.714844 47.65625 C 62.980469 48.925781 63.695312 50.644531 63.695312 52.4375 L 63.695312 57.566406 C 63.695312 59.359375 62.980469 61.078125 61.714844 62.347656 C 60.445312 63.613281 58.726562 64.328125 56.933594 64.328125 C 55.140625 64.328125 53.421875 63.613281 52.152344 62.347656 C 50.886719 61.078125 50.171875 59.359375 50.171875 57.566406 L 50.171875 52.4375 C 50.171875 50.644531 50.886719 48.925781 52.152344 47.65625 C 53.421875 46.390625 55.140625 45.675781 56.933594 45.675781 Z M 56.933594 45.675781 " clip-rule="nonzero"/></clipPath><clipPath id="aeba6cf4a5"><path d="M 56.453125 45.675781 L 62.472656 45.675781 L 62.472656 52.566406 L 56.453125 52.566406 Z M 56.453125 45.675781 " clip-rule="nonzero"/></clipPath><clipPath id="a7c08010db"><path d="M 59.464844 45.675781 C 61.125 45.675781 62.472656 47.023438 62.472656 48.6875 L 62.472656 49.554688 C 62.472656 51.214844 61.125 52.5625 59.464844 52.5625 C 57.800781 52.5625 56.453125 51.214844 56.453125 49.554688 L 56.453125 48.6875 C 56.453125 47.023438 57.800781 45.675781 59.464844 45.675781 Z M 59.464844 45.675781 " clip-rule="nonzero"/></clipPath><clipPath id="87ac327a6e"><path d="M 72 61 L 99 61 L 99 75 L 72 75 Z M 72 61 " clip-rule="nonzero"/></clipPath><clipPath id="b3704479b1"><path d="M 71.835938 65.082031 L 97.40625 59.761719 L 99.835938 71.453125 L 74.269531 76.769531 Z M 71.835938 65.082031 " clip-rule="nonzero"/></clipPath><clipPath id="29cde8b19f"><path d="M 84.609375 62.425781 C 77.554688 63.894531 72.378906 67.699219 73.050781 70.925781 C 73.722656 74.15625 79.988281 75.582031 87.042969 74.113281 C 94.097656 72.644531 99.269531 68.839844 98.597656 65.613281 C 97.929688 62.382812 91.664062 60.957031 84.609375 62.425781 Z M 84.609375 62.425781 " clip-rule="nonzero"/></clipPath><clipPath id="7e744f49df"><path d="M 46 61 L 73 61 L 73 75 L 46 75 Z M 46 61 " clip-rule="nonzero"/></clipPath><clipPath id="b222de0123"><path d="M 47.839844 59.265625 L 73.363281 64.8125 L 70.828125 76.476562 L 45.308594 70.933594 Z M 47.839844 59.265625 " clip-rule="nonzero"/></clipPath><clipPath id="5e38713ad4"><path d="M 60.589844 62.035156 C 53.550781 60.507812 47.273438 61.878906 46.574219 65.101562 C 45.875 68.320312 51.015625 72.171875 58.054688 73.703125 C 65.097656 75.234375 71.375 73.863281 72.074219 70.640625 C 72.773438 67.417969 67.632812 63.566406 60.589844 62.035156 Z M 60.589844 62.035156 " clip-rule="nonzero"/></clipPath><clipPath id="d94219b42e"><path d="M 62.898438 70.972656 L 80.789062 70.972656 L 80.789062 78.8125 L 62.898438 78.8125 Z M 62.898438 70.972656 " clip-rule="nonzero"/></clipPath><clipPath id="48b7826c43"><path d="M 60.460938 61.460938 L 82.976562 61.460938 L 82.976562 72.519531 L 60.460938 72.519531 Z M 60.460938 61.460938 " clip-rule="nonzero"/></clipPath><clipPath id="a271023e1f"><path d="M 74.683594 63.570312 L 79.011719 63.570312 L 79.011719 67.167969 L 74.683594 67.167969 Z M 74.683594 63.570312 " clip-rule="nonzero"/></clipPath><clipPath id="bc8b87c2e5"><path d="M 75.753906 63.609375 C 77.242188 64.273438 77.84375 64.679688 78.214844 65.023438 C 78.511719 65.300781 78.800781 65.65625 78.914062 65.871094 C 78.972656 65.980469 78.988281 66.054688 78.996094 66.148438 C 79.007812 66.242188 79.003906 66.339844 78.980469 66.4375 C 78.960938 66.53125 78.929688 66.625 78.882812 66.707031 C 78.835938 66.792969 78.773438 66.863281 78.699219 66.925781 C 78.625 66.988281 78.542969 67.042969 78.453125 67.078125 C 78.367188 67.113281 78.265625 67.140625 78.171875 67.144531 C 78.078125 67.152344 77.980469 67.144531 77.882812 67.121094 C 77.796875 67.09375 77.703125 67.058594 77.625 67.003906 C 77.546875 66.953125 77.464844 66.878906 77.410156 66.808594 C 77.351562 66.734375 77.304688 66.644531 77.273438 66.554688 C 77.242188 66.46875 77.222656 66.367188 77.222656 66.273438 C 77.222656 66.179688 77.230469 66.074219 77.261719 65.984375 C 77.292969 65.898438 77.335938 65.804688 77.394531 65.730469 C 77.449219 65.652344 77.523438 65.582031 77.601562 65.53125 C 77.679688 65.480469 77.769531 65.433594 77.859375 65.40625 C 77.949219 65.378906 78.050781 65.363281 78.144531 65.371094 C 78.238281 65.375 78.339844 65.394531 78.429688 65.425781 C 78.515625 65.464844 78.605469 65.511719 78.679688 65.574219 C 78.753906 65.628906 78.820312 65.710938 78.867188 65.789062 C 78.917969 65.867188 78.957031 65.960938 78.976562 66.054688 C 78.996094 66.148438 79.007812 66.246094 78.996094 66.339844 C 78.988281 66.4375 78.960938 66.535156 78.925781 66.617188 C 78.886719 66.707031 78.832031 66.792969 78.769531 66.859375 C 78.707031 66.925781 78.625 66.988281 78.542969 67.035156 C 78.460938 67.082031 78.367188 67.121094 78.269531 67.136719 C 78.175781 67.152344 78.078125 67.15625 77.984375 67.140625 C 77.890625 67.125 77.789062 67.09375 77.707031 67.050781 C 77.625 67.011719 77.5625 66.964844 77.476562 66.878906 C 77.339844 66.742188 77.214844 66.492188 76.996094 66.285156 C 76.667969 65.96875 75.949219 65.464844 75.59375 65.28125 C 75.402344 65.179688 75.234375 65.175781 75.121094 65.113281 C 75.046875 65.078125 75.003906 65.039062 74.957031 64.992188 C 74.910156 64.945312 74.867188 64.910156 74.832031 64.839844 C 74.78125 64.746094 74.71875 64.597656 74.707031 64.46875 C 74.695312 64.34375 74.734375 64.175781 74.769531 64.078125 C 74.796875 64.003906 74.820312 63.964844 74.867188 63.90625 C 74.9375 63.820312 75.078125 63.710938 75.171875 63.660156 C 75.238281 63.625 75.285156 63.601562 75.359375 63.59375 C 75.464844 63.578125 75.753906 63.609375 75.753906 63.609375 " clip-rule="nonzero"/></clipPath><clipPath id="070c71b191"><path d="M 78.820312 68.203125 L 80.414062 68.203125 L 80.414062 69.84375 L 78.820312 69.84375 Z M 78.820312 68.203125 " clip-rule="nonzero"/></clipPath><clipPath id="46b953482b"><path d="M 80.414062 68.789062 C 80.414062 69.296875 80.355469 69.425781 80.277344 69.523438 C 80.199219 69.625 80.089844 69.714844 79.976562 69.765625 C 79.859375 69.816406 79.71875 69.839844 79.59375 69.832031 C 79.46875 69.828125 79.332031 69.78125 79.222656 69.71875 C 79.113281 69.65625 79.007812 69.550781 78.945312 69.445312 C 78.878906 69.335938 78.835938 69.199219 78.832031 69.074219 C 78.824219 68.949219 78.851562 68.808594 78.902344 68.695312 C 78.957031 68.578125 79.039062 68.46875 79.140625 68.390625 C 79.238281 68.3125 79.367188 68.25 79.496094 68.230469 C 79.621094 68.207031 79.761719 68.21875 79.882812 68.253906 C 80 68.292969 80.214844 68.453125 80.214844 68.453125 " clip-rule="nonzero"/></clipPath><clipPath id="c95be0bee3"><path d="M 70 6 L 79.421875 6 L 79.421875 15 L 70 15 Z M 70 6 " clip-rule="nonzero"/></clipPath><clipPath id="83c2ff28a8"><path d="M 64.144531 8 L 71 8 L 71 15 L 64.144531 15 Z M 64.144531 8 " clip-rule="nonzero"/></clipPath><clipPath id="d3d80cdcb3"><path d="M 1 71 L 19 71 L 19 87 L 1 87 Z M 1 71 " clip-rule="nonzero"/></clipPath><clipPath id="f5981eadbd"><path d="M 5.441406 68.914062 L 20.972656 76.34375 L 15.007812 88.804688 L -0.519531 81.375 Z M 5.441406 68.914062 " clip-rule="nonzero"/></clipPath><clipPath id="a8f68e09e1"><path d="M 13.191406 72.621094 C 8.914062 70.574219 4.109375 71.703125 2.460938 75.144531 C 0.816406 78.585938 2.953125 83.035156 7.230469 85.082031 C 11.511719 87.132812 16.316406 86 17.960938 82.558594 C 19.605469 79.121094 17.472656 74.671875 13.191406 72.621094 Z M 13.191406 72.621094 " clip-rule="nonzero"/></clipPath></defs><g clip-path="url(#ef9b63ae39)"><g clip-path="url(#e412b8699f)"><path fill="#f8c038" d="M 20.335938 20.949219 L 122.976562 20.949219 L 122.976562 119.363281 L 20.335938 119.363281 Z M 20.335938 20.949219 " fill-opacity="1" fill-rule="nonzero"/></g></g><g clip-path="url(#e627566264)"><g clip-path="url(#ea395253b6)"><g clip-path="url(#d79f8e5d8f)"><path fill="#f8c038" d="M 123.371094 63.65625 L 137.355469 53.710938 L 145.359375 64.964844 L 131.378906 74.914062 Z M 123.371094 63.65625 " fill-opacity="1" fill-rule="nonzero"/></g></g></g><g clip-path="url(#9d04849a1c)"><g clip-path="url(#2798765ea9)"><g clip-path="url(#23b9559613)"><path fill="#f09020" d="M 117.734375 122.234375 L 104.375 141.882812 L 91.246094 132.953125 L 104.605469 113.308594 Z M 117.734375 122.234375 " fill-opacity="1" fill-rule="nonzero"/></g></g></g><g clip-path="url(#41b867e38c)"><g clip-path="url(#4d031eaff1)"><g clip-path="url(#3785fba14e)"><path fill="#f09020" d="M 123.519531 125.542969 L 102.160156 135.941406 L 95.210938 121.664062 L 116.570312 111.265625 Z M 123.519531 125.542969 " fill-opacity="1" fill-rule="nonzero"/></g></g></g><g clip-path="url(#e08b822143)"><g clip-path="url(#2eda50aedb)"><g clip-path="url(#a62f9caa06)"><path fill="#f09020" d="M 66.09375 135.324219 L 43.28125 141.953125 L 38.847656 126.707031 L 61.664062 120.074219 Z M 66.09375 135.324219 " fill-opacity="1" fill-rule="nonzero"/></g></g></g><g clip-path="url(#f06558a6c5)"><g clip-path="url(#8129519f7d)"><g clip-path="url(#9c4be3a291)"><path fill="#f09020" d="M 68.445312 141.558594 L 45.355469 135.964844 L 49.097656 120.53125 L 72.1875 126.128906 Z M 68.445312 141.558594 " fill-opacity="1" fill-rule="nonzero"/></g></g></g><g clip-path="url(#bb319ded18)"><g clip-path="url(#d8aa3a1dba)"><path fill="#fddc66" d="M 37.363281 55 L 107.671875 55 L 107.671875 115 L 37.363281 115 Z M 37.363281 55 " fill-opacity="1" fill-rule="nonzero"/></g></g><g clip-path="url(#604433814c)"><g clip-path="url(#4eba77e274)"><path fill="#ffffff" d="M 45.542969 39.847656 L 69.191406 39.847656 L 69.191406 70.144531 L 45.542969 70.144531 Z M 45.542969 39.847656 " fill-opacity="1" fill-rule="nonzero"/></g></g><g clip-path="url(#edf24f8129)"><g clip-path="url(#ac5150fb72)"><path fill="#ffffff" d="M 74.3125 39.847656 L 97.960938 39.847656 L 97.960938 70.144531 L 74.3125 70.144531 Z M 74.3125 39.847656 " fill-opacity="1" fill-rule="nonzero"/></g></g><g clip-path="url(#4e6b4a86ab)"><g clip-path="url(#eb783de094)"><path fill="#4b4b4b" d="M 79.378906 46.011719 L 92.898438 46.011719 L 92.898438 64.65625 L 79.378906 64.65625 Z M 79.378906 46.011719 " fill-opacity="1" fill-rule="nonzero"/></g></g><g clip-path="url(#9b0c5fa1ab)"><g clip-path="url(#dea0319036)"><path fill="#ffffff" d="M 85.066406 46.011719 L 91.085938 46.011719 L 91.085938 52.898438 L 85.066406 52.898438 Z M 85.066406 46.011719 " fill-opacity="1" fill-rule="nonzero"/></g></g><g clip-path="url(#c0e9ccc3ed)"><g clip-path="url(#f98ed85ff2)"><path fill="#4b4b4b" d="M 50.171875 45.675781 L 63.695312 45.675781 L 63.695312 64.320312 L 50.171875 64.320312 Z M 50.171875 45.675781 " fill-opacity="1" fill-rule="nonzero"/></g></g><g clip-path="url(#aeba6cf4a5)"><g clip-path="url(#a7c08010db)"><path fill="#ffffff" d="M 56.453125 45.675781 L 62.472656 45.675781 L 62.472656 52.566406 L 56.453125 52.566406 Z M 56.453125 45.675781 " fill-opacity="1" fill-rule="nonzero"/></g></g><g clip-path="url(#87ac327a6e)"><g clip-path="url(#b3704479b1)"><g clip-path="url(#29cde8b19f)"><path fill="#fddc66" d="M 71.835938 65.082031 L 97.40625 59.761719 L 99.835938 71.453125 L 74.269531 76.769531 Z M 71.835938 65.082031 " fill-opacity="1" fill-rule="nonzero"/></g></g></g><g clip-path="url(#7e744f49df)"><g clip-path="url(#b222de0123)"><g clip-path="url(#5e38713ad4)"><path fill="#fddc66" d="M 47.839844 59.265625 L 73.363281 64.8125 L 70.828125 76.476562 L 45.308594 70.933594 Z M 47.839844 59.265625 " fill-opacity="1" fill-rule="nonzero"/></g></g></g><g clip-path="url(#d94219b42e)"><path fill="#f86018" d="M 80.710938 69.945312 C 80.710938 70.53125 80.652344 71.109375 80.539062 71.683594 C 80.425781 72.257812 80.257812 72.8125 80.035156 73.351562 C 79.808594 73.894531 79.535156 74.40625 79.210938 74.894531 C 78.886719 75.378906 78.515625 75.828125 78.101562 76.242188 C 77.6875 76.65625 77.238281 77.027344 76.753906 77.351562 C 76.265625 77.675781 75.753906 77.949219 75.214844 78.171875 C 74.671875 78.398438 74.117188 78.566406 73.542969 78.679688 C 72.96875 78.792969 72.390625 78.851562 71.804688 78.851562 C 71.21875 78.851562 70.640625 78.792969 70.066406 78.679688 C 69.492188 78.566406 68.9375 78.398438 68.394531 78.171875 C 67.855469 77.949219 67.34375 77.675781 66.855469 77.351562 C 66.371094 77.027344 65.921875 76.65625 65.507812 76.242188 C 65.09375 75.828125 64.722656 75.378906 64.398438 74.894531 C 64.074219 74.40625 63.800781 73.894531 63.574219 73.351562 C 63.351562 72.8125 63.183594 72.257812 63.070312 71.683594 C 62.953125 71.109375 62.898438 70.53125 62.898438 69.945312 C 62.898438 69.359375 62.953125 68.78125 63.070312 68.207031 C 63.183594 67.632812 63.351562 67.078125 63.574219 66.535156 C 63.800781 65.996094 64.074219 65.484375 64.398438 64.996094 C 64.722656 64.511719 65.09375 64.058594 65.507812 63.648438 C 65.921875 63.234375 66.371094 62.863281 66.855469 62.539062 C 67.34375 62.214844 67.855469 61.941406 68.394531 61.714844 C 68.9375 61.492188 69.492188 61.324219 70.066406 61.210938 C 70.640625 61.09375 71.21875 61.039062 71.804688 61.039062 C 72.390625 61.039062 72.96875 61.09375 73.542969 61.210938 C 74.117188 61.324219 74.671875 61.492188 75.214844 61.714844 C 75.753906 61.941406 76.265625 62.214844 76.753906 62.539062 C 77.238281 62.863281 77.6875 63.234375 78.101562 63.648438 C 78.515625 64.058594 78.886719 64.511719 79.210938 64.996094 C 79.535156 65.484375 79.808594 65.996094 80.035156 66.535156 C 80.257812 67.078125 80.425781 67.632812 80.539062 68.207031 C 80.652344 68.78125 80.710938 69.359375 80.710938 69.945312 Z M 80.710938 69.945312 " fill-opacity="1" fill-rule="nonzero"/></g><g clip-path="url(#48b7826c43)"><path fill="#f09020" d="M 83.039062 72.75 C 83.039062 73.492188 82.96875 74.226562 82.824219 74.953125 C 82.679688 75.679688 82.464844 76.386719 82.179688 77.070312 C 81.898438 77.753906 81.550781 78.40625 81.136719 79.023438 C 80.726562 79.640625 80.257812 80.210938 79.734375 80.734375 C 79.210938 81.257812 78.640625 81.726562 78.023438 82.136719 C 77.40625 82.550781 76.757812 82.898438 76.070312 83.179688 C 75.386719 83.464844 74.679688 83.679688 73.953125 83.824219 C 73.226562 83.96875 72.492188 84.039062 71.75 84.039062 C 71.011719 84.039062 70.277344 83.96875 69.550781 83.824219 C 68.820312 83.679688 68.117188 83.464844 67.429688 83.179688 C 66.746094 82.898438 66.097656 82.550781 65.480469 82.136719 C 64.863281 81.726562 64.292969 81.257812 63.769531 80.734375 C 63.246094 80.210938 62.777344 79.640625 62.363281 79.023438 C 61.953125 78.40625 61.605469 77.753906 61.320312 77.070312 C 61.039062 76.386719 60.824219 75.679688 60.679688 74.953125 C 60.535156 74.226562 60.460938 73.492188 60.460938 72.75 C 60.460938 72.007812 60.535156 71.273438 60.679688 70.546875 C 60.824219 69.820312 61.039062 69.113281 61.320312 68.429688 C 61.605469 67.746094 61.953125 67.09375 62.363281 66.480469 C 62.777344 65.863281 63.246094 65.292969 63.769531 64.769531 C 64.292969 64.242188 64.863281 63.777344 65.480469 63.363281 C 66.097656 62.953125 66.746094 62.605469 67.429688 62.320312 C 68.117188 62.035156 68.820312 61.824219 69.550781 61.679688 C 70.277344 61.535156 71.011719 61.460938 71.75 61.460938 C 72.492188 61.460938 73.226562 61.535156 73.953125 61.679688 C 74.679688 61.824219 75.386719 62.035156 76.070312 62.320312 C 76.757812 62.605469 77.40625 62.953125 78.023438 63.363281 C 78.640625 63.777344 79.210938 64.242188 79.734375 64.769531 C 80.257812 65.292969 80.726562 65.863281 81.136719 66.480469 C 81.550781 67.09375 81.898438 67.746094 82.179688 68.429688 C 82.464844 69.113281 82.679688 69.820312 82.824219 70.546875 C 82.96875 71.273438 83.039062 72.007812 83.039062 72.75 Z M 83.039062 72.75 " fill-opacity="1" fill-rule="nonzero"/></g><g clip-path="url(#a271023e1f)"><g clip-path="url(#bc8b87c2e5)"><path fill="#ffffff" d="M 74.496094 63.382812 L 79.199219 63.382812 L 79.199219 67.355469 L 74.496094 67.355469 Z M 74.496094 63.382812 " fill-opacity="1" fill-rule="nonzero"/></g></g><g clip-path="url(#070c71b191)"><g clip-path="url(#46b953482b)"><path fill="#ffffff" d="M 78.621094 68.019531 L 80.644531 68.019531 L 80.644531 70.042969 L 78.621094 70.042969 Z M 78.621094 68.019531 " fill-opacity="1" fill-rule="nonzero"/></g></g><path stroke-linecap="round" transform="matrix(-0.201034, -0.00000000035087, 0.00000000035087, -0.201034, 65.98338, 70.458807)" fill="none" stroke-linejoin="miter" d="M 1.491222 1.505004 L 17.443921 1.505004 " stroke="#c8831a" stroke-width="3" stroke-opacity="1" stroke-miterlimit="4"/><path stroke-linecap="round" transform="matrix(-0.201034, -0.00000000035087, 0.00000000035087, -0.201034, 65.984997, 68.329745)" fill="none" stroke-linejoin="miter" d="M 1.499269 1.504232 L 10.495736 1.504232 " stroke="#c8831a" stroke-width="3" stroke-opacity="1" stroke-miterlimit="4"/><path stroke-linecap="round" transform="matrix(-0.201034, -0.00000000035087, 0.00000000035087, -0.201034, 65.985218, 66.361112)" fill="none" stroke-linejoin="miter" d="M 1.500367 1.504812 L 5.464253 1.504812 " stroke="#c8831a" stroke-width="3" stroke-opacity="1" stroke-miterlimit="4"/><g clip-path="url(#c95be0bee3)"><path fill="#39b54a" d="M 71.226562 14.679688 C 70.878906 13.878906 70.363281 12.316406 70.867188 10.648438 C 71.703125 7.914062 74.96875 5.949219 78.898438 6.203125 C 79.421875 9.542969 78.132812 12.667969 75.710938 14.066406 C 74.078125 15.003906 72.386719 14.894531 71.585938 14.785156 C 72.40625 14.160156 73.324219 13.359375 74.246094 12.347656 C 75.667969 10.78125 76.613281 9.230469 77.242188 7.992188 C 76.339844 9.25 75.257812 10.613281 73.964844 12.003906 C 73.03125 13.007812 72.105469 13.898438 71.226562 14.679688 Z M 71.226562 14.679688 " fill-opacity="1" fill-rule="nonzero"/></g><g clip-path="url(#83c2ff28a8)"><path fill="#39b54a" d="M 70.175781 14.765625 C 69.5625 14.953125 68.382812 15.199219 67.214844 14.683594 C 65.292969 13.84375 64.144531 11.289062 64.664062 8.433594 C 67.136719 8.335938 69.304688 9.542969 70.113281 11.4375 C 70.65625 12.710938 70.433594 13.9375 70.285156 14.511719 C 69.898438 13.859375 69.394531 13.117188 68.734375 12.359375 C 67.71875 11.1875 66.671875 10.363281 65.820312 9.796875 C 66.664062 10.5625 67.5625 11.472656 68.464844 12.539062 C 69.113281 13.304688 69.683594 14.054688 70.175781 14.765625 Z M 70.175781 14.765625 " fill-opacity="1" fill-rule="nonzero"/></g><g clip-path="url(#d3d80cdcb3)"><g clip-path="url(#f5981eadbd)"><g clip-path="url(#a8f68e09e1)"><path fill="#f8c038" d="M 5.441406 68.914062 L 20.921875 76.320312 L 14.960938 88.78125 L -0.519531 81.375 Z M 5.441406 68.914062 " fill-opacity="1" fill-rule="nonzero"/></g></g></g></svg>