<svg xmlns="http://www.w3.org/2000/svg" xmlns:xlink="http://www.w3.org/1999/xlink" width="1080" zoomAndPan="magnify" viewBox="0 0 810 809.999993" height="1080" preserveAspectRatio="xMidYMid meet" version="1.0"><defs><clipPath id="6120dd240e"><path d="M 210.085938 203.730469 L 600 203.730469 L 600 300.46875 L 210.085938 300.46875 Z M 210.085938 203.730469 " clip-rule="nonzero"/></clipPath><clipPath id="63eff2ee09"><path d="M 256.585938 203.730469 L 553.414062 203.730469 C 565.746094 203.730469 577.574219 208.628906 586.292969 217.347656 C 595.015625 226.070312 599.914062 237.894531 599.914062 250.230469 L 599.914062 253.96875 C 599.914062 266.300781 595.015625 278.128906 586.292969 286.847656 C 577.574219 295.570312 565.746094 300.46875 553.414062 300.46875 L 256.585938 300.46875 C 244.253906 300.46875 232.425781 295.570312 223.707031 286.847656 C 214.984375 278.128906 210.085938 266.300781 210.085938 253.96875 L 210.085938 250.230469 C 210.085938 237.894531 214.984375 226.070312 223.707031 217.347656 C 232.425781 208.628906 244.253906 203.730469 256.585938 203.730469 Z M 256.585938 203.730469 " clip-rule="nonzero"/></clipPath><clipPath id="2e802dede3"><path d="M 202 201 L 436 201 L 436 515 L 202 515 Z M 202 201 " clip-rule="nonzero"/></clipPath><clipPath id="3818617470"><path d="M 266.816406 184.34375 L 453.59375 480.699219 L 371.753906 532.277344 L 184.976562 235.925781 Z M 266.816406 184.34375 " clip-rule="nonzero"/></clipPath><clipPath id="7ec387bc85"><path d="M 291.609375 223.683594 L 428.777344 441.320312 C 435.351562 451.753906 437.515625 464.371094 434.785156 476.398438 C 432.058594 488.425781 424.664062 498.875 414.230469 505.453125 L 411.070312 507.445312 C 400.636719 514.023438 388.015625 516.183594 375.988281 513.457031 C 363.964844 510.726562 353.511719 503.335938 346.9375 492.902344 L 209.769531 275.265625 C 203.191406 264.832031 201.03125 252.214844 203.757812 240.1875 C 206.484375 228.160156 213.878906 217.707031 224.3125 211.132812 L 227.476562 209.140625 C 237.910156 202.5625 250.527344 200.402344 262.554688 203.128906 C 274.582031 205.855469 285.035156 213.25 291.609375 223.683594 Z M 291.609375 223.683594 " clip-rule="nonzero"/></clipPath><clipPath id="d8e569a3cb"><path d="M 375 201 L 609 201 L 609 515 L 375 515 Z M 375 201 " clip-rule="nonzero"/></clipPath><clipPath id="f0c23d9470"><path d="M 357.65625 480.738281 L 544.300781 184.300781 L 626.164062 235.84375 L 439.519531 532.28125 Z M 357.65625 480.738281 " clip-rule="nonzero"/></clipPath><clipPath id="f425faa33f"><path d="M 382.429688 441.390625 L 519.5 223.691406 C 526.070312 213.253906 536.519531 205.855469 548.542969 203.121094 C 560.570312 200.390625 573.191406 202.546875 583.625 209.117188 L 586.789062 211.109375 C 597.226562 217.679688 604.625 228.128906 607.359375 240.152344 C 610.089844 252.179688 607.933594 264.796875 601.363281 275.234375 L 464.292969 492.933594 C 457.722656 503.367188 447.277344 510.769531 435.25 513.5 C 423.222656 516.234375 410.605469 514.078125 400.167969 507.507812 L 397.003906 505.515625 C 386.570312 498.945312 379.171875 488.496094 376.4375 476.46875 C 373.703125 464.445312 375.859375 451.824219 382.429688 441.390625 Z M 382.429688 441.390625 " clip-rule="nonzero"/></clipPath><clipPath id="e541bc93f0"><path d="M 303.75 405 L 506.25 405 L 506.25 607.5 L 303.75 607.5 Z M 303.75 405 " clip-rule="nonzero"/></clipPath><clipPath id="3b0ffe6a68"><path d="M 405 405 C 401.683594 405 398.375 405.164062 395.074219 405.488281 C 391.777344 405.8125 388.5 406.296875 385.246094 406.945312 C 381.996094 407.59375 378.78125 408.398438 375.609375 409.359375 C 372.433594 410.324219 369.316406 411.4375 366.253906 412.707031 C 363.191406 413.976562 360.195312 415.390625 357.269531 416.957031 C 354.347656 418.519531 351.503906 420.222656 348.75 422.0625 C 345.992188 423.90625 343.332031 425.878906 340.769531 427.984375 C 338.203125 430.085938 335.75 432.3125 333.40625 434.65625 C 331.0625 437 328.835938 439.453125 326.734375 442.019531 C 324.628906 444.582031 322.65625 447.242188 320.8125 450 C 318.972656 452.753906 317.269531 455.597656 315.707031 458.519531 C 314.140625 461.445312 312.726562 464.441406 311.457031 467.503906 C 310.1875 470.566406 309.074219 473.683594 308.109375 476.859375 C 307.148438 480.03125 306.34375 483.246094 305.695312 486.496094 C 305.046875 489.75 304.5625 493.027344 304.238281 496.324219 C 303.914062 499.625 303.75 502.933594 303.75 506.25 C 303.75 509.566406 303.914062 512.875 304.238281 516.175781 C 304.5625 519.472656 305.046875 522.75 305.695312 526.003906 C 306.34375 529.253906 307.148438 532.46875 308.109375 535.640625 C 309.074219 538.816406 310.1875 541.933594 311.457031 544.996094 C 312.726562 548.058594 314.140625 551.054688 315.707031 553.980469 C 317.269531 556.902344 318.972656 559.746094 320.8125 562.5 C 322.65625 565.257812 324.628906 567.917969 326.734375 570.480469 C 328.835938 573.046875 331.0625 575.5 333.40625 577.84375 C 335.75 580.1875 338.203125 582.414062 340.769531 584.515625 C 343.332031 586.621094 345.992188 588.59375 348.75 590.4375 C 351.503906 592.277344 354.347656 593.980469 357.269531 595.542969 C 360.195312 597.109375 363.191406 598.523438 366.253906 599.792969 C 369.316406 601.0625 372.433594 602.175781 375.609375 603.140625 C 378.78125 604.101562 381.996094 604.90625 385.246094 605.554688 C 388.5 606.203125 391.777344 606.6875 395.074219 607.011719 C 398.375 607.335938 401.683594 607.5 405 607.5 C 408.316406 607.5 411.625 607.335938 414.925781 607.011719 C 418.222656 606.6875 421.5 606.203125 424.753906 605.554688 C 428.003906 604.90625 431.21875 604.101562 434.390625 603.140625 C 437.566406 602.175781 440.683594 601.0625 443.746094 599.792969 C 446.808594 598.523438 449.804688 597.109375 452.730469 595.542969 C 455.652344 593.980469 458.496094 592.277344 461.25 590.4375 C 464.007812 588.59375 466.667969 586.621094 469.230469 584.515625 C 471.796875 582.414062 474.25 580.1875 476.59375 577.84375 C 478.9375 575.5 481.164062 573.046875 483.265625 570.480469 C 485.371094 567.917969 487.34375 565.257812 489.1875 562.5 C 491.027344 559.746094 492.730469 556.902344 494.292969 553.980469 C 495.859375 551.054688 497.273438 548.058594 498.542969 544.996094 C 499.8125 541.933594 500.925781 538.816406 501.890625 535.640625 C 502.851562 532.46875 503.65625 529.253906 504.304688 526.003906 C 504.953125 522.75 505.4375 519.472656 505.761719 516.175781 C 506.085938 512.875 506.25 509.566406 506.25 506.25 C 506.25 502.933594 506.085938 499.625 505.761719 496.324219 C 505.4375 493.027344 504.953125 489.75 504.304688 486.496094 C 503.65625 483.246094 502.851562 480.03125 501.890625 476.859375 C 500.925781 473.683594 499.8125 470.566406 498.542969 467.503906 C 497.273438 464.441406 495.859375 461.445312 494.292969 458.519531 C 492.730469 455.597656 491.027344 452.753906 489.1875 450 C 487.34375 447.242188 485.371094 444.582031 483.265625 442.019531 C 481.164062 439.453125 478.9375 437 476.59375 434.65625 C 474.25 432.3125 471.796875 430.085938 469.230469 427.984375 C 466.667969 425.878906 464.007812 423.90625 461.25 422.0625 C 458.496094 420.222656 455.652344 418.519531 452.730469 416.957031 C 449.804688 415.390625 446.808594 413.976562 443.746094 412.707031 C 440.683594 411.4375 437.566406 410.324219 434.390625 409.359375 C 431.21875 408.398438 428.003906 407.59375 424.753906 406.945312 C 421.5 406.296875 418.222656 405.8125 414.925781 405.488281 C 411.625 405.164062 408.316406 405 405 405 Z M 405 405 " clip-rule="nonzero"/></clipPath><clipPath id="a71e01f67e"><path d="M 320.355469 421.605469 L 489.644531 421.605469 L 489.644531 590.894531 L 320.355469 590.894531 Z M 320.355469 421.605469 " clip-rule="nonzero"/></clipPath><clipPath id="219dfbde79"><path d="M 405 421.929688 C 402.238281 421.929688 399.484375 422.0625 396.734375 422.335938 C 393.988281 422.605469 391.257812 423.011719 388.550781 423.550781 C 385.839844 424.089844 383.164062 424.757812 380.523438 425.558594 C 377.878906 426.363281 375.28125 427.289062 372.730469 428.347656 C 370.179688 429.40625 367.6875 430.582031 365.25 431.886719 C 362.816406 433.1875 360.449219 434.605469 358.152344 436.140625 C 355.859375 437.675781 353.640625 439.316406 351.507812 441.070312 C 349.371094 442.820312 347.328125 444.671875 345.375 446.625 C 343.421875 448.578125 341.570312 450.621094 339.820312 452.757812 C 338.066406 454.890625 336.425781 457.109375 334.890625 459.402344 C 333.355469 461.699219 331.9375 464.066406 330.636719 466.5 C 329.332031 468.9375 328.15625 471.429688 327.097656 473.980469 C 326.039062 476.53125 325.113281 479.128906 324.308594 481.773438 C 323.507812 484.414062 322.839844 487.089844 322.300781 489.800781 C 321.761719 492.507812 321.355469 495.238281 321.085938 497.984375 C 320.8125 500.734375 320.679688 503.488281 320.679688 506.25 C 320.679688 509.011719 320.8125 511.765625 321.085938 514.515625 C 321.355469 517.261719 321.761719 519.992188 322.300781 522.699219 C 322.839844 525.410156 323.507812 528.085938 324.308594 530.726562 C 325.113281 533.371094 326.039062 535.96875 327.097656 538.519531 C 328.15625 541.070312 329.332031 543.5625 330.636719 546 C 331.9375 548.433594 333.355469 550.800781 334.890625 553.097656 C 336.425781 555.390625 338.066406 557.609375 339.820312 559.742188 C 341.570312 561.878906 343.421875 563.921875 345.375 565.875 C 347.328125 567.828125 349.371094 569.679688 351.507812 571.429688 C 353.640625 573.183594 355.859375 574.824219 358.152344 576.359375 C 360.449219 577.894531 362.816406 579.3125 365.25 580.613281 C 367.6875 581.917969 370.179688 583.09375 372.730469 584.152344 C 375.28125 585.210938 377.878906 586.136719 380.523438 586.941406 C 383.164062 587.742188 385.839844 588.410156 388.550781 588.949219 C 391.257812 589.488281 393.988281 589.894531 396.734375 590.164062 C 399.484375 590.4375 402.238281 590.570312 405 590.570312 C 407.761719 590.570312 410.515625 590.4375 413.265625 590.164062 C 416.011719 589.894531 418.742188 589.488281 421.449219 588.949219 C 424.160156 588.410156 426.835938 587.742188 429.476562 586.941406 C 432.121094 586.136719 434.714844 585.210938 437.269531 584.152344 C 439.820312 583.09375 442.3125 581.917969 444.75 580.613281 C 447.183594 579.3125 449.550781 577.894531 451.847656 576.359375 C 454.140625 574.824219 456.359375 573.183594 458.492188 571.429688 C 460.628906 569.679688 462.671875 567.828125 464.625 565.875 C 466.578125 563.921875 468.429688 561.878906 470.179688 559.742188 C 471.933594 557.609375 473.574219 555.390625 475.109375 553.097656 C 476.644531 550.800781 478.0625 548.433594 479.363281 546 C 480.667969 543.5625 481.84375 541.070312 482.902344 538.519531 C 483.960938 535.96875 484.886719 533.371094 485.691406 530.726562 C 486.492188 528.085938 487.160156 525.410156 487.699219 522.699219 C 488.238281 519.992188 488.644531 517.261719 488.914062 514.515625 C 489.1875 511.765625 489.320312 509.011719 489.320312 506.25 C 489.320312 503.488281 489.1875 500.734375 488.914062 497.984375 C 488.644531 495.238281 488.238281 492.507812 487.699219 489.800781 C 487.160156 487.089844 486.492188 484.414062 485.691406 481.773438 C 484.886719 479.128906 483.960938 476.53125 482.902344 473.980469 C 481.84375 471.429688 480.667969 468.9375 479.363281 466.5 C 478.0625 464.066406 476.644531 461.699219 475.109375 459.402344 C 473.574219 457.109375 471.933594 454.890625 470.179688 452.757812 C 468.429688 450.621094 466.578125 448.578125 464.625 446.625 C 462.671875 444.671875 460.628906 442.820312 458.492188 441.070312 C 456.359375 439.316406 454.140625 437.675781 451.847656 436.140625 C 449.550781 434.605469 447.183594 433.1875 444.75 431.886719 C 442.3125 430.582031 439.820312 429.40625 437.269531 428.347656 C 434.714844 427.289062 432.121094 426.363281 429.476562 425.558594 C 426.835938 424.757812 424.160156 424.089844 421.449219 423.550781 C 418.742188 423.011719 416.011719 422.605469 413.265625 422.335938 C 410.515625 422.0625 407.761719 421.929688 405 421.929688 Z M 405 421.929688 " clip-rule="nonzero"/></clipPath></defs><g clip-path="url(#6120dd240e)"><g clip-path="url(#63eff2ee09)"><path fill="#2a81b9" d="M 210.085938 203.730469 L 600.066406 203.730469 L 600.066406 300.46875 L 210.085938 300.46875 Z M 210.085938 203.730469 " fill-opacity="1" fill-rule="nonzero"/></g></g><g clip-path="url(#2e802dede3)"><g clip-path="url(#3818617470)"><g clip-path="url(#7ec387bc85)"><path fill="#98d6fc" d="M 266.816406 184.34375 L 453.59375 480.699219 L 371.753906 532.277344 L 184.976562 235.925781 Z M 266.816406 184.34375 " fill-opacity="1" fill-rule="nonzero"/></g></g></g><g clip-path="url(#d8e569a3cb)"><g clip-path="url(#f0c23d9470)"><g clip-path="url(#f425faa33f)"><path fill="#98d6fc" d="M 357.65625 480.738281 L 544.300781 184.300781 L 626.164062 235.84375 L 439.519531 532.28125 Z M 357.65625 480.738281 " fill-opacity="1" fill-rule="nonzero"/></g></g></g><g clip-path="url(#e541bc93f0)"><g clip-path="url(#3b0ffe6a68)"><path fill="#db9c22" d="M 303.75 405 L 506.25 405 L 506.25 607.5 L 303.75 607.5 Z M 303.75 405 " fill-opacity="1" fill-rule="nonzero"/></g></g><g clip-path="url(#a71e01f67e)"><g clip-path="url(#219dfbde79)"><path fill="#f7c038" d="M 303.75 405 L 506.25 405 L 506.25 607.5 L 303.75 607.5 Z M 303.75 405 " fill-opacity="1" fill-rule="nonzero"/></g></g></svg>