<svg xmlns="http://www.w3.org/2000/svg" xmlns:xlink="http://www.w3.org/1999/xlink" width="200" zoomAndPan="magnify" viewBox="0 0 150 149.999998" height="200" preserveAspectRatio="xMidYMid meet" version="1.0"><defs><clipPath id="4e86f57df3"><path d="M 8.539062 9.097656 L 141.132812 9.097656 L 141.132812 41.988281 L 8.539062 41.988281 Z M 8.539062 9.097656 " clip-rule="nonzero"/></clipPath><clipPath id="b0787f5c8b"><path d="M 24.984375 9.097656 L 124.636719 9.097656 C 133.71875 9.097656 141.082031 16.460938 141.082031 25.542969 C 141.082031 34.625 133.71875 41.988281 124.636719 41.988281 L 24.984375 41.988281 C 15.902344 41.988281 8.539062 34.625 8.539062 25.542969 C 8.539062 16.460938 15.902344 9.097656 24.984375 9.097656 Z M 24.984375 9.097656 " clip-rule="nonzero"/></clipPath><clipPath id="d8ec83ea97"><path d="M 6 9 L 86 9 L 86 116 L 6 116 Z M 6 9 " clip-rule="nonzero"/></clipPath><clipPath id="4d4293a70a"><path d="M 27.824219 3.0625 L 91.332031 103.824219 L 63.507812 121.363281 L 0 20.601562 Z M 27.824219 3.0625 " clip-rule="nonzero"/></clipPath><clipPath id="4ec24d1f18"><path d="M 36.59375 16.976562 L 82.554688 89.898438 C 87.398438 97.582031 85.09375 107.738281 77.410156 112.578125 C 69.726562 117.421875 59.570312 115.121094 54.726562 107.4375 L 8.769531 34.511719 C 3.925781 26.828125 6.226562 16.671875 13.914062 11.832031 C 21.597656 6.988281 31.75 9.289062 36.59375 16.976562 Z M 36.59375 16.976562 " clip-rule="nonzero"/></clipPath><clipPath id="0fcca2695d"><path d="M 64 9 L 144 9 L 144 116 L 64 116 Z M 64 9 " clip-rule="nonzero"/></clipPath><clipPath id="43a88c8253"><path d="M 58.714844 103.839844 L 122.175781 3.046875 L 150.007812 20.574219 L 86.546875 121.363281 Z M 58.714844 103.839844 " clip-rule="nonzero"/></clipPath><clipPath id="1f28fdf013"><path d="M 67.476562 89.921875 L 113.402344 16.976562 C 118.242188 9.292969 128.398438 6.984375 136.082031 11.824219 C 143.769531 16.664062 146.078125 26.816406 141.238281 34.503906 L 95.308594 107.445312 C 90.46875 115.132812 80.316406 117.441406 72.628906 112.601562 C 64.945312 107.761719 62.636719 97.605469 67.476562 89.921875 Z M 67.476562 89.921875 " clip-rule="nonzero"/></clipPath><clipPath id="65118c26f7"><path d="M 40.382812 78.085938 L 109.234375 78.085938 L 109.234375 146.9375 L 40.382812 146.9375 Z M 40.382812 78.085938 " clip-rule="nonzero"/></clipPath><clipPath id="b6cb5a5026"><path d="M 74.808594 78.085938 C 72.550781 78.085938 70.3125 78.308594 68.09375 78.75 C 65.875 79.1875 63.722656 79.84375 61.636719 80.707031 C 59.546875 81.570312 57.5625 82.632812 55.683594 83.886719 C 53.804688 85.144531 52.066406 86.570312 50.46875 88.167969 C 48.867188 89.769531 47.441406 91.507812 46.1875 93.386719 C 44.929688 95.265625 43.871094 97.25 43.003906 99.339844 C 42.140625 101.425781 41.488281 103.578125 41.046875 105.796875 C 40.605469 108.011719 40.382812 110.253906 40.382812 112.511719 C 40.382812 114.773438 40.605469 117.011719 41.046875 119.230469 C 41.488281 121.445312 42.140625 123.597656 43.003906 125.6875 C 43.871094 127.773438 44.929688 129.757812 46.1875 131.636719 C 47.441406 133.519531 48.867188 135.257812 50.46875 136.855469 C 52.066406 138.453125 53.804688 139.882812 55.683594 141.136719 C 57.5625 142.390625 59.546875 143.453125 61.636719 144.316406 C 63.722656 145.183594 65.875 145.835938 68.09375 146.277344 C 70.3125 146.71875 72.550781 146.9375 74.808594 146.9375 C 77.070312 146.9375 79.308594 146.71875 81.527344 146.277344 C 83.742188 145.835938 85.894531 145.183594 87.984375 144.316406 C 90.074219 143.453125 92.054688 142.390625 93.9375 141.136719 C 95.816406 139.882812 97.554688 138.453125 99.152344 136.855469 C 100.75 135.257812 102.179688 133.519531 103.433594 131.636719 C 104.691406 129.757812 105.75 127.773438 106.617188 125.6875 C 107.480469 123.597656 108.132812 121.445312 108.574219 119.230469 C 109.015625 117.011719 109.234375 114.773438 109.234375 112.511719 C 109.234375 110.253906 109.015625 108.011719 108.574219 105.796875 C 108.132812 103.578125 107.480469 101.425781 106.617188 99.339844 C 105.75 97.25 104.691406 95.265625 103.433594 93.386719 C 102.179688 91.507812 100.75 89.769531 99.152344 88.167969 C 97.554688 86.570312 95.816406 85.144531 93.9375 83.886719 C 92.054688 82.632812 90.074219 81.570312 87.984375 80.707031 C 85.894531 79.84375 83.742188 79.1875 81.527344 78.75 C 79.308594 78.308594 77.070312 78.085938 74.808594 78.085938 Z M 74.808594 78.085938 " clip-rule="nonzero"/></clipPath><clipPath id="9caf107142"><path d="M 46.03125 83.734375 L 103.589844 83.734375 L 103.589844 141.292969 L 46.03125 141.292969 Z M 46.03125 83.734375 " clip-rule="nonzero"/></clipPath><clipPath id="37a5ec67c8"><path d="M 74.808594 83.84375 C 72.925781 83.84375 71.0625 84.027344 69.21875 84.394531 C 67.371094 84.761719 65.578125 85.304688 63.839844 86.023438 C 62.097656 86.746094 60.445312 87.628906 58.882812 88.675781 C 57.316406 89.71875 55.867188 90.910156 54.539062 92.238281 C 53.207031 93.570312 52.019531 95.019531 50.972656 96.585938 C 49.925781 98.148438 49.042969 99.800781 48.324219 101.542969 C 47.601562 103.28125 47.058594 105.074219 46.691406 106.917969 C 46.324219 108.765625 46.140625 110.628906 46.140625 112.511719 C 46.140625 114.394531 46.324219 116.257812 46.691406 118.105469 C 47.058594 119.953125 47.601562 121.746094 48.324219 123.484375 C 49.042969 125.222656 49.925781 126.875 50.972656 128.441406 C 52.019531 130.007812 53.207031 131.453125 54.539062 132.785156 C 55.867188 134.117188 57.316406 135.304688 58.882812 136.351562 C 60.445312 137.398438 62.097656 138.28125 63.839844 139 C 65.578125 139.71875 67.371094 140.265625 69.21875 140.632812 C 71.0625 141 72.925781 141.183594 74.808594 141.183594 C 76.691406 141.183594 78.558594 141 80.402344 140.632812 C 82.25 140.265625 84.042969 139.71875 85.78125 139 C 87.519531 138.28125 89.171875 137.398438 90.738281 136.351562 C 92.304688 135.304688 93.75 134.117188 95.082031 132.785156 C 96.414062 131.453125 97.601562 130.007812 98.648438 128.441406 C 99.695312 126.875 100.578125 125.222656 101.296875 123.484375 C 102.019531 121.746094 102.5625 119.953125 102.929688 118.105469 C 103.296875 116.257812 103.480469 114.394531 103.480469 112.511719 C 103.480469 110.628906 103.296875 108.765625 102.929688 106.917969 C 102.5625 105.074219 102.019531 103.28125 101.296875 101.542969 C 100.578125 99.800781 99.695312 98.148438 98.648438 96.585938 C 97.601562 95.019531 96.414062 93.570312 95.082031 92.238281 C 93.75 90.910156 92.304688 89.71875 90.738281 88.675781 C 89.171875 87.628906 87.519531 86.746094 85.78125 86.023438 C 84.042969 85.304688 82.25 84.761719 80.402344 84.394531 C 78.558594 84.027344 76.691406 83.84375 74.808594 83.84375 Z M 74.808594 83.84375 " clip-rule="nonzero"/></clipPath></defs><g clip-path="url(#4e86f57df3)"><g clip-path="url(#b0787f5c8b)"><path fill="#2a81b9" d="M 8.539062 9.097656 L 141.132812 9.097656 L 141.132812 41.988281 L 8.539062 41.988281 Z M 8.539062 9.097656 " fill-opacity="1" fill-rule="nonzero"/></g></g><g clip-path="url(#d8ec83ea97)"><g clip-path="url(#4d4293a70a)"><g clip-path="url(#4ec24d1f18)"><path fill="#98d6fc" d="M 27.824219 3.0625 L 91.332031 103.824219 L 63.507812 121.363281 L 0 20.601562 Z M 27.824219 3.0625 " fill-opacity="1" fill-rule="nonzero"/></g></g></g><g clip-path="url(#0fcca2695d)"><g clip-path="url(#43a88c8253)"><g clip-path="url(#1f28fdf013)"><path fill="#98d6fc" d="M 58.714844 103.839844 L 122.175781 3.046875 L 150.007812 20.574219 L 86.546875 121.363281 Z M 58.714844 103.839844 " fill-opacity="1" fill-rule="nonzero"/></g></g></g><g clip-path="url(#65118c26f7)"><g clip-path="url(#b6cb5a5026)"><path fill="#db9c22" d="M 40.382812 78.085938 L 109.234375 78.085938 L 109.234375 146.9375 L 40.382812 146.9375 Z M 40.382812 78.085938 " fill-opacity="1" fill-rule="nonzero"/></g></g><g clip-path="url(#9caf107142)"><g clip-path="url(#37a5ec67c8)"><path fill="#f7c038" d="M 40.382812 78.085938 L 109.234375 78.085938 L 109.234375 146.9375 L 40.382812 146.9375 Z M 40.382812 78.085938 " fill-opacity="1" fill-rule="nonzero"/></g></g></svg>