<svg xmlns="http://www.w3.org/2000/svg" xmlns:xlink="http://www.w3.org/1999/xlink" width="1080" zoomAndPan="magnify" viewBox="0 0 810 809.999993" height="1080" preserveAspectRatio="xMidYMid meet" version="1.0"><defs><clipPath id="8e5479318c"><path d="M 255 346.726562 L 555 346.726562 L 555 607.5 L 255 607.5 Z M 255 346.726562 " clip-rule="nonzero"/></clipPath><clipPath id="facd10ca56"><path d="M 301.5 346.726562 L 508.5 346.726562 C 520.832031 346.726562 532.660156 351.628906 541.378906 360.347656 C 550.101562 369.066406 555 380.894531 555 393.226562 L 555 561 C 555 573.332031 550.101562 585.160156 541.378906 593.878906 C 532.660156 602.601562 520.832031 607.5 508.5 607.5 L 301.5 607.5 C 289.167969 607.5 277.339844 602.601562 268.621094 593.878906 C 259.898438 585.160156 255 573.332031 255 561 L 255 393.226562 C 255 380.894531 259.898438 369.066406 268.621094 360.347656 C 277.339844 351.628906 289.167969 346.726562 301.5 346.726562 Z M 301.5 346.726562 " clip-rule="nonzero"/></clipPath><clipPath id="620eb136bd"><path d="M 277.167969 336.207031 L 532.832031 336.207031 L 532.832031 395.453125 L 277.167969 395.453125 Z M 277.167969 336.207031 " clip-rule="nonzero"/></clipPath><clipPath id="fa62f53450"><path d="M 344.144531 263.941406 L 466.429688 263.941406 L 466.429688 364.710938 L 344.144531 364.710938 Z M 344.144531 263.941406 " clip-rule="nonzero"/></clipPath><clipPath id="375b8408d0"><path d="M 203 202 L 436 202 L 436 436 L 203 436 Z M 203 202 " clip-rule="nonzero"/></clipPath><clipPath id="54a241df38"><path d="M 189.199219 400.988281 L 401.488281 188.703125 L 449.75 236.964844 L 237.464844 449.253906 Z M 189.199219 400.988281 " clip-rule="nonzero"/></clipPath><clipPath id="e5b78ba46a"><path d="M 213.332031 376.855469 L 377.199219 212.988281 C 383.601562 206.589844 392.28125 202.992188 401.332031 202.992188 C 410.382812 202.992188 419.0625 206.589844 425.464844 212.988281 C 431.863281 219.390625 435.460938 228.070312 435.460938 237.121094 C 435.460938 246.171875 431.863281 254.851562 425.464844 261.253906 L 261.597656 425.121094 C 255.195312 431.519531 246.515625 435.117188 237.464844 435.117188 C 228.414062 435.117188 219.734375 431.519531 213.332031 425.121094 C 206.933594 418.71875 203.335938 410.039062 203.335938 400.988281 C 203.335938 391.9375 206.933594 383.257812 213.332031 376.855469 Z M 213.332031 376.855469 " clip-rule="nonzero"/></clipPath><clipPath id="4ca7f644ef"><path d="M 374 202 L 607 202 L 607 436 L 374 436 Z M 374 202 " clip-rule="nonzero"/></clipPath><clipPath id="776f4fccfe"><path d="M 572.527344 449.25 L 360.242188 236.960938 L 408.507812 188.699219 L 620.792969 400.984375 Z M 572.527344 449.25 " clip-rule="nonzero"/></clipPath><clipPath id="158cf8d0b3"><path d="M 548.398438 425.117188 L 384.53125 261.25 C 378.128906 254.847656 374.535156 246.167969 374.535156 237.117188 C 374.535156 228.066406 378.128906 219.386719 384.53125 212.984375 C 390.929688 206.585938 399.609375 202.988281 408.660156 202.988281 C 417.710938 202.988281 426.394531 206.585938 432.792969 212.984375 L 596.660156 376.851562 C 603.0625 383.253906 606.65625 391.933594 606.65625 400.984375 C 606.65625 410.035156 603.0625 418.714844 596.660156 425.117188 C 590.261719 431.515625 581.578125 435.113281 572.527344 435.113281 C 563.476562 435.113281 554.796875 431.515625 548.398438 425.117188 Z M 548.398438 425.117188 " clip-rule="nonzero"/></clipPath><clipPath id="4269c7dfca"><path d="M 304.179688 376.007812 L 506.394531 376.007812 L 506.394531 578.21875 L 304.179688 578.21875 Z M 304.179688 376.007812 " clip-rule="nonzero"/></clipPath><clipPath id="d88f0520c6"><path d="M 405.285156 376.007812 C 401.976562 376.007812 398.671875 376.167969 395.375 376.496094 C 392.082031 376.820312 388.808594 377.304688 385.5625 377.949219 C 382.3125 378.597656 379.105469 379.398438 375.9375 380.359375 C 372.769531 381.320312 369.652344 382.4375 366.59375 383.703125 C 363.535156 384.972656 360.546875 386.386719 357.625 387.945312 C 354.703125 389.507812 351.867188 391.207031 349.113281 393.046875 C 346.363281 394.886719 343.703125 396.855469 341.144531 398.957031 C 338.585938 401.058594 336.136719 403.277344 333.792969 405.621094 C 331.453125 407.960938 329.230469 410.414062 327.128906 412.972656 C 325.03125 415.53125 323.058594 418.1875 321.21875 420.941406 C 319.378906 423.695312 317.679688 426.53125 316.117188 429.453125 C 314.558594 432.371094 313.144531 435.363281 311.875 438.421875 C 310.609375 441.480469 309.496094 444.59375 308.535156 447.765625 C 307.570312 450.933594 306.769531 454.140625 306.121094 457.390625 C 305.476562 460.636719 304.992188 463.910156 304.667969 467.203125 C 304.34375 470.5 304.179688 473.800781 304.179688 477.113281 C 304.179688 480.425781 304.34375 483.730469 304.667969 487.023438 C 304.992188 490.320312 305.476562 493.589844 306.121094 496.839844 C 306.769531 500.085938 307.570312 503.296875 308.535156 506.464844 C 309.496094 509.632812 310.609375 512.746094 311.875 515.804688 C 313.144531 518.863281 314.558594 521.855469 316.117188 524.773438 C 317.679688 527.695312 319.378906 530.53125 321.21875 533.285156 C 323.058594 536.039062 325.03125 538.695312 327.128906 541.253906 C 329.230469 543.816406 331.453125 546.265625 333.792969 548.605469 C 336.136719 550.949219 338.585938 553.167969 341.144531 555.269531 C 343.703125 557.371094 346.363281 559.339844 349.113281 561.179688 C 351.867188 563.019531 354.703125 564.722656 357.625 566.28125 C 360.546875 567.84375 363.535156 569.257812 366.59375 570.523438 C 369.652344 571.792969 372.769531 572.90625 375.9375 573.867188 C 379.105469 574.828125 382.3125 575.632812 385.5625 576.277344 C 388.808594 576.925781 392.082031 577.410156 395.375 577.734375 C 398.671875 578.058594 401.976562 578.21875 405.285156 578.21875 C 408.597656 578.21875 411.902344 578.058594 415.195312 577.734375 C 418.492188 577.410156 421.765625 576.925781 425.011719 576.277344 C 428.257812 575.632812 431.46875 574.828125 434.636719 573.867188 C 437.804688 572.90625 440.917969 571.792969 443.976562 570.523438 C 447.039062 569.257812 450.027344 567.84375 452.949219 566.28125 C 455.867188 564.722656 458.707031 563.019531 461.457031 561.179688 C 464.210938 559.339844 466.867188 557.371094 469.429688 555.269531 C 471.988281 553.167969 474.4375 550.949219 476.78125 548.605469 C 479.121094 546.265625 481.34375 543.816406 483.441406 541.253906 C 485.542969 538.695312 487.515625 536.039062 489.355469 533.285156 C 491.195312 530.53125 492.894531 527.695312 494.453125 524.773438 C 496.015625 521.855469 497.429688 518.863281 498.695312 515.804688 C 499.964844 512.746094 501.078125 509.632812 502.039062 506.464844 C 503 503.296875 503.804688 500.085938 504.449219 496.839844 C 505.097656 493.589844 505.582031 490.320312 505.90625 487.023438 C 506.230469 483.730469 506.394531 480.425781 506.394531 477.113281 C 506.394531 473.800781 506.230469 470.5 505.90625 467.203125 C 505.582031 463.910156 505.097656 460.636719 504.449219 457.390625 C 503.804688 454.140625 503 450.933594 502.039062 447.765625 C 501.078125 444.59375 499.964844 441.480469 498.695312 438.421875 C 497.429688 435.363281 496.015625 432.371094 494.453125 429.453125 C 492.894531 426.53125 491.195312 423.695312 489.355469 420.941406 C 487.515625 418.1875 485.542969 415.53125 483.441406 412.972656 C 481.34375 410.414062 479.121094 407.960938 476.78125 405.621094 C 474.4375 403.277344 471.988281 401.058594 469.429688 398.957031 C 466.867188 396.855469 464.210938 394.886719 461.457031 393.046875 C 458.707031 391.207031 455.867188 389.507812 452.949219 387.945312 C 450.027344 386.386719 447.039062 384.972656 443.976562 383.703125 C 440.917969 382.4375 437.804688 381.320312 434.636719 380.359375 C 431.46875 379.398438 428.257812 378.597656 425.011719 377.949219 C 421.765625 377.304688 418.492188 376.820312 415.195312 376.496094 C 411.902344 376.167969 408.597656 376.007812 405.285156 376.007812 Z M 405.285156 376.007812 " clip-rule="nonzero"/></clipPath><clipPath id="8f4d206b18"><path d="M 321 392.589844 L 489.8125 392.589844 L 489.8125 561.640625 L 321 561.640625 Z M 321 392.589844 " clip-rule="nonzero"/></clipPath><clipPath id="73b4f9c2d3"><path d="M 405.285156 392.914062 C 402.527344 392.914062 399.777344 393.046875 397.035156 393.316406 C 394.289062 393.589844 391.5625 393.992188 388.859375 394.53125 C 386.15625 395.066406 383.484375 395.738281 380.84375 396.539062 C 378.207031 397.339844 375.613281 398.265625 373.0625 399.320312 C 370.515625 400.378906 368.027344 401.554688 365.59375 402.855469 C 363.160156 404.15625 360.800781 405.570312 358.507812 407.101562 C 356.214844 408.636719 354 410.277344 351.871094 412.023438 C 349.738281 413.773438 347.695312 415.625 345.746094 417.574219 C 343.796875 419.523438 341.945312 421.566406 340.199219 423.695312 C 338.449219 425.828125 336.808594 428.042969 335.273438 430.335938 C 333.742188 432.628906 332.328125 434.988281 331.027344 437.421875 C 329.726562 439.855469 328.550781 442.34375 327.496094 444.890625 C 326.4375 447.4375 325.511719 450.03125 324.710938 452.671875 C 323.910156 455.308594 323.242188 457.980469 322.703125 460.6875 C 322.164062 463.390625 321.761719 466.117188 321.492188 468.859375 C 321.21875 471.605469 321.085938 474.355469 321.085938 477.113281 C 321.085938 479.871094 321.21875 482.621094 321.492188 485.367188 C 321.761719 488.113281 322.164062 490.835938 322.703125 493.539062 C 323.242188 496.246094 323.910156 498.917969 324.710938 501.554688 C 325.511719 504.195312 326.4375 506.789062 327.496094 509.335938 C 328.550781 511.882812 329.726562 514.375 331.027344 516.804688 C 332.328125 519.238281 333.742188 521.601562 335.277344 523.894531 C 336.808594 526.1875 338.449219 528.398438 340.199219 530.53125 C 341.945312 532.664062 343.796875 534.703125 345.746094 536.652344 C 347.695312 538.601562 349.738281 540.453125 351.871094 542.203125 C 354 543.953125 356.214844 545.59375 358.507812 547.125 C 360.800781 548.65625 363.160156 550.074219 365.59375 551.375 C 368.027344 552.671875 370.515625 553.851562 373.0625 554.90625 C 375.613281 555.960938 378.207031 556.890625 380.84375 557.691406 C 383.484375 558.492188 386.15625 559.160156 388.859375 559.699219 C 391.5625 560.234375 394.289062 560.640625 397.035156 560.910156 C 399.777344 561.179688 402.527344 561.316406 405.285156 561.316406 C 408.042969 561.316406 410.796875 561.179688 413.539062 560.910156 C 416.285156 560.640625 419.007812 560.234375 421.714844 559.699219 C 424.417969 559.160156 427.089844 558.492188 429.730469 557.691406 C 432.367188 556.890625 434.960938 555.960938 437.507812 554.90625 C 440.058594 553.851562 442.546875 552.671875 444.980469 551.375 C 447.410156 550.074219 449.773438 548.65625 452.066406 547.125 C 454.359375 545.59375 456.570312 543.953125 458.703125 542.203125 C 460.835938 540.453125 462.875 538.605469 464.824219 536.652344 C 466.777344 534.703125 468.625 532.664062 470.375 530.53125 C 472.125 528.398438 473.765625 526.1875 475.296875 523.894531 C 476.828125 521.601562 478.246094 519.238281 479.546875 516.804688 C 480.847656 514.375 482.023438 511.882812 483.078125 509.335938 C 484.132812 506.789062 485.0625 504.195312 485.863281 501.554688 C 486.664062 498.917969 487.332031 496.246094 487.871094 493.539062 C 488.410156 490.835938 488.8125 488.113281 489.082031 485.367188 C 489.351562 482.621094 489.488281 479.871094 489.488281 477.113281 C 489.488281 474.355469 489.351562 471.605469 489.082031 468.859375 C 488.8125 466.117188 488.410156 463.390625 487.871094 460.6875 C 487.332031 457.980469 486.664062 455.308594 485.863281 452.671875 C 485.0625 450.03125 484.132812 447.4375 483.078125 444.890625 C 482.023438 442.34375 480.847656 439.855469 479.546875 437.421875 C 478.246094 434.988281 476.828125 432.628906 475.296875 430.335938 C 473.765625 428.042969 472.125 425.828125 470.375 423.695312 C 468.625 421.566406 466.777344 419.523438 464.824219 417.574219 C 462.875 415.625 460.835938 413.773438 458.703125 412.023438 C 456.570312 410.277344 454.359375 408.636719 452.066406 407.101562 C 449.773438 405.570312 447.410156 404.15625 444.980469 402.855469 C 442.546875 401.554688 440.058594 400.378906 437.507812 399.320312 C 434.960938 398.265625 432.367188 397.339844 429.730469 396.539062 C 427.089844 395.738281 424.417969 395.066406 421.714844 394.53125 C 419.007812 393.992188 416.285156 393.589844 413.539062 393.316406 C 410.796875 393.046875 408.042969 392.914062 405.285156 392.914062 Z M 405.285156 392.914062 " clip-rule="nonzero"/></clipPath></defs><g clip-path="url(#8e5479318c)"><g clip-path="url(#facd10ca56)"><path fill="#ffd9bc" d="M 255 346.726562 L 555.5 346.726562 L 555.5 607.5 L 255 607.5 Z M 255 346.726562 " fill-opacity="1" fill-rule="nonzero"/></g></g><g clip-path="url(#620eb136bd)"><path fill="#efac78" d="M 277.167969 336.207031 L 532.902344 336.207031 L 532.902344 395.453125 L 277.167969 395.453125 Z M 277.167969 336.207031 " fill-opacity="1" fill-rule="nonzero"/></g><g clip-path="url(#fa62f53450)"><path fill="#efac78" d="M 344.144531 263.941406 L 466.5625 263.941406 L 466.5625 364.710938 L 344.144531 364.710938 Z M 344.144531 263.941406 " fill-opacity="1" fill-rule="nonzero"/></g><g clip-path="url(#375b8408d0)"><g clip-path="url(#54a241df38)"><g clip-path="url(#e5b78ba46a)"><path fill="#d85042" d="M 189.199219 400.988281 L 401.296875 188.890625 L 449.5625 237.15625 L 237.464844 449.253906 Z M 189.199219 400.988281 " fill-opacity="1" fill-rule="nonzero"/></g></g></g><g clip-path="url(#4ca7f644ef)"><g clip-path="url(#776f4fccfe)"><g clip-path="url(#158cf8d0b3)"><path fill="#d85042" d="M 572.527344 449.25 L 360.429688 237.152344 L 408.695312 188.886719 L 620.792969 400.984375 Z M 572.527344 449.25 " fill-opacity="1" fill-rule="nonzero"/></g></g></g><g clip-path="url(#4269c7dfca)"><g clip-path="url(#d88f0520c6)"><path fill="#ffffff" d="M 304.179688 376.007812 L 506.394531 376.007812 L 506.394531 578.21875 L 304.179688 578.21875 Z M 304.179688 376.007812 " fill-opacity="1" fill-rule="nonzero"/></g></g><g clip-path="url(#8f4d206b18)"><g clip-path="url(#73b4f9c2d3)"><path fill="#98d6fc" d="M 304.179688 376.007812 L 506.394531 376.007812 L 506.394531 578.21875 L 304.179688 578.21875 Z M 304.179688 376.007812 " fill-opacity="1" fill-rule="nonzero"/></g></g></svg>