<svg xmlns="http://www.w3.org/2000/svg" xmlns:xlink="http://www.w3.org/1999/xlink" width="200" zoomAndPan="magnify" viewBox="0 0 150 149.999998" height="200" preserveAspectRatio="xMidYMid meet" version="1.0"><defs><clipPath id="5b92df9b6a"><path d="M 22.867188 57.117188 L 127.304688 57.117188 L 127.304688 147.746094 L 22.867188 147.746094 Z M 22.867188 57.117188 " clip-rule="nonzero"/></clipPath><clipPath id="173f90732d"><path d="M 45.367188 57.117188 L 104.632812 57.117188 C 117.058594 57.117188 127.132812 67.191406 127.132812 79.617188 L 127.132812 125.246094 C 127.132812 137.675781 117.058594 147.746094 104.632812 147.746094 L 45.367188 147.746094 C 32.941406 147.746094 22.867188 137.675781 22.867188 125.246094 L 22.867188 79.617188 C 22.867188 67.191406 32.941406 57.117188 45.367188 57.117188 Z M 45.367188 57.117188 " clip-rule="nonzero"/></clipPath><clipPath id="1cd00ed301"><path d="M 30.574219 53.460938 L 119.425781 53.460938 L 119.425781 74.050781 L 30.574219 74.050781 Z M 30.574219 53.460938 " clip-rule="nonzero"/></clipPath><clipPath id="aaf1754a0a"><path d="M 53.851562 28.347656 L 96.347656 28.347656 L 96.347656 63.367188 L 53.851562 63.367188 Z M 53.851562 28.347656 " clip-rule="nonzero"/></clipPath><clipPath id="9bd82c1601"><path d="M 4 7 L 86 7 L 86 88 L 4 88 Z M 4 7 " clip-rule="nonzero"/></clipPath><clipPath id="09b31e3305"><path d="M 0 75.976562 L 73.78125 2.199219 L 90.554688 18.972656 L 16.773438 92.75 Z M 0 75.976562 " clip-rule="nonzero"/></clipPath><clipPath id="00dec05487"><path d="M 8.386719 67.589844 L 65.339844 10.636719 C 67.5625 8.414062 70.582031 7.164062 73.726562 7.164062 C 76.871094 7.164062 79.886719 8.414062 82.113281 10.636719 C 84.335938 12.863281 85.585938 15.878906 85.585938 19.023438 C 85.585938 22.171875 84.335938 25.1875 82.113281 27.414062 L 25.160156 84.363281 C 22.9375 86.585938 19.921875 87.835938 16.773438 87.835938 C 13.628906 87.835938 10.613281 86.585938 8.386719 84.363281 C 6.164062 82.140625 4.914062 79.121094 4.914062 75.976562 C 4.914062 72.832031 6.164062 69.8125 8.386719 67.589844 Z M 8.386719 67.589844 " clip-rule="nonzero"/></clipPath><clipPath id="aff895e38e"><path d="M 64 7 L 146 7 L 146 88 L 64 88 Z M 64 7 " clip-rule="nonzero"/></clipPath><clipPath id="5afb2f189a"><path d="M 133.226562 92.75 L 59.445312 18.96875 L 76.222656 2.195312 L 150 75.972656 Z M 133.226562 92.75 " clip-rule="nonzero"/></clipPath><clipPath id="095964c6dd"><path d="M 124.839844 84.359375 L 67.886719 27.410156 C 65.664062 25.1875 64.414062 22.167969 64.414062 19.023438 C 64.414062 15.878906 65.664062 12.859375 67.886719 10.636719 C 70.113281 8.410156 73.128906 7.164062 76.273438 7.164062 C 79.421875 7.164062 82.4375 8.410156 84.660156 10.636719 L 141.613281 67.585938 C 143.835938 69.8125 145.085938 72.828125 145.085938 75.972656 C 145.085938 79.121094 143.835938 82.136719 141.613281 84.359375 C 139.390625 86.585938 136.371094 87.835938 133.226562 87.835938 C 130.082031 87.835938 127.0625 86.585938 124.839844 84.359375 Z M 124.839844 84.359375 " clip-rule="nonzero"/></clipPath><clipPath id="745d27779a"><path d="M 39.960938 67.292969 L 110.238281 67.292969 L 110.238281 137.570312 L 39.960938 137.570312 Z M 39.960938 67.292969 " clip-rule="nonzero"/></clipPath><clipPath id="d08b99e48d"><path d="M 75.097656 67.292969 C 72.792969 67.292969 70.507812 67.519531 68.246094 67.96875 C 65.980469 68.417969 63.785156 69.085938 61.652344 69.96875 C 59.519531 70.851562 57.496094 71.933594 55.578125 73.214844 C 53.660156 74.496094 51.882812 75.953125 50.253906 77.585938 C 48.621094 79.21875 47.164062 80.992188 45.882812 82.910156 C 44.601562 84.828125 43.519531 86.855469 42.636719 88.984375 C 41.753906 91.117188 41.085938 93.316406 40.636719 95.578125 C 40.1875 97.839844 39.960938 100.125 39.960938 102.433594 C 39.960938 104.738281 40.1875 107.023438 40.636719 109.289062 C 41.085938 111.550781 41.753906 113.75 42.636719 115.878906 C 43.519531 118.011719 44.601562 120.035156 45.882812 121.953125 C 47.164062 123.875 48.621094 125.648438 50.253906 127.28125 C 51.882812 128.910156 53.660156 130.367188 55.578125 131.648438 C 57.496094 132.933594 59.519531 134.015625 61.652344 134.898438 C 63.785156 135.78125 65.980469 136.445312 68.246094 136.898438 C 70.507812 137.347656 72.792969 137.570312 75.097656 137.570312 C 77.40625 137.570312 79.691406 137.347656 81.953125 136.898438 C 84.21875 136.445312 86.414062 135.78125 88.546875 134.898438 C 90.679688 134.015625 92.703125 132.933594 94.621094 131.648438 C 96.539062 130.367188 98.316406 128.910156 99.945312 127.28125 C 101.578125 125.648438 103.035156 123.875 104.316406 121.953125 C 105.597656 120.035156 106.679688 118.011719 107.5625 115.878906 C 108.445312 113.75 109.113281 111.550781 109.5625 109.289062 C 110.011719 107.023438 110.238281 104.738281 110.238281 102.433594 C 110.238281 100.125 110.011719 97.839844 109.5625 95.578125 C 109.113281 93.316406 108.445312 91.117188 107.5625 88.984375 C 106.679688 86.855469 105.597656 84.828125 104.316406 82.910156 C 103.035156 80.992188 101.578125 79.21875 99.945312 77.585938 C 98.316406 75.953125 96.539062 74.496094 94.621094 73.214844 C 92.703125 71.933594 90.679688 70.851562 88.546875 69.96875 C 86.414062 69.085938 84.21875 68.417969 81.953125 67.96875 C 79.691406 67.519531 77.40625 67.292969 75.097656 67.292969 Z M 75.097656 67.292969 " clip-rule="nonzero"/></clipPath><clipPath id="cd3b3361b9"><path d="M 45.722656 73.054688 L 104.476562 73.054688 L 104.476562 131.808594 L 45.722656 131.808594 Z M 45.722656 73.054688 " clip-rule="nonzero"/></clipPath><clipPath id="60b7aee5ce"><path d="M 75.097656 73.167969 C 73.179688 73.167969 71.273438 73.355469 69.390625 73.730469 C 67.507812 74.105469 65.675781 74.660156 63.902344 75.398438 C 62.125 76.132812 60.4375 77.035156 58.839844 78.101562 C 57.242188 79.167969 55.765625 80.382812 54.40625 81.738281 C 53.046875 83.097656 51.835938 84.578125 50.769531 86.175781 C 49.699219 87.773438 48.796875 89.457031 48.0625 91.234375 C 47.328125 93.007812 46.773438 94.839844 46.398438 96.722656 C 46.023438 98.609375 45.835938 100.511719 45.835938 102.433594 C 45.835938 104.355469 46.023438 106.257812 46.398438 108.140625 C 46.773438 110.027344 47.328125 111.855469 48.0625 113.632812 C 48.796875 115.40625 49.699219 117.09375 50.769531 118.691406 C 51.835938 120.289062 53.046875 121.765625 54.40625 123.125 C 55.765625 124.484375 57.242188 125.695312 58.839844 126.765625 C 60.4375 127.832031 62.125 128.734375 63.902344 129.46875 C 65.675781 130.203125 67.507812 130.757812 69.390625 131.132812 C 71.273438 131.507812 73.179688 131.695312 75.097656 131.695312 C 77.019531 131.695312 78.925781 131.507812 80.808594 131.132812 C 82.691406 130.757812 84.523438 130.203125 86.296875 129.46875 C 88.074219 128.734375 89.761719 127.832031 91.359375 126.765625 C 92.957031 125.695312 94.433594 124.484375 95.792969 123.125 C 97.152344 121.765625 98.363281 120.289062 99.429688 118.691406 C 100.5 117.09375 101.402344 115.40625 102.136719 113.632812 C 102.871094 111.855469 103.425781 110.027344 103.800781 108.140625 C 104.175781 106.257812 104.363281 104.355469 104.363281 102.433594 C 104.363281 100.511719 104.175781 98.609375 103.800781 96.722656 C 103.425781 94.839844 102.871094 93.007812 102.136719 91.234375 C 101.402344 89.457031 100.5 87.773438 99.429688 86.175781 C 98.363281 84.578125 97.152344 83.097656 95.792969 81.738281 C 94.433594 80.382812 92.957031 79.167969 91.359375 78.101562 C 89.761719 77.035156 88.074219 76.132812 86.296875 75.398438 C 84.523438 74.660156 82.691406 74.105469 80.808594 73.730469 C 78.925781 73.355469 77.019531 73.167969 75.097656 73.167969 Z M 75.097656 73.167969 " clip-rule="nonzero"/></clipPath></defs><g clip-path="url(#5b92df9b6a)"><g clip-path="url(#173f90732d)"><path fill="#ffd9bc" d="M 22.867188 57.117188 L 127.304688 57.117188 L 127.304688 147.746094 L 22.867188 147.746094 Z M 22.867188 57.117188 " fill-opacity="1" fill-rule="nonzero"/></g></g><g clip-path="url(#1cd00ed301)"><path fill="#efac78" d="M 30.574219 53.460938 L 119.453125 53.460938 L 119.453125 74.050781 L 30.574219 74.050781 Z M 30.574219 53.460938 " fill-opacity="1" fill-rule="nonzero"/></g><g clip-path="url(#aaf1754a0a)"><path fill="#efac78" d="M 53.851562 28.347656 L 96.394531 28.347656 L 96.394531 63.367188 L 53.851562 63.367188 Z M 53.851562 28.347656 " fill-opacity="1" fill-rule="nonzero"/></g><g clip-path="url(#9bd82c1601)"><g clip-path="url(#09b31e3305)"><g clip-path="url(#00dec05487)"><path fill="#d85042" d="M 0 75.976562 L 73.714844 2.261719 L 90.488281 19.035156 L 16.773438 92.75 Z M 0 75.976562 " fill-opacity="1" fill-rule="nonzero"/></g></g></g><g clip-path="url(#aff895e38e)"><g clip-path="url(#5afb2f189a)"><g clip-path="url(#095964c6dd)"><path fill="#d85042" d="M 133.226562 92.75 L 59.511719 19.035156 L 76.285156 2.261719 L 150 75.972656 Z M 133.226562 92.75 " fill-opacity="1" fill-rule="nonzero"/></g></g></g><g clip-path="url(#745d27779a)"><g clip-path="url(#d08b99e48d)"><path fill="#ffffff" d="M 39.960938 67.292969 L 110.238281 67.292969 L 110.238281 137.570312 L 39.960938 137.570312 Z M 39.960938 67.292969 " fill-opacity="1" fill-rule="nonzero"/></g></g><g clip-path="url(#cd3b3361b9)"><g clip-path="url(#60b7aee5ce)"><path fill="#98d6fc" d="M 39.960938 67.292969 L 110.238281 67.292969 L 110.238281 137.570312 L 39.960938 137.570312 Z M 39.960938 67.292969 " fill-opacity="1" fill-rule="nonzero"/></g></g></svg>