<svg xmlns="http://www.w3.org/2000/svg" xmlns:xlink="http://www.w3.org/1999/xlink" width="1080" zoomAndPan="magnify" viewBox="0 0 810 809.999993" height="1080" preserveAspectRatio="xMidYMid meet" version="1.0"><defs><clipPath id="c2b695fc3e"><path d="M 245.542969 288.589844 L 564.457031 288.589844 L 564.457031 607.5 L 245.542969 607.5 Z M 245.542969 288.589844 " clip-rule="nonzero"/></clipPath><clipPath id="2d9bc4bfc3"><path d="M 405 288.589844 C 399.777344 288.589844 394.566406 288.84375 389.371094 289.355469 C 384.171875 289.867188 379.015625 290.632812 373.890625 291.652344 C 368.769531 292.671875 363.710938 293.9375 358.710938 295.453125 C 353.714844 296.96875 348.804688 298.726562 343.980469 300.726562 C 339.152344 302.726562 334.4375 304.953125 329.832031 307.417969 C 325.226562 309.878906 320.753906 312.558594 316.410156 315.460938 C 312.070312 318.363281 307.878906 321.46875 303.84375 324.78125 C 299.804688 328.097656 295.941406 331.597656 292.246094 335.292969 C 288.554688 338.984375 285.050781 342.847656 281.738281 346.886719 C 278.425781 350.921875 275.320312 355.113281 272.417969 359.457031 C 269.515625 363.796875 266.835938 368.269531 264.371094 372.878906 C 261.910156 377.484375 259.679688 382.199219 257.683594 387.023438 C 255.683594 391.847656 253.925781 396.757812 252.410156 401.757812 C 250.894531 406.753906 249.625 411.8125 248.609375 416.9375 C 247.589844 422.058594 246.824219 427.21875 246.3125 432.414062 C 245.800781 437.613281 245.542969 442.820312 245.542969 448.042969 C 245.542969 453.265625 245.800781 458.476562 246.3125 463.671875 C 246.824219 468.871094 247.589844 474.03125 248.609375 479.152344 C 249.625 484.273438 250.894531 489.335938 252.410156 494.332031 C 253.925781 499.328125 255.683594 504.242188 257.683594 509.066406 C 259.679688 513.890625 261.910156 518.605469 264.371094 523.210938 C 266.835938 527.816406 269.515625 532.289062 272.417969 536.632812 C 275.320312 540.976562 278.425781 545.164062 281.738281 549.203125 C 285.050781 553.238281 288.554688 557.105469 292.246094 560.796875 C 295.941406 564.488281 299.804688 567.992188 303.84375 571.304688 C 307.878906 574.617188 312.070312 577.726562 316.410156 580.625 C 320.753906 583.527344 325.226562 586.210938 329.832031 588.671875 C 334.4375 591.132812 339.152344 593.363281 343.980469 595.363281 C 348.804688 597.359375 353.714844 599.117188 358.710938 600.632812 C 363.710938 602.148438 368.769531 603.417969 373.890625 604.4375 C 379.015625 605.453125 384.171875 606.21875 389.371094 606.730469 C 394.566406 607.242188 399.777344 607.5 405 607.5 C 410.222656 607.5 415.433594 607.242188 420.628906 606.730469 C 425.828125 606.21875 430.984375 605.453125 436.109375 604.4375 C 441.230469 603.417969 446.289062 602.148438 451.289062 600.632812 C 456.285156 599.117188 461.195312 597.359375 466.019531 595.363281 C 470.847656 593.363281 475.5625 591.132812 480.167969 588.671875 C 484.773438 586.210938 489.246094 583.527344 493.589844 580.625 C 497.929688 577.726562 502.121094 574.617188 506.15625 571.304688 C 510.195312 567.992188 514.058594 564.488281 517.753906 560.796875 C 521.445312 557.105469 524.949219 553.238281 528.261719 549.203125 C 531.574219 545.164062 534.679688 540.976562 537.582031 536.632812 C 540.484375 532.289062 543.164062 527.816406 545.628906 523.210938 C 548.089844 518.605469 550.320312 513.890625 552.316406 509.066406 C 554.316406 504.242188 556.074219 499.328125 557.589844 494.332031 C 559.105469 489.335938 560.375 484.273438 561.390625 479.152344 C 562.410156 474.03125 563.175781 468.871094 563.6875 463.671875 C 564.199219 458.476562 564.457031 453.265625 564.457031 448.042969 C 564.457031 442.820312 564.199219 437.613281 563.6875 432.414062 C 563.175781 427.21875 562.410156 422.058594 561.390625 416.9375 C 560.375 411.8125 559.105469 406.753906 557.589844 401.757812 C 556.074219 396.757812 554.316406 391.847656 552.316406 387.023438 C 550.320312 382.199219 548.089844 377.484375 545.628906 372.878906 C 543.164062 368.269531 540.484375 363.796875 537.582031 359.457031 C 534.679688 355.113281 531.574219 350.921875 528.261719 346.886719 C 524.949219 342.847656 521.445312 338.984375 517.753906 335.292969 C 514.058594 331.597656 510.195312 328.097656 506.15625 324.78125 C 502.121094 321.46875 497.929688 318.363281 493.589844 315.460938 C 489.246094 312.558594 484.773438 309.878906 480.167969 307.417969 C 475.5625 304.953125 470.847656 302.726562 466.019531 300.726562 C 461.195312 298.726562 456.285156 296.96875 451.289062 295.453125 C 446.289062 293.9375 441.230469 292.671875 436.109375 291.652344 C 430.984375 290.632812 425.828125 289.867188 420.628906 289.355469 C 415.433594 288.84375 410.222656 288.589844 405 288.589844 Z M 405 288.589844 " clip-rule="nonzero"/></clipPath><clipPath id="0073f27dde"><path d="M 272 315 L 538 315 L 538 581 L 272 581 Z M 272 315 " clip-rule="nonzero"/></clipPath><clipPath id="5ef7460e6d"><path d="M 405 315.25 C 400.652344 315.25 396.3125 315.460938 391.984375 315.890625 C 387.65625 316.316406 383.359375 316.953125 379.09375 317.800781 C 374.828125 318.648438 370.613281 319.703125 366.453125 320.96875 C 362.289062 322.230469 358.199219 323.691406 354.179688 325.359375 C 350.164062 327.023438 346.238281 328.878906 342.402344 330.929688 C 338.566406 332.980469 334.839844 335.214844 331.222656 337.628906 C 327.605469 340.046875 324.117188 342.632812 320.753906 345.390625 C 317.394531 348.152344 314.175781 351.070312 311.101562 354.144531 C 308.023438 357.21875 305.105469 360.4375 302.347656 363.800781 C 299.589844 367.160156 297 370.652344 294.585938 374.265625 C 292.167969 377.882812 289.9375 381.609375 287.886719 385.445312 C 285.835938 389.28125 283.976562 393.207031 282.3125 397.226562 C 280.648438 401.242188 279.1875 405.332031 277.921875 409.496094 C 276.660156 413.65625 275.605469 417.871094 274.757812 422.136719 C 273.910156 426.402344 273.269531 430.699219 272.84375 435.027344 C 272.417969 439.355469 272.207031 443.695312 272.207031 448.042969 C 272.207031 452.394531 272.417969 456.730469 272.84375 461.058594 C 273.269531 465.386719 273.910156 469.683594 274.757812 473.949219 C 275.605469 478.214844 276.660156 482.429688 277.921875 486.59375 C 279.1875 490.753906 280.648438 494.84375 282.3125 498.863281 C 283.976562 502.878906 285.835938 506.808594 287.886719 510.644531 C 289.9375 514.480469 292.167969 518.203125 294.585938 521.820312 C 297 525.4375 299.589844 528.925781 302.347656 532.289062 C 305.105469 535.648438 308.023438 538.867188 311.101562 541.945312 C 314.175781 545.019531 317.394531 547.9375 320.753906 550.695312 C 324.117188 553.453125 327.605469 556.042969 331.222656 558.460938 C 334.839844 560.875 338.566406 563.109375 342.402344 565.160156 C 346.238281 567.207031 350.164062 569.066406 354.179688 570.730469 C 358.199219 572.394531 362.289062 573.859375 366.453125 575.121094 C 370.613281 576.382812 374.828125 577.4375 379.09375 578.289062 C 383.359375 579.136719 387.65625 579.773438 391.984375 580.199219 C 396.3125 580.625 400.652344 580.839844 405 580.839844 C 409.347656 580.839844 413.6875 580.625 418.015625 580.199219 C 422.34375 579.773438 426.640625 579.136719 430.90625 578.289062 C 435.171875 577.4375 439.386719 576.382812 443.546875 575.121094 C 447.710938 573.859375 451.800781 572.394531 455.816406 570.730469 C 459.835938 569.066406 463.761719 567.207031 467.597656 565.160156 C 471.433594 563.109375 475.160156 560.875 478.777344 558.460938 C 482.394531 556.042969 485.882812 553.453125 489.242188 550.695312 C 492.605469 547.9375 495.824219 545.019531 498.898438 541.945312 C 501.976562 538.867188 504.894531 535.648438 507.652344 532.289062 C 510.410156 528.925781 513 525.4375 515.414062 521.820312 C 517.832031 518.203125 520.0625 514.480469 522.113281 510.644531 C 524.164062 506.808594 526.023438 502.878906 527.6875 498.863281 C 529.351562 494.84375 530.8125 490.753906 532.078125 486.59375 C 533.339844 482.429688 534.394531 478.214844 535.242188 473.949219 C 536.089844 469.683594 536.730469 465.386719 537.15625 461.058594 C 537.582031 456.730469 537.796875 452.394531 537.792969 448.042969 C 537.796875 443.695312 537.582031 439.355469 537.15625 435.027344 C 536.730469 430.699219 536.089844 426.402344 535.242188 422.136719 C 534.394531 417.871094 533.339844 413.65625 532.078125 409.496094 C 530.8125 405.332031 529.351562 401.242188 527.6875 397.226562 C 526.023438 393.207031 524.164062 389.28125 522.113281 385.445312 C 520.0625 381.609375 517.832031 377.882812 515.414062 374.265625 C 513 370.652344 510.410156 367.160156 507.652344 363.800781 C 504.894531 360.4375 501.976562 357.21875 498.898438 354.144531 C 495.824219 351.070312 492.605469 348.152344 489.242188 345.390625 C 485.882812 342.632812 482.394531 340.046875 478.777344 337.628906 C 475.160156 335.214844 471.433594 332.980469 467.597656 330.929688 C 463.761719 328.878906 459.835938 327.023438 455.816406 325.359375 C 451.800781 323.691406 447.710938 322.230469 443.546875 320.96875 C 439.386719 319.703125 435.171875 318.648438 430.90625 317.800781 C 426.640625 316.953125 422.34375 316.316406 418.015625 315.890625 C 413.6875 315.460938 409.347656 315.25 405 315.25 Z M 405 315.25 " clip-rule="nonzero"/></clipPath><clipPath id="f13991a614"><path d="M 307.464844 313.351562 L 502.464844 313.351562 L 502.464844 565.351562 L 307.464844 565.351562 Z M 307.464844 313.351562 " clip-rule="nonzero"/></clipPath></defs><g clip-path="url(#c2b695fc3e)"><g clip-path="url(#2d9bc4bfc3)"><path fill="#fff1b9" d="M 245.542969 288.589844 L 564.457031 288.589844 L 564.457031 607.5 L 245.542969 607.5 Z M 245.542969 288.589844 " fill-opacity="1" fill-rule="nonzero"/></g></g><g clip-path="url(#0073f27dde)"><g clip-path="url(#5ef7460e6d)"><path fill="#fff1b9" d="M 245.542969 288.589844 L 564.457031 288.589844 L 564.457031 607.5 L 245.542969 607.5 Z M 245.542969 288.589844 " fill-opacity="1" fill-rule="nonzero"/></g></g><path fill="#39b54a" d="M 401.335938 259.140625 C 399.085938 253.933594 395.738281 243.800781 399.027344 232.980469 C 404.417969 215.226562 425.582031 202.5 451.050781 204.148438 C 454.433594 225.804688 446.097656 246.09375 430.394531 255.148438 C 419.816406 261.246094 408.859375 260.535156 403.667969 259.808594 C 408.980469 255.765625 414.945312 250.570312 420.910156 243.996094 C 430.113281 233.84375 436.257812 223.773438 440.320312 215.738281 C 434.480469 223.914062 427.460938 232.75 419.074219 241.777344 C 413.023438 248.292969 407.046875 254.058594 401.335938 259.140625 Z M 401.335938 259.140625 " fill-opacity="1" fill-rule="nonzero"/><path fill="#39b54a" d="M 394.546875 259.703125 C 390.574219 260.910156 382.925781 262.5 375.339844 259.167969 C 362.902344 253.707031 355.453125 237.125 358.824219 218.617188 C 374.847656 217.988281 388.882812 225.816406 394.125 238.089844 C 397.652344 246.351562 396.203125 254.316406 395.230469 258.054688 C 392.746094 253.820312 389.480469 249.007812 385.210938 244.082031 C 378.617188 236.480469 371.824219 231.121094 366.332031 227.460938 C 371.777344 232.433594 377.597656 238.328125 383.441406 245.238281 C 387.660156 250.222656 391.34375 255.089844 394.546875 259.703125 Z M 394.546875 259.703125 " fill-opacity="1" fill-rule="nonzero"/><g clip-path="url(#f13991a614)"><path fill="#f7c038" d="M 502.535156 546.007812 C 502.535156 478.863281 458.832031 424.460938 405 424.460938 C 351.167969 424.460938 307.464844 478.863281 307.464844 546.007812 C 307.464844 556.480469 351.167969 565.015625 405 565.015625 C 458.832031 565.015625 502.535156 556.480469 502.535156 546.007812 Z M 405 313.382812 C 434.363281 313.382812 458.148438 337.167969 458.148438 366.53125 C 458.148438 395.894531 434.363281 419.679688 405 419.679688 C 375.636719 419.679688 351.851562 395.894531 351.851562 366.53125 C 351.851562 337.167969 375.636719 313.382812 405 313.382812 Z M 405 313.382812 " fill-opacity="1" fill-rule="evenodd"/></g></svg>