<svg xmlns="http://www.w3.org/2000/svg" xmlns:xlink="http://www.w3.org/1999/xlink" width="200" zoomAndPan="magnify" viewBox="0 0 150 149.999998" height="200" preserveAspectRatio="xMidYMid meet" version="1.0"><defs><clipPath id="404060823a"><path d="M 15.941406 31.882812 L 134.058594 31.882812 L 134.058594 150 L 15.941406 150 Z M 15.941406 31.882812 " clip-rule="nonzero"/></clipPath><clipPath id="3ff5eab640"><path d="M 75 31.882812 C 71.121094 31.882812 67.28125 32.261719 63.476562 33.019531 C 59.675781 33.777344 55.980469 34.894531 52.398438 36.378906 C 48.816406 37.863281 45.414062 39.683594 42.1875 41.835938 C 38.964844 43.992188 35.980469 46.441406 33.238281 49.183594 C 30.496094 51.925781 28.050781 54.90625 25.894531 58.132812 C 23.742188 61.355469 21.921875 64.757812 20.4375 68.339844 C 18.953125 71.925781 17.832031 75.617188 17.078125 79.421875 C 16.320312 83.222656 15.941406 87.0625 15.941406 90.941406 C 15.941406 94.820312 16.320312 98.660156 17.078125 102.464844 C 17.832031 106.265625 18.953125 109.960938 20.4375 113.542969 C 21.921875 117.125 23.742188 120.527344 25.894531 123.753906 C 28.050781 126.976562 30.496094 129.960938 33.238281 132.703125 C 35.980469 135.445312 38.964844 137.890625 42.1875 140.046875 C 45.414062 142.203125 48.816406 144.019531 52.398438 145.503906 C 55.980469 146.988281 59.675781 148.109375 63.476562 148.863281 C 67.28125 149.621094 71.121094 150 75 150 C 78.878906 150 82.71875 149.621094 86.523438 148.863281 C 90.324219 148.109375 94.019531 146.988281 97.601562 145.503906 C 101.183594 144.019531 104.585938 142.203125 107.8125 140.046875 C 111.035156 137.890625 114.019531 135.445312 116.761719 132.703125 C 119.503906 129.960938 121.949219 126.976562 124.105469 123.753906 C 126.257812 120.527344 128.078125 117.125 129.5625 113.542969 C 131.046875 109.960938 132.167969 106.265625 132.921875 102.464844 C 133.679688 98.660156 134.058594 94.820312 134.058594 90.941406 C 134.058594 87.0625 133.679688 83.222656 132.921875 79.421875 C 132.167969 75.617188 131.046875 71.925781 129.5625 68.339844 C 128.078125 64.757812 126.257812 61.355469 124.105469 58.132812 C 121.949219 54.90625 119.503906 51.925781 116.761719 49.183594 C 114.019531 46.441406 111.035156 43.992188 107.8125 41.835938 C 104.585938 39.683594 101.183594 37.863281 97.601562 36.378906 C 94.019531 34.894531 90.324219 33.777344 86.523438 33.019531 C 82.71875 32.261719 78.878906 31.882812 75 31.882812 Z M 75 31.882812 " clip-rule="nonzero"/></clipPath><clipPath id="2ee3eef9d7"><path d="M 25.628906 41.570312 L 124.371094 41.570312 L 124.371094 140.316406 L 25.628906 140.316406 Z M 25.628906 41.570312 " clip-rule="nonzero"/></clipPath><clipPath id="9621dec873"><path d="M 75 41.757812 C 71.769531 41.757812 68.570312 42.074219 65.40625 42.703125 C 62.238281 43.335938 59.160156 44.265625 56.179688 45.503906 C 53.195312 46.738281 50.359375 48.253906 47.675781 50.046875 C 44.988281 51.84375 42.503906 53.878906 40.222656 56.164062 C 37.9375 58.449219 35.898438 60.933594 34.105469 63.617188 C 32.3125 66.300781 30.796875 69.136719 29.5625 72.121094 C 28.324219 75.105469 27.390625 78.179688 26.761719 81.347656 C 26.132812 84.515625 25.816406 87.710938 25.816406 90.941406 C 25.816406 94.171875 26.132812 97.371094 26.761719 100.539062 C 27.390625 103.703125 28.324219 106.78125 29.5625 109.765625 C 30.796875 112.746094 32.3125 115.582031 34.105469 118.265625 C 35.898438 120.953125 37.9375 123.4375 40.222656 125.71875 C 42.503906 128.003906 44.988281 130.042969 47.675781 131.835938 C 50.359375 133.628906 53.195312 135.144531 56.179688 136.382812 C 59.160156 137.617188 62.238281 138.550781 65.40625 139.179688 C 68.570312 139.808594 71.769531 140.125 75 140.125 C 78.230469 140.125 81.429688 139.808594 84.59375 139.179688 C 87.761719 138.550781 90.839844 137.617188 93.820312 136.382812 C 96.804688 135.144531 99.640625 133.628906 102.324219 131.835938 C 105.011719 130.042969 107.496094 128.003906 109.777344 125.71875 C 112.0625 123.4375 114.101562 120.953125 115.894531 118.265625 C 117.6875 115.582031 119.203125 112.746094 120.4375 109.765625 C 121.675781 106.78125 122.609375 103.703125 123.238281 100.539062 C 123.867188 97.371094 124.183594 94.171875 124.183594 90.941406 C 124.183594 87.710938 123.867188 84.515625 123.238281 81.347656 C 122.609375 78.179688 121.675781 75.105469 120.4375 72.121094 C 119.203125 69.136719 117.6875 66.300781 115.894531 63.617188 C 114.101562 60.933594 112.0625 58.449219 109.777344 56.164062 C 107.496094 53.878906 105.011719 51.84375 102.324219 50.046875 C 99.640625 48.253906 96.804688 46.738281 93.820312 45.503906 C 90.839844 44.265625 87.761719 43.335938 84.59375 42.703125 C 81.429688 42.074219 78.230469 41.757812 75 41.757812 Z M 75 41.757812 " clip-rule="nonzero"/></clipPath><clipPath id="37cd8f7768"><path d="M 38.875 41.054688 L 111.097656 41.054688 L 111.097656 134.390625 L 38.875 134.390625 Z M 38.875 41.054688 " clip-rule="nonzero"/></clipPath></defs><g clip-path="url(#404060823a)"><g clip-path="url(#3ff5eab640)"><path fill="#fff1b9" d="M 15.941406 31.882812 L 134.058594 31.882812 L 134.058594 150 L 15.941406 150 Z M 15.941406 31.882812 " fill-opacity="1" fill-rule="nonzero"/></g></g><g clip-path="url(#2ee3eef9d7)"><g clip-path="url(#9621dec873)"><path fill="#fff1b9" d="M 15.941406 31.882812 L 134.058594 31.882812 L 134.058594 150 L 15.941406 150 Z M 15.941406 31.882812 " fill-opacity="1" fill-rule="nonzero"/></g></g><path fill="#39b54a" d="M 73.644531 20.976562 C 72.808594 19.050781 71.570312 15.296875 72.789062 11.289062 C 74.785156 4.714844 82.625 0 92.054688 0.609375 C 93.308594 8.632812 90.222656 16.144531 84.40625 19.5 C 80.488281 21.757812 76.429688 21.496094 74.507812 21.226562 C 76.476562 19.726562 78.683594 17.804688 80.890625 15.367188 C 84.300781 11.609375 86.578125 7.878906 88.082031 4.902344 C 85.917969 7.929688 83.320312 11.203125 80.214844 14.546875 C 77.972656 16.960938 75.757812 19.09375 73.644531 20.976562 Z M 73.644531 20.976562 " fill-opacity="1" fill-rule="nonzero"/><path fill="#39b54a" d="M 71.128906 21.1875 C 69.65625 21.632812 66.824219 22.222656 64.015625 20.988281 C 59.40625 18.964844 56.648438 12.824219 57.898438 5.96875 C 63.832031 5.734375 69.03125 8.636719 70.972656 13.179688 C 72.277344 16.242188 71.742188 19.191406 71.382812 20.574219 C 70.460938 19.007812 69.253906 17.226562 67.671875 15.402344 C 65.230469 12.585938 62.710938 10.601562 60.679688 9.246094 C 62.695312 11.085938 64.851562 13.269531 67.015625 15.828125 C 68.578125 17.675781 69.941406 19.476562 71.128906 21.1875 Z M 71.128906 21.1875 " fill-opacity="1" fill-rule="nonzero"/><g clip-path="url(#37cd8f7768)"><path fill="#f7c038" d="M 111.125 127.226562 C 111.125 102.355469 94.9375 82.207031 75 82.207031 C 55.0625 82.207031 38.875 102.355469 38.875 127.226562 C 38.875 131.105469 55.0625 134.265625 75 134.265625 C 94.9375 134.265625 111.125 131.105469 111.125 127.226562 Z M 75 41.066406 C 85.875 41.066406 94.683594 49.878906 94.683594 60.753906 C 94.683594 71.628906 85.875 80.4375 75 80.4375 C 64.125 80.4375 55.316406 71.628906 55.316406 60.753906 C 55.316406 49.878906 64.125 41.066406 75 41.066406 Z M 75 41.066406 " fill-opacity="1" fill-rule="evenodd"/></g></svg>