<svg xmlns="http://www.w3.org/2000/svg" xmlns:xlink="http://www.w3.org/1999/xlink" width="200" zoomAndPan="magnify" viewBox="0 0 150 149.999998" height="200" preserveAspectRatio="xMidYMid meet" version="1.0"><defs><clipPath id="83eeba2dcb"><path d="M 37.175781 37.421875 L 110.964844 37.421875 L 110.964844 111.210938 L 37.175781 111.210938 Z M 37.175781 37.421875 " clip-rule="nonzero"/></clipPath><clipPath id="8e40644bb5"><path d="M 64 39 L 110.964844 39 L 110.964844 84 L 64 84 Z M 64 39 " clip-rule="nonzero"/></clipPath><clipPath id="58df5165a7"><path d="M 52 37.421875 L 69 37.421875 L 69 49 L 52 49 Z M 52 37.421875 " clip-rule="nonzero"/></clipPath><clipPath id="05bd28ef12"><path d="M 37.175781 50 L 48 50 L 48 72 L 37.175781 72 Z M 37.175781 50 " clip-rule="nonzero"/></clipPath><clipPath id="c60590a54c"><path d="M 110.691406 109.628906 L 148.761719 109.628906 L 148.761719 147.695312 L 110.691406 147.695312 Z M 110.691406 109.628906 " clip-rule="nonzero"/></clipPath><clipPath id="55c9f99b1b"><path d="M 129.726562 109.628906 C 128.476562 109.628906 127.238281 109.75 126.011719 109.996094 C 124.789062 110.238281 123.597656 110.601562 122.441406 111.078125 C 121.289062 111.554688 120.191406 112.144531 119.152344 112.835938 C 118.113281 113.53125 117.152344 114.320312 116.269531 115.203125 C 115.382812 116.089844 114.59375 117.050781 113.902344 118.089844 C 113.207031 119.128906 112.621094 120.222656 112.140625 121.378906 C 111.664062 122.535156 111.300781 123.722656 111.058594 124.949219 C 110.816406 126.175781 110.691406 127.414062 110.691406 128.664062 C 110.691406 129.914062 110.816406 131.152344 111.058594 132.375 C 111.300781 133.601562 111.664062 134.792969 112.140625 135.945312 C 112.621094 137.101562 113.207031 138.199219 113.902344 139.238281 C 114.59375 140.277344 115.382812 141.238281 116.269531 142.121094 C 117.152344 143.003906 118.113281 143.792969 119.152344 144.488281 C 120.191406 145.183594 121.289062 145.769531 122.441406 146.246094 C 123.597656 146.726562 124.789062 147.085938 126.011719 147.332031 C 127.238281 147.574219 128.476562 147.695312 129.726562 147.695312 C 130.976562 147.695312 132.214844 147.574219 133.441406 147.332031 C 134.664062 147.085938 135.855469 146.726562 137.011719 146.246094 C 138.164062 145.769531 139.261719 145.183594 140.300781 144.488281 C 141.339844 143.792969 142.300781 143.003906 143.183594 142.121094 C 144.070312 141.238281 144.859375 140.277344 145.550781 139.238281 C 146.246094 138.199219 146.832031 137.101562 147.3125 135.945312 C 147.789062 134.792969 148.152344 133.601562 148.394531 132.375 C 148.636719 131.152344 148.761719 129.914062 148.761719 128.664062 C 148.761719 127.414062 148.636719 126.175781 148.394531 124.949219 C 148.152344 123.722656 147.789062 122.535156 147.3125 121.378906 C 146.832031 120.222656 146.246094 119.128906 145.550781 118.089844 C 144.859375 117.050781 144.070312 116.089844 143.183594 115.203125 C 142.300781 114.320312 141.339844 113.53125 140.300781 112.835938 C 139.261719 112.144531 138.164062 111.554688 137.011719 111.078125 C 135.855469 110.601562 134.664062 110.238281 133.441406 109.996094 C 132.214844 109.75 130.976562 109.628906 129.726562 109.628906 Z M 129.726562 109.628906 " clip-rule="nonzero"/></clipPath><clipPath id="ad453f7bcc"><path d="M 113.816406 112.75 L 145.640625 112.75 L 145.640625 144.574219 L 113.816406 144.574219 Z M 113.816406 112.75 " clip-rule="nonzero"/></clipPath><clipPath id="125035b92a"><path d="M 129.726562 112.8125 C 128.6875 112.8125 127.65625 112.914062 126.632812 113.117188 C 125.613281 113.320312 124.621094 113.621094 123.660156 114.019531 C 122.699219 114.417969 121.785156 114.90625 120.921875 115.484375 C 120.054688 116.0625 119.253906 116.71875 118.519531 117.453125 C 117.78125 118.191406 117.125 118.992188 116.546875 119.855469 C 115.96875 120.722656 115.480469 121.636719 115.082031 122.597656 C 114.683594 123.558594 114.382812 124.550781 114.179688 125.570312 C 113.976562 126.589844 113.875 127.621094 113.875 128.664062 C 113.875 129.703125 113.976562 130.734375 114.179688 131.753906 C 114.382812 132.777344 114.683594 133.765625 115.082031 134.730469 C 115.480469 135.691406 115.96875 136.605469 116.546875 137.46875 C 117.125 138.335938 117.78125 139.136719 118.519531 139.871094 C 119.253906 140.609375 120.054688 141.265625 120.921875 141.84375 C 121.785156 142.421875 122.699219 142.910156 123.660156 143.308594 C 124.621094 143.707031 125.613281 144.007812 126.632812 144.210938 C 127.65625 144.414062 128.6875 144.515625 129.726562 144.515625 C 130.765625 144.515625 131.796875 144.414062 132.820312 144.210938 C 133.839844 144.007812 134.832031 143.707031 135.792969 143.308594 C 136.753906 142.910156 137.667969 142.421875 138.53125 141.84375 C 139.398438 141.265625 140.199219 140.609375 140.933594 139.871094 C 141.671875 139.136719 142.328125 138.335938 142.90625 137.46875 C 143.484375 136.605469 143.972656 135.691406 144.371094 134.730469 C 144.769531 133.765625 145.070312 132.777344 145.273438 131.753906 C 145.476562 130.734375 145.578125 129.703125 145.578125 128.664062 C 145.578125 127.621094 145.476562 126.589844 145.273438 125.570312 C 145.070312 124.550781 144.769531 123.558594 144.371094 122.597656 C 143.972656 121.636719 143.484375 120.722656 142.90625 119.855469 C 142.328125 118.992188 141.671875 118.191406 140.933594 117.453125 C 140.199219 116.71875 139.398438 116.0625 138.53125 115.484375 C 137.667969 114.90625 136.753906 114.417969 135.792969 114.019531 C 134.832031 113.621094 133.839844 113.320312 132.820312 113.117188 C 131.796875 112.914062 130.765625 112.8125 129.726562 112.8125 Z M 129.726562 112.8125 " clip-rule="nonzero"/></clipPath><clipPath id="b4647ec2c3"><path d="M 0.417969 0.660156 L 50.339844 0.660156 L 50.339844 50.582031 L 0.417969 50.582031 Z M 0.417969 0.660156 " clip-rule="nonzero"/></clipPath><clipPath id="243a5d5444"><path d="M 25.378906 0.660156 C 23.738281 0.660156 22.117188 0.820312 20.507812 1.140625 C 18.902344 1.460938 17.339844 1.933594 15.824219 2.5625 C 14.3125 3.1875 12.871094 3.957031 11.511719 4.867188 C 10.148438 5.777344 8.886719 6.8125 7.726562 7.972656 C 6.570312 9.132812 5.535156 10.390625 4.625 11.753906 C 3.710938 13.117188 2.945312 14.554688 2.316406 16.070312 C 1.691406 17.585938 1.214844 19.144531 0.894531 20.753906 C 0.578125 22.359375 0.417969 23.984375 0.417969 25.621094 C 0.417969 27.261719 0.578125 28.886719 0.894531 30.492188 C 1.214844 32.101562 1.691406 33.660156 2.316406 35.175781 C 2.945312 36.6875 3.710938 38.128906 4.625 39.492188 C 5.535156 40.851562 6.570312 42.113281 7.726562 43.273438 C 8.886719 44.433594 10.148438 45.464844 11.511719 46.378906 C 12.871094 47.289062 14.3125 48.054688 15.824219 48.683594 C 17.339844 49.3125 18.902344 49.785156 20.507812 50.105469 C 22.117188 50.425781 23.738281 50.582031 25.378906 50.582031 C 27.015625 50.582031 28.640625 50.425781 30.246094 50.105469 C 31.855469 49.785156 33.414062 49.3125 34.929688 48.683594 C 36.445312 48.054688 37.882812 47.289062 39.246094 46.378906 C 40.609375 45.464844 41.871094 44.433594 43.027344 43.273438 C 44.1875 42.113281 45.222656 40.851562 46.132812 39.492188 C 47.042969 38.128906 47.8125 36.6875 48.4375 35.175781 C 49.066406 33.660156 49.539062 32.101562 49.859375 30.492188 C 50.179688 28.886719 50.339844 27.261719 50.339844 25.621094 C 50.339844 23.984375 50.179688 22.359375 49.859375 20.753906 C 49.539062 19.144531 49.066406 17.585938 48.4375 16.070312 C 47.8125 14.554688 47.042969 13.117188 46.132812 11.753906 C 45.222656 10.390625 44.1875 9.132812 43.027344 7.972656 C 41.871094 6.8125 40.609375 5.777344 39.246094 4.867188 C 37.882812 3.957031 36.445312 3.1875 34.929688 2.5625 C 33.414062 1.933594 31.855469 1.460938 30.246094 1.140625 C 28.640625 0.820312 27.015625 0.660156 25.378906 0.660156 Z M 25.378906 0.660156 " clip-rule="nonzero"/></clipPath><clipPath id="5469cf9f42"><path d="M 4.511719 4.753906 L 46.246094 4.753906 L 46.246094 46.492188 L 4.511719 46.492188 Z M 4.511719 4.753906 " clip-rule="nonzero"/></clipPath><clipPath id="fc50736690"><path d="M 25.378906 4.835938 C 24.011719 4.835938 22.660156 4.96875 21.324219 5.234375 C 19.984375 5.5 18.683594 5.894531 17.421875 6.417969 C 16.160156 6.941406 14.964844 7.578125 13.828125 8.339844 C 12.695312 9.097656 11.644531 9.957031 10.679688 10.921875 C 9.714844 11.890625 8.851562 12.9375 8.09375 14.074219 C 7.335938 15.207031 6.695312 16.40625 6.171875 17.667969 C 5.648438 18.929688 5.257812 20.226562 4.988281 21.566406 C 4.722656 22.90625 4.589844 24.257812 4.589844 25.621094 C 4.589844 26.988281 4.722656 28.339844 4.988281 29.679688 C 5.257812 31.015625 5.648438 32.316406 6.171875 33.578125 C 6.695312 34.839844 7.335938 36.035156 8.09375 37.171875 C 8.851562 38.304688 9.714844 39.355469 10.679688 40.320312 C 11.644531 41.285156 12.695312 42.148438 13.828125 42.90625 C 14.964844 43.664062 16.160156 44.304688 17.421875 44.828125 C 18.683594 45.351562 19.984375 45.746094 21.324219 46.011719 C 22.660156 46.277344 24.011719 46.410156 25.378906 46.410156 C 26.742188 46.410156 28.09375 46.277344 29.433594 46.011719 C 30.773438 45.746094 32.070312 45.351562 33.332031 44.828125 C 34.59375 44.304688 35.792969 43.664062 36.925781 42.90625 C 38.0625 42.148438 39.113281 41.285156 40.078125 40.320312 C 41.042969 39.355469 41.902344 38.304688 42.664062 37.171875 C 43.421875 36.035156 44.0625 34.839844 44.582031 33.578125 C 45.105469 32.316406 45.5 31.015625 45.765625 29.679688 C 46.03125 28.339844 46.164062 26.988281 46.164062 25.621094 C 46.164062 24.257812 46.03125 22.90625 45.765625 21.566406 C 45.5 20.226562 45.105469 18.929688 44.582031 17.667969 C 44.0625 16.40625 43.421875 15.207031 42.664062 14.074219 C 41.902344 12.9375 41.042969 11.890625 40.078125 10.921875 C 39.113281 9.957031 38.0625 9.097656 36.925781 8.339844 C 35.792969 7.578125 34.59375 6.941406 33.332031 6.417969 C 32.070312 5.894531 30.773438 5.5 29.433594 5.234375 C 28.09375 4.96875 26.742188 4.835938 25.378906 4.835938 Z M 25.378906 4.835938 " clip-rule="nonzero"/></clipPath><clipPath id="9528b9a297"><path d="M 14.191406 105.898438 L 44.375 105.898438 L 44.375 136.082031 L 14.191406 136.082031 Z M 14.191406 105.898438 " clip-rule="nonzero"/></clipPath><clipPath id="cadb156327"><path d="M 29.285156 105.898438 C 27.28125 105.898438 25.355469 106.28125 23.507812 107.046875 C 21.660156 107.816406 20.027344 108.90625 18.613281 110.320312 C 17.195312 111.734375 16.105469 113.367188 15.339844 115.214844 C 14.574219 117.066406 14.191406 118.992188 14.191406 120.992188 C 14.191406 122.992188 14.574219 124.917969 15.339844 126.765625 C 16.105469 128.617188 17.195312 130.25 18.613281 131.664062 C 20.027344 133.078125 21.660156 134.167969 23.507812 134.933594 C 25.355469 135.699219 27.28125 136.082031 29.285156 136.082031 C 31.285156 136.082031 33.210938 135.699219 35.058594 134.933594 C 36.90625 134.167969 38.539062 133.078125 39.953125 131.664062 C 41.371094 130.25 42.460938 128.617188 43.226562 126.765625 C 43.992188 124.917969 44.375 122.992188 44.375 120.992188 C 44.375 118.992188 43.992188 117.066406 43.226562 115.214844 C 42.460938 113.367188 41.371094 111.734375 39.953125 110.320312 C 38.539062 108.90625 36.90625 107.816406 35.058594 107.046875 C 33.210938 106.28125 31.285156 105.898438 29.285156 105.898438 Z M 29.285156 105.898438 " clip-rule="nonzero"/></clipPath><clipPath id="ef854e4fdd"><path d="M 16.667969 108.375 L 41.898438 108.375 L 41.898438 133.609375 L 16.667969 133.609375 Z M 16.667969 108.375 " clip-rule="nonzero"/></clipPath><clipPath id="b5f2ca2e9e"><path d="M 29.285156 108.421875 C 27.617188 108.421875 26.011719 108.742188 24.472656 109.378906 C 22.933594 110.019531 21.574219 110.925781 20.394531 112.105469 C 19.21875 113.28125 18.308594 114.640625 17.671875 116.183594 C 17.035156 117.722656 16.714844 119.324219 16.714844 120.992188 C 16.714844 122.660156 17.035156 124.261719 17.671875 125.800781 C 18.308594 127.339844 19.21875 128.699219 20.394531 129.878906 C 21.574219 131.058594 22.933594 131.964844 24.472656 132.601562 C 26.011719 133.242188 27.617188 133.558594 29.285156 133.558594 C 30.949219 133.558594 32.554688 133.242188 34.09375 132.605469 C 35.632812 131.964844 36.992188 131.058594 38.171875 129.878906 C 39.347656 128.699219 40.257812 127.339844 40.894531 125.800781 C 41.53125 124.261719 41.851562 122.660156 41.851562 120.992188 C 41.851562 119.324219 41.53125 117.722656 40.894531 116.183594 C 40.257812 114.640625 39.347656 113.28125 38.171875 112.105469 C 36.992188 110.925781 35.632812 110.019531 34.09375 109.378906 C 32.554688 108.742188 30.949219 108.421875 29.285156 108.421875 Z M 29.285156 108.421875 " clip-rule="nonzero"/></clipPath></defs><g clip-path="url(#83eeba2dcb)"><path fill="#9ee4ff" d="M 111.058594 74.359375 C 111.058594 74.445312 111.058594 74.539062 111.054688 74.628906 C 111.042969 76.449219 110.898438 78.238281 110.625 79.988281 C 109.339844 88.4375 105.191406 95.941406 99.199219 101.476562 L 99.195312 101.476562 C 92.601562 107.574219 83.789062 111.304688 74.113281 111.304688 C 69.375 111.304688 64.847656 110.414062 60.695312 108.785156 C 60.179688 108.589844 59.667969 108.375 59.164062 108.152344 C 52.136719 105.039062 46.265625 99.800781 42.363281 93.246094 C 40.402344 89.949219 38.929688 86.324219 38.066406 82.472656 C 37.480469 79.855469 37.171875 77.140625 37.171875 74.359375 C 37.171875 73.378906 37.207031 72.414062 37.289062 71.460938 C 37.914062 63.355469 41.15625 55.988281 46.167969 50.199219 C 48.097656 47.96875 50.292969 45.972656 52.699219 44.261719 L 52.707031 44.253906 C 53.355469 43.792969 54.027344 43.34375 54.714844 42.921875 C 58.910156 40.324219 63.664062 38.542969 68.753906 37.800781 C 70.503906 37.542969 72.292969 37.414062 74.113281 37.414062 C 78.449219 37.414062 82.621094 38.167969 86.488281 39.542969 C 92.734375 41.761719 98.199219 45.613281 102.382812 50.578125 C 107.800781 57.003906 111.058594 65.300781 111.058594 74.359375 " fill-opacity="1" fill-rule="nonzero"/></g><path fill="#70c573" d="M 79.046875 103.269531 C 79.046875 103.269531 77.035156 100.464844 77.261719 95.652344 C 77.484375 90.84375 77.035156 90.042969 73.910156 89.039062 C 70.78125 88.039062 67.652344 86.234375 67.207031 83.828125 C 66.761719 81.421875 69.441406 75.8125 69.441406 75.8125 C 69.441406 75.8125 73.015625 73.40625 76.144531 73.804688 C 79.269531 74.207031 84.632812 74.207031 87.089844 76.414062 C 89.550781 78.617188 91.109375 83.628906 92.226562 83.828125 C 93.34375 84.027344 90.664062 92.648438 90.21875 94.050781 C 89.769531 95.453125 88.433594 101.066406 87.316406 103.269531 C 86.199219 105.476562 85.082031 107.480469 84.1875 107.480469 C 83.292969 107.480469 79.269531 107.882812 79.046875 103.269531 " fill-opacity="1" fill-rule="nonzero"/><path fill="#70c573" d="M 61.6875 102.8125 C 61.496094 103.757812 61.144531 106.277344 60.695312 108.785156 C 60.179688 108.589844 59.667969 108.375 59.164062 108.152344 C 52.136719 105.039062 46.265625 99.800781 42.363281 93.246094 C 40.402344 89.949219 38.929688 86.324219 38.066406 82.472656 C 39.429688 81.746094 41.136719 81.09375 42.8125 81.125 C 46.488281 81.195312 46.949219 82.101562 50.078125 84.34375 C 53.203125 86.59375 55.648438 92.199219 56.972656 92.292969 C 58.292969 92.382812 62.027344 101.128906 61.6875 102.8125 " fill-opacity="1" fill-rule="nonzero"/><g clip-path="url(#8e40644bb5)"><path fill="#70c573" d="M 111.058594 74.359375 C 111.058594 74.445312 111.058594 74.539062 111.054688 74.628906 C 111.042969 76.449219 110.898438 78.238281 110.625 79.988281 C 108.96875 77.550781 107.175781 73.894531 106.265625 73.253906 C 104.859375 72.265625 99.710938 71.671875 101.582031 74.242188 C 103.457031 76.824219 104.25 76.824219 104.25 76.824219 C 104.25 76.824219 100.644531 84.078125 98.074219 83.375 C 95.496094 82.671875 90.347656 73.253906 90.347656 73.253906 C 87.304688 70.859375 93.15625 69.09375 93.15625 69.09375 C 93.15625 69.09375 95.027344 67.457031 92.21875 65.585938 C 89.410156 63.710938 87.304688 67.691406 85.433594 67.222656 C 83.558594 66.753906 83.089844 68.625 82.503906 70.5 C 81.917969 72.371094 80.210938 73.492188 79.8125 70.5 C 79.410156 67.503906 75.132812 69.332031 73.726562 69.332031 C 72.320312 69.332031 69.511719 74.242188 66.933594 74.242188 C 64.363281 74.242188 64.363281 70.734375 64.832031 69.09375 C 65.300781 67.457031 69.277344 65.816406 73.023438 65.585938 C 76.765625 65.347656 73.257812 62.070312 74.425781 61.4375 C 75.597656 60.796875 79.109375 61.839844 82.503906 63.246094 C 85.894531 64.648438 89.410156 61.371094 92.457031 61.4375 C 95.496094 61.5 85.902344 59.03125 88.941406 56.6875 C 91.988281 54.347656 85.433594 52.238281 85.664062 49.664062 C 85.902344 47.089844 83.789062 44.046875 83.789062 41.238281 C 83.789062 40.34375 84.785156 39.761719 86.488281 39.542969 C 92.734375 41.761719 98.199219 45.613281 102.382812 50.578125 C 107.800781 57.003906 111.058594 65.300781 111.058594 74.359375 " fill-opacity="1" fill-rule="nonzero"/></g><path fill="#70c573" d="M 58.757812 61.867188 C 58.757812 61.867188 60.117188 63.472656 61.164062 61.867188 C 62.210938 60.265625 62.359375 58.984375 61.703125 58.871094 C 61.046875 58.753906 57.152344 61.199219 58.757812 61.867188 " fill-opacity="1" fill-rule="nonzero"/><path fill="#70c573" d="M 50.855469 61.867188 C 50.855469 61.867188 53.644531 61.15625 54.261719 59.761719 C 54.882812 58.363281 58.449219 58.984375 59.378906 57.589844 C 60.308594 56.195312 62.71875 55.695312 63.296875 54.394531 C 63.875 53.09375 64.503906 51.078125 62.097656 50.921875 C 59.691406 50.769531 57.316406 49.683594 57.339844 50.921875 C 57.363281 52.164062 56.746094 51.855469 54.574219 52.628906 C 52.40625 53.402344 50.078125 52.285156 50.078125 54.394531 C 50.078125 56.503906 50.699219 58.863281 50.699219 58.863281 C 50.699219 58.863281 49.457031 60.566406 50.855469 61.867188 " fill-opacity="1" fill-rule="nonzero"/><g clip-path="url(#58df5165a7)"><path fill="#70c573" d="M 68.753906 37.800781 C 68.753906 37.800781 64.601562 43.347656 63.828125 43.496094 C 63.054688 43.644531 60.675781 45.273438 60.238281 46.90625 C 59.792969 48.535156 56.679688 49.570312 54.3125 48.535156 C 51.941406 47.496094 51.394531 46.355469 52.699219 44.261719 L 52.707031 44.253906 C 53.355469 43.792969 54.027344 43.34375 54.714844 42.921875 C 58.910156 40.324219 63.664062 38.542969 68.753906 37.800781 " fill-opacity="1" fill-rule="nonzero"/></g><g clip-path="url(#05bd28ef12)"><path fill="#70c573" d="M 45.46875 59.597656 C 45.078125 60.785156 45.171875 62.167969 43.890625 62.578125 C 42.605469 62.996094 43.097656 64.535156 42.210938 66.511719 C 41.410156 68.289062 37.976562 70.945312 37.289062 71.460938 C 37.914062 63.355469 41.15625 55.988281 46.167969 50.199219 C 46.6875 51.78125 46.488281 54.394531 46.949219 55.25 C 47.644531 56.535156 45.863281 58.414062 45.46875 59.597656 " fill-opacity="1" fill-rule="nonzero"/></g><g clip-path="url(#c60590a54c)"><g clip-path="url(#55c9f99b1b)"><path fill="#2a81b9" d="M 110.691406 109.628906 L 148.761719 109.628906 L 148.761719 147.695312 L 110.691406 147.695312 Z M 110.691406 109.628906 " fill-opacity="1" fill-rule="nonzero"/></g></g><g clip-path="url(#ad453f7bcc)"><g clip-path="url(#125035b92a)"><path fill="#5eafff" d="M 110.691406 109.628906 L 148.761719 109.628906 L 148.761719 147.695312 L 110.691406 147.695312 Z M 110.691406 109.628906 " fill-opacity="1" fill-rule="nonzero"/></g></g><g clip-path="url(#b4647ec2c3)"><g clip-path="url(#243a5d5444)"><path fill="#00bf63" d="M 0.417969 0.660156 L 50.339844 0.660156 L 50.339844 50.582031 L 0.417969 50.582031 Z M 0.417969 0.660156 " fill-opacity="1" fill-rule="nonzero"/></g></g><g clip-path="url(#5469cf9f42)"><g clip-path="url(#fc50736690)"><path fill="#c1ff72" d="M 0.417969 0.660156 L 50.339844 0.660156 L 50.339844 50.582031 L 0.417969 50.582031 Z M 0.417969 0.660156 " fill-opacity="1" fill-rule="nonzero"/></g></g><g clip-path="url(#9528b9a297)"><g clip-path="url(#cadb156327)"><path fill="#5e17eb" d="M 14.191406 105.898438 L 44.375 105.898438 L 44.375 136.082031 L 14.191406 136.082031 Z M 14.191406 105.898438 " fill-opacity="1" fill-rule="nonzero"/></g></g><g clip-path="url(#ef854e4fdd)"><g clip-path="url(#b5f2ca2e9e)"><path fill="#e4d7ff" d="M 14.191406 105.898438 L 44.375 105.898438 L 44.375 136.082031 L 14.191406 136.082031 Z M 14.191406 105.898438 " fill-opacity="1" fill-rule="nonzero"/></g></g></svg>