<svg xmlns="http://www.w3.org/2000/svg" xmlns:xlink="http://www.w3.org/1999/xlink" width="1080" zoomAndPan="magnify" viewBox="0 0 810 809.999993" height="1080" preserveAspectRatio="xMidYMid meet" version="1.0"><defs><clipPath id="216c6cf7fb"><path d="M 303.75 303.75 L 507 303.75 L 507 507 L 303.75 507 Z M 303.75 303.75 " clip-rule="nonzero"/></clipPath><clipPath id="9e8f4ffd9a"><path d="M 379 309 L 507 309 L 507 431 L 379 431 Z M 379 309 " clip-rule="nonzero"/></clipPath><clipPath id="e9133a226a"><path d="M 506.25 502.644531 L 611.105469 502.644531 L 611.105469 607.5 L 506.25 607.5 Z M 506.25 502.644531 " clip-rule="nonzero"/></clipPath><clipPath id="d96eb3f72f"><path d="M 558.675781 502.644531 C 555.234375 502.644531 551.824219 502.980469 548.449219 503.652344 C 545.074219 504.324219 541.792969 505.320312 538.613281 506.636719 C 535.433594 507.953125 532.414062 509.570312 529.550781 511.480469 C 526.6875 513.394531 524.039062 515.566406 521.605469 518 C 519.171875 520.4375 516.996094 523.082031 515.085938 525.945312 C 513.171875 528.808594 511.558594 531.828125 510.242188 535.011719 C 508.921875 538.191406 507.929688 541.46875 507.257812 544.84375 C 506.585938 548.222656 506.25 551.628906 506.25 555.074219 C 506.25 558.515625 506.585938 561.925781 507.257812 565.300781 C 507.929688 568.675781 508.921875 571.957031 510.242188 575.136719 C 511.558594 578.316406 513.171875 581.335938 515.085938 584.199219 C 516.996094 587.0625 519.171875 589.710938 521.605469 592.144531 C 524.039062 594.578125 526.6875 596.753906 529.550781 598.664062 C 532.414062 600.578125 535.433594 602.191406 538.613281 603.507812 C 541.792969 604.828125 545.074219 605.820312 548.449219 606.492188 C 551.824219 607.164062 555.234375 607.5 558.675781 607.5 C 562.121094 607.5 565.527344 607.164062 568.90625 606.492188 C 572.28125 605.820312 575.558594 604.828125 578.738281 603.507812 C 581.921875 602.191406 584.941406 600.578125 587.804688 598.664062 C 590.664062 596.753906 593.3125 594.578125 595.75 592.144531 C 598.183594 589.710938 600.355469 587.0625 602.269531 584.199219 C 604.179688 581.335938 605.796875 578.316406 607.113281 575.136719 C 608.429688 571.957031 609.425781 568.675781 610.097656 565.300781 C 610.769531 561.925781 611.105469 558.515625 611.105469 555.074219 C 611.105469 551.628906 610.769531 548.222656 610.097656 544.84375 C 609.425781 541.46875 608.429688 538.191406 607.113281 535.011719 C 605.796875 531.828125 604.179688 528.808594 602.269531 525.945312 C 600.355469 523.082031 598.183594 520.4375 595.75 518 C 593.3125 515.566406 590.664062 513.394531 587.804688 511.480469 C 584.941406 509.570312 581.921875 507.953125 578.738281 506.636719 C 575.558594 505.320312 572.28125 504.324219 568.90625 503.652344 C 565.527344 502.980469 562.121094 502.644531 558.675781 502.644531 Z M 558.675781 502.644531 " clip-rule="nonzero"/></clipPath><clipPath id="3547dbb9a7"><path d="M 515 511.246094 L 602.503906 511.246094 L 602.503906 598.902344 L 515 598.902344 Z M 515 511.246094 " clip-rule="nonzero"/></clipPath><clipPath id="b1cc436f29"><path d="M 558.675781 511.410156 C 555.808594 511.410156 552.972656 511.691406 550.160156 512.25 C 547.347656 512.808594 544.617188 513.636719 541.96875 514.734375 C 539.320312 515.832031 536.804688 517.175781 534.421875 518.769531 C 532.035156 520.363281 529.832031 522.171875 527.804688 524.199219 C 525.777344 526.226562 523.964844 528.433594 522.375 530.816406 C 520.78125 533.199219 519.4375 535.714844 518.339844 538.363281 C 517.242188 541.011719 516.414062 543.742188 515.855469 546.554688 C 515.296875 549.367188 515.015625 552.207031 515.015625 555.074219 C 515.015625 557.941406 515.296875 560.777344 515.855469 563.589844 C 516.414062 566.402344 517.242188 569.132812 518.339844 571.78125 C 519.4375 574.429688 520.78125 576.945312 522.375 579.328125 C 523.964844 581.714844 525.777344 583.917969 527.804688 585.945312 C 529.832031 587.972656 532.035156 589.78125 534.421875 591.375 C 536.804688 592.96875 539.320312 594.3125 541.96875 595.410156 C 544.617188 596.507812 547.347656 597.335938 550.160156 597.894531 C 552.972656 598.453125 555.808594 598.734375 558.675781 598.734375 C 561.542969 598.734375 564.382812 598.453125 567.195312 597.894531 C 570.007812 597.335938 572.738281 596.507812 575.386719 595.410156 C 578.035156 594.3125 580.550781 592.96875 582.933594 591.375 C 585.316406 589.78125 587.523438 587.972656 589.550781 585.945312 C 591.578125 583.917969 593.386719 581.714844 594.980469 579.328125 C 596.574219 576.945312 597.917969 574.429688 599.015625 571.78125 C 600.113281 569.132812 600.941406 566.402344 601.5 563.589844 C 602.058594 560.777344 602.339844 557.941406 602.339844 555.074219 C 602.339844 552.207031 602.058594 549.367188 601.5 546.554688 C 600.941406 543.742188 600.113281 541.011719 599.015625 538.363281 C 597.917969 535.714844 596.574219 533.199219 594.980469 530.816406 C 593.386719 528.433594 591.578125 526.226562 589.550781 524.199219 C 587.523438 522.171875 585.316406 520.363281 582.933594 518.769531 C 580.550781 517.175781 578.035156 515.832031 575.386719 514.734375 C 572.738281 513.636719 570.007812 512.808594 567.195312 512.25 C 564.382812 511.691406 561.542969 511.410156 558.675781 511.410156 Z M 558.675781 511.410156 " clip-rule="nonzero"/></clipPath><clipPath id="79a353cab1"><path d="M 202.5 202.5 L 340.007812 202.5 L 340.007812 340.007812 L 202.5 340.007812 Z M 202.5 202.5 " clip-rule="nonzero"/></clipPath><clipPath id="7e3fdd1e13"><path d="M 271.253906 202.5 C 269.003906 202.5 266.757812 202.609375 264.515625 202.832031 C 262.273438 203.050781 260.050781 203.382812 257.839844 203.820312 C 255.632812 204.261719 253.449219 204.808594 251.296875 205.460938 C 249.140625 206.113281 247.023438 206.871094 244.941406 207.734375 C 242.863281 208.59375 240.828125 209.558594 238.84375 210.617188 C 236.859375 211.679688 234.929688 212.835938 233.054688 214.085938 C 231.183594 215.339844 229.378906 216.679688 227.636719 218.105469 C 225.894531 219.535156 224.230469 221.046875 222.636719 222.636719 C 221.046875 224.230469 219.535156 225.894531 218.105469 227.636719 C 216.679688 229.378906 215.339844 231.183594 214.085938 233.054688 C 212.835938 234.929688 211.679688 236.859375 210.617188 238.84375 C 209.558594 240.828125 208.59375 242.863281 207.734375 244.941406 C 206.871094 247.023438 206.113281 249.140625 205.460938 251.296875 C 204.808594 253.449219 204.261719 255.632812 203.820312 257.839844 C 203.382812 260.050781 203.050781 262.273438 202.832031 264.515625 C 202.609375 266.757812 202.5 269.003906 202.5 271.253906 C 202.5 273.507812 202.609375 275.753906 202.832031 277.992188 C 203.050781 280.234375 203.382812 282.457031 203.820312 284.667969 C 204.261719 286.875 204.808594 289.058594 205.460938 291.210938 C 206.113281 293.367188 206.871094 295.484375 207.734375 297.566406 C 208.59375 299.644531 209.558594 301.679688 210.617188 303.664062 C 211.679688 305.652344 212.835938 307.578125 214.085938 309.453125 C 215.339844 311.324219 216.679688 313.128906 218.105469 314.871094 C 219.535156 316.613281 221.046875 318.277344 222.636719 319.871094 C 224.230469 321.464844 225.894531 322.972656 227.636719 324.402344 C 229.378906 325.832031 231.183594 327.171875 233.054688 328.421875 C 234.929688 329.671875 236.859375 330.828125 238.84375 331.890625 C 240.828125 332.953125 242.863281 333.914062 244.941406 334.773438 C 247.023438 335.636719 249.140625 336.394531 251.296875 337.046875 C 253.449219 337.703125 255.632812 338.246094 257.839844 338.6875 C 260.050781 339.125 262.273438 339.457031 264.515625 339.675781 C 266.757812 339.898438 269.003906 340.007812 271.253906 340.007812 C 273.507812 340.007812 275.753906 339.898438 277.992188 339.675781 C 280.234375 339.457031 282.457031 339.125 284.667969 338.6875 C 286.875 338.246094 289.058594 337.703125 291.210938 337.046875 C 293.367188 336.394531 295.484375 335.636719 297.566406 334.773438 C 299.644531 333.914062 301.679688 332.953125 303.664062 331.890625 C 305.652344 330.828125 307.578125 329.671875 309.453125 328.421875 C 311.324219 327.171875 313.128906 325.832031 314.871094 324.402344 C 316.613281 322.972656 318.277344 321.464844 319.871094 319.871094 C 321.464844 318.277344 322.972656 316.613281 324.402344 314.871094 C 325.832031 313.128906 327.171875 311.324219 328.421875 309.453125 C 329.671875 307.578125 330.828125 305.652344 331.890625 303.664062 C 332.953125 301.679688 333.914062 299.644531 334.773438 297.566406 C 335.636719 295.484375 336.394531 293.367188 337.046875 291.210938 C 337.703125 289.058594 338.246094 286.875 338.6875 284.667969 C 339.125 282.457031 339.457031 280.234375 339.675781 277.992188 C 339.898438 275.753906 340.007812 273.507812 340.007812 271.253906 C 340.007812 269.003906 339.898438 266.757812 339.675781 264.515625 C 339.457031 262.273438 339.125 260.050781 338.6875 257.839844 C 338.246094 255.632812 337.703125 253.449219 337.046875 251.296875 C 336.394531 249.140625 335.636719 247.023438 334.773438 244.941406 C 333.914062 242.863281 332.953125 240.828125 331.890625 238.84375 C 330.828125 236.859375 329.671875 234.929688 328.421875 233.054688 C 327.171875 231.183594 325.832031 229.378906 324.402344 227.636719 C 322.972656 225.894531 321.464844 224.230469 319.871094 222.636719 C 318.277344 221.046875 316.613281 219.535156 314.871094 218.105469 C 313.128906 216.679688 311.324219 215.339844 309.453125 214.085938 C 307.578125 212.835938 305.652344 211.679688 303.664062 210.617188 C 301.679688 209.558594 299.644531 208.59375 297.566406 207.734375 C 295.484375 206.871094 293.367188 206.113281 291.210938 205.460938 C 289.058594 204.808594 286.875 204.261719 284.667969 203.820312 C 282.457031 203.382812 280.234375 203.050781 277.992188 202.832031 C 275.753906 202.609375 273.507812 202.5 271.253906 202.5 Z M 271.253906 202.5 " clip-rule="nonzero"/></clipPath><clipPath id="cb3b726b63"><path d="M 213.777344 213.777344 L 328.734375 213.777344 L 328.734375 328.734375 L 213.777344 328.734375 Z M 213.777344 213.777344 " clip-rule="nonzero"/></clipPath><clipPath id="b442df772b"><path d="M 271.253906 213.996094 C 267.496094 213.996094 263.769531 214.363281 260.082031 215.097656 C 256.394531 215.828125 252.816406 216.914062 249.34375 218.355469 C 245.867188 219.792969 242.570312 221.558594 239.441406 223.644531 C 236.316406 225.734375 233.425781 228.109375 230.765625 230.765625 C 228.109375 233.425781 225.734375 236.316406 223.644531 239.441406 C 221.558594 242.570312 219.792969 245.867188 218.355469 249.34375 C 216.914062 252.816406 215.828125 256.394531 215.097656 260.082031 C 214.363281 263.769531 213.996094 267.496094 213.996094 271.253906 C 213.996094 275.015625 214.363281 278.738281 215.097656 282.425781 C 215.828125 286.113281 216.914062 289.691406 218.355469 293.167969 C 219.792969 296.640625 221.558594 299.9375 223.644531 303.066406 C 225.734375 306.191406 228.109375 309.082031 230.765625 311.742188 C 233.425781 314.402344 236.316406 316.773438 239.441406 318.863281 C 242.570312 320.953125 245.867188 322.714844 249.34375 324.152344 C 252.816406 325.59375 256.394531 326.679688 260.082031 327.414062 C 263.769531 328.144531 267.496094 328.511719 271.253906 328.511719 C 275.015625 328.511719 278.738281 328.144531 282.425781 327.414062 C 286.113281 326.679688 289.691406 325.59375 293.167969 324.152344 C 296.640625 322.714844 299.9375 320.953125 303.066406 318.863281 C 306.191406 316.773438 309.082031 314.402344 311.742188 311.742188 C 314.402344 309.082031 316.773438 306.191406 318.863281 303.066406 C 320.953125 299.9375 322.714844 296.640625 324.152344 293.167969 C 325.59375 289.691406 326.679688 286.113281 327.414062 282.425781 C 328.144531 278.738281 328.511719 275.015625 328.511719 271.253906 C 328.511719 267.496094 328.144531 263.769531 327.414062 260.082031 C 326.679688 256.394531 325.59375 252.816406 324.152344 249.34375 C 322.714844 245.867188 320.953125 242.570312 318.863281 239.441406 C 316.773438 236.316406 314.402344 233.425781 311.742188 230.765625 C 309.082031 228.109375 306.191406 225.734375 303.066406 223.644531 C 299.9375 221.558594 296.640625 219.792969 293.167969 218.355469 C 289.691406 216.914062 286.113281 215.828125 282.425781 215.097656 C 278.738281 214.363281 275.015625 213.996094 271.253906 213.996094 Z M 271.253906 213.996094 " clip-rule="nonzero"/></clipPath><clipPath id="9cacd70457"><path d="M 240.441406 492.371094 L 323.582031 492.371094 L 323.582031 575.511719 L 240.441406 575.511719 Z M 240.441406 492.371094 " clip-rule="nonzero"/></clipPath><clipPath id="7093192262"><path d="M 282.011719 492.371094 C 279.28125 492.371094 276.578125 492.640625 273.902344 493.171875 C 271.226562 493.703125 268.625 494.492188 266.105469 495.539062 C 263.582031 496.582031 261.1875 497.863281 258.917969 499.378906 C 256.648438 500.894531 254.546875 502.617188 252.617188 504.546875 C 250.6875 506.476562 248.964844 508.578125 247.449219 510.847656 C 245.929688 513.117188 244.652344 515.511719 243.605469 518.035156 C 242.5625 520.554688 241.773438 523.15625 241.242188 525.832031 C 240.707031 528.511719 240.441406 531.214844 240.441406 533.941406 C 240.441406 536.671875 240.707031 539.375 241.242188 542.050781 C 241.773438 544.730469 242.5625 547.328125 243.605469 549.851562 C 244.652344 552.371094 245.929688 554.769531 247.449219 557.039062 C 248.964844 559.308594 250.6875 561.40625 252.617188 563.335938 C 254.546875 565.265625 256.648438 566.988281 258.917969 568.507812 C 261.1875 570.023438 263.582031 571.304688 266.105469 572.347656 C 268.625 573.394531 271.226562 574.179688 273.902344 574.714844 C 276.578125 575.246094 279.28125 575.511719 282.011719 575.511719 C 284.742188 575.511719 287.445312 575.246094 290.121094 574.714844 C 292.796875 574.179688 295.398438 573.394531 297.917969 572.347656 C 300.441406 571.304688 302.835938 570.023438 305.105469 568.507812 C 307.375 566.988281 309.476562 565.265625 311.40625 563.335938 C 313.335938 561.40625 315.058594 559.308594 316.574219 557.039062 C 318.09375 554.769531 319.371094 552.371094 320.417969 549.851562 C 321.460938 547.328125 322.25 544.730469 322.78125 542.050781 C 323.316406 539.375 323.582031 536.671875 323.582031 533.941406 C 323.582031 531.214844 323.316406 528.511719 322.78125 525.832031 C 322.25 523.15625 321.460938 520.554688 320.417969 518.035156 C 319.371094 515.511719 318.09375 513.117188 316.574219 510.847656 C 315.058594 508.578125 313.335938 506.476562 311.40625 504.546875 C 309.476562 502.617188 307.375 500.894531 305.105469 499.378906 C 302.835938 497.863281 300.441406 496.582031 297.917969 495.539062 C 295.398438 494.492188 292.796875 493.703125 290.121094 493.171875 C 287.445312 492.640625 284.742188 492.371094 282.011719 492.371094 Z M 282.011719 492.371094 " clip-rule="nonzero"/></clipPath><clipPath id="8fdaef480a"><path d="M 247.257812 499.191406 L 316.765625 499.191406 L 316.765625 568.695312 L 247.257812 568.695312 Z M 247.257812 499.191406 " clip-rule="nonzero"/></clipPath><clipPath id="3cd6e20bd2"><path d="M 282.011719 499.324219 C 279.738281 499.324219 277.488281 499.546875 275.257812 499.988281 C 273.027344 500.433594 270.863281 501.089844 268.761719 501.957031 C 266.664062 502.828125 264.667969 503.894531 262.777344 505.15625 C 260.886719 506.421875 259.140625 507.855469 257.53125 509.464844 C 255.925781 511.070312 254.488281 512.820312 253.226562 514.710938 C 251.964844 516.597656 250.898438 518.59375 250.027344 520.695312 C 249.15625 522.792969 248.5 524.960938 248.058594 527.1875 C 247.613281 529.417969 247.390625 531.667969 247.390625 533.941406 C 247.390625 536.214844 247.613281 538.46875 248.058594 540.695312 C 248.5 542.925781 249.15625 545.089844 250.027344 547.191406 C 250.898438 549.289062 251.964844 551.285156 253.226562 553.175781 C 254.488281 555.066406 255.925781 556.816406 257.53125 558.421875 C 259.140625 560.03125 260.886719 561.464844 262.777344 562.726562 C 264.667969 563.992188 266.664062 565.058594 268.761719 565.925781 C 270.863281 566.796875 273.027344 567.453125 275.257812 567.898438 C 277.488281 568.339844 279.738281 568.5625 282.011719 568.5625 C 284.285156 568.5625 286.535156 568.339844 288.765625 567.898438 C 290.996094 567.453125 293.160156 566.796875 295.261719 565.925781 C 297.359375 565.058594 299.355469 563.992188 301.246094 562.726562 C 303.136719 561.464844 304.882812 560.03125 306.492188 558.421875 C 308.097656 556.816406 309.535156 555.066406 310.796875 553.175781 C 312.058594 551.285156 313.125 549.289062 313.996094 547.191406 C 314.867188 545.089844 315.523438 542.925781 315.964844 540.695312 C 316.410156 538.46875 316.632812 536.214844 316.632812 533.941406 C 316.632812 531.667969 316.410156 529.417969 315.964844 527.1875 C 315.523438 524.960938 314.867188 522.792969 313.996094 520.695312 C 313.125 518.59375 312.058594 516.597656 310.796875 514.710938 C 309.535156 512.820312 308.097656 511.070312 306.492188 509.464844 C 304.882812 507.855469 303.136719 506.421875 301.246094 505.15625 C 299.355469 503.894531 297.359375 502.828125 295.261719 501.957031 C 293.160156 501.089844 290.996094 500.433594 288.765625 499.988281 C 286.535156 499.546875 284.285156 499.324219 282.011719 499.324219 Z M 282.011719 499.324219 " clip-rule="nonzero"/></clipPath></defs><g clip-path="url(#216c6cf7fb)"><path fill="#9ee4ff" d="M 507.257812 405.492188 C 507.257812 405.730469 507.257812 405.996094 507.242188 406.242188 C 507.210938 411.253906 506.816406 416.179688 506.066406 421 C 502.523438 444.28125 491.097656 464.945312 474.59375 480.195312 L 474.578125 480.195312 C 456.421875 496.988281 432.148438 507.257812 405.492188 507.257812 C 392.445312 507.257812 379.972656 504.8125 368.53125 500.320312 C 367.113281 499.78125 365.707031 499.195312 364.316406 498.578125 C 344.957031 490.003906 328.792969 475.574219 318.035156 457.515625 C 312.636719 448.441406 308.585938 438.449219 306.199219 427.839844 C 304.585938 420.640625 303.738281 413.160156 303.738281 405.492188 C 303.738281 402.800781 303.835938 400.136719 304.066406 397.511719 C 305.78125 375.191406 314.710938 354.898438 328.519531 338.949219 C 333.835938 332.808594 339.878906 327.308594 346.511719 322.589844 L 346.527344 322.574219 C 348.320312 321.304688 350.164062 320.0625 352.058594 318.90625 C 363.617188 311.753906 376.707031 306.835938 390.730469 304.796875 C 395.546875 304.09375 400.480469 303.738281 405.492188 303.738281 C 417.4375 303.738281 428.929688 305.808594 439.574219 309.597656 C 456.785156 315.703125 471.832031 326.3125 483.359375 339.992188 C 498.285156 357.691406 507.257812 380.546875 507.257812 405.492188 " fill-opacity="1" fill-rule="nonzero"/></g><path fill="#70c573" d="M 419.085938 485.128906 C 419.085938 485.128906 413.542969 477.402344 414.160156 464.152344 C 414.773438 450.902344 413.542969 448.695312 404.929688 445.933594 C 396.316406 443.171875 387.699219 438.203125 386.46875 431.578125 C 385.238281 424.953125 392.621094 409.496094 392.621094 409.496094 C 392.621094 409.496094 402.46875 402.871094 411.085938 403.972656 C 419.699219 405.078125 434.472656 405.078125 441.238281 411.152344 C 448.007812 417.222656 452.3125 431.027344 455.390625 431.578125 C 458.464844 432.132812 451.082031 455.871094 449.851562 459.738281 C 448.621094 463.597656 444.933594 479.0625 441.855469 485.128906 C 438.777344 491.203125 435.703125 496.726562 433.238281 496.726562 C 430.777344 496.726562 419.699219 497.832031 419.085938 485.128906 " fill-opacity="1" fill-rule="nonzero"/><path fill="#70c573" d="M 371.269531 483.867188 C 370.734375 486.476562 369.773438 493.417969 368.53125 500.320312 C 367.113281 499.78125 365.707031 499.195312 364.316406 498.578125 C 344.957031 490.003906 328.792969 475.574219 318.035156 457.515625 C 312.636719 448.441406 308.585938 438.449219 306.199219 427.839844 C 309.953125 425.84375 314.660156 424.050781 319.277344 424.132812 C 329.398438 424.332031 330.671875 426.820312 339.289062 433 C 347.894531 439.191406 354.636719 454.632812 358.277344 454.898438 C 361.914062 455.140625 372.203125 479.230469 371.269531 483.867188 " fill-opacity="1" fill-rule="nonzero"/><g clip-path="url(#9e8f4ffd9a)"><path fill="#70c573" d="M 507.257812 405.492188 C 507.257812 405.730469 507.257812 405.996094 507.242188 406.242188 C 507.210938 411.253906 506.816406 416.179688 506.066406 421 C 501.496094 414.289062 496.566406 404.21875 494.054688 402.453125 C 490.183594 399.726562 476 398.09375 481.15625 405.179688 C 486.316406 412.28125 488.5 412.28125 488.5 412.28125 C 488.5 412.28125 478.574219 432.261719 471.492188 430.324219 C 464.390625 428.398438 450.207031 402.453125 450.207031 402.453125 C 441.828125 395.859375 457.941406 390.996094 457.941406 390.996094 C 457.941406 390.996094 463.101562 386.488281 455.363281 381.328125 C 447.625 376.171875 441.828125 387.125 436.671875 385.835938 C 431.515625 384.546875 430.21875 389.703125 428.605469 394.863281 C 426.992188 400.019531 422.289062 403.109375 421.195312 394.863281 C 420.082031 386.617188 408.296875 391.648438 404.429688 391.648438 C 400.558594 391.648438 392.824219 405.179688 385.71875 405.179688 C 378.636719 405.179688 378.636719 395.515625 379.925781 390.996094 C 381.214844 386.488281 392.167969 381.964844 402.488281 381.328125 C 412.804688 380.679688 403.140625 371.648438 406.355469 369.902344 C 409.585938 368.136719 419.253906 371.011719 428.605469 374.882812 C 437.945312 378.75 447.625 369.722656 456.015625 369.902344 C 464.390625 370.082031 437.960938 363.273438 446.335938 356.824219 C 454.730469 350.378906 436.671875 344.566406 437.308594 337.480469 C 437.960938 330.378906 432.148438 322.003906 432.148438 314.265625 C 432.148438 311.800781 434.890625 310.199219 439.574219 309.597656 C 456.785156 315.703125 471.832031 326.3125 483.359375 339.992188 C 498.285156 357.691406 507.257812 380.546875 507.257812 405.492188 " fill-opacity="1" fill-rule="nonzero"/></g><path fill="#70c573" d="M 363.203125 371.089844 C 363.203125 371.089844 366.941406 375.507812 369.820312 371.089844 C 372.707031 366.671875 373.113281 363.148438 371.3125 362.832031 C 369.5 362.507812 358.769531 369.253906 363.203125 371.089844 " fill-opacity="1" fill-rule="nonzero"/><path fill="#70c573" d="M 341.425781 371.089844 C 341.425781 371.089844 349.109375 369.128906 350.816406 365.285156 C 352.527344 361.4375 362.347656 363.148438 364.910156 359.304688 C 367.472656 355.460938 374.105469 354.089844 375.703125 350.503906 C 377.292969 346.921875 379.027344 341.375 372.398438 340.941406 C 365.765625 340.515625 359.226562 337.53125 359.296875 340.941406 C 359.359375 344.363281 357.652344 343.503906 351.675781 345.640625 C 345.699219 347.777344 339.289062 344.695312 339.289062 350.503906 C 339.289062 356.320312 341 362.816406 341 362.816406 C 341 362.816406 337.585938 367.503906 341.425781 371.089844 " fill-opacity="1" fill-rule="nonzero"/><path fill="#70c573" d="M 390.730469 304.796875 C 390.730469 304.796875 379.289062 320.078125 377.164062 320.488281 C 375.03125 320.894531 368.484375 325.378906 367.273438 329.875 C 366.050781 334.367188 357.476562 337.21875 350.949219 334.367188 C 344.417969 331.507812 342.917969 328.355469 346.511719 322.589844 L 346.527344 322.574219 C 348.320312 321.304688 350.164062 320.0625 352.058594 318.90625 C 363.617188 311.753906 376.707031 306.835938 390.730469 304.796875 " fill-opacity="1" fill-rule="nonzero"/><path fill="#70c573" d="M 326.59375 364.839844 C 325.511719 368.105469 325.777344 371.914062 322.25 373.050781 C 318.703125 374.195312 320.0625 378.4375 317.613281 383.875 C 315.410156 388.777344 305.960938 396.089844 304.066406 397.511719 C 305.78125 375.191406 314.710938 354.898438 328.519531 338.949219 C 329.957031 343.308594 329.398438 350.503906 330.671875 352.855469 C 332.582031 356.398438 327.683594 361.574219 326.59375 364.839844 " fill-opacity="1" fill-rule="nonzero"/><g clip-path="url(#e9133a226a)"><g clip-path="url(#d96eb3f72f)"><path fill="#2a81b9" d="M 506.25 502.644531 L 611.105469 502.644531 L 611.105469 607.5 L 506.25 607.5 Z M 506.25 502.644531 " fill-opacity="1" fill-rule="nonzero"/></g></g><g clip-path="url(#3547dbb9a7)"><g clip-path="url(#b1cc436f29)"><path fill="#5eafff" d="M 506.25 502.644531 L 611.105469 502.644531 L 611.105469 607.5 L 506.25 607.5 Z M 506.25 502.644531 " fill-opacity="1" fill-rule="nonzero"/></g></g><g clip-path="url(#79a353cab1)"><g clip-path="url(#7e3fdd1e13)"><path fill="#00bf63" d="M 202.5 202.5 L 340.007812 202.5 L 340.007812 340.007812 L 202.5 340.007812 Z M 202.5 202.5 " fill-opacity="1" fill-rule="nonzero"/></g></g><g clip-path="url(#cb3b726b63)"><g clip-path="url(#b442df772b)"><path fill="#c1ff72" d="M 202.5 202.5 L 340.007812 202.5 L 340.007812 340.007812 L 202.5 340.007812 Z M 202.5 202.5 " fill-opacity="1" fill-rule="nonzero"/></g></g><g clip-path="url(#9cacd70457)"><g clip-path="url(#7093192262)"><path fill="#5e17eb" d="M 240.441406 492.371094 L 323.582031 492.371094 L 323.582031 575.511719 L 240.441406 575.511719 Z M 240.441406 492.371094 " fill-opacity="1" fill-rule="nonzero"/></g></g><g clip-path="url(#8fdaef480a)"><g clip-path="url(#3cd6e20bd2)"><path fill="#e4d7ff" d="M 240.441406 492.371094 L 323.582031 492.371094 L 323.582031 575.511719 L 240.441406 575.511719 Z M 240.441406 492.371094 " fill-opacity="1" fill-rule="nonzero"/></g></g></svg>