<svg xmlns="http://www.w3.org/2000/svg" xmlns:xlink="http://www.w3.org/1999/xlink" width="200" zoomAndPan="magnify" viewBox="0 0 150 149.999998" height="200" preserveAspectRatio="xMidYMid meet" version="1.0"><defs><clipPath id="c250759f7c"><path d="M 39.804688 38.042969 L 70.460938 38.042969 L 70.460938 149.777344 L 39.804688 149.777344 Z M 39.804688 38.042969 " clip-rule="nonzero"/></clipPath><clipPath id="715d6a5ebf"><path d="M 43.277344 38.042969 L 66.992188 38.042969 C 67.910156 38.042969 68.792969 38.40625 69.445312 39.058594 C 70.097656 39.710938 70.460938 40.59375 70.460938 41.515625 L 70.460938 146.207031 C 70.460938 147.125 70.097656 148.007812 69.445312 148.660156 C 68.792969 149.3125 67.910156 149.675781 66.992188 149.675781 L 43.277344 149.675781 C 42.355469 149.675781 41.472656 149.3125 40.820312 148.660156 C 40.171875 148.007812 39.804688 147.125 39.804688 146.207031 L 39.804688 41.515625 C 39.804688 40.59375 40.171875 39.710938 40.820312 39.058594 C 41.472656 38.40625 42.355469 38.042969 43.277344 38.042969 Z M 43.277344 38.042969 " clip-rule="nonzero"/></clipPath><clipPath id="3490aa1f88"><path d="M 79.609375 18.214844 L 110.265625 18.214844 L 110.265625 149.707031 L 79.609375 149.707031 Z M 79.609375 18.214844 " clip-rule="nonzero"/></clipPath><clipPath id="b6d3bdb70d"><path d="M 83.082031 18.214844 L 106.796875 18.214844 C 107.714844 18.214844 108.597656 18.578125 109.25 19.230469 C 109.902344 19.882812 110.265625 20.765625 110.265625 21.683594 L 110.265625 146.207031 C 110.265625 147.125 109.902344 148.007812 109.25 148.660156 C 108.597656 149.3125 107.714844 149.675781 106.796875 149.675781 L 83.082031 149.675781 C 82.160156 149.675781 81.277344 149.3125 80.625 148.660156 C 79.976562 148.007812 79.609375 147.125 79.609375 146.207031 L 79.609375 21.683594 C 79.609375 20.765625 79.976562 19.882812 80.625 19.230469 C 81.277344 18.578125 82.160156 18.214844 83.082031 18.214844 Z M 83.082031 18.214844 " clip-rule="nonzero"/></clipPath><clipPath id="4f892fbba5"><path d="M 0 59.871094 L 30.65625 59.871094 L 30.65625 149.6875 L 0 149.6875 Z M 0 59.871094 " clip-rule="nonzero"/></clipPath><clipPath id="9daa03e070"><path d="M 3.472656 59.871094 L 27.183594 59.871094 C 28.105469 59.871094 28.988281 60.238281 29.640625 60.886719 C 30.292969 61.539062 30.65625 62.421875 30.65625 63.34375 L 30.65625 146.207031 C 30.65625 147.125 30.292969 148.007812 29.640625 148.660156 C 28.988281 149.3125 28.105469 149.675781 27.183594 149.675781 L 3.472656 149.675781 C 2.550781 149.675781 1.667969 149.3125 1.015625 148.660156 C 0.367188 148.007812 0 147.125 0 146.207031 L 0 63.34375 C 0 62.421875 0.367188 61.539062 1.015625 60.886719 C 1.667969 60.238281 2.550781 59.871094 3.472656 59.871094 Z M 3.472656 59.871094 " clip-rule="nonzero"/></clipPath><clipPath id="9e9db24d2c"><path d="M 119.414062 0 L 150 0 L 150 149.695312 L 119.414062 149.695312 Z M 119.414062 0 " clip-rule="nonzero"/></clipPath><clipPath id="c87b0779d9"><path d="M 122.886719 0 L 146.601562 0 C 147.519531 0 148.402344 0.367188 149.054688 1.015625 C 149.707031 1.667969 150.070312 2.550781 150.070312 3.472656 L 150.070312 146.207031 C 150.070312 147.125 149.707031 148.007812 149.054688 148.660156 C 148.402344 149.3125 147.519531 149.675781 146.601562 149.675781 L 122.886719 149.675781 C 121.964844 149.675781 121.082031 149.3125 120.429688 148.660156 C 119.78125 148.007812 119.414062 147.125 119.414062 146.207031 L 119.414062 3.472656 C 119.414062 2.550781 119.78125 1.667969 120.429688 1.015625 C 121.082031 0.367188 121.964844 0 122.886719 0 Z M 122.886719 0 " clip-rule="nonzero"/></clipPath><clipPath id="b89ac726e7"><path d="M 22.375 43.855469 L 128.199219 43.855469 L 128.199219 149.675781 L 22.375 149.675781 Z M 22.375 43.855469 " clip-rule="nonzero"/></clipPath><clipPath id="dae00414a7"><path d="M 75.285156 43.855469 C 46.066406 43.855469 22.375 67.542969 22.375 96.765625 C 22.375 125.988281 46.066406 149.675781 75.285156 149.675781 C 104.507812 149.675781 128.199219 125.988281 128.199219 96.765625 C 128.199219 67.542969 104.507812 43.855469 75.285156 43.855469 Z M 75.285156 43.855469 " clip-rule="nonzero"/></clipPath><clipPath id="76db1e858d"><path d="M 37.546875 59.027344 L 113.023438 59.027344 L 113.023438 134.503906 L 37.546875 134.503906 Z M 37.546875 59.027344 " clip-rule="nonzero"/></clipPath><clipPath id="30d4586011"><path d="M 75.285156 59.027344 C 72.808594 59.027344 70.355469 59.269531 67.925781 59.753906 C 65.492188 60.238281 63.132812 60.953125 60.84375 61.902344 C 58.554688 62.847656 56.378906 64.011719 54.320312 65.386719 C 52.261719 66.765625 50.355469 68.328125 48.601562 70.082031 C 46.847656 71.832031 45.285156 73.738281 43.910156 75.800781 C 42.53125 77.859375 41.371094 80.035156 40.421875 82.324219 C 39.472656 84.613281 38.757812 86.972656 38.273438 89.402344 C 37.789062 91.835938 37.546875 94.289062 37.546875 96.765625 C 37.546875 99.246094 37.789062 101.699219 38.273438 104.128906 C 38.757812 106.558594 39.472656 108.917969 40.421875 111.207031 C 41.371094 113.496094 42.53125 115.671875 43.910156 117.734375 C 45.285156 119.792969 46.847656 121.699219 48.601562 123.453125 C 50.355469 125.203125 52.261719 126.769531 54.320312 128.144531 C 56.378906 129.519531 58.554688 130.683594 60.84375 131.632812 C 63.132812 132.582031 65.492188 133.296875 67.925781 133.78125 C 70.355469 134.261719 72.808594 134.503906 75.285156 134.503906 C 77.765625 134.503906 80.21875 134.261719 82.648438 133.78125 C 85.078125 133.296875 87.4375 132.582031 89.726562 131.632812 C 92.019531 130.683594 94.191406 129.519531 96.253906 128.144531 C 98.3125 126.769531 100.21875 125.203125 101.972656 123.453125 C 103.722656 121.699219 105.289062 119.792969 106.664062 117.734375 C 108.042969 115.671875 109.203125 113.496094 110.152344 111.207031 C 111.101562 108.917969 111.816406 106.558594 112.300781 104.128906 C 112.785156 101.699219 113.023438 99.246094 113.023438 96.765625 C 113.023438 94.289062 112.785156 91.835938 112.300781 89.402344 C 111.816406 86.972656 111.101562 84.613281 110.152344 82.324219 C 109.203125 80.035156 108.042969 77.859375 106.664062 75.800781 C 105.289062 73.738281 103.722656 71.832031 101.972656 70.082031 C 100.21875 68.328125 98.3125 66.765625 96.253906 65.386719 C 94.191406 64.011719 92.019531 62.847656 89.726562 61.902344 C 87.4375 60.953125 85.078125 60.238281 82.648438 59.753906 C 80.21875 59.269531 77.765625 59.027344 75.285156 59.027344 Z M 75.285156 59.027344 " clip-rule="nonzero"/></clipPath><clipPath id="9614cf4a6d"><path d="M 43.738281 65.21875 L 106.835938 65.21875 L 106.835938 128.316406 L 43.738281 128.316406 Z M 43.738281 65.21875 " clip-rule="nonzero"/></clipPath><clipPath id="211cc0cacb"><path d="M 75.285156 65.335938 C 73.222656 65.335938 71.179688 65.539062 69.15625 65.941406 C 67.132812 66.34375 65.167969 66.941406 63.257812 67.730469 C 61.351562 68.519531 59.542969 69.488281 57.824219 70.632812 C 56.109375 71.78125 54.523438 73.082031 53.0625 74.542969 C 51.605469 76.003906 50.300781 77.589844 49.15625 79.304688 C 48.007812 81.019531 47.039062 82.832031 46.25 84.738281 C 45.460938 86.644531 44.863281 88.609375 44.460938 90.636719 C 44.058594 92.660156 43.859375 94.703125 43.859375 96.765625 C 43.859375 98.828125 44.058594 100.875 44.460938 102.898438 C 44.863281 104.921875 45.460938 106.886719 46.25 108.792969 C 47.039062 110.699219 48.007812 112.511719 49.15625 114.226562 C 50.300781 115.941406 51.605469 117.53125 53.0625 118.988281 C 54.523438 120.449219 56.109375 121.75 57.824219 122.898438 C 59.542969 124.042969 61.351562 125.011719 63.257812 125.800781 C 65.167969 126.59375 67.132812 127.1875 69.15625 127.589844 C 71.179688 127.992188 73.222656 128.195312 75.285156 128.195312 C 77.351562 128.195312 79.394531 127.992188 81.417969 127.589844 C 83.441406 127.1875 85.40625 126.59375 87.3125 125.800781 C 89.21875 125.011719 91.03125 124.042969 92.746094 122.898438 C 94.464844 121.75 96.050781 120.449219 97.511719 118.988281 C 98.96875 117.53125 100.273438 115.941406 101.417969 114.226562 C 102.566406 112.511719 103.53125 110.699219 104.324219 108.792969 C 105.113281 106.886719 105.707031 104.921875 106.109375 102.898438 C 106.515625 100.875 106.714844 98.828125 106.714844 96.765625 C 106.714844 94.703125 106.515625 92.660156 106.109375 90.636719 C 105.707031 88.609375 105.113281 86.644531 104.324219 84.738281 C 103.53125 82.832031 102.566406 81.019531 101.417969 79.304688 C 100.273438 77.589844 98.96875 76.003906 97.511719 74.542969 C 96.050781 73.082031 94.464844 71.78125 92.746094 70.632812 C 91.03125 69.488281 89.21875 68.519531 87.3125 67.730469 C 85.40625 66.941406 83.441406 66.34375 81.417969 65.941406 C 79.394531 65.539062 77.351562 65.335938 75.285156 65.335938 Z M 75.285156 65.335938 " clip-rule="nonzero"/></clipPath><clipPath id="8d1af35ab2"><path d="M 22.375 43.855469 L 128.199219 43.855469 L 128.199219 149.675781 L 22.375 149.675781 Z M 22.375 43.855469 " clip-rule="nonzero"/></clipPath><clipPath id="c11cdc1144"><path d="M 75.285156 43.855469 C 104.507812 43.855469 128.199219 67.542969 128.199219 96.765625 C 128.199219 125.988281 104.507812 149.675781 75.285156 149.675781 C 46.066406 149.675781 22.375 125.988281 22.375 96.765625 C 22.375 67.542969 46.066406 43.855469 75.285156 43.855469 L 75.285156 65.019531 C 57.753906 65.019531 43.539062 79.234375 43.539062 96.765625 C 43.539062 114.300781 57.753906 128.511719 75.285156 128.511719 C 92.820312 128.511719 107.035156 114.300781 107.035156 96.765625 C 107.035156 79.234375 92.820312 65.019531 75.285156 65.019531 Z M 75.285156 43.855469 " clip-rule="nonzero"/></clipPath><clipPath id="9ecfb5355d"><path d="M 22 45 L 129 45 L 129 150 L 22 150 Z M 22 45 " clip-rule="nonzero"/></clipPath><clipPath id="9bb7d4e369"><path d="M 88.515625 45.535156 C 115.542969 52.511719 132.5 79.289062 127.257812 106.703125 C 122.011719 134.121094 96.375 152.75 68.679688 149.261719 C 40.984375 145.777344 20.761719 121.375 22.476562 93.515625 C 22.835938 87.683594 27.855469 83.246094 33.6875 83.601562 C 39.519531 83.960938 43.957031 88.984375 43.601562 94.816406 C 42.570312 111.53125 54.703125 126.171875 71.320312 128.265625 C 87.9375 130.355469 103.324219 119.179688 106.46875 102.730469 C 109.613281 86.277344 99.441406 70.214844 83.222656 66.027344 C 79.5625 65.082031 76.683594 62.257812 75.671875 58.613281 C 74.660156 54.96875 75.667969 51.066406 78.316406 48.367188 C 80.96875 45.667969 84.855469 44.589844 88.515625 45.535156 Z M 88.515625 45.535156 " clip-rule="nonzero"/></clipPath></defs><g clip-path="url(#c250759f7c)"><g clip-path="url(#715d6a5ebf)"><path fill="#5eafff" d="M 39.804688 38.042969 L 70.460938 38.042969 L 70.460938 149.65625 L 39.804688 149.65625 Z M 39.804688 38.042969 " fill-opacity="1" fill-rule="nonzero"/></g></g><g clip-path="url(#3490aa1f88)"><g clip-path="url(#b6d3bdb70d)"><path fill="#ef8330" d="M 79.609375 18.214844 L 110.265625 18.214844 L 110.265625 149.707031 L 79.609375 149.707031 Z M 79.609375 18.214844 " fill-opacity="1" fill-rule="nonzero"/></g></g><g clip-path="url(#4f892fbba5)"><g clip-path="url(#9daa03e070)"><path fill="#a8e5d4" d="M 0 59.871094 L 30.65625 59.871094 L 30.65625 149.6875 L 0 149.6875 Z M 0 59.871094 " fill-opacity="1" fill-rule="nonzero"/></g></g><g clip-path="url(#9e9db24d2c)"><g clip-path="url(#c87b0779d9)"><path fill="#223e5e" d="M 119.414062 0 L 150.070312 0 L 150.070312 149.695312 L 119.414062 149.695312 Z M 119.414062 0 " fill-opacity="1" fill-rule="nonzero"/></g></g><g clip-path="url(#b89ac726e7)"><g clip-path="url(#dae00414a7)"><path fill="#d9d9d9" d="M 22.375 43.855469 L 128.199219 43.855469 L 128.199219 149.675781 L 22.375 149.675781 Z M 22.375 43.855469 " fill-opacity="1" fill-rule="nonzero"/></g></g><g clip-path="url(#76db1e858d)"><g clip-path="url(#30d4586011)"><path fill="#d9d9d9" d="M 37.546875 59.027344 L 113.023438 59.027344 L 113.023438 134.503906 L 37.546875 134.503906 Z M 37.546875 59.027344 " fill-opacity="1" fill-rule="nonzero"/></g></g><g clip-path="url(#9614cf4a6d)"><g clip-path="url(#211cc0cacb)"><path fill="#ffffff" d="M 37.546875 59.027344 L 113.023438 59.027344 L 113.023438 134.503906 L 37.546875 134.503906 Z M 37.546875 59.027344 " fill-opacity="1" fill-rule="nonzero"/></g></g><g clip-path="url(#8d1af35ab2)"><g clip-path="url(#c11cdc1144)"><path fill="#d9d9d9" d="M 22.375 43.855469 L 128.199219 43.855469 L 128.199219 149.675781 L 22.375 149.675781 Z M 22.375 43.855469 " fill-opacity="1" fill-rule="nonzero"/></g></g><g clip-path="url(#9ecfb5355d)"><g clip-path="url(#9bb7d4e369)"><path fill="#00bf63" d="M 22.375 43.855469 L 128.199219 43.855469 L 128.199219 149.675781 L 22.375 149.675781 Z M 22.375 43.855469 " fill-opacity="1" fill-rule="nonzero"/></g></g></svg>