<svg xmlns="http://www.w3.org/2000/svg" xmlns:xlink="http://www.w3.org/1999/xlink" width="1080" zoomAndPan="magnify" viewBox="0 0 810 809.999993" height="1080" preserveAspectRatio="xMidYMid meet" version="1.0"><defs><clipPath id="6b0907a507"><path d="M 308.992188 305.433594 L 391.945312 305.433594 L 391.945312 607.765625 L 308.992188 607.765625 Z M 308.992188 305.433594 " clip-rule="nonzero"/></clipPath><clipPath id="0f9b4a3e6d"><path d="M 327.742188 305.433594 L 373.195312 305.433594 C 378.167969 305.433594 382.9375 307.410156 386.453125 310.925781 C 389.972656 314.445312 391.945312 319.210938 391.945312 324.183594 L 391.945312 588.75 C 391.945312 593.722656 389.972656 598.492188 386.453125 602.007812 C 382.9375 605.523438 378.167969 607.5 373.195312 607.5 L 327.742188 607.5 C 322.769531 607.5 318 605.523438 314.484375 602.007812 C 310.96875 598.492188 308.992188 593.722656 308.992188 588.75 L 308.992188 324.183594 C 308.992188 319.210938 310.96875 314.445312 314.484375 310.925781 C 318 307.410156 322.769531 305.433594 327.742188 305.433594 Z M 327.742188 305.433594 " clip-rule="nonzero"/></clipPath><clipPath id="008e00e3d5"><path d="M 416.695312 251.78125 L 499.652344 251.78125 L 499.652344 607.578125 L 416.695312 607.578125 Z M 416.695312 251.78125 " clip-rule="nonzero"/></clipPath><clipPath id="ff1d5dc567"><path d="M 435.445312 251.78125 L 480.902344 251.78125 C 485.875 251.78125 490.644531 253.757812 494.160156 257.273438 C 497.675781 260.789062 499.652344 265.558594 499.652344 270.53125 L 499.652344 588.75 C 499.652344 593.722656 497.675781 598.492188 494.160156 602.007812 C 490.644531 605.523438 485.875 607.5 480.902344 607.5 L 435.445312 607.5 C 430.472656 607.5 425.703125 605.523438 422.1875 602.007812 C 418.671875 598.492188 416.695312 593.722656 416.695312 588.75 L 416.695312 270.53125 C 416.695312 265.558594 418.671875 260.789062 422.1875 257.273438 C 425.703125 253.757812 430.472656 251.78125 435.445312 251.78125 Z M 435.445312 251.78125 " clip-rule="nonzero"/></clipPath><clipPath id="fb1182f86d"><path d="M 201.289062 364.5 L 284.242188 364.5 L 284.242188 607.53125 L 201.289062 607.53125 Z M 201.289062 364.5 " clip-rule="nonzero"/></clipPath><clipPath id="105eca016a"><path d="M 220.039062 364.5 L 265.492188 364.5 C 270.464844 364.5 275.234375 366.476562 278.75 369.992188 C 282.265625 373.507812 284.242188 378.277344 284.242188 383.25 L 284.242188 588.75 C 284.242188 593.722656 282.265625 598.492188 278.75 602.007812 C 275.234375 605.523438 270.464844 607.5 265.492188 607.5 L 220.039062 607.5 C 215.066406 607.5 210.296875 605.523438 206.78125 602.007812 C 203.265625 598.492188 201.289062 593.722656 201.289062 588.75 L 201.289062 383.25 C 201.289062 378.277344 203.265625 373.507812 206.78125 369.992188 C 210.296875 366.476562 215.066406 364.5 220.039062 364.5 Z M 220.039062 364.5 " clip-rule="nonzero"/></clipPath><clipPath id="959a7a639e"><path d="M 524.402344 202.5 L 607.355469 202.5 L 607.355469 607.550781 L 524.402344 607.550781 Z M 524.402344 202.5 " clip-rule="nonzero"/></clipPath><clipPath id="8a4d8cb3f5"><path d="M 543.152344 202.5 L 588.605469 202.5 C 593.578125 202.5 598.347656 204.476562 601.863281 207.992188 C 605.378906 211.507812 607.355469 216.277344 607.355469 221.25 L 607.355469 588.75 C 607.355469 593.722656 605.378906 598.492188 601.863281 602.007812 C 598.347656 605.523438 593.578125 607.5 588.605469 607.5 L 543.152344 607.5 C 538.179688 607.5 533.410156 605.523438 529.890625 602.007812 C 526.375 598.492188 524.402344 593.722656 524.402344 588.75 L 524.402344 221.25 C 524.402344 216.277344 526.375 211.507812 529.890625 207.992188 C 533.410156 204.476562 538.179688 202.5 543.152344 202.5 Z M 543.152344 202.5 " clip-rule="nonzero"/></clipPath><clipPath id="c245d0f3fa"><path d="M 261.832031 321.164062 L 548.167969 321.164062 L 548.167969 607.5 L 261.832031 607.5 Z M 261.832031 321.164062 " clip-rule="nonzero"/></clipPath><clipPath id="d2448ad351"><path d="M 405 321.164062 C 325.929688 321.164062 261.832031 385.261719 261.832031 464.332031 C 261.832031 543.402344 325.929688 607.5 405 607.5 C 484.070312 607.5 548.167969 543.402344 548.167969 464.332031 C 548.167969 385.261719 484.070312 321.164062 405 321.164062 Z M 405 321.164062 " clip-rule="nonzero"/></clipPath><clipPath id="78ff8b0c89"><path d="M 302.886719 362.21875 L 507.113281 362.21875 L 507.113281 566.445312 L 302.886719 566.445312 Z M 302.886719 362.21875 " clip-rule="nonzero"/></clipPath><clipPath id="3f7bb42fca"><path d="M 405 362.21875 C 401.65625 362.21875 398.320312 362.382812 394.992188 362.710938 C 391.664062 363.039062 388.359375 363.527344 385.078125 364.179688 C 381.796875 364.832031 378.558594 365.644531 375.359375 366.617188 C 372.15625 367.585938 369.011719 368.710938 365.921875 369.992188 C 362.832031 371.273438 359.8125 372.699219 356.863281 374.277344 C 353.914062 375.851562 351.050781 377.570312 348.269531 379.429688 C 345.488281 381.285156 342.804688 383.277344 340.21875 385.398438 C 337.636719 387.519531 335.160156 389.761719 332.796875 392.125 C 330.429688 394.492188 328.1875 396.964844 326.066406 399.550781 C 323.945312 402.136719 321.953125 404.820312 320.097656 407.601562 C 318.238281 410.382812 316.519531 413.246094 314.945312 416.195312 C 313.367188 419.144531 311.941406 422.164062 310.660156 425.253906 C 309.378906 428.34375 308.253906 431.488281 307.285156 434.691406 C 306.3125 437.890625 305.5 441.128906 304.847656 444.410156 C 304.195312 447.691406 303.707031 450.996094 303.378906 454.324219 C 303.050781 457.652344 302.886719 460.988281 302.886719 464.332031 C 302.886719 467.675781 303.050781 471.011719 303.378906 474.339844 C 303.707031 477.667969 304.195312 480.972656 304.847656 484.253906 C 305.5 487.53125 306.3125 490.773438 307.285156 493.972656 C 308.253906 497.171875 309.378906 500.320312 310.660156 503.410156 C 311.941406 506.5 313.367188 509.519531 314.945312 512.46875 C 316.519531 515.417969 318.238281 518.28125 320.097656 521.0625 C 321.953125 523.84375 323.945312 526.527344 326.066406 529.109375 C 328.1875 531.695312 330.429688 534.171875 332.796875 536.535156 C 335.160156 538.902344 337.636719 541.144531 340.21875 543.265625 C 342.804688 545.386719 345.488281 547.378906 348.269531 549.234375 C 351.050781 551.09375 353.914062 552.8125 356.863281 554.386719 C 359.8125 555.964844 362.832031 557.390625 365.921875 558.671875 C 369.011719 559.953125 372.15625 561.078125 375.359375 562.046875 C 378.558594 563.019531 381.796875 563.828125 385.078125 564.480469 C 388.359375 565.132812 391.664062 565.625 394.992188 565.953125 C 398.320312 566.28125 401.65625 566.445312 405 566.445312 C 408.34375 566.445312 411.679688 566.28125 415.007812 565.953125 C 418.335938 565.625 421.640625 565.132812 424.921875 564.480469 C 428.203125 563.828125 431.441406 563.019531 434.640625 562.046875 C 437.84375 561.078125 440.988281 559.953125 444.078125 558.671875 C 447.167969 557.390625 450.1875 555.964844 453.136719 554.386719 C 456.085938 552.808594 458.949219 551.09375 461.730469 549.234375 C 464.511719 547.378906 467.195312 545.386719 469.78125 543.265625 C 472.363281 541.144531 474.839844 538.902344 477.203125 536.535156 C 479.570312 534.171875 481.8125 531.695312 483.933594 529.109375 C 486.054688 526.527344 488.046875 523.84375 489.902344 521.0625 C 491.761719 518.28125 493.480469 515.417969 495.054688 512.46875 C 496.632812 509.519531 498.058594 506.5 499.339844 503.410156 C 500.621094 500.320312 501.746094 497.171875 502.714844 493.972656 C 503.6875 490.773438 504.5 487.53125 505.152344 484.253906 C 505.804688 480.972656 506.292969 477.667969 506.621094 474.339844 C 506.949219 471.011719 507.113281 467.675781 507.113281 464.332031 C 507.113281 460.988281 506.949219 457.652344 506.621094 454.324219 C 506.292969 450.996094 505.804688 447.691406 505.152344 444.410156 C 504.5 441.128906 503.6875 437.890625 502.714844 434.691406 C 501.746094 431.488281 500.621094 428.34375 499.339844 425.253906 C 498.058594 422.164062 496.632812 419.144531 495.054688 416.195312 C 493.480469 413.246094 491.761719 410.382812 489.902344 407.601562 C 488.046875 404.820312 486.054688 402.136719 483.933594 399.550781 C 481.8125 396.964844 479.570312 394.492188 477.203125 392.125 C 474.839844 389.761719 472.363281 387.519531 469.78125 385.398438 C 467.195312 383.277344 464.511719 381.285156 461.730469 379.429688 C 458.949219 377.570312 456.085938 375.851562 453.136719 374.277344 C 450.1875 372.699219 447.167969 371.273438 444.078125 369.992188 C 440.988281 368.710938 437.84375 367.585938 434.640625 366.617188 C 431.441406 365.644531 428.203125 364.832031 424.921875 364.179688 C 421.640625 363.527344 418.335938 363.039062 415.007812 362.710938 C 411.679688 362.382812 408.34375 362.21875 405 362.21875 Z M 405 362.21875 " clip-rule="nonzero"/></clipPath><clipPath id="a4b53aacb2"><path d="M 319.632812 379 L 490.367188 379 L 490.367188 549.699219 L 319.632812 549.699219 Z M 319.632812 379 " clip-rule="nonzero"/></clipPath><clipPath id="83673b2a94"><path d="M 405 379.292969 C 402.214844 379.292969 399.4375 379.429688 396.664062 379.703125 C 393.894531 379.976562 391.140625 380.382812 388.410156 380.925781 C 385.679688 381.46875 382.980469 382.144531 380.3125 382.953125 C 377.648438 383.761719 375.03125 384.699219 372.457031 385.765625 C 369.882812 386.832031 367.367188 388.019531 364.914062 389.332031 C 362.457031 390.644531 360.070312 392.078125 357.753906 393.625 C 355.4375 395.171875 353.203125 396.828125 351.050781 398.59375 C 348.898438 400.363281 346.835938 402.230469 344.867188 404.199219 C 342.898438 406.167969 341.03125 408.230469 339.261719 410.382812 C 337.496094 412.535156 335.839844 414.769531 334.292969 417.085938 C 332.746094 419.402344 331.316406 421.789062 330 424.246094 C 328.6875 426.699219 327.5 429.214844 326.433594 431.789062 C 325.367188 434.363281 324.429688 436.980469 323.621094 439.644531 C 322.8125 442.3125 322.136719 445.007812 321.59375 447.742188 C 321.050781 450.472656 320.644531 453.222656 320.371094 455.996094 C 320.097656 458.769531 319.960938 461.546875 319.960938 464.332031 C 319.960938 467.117188 320.097656 469.894531 320.371094 472.667969 C 320.644531 475.4375 321.050781 478.191406 321.59375 480.921875 C 322.136719 483.652344 322.8125 486.351562 323.621094 489.015625 C 324.429688 491.683594 325.367188 494.300781 326.433594 496.875 C 327.5 499.449219 328.6875 501.960938 330 504.417969 C 331.316406 506.875 332.746094 509.261719 334.292969 511.578125 C 335.839844 513.894531 337.496094 516.128906 339.261719 518.28125 C 341.03125 520.433594 342.898438 522.496094 344.867188 524.464844 C 346.835938 526.433594 348.898438 528.300781 351.050781 530.066406 C 353.203125 531.835938 355.4375 533.492188 357.753906 535.039062 C 360.070312 536.585938 362.457031 538.015625 364.914062 539.328125 C 367.367188 540.644531 369.882812 541.832031 372.457031 542.898438 C 375.03125 543.964844 377.648438 544.902344 380.3125 545.710938 C 382.980469 546.519531 385.679688 547.195312 388.410156 547.738281 C 391.140625 548.28125 393.894531 548.6875 396.664062 548.960938 C 399.4375 549.234375 402.214844 549.371094 405 549.371094 C 407.785156 549.371094 410.5625 549.234375 413.335938 548.960938 C 416.105469 548.6875 418.859375 548.28125 421.589844 547.738281 C 424.320312 547.195312 427.019531 546.519531 429.6875 545.710938 C 432.351562 544.902344 434.96875 543.964844 437.542969 542.898438 C 440.117188 541.832031 442.632812 540.644531 445.085938 539.328125 C 447.542969 538.015625 449.929688 536.585938 452.246094 535.039062 C 454.5625 533.492188 456.796875 531.835938 458.949219 530.066406 C 461.101562 528.300781 463.164062 526.433594 465.132812 524.464844 C 467.101562 522.496094 468.96875 520.433594 470.738281 518.28125 C 472.503906 516.128906 474.160156 513.894531 475.707031 511.578125 C 477.253906 509.261719 478.683594 506.875 480 504.417969 C 481.3125 501.960938 482.5 499.449219 483.566406 496.875 C 484.632812 494.300781 485.570312 491.683594 486.378906 489.015625 C 487.1875 486.351562 487.863281 483.652344 488.40625 480.921875 C 488.949219 478.191406 489.355469 475.4375 489.628906 472.667969 C 489.902344 469.894531 490.039062 467.117188 490.039062 464.332031 C 490.039062 461.546875 489.902344 458.769531 489.628906 455.996094 C 489.355469 453.222656 488.949219 450.472656 488.40625 447.742188 C 487.863281 445.007812 487.1875 442.3125 486.378906 439.644531 C 485.570312 436.980469 484.632812 434.363281 483.566406 431.789062 C 482.5 429.214844 481.3125 426.699219 480 424.246094 C 478.683594 421.789062 477.253906 419.402344 475.707031 417.085938 C 474.160156 414.769531 472.503906 412.535156 470.738281 410.382812 C 468.96875 408.230469 467.101562 406.167969 465.132812 404.199219 C 463.164062 402.230469 461.101562 400.363281 458.949219 398.59375 C 456.796875 396.828125 454.5625 395.171875 452.246094 393.625 C 449.929688 392.078125 447.542969 390.644531 445.085938 389.332031 C 442.632812 388.019531 440.117188 386.832031 437.542969 385.765625 C 434.96875 384.699219 432.351562 383.761719 429.6875 382.953125 C 427.019531 382.144531 424.320312 381.46875 421.589844 380.925781 C 418.859375 380.382812 416.105469 379.976562 413.335938 379.703125 C 410.5625 379.429688 407.785156 379.292969 405 379.292969 Z M 405 379.292969 " clip-rule="nonzero"/></clipPath><clipPath id="57294c4452"><path d="M 261.832031 321.164062 L 548.167969 321.164062 L 548.167969 607.5 L 261.832031 607.5 Z M 261.832031 321.164062 " clip-rule="nonzero"/></clipPath><clipPath id="bd5f112da0"><path d="M 405 321.164062 C 484.070312 321.164062 548.167969 385.261719 548.167969 464.332031 C 548.167969 543.402344 484.070312 607.5 405 607.5 C 325.929688 607.5 261.832031 543.402344 261.832031 464.332031 C 261.832031 385.261719 325.929688 321.164062 405 321.164062 L 405 378.429688 C 357.558594 378.429688 319.097656 416.890625 319.097656 464.332031 C 319.097656 511.773438 357.558594 550.234375 405 550.234375 C 452.441406 550.234375 490.902344 511.773438 490.902344 464.332031 C 490.902344 416.890625 452.441406 378.429688 405 378.429688 Z M 405 321.164062 " clip-rule="nonzero"/></clipPath><clipPath id="6035b7d569"><path d="M 261 324 L 549 324 L 549 608 L 261 608 Z M 261 324 " clip-rule="nonzero"/></clipPath><clipPath id="5ed08654f8"><path d="M 440.792969 325.710938 C 513.921875 344.59375 559.804688 417.039062 545.621094 491.222656 C 531.433594 565.40625 462.058594 615.8125 387.121094 606.378906 C 312.183594 596.945312 257.460938 530.921875 262.101562 455.535156 C 263.074219 439.75 276.65625 427.742188 292.441406 428.714844 C 308.226562 429.6875 320.234375 443.269531 319.261719 459.054688 C 316.476562 504.285156 349.308594 543.902344 394.273438 549.558594 C 439.234375 555.21875 480.859375 524.976562 489.371094 480.464844 C 497.882812 435.953125 470.355469 392.488281 426.476562 381.160156 C 416.570312 378.601562 408.78125 370.953125 406.042969 361.097656 C 403.308594 351.242188 406.035156 340.671875 413.203125 333.371094 C 420.371094 326.074219 430.886719 323.152344 440.792969 325.710938 Z M 440.792969 325.710938 " clip-rule="nonzero"/></clipPath></defs><g clip-path="url(#6b0907a507)"><g clip-path="url(#0f9b4a3e6d)"><path fill="#5eafff" d="M 308.992188 305.433594 L 391.945312 305.433594 L 391.945312 607.441406 L 308.992188 607.441406 Z M 308.992188 305.433594 " fill-opacity="1" fill-rule="nonzero"/></g></g><g clip-path="url(#008e00e3d5)"><g clip-path="url(#ff1d5dc567)"><path fill="#ef8330" d="M 416.695312 251.78125 L 499.652344 251.78125 L 499.652344 607.578125 L 416.695312 607.578125 Z M 416.695312 251.78125 " fill-opacity="1" fill-rule="nonzero"/></g></g><g clip-path="url(#fb1182f86d)"><g clip-path="url(#105eca016a)"><path fill="#a8e5d4" d="M 201.289062 364.5 L 284.242188 364.5 L 284.242188 607.53125 L 201.289062 607.53125 Z M 201.289062 364.5 " fill-opacity="1" fill-rule="nonzero"/></g></g><g clip-path="url(#959a7a639e)"><g clip-path="url(#8a4d8cb3f5)"><path fill="#223e5e" d="M 524.402344 202.5 L 607.355469 202.5 L 607.355469 607.550781 L 524.402344 607.550781 Z M 524.402344 202.5 " fill-opacity="1" fill-rule="nonzero"/></g></g><g clip-path="url(#c245d0f3fa)"><g clip-path="url(#d2448ad351)"><path fill="#d9d9d9" d="M 261.832031 321.164062 L 548.167969 321.164062 L 548.167969 607.5 L 261.832031 607.5 Z M 261.832031 321.164062 " fill-opacity="1" fill-rule="nonzero"/></g></g><g clip-path="url(#78ff8b0c89)"><g clip-path="url(#3f7bb42fca)"><path fill="#d9d9d9" d="M 302.886719 362.21875 L 507.113281 362.21875 L 507.113281 566.445312 L 302.886719 566.445312 Z M 302.886719 362.21875 " fill-opacity="1" fill-rule="nonzero"/></g></g><g clip-path="url(#a4b53aacb2)"><g clip-path="url(#83673b2a94)"><path fill="#ffffff" d="M 302.886719 362.21875 L 507.113281 362.21875 L 507.113281 566.445312 L 302.886719 566.445312 Z M 302.886719 362.21875 " fill-opacity="1" fill-rule="nonzero"/></g></g><g clip-path="url(#57294c4452)"><g clip-path="url(#bd5f112da0)"><path fill="#d9d9d9" d="M 261.832031 321.164062 L 548.167969 321.164062 L 548.167969 607.5 L 261.832031 607.5 Z M 261.832031 321.164062 " fill-opacity="1" fill-rule="nonzero"/></g></g><g clip-path="url(#6035b7d569)"><g clip-path="url(#5ed08654f8)"><path fill="#00bf63" d="M 261.832031 321.164062 L 548.167969 321.164062 L 548.167969 607.5 L 261.832031 607.5 Z M 261.832031 321.164062 " fill-opacity="1" fill-rule="nonzero"/></g></g></svg>